<?xml version="1.0" encoding="UTF-8"?>
<!DOCTYPE svg PUBLIC "-//W3C//DTD SVG 1.1//EN" "http://www.w3.org/Graphics/SVG/1.1/DTD/svg11.dtd">
<svg xmlns="http://www.w3.org/2000/svg" version="1.1" width="1216px" height="1749px" style="shape-rendering:geometricPrecision; text-rendering:geometricPrecision; image-rendering:optimizeQuality; fill-rule:evenodd; clip-rule:evenodd" xmlns:xlink="http://www.w3.org/1999/xlink">
<g><path style="opacity:0.952" fill="#371114" d="M 613.5,385.5 C 614.397,386.598 615.23,386.598 616,385.5C 616.785,387.286 617.951,388.786 619.5,390C 617.221,393.578 613.887,395.412 609.5,395.5C 604.117,394.992 598.283,394.992 592,395.5C 587.34,392.435 587.84,390.269 593.5,389C 595.891,388.713 598.224,388.213 600.5,387.5C 601.167,387.833 601.833,388.167 602.5,388.5C 606.317,387.611 609.984,386.611 613.5,385.5 Z"/></g>
<g><path style="opacity:0.917" fill="#371113" d="M 559.5,385.5 C 566.802,387.787 573.636,388.453 580,387.5C 589.699,390.228 589.366,392.895 579,395.5C 571.628,394.482 564.128,392.982 556.5,391C 555.62,389.644 555.286,388.144 555.5,386.5C 557.099,386.768 558.432,386.434 559.5,385.5 Z"/></g>
</svg>
