<?xml version="1.0" encoding="UTF-8"?>
<!DOCTYPE svg PUBLIC "-//W3C//DTD SVG 1.1//EN" "http://www.w3.org/Graphics/SVG/1.1/DTD/svg11.dtd">
<svg xmlns="http://www.w3.org/2000/svg" version="1.1" width="1216px" height="1749px" style="shape-rendering:geometricPrecision; text-rendering:geometricPrecision; image-rendering:optimizeQuality; fill-rule:evenodd; clip-rule:evenodd" xmlns:xlink="http://www.w3.org/1999/xlink">
<g><path style="opacity:0.858" fill="#3b1517" d="M 573.5,382.5 C 583.506,382.334 593.506,382.5 603.5,383C 606.571,383.147 609.404,383.98 612,385.5C 615.383,384.777 617.883,386.111 619.5,389.5C 606.245,409.454 589.578,413.954 569.5,403C 564.972,398.972 560.972,394.472 557.5,389.5C 559.117,386.111 561.617,384.777 565,385.5C 567.98,384.514 570.813,383.514 573.5,382.5 Z"/></g>
<g><path style="opacity:1" fill="#f9f5f5" d="M 609.5,392.5 C 595.445,391.18 581.445,391.18 567.5,392.5C 565.073,391.721 565.073,390.554 567.5,389C 581.5,385.667 595.5,385.667 609.5,389C 611.927,390.554 611.927,391.721 609.5,392.5 Z"/></g>
<g><path style="opacity:1" fill="#bc7f83" d="M 609.5,392.5 C 600.414,402.935 589.747,405.768 577.5,401C 574.672,398.752 571.672,396.752 568.5,395C 567.748,394.329 567.414,393.496 567.5,392.5C 581.445,391.18 595.445,391.18 609.5,392.5 Z"/></g>
</svg>
