<?xml version="1.0" encoding="UTF-8"?>
<!DOCTYPE svg PUBLIC "-//W3C//DTD SVG 1.1//EN" "http://www.w3.org/Graphics/SVG/1.1/DTD/svg11.dtd">
<svg xmlns="http://www.w3.org/2000/svg" version="1.1" width="1216px" height="1749px" style="shape-rendering:geometricPrecision; text-rendering:geometricPrecision; image-rendering:optimizeQuality; fill-rule:evenodd; clip-rule:evenodd" xmlns:xlink="http://www.w3.org/1999/xlink">
<g><path style="opacity:0.968" fill="#371113" d="M 577.5,393.5 C 584.025,394.429 590.525,394.429 597,393.5C 603.5,394.492 610,396.492 616.5,399.5C 617.386,400.325 617.719,401.325 617.5,402.5C 615.459,402.146 613.626,402.146 612,402.5C 606.777,400.8 601.444,399.466 596,398.5C 594.333,399.167 592.667,399.833 591,400.5C 587.815,400.665 584.482,399.999 581,398.5C 575.556,399.466 570.223,400.8 565,402.5C 563.374,402.146 561.541,402.146 559.5,402.5C 559.281,401.325 559.614,400.325 560.5,399.5C 566.424,396.977 572.091,394.977 577.5,393.5 Z"/></g>
</svg>
