<?xml version="1.0" encoding="UTF-8"?>
<!DOCTYPE svg PUBLIC "-//W3C//DTD SVG 1.1//EN" "http://www.w3.org/Graphics/SVG/1.1/DTD/svg11.dtd">
<svg xmlns="http://www.w3.org/2000/svg" version="1.1" width="1216px" height="1749px" style="shape-rendering:geometricPrecision; text-rendering:geometricPrecision; image-rendering:optimizeQuality; fill-rule:evenodd; clip-rule:evenodd" xmlns:xlink="http://www.w3.org/1999/xlink">
<g><path style="opacity:0.926" fill="#391215" d="M 584.5,383.5 C 592.147,382.319 597.313,385.319 600,392.5C 601.886,408.217 595.553,414.884 581,412.5C 579.64,410.895 578.14,409.395 576.5,408C 576.693,406.355 576.86,404.521 577,402.5C 577.5,402 578,401.5 578.5,401C 576.114,393.615 578.114,387.782 584.5,383.5 Z"/></g>
<g><path style="opacity:0.999" fill="#bb6e73" d="M 586.5,388.5 C 591.425,389.303 593.758,392.303 593.5,397.5C 593.607,401.895 591.44,404.228 587,404.5C 584.187,402.85 581.687,400.85 579.5,398.5C 580.884,394.361 583.218,391.028 586.5,388.5 Z"/></g>
</svg>
