<?xml version="1.0" encoding="UTF-8"?>
<!DOCTYPE svg PUBLIC "-//W3C//DTD SVG 1.1//EN" "http://www.w3.org/Graphics/SVG/1.1/DTD/svg11.dtd">
<svg xmlns="http://www.w3.org/2000/svg" version="1.1" width="1216px" height="1749px" style="shape-rendering:geometricPrecision; text-rendering:geometricPrecision; image-rendering:optimizeQuality; fill-rule:evenodd; clip-rule:evenodd" xmlns:xlink="http://www.w3.org/1999/xlink">
<g><path style="opacity:0.955" fill="#381215" d="M 591.5,388.5 C 596.954,391.687 600.787,396.354 603,402.5C 603.991,404.447 604.325,406.447 604,408.5C 600.333,409.167 596.667,409.833 593,410.5C 587.08,410.667 580.914,410.167 574.5,409C 573.196,408.196 572.529,407.029 572.5,405.5C 576.123,396.53 582.456,390.864 591.5,388.5 Z"/></g>
<g><path style="opacity:1" fill="#d57a7f" d="M 586.5,393.5 C 588.527,393.338 590.527,393.505 592.5,394C 594.134,396.98 595.8,399.98 597.5,403C 596.234,403.309 595.067,403.809 594,404.5C 588.171,403.402 582.338,403.235 576.5,404C 579.363,399.972 582.696,396.472 586.5,393.5 Z"/></g>
</svg>
