<?xml version="1.0" encoding="UTF-8"?>
<!DOCTYPE svg PUBLIC "-//W3C//DTD SVG 1.1//EN" "http://www.w3.org/Graphics/SVG/1.1/DTD/svg11.dtd">
<svg xmlns="http://www.w3.org/2000/svg" version="1.1" width="1216px" height="1749px" style="shape-rendering:geometricPrecision; text-rendering:geometricPrecision; image-rendering:optimizeQuality; fill-rule:evenodd; clip-rule:evenodd" xmlns:xlink="http://www.w3.org/1999/xlink">
<g><path style="opacity:0.97" fill="#381214" d="M 557.5,389.5 C 578.226,389.173 598.893,389.506 619.5,390.5C 618.636,392.197 617.303,393.363 615.5,394C 612.013,394.507 608.68,395.007 605.5,395.5C 603.485,402.529 600.651,409.196 597,415.5C 591.333,419.5 585.667,419.5 580,415.5C 576.349,409.196 573.515,402.529 571.5,395.5C 568.32,395.007 564.987,394.507 561.5,394C 559.249,393.252 557.916,391.752 557.5,389.5 Z"/></g>
<g><path style="opacity:1" fill="#d57a7f" d="M 586.5,395.5 C 586.104,398.482 586.771,401.149 588.5,403.5C 590.229,401.149 590.896,398.482 590.5,395.5C 594.048,395.095 597.381,395.595 600.5,397C 597.97,401.891 595.304,406.724 592.5,411.5C 591.167,412.167 589.833,412.833 588.5,413.5C 587.167,412.833 585.833,412.167 584.5,411.5C 581.174,407.001 578.507,402.168 576.5,397C 579.619,395.595 582.952,395.095 586.5,395.5 Z"/></g>
<g><path style="opacity:1" fill="#522326" d="M 586.5,395.5 C 587.833,395.5 589.167,395.5 590.5,395.5C 590.896,398.482 590.229,401.149 588.5,403.5C 586.771,401.149 586.104,398.482 586.5,395.5 Z"/></g>
</svg>
