<?xml version="1.0" encoding="UTF-8"?>
<!DOCTYPE svg PUBLIC "-//W3C//DTD SVG 1.1//EN" "http://www.w3.org/Graphics/SVG/1.1/DTD/svg11.dtd">
<svg xmlns="http://www.w3.org/2000/svg" version="1.1" width="1216px" height="1749px" style="shape-rendering:geometricPrecision; text-rendering:geometricPrecision; image-rendering:optimizeQuality; fill-rule:evenodd; clip-rule:evenodd" xmlns:xlink="http://www.w3.org/1999/xlink">
<g><path style="opacity:0.845" fill="#351012" d="M 531.5,259.5 C 542.638,258.885 553.638,259.718 564.5,262C 569.771,264.611 569.771,267.111 564.5,269.5C 558.135,268.362 551.802,267.029 545.5,265.5C 543.956,265.79 542.623,266.456 541.5,267.5C 540.914,267.291 540.414,266.957 540,266.5C 524.231,268.766 508.398,270.766 492.5,272.5C 492.946,269.542 494.446,267.208 497,265.5C 508.532,262.884 520.032,260.884 531.5,259.5 Z"/></g>
<g><path style="opacity:0.877" fill="#351012" d="M 620.5,259.5 C 640.061,258.951 659.395,260.785 678.5,265C 681.816,266.479 683.816,268.979 684.5,272.5C 668.602,270.766 652.769,268.766 637,266.5C 636.586,266.957 636.086,267.291 635.5,267.5C 634.377,266.456 633.044,265.79 631.5,265.5C 625.198,267.029 618.865,268.362 612.5,269.5C 609.468,268.988 608.301,267.322 609,264.5C 612.61,262.15 616.444,260.484 620.5,259.5 Z"/></g>
<g><path style="opacity:0.95" fill="#381215" d="M 537.5,351.5 C 533.03,349.964 529.03,347.631 525.5,344.5C 526.006,340.993 525.34,337.826 523.5,335C 526.028,333.983 526.028,332.816 523.5,331.5C 523.78,327.953 523.78,324.287 523.5,320.5C 523.631,319.624 523.298,318.957 522.5,318.5C 520.746,321.552 518.079,323.386 514.5,324C 510.422,327.337 507.755,331.503 506.5,336.5C 507.552,336.351 508.552,336.517 509.5,337C 510.975,340.291 512.975,343.125 515.5,345.5C 515.281,346.675 515.614,347.675 516.5,348.5C 518.071,347.691 519.738,347.357 521.5,347.5C 521.343,348.873 521.51,350.207 522,351.5C 523.915,350.084 525.415,350.418 526.5,352.5C 526.151,357.799 523.484,359.966 518.5,359C 517.809,357.933 517.309,356.766 517,355.5C 514.959,356.423 512.792,356.756 510.5,356.5C 510.297,354.61 510.963,353.11 512.5,352C 506.848,349.25 502.014,345.417 498,340.5C 497.231,337.901 497.398,335.401 498.5,333C 495.438,331.795 492.438,330.628 489.5,329.5C 489.132,326.944 489.966,324.944 492,323.5C 496.544,322.884 501.044,322.051 505.5,321C 508.102,319.446 509.269,317.28 509,314.5C 507.286,312.957 505.786,311.29 504.5,309.5C 504.818,308.353 505.484,307.519 506.5,307C 509.547,306.908 512.547,307.408 515.5,308.5C 517.925,303.946 521.592,300.779 526.5,299C 537.443,295.246 547.943,296.079 558,301.5C 558.617,302.449 558.451,303.282 557.5,304C 551.254,302.76 545.088,301.927 539,301.5C 535.272,302.706 531.439,303.539 527.5,304C 524.693,306.044 521.693,307.711 518.5,309C 527.356,307.532 536.19,306.032 545,304.5C 552.255,305.077 558.588,307.744 564,312.5C 564.564,315.959 564.064,319.292 562.5,322.5C 563.355,326.894 563.688,331.227 563.5,335.5C 561.551,341.83 557.884,346.997 552.5,351C 547.511,351.499 542.511,351.666 537.5,351.5 Z"/></g>
<g><path style="opacity:0.957" fill="#381214" d="M 650.5,351.5 C 653.763,351.326 655.43,349.659 655.5,346.5C 661.135,346.704 664.635,344.037 666,338.5C 668.119,337.349 669.953,335.849 671.5,334C 670.552,333.517 669.552,333.351 668.5,333.5C 668.736,330.774 667.903,328.441 666,326.5C 662.081,324.611 658.581,322.277 655.5,319.5C 655.44,318.957 655.107,318.624 654.5,318.5C 653.67,324.472 653.17,330.472 653,336.5C 652.5,337 652,337.5 651.5,338C 652.38,339.356 652.714,340.856 652.5,342.5C 649.85,345.163 647.183,347.83 644.5,350.5C 638.188,351.517 631.522,351.684 624.5,351C 619.116,346.997 615.449,341.83 613.5,335.5C 613.312,331.227 613.645,326.894 614.5,322.5C 612.936,319.292 612.436,315.959 613,312.5C 618.412,307.744 624.745,305.077 632,304.5C 640.81,306.032 649.644,307.532 658.5,309C 655.307,307.711 652.307,306.044 649.5,304C 645.429,303.476 641.429,302.642 637.5,301.5C 631.262,301.927 624.929,302.927 618.5,304.5C 618.33,303.178 618.663,302.011 619.5,301C 632.945,294.41 645.945,295.244 658.5,303.5C 659.684,305.046 660.684,306.713 661.5,308.5C 664.816,307.095 668.149,306.762 671.5,307.5C 671.833,308.167 672.167,308.833 672.5,309.5C 671.214,311.29 669.714,312.957 668,314.5C 667.731,317.28 668.898,319.446 671.5,321C 675.956,322.051 680.456,322.884 685,323.5C 687.034,324.944 687.868,326.944 687.5,329.5C 684.562,330.628 681.562,331.795 678.5,333C 679.602,335.401 679.769,337.901 679,340.5C 674.986,345.417 670.152,349.25 664.5,352C 666.037,353.11 666.703,354.61 666.5,356.5C 664.208,356.756 662.041,356.423 660,355.5C 659.31,359.19 657.143,360.357 653.5,359C 651.798,356.765 650.798,354.265 650.5,351.5 Z"/></g>
<g><path style="opacity:1" fill="#fcfbfb" d="M 545.5,316.5 C 547.857,316.337 550.19,316.503 552.5,317C 555.08,319.12 555.08,321.287 552.5,323.5C 547.977,326.548 544.644,325.548 542.5,320.5C 543.524,319.148 544.524,317.815 545.5,316.5 Z"/></g>
<g><path style="opacity:1" fill="#f5f3f4" d="M 640.5,317.5 C 642.827,317.247 644.827,317.914 646.5,319.5C 647.158,321.437 647.491,323.27 647.5,325C 641.756,326.806 638.423,325.139 637.5,320C 638.571,319.148 639.571,318.315 640.5,317.5 Z"/></g>
<g><path style="opacity:0.99" fill="#f8e3e3" d="M 523.5,320.5 C 520.558,328.759 521.225,336.759 525.5,344.5C 529.03,347.631 533.03,349.964 537.5,351.5C 534.038,352.482 530.371,352.815 526.5,352.5C 525.415,350.418 523.915,350.084 522,351.5C 521.51,350.207 521.343,348.873 521.5,347.5C 519.626,346.715 517.626,346.048 515.5,345.5C 512.975,343.125 510.975,340.291 509.5,337C 508.552,336.517 507.552,336.351 506.5,336.5C 507.755,331.503 510.422,327.337 514.5,324C 518.079,323.386 520.746,321.552 522.5,318.5C 523.298,318.957 523.631,319.624 523.5,320.5 Z"/></g>
<g><path style="opacity:0.992" fill="#f7e2e3" d="M 655.5,319.5 C 658.581,322.277 662.081,324.611 666,326.5C 667.903,328.441 668.736,330.774 668.5,333.5C 669.552,333.351 670.552,333.517 671.5,334C 669.953,335.849 668.119,337.349 666,338.5C 664.635,344.037 661.135,346.704 655.5,346.5C 655.43,349.659 653.763,351.326 650.5,351.5C 648.423,352.523 646.423,352.19 644.5,350.5C 647.183,347.83 649.85,345.163 652.5,342.5C 653.864,339.058 654.864,335.392 655.5,331.5C 654.27,327.348 654.27,323.348 655.5,319.5 Z"/></g>
<g><path style="opacity:1" fill="#5e3b3d" d="M 523.5,320.5 C 523.78,324.287 523.78,327.953 523.5,331.5C 526.028,332.816 526.028,333.983 523.5,335C 525.34,337.826 526.006,340.993 525.5,344.5C 521.225,336.759 520.558,328.759 523.5,320.5 Z"/></g>
<g><path style="opacity:1" fill="#5a3638" d="M 655.5,319.5 C 654.27,323.348 654.27,327.348 655.5,331.5C 654.864,335.392 653.864,339.058 652.5,342.5C 652.714,340.856 652.38,339.356 651.5,338C 652,337.5 652.5,337 653,336.5C 653.17,330.472 653.67,324.472 654.5,318.5C 655.107,318.624 655.44,318.957 655.5,319.5 Z"/></g>
<g><path style="opacity:0.934" fill="#371114" d="M 585.5,343.5 C 589.38,344.718 591.38,347.385 591.5,351.5C 590.628,353.607 590.628,355.607 591.5,357.5C 590.131,360.913 587.798,361.913 584.5,360.5C 584.013,359.554 583.68,358.554 583.5,357.5C 584.482,352.63 585.148,347.963 585.5,343.5 Z"/></g>
<g><path style="opacity:1" fill="#8c6d6f" d="M 515.5,345.5 C 517.626,346.048 519.626,346.715 521.5,347.5C 519.738,347.357 518.071,347.691 516.5,348.5C 515.614,347.675 515.281,346.675 515.5,345.5 Z"/></g>
</svg>
