<?xml version="1.0" encoding="UTF-8"?>
<!DOCTYPE svg PUBLIC "-//W3C//DTD SVG 1.1//EN" "http://www.w3.org/Graphics/SVG/1.1/DTD/svg11.dtd">
<svg xmlns="http://www.w3.org/2000/svg" version="1.1" width="1216px" height="1749px" style="shape-rendering:geometricPrecision; text-rendering:geometricPrecision; image-rendering:optimizeQuality; fill-rule:evenodd; clip-rule:evenodd" xmlns:xlink="http://www.w3.org/1999/xlink">
<g><path style="opacity:0.913" fill="#371113" d="M 530.5,279.5 C 535.379,279.614 540.212,279.614 545,279.5C 548.056,280.077 551.056,280.743 554,281.5C 558.605,281.15 562.772,282.65 566.5,286C 565.667,286.833 564.833,287.667 564,288.5C 560.384,287.287 556.718,286.287 553,285.5C 552.667,285.833 552.333,286.167 552,286.5C 546.832,285.556 541.832,284.89 537,284.5C 526.813,285.455 516.313,287.455 505.5,290.5C 503.431,290.176 503.098,289.342 504.5,288C 512.781,283.605 521.448,280.772 530.5,279.5 Z"/></g>
<g><path style="opacity:0.968" fill="#371113" d="M 630.5,279.5 C 641.74,278.86 653.074,280.36 664.5,284C 667.87,285.346 670.87,287.179 673.5,289.5C 672.833,289.833 672.167,290.167 671.5,290.5C 660.687,287.455 650.187,285.455 640,284.5C 635.168,284.89 630.168,285.556 625,286.5C 624.667,286.167 624.333,285.833 624,285.5C 619.964,286.308 616.297,287.308 613,288.5C 610.174,287.083 610.007,285.583 612.5,284C 615.989,282.082 619.489,281.249 623,281.5C 625.607,280.877 628.107,280.21 630.5,279.5 Z"/></g>
<g><path style="opacity:0.766" fill="#361112" d="M 534.5,316.5 C 539.179,316.334 543.845,316.501 548.5,317C 551.119,317.151 553.453,317.985 555.5,319.5C 554.5,319.833 553.5,320.167 552.5,320.5C 547.856,319.219 543.689,318.552 540,318.5C 537,319.167 534,319.833 531,320.5C 529.743,320.15 529.409,319.483 530,318.5C 531.622,317.901 533.122,317.234 534.5,316.5 Z"/></g>
<g><path style="opacity:0.716" fill="#361012" d="M 628.5,316.5 C 633.179,316.334 637.845,316.501 642.5,317C 644.619,317.098 646.286,317.931 647.5,319.5C 647.167,319.833 646.833,320.167 646.5,320.5C 641.227,319.243 636.393,318.576 632,318.5C 628.618,320.315 625.118,320.649 621.5,319.5C 621.833,319.167 622.167,318.833 622.5,318.5C 624.657,317.95 626.657,317.283 628.5,316.5 Z"/></g>
<g><path style="opacity:0.968" fill="#371113" d="M 507.5,321.5 C 511.441,323.14 515.108,325.306 518.5,328C 522.474,328.996 526.474,329.829 530.5,330.5C 533.167,330.5 535.833,330.5 538.5,330.5C 542.791,328.973 546.791,328.64 550.5,329.5C 558.885,325.27 564.885,327.437 568.5,336C 565.15,336.93 562.317,336.097 560,333.5C 551.718,337.336 543.218,339.503 534.5,340C 532.957,341.878 531.124,343.378 529,344.5C 528.5,344 528,343.5 527.5,343C 528.337,341.989 528.67,340.822 528.5,339.5C 526.131,339.149 523.797,338.982 521.5,339C 519.445,343.53 516.111,345.03 511.5,343.5C 512.8,340.568 514.8,338.234 517.5,336.5C 516.135,335.544 514.635,334.878 513,334.5C 511.162,336.006 509.329,337.506 507.5,339C 504.722,339.923 502.722,339.089 501.5,336.5C 503.107,333.91 505.107,331.743 507.5,330C 505.788,328.077 504.454,325.911 503.5,323.5C 504.274,322.289 505.107,322.289 506,323.5C 506.717,322.956 507.217,322.289 507.5,321.5 Z"/></g>
<g><path style="opacity:0.979" fill="#371113" d="M 667.5,321.5 C 669.589,321.857 671.589,322.523 673.5,323.5C 672.546,325.911 671.212,328.077 669.5,330C 671.893,331.743 673.893,333.91 675.5,336.5C 674.278,339.089 672.278,339.923 669.5,339C 667.641,337.308 665.641,335.808 663.5,334.5C 662.069,334.977 660.736,335.643 659.5,336.5C 662.2,338.234 664.2,340.568 665.5,343.5C 660.889,345.03 657.555,343.53 655.5,339C 653.203,338.982 650.869,339.149 648.5,339.5C 648.33,340.822 648.663,341.989 649.5,343C 649,343.5 648.5,344 648,344.5C 645.876,343.378 644.043,341.878 642.5,340C 633.782,339.503 625.282,337.336 617,333.5C 608.674,338.372 607.174,337.206 612.5,330C 616.949,327.165 621.616,326.998 626.5,329.5C 630.209,328.64 634.209,328.973 638.5,330.5C 641.167,330.5 643.833,330.5 646.5,330.5C 650.526,329.829 654.526,328.996 658.5,328C 661.567,325.812 664.567,323.645 667.5,321.5 Z"/></g>
<g><path style="opacity:0.2" fill="#360f0e" d="M 564.5,322.5 C 565.833,323.167 565.833,323.167 564.5,322.5 Z"/></g>
<g><path style="opacity:0.302" fill="#341113" d="M 611.5,322.5 C 612.833,323.167 612.833,323.167 611.5,322.5 Z"/></g>
<g><path style="opacity:0.971" fill="#371113" d="M 578.5,359.5 C 581.823,361.148 585.156,362.815 588.5,364.5C 591.624,363.104 594.624,361.437 597.5,359.5C 598.308,359.808 598.975,360.308 599.5,361C 592.167,372.333 584.833,372.333 577.5,361C 578.056,360.617 578.389,360.117 578.5,359.5 Z"/></g>
</svg>
