<?xml version="1.0" encoding="UTF-8"?>
<!DOCTYPE svg PUBLIC "-//W3C//DTD SVG 1.1//EN" "http://www.w3.org/Graphics/SVG/1.1/DTD/svg11.dtd">
<svg xmlns="http://www.w3.org/2000/svg" version="1.1" width="1216px" height="1749px" style="shape-rendering:geometricPrecision; text-rendering:geometricPrecision; image-rendering:optimizeQuality; fill-rule:evenodd; clip-rule:evenodd" xmlns:xlink="http://www.w3.org/1999/xlink">
<g><path style="opacity:0.908" fill="#331012" d="M 647.5,279.5 C 658.795,279.575 669.795,280.075 680.5,281C 684.29,282.026 687.957,283.193 691.5,284.5C 691.5,285.5 691.5,286.5 691.5,287.5C 676.561,286.909 662.061,286.575 648,286.5C 637.932,287.511 627.932,289.177 618,291.5C 616.338,291.612 615.171,290.946 614.5,289.5C 615.301,286.867 616.967,285.033 619.5,284C 628.891,281.934 638.224,280.434 647.5,279.5 Z"/></g>
<g><path style="opacity:0.861" fill="#331012" d="M 511.5,280.5 C 525.896,280.198 540.563,281.365 555.5,284C 559.643,284.725 562.643,286.891 564.5,290.5C 563.829,291.946 562.662,292.612 561,292.5C 551.068,290.177 541.068,288.511 531,287.5C 517.27,287.682 503.103,287.849 488.5,288C 488.043,287.586 487.709,287.086 487.5,286.5C 495.063,282.443 503.063,280.443 511.5,280.5 Z"/></g>
<g><path style="opacity:0.924" fill="#371214" d="M 672.5,335.5 C 672.5,331.833 672.5,328.167 672.5,324.5C 670.167,323.833 667.833,323.167 665.5,322.5C 663.833,322.5 662.167,322.5 660.5,322.5C 660.358,326.545 660.358,330.379 660.5,334C 658.765,336.637 657.432,339.47 656.5,342.5C 657,343.881 658,344.547 659.5,344.5C 662.854,343.154 666.187,341.821 669.5,340.5C 672.553,341.777 675.386,343.444 678,345.5C 678.743,347.441 678.576,349.274 677.5,351C 676.004,351.507 674.837,351.007 674,349.5C 673.692,350.308 673.192,350.975 672.5,351.5C 671.186,350.687 670.019,349.687 669,348.5C 668.79,349.803 668.957,351.136 669.5,352.5C 669.547,354 668.881,355 667.5,355.5C 664.663,353.828 662.33,351.661 660.5,349C 654.782,348.789 649.115,348.289 643.5,347.5C 640.55,348.488 637.55,349.321 634.5,350C 639.5,350.333 644.5,350.667 649.5,351C 650.337,352.011 650.67,353.178 650.5,354.5C 643.804,355.198 636.804,354.698 629.5,353C 628.167,351.667 628.167,350.333 629.5,349C 625.954,347.826 622.287,347.16 618.5,347C 617.663,345.989 617.33,344.822 617.5,343.5C 619.696,343.435 621.696,342.768 623.5,341.5C 621.978,338.36 621.145,335.027 621,331.5C 619.104,333.53 616.937,335.197 614.5,336.5C 615.127,337.417 615.461,338.417 615.5,339.5C 613.833,339.5 612.167,339.5 610.5,339.5C 610.627,330.867 613.794,323.534 620,317.5C 619.49,315.62 619.657,313.787 620.5,312C 626.893,309.736 633.393,307.903 640,306.5C 644.986,308.166 650.153,308.999 655.5,309C 658.076,309.782 660.076,311.282 661.5,313.5C 662.728,310.929 664.728,309.595 667.5,309.5C 667.5,311.5 667.5,313.5 667.5,315.5C 674.524,315.565 681.524,315.232 688.5,314.5C 687.689,322.184 684.356,328.684 678.5,334C 676.655,335.128 674.655,335.628 672.5,335.5 Z"/></g>
<g><path style="opacity:0.912" fill="#381215" d="M 560.5,340.5 C 560.649,339.448 560.483,338.448 560,337.5C 557.815,336.072 555.815,334.405 554,332.5C 553.855,336.027 553.022,339.36 551.5,342.5C 553.023,344.283 555.023,344.949 557.5,344.5C 558.645,345.793 558.311,346.959 556.5,348C 552.713,348.16 549.046,348.826 545.5,350C 547.134,350.494 548.801,350.66 550.5,350.5C 550.67,351.822 550.337,352.989 549.5,354C 542.483,355.654 535.483,356.154 528.5,355.5C 528.33,354.178 528.663,353.011 529.5,352C 534.5,351.667 539.5,351.333 544.5,351C 540.045,350.736 535.711,349.902 531.5,348.5C 525.885,349.289 520.218,349.789 514.5,350C 512.663,352.52 510.496,354.686 508,356.5C 507.228,356.355 506.561,356.022 506,355.5C 505.695,353.443 505.695,351.443 506,349.5C 504.981,350.687 503.814,351.687 502.5,352.5C 501.808,351.975 501.308,351.308 501,350.5C 500.163,352.007 498.996,352.507 497.5,352C 496.424,350.274 496.257,348.441 497,346.5C 499.614,344.444 502.447,342.777 505.5,341.5C 508.625,342.637 511.792,343.971 515,345.5C 516.171,344.66 517.338,343.827 518.5,343C 517.438,340.209 516.105,337.543 514.5,335C 514.642,331.379 514.642,327.545 514.5,323.5C 510.253,323.194 506.253,323.861 502.5,325.5C 502.244,329.269 502.577,332.936 503.5,336.5C 500.138,336.93 497.305,335.93 495,333.5C 492.303,329.479 489.636,325.479 487,321.5C 486.505,319.527 486.338,317.527 486.5,315.5C 493.476,316.232 500.476,316.565 507.5,316.5C 507.5,314.5 507.5,312.5 507.5,310.5C 510.272,310.595 512.272,311.929 513.5,314.5C 514.924,312.282 516.924,310.782 519.5,310C 524.847,309.999 530.014,309.166 535,307.5C 541.607,308.903 548.107,310.736 554.5,313C 555.343,314.787 555.51,316.62 555,318.5C 556,319.167 557,319.833 558,320.5C 559.442,324.511 561.442,328.178 564,331.5C 564.498,334.482 564.665,337.482 564.5,340.5C 563.167,340.5 561.833,340.5 560.5,340.5 Z"/></g>
<g><path style="opacity:0.978" fill="#f9e4e4" d="M 665.5,322.5 C 666.784,324.614 668.784,325.614 671.5,325.5C 671.5,328.833 671.5,332.167 671.5,335.5C 670.833,337.167 670.167,338.833 669.5,340.5C 666.187,341.821 662.854,343.154 659.5,344.5C 658,344.547 657,343.881 656.5,342.5C 657.432,339.47 658.765,336.637 660.5,334C 660.358,330.379 660.358,326.545 660.5,322.5C 662.167,322.5 663.833,322.5 665.5,322.5 Z"/></g>
<g><path style="opacity:0.938" fill="#f5e0e0" d="M 505.5,341.5 C 504.559,339.95 503.893,338.284 503.5,336.5C 502.577,332.936 502.244,329.269 502.5,325.5C 506.253,323.861 510.253,323.194 514.5,323.5C 514.642,327.545 514.642,331.379 514.5,335C 516.105,337.543 517.438,340.209 518.5,343C 517.338,343.827 516.171,344.66 515,345.5C 511.792,343.971 508.625,342.637 505.5,341.5 Z"/></g>
<g><path style="opacity:1" fill="#efecec" d="M 630.5,323.5 C 634.161,323.35 635.161,324.85 633.5,328C 629.707,328.487 628.707,326.987 630.5,323.5 Z"/></g>
<g><path style="opacity:0.999" fill="#ba9f9f" d="M 665.5,322.5 C 667.833,323.167 670.167,323.833 672.5,324.5C 672.5,328.167 672.5,331.833 672.5,335.5C 672.167,335.5 671.833,335.5 671.5,335.5C 671.5,332.167 671.5,328.833 671.5,325.5C 668.784,325.614 666.784,324.614 665.5,322.5 Z"/></g>
<g><path style="opacity:1" fill="#dfd9d9" d="M 529.5,326.5 C 534.584,326.966 535.25,328.632 531.5,331.5C 528.734,330.465 528.068,328.799 529.5,326.5 Z"/></g>
<g><path style="opacity:0.946" fill="#f7e1e1" d="M 617.5,343.5 C 617.011,342.005 616.345,340.671 615.5,339.5C 615.461,338.417 615.127,337.417 614.5,336.5C 616.937,335.197 619.104,333.53 621,331.5C 621.145,335.027 621.978,338.36 623.5,341.5C 621.696,342.768 619.696,343.435 617.5,343.5 Z"/></g>
<g><path style="opacity:0.916" fill="#f5dfdf" d="M 560.5,340.5 C 559.512,341.795 558.512,343.128 557.5,344.5C 555.023,344.949 553.023,344.283 551.5,342.5C 553.022,339.36 553.855,336.027 554,332.5C 555.815,334.405 557.815,336.072 560,337.5C 560.483,338.448 560.649,339.448 560.5,340.5 Z"/></g>
<g><path style="opacity:0.939" fill="#371113" d="M 584.5,336.5 C 585.364,337.688 586.364,338.855 587.5,340C 587.578,345.964 587.411,352.131 587,358.5C 586.64,360.421 585.806,362.088 584.5,363.5C 583.389,360.777 582.722,357.944 582.5,355C 582.691,349.293 583.357,343.126 584.5,336.5 Z"/></g>
</svg>
