<?xml version="1.0" encoding="UTF-8"?>
<!DOCTYPE svg PUBLIC "-//W3C//DTD SVG 1.1//EN" "http://www.w3.org/Graphics/SVG/1.1/DTD/svg11.dtd">
<svg xmlns="http://www.w3.org/2000/svg" version="1.1" width="1216px" height="1749px" style="shape-rendering:geometricPrecision; text-rendering:geometricPrecision; image-rendering:optimizeQuality; fill-rule:evenodd; clip-rule:evenodd" xmlns:xlink="http://www.w3.org/1999/xlink">
<g><path style="opacity:0.752" fill="#341012" d="M 525.5,263.5 C 535.166,263.148 544.5,264.981 553.5,269C 557.802,272.457 560.136,276.957 560.5,282.5C 558.692,282.509 557.025,282.009 555.5,281C 552.14,277.566 548.307,274.732 544,272.5C 542.703,273.784 541.536,273.617 540.5,272C 530.395,270.565 520.728,271.898 511.5,276C 504.574,278.225 497.741,279.725 491,280.5C 490.383,279.551 490.549,278.718 491.5,278C 494.967,275.081 498.633,272.414 502.5,270C 510.121,267.252 517.788,265.085 525.5,263.5 Z"/></g>
<g><path style="opacity:0.789" fill="#341012" d="M 641.5,263.5 C 652.732,263.779 663.732,265.946 674.5,270C 678.418,273.089 682.418,275.922 686.5,278.5C 686.719,279.675 686.386,280.675 685.5,281.5C 676.372,278.957 667.372,276.124 658.5,273C 642.533,268.431 629.199,271.931 618.5,283.5C 616.616,282.307 616.116,280.641 617,278.5C 618.377,274.79 620.543,271.624 623.5,269C 629.534,266.79 635.534,264.956 641.5,263.5 Z"/></g>
<g><path style="opacity:0.925" fill="#351113" d="M 530.5,298.5 C 537.381,297.323 543.381,298.99 548.5,303.5C 547.754,304.736 547.421,306.07 547.5,307.5C 543.559,308.036 539.559,308.202 535.5,308C 538.196,308.69 540.363,310.19 542,312.5C 552.304,326.582 553.137,341.248 544.5,356.5C 542.651,357.593 540.984,358.926 539.5,360.5C 536.819,361.039 534.319,362.039 532,363.5C 529.776,361.819 527.276,360.819 524.5,360.5C 522.273,362.607 520.273,364.94 518.5,367.5C 517.914,367.291 517.414,366.957 517,366.5C 516.719,363.903 516.552,361.57 516.5,359.5C 514.476,362.206 511.81,363.539 508.5,363.5C 508.972,357.726 511.639,353.226 516.5,350C 515.751,348.266 515.251,346.433 515,344.5C 514.5,338.175 514.334,331.842 514.5,325.5C 510.152,325.909 505.819,326.076 501.5,326C 500.978,325.439 500.645,324.772 500.5,324C 503.875,319.962 507.875,316.629 512.5,314C 511.521,311.567 510.855,309.067 510.5,306.5C 514.602,307.09 518.602,308.09 522.5,309.5C 525.25,308.598 527.917,307.431 530.5,306C 528.564,305.187 526.564,304.687 524.5,304.5C 525.198,301.159 527.198,299.159 530.5,298.5 Z"/></g>
<g><path style="opacity:0.932" fill="#351113" d="M 635.5,298.5 C 640.673,298.09 645.673,298.757 650.5,300.5C 651.811,301.258 652.311,302.258 652,303.5C 650.352,304.717 648.519,305.55 646.5,306C 648.618,306.26 650.284,307.26 651.5,309C 656.578,308.804 661.578,307.97 666.5,306.5C 666.145,309.067 665.479,311.567 664.5,314C 668.57,316.458 672.403,319.291 676,322.5C 676.49,323.793 676.657,325.127 676.5,326.5C 671.833,326.167 667.167,325.833 662.5,325.5C 662.104,328.482 662.771,331.149 664.5,333.5C 662.873,338.896 661.539,344.396 660.5,350C 665.361,353.226 668.028,357.726 668.5,363.5C 665.19,363.539 662.524,362.206 660.5,359.5C 660.448,361.57 660.281,363.903 660,366.5C 659.586,366.957 659.086,367.291 658.5,367.5C 656.727,364.94 654.727,362.607 652.5,360.5C 649.724,360.819 647.224,361.819 645,363.5C 642.681,362.039 640.181,361.039 637.5,360.5C 636.016,358.926 634.349,357.593 632.5,356.5C 623.831,341.216 624.664,326.549 635,312.5C 636.637,310.19 638.804,308.69 641.5,308C 638.953,307.34 636.453,307.507 634,308.5C 629.852,308.522 628.018,306.522 628.5,302.5C 631.326,302.002 633.66,300.669 635.5,298.5 Z"/></g>
<g><path style="opacity:1" fill="#d9d2d2" d="M 538.5,329.5 C 534.793,331.163 532.793,329.829 532.5,325.5C 534.282,324.28 536.282,323.614 538.5,323.5C 538.935,325.703 538.935,327.703 538.5,329.5 Z"/></g>
<g><path style="opacity:1" fill="#a89798" d="M 538.5,329.5 C 538.935,327.703 538.935,325.703 538.5,323.5C 536.282,323.614 534.282,324.28 532.5,325.5C 534.03,322.979 536.364,321.979 539.5,322.5C 539.247,324.827 539.914,326.827 541.5,328.5C 540.675,329.386 539.675,329.719 538.5,329.5 Z"/></g>
<g><path style="opacity:1" fill="#e9e5e5" d="M 648.5,322.5 C 650.144,322.286 651.644,322.62 653,323.5C 653.662,325.813 654.162,328.146 654.5,330.5C 653.07,330.421 651.736,330.754 650.5,331.5C 644.813,329.338 644.147,326.338 648.5,322.5 Z"/></g>
<g><path style="opacity:0.854" fill="#320f11" d="M 587.5,347.5 C 590.365,347.055 592.865,347.722 595,349.5C 595.667,352.833 595.667,356.167 595,359.5C 593.134,364.345 590.634,364.678 587.5,360.5C 585.247,356.216 585.247,351.883 587.5,347.5 Z"/></g>
</svg>
