<?xml version="1.0" encoding="UTF-8"?>
<!DOCTYPE svg PUBLIC "-//W3C//DTD SVG 1.1//EN" "http://www.w3.org/Graphics/SVG/1.1/DTD/svg11.dtd">
<svg xmlns="http://www.w3.org/2000/svg" version="1.1" width="1216px" height="1749px" style="shape-rendering:geometricPrecision; text-rendering:geometricPrecision; image-rendering:optimizeQuality; fill-rule:evenodd; clip-rule:evenodd" xmlns:xlink="http://www.w3.org/1999/xlink">
<g><path style="opacity:0.761" fill="#300f10" d="M 527.5,271.5 C 534.841,271.334 542.174,271.5 549.5,272C 553.403,272.456 556.403,274.29 558.5,277.5C 557.473,279.024 555.973,279.691 554,279.5C 535.747,278.083 518.08,280.083 501,285.5C 499.72,285.387 498.887,284.72 498.5,283.5C 499.313,282.186 500.313,281.019 501.5,280C 509.994,276.219 518.661,273.386 527.5,271.5 Z"/></g>
<g><path style="opacity:0.779" fill="#300f11" d="M 627.5,271.5 C 641.931,270.29 655.931,272.123 669.5,277C 673.382,278.434 676.715,280.6 679.5,283.5C 679,284.881 678,285.547 676.5,285.5C 658.069,280.026 639.069,277.859 619.5,279C 618.269,277.817 618.269,276.651 619.5,275.5C 622.148,273.962 624.815,272.628 627.5,271.5 Z"/></g>
<g><path style="opacity:0.901" fill="#361114" d="M 557.5,311.5 C 561.058,313.554 564.225,316.22 567,319.5C 567.495,321.473 567.662,323.473 567.5,325.5C 565.139,325.326 562.806,324.993 560.5,324.5C 561.002,329.183 561.669,333.85 562.5,338.5C 563.3,348.572 559.466,356.572 551,362.5C 547.185,361.304 543.352,361.304 539.5,362.5C 536.239,362.097 533.072,361.43 530,360.5C 524.978,360.532 520.145,359.199 515.5,356.5C 514.501,354.495 515.168,353.162 517.5,352.5C 519.941,353.756 522.274,353.756 524.5,352.5C 524.804,351.85 525.137,351.183 525.5,350.5C 527.291,349.83 528.958,349.163 530.5,348.5C 530.369,347.761 530.536,347.094 531,346.5C 532.188,347.563 532.688,348.897 532.5,350.5C 534.5,350.5 536.5,350.5 538.5,350.5C 538.714,348.856 538.38,347.356 537.5,346C 534.057,345.691 531.057,344.524 528.5,342.5C 527.416,342.685 526.416,343.018 525.5,343.5C 524.492,347.615 522.492,348.281 519.5,345.5C 520.447,343.266 521.114,340.932 521.5,338.5C 520.703,334.202 520.37,329.868 520.5,325.5C 517.833,325.5 515.167,325.5 512.5,325.5C 512.5,327.5 512.5,329.5 512.5,331.5C 512.313,337.309 512.98,342.975 514.5,348.5C 513.469,349.355 512.303,350.022 511,350.5C 508.889,349.528 506.722,348.695 504.5,348C 500.677,344.35 497.51,340.183 495,335.5C 494.132,332.515 493.799,329.515 494,326.5C 495.977,323.688 498.144,321.022 500.5,318.5C 494.478,312.922 495.478,309.255 503.5,307.5C 507.463,308.115 511.296,309.115 515,310.5C 519.142,307.03 523.308,303.53 527.5,300C 539.477,296.108 550.81,297.442 561.5,304C 565.866,309.174 564.533,311.674 557.5,311.5 Z M 548.5,307.5 C 552.262,307.303 555.262,308.636 557.5,311.5C 554.088,310.958 551.088,309.625 548.5,307.5 Z"/></g>
<g><path style="opacity:0.91" fill="#361214" d="M 663.5,349.5 C 663.5,348.833 663.5,348.167 663.5,347.5C 663.641,343.907 664.308,340.407 665.5,337C 665.472,335.93 665.139,335.097 664.5,334.5C 663.597,330.832 661.597,327.832 658.5,325.5C 658.324,327.886 658.324,330.552 658.5,333.5C 657.5,333.5 656.5,333.5 655.5,333.5C 655.176,339.141 653.843,344.474 651.5,349.5C 651.942,350.739 652.609,351.739 653.5,352.5C 656.061,353.767 658.728,353.767 661.5,352.5C 662.363,353.94 662.363,355.274 661.5,356.5C 656.855,359.199 652.022,360.532 647,360.5C 643.928,361.43 640.761,362.097 637.5,362.5C 633.648,361.304 629.815,361.304 626,362.5C 617.534,356.572 613.7,348.572 614.5,338.5C 615.331,333.85 615.998,329.183 616.5,324.5C 614.194,324.993 611.861,325.326 609.5,325.5C 609.338,323.473 609.505,321.473 610,319.5C 612.817,316.221 615.984,313.554 619.5,311.5C 612.88,311.424 611.546,308.924 615.5,304C 626.142,297.452 637.476,296.118 649.5,300C 653.692,303.53 657.858,307.03 662,310.5C 667.363,307.775 672.863,307.275 678.5,309C 679.804,309.804 680.471,310.971 680.5,312.5C 679.27,314.486 677.936,316.486 676.5,318.5C 678.856,321.022 681.023,323.688 683,326.5C 683.201,329.515 682.868,332.515 682,335.5C 679.49,340.183 676.323,344.35 672.5,348C 669.577,349.839 666.577,350.339 663.5,349.5 Z M 628.5,307.5 C 625.912,309.625 622.912,310.958 619.5,311.5C 621.835,308.835 624.835,307.502 628.5,307.5 Z"/></g>
<g><path style="opacity:0.976" fill="#c1b5b5" d="M 543.5,324.5 C 546.734,324.205 549.734,324.871 552.5,326.5C 552.291,327.086 551.957,327.586 551.5,328C 548.518,328.498 545.518,328.665 542.5,328.5C 542.433,327.041 542.766,325.708 543.5,324.5 Z"/></g>
<g><path style="opacity:0.943" fill="#ecd6d6" d="M 519.5,345.5 C 519.641,348.968 521.308,351.301 524.5,352.5C 522.274,353.756 519.941,353.756 517.5,352.5C 516.147,351.474 515.147,350.141 514.5,348.5C 512.98,342.975 512.313,337.309 512.5,331.5C 513.785,329.548 515.451,327.882 517.5,326.5C 517.062,332.784 517.728,339.117 519.5,345.5 Z"/></g>
<g><path style="opacity:0.986" fill="#c9bebf" d="M 640.5,326.5 C 642.5,326.5 644.5,326.5 646.5,326.5C 646.5,327.833 646.5,329.167 646.5,330.5C 642.759,331.401 640.759,330.068 640.5,326.5 Z"/></g>
<g><path style="opacity:0.934" fill="#f2dcdc" d="M 664.5,334.5 C 664.163,337.62 663.496,340.953 662.5,344.5C 662.52,345.726 662.853,346.726 663.5,347.5C 663.5,348.167 663.5,348.833 663.5,349.5C 662.833,350.5 662.167,351.5 661.5,352.5C 658.728,353.767 656.061,353.767 653.5,352.5C 655.955,350.86 657.455,348.527 658,345.5C 658.212,342.242 658.712,339.076 659.5,336C 659.116,335.049 658.783,334.216 658.5,333.5C 658.324,330.552 658.324,327.886 658.5,325.5C 661.597,327.832 663.597,330.832 664.5,334.5 Z"/></g>
<g><path style="opacity:1" fill="#5e3a3c" d="M 519.5,345.5 C 517.728,339.117 517.062,332.784 517.5,326.5C 515.451,327.882 513.785,329.548 512.5,331.5C 512.5,329.5 512.5,327.5 512.5,325.5C 515.167,325.5 517.833,325.5 520.5,325.5C 520.37,329.868 520.703,334.202 521.5,338.5C 521.114,340.932 520.447,343.266 519.5,345.5 Z"/></g>
<g><path style="opacity:0.998" fill="#502b2e" d="M 658.5,333.5 C 658.783,334.216 659.116,335.049 659.5,336C 658.712,339.076 658.212,342.242 658,345.5C 657.455,348.527 655.955,350.86 653.5,352.5C 652.609,351.739 651.942,350.739 651.5,349.5C 653.843,344.474 655.176,339.141 655.5,333.5C 656.5,333.5 657.5,333.5 658.5,333.5 Z"/></g>
<g><path style="opacity:0.98" fill="#a28485" d="M 664.5,334.5 C 665.139,335.097 665.472,335.93 665.5,337C 664.308,340.407 663.641,343.907 663.5,347.5C 662.853,346.726 662.52,345.726 662.5,344.5C 663.496,340.953 664.163,337.62 664.5,334.5 Z"/></g>
<g><path style="opacity:0.981" fill="#d3cacb" d="M 626.5,342.5 C 629.136,342.491 630.469,343.825 630.5,346.5C 629.95,350.024 628.116,351.024 625,349.5C 624.167,346.829 624.667,344.496 626.5,342.5 Z"/></g>
<g><path style="opacity:0.992" fill="#cec4c5" d="M 530.5,348.5 C 528.833,348.5 527.167,348.5 525.5,348.5C 525.5,346.833 525.5,345.167 525.5,343.5C 526.416,343.018 527.416,342.685 528.5,342.5C 531.057,344.524 534.057,345.691 537.5,346C 538.38,347.356 538.714,348.856 538.5,350.5C 536.5,350.5 534.5,350.5 532.5,350.5C 532.688,348.897 532.188,347.563 531,346.5C 530.536,347.094 530.369,347.761 530.5,348.5 Z"/></g>
<g><path style="opacity:1" fill="#644345" d="M 525.5,343.5 C 525.5,345.167 525.5,346.833 525.5,348.5C 527.167,348.5 528.833,348.5 530.5,348.5C 528.958,349.163 527.291,349.83 525.5,350.5C 525.137,351.183 524.804,351.85 524.5,352.5C 521.308,351.301 519.641,348.968 519.5,345.5C 522.492,348.281 524.492,347.615 525.5,343.5 Z"/></g>
<g><path style="opacity:0.953" fill="#d8d1d1" d="M 633.5,346.5 C 638.041,346.815 639.041,348.649 636.5,352C 631.289,352.546 630.289,350.713 633.5,346.5 Z"/></g>
<g><path style="opacity:0.783" fill="#321011" d="M 586.5,350.5 C 587.873,350.343 589.207,350.51 590.5,351C 593.468,353.392 596.301,355.892 599,358.5C 599.755,361.303 599.422,363.97 598,366.5C 595.783,367.937 593.783,369.603 592,371.5C 590.237,371.025 588.57,370.358 587,369.5C 586.398,366.338 586.898,363.338 588.5,360.5C 585.92,357.458 585.253,354.124 586.5,350.5 Z"/></g>
</svg>
