<?xml version="1.0" encoding="UTF-8"?>
<!DOCTYPE svg PUBLIC "-//W3C//DTD SVG 1.1//EN" "http://www.w3.org/Graphics/SVG/1.1/DTD/svg11.dtd">
<svg xmlns="http://www.w3.org/2000/svg" version="1.1" width="1216px" height="1749px" style="shape-rendering:geometricPrecision; text-rendering:geometricPrecision; image-rendering:optimizeQuality; fill-rule:evenodd; clip-rule:evenodd" xmlns:xlink="http://www.w3.org/1999/xlink">
<g><path style="opacity:0.846" fill="#311011" d="M 509.5,280.5 C 525.399,279.65 540.732,282.15 555.5,288C 557.303,289.871 558.636,292.038 559.5,294.5C 558.829,295.946 557.662,296.612 556,296.5C 548.736,293.694 541.236,291.527 533.5,290C 518.607,289.219 503.94,288.552 489.5,288C 486.059,287.164 485.892,286.331 489,285.5C 495.915,283.622 502.748,281.956 509.5,280.5 Z"/></g>
<g><path style="opacity:0.792" fill="#311011" d="M 648.5,280.5 C 663.038,279.647 677.038,281.814 690.5,287C 681.103,289.025 671.937,289.525 663,288.5C 648.366,288.769 634.2,291.436 620.5,296.5C 619,296.547 618,295.881 617.5,294.5C 618.216,292.092 619.549,290.092 621.5,288.5C 630.346,284.874 639.346,282.208 648.5,280.5 Z"/></g>
<g><path style="opacity:0.919" fill="#371315" d="M 525.5,299.5 C 530.052,300.527 533.718,303.027 536.5,307C 538.447,307.991 540.447,308.325 542.5,308C 541.62,306.644 541.286,305.144 541.5,303.5C 549.477,303.717 556.477,306.384 562.5,311.5C 564.222,314.749 563.222,316.582 559.5,317C 565.001,322.3 568.334,328.8 569.5,336.5C 568.567,341.289 565.9,342.956 561.5,341.5C 560.883,349.91 556.883,356.077 549.5,360C 537.278,364.157 526.111,362.324 516,354.5C 511.529,348.139 509.862,341.139 511,333.5C 508.698,336.123 507.031,339.123 506,342.5C 500.904,346.202 496.738,345.202 493.5,339.5C 489.292,338.389 487.792,335.722 489,331.5C 494.416,328.983 499.25,325.65 503.5,321.5C 497.734,317.857 497.234,313.857 502,309.5C 508.902,312.313 515.735,312.48 522.5,310C 523.395,306.905 523.395,303.738 522.5,300.5C 523.791,300.737 524.791,300.404 525.5,299.5 Z"/></g>
<g><path style="opacity:0.909" fill="#361214" d="M 647.5,299.5 C 649.861,299.674 652.194,300.007 654.5,300.5C 653.605,303.738 653.605,306.905 654.5,310C 661.265,312.48 668.098,312.313 675,309.5C 679.766,313.857 679.266,317.857 673.5,321.5C 677.75,325.65 682.584,328.983 688,331.5C 689.208,335.722 687.708,338.389 683.5,339.5C 680.262,345.202 676.096,346.202 671,342.5C 669.659,338.992 667.993,335.658 666,332.5C 667.695,352.46 658.695,362.46 639,362.5C 628.273,362.181 620.606,356.848 616,346.5C 615.506,344.866 615.34,343.199 615.5,341.5C 611.1,342.956 608.433,341.289 607.5,336.5C 608.666,328.8 611.999,322.3 617.5,317C 613.778,316.582 612.778,314.749 614.5,311.5C 620.523,306.384 627.523,303.717 635.5,303.5C 635.714,305.144 635.38,306.644 634.5,308C 636.553,308.325 638.553,307.991 640.5,307C 643.088,304.584 645.422,302.084 647.5,299.5 Z"/></g>
<g><path style="opacity:0.998" fill="#efecec" d="M 538.5,322.5 C 541.167,322.5 543.833,322.5 546.5,322.5C 545.658,324.871 545.324,327.204 545.5,329.5C 543.678,329.463 541.678,329.796 539.5,330.5C 539.52,328.857 538.853,327.524 537.5,326.5C 538.246,325.264 538.579,323.93 538.5,322.5 Z"/></g>
<g><path style="opacity:1" fill="#e1dcdc" d="M 654.5,326.5 C 653.691,328.028 653.024,329.694 652.5,331.5C 645.093,331.563 642.926,328.23 646,321.5C 648.292,321.649 650.792,322.149 653.5,323C 654.337,324.011 654.67,325.178 654.5,326.5 Z"/></g>
<g><path style="opacity:0.924" fill="#bca1a2" d="M 628.5,344.5 C 628.631,345.239 628.464,345.906 628,346.5C 626.905,345.307 626.072,343.973 625.5,342.5C 626.817,336.322 626.817,329.988 625.5,323.5C 624.571,324.689 624.238,326.022 624.5,327.5C 622.879,324.633 623.546,322.3 626.5,320.5C 627.342,328.494 628.008,336.494 628.5,344.5 Z"/></g>
<g><path style="opacity:0.927" fill="#f8e2e2" d="M 625.5,342.5 C 624.705,338.215 624.372,333.881 624.5,329.5C 624.5,328.833 624.5,328.167 624.5,327.5C 624.238,326.022 624.571,324.689 625.5,323.5C 626.817,329.988 626.817,336.322 625.5,342.5 Z"/></g>
<g><path style="opacity:0.973" fill="#8f6f71" d="M 636.5,342.5 C 634.327,341.834 633.993,340.667 635.5,339C 633.924,334.62 632.924,330.12 632.5,325.5C 633.542,324.209 634.708,324.209 636,325.5C 636.784,328.76 636.617,331.927 635.5,335C 637.452,337.382 637.785,339.882 636.5,342.5 Z"/></g>
<g><path style="opacity:0.976" fill="#654143" d="M 524.5,323.5 C 527.506,323.962 528.506,325.462 527.5,328C 529.312,330.6 530.645,333.433 531.5,336.5C 530.833,337.167 530.167,337.833 529.5,338.5C 530.59,339.609 530.59,340.609 529.5,341.5C 527.343,340.034 527.01,338.2 528.5,336C 525.204,333.191 523.87,329.024 524.5,323.5 Z"/></g>
<g><path style="opacity:0.959" fill="#ecd5d5" d="M 549.5,320.5 C 550.931,320.881 551.764,321.881 552,323.5C 553.375,331.857 552.375,339.857 549,347.5C 547.887,349.329 546.387,350.163 544.5,350C 546.743,347.512 548.743,344.846 550.5,342C 550.572,335.024 550.239,327.858 549.5,320.5 Z"/></g>
<g><path style="opacity:0.835" fill="#d9c1c1" d="M 517.5,326.5 C 518.586,326.62 519.253,327.287 519.5,328.5C 519.059,330.145 518.726,331.811 518.5,333.5C 519.446,337.83 519.946,342.164 520,346.5C 516.383,340.232 515.55,333.565 517.5,326.5 Z"/></g>
<g><path style="opacity:0.918" fill="#d8c0c0" d="M 659.5,326.5 C 660.618,332.084 660.785,337.751 660,343.5C 658.583,344.078 657.75,345.078 657.5,346.5C 656.928,344.881 656.595,343.215 656.5,341.5C 656.783,336.11 657.783,331.11 659.5,326.5 Z"/></g>
<g><path style="opacity:0.965" fill="#88696a" d="M 541.5,335.5 C 543.786,340.755 541.953,343.755 536,344.5C 530.678,343.687 530.678,342.02 536,339.5C 537.3,340.707 538.8,341.374 540.5,341.5C 540.833,339.5 541.167,337.5 541.5,335.5 Z"/></g>
<g><path style="opacity:1" fill="#472224" d="M 659.5,326.5 C 657.783,331.11 656.783,336.11 656.5,341.5C 656.595,343.215 656.928,344.881 657.5,346.5C 656.685,347.837 655.518,348.837 654,349.5C 651.534,349.566 649.034,349.566 646.5,349.5C 645.116,352.133 643.782,352.133 642.5,349.5C 643.246,348.264 643.579,346.93 643.5,345.5C 639.883,345.517 636.55,344.517 633.5,342.5C 632.653,338.046 631.986,333.546 631.5,329C 631.514,327.615 631.848,326.449 632.5,325.5C 632.924,330.12 633.924,334.62 635.5,339C 633.993,340.667 634.327,341.834 636.5,342.5C 637.397,341.402 638.23,341.402 639,342.5C 640.114,338.701 641.447,338.701 643,342.5C 644.425,341.788 645.925,341.621 647.5,342C 649.743,339.512 651.743,336.846 653.5,334C 653.116,333.049 652.783,332.216 652.5,331.5C 653.024,329.694 653.691,328.028 654.5,326.5C 656.279,321.434 657.946,321.434 659.5,326.5 Z"/></g>
<g><path style="opacity:0.998" fill="#654244" d="M 624.5,329.5 C 624.372,333.881 624.705,338.215 625.5,342.5C 626.072,343.973 626.905,345.307 628,346.5C 628.464,345.906 628.631,345.239 628.5,344.5C 631.937,346.674 632.103,349.008 629,351.5C 628.51,350.207 628.343,348.873 628.5,347.5C 627.5,347.5 626.5,347.5 625.5,347.5C 623.424,341.489 623.09,335.489 624.5,329.5 Z"/></g>
<g><path style="opacity:0.875" fill="#361013" d="M 584.5,349.5 C 587.656,349.529 589.322,351.196 589.5,354.5C 588.167,359.167 588.167,363.833 589.5,368.5C 589.291,369.086 588.957,369.586 588.5,370C 586.19,370.497 583.857,370.663 581.5,370.5C 580.079,363.175 581.079,356.175 584.5,349.5 Z"/></g>
<g><path style="opacity:0.704" fill="#330f11" d="M 508.5,351.5 C 509.552,351.351 510.552,351.517 511.5,352C 516.825,357.59 516.659,363.09 511,368.5C 510.5,368.167 510,367.833 509.5,367.5C 508.665,364.86 508.498,362.193 509,359.5C 507.005,361.747 504.505,362.747 501.5,362.5C 501.599,357.28 503.932,353.613 508.5,351.5 Z"/></g>
<g><path style="opacity:0.751" fill="#330f11" d="M 666.5,351.5 C 672.559,352.599 675.559,356.266 675.5,362.5C 672.495,362.747 669.995,361.747 668,359.5C 668.253,362.133 668.253,364.8 668,367.5C 666.817,368.731 665.651,368.731 664.5,367.5C 659.969,361.372 660.636,356.039 666.5,351.5 Z"/></g>
</svg>
