<?xml version="1.0" encoding="UTF-8"?>
<!DOCTYPE svg PUBLIC "-//W3C//DTD SVG 1.1//EN" "http://www.w3.org/Graphics/SVG/1.1/DTD/svg11.dtd">
<svg xmlns="http://www.w3.org/2000/svg" version="1.1" width="1216px" height="1749px" style="shape-rendering:geometricPrecision; text-rendering:geometricPrecision; image-rendering:optimizeQuality; fill-rule:evenodd; clip-rule:evenodd" xmlns:xlink="http://www.w3.org/1999/xlink">
<g><path style="opacity:0.962" fill="#381315" d="M 705.5,228.5 C 708.863,229.474 712.197,229.64 715.5,229C 716,229.5 716.5,230 717,230.5C 716.992,239.79 714.659,248.79 710,257.5C 705.754,265.66 700.754,273.326 695,280.5C 693.333,281.167 691.667,281.833 690,282.5C 684.241,279.742 679.741,275.576 676.5,270C 676.833,269.667 677.167,269.333 677.5,269C 672.439,262.586 672.273,256.42 677,250.5C 685.259,241.389 694.759,234.056 705.5,228.5 Z"/></g>
<g><path style="opacity:1" fill="#b1c676" d="M 708.5,235.5 C 709.239,235.369 709.906,235.536 710.5,236C 706.777,249.583 699.944,261.75 690,272.5C 688.606,271.387 687.439,270.053 686.5,268.5C 689.845,264.655 693.345,260.989 697,257.5C 698.128,255.655 698.628,253.655 698.5,251.5C 697.127,251.343 695.793,251.51 694.5,252C 691.333,255.833 688.167,259.667 685,263.5C 682.81,261.217 682.143,258.551 683,255.5C 686.86,250.728 691.194,246.395 696,242.5C 700.505,241.438 704.672,239.104 708.5,235.5 Z"/></g>
</svg>
