<?xml version="1.0" encoding="UTF-8"?>
<!DOCTYPE svg PUBLIC "-//W3C//DTD SVG 1.1//EN" "http://www.w3.org/Graphics/SVG/1.1/DTD/svg11.dtd">
<svg xmlns="http://www.w3.org/2000/svg" version="1.1" width="1216px" height="1749px" style="shape-rendering:geometricPrecision; text-rendering:geometricPrecision; image-rendering:optimizeQuality; fill-rule:evenodd; clip-rule:evenodd" xmlns:xlink="http://www.w3.org/1999/xlink">
<g><path style="opacity:0.97" fill="#351213" d="M 465.5,366.5 C 468.445,368.226 471.111,370.393 473.5,373C 472.944,373.383 472.611,373.883 472.5,374.5C 472.5,374.833 472.5,375.167 472.5,375.5C 471.833,376.5 471.167,377.5 470.5,378.5C 469.833,378.5 469.5,378.833 469.5,379.5C 470.034,383.457 468.534,386.79 465,389.5C 462.657,388.873 460.49,387.873 458.5,386.5C 456.085,387.305 453.751,388.305 451.5,389.5C 449.039,388.709 447.706,387.042 447.5,384.5C 446.587,382.914 446.587,381.414 447.5,380C 445.655,378.872 443.655,378.372 441.5,378.5C 441.298,376.05 441.631,373.717 442.5,371.5C 444.145,370.521 445.479,369.188 446.5,367.5C 448.396,366.534 450.396,366.201 452.5,366.5C 452.5,365.167 452.5,363.833 452.5,362.5C 456.142,363.08 459.809,363.58 463.5,364C 464.381,364.708 465.047,365.542 465.5,366.5 Z"/></g>
<g><path style="opacity:0.962" fill="#361213" d="M 737.5,371.5 C 738.369,373.717 738.702,376.05 738.5,378.5C 736.345,378.372 734.345,378.872 732.5,380C 733.413,381.414 733.413,382.914 732.5,384.5C 732.294,387.042 730.961,388.709 728.5,389.5C 726.249,388.305 723.915,387.305 721.5,386.5C 716.309,391.328 712.642,390.328 710.5,383.5C 711.705,382.005 711.705,380.672 710.5,379.5C 710.5,378.833 710.167,378.5 709.5,378.5C 708.833,377.5 708.167,376.5 707.5,375.5C 707.5,375.167 707.5,374.833 707.5,374.5C 706.491,373.061 706.824,371.728 708.5,370.5C 710.807,369.508 712.807,368.175 714.5,366.5C 714.953,365.542 715.619,364.708 716.5,364C 720.191,363.58 723.858,363.08 727.5,362.5C 727.5,363.833 727.5,365.167 727.5,366.5C 729.604,366.201 731.604,366.534 733.5,367.5C 734.521,369.188 735.855,370.521 737.5,371.5 Z"/></g>
<g><path style="opacity:0.009" fill="#000000" d="M 465.5,366.5 C 469.167,367.833 472.833,367.833 476.5,366.5C 476.5,370.5 476.5,374.5 476.5,378.5C 474.5,378.5 472.5,378.5 470.5,378.5C 471.167,377.5 471.833,376.5 472.5,375.5C 473.833,375.167 473.833,374.833 472.5,374.5C 472.611,373.883 472.944,373.383 473.5,373C 471.111,370.393 468.445,368.226 465.5,366.5 Z"/></g>
<g><path style="opacity:0.009" fill="#000000" d="M 714.5,366.5 C 712.807,368.175 710.807,369.508 708.5,370.5C 706.824,371.728 706.491,373.061 707.5,374.5C 706.167,374.833 706.167,375.167 707.5,375.5C 708.167,376.5 708.833,377.5 709.5,378.5C 707.5,378.5 705.5,378.5 703.5,378.5C 703.5,374.5 703.5,370.5 703.5,366.5C 707.167,367.833 710.833,367.833 714.5,366.5 Z"/></g>
<g><path style="opacity:0.004" fill="#000000" d="M 442.5,371.5 C 441.427,370.749 441.26,369.749 442,368.5C 442.483,369.448 442.649,370.448 442.5,371.5 Z"/></g>
<g><path style="opacity:0.004" fill="#000000" d="M 737.5,371.5 C 737.351,370.448 737.517,369.448 738,368.5C 738.74,369.749 738.573,370.749 737.5,371.5 Z"/></g>
<g><path style="opacity:1" fill="#ce9f32" d="M 457.5,368.5 C 459.911,370.92 462.578,372.92 465.5,374.5C 462.855,377.01 462.188,379.51 463.5,382C 460.553,381.848 457.553,381.681 454.5,381.5C 454.88,378.208 453.547,375.875 450.5,374.5C 454.103,373.892 456.436,371.892 457.5,368.5 Z"/></g>
<g><path style="opacity:1" fill="#cea032" d="M 721.5,368.5 C 723.275,371.599 725.942,373.599 729.5,374.5C 726.453,375.875 725.12,378.208 725.5,381.5C 722.447,381.681 719.447,381.848 716.5,382C 717.812,379.51 717.145,377.01 714.5,374.5C 717.375,373.193 719.708,371.193 721.5,368.5 Z"/></g>
<g><path style="opacity:0.01" fill="#010000" d="M 469.5,379.5 C 471.357,383.054 471.69,386.721 470.5,390.5C 462.472,390.831 454.472,390.498 446.5,389.5C 446.595,387.785 446.928,386.119 447.5,384.5C 447.706,387.042 449.039,388.709 451.5,389.5C 453.751,388.305 456.085,387.305 458.5,386.5C 460.49,387.873 462.657,388.873 465,389.5C 468.534,386.79 470.034,383.457 469.5,379.5 Z"/></g>
<g><path style="opacity:0.01" fill="#010000" d="M 710.5,379.5 C 711.705,380.672 711.705,382.005 710.5,383.5C 712.642,390.328 716.309,391.328 721.5,386.5C 723.915,387.305 726.249,388.305 728.5,389.5C 730.961,388.709 732.294,387.042 732.5,384.5C 733.072,386.119 733.405,387.785 733.5,389.5C 725.528,390.498 717.528,390.831 709.5,390.5C 708.31,386.721 708.643,383.054 710.5,379.5 Z"/></g>
</svg>
