<?xml version="1.0" encoding="UTF-8"?>
<!DOCTYPE svg PUBLIC "-//W3C//DTD SVG 1.1//EN" "http://www.w3.org/Graphics/SVG/1.1/DTD/svg11.dtd">
<svg xmlns="http://www.w3.org/2000/svg" version="1.1" width="1216px" height="1749px" style="shape-rendering:geometricPrecision; text-rendering:geometricPrecision; image-rendering:optimizeQuality; fill-rule:evenodd; clip-rule:evenodd" xmlns:xlink="http://www.w3.org/1999/xlink">
<g><path style="opacity:0.943" fill="#371113" d="M 498.5,95.5 C 501.061,95.4469 503.061,96.4469 504.5,98.5C 502.721,101.115 502.055,103.782 502.5,106.5C 499.658,123.119 500.492,139.786 505,156.5C 506.044,157.623 506.71,158.956 507,160.5C 509.862,161.523 511.362,163.523 511.5,166.5C 509.55,173.063 507.05,179.397 504,185.5C 500.019,190.316 495.852,194.982 491.5,199.5C 488.291,202.272 484.625,204.272 480.5,205.5C 475.912,203.744 473.412,200.411 473,195.5C 468.247,172.81 470.247,150.81 479,129.5C 482.721,122.727 485.887,115.727 488.5,108.5C 491.611,103.918 494.945,99.5843 498.5,95.5 Z"/></g>
<g><path style="opacity:0.915" fill="#371113" d="M 677.5,95.5 C 679.308,95.4914 680.975,95.9914 682.5,97C 695.833,116.174 704.333,137.341 708,160.5C 709.243,173.684 708.243,186.684 705,199.5C 703.336,201.995 701.17,203.995 698.5,205.5C 694.375,204.272 690.709,202.272 687.5,199.5C 683.148,194.982 678.981,190.316 675,185.5C 672.669,180.198 670.336,174.865 668,169.5C 666.54,165.202 667.874,162.202 672,160.5C 674.669,155.179 676.335,149.513 677,143.5C 678.105,133.566 678.605,123.732 678.5,114C 677.782,111.539 677.115,109.039 676.5,106.5C 676.945,103.782 676.279,101.115 674.5,98.5C 675.34,97.265 676.34,96.265 677.5,95.5 Z"/></g>
</svg>
