<?xml version="1.0" encoding="UTF-8"?>
<!DOCTYPE svg PUBLIC "-//W3C//DTD SVG 1.1//EN" "http://www.w3.org/Graphics/SVG/1.1/DTD/svg11.dtd">
<svg xmlns="http://www.w3.org/2000/svg" version="1.1" width="1216px" height="1749px" style="shape-rendering:geometricPrecision; text-rendering:geometricPrecision; image-rendering:optimizeQuality; fill-rule:evenodd; clip-rule:evenodd" xmlns:xlink="http://www.w3.org/1999/xlink">
<g><path style="opacity:0.907" fill="#391414" d="M 586.5,68.5 C 588.205,69.5353 589.872,69.5353 591.5,68.5C 594.833,69.1667 596.833,71.1667 597.5,74.5C 610.853,88.0089 620.019,104.009 625,122.5C 632.194,118.319 639.694,114.819 647.5,112C 652.006,111.166 656.506,110.333 661,109.5C 665.063,109.895 668.896,110.895 672.5,112.5C 673.833,113.833 673.833,115.167 672.5,116.5C 668.431,120.946 664.264,125.279 660,129.5C 651.563,140.702 644.396,152.702 638.5,165.5C 608.052,176.314 577.386,177.147 546.5,168C 544,167.115 541.667,165.948 539.5,164.5C 534.192,151.876 527.359,140.21 519,129.5C 514.736,125.279 510.569,120.946 506.5,116.5C 505.278,114.091 505.945,112.258 508.5,111C 525.167,108.792 540.334,112.625 554,122.5C 560.105,101.44 570.939,83.44 586.5,68.5 Z"/></g>
<g><path style="opacity:1" fill="#e0bc60" d="M 591.5,80.5 C 594.435,83.9378 597.601,87.2711 601,90.5C 601.49,91.7932 601.657,93.1266 601.5,94.5C 604.445,95.7776 606.778,97.7776 608.5,100.5C 608.5,101.167 608.5,101.833 608.5,102.5C 609.496,106.501 611.496,109.834 614.5,112.5C 615.308,116.076 616.641,119.576 618.5,123C 618.333,123.833 618.167,124.667 618,125.5C 616.028,126.305 614.528,127.639 613.5,129.5C 615.005,130.842 615.672,132.508 615.5,134.5C 619.63,134.466 623.63,133.799 627.5,132.5C 629.664,132.279 631.33,131.279 632.5,129.5C 635.757,128.2 638.757,126.366 641.5,124C 643.708,123.809 645.708,123.309 647.5,122.5C 650.003,121.744 652.337,120.744 654.5,119.5C 655.791,119.263 656.791,119.596 657.5,120.5C 656.298,123.056 654.631,125.389 652.5,127.5C 650.953,128.768 649.953,130.435 649.5,132.5C 646.001,136.33 643.335,140.663 641.5,145.5C 639.896,146.287 639.229,147.62 639.5,149.5C 637.4,153.623 635.734,157.956 634.5,162.5C 629.8,163.478 625.133,164.645 620.5,166C 616.514,166.499 612.514,166.666 608.5,166.5C 601.167,166.833 593.833,167.167 586.5,167.5C 572.203,167.921 558.203,166.255 544.5,162.5C 544.5,161.5 544.5,160.5 544.5,159.5C 543.677,157.013 542.677,154.679 541.5,152.5C 540.655,151.329 539.989,149.995 539.5,148.5C 539.573,146.973 538.906,145.973 537.5,145.5C 536.976,143.694 536.309,142.028 535.5,140.5C 534.449,136.415 532.115,133.415 528.5,131.5C 526.395,127.607 524.061,123.94 521.5,120.5C 522.209,119.596 523.209,119.263 524.5,119.5C 528.351,121.924 532.685,123.424 537.5,124C 539.894,126.862 542.894,128.695 546.5,129.5C 547.67,131.279 549.336,132.279 551.5,132.5C 554.48,132.62 557.313,133.287 560,134.5C 561.011,133.663 562.178,133.33 563.5,133.5C 563.48,131.857 564.147,130.524 565.5,129.5C 564.23,128.712 563.23,127.712 562.5,126.5C 561.506,123.103 561.84,119.77 563.5,116.5C 565.356,111.63 567.69,106.963 570.5,102.5C 571.429,99.5881 572.762,96.9214 574.5,94.5C 575.5,94.5 576.5,94.5 577.5,94.5C 577.433,93.0413 577.766,91.7079 578.5,90.5C 579.864,88.8089 581.197,87.1423 582.5,85.5C 584.048,85.1788 584.715,84.1788 584.5,82.5C 585.857,81.3146 587.357,80.3146 589,79.5C 589.902,79.7432 590.735,80.0766 591.5,80.5 Z"/></g>
<g><path style="opacity:1" fill="#99743f" d="M 584.5,82.5 C 584.715,84.1788 584.048,85.1788 582.5,85.5C 582.932,84.2905 583.599,83.2905 584.5,82.5 Z"/></g>
<g><path style="opacity:1" fill="#825c35" d="M 578.5,90.5 C 577.766,91.7079 577.433,93.0413 577.5,94.5C 576.5,94.5 575.5,94.5 574.5,94.5C 575.581,92.8664 576.915,91.533 578.5,90.5 Z"/></g>
<g><path style="opacity:0.968" fill="#4a251c" d="M 591.5,80.5 C 593.117,81.038 594.784,81.3713 596.5,81.5C 596.5,82.5 596.5,83.5 596.5,84.5C 597.5,84.5 598.5,84.5 599.5,84.5C 599.5,85.5 599.5,86.5 599.5,87.5C 602.47,87.7458 603.803,89.4124 603.5,92.5C 607.132,93.7326 608.798,96.3992 608.5,100.5C 606.778,97.7776 604.445,95.7776 601.5,94.5C 601.657,93.1266 601.49,91.7932 601,90.5C 597.601,87.2711 594.435,83.9378 591.5,80.5 Z"/></g>
<g><path style="opacity:1" fill="#a07b43" d="M 570.5,102.5 C 567.69,106.963 565.356,111.63 563.5,116.5C 563.768,110.63 566.101,105.963 570.5,102.5 Z"/></g>
<g><path style="opacity:1" fill="#a78245" d="M 608.5,102.5 C 610.978,105.441 612.978,108.775 614.5,112.5C 611.496,109.834 609.496,106.501 608.5,102.5 Z"/></g>
<g><path style="opacity:1" fill="#8f6b3b" d="M 524.5,119.5 C 523.209,119.263 522.209,119.596 521.5,120.5C 520.249,119.528 520.582,118.861 522.5,118.5C 523.416,118.543 524.083,118.876 524.5,119.5 Z"/></g>
<g><path style="opacity:1" fill="#8c6739" d="M 654.5,119.5 C 655.708,118.218 657.042,118.218 658.5,119.5C 658.376,120.107 658.043,120.44 657.5,120.5C 656.791,119.596 655.791,119.263 654.5,119.5 Z"/></g>
<g><path style="opacity:1" fill="#674129" d="M 654.5,119.5 C 652.337,120.744 650.003,121.744 647.5,122.5C 649.229,120.273 651.562,119.273 654.5,119.5 Z"/></g>
<g><path style="opacity:1" fill="#835d35" d="M 563.5,116.5 C 561.84,119.77 561.506,123.103 562.5,126.5C 561.307,126.03 560.64,125.03 560.5,123.5C 560.726,121.811 561.059,120.145 561.5,118.5C 561.747,117.287 562.414,116.62 563.5,116.5 Z"/></g>
<g><path style="opacity:1" fill="#6a442a" d="M 652.5,127.5 C 652.408,129.848 651.408,131.514 649.5,132.5C 649.953,130.435 650.953,128.768 652.5,127.5 Z"/></g>
<g><path style="opacity:1" fill="#845f36" d="M 546.5,129.5 C 548.664,129.721 550.33,130.721 551.5,132.5C 549.336,132.279 547.67,131.279 546.5,129.5 Z"/></g>
<g><path style="opacity:0.962" fill="#3f1716" d="M 610.5,140.5 C 610.371,142.216 610.038,143.883 609.5,145.5C 606.808,147.206 604.141,148.872 601.5,150.5C 599.821,150.285 598.821,150.952 598.5,152.5C 595.99,152.054 593.99,152.72 592.5,154.5C 590.097,154.552 587.764,154.219 585.5,153.5C 583.626,152.715 581.626,152.048 579.5,151.5C 576.165,149.83 572.831,148.163 569.5,146.5C 568.652,144.519 568.152,142.519 568,140.5C 573.561,135.275 578.728,129.775 583.5,124C 587.871,123.172 592.205,123.339 596.5,124.5C 600.093,130.76 604.759,136.094 610.5,140.5 Z"/></g>
<g><path style="opacity:1" fill="#be3933" d="M 591.5,129.5 C 595.404,133.226 598.404,137.559 600.5,142.5C 596.841,143.819 593.174,145.152 589.5,146.5C 585.15,145.892 581.483,144.059 578.5,141C 580.538,138.43 582.205,135.596 583.5,132.5C 583.957,131.702 584.624,131.369 585.5,131.5C 586.496,131.586 587.329,131.252 588,130.5C 588.623,125.765 589.79,125.432 591.5,129.5 Z"/></g>
<g><path style="opacity:1" fill="#752322" d="M 591.5,129.5 C 589.79,125.432 588.623,125.765 588,130.5C 587.329,131.252 586.496,131.586 585.5,131.5C 587.081,129.858 587.747,127.858 587.5,125.5C 588.833,125.5 590.167,125.5 591.5,125.5C 591.5,126.833 591.5,128.167 591.5,129.5 Z"/></g>
<g><path style="opacity:1" fill="#8c6639" d="M 632.5,129.5 C 631.33,131.279 629.664,132.279 627.5,132.5C 628.344,130.241 630.011,129.241 632.5,129.5 Z"/></g>
<g><path style="opacity:1" fill="#b9944e" d="M 528.5,131.5 C 532.115,133.415 534.449,136.415 535.5,140.5C 533.045,137.658 530.712,134.658 528.5,131.5 Z"/></g>
<g><path style="opacity:1" fill="#906b3b" d="M 610.5,140.5 C 611.93,142.455 611.597,144.121 609.5,145.5C 610.038,143.883 610.371,142.216 610.5,140.5 Z"/></g>
<g><path style="opacity:1" fill="#876237" d="M 537.5,145.5 C 538.906,145.973 539.573,146.973 539.5,148.5C 538.094,148.027 537.427,147.027 537.5,145.5 Z"/></g>
<g><path style="opacity:1" fill="#8b6639" d="M 641.5,145.5 C 641.34,147.153 640.674,148.486 639.5,149.5C 639.229,147.62 639.896,146.287 641.5,145.5 Z"/></g>
<g><path style="opacity:1" fill="#956f3d" d="M 601.5,150.5 C 600.71,151.401 599.71,152.068 598.5,152.5C 598.821,150.952 599.821,150.285 601.5,150.5 Z"/></g>
<g><path style="opacity:1" fill="#a07b42" d="M 579.5,151.5 C 581.626,152.048 583.626,152.715 585.5,153.5C 582.918,153.975 580.918,153.308 579.5,151.5 Z"/></g>
<g><path style="opacity:1" fill="#a38044" d="M 598.5,152.5 C 596.698,153.458 594.698,154.125 592.5,154.5C 593.99,152.72 595.99,152.054 598.5,152.5 Z"/></g>
<g><path style="opacity:1" fill="#97723e" d="M 585.5,153.5 C 587.764,154.219 590.097,154.552 592.5,154.5C 591.726,155.147 590.726,155.48 589.5,155.5C 587.645,155.66 586.312,154.993 585.5,153.5 Z"/></g>
<g><path style="opacity:1" fill="#886438" d="M 541.5,152.5 C 542.677,154.679 543.677,157.013 544.5,159.5C 542.179,157.91 541.179,155.577 541.5,152.5 Z"/></g>
<g><path style="opacity:0.996" fill="#714c2d" d="M 608.5,166.5 C 601.204,168.276 593.871,168.609 586.5,167.5C 593.833,167.167 601.167,166.833 608.5,166.5 Z"/></g>
</svg>
