<?xml version="1.0" encoding="UTF-8"?>
<!DOCTYPE svg PUBLIC "-//W3C//DTD SVG 1.1//EN" "http://www.w3.org/Graphics/SVG/1.1/DTD/svg11.dtd">
<svg xmlns="http://www.w3.org/2000/svg" version="1.1" width="1216px" height="1749px" style="shape-rendering:geometricPrecision; text-rendering:geometricPrecision; image-rendering:optimizeQuality; fill-rule:evenodd; clip-rule:evenodd" xmlns:xlink="http://www.w3.org/1999/xlink">
<g><path style="opacity:0.932" fill="#381316" d="M 700.5,224.5 C 704.054,224.15 707.388,224.816 710.5,226.5C 712.524,239.215 716.191,251.382 721.5,263C 721.167,263.333 720.833,263.667 720.5,264C 721.22,267.872 722.553,271.539 724.5,275C 724.095,275.945 723.428,276.612 722.5,277C 725.214,279.188 725.88,281.855 724.5,285C 725.167,285.667 725.833,286.333 726.5,287C 726.259,289.848 725.593,292.848 724.5,296C 726.117,299.249 725.451,301.916 722.5,304C 723.167,304.333 723.833,304.667 724.5,305C 717.136,312.571 708.136,315.238 697.5,313C 693.448,311.983 689.781,310.317 686.5,308C 682.61,305.025 680.61,301.025 680.5,296C 680.362,289.987 681.029,283.987 682.5,278C 682.167,277.667 681.833,277.333 681.5,277C 687.028,259.147 693.362,241.647 700.5,224.5 Z"/></g>
<g><path style="opacity:1" fill="#3ea5df" d="M 690.5,295.5 C 691.006,291.396 691.006,287.396 690.5,283.5C 691.316,278.4 692.316,273.234 693.5,268C 693.167,267.667 692.833,267.333 692.5,267C 695.718,258.745 698.552,250.245 701,241.5C 701.068,244.319 702.234,246.486 704.5,248C 703.833,248.333 703.167,248.667 702.5,249C 704.026,250.589 705.193,252.423 706,254.5C 708.251,260.417 710.418,266.417 712.5,272.5C 715.217,282.836 715.717,293.169 714,303.5C 707.109,308.441 700.276,308.275 693.5,303C 692.971,300.571 691.637,298.738 689.5,297.5C 690.025,296.808 690.692,296.308 691.5,296C 691.272,295.601 690.938,295.435 690.5,295.5 Z"/></g>
<g><path style="opacity:1" fill="#76cbfc" d="M 701.5,262.5 C 706.427,261.54 708.927,263.54 709,268.5C 709.392,271.188 709.892,273.855 710.5,276.5C 710.392,277.442 710.059,278.275 709.5,279C 711.698,280.67 712.032,282.67 710.5,285C 712.34,287.617 713.34,290.617 713.5,294C 711.4,299.548 707.733,300.881 702.5,298C 703.167,297.667 703.833,297.333 704.5,297C 703.328,296.581 702.328,295.915 701.5,295C 701.897,285.024 701.897,274.19 701.5,262.5 Z"/></g>
<g><path style="opacity:1" fill="#3d5673" d="M 690.5,283.5 C 691.006,287.396 691.006,291.396 690.5,295.5C 689.435,291.287 689.435,287.287 690.5,283.5 Z"/></g>
</svg>
