<?xml version="1.0" encoding="UTF-8"?>
<!DOCTYPE svg PUBLIC "-//W3C//DTD SVG 1.1//EN" "http://www.w3.org/Graphics/SVG/1.1/DTD/svg11.dtd">
<svg xmlns="http://www.w3.org/2000/svg" version="1.1" width="1216px" height="1749px" style="shape-rendering:geometricPrecision; text-rendering:geometricPrecision; image-rendering:optimizeQuality; fill-rule:evenodd; clip-rule:evenodd" xmlns:xlink="http://www.w3.org/1999/xlink">
<g><path style="opacity:0.984" fill="#381214" d="M 547.5,132.5 C 555.279,132.833 563.779,133.5 573,134.5C 579.017,132.319 584.184,133.652 588.5,138.5C 592.816,133.652 597.983,132.319 604,134.5C 612.893,133.585 621.06,132.918 628.5,132.5C 647.56,135.013 666.227,137.847 684.5,141C 693.194,142.784 701.194,146.117 708.5,151C 711.604,154.54 713.937,158.54 715.5,163C 713.408,164.853 712.408,167.186 712.5,170C 712.972,174.743 713.639,179.41 714.5,184C 714.162,194.283 714.162,204.95 714.5,216C 715.167,220 715.833,224 716.5,228C 715.239,248.245 715.239,269.245 716.5,291C 715.517,291.591 714.85,291.257 714.5,290C 709.73,274.524 705.063,259.024 700.5,243.5C 701.223,226.548 701.39,208.548 701,189.5C 700,188.833 699,188.167 698,187.5C 695.357,188.976 693.19,190.976 691.5,193.5C 688.374,193.984 685.707,195.317 683.5,197.5C 681.2,197.132 679.033,197.132 677,197.5C 674.098,195.789 671.098,195.456 668,196.5C 667.667,195.833 667.333,195.167 667,194.5C 663.084,195.355 659.25,195.688 655.5,195.5C 644.892,193.066 634.225,190.733 623.5,188.5C 622.914,188.709 622.414,189.043 622,189.5C 619.482,187.536 616.816,186.87 614,187.5C 609.179,185.346 605.679,181.846 603.5,177C 602.348,173.694 600.681,170.694 598.5,168C 598.833,167.667 599.167,167.333 599.5,167C 598.572,166.612 597.905,165.945 597.5,165C 597.841,159.179 594.841,156.346 588.5,156.5C 585.403,156.383 582.736,157.383 580.5,159.5C 579.167,160.5 579.167,161.5 580.5,162.5C 577.441,168.933 573.941,175.6 570,182.5C 567.575,184.006 565.242,185.673 563,187.5C 560.184,186.87 557.518,187.536 555,189.5C 554.586,189.043 554.086,188.709 553.5,188.5C 542.918,191.263 532.252,193.597 521.5,195.5C 517.75,195.688 513.916,195.355 510,194.5C 509.667,195.167 509.333,195.833 509,196.5C 505.902,195.456 502.902,195.789 500,197.5C 497.967,197.132 495.8,197.132 493.5,197.5C 491.293,195.317 488.626,193.984 485.5,193.5C 483.81,190.976 481.643,188.976 479,187.5C 478,188.167 477,188.833 476,189.5C 475.61,208.548 475.777,226.548 476.5,243.5C 471.937,259.024 467.27,274.524 462.5,290C 462.15,291.257 461.483,291.591 460.5,291C 461.761,269.245 461.761,248.245 460.5,228C 461.167,224 461.833,220 462.5,216C 462.838,204.95 462.838,194.283 462.5,184C 463.361,179.41 464.028,174.743 464.5,170C 464.592,167.186 463.592,164.853 461.5,163C 463.063,158.54 465.396,154.54 468.5,151C 480.051,143.496 492.551,139.663 506,139.5C 508,138.833 510,138.167 512,137.5C 515,137.5 518,137.5 521,137.5C 529.891,135.621 538.724,133.954 547.5,132.5 Z"/></g>
<g><path style="opacity:0.592" fill="#efb9bc" d="M 559.5,142.5 C 571.363,142.684 575.197,148.684 571,160.5C 568.507,166.157 565.507,171.49 562,176.5C 547.041,181.216 532.041,184.883 517,187.5C 512.103,187.347 507.103,187.347 502,187.5C 488.641,184.768 480.141,176.934 476.5,164C 477.249,162.266 477.749,160.433 478,158.5C 480.559,157.02 483.226,155.687 486,154.5C 487.779,155.479 489.445,155.146 491,153.5C 493.235,154.239 495.235,154.239 497,153.5C 498.46,151.578 500.127,150.911 502,151.5C 505.152,150.719 508.319,149.719 511.5,148.5C 513.061,149.347 514.561,149.014 516,147.5C 519.938,147.432 523.938,147.432 528,147.5C 530,146.833 532,146.167 534,145.5C 536.333,145.833 538.667,146.167 541,146.5C 543.461,145.782 545.961,145.115 548.5,144.5C 549.086,144.709 549.586,145.043 550,145.5C 553.333,144.262 556.5,143.262 559.5,142.5 Z"/></g>
<g><path style="opacity:0.592" fill="#efb9bd" d="M 610.5,142.5 C 618.976,142.933 627.476,144.266 636,146.5C 638.333,146.167 640.667,145.833 643,145.5C 645,146.167 647,146.833 649,147.5C 653.062,147.432 657.062,147.432 661,147.5C 662.439,149.014 663.939,149.347 665.5,148.5C 668.681,149.719 671.848,150.719 675,151.5C 676.873,150.911 678.54,151.578 680,153.5C 681.765,154.239 683.765,154.239 686,153.5C 687.555,155.146 689.221,155.479 691,154.5C 693.774,155.687 696.441,157.02 699,158.5C 700.733,164.669 699.566,170.336 695.5,175.5C 689.976,181.681 683.143,185.681 675,187.5C 669.308,187.261 663.975,187.261 659,187.5C 644.588,184.674 630.088,181.174 615.5,177C 611.095,171.026 607.595,164.526 605,157.5C 603.413,151.082 605.246,146.082 610.5,142.5 Z"/></g>
</svg>
