<svg width="30" height="8" viewBox="0 0 30 8" fill="none" xmlns="http://www.w3.org/2000/svg">
<path d="M7.16016 4.07031C7.16016 4.5651 7.06901 5.03385 6.88672 5.47656C6.70443 5.90625 6.45052 6.28385 6.125 6.60938C5.79948 6.92188 5.42188 7.16927 4.99219 7.35156C4.5625 7.54688 4.10026 7.64453 3.60547 7.64453C3.11068 7.64453 2.64844 7.54688 2.21875 7.35156C1.78906 7.16927 1.41146 6.92188 1.08594 6.60938C0.760417 6.28385 0.50651 5.90625 0.324219 5.47656C0.141927 5.03385 0.0507812 4.5651 0.0507812 4.07031C0.0507812 3.58854 0.141927 3.13281 0.324219 2.70312C0.50651 2.26042 0.760417 1.88281 1.08594 1.57031C1.41146 1.24479 1.78906 0.990885 2.21875 0.808594C2.64844 0.613281 3.11068 0.515625 3.60547 0.515625C4.10026 0.515625 4.5625 0.613281 4.99219 0.808594C5.42188 0.990885 5.79948 1.24479 6.125 1.57031C6.45052 1.88281 6.70443 2.26042 6.88672 2.70312C7.06901 3.13281 7.16016 3.58854 7.16016 4.07031ZM18.3711 4.07031C18.3711 4.5651 18.2799 5.03385 18.0977 5.47656C17.9154 5.90625 17.6615 6.28385 17.3359 6.60938C17.0104 6.92188 16.6328 7.16927 16.2031 7.35156C15.7734 7.54688 15.3112 7.64453 14.8164 7.64453C14.3216 7.64453 13.8594 7.54688 13.4297 7.35156C13 7.16927 12.6224 6.92188 12.2969 6.60938C11.9714 6.28385 11.7174 5.90625 11.5352 5.47656C11.3529 5.03385 11.2617 4.5651 11.2617 4.07031C11.2617 3.58854 11.3529 3.13281 11.5352 2.70312C11.7174 2.26042 11.9714 1.88281 12.2969 1.57031C12.6224 1.24479 13 0.990885 13.4297 0.808594C13.8594 0.613281 14.3216 0.515625 14.8164 0.515625C15.3112 0.515625 15.7734 0.613281 16.2031 0.808594C16.6328 0.990885 17.0104 1.24479 17.3359 1.57031C17.6615 1.88281 17.9154 2.26042 18.0977 2.70312C18.2799 3.13281 18.3711 3.58854 18.3711 4.07031ZM29.582 4.07031C29.582 4.5651 29.4909 5.03385 29.3086 5.47656C29.1263 5.90625 28.8724 6.28385 28.5469 6.60938C28.2214 6.92188 27.8438 7.16927 27.4141 7.35156C26.9844 7.54688 26.5221 7.64453 26.0273 7.64453C25.5326 7.64453 25.0703 7.54688 24.6406 7.35156C24.2109 7.16927 23.8333 6.92188 23.5078 6.60938C23.1823 6.28385 22.9284 5.90625 22.7461 5.47656C22.5638 5.03385 22.4727 4.5651 22.4727 4.07031C22.4727 3.58854 22.5638 3.13281 22.7461 2.70312C22.9284 2.26042 23.1823 1.88281 23.5078 1.57031C23.8333 1.24479 24.2109 0.990885 24.6406 0.808594C25.0703 0.613281 25.5326 0.515625 26.0273 0.515625C26.5221 0.515625 26.9844 0.613281 27.4141 0.808594C27.8438 0.990885 28.2214 1.24479 28.5469 1.57031C28.8724 1.88281 29.1263 2.26042 29.3086 2.70312C29.4909 3.13281 29.582 3.58854 29.582 4.07031Z" fill="black"/>
</svg>
