<?xml version="1.0" encoding="UTF-8"?>
<!DOCTYPE svg PUBLIC "-//W3C//DTD SVG 1.1//EN" "http://www.w3.org/Graphics/SVG/1.1/DTD/svg11.dtd">
<svg xmlns="http://www.w3.org/2000/svg" version="1.1" width="1216px" height="1749px" style="shape-rendering:geometricPrecision; text-rendering:geometricPrecision; image-rendering:optimizeQuality; fill-rule:evenodd; clip-rule:evenodd" xmlns:xlink="http://www.w3.org/1999/xlink">
<g><path style="opacity:0.126" fill="#0e0e0e" d="M 610.5,145.5 C 596.062,142.892 581.395,142.892 566.5,145.5C 567.514,144.235 569.014,143.569 571,143.5C 582.667,142.167 594.333,142.167 606,143.5C 607.986,143.569 609.486,144.235 610.5,145.5 Z"/></g>
<g><path style="opacity:0.947" fill="#371114" d="M 610.5,145.5 C 613.829,145.215 616.829,145.882 619.5,147.5C 621.32,149.448 623.654,150.448 626.5,150.5C 627.959,150.433 629.292,150.766 630.5,151.5C 632.22,152.308 633.887,153.308 635.5,154.5C 636.167,154.5 636.833,154.5 637.5,154.5C 638.287,156.104 639.62,156.771 641.5,156.5C 643.391,158.016 645.391,159.35 647.5,160.5C 648.436,161.974 649.77,162.974 651.5,163.5C 652.167,163.5 652.5,163.833 652.5,164.5C 653.514,165.674 654.847,166.34 656.5,166.5C 656.5,166.833 656.5,167.167 656.5,167.5C 657.287,169.104 658.62,169.771 660.5,169.5C 661.167,169.5 661.5,169.833 661.5,170.5C 662.262,172.262 663.596,173.262 665.5,173.5C 666.262,175.262 667.596,176.262 669.5,176.5C 670.167,176.5 670.5,176.833 670.5,177.5C 670.833,178.5 671.5,179.167 672.5,179.5C 673.5,181.167 674.833,182.5 676.5,183.5C 677.74,184.659 679.074,185.659 680.5,186.5C 680.285,188.179 680.952,189.179 682.5,189.5C 682.5,190.167 682.833,190.5 683.5,190.5C 683.833,191.5 684.5,192.167 685.5,192.5C 686.5,193.833 687.5,195.167 688.5,196.5C 688.427,198.027 689.094,199.027 690.5,199.5C 691.832,201.138 693.166,202.804 694.5,204.5C 694.402,206.553 695.069,208.22 696.5,209.5C 697.404,210.209 697.737,211.209 697.5,212.5C 698.263,214.368 699.263,216.035 700.5,217.5C 701.434,218.568 701.768,219.901 701.5,221.5C 702.88,224.911 704.214,228.244 705.5,231.5C 707.873,240.166 709.539,248.832 710.5,257.5C 710.826,266.349 710.493,275.016 709.5,283.5C 707.998,289.499 706.665,295.666 705.5,302C 705.57,302.765 705.903,303.265 706.5,303.5C 711.021,303.056 715.688,303.556 720.5,305C 732.314,313.618 738.981,325.285 740.5,340C 740.439,346.715 738.606,353.548 735,360.5C 731.027,365.074 727.194,369.074 723.5,372.5C 717.725,375.476 712.225,378.143 707,380.5C 706.586,380.043 706.086,379.709 705.5,379.5C 700.418,380.348 695.585,381.015 691,381.5C 689.697,381.022 688.531,380.355 687.5,379.5C 678.96,388.859 670.627,398.526 662.5,408.5C 662.5,409.167 662.167,409.5 661.5,409.5C 658.553,410.781 656.219,412.781 654.5,415.5C 653.448,415.351 652.448,415.517 651.5,416C 647.399,418.709 643.732,421.876 640.5,425.5C 639.167,426.167 638.167,427.167 637.5,428.5C 635.727,436.325 633.06,443.658 629.5,450.5C 628.5,450.833 627.833,451.5 627.5,452.5C 628.716,454.451 630.382,455.951 632.5,457C 647.393,462.612 662.393,467.945 677.5,473C 684.616,476.392 691.616,480.058 698.5,484C 708.055,486.788 717.055,490.621 725.5,495.5C 725.5,496.5 725.5,497.5 725.5,498.5C 726.552,498.351 727.552,498.517 728.5,499C 729.223,501.018 730.223,502.852 731.5,504.5C 730.68,508.222 732.013,510.555 735.5,511.5C 744.242,521.977 751.742,533.31 758,545.5C 759.497,550.499 761.664,555.165 764.5,559.5C 764.167,560.167 763.833,560.833 763.5,561.5C 771.606,580.465 778.773,600.131 785,620.5C 790.049,628.996 794.715,637.662 799,646.5C 801.677,649.211 803.844,652.211 805.5,655.5C 805.833,656.167 806.167,656.833 806.5,657.5C 812.326,666.692 818.66,675.692 825.5,684.5C 833.443,697.353 840.943,710.686 848,724.5C 876.448,761.093 905.114,797.426 934,833.5C 940.156,838.45 946.989,842.283 954.5,845C 967.305,850.159 980.139,855.326 993,860.5C 993.333,860.167 993.667,859.833 994,859.5C 996.333,860.833 998.667,862.167 1001,863.5C 1001.33,863.167 1001.67,862.833 1002,862.5C 1009.84,868.159 1012.01,875.159 1008.5,883.5C 1004.84,886.774 1000.51,888.44 995.5,888.5C 989.879,887.528 984.212,886.695 978.5,886C 991.897,900.725 1004.9,915.725 1017.5,931C 1019.82,938.711 1016.82,943.545 1008.5,945.5C 1008.17,944.167 1007.83,944.167 1007.5,945.5C 1006.6,944.402 1005.77,944.402 1005,945.5C 1004.15,943.875 1003.15,943.542 1002,944.5C 999.342,942.044 996.675,940.377 994,939.5C 993.085,938.672 992.419,937.672 992,936.5C 993.452,941.797 994.619,946.964 995.5,952C 994.632,954.235 993.632,956.402 992.5,958.5C 990.566,958.901 989.066,959.901 988,961.5C 984.089,960.421 980.589,958.588 977.5,956C 972.641,951.472 967.807,946.972 963,942.5C 962.272,947.564 959.605,951.23 955,953.5C 952.333,953.5 949.667,953.5 947,953.5C 938.638,947.679 932.305,940.679 928,932.5C 925.659,934.502 923.325,936.502 921,938.5C 914.521,936.693 909.854,932.693 907,926.5C 906,923.833 905,921.167 904,918.5C 902.105,908.189 900.938,898.023 900.5,888C 899.283,886.352 898.45,884.519 898,882.5C 889.951,874.632 882.451,866.132 875.5,857C 866.726,849.734 858.06,842.234 849.5,834.5C 838.389,821.964 828.222,809.298 819,796.5C 817.698,795.915 816.531,795.249 815.5,794.5C 815.715,792.821 815.048,791.821 813.5,791.5C 806.489,784.318 799.989,776.651 794,768.5C 793.667,768.833 793.333,769.167 793,769.5C 784.464,760.825 776.131,751.825 768,742.5C 760.489,729.659 751.489,717.993 741,707.5C 731.99,696.12 723.49,684.454 715.5,672.5C 715.843,670.517 715.176,669.183 713.5,668.5C 710.565,666.409 707.732,664.075 705,661.5C 701.831,655.828 698.664,650.161 695.5,644.5C 695.167,645.167 694.833,645.833 694.5,646.5C 697.167,667.669 702,688.335 709,708.5C 710.628,714.388 711.628,720.388 712,726.5C 712.684,728.359 713.684,730.026 715,731.5C 719.712,759.974 725.879,788.14 733.5,816C 733.167,816.333 732.833,816.667 732.5,817C 733.744,823.611 735.411,830.278 737.5,837C 738.235,840.169 738.235,843.502 737.5,847C 738,847.5 738.5,848 739,848.5C 740.025,857.069 741.192,865.569 742.5,874C 742.384,875.268 742.051,876.602 741.5,878C 742.604,886.762 743.604,895.429 744.5,904C 744.481,907.309 744.148,910.642 743.5,914C 744.167,915.333 744.833,916.667 745.5,918C 745.421,921.79 745.088,925.624 744.5,929.5C 745.142,934.365 745.808,939.199 746.5,944C 745.633,946.823 745.299,949.823 745.5,953C 746.167,956.333 746.833,959.667 747.5,963C 747.574,966.29 747.24,969.457 746.5,972.5C 747.149,979.364 747.816,986.198 748.5,993C 748.164,1003.16 748.164,1013.66 748.5,1024.5C 747.865,1028.37 747.199,1032.2 746.5,1036C 746.833,1036.33 747.167,1036.67 747.5,1037C 746.833,1038.67 746.167,1040.33 745.5,1042C 746.357,1045.38 746.024,1049.04 744.5,1053C 744.957,1053.41 745.291,1053.91 745.5,1054.5C 744.637,1059.46 743.97,1064.46 743.5,1069.5C 744.5,1069.5 745.5,1069.5 746.5,1069.5C 744.803,1104.88 739.803,1139.71 731.5,1174C 732.572,1176.68 731.905,1179.01 729.5,1181C 731.831,1208.47 735.164,1235.97 739.5,1263.5C 739.769,1269.51 739.769,1275.35 739.5,1281C 740.167,1285.33 740.833,1289.67 741.5,1294C 741.224,1312.06 741.224,1330.39 741.5,1349C 740.712,1352.08 740.212,1355.24 740,1358.5C 740.033,1382.22 739.033,1405.88 737,1429.5C 734.173,1444.13 731.673,1458.79 729.5,1473.5C 729.504,1477.57 730.004,1481.57 731,1485.5C 734.544,1493.09 737.377,1500.92 739.5,1509C 738.316,1511.66 736.983,1514.16 735.5,1516.5C 733.089,1516.14 731.589,1517.14 731,1519.5C 730.164,1524.38 729.331,1529.21 728.5,1534C 728.808,1563.54 729.808,1593.54 731.5,1624C 732.042,1632.53 730.042,1640.36 725.5,1647.5C 721.849,1650.45 717.682,1652.12 713,1652.5C 709.788,1651.73 706.288,1651.56 702.5,1652C 700.924,1652.44 699.59,1653.27 698.5,1654.5C 697.914,1654.29 697.414,1653.96 697,1653.5C 693.255,1654.3 689.421,1654.8 685.5,1655C 678.632,1659.12 671.632,1660.95 664.5,1660.5C 660.627,1665.48 655.461,1667.48 649,1666.5C 640.531,1667.19 633.698,1663.85 628.5,1656.5C 628.068,1655.29 627.401,1654.29 626.5,1653.5C 627.15,1640.99 627.15,1628.99 626.5,1617.5C 628.65,1606.9 630.483,1596.23 632,1585.5C 632.692,1584.97 633.192,1584.31 633.5,1583.5C 634.1,1581.03 633.434,1578.7 631.5,1576.5C 632.704,1561.42 634.537,1546.42 637,1531.5C 637.187,1524.92 637.687,1518.42 638.5,1512C 637.64,1505.07 637.973,1497.9 639.5,1490.5C 639.158,1488.13 638.658,1485.8 638,1483.5C 638.092,1455.78 637.092,1428.12 635,1400.5C 629.119,1359.61 622.952,1318.78 616.5,1278C 618.384,1261.72 619.384,1245.39 619.5,1229C 618.926,1206.5 617.592,1184.34 615.5,1162.5C 615.789,1156.41 615.455,1150.41 614.5,1144.5C 612.233,1133.99 609.4,1123.66 606,1113.5C 604.112,1104.33 602.278,1095.17 600.5,1086C 600.645,1084.77 600.978,1083.61 601.5,1082.5C 598.351,1058.5 595.684,1034.66 593.5,1011C 594.406,1009.3 594.739,1007.47 594.5,1005.5C 594.204,1003.6 593.537,1001.93 592.5,1000.5C 591.574,995.537 590.908,990.537 590.5,985.5C 590.715,982.856 590.715,980.523 590.5,978.5C 589.967,971.829 589.3,965.162 588.5,958.5C 587.491,964.686 586.824,970.686 586.5,976.5C 586.014,978.952 586.014,981.618 586.5,984.5C 585.74,992.793 584.407,1000.96 582.5,1009C 579.699,1037.15 576.865,1065.99 574,1095.5C 570.324,1111.17 566.658,1126.84 563,1142.5C 560.337,1171.28 558.504,1200.11 557.5,1229C 557.584,1245.28 558.584,1261.28 560.5,1277C 554.909,1312.47 549.409,1347.97 544,1383.5C 540.095,1416.71 538.428,1450.04 539,1483.5C 537.568,1490.49 537.735,1497.49 539.5,1504.5C 538.704,1507.08 538.371,1509.58 538.5,1512C 539.313,1518.42 539.813,1524.92 540,1531.5C 542.449,1546.42 544.282,1561.42 545.5,1576.5C 543.566,1578.7 542.9,1581.03 543.5,1583.5C 543.808,1584.31 544.308,1584.97 545,1585.5C 546.517,1596.23 548.35,1606.9 550.5,1617.5C 550.244,1630.08 549.911,1643.08 549.5,1656.5C 541.838,1665.25 531.838,1668.41 519.5,1666C 516.404,1665.12 514.07,1663.29 512.5,1660.5C 505.368,1660.95 498.368,1659.12 491.5,1655C 487.579,1654.8 483.745,1654.3 480,1653.5C 479.586,1653.96 479.086,1654.29 478.5,1654.5C 477.41,1653.27 476.076,1652.44 474.5,1652C 470.712,1651.56 467.212,1651.73 464,1652.5C 459.318,1652.12 455.151,1650.45 451.5,1647.5C 446.958,1640.36 444.958,1632.53 445.5,1624C 447.192,1593.54 448.192,1563.54 448.5,1534C 447.669,1529.21 446.836,1524.38 446,1519.5C 445.411,1517.14 443.911,1516.14 441.5,1516.5C 440.017,1514.16 438.684,1511.66 437.5,1509C 439.623,1500.92 442.456,1493.09 446,1485.5C 446.996,1481.57 447.496,1477.57 447.5,1473.5C 445.327,1458.79 442.827,1444.13 440,1429.5C 437.967,1405.88 436.967,1382.22 437,1358.5C 436.788,1355.24 436.288,1352.08 435.5,1349C 436.053,1330.11 436.053,1311.61 435.5,1293.5C 436.131,1289.97 436.798,1286.47 437.5,1283C 437.042,1276.95 437.042,1270.45 437.5,1263.5C 441.836,1235.97 445.169,1208.47 447.5,1181C 445.095,1179.01 444.428,1176.68 445.5,1174C 444.313,1170.57 443.313,1167.07 442.5,1163.5C 442.709,1162.91 443.043,1162.41 443.5,1162C 436.104,1131.67 431.77,1100.84 430.5,1069.5C 431.5,1069.5 432.5,1069.5 433.5,1069.5C 433.03,1064.46 432.363,1059.46 431.5,1054.5C 431.709,1053.91 432.043,1053.41 432.5,1053C 430.976,1049.04 430.643,1045.38 431.5,1042C 430.833,1040.33 430.167,1038.67 429.5,1037C 429.833,1036.67 430.167,1036.33 430.5,1036C 429.801,1032.2 429.135,1028.37 428.5,1024.5C 428.836,1013.66 428.836,1003.16 428.5,993C 429.184,986.198 429.851,979.364 430.5,972.5C 429.76,969.457 429.426,966.29 429.5,963C 430.167,959.667 430.833,956.333 431.5,953C 431.701,949.823 431.367,946.823 430.5,944C 431.192,939.199 431.858,934.365 432.5,929.5C 431.912,925.624 431.579,921.79 431.5,918C 432.167,916.667 432.833,915.333 433.5,914C 432.852,910.642 432.519,907.309 432.5,904C 433.396,895.429 434.396,886.762 435.5,878C 434.949,876.602 434.616,875.268 434.5,874C 435.808,865.569 436.975,857.069 438,848.5C 443.938,816.778 450.938,784.445 459,751.5C 461.136,736.509 463.303,721.509 465.5,706.5C 467.124,706.64 468.29,705.973 469,704.5C 473.293,689.091 477.126,673.591 480.5,658C 480.382,654.97 480.215,651.803 480,648.5C 471.684,659.812 463.017,670.812 454,681.5C 444.211,696.734 433.211,711.068 421,724.5C 416.361,732.152 411.028,739.152 405,745.5C 404.138,747.087 403.471,748.754 403,750.5C 402.667,750.167 402.333,749.833 402,749.5C 388.677,762.993 375.843,776.993 363.5,791.5C 361.952,791.821 361.285,792.821 361.5,794.5C 360.517,795.85 359.184,796.85 357.5,797.5C 348.358,809.872 338.358,822.205 327.5,834.5C 318.94,842.234 310.274,849.734 301.5,857C 294.549,866.132 287.049,874.632 279,882.5C 278.55,884.519 277.717,886.352 276.5,888C 276.054,898.079 274.888,908.245 273,918.5C 270.91,925.18 267.41,931.013 262.5,936C 260.341,936.912 258.175,937.745 256,938.5C 253.675,936.502 251.341,934.502 249,932.5C 244.695,940.679 238.362,947.679 230,953.5C 224.561,954.441 219.894,952.774 216,948.5C 215.027,946.608 214.36,944.608 214,942.5C 209.193,946.972 204.359,951.472 199.5,956C 196.411,958.588 192.911,960.421 189,961.5C 187.934,959.901 186.434,958.901 184.5,958.5C 183.368,956.402 182.368,954.235 181.5,952C 182.381,946.964 183.548,941.797 185,936.5C 184.558,938.679 183.558,939.345 182,938.5C 179.986,940.845 177.653,942.845 175,944.5C 173.853,943.542 172.853,943.875 172,945.5C 171.23,944.402 170.397,944.402 169.5,945.5C 169.167,944.167 168.833,944.167 168.5,945.5C 161.672,944.035 158.338,940.035 158.5,933.5C 170.383,917.766 183.217,902.766 197,888.5C 197.374,887.584 197.874,886.75 198.5,886C 195.841,886.16 193.174,886.66 190.5,887.5C 190.475,884.821 189.142,883.488 186.5,883.5C 186.5,884.833 186.5,886.167 186.5,887.5C 179.833,889.1 173.833,887.767 168.5,883.5C 164.993,875.159 167.16,868.159 175,862.5C 175.333,862.833 175.667,863.167 176,863.5C 178.333,862.167 180.667,860.833 183,859.5C 183.333,859.833 183.667,860.167 184,860.5C 196.861,855.326 209.695,850.159 222.5,845C 229.73,842.265 236.397,838.598 242.5,834C 271.653,797.836 300.486,761.336 329,724.5C 340.724,700.931 354.557,678.764 370.5,658C 370.167,657.667 369.833,657.333 369.5,657C 372.538,653.697 375.371,650.197 378,646.5C 382.292,637.617 386.959,628.95 392,620.5C 401.159,591.107 411.659,562.607 423.5,535C 429.714,528.052 435.047,520.552 439.5,512.5C 443.352,511.813 445.019,509.479 444.5,505.5C 448.101,498.065 453.768,492.899 461.5,490C 473.374,486.76 484.374,481.76 494.5,475C 508.705,469.599 523.038,464.599 537.5,460C 542.076,458.592 546.076,456.259 549.5,453C 548.333,452.5 547.5,451.667 547,450.5C 543.895,443.43 541.395,436.097 539.5,428.5C 535.187,424.522 530.854,420.522 526.5,416.5C 525.264,415.754 523.93,415.421 522.5,415.5C 521.833,414.167 520.833,413.167 519.5,412.5C 514.214,406.712 508.714,401.046 503,395.5C 502.388,392.885 500.888,391.219 498.5,390.5C 495.985,386.791 493.485,383.125 491,379.5C 490.617,380.056 490.117,380.389 489.5,380.5C 483.615,380.924 477.115,380.924 470,380.5C 464.775,378.143 459.275,375.476 453.5,372.5C 449.806,369.074 445.973,365.074 442,360.5C 438.394,353.548 436.561,346.715 436.5,340C 438.019,325.285 444.686,313.618 456.5,305C 461.312,303.556 465.979,303.056 470.5,303.5C 471.043,303.44 471.376,303.107 471.5,302.5C 470.401,295.998 469.067,289.664 467.5,283.5C 466.507,275.016 466.174,266.349 466.5,257.5C 467.475,248.815 469.142,240.148 471.5,231.5C 472.786,228.244 474.12,224.911 475.5,221.5C 475.232,219.901 475.566,218.568 476.5,217.5C 477.737,216.035 478.737,214.368 479.5,212.5C 479.263,211.209 479.596,210.209 480.5,209.5C 481.931,208.22 482.598,206.553 482.5,204.5C 485.022,200.114 488.022,196.114 491.5,192.5C 492.5,192.167 493.167,191.5 493.5,190.5C 494.167,190.5 494.5,190.167 494.5,189.5C 496.048,189.179 496.715,188.179 496.5,186.5C 498.823,185.504 500.49,183.838 501.5,181.5C 503.027,181.573 504.027,180.906 504.5,179.5C 509.232,174.435 514.565,170.102 520.5,166.5C 521.995,166.011 523.329,165.345 524.5,164.5C 524.5,163.833 524.833,163.5 525.5,163.5C 527.23,162.974 528.564,161.974 529.5,160.5C 531.609,159.35 533.609,158.016 535.5,156.5C 537.38,156.771 538.713,156.104 539.5,154.5C 540.167,154.5 540.833,154.5 541.5,154.5C 543.368,153.737 545.035,152.737 546.5,151.5C 547.708,150.766 549.041,150.433 550.5,150.5C 553.216,150.614 555.216,149.614 556.5,147.5C 559.63,145.977 562.963,145.311 566.5,145.5C 581.395,142.892 596.062,142.892 610.5,145.5 Z"/></g>
<g><path style="opacity:0.018" fill="#080808" d="M 556.5,147.5 C 555.216,149.614 553.216,150.614 550.5,150.5C 552.03,148.654 554.03,147.654 556.5,147.5 Z"/></g>
<g><path style="opacity:0.016" fill="#090707" d="M 619.5,147.5 C 622.481,147.182 624.815,148.182 626.5,150.5C 623.654,150.448 621.32,149.448 619.5,147.5 Z"/></g>
<g><path style="opacity:1" fill="#45291e" d="M 587.5,150.5 C 599.319,152.126 610.986,154.626 622.5,158C 629.921,161.881 637.254,166.048 644.5,170.5C 645.386,171.325 645.719,172.325 645.5,173.5C 646.873,173.343 648.207,173.51 649.5,174C 681.373,196.467 698.04,227.467 699.5,267C 700.646,290.437 695.98,312.604 685.5,333.5C 687.148,346.767 684.981,359.434 679,371.5C 669.314,389.52 655.814,404.02 638.5,415C 627.241,421.796 615.574,427.796 603.5,433C 593.5,436.333 583.5,436.333 573.5,433C 550.069,423.873 529.569,410.373 512,392.5C 503.596,382.363 497.263,371.03 493,358.5C 490.6,350.242 490.1,341.909 491.5,333.5C 481.02,312.605 476.354,290.438 477.5,267C 478.969,227.417 495.636,196.417 527.5,174C 534.091,169.694 540.758,165.361 547.5,161C 551.827,159.346 556.16,157.679 560.5,156C 569.496,153.621 578.496,151.788 587.5,150.5 Z"/></g>
<g><path style="opacity:0.037" fill="#070707" d="M 546.5,151.5 C 545.035,152.737 543.368,153.737 541.5,154.5C 542.048,151.916 543.715,150.916 546.5,151.5 Z"/></g>
<g><path style="opacity:0.038" fill="#060606" d="M 630.5,151.5 C 633.285,150.916 634.952,151.916 635.5,154.5C 633.887,153.308 632.22,152.308 630.5,151.5 Z"/></g>
<g><path style="opacity:0.031" fill="#020202" d="M 539.5,154.5 C 538.713,156.104 537.38,156.771 535.5,156.5C 536.514,155.326 537.847,154.66 539.5,154.5 Z"/></g>
<g><path style="opacity:0.031" fill="#020202" d="M 637.5,154.5 C 639.153,154.66 640.486,155.326 641.5,156.5C 639.62,156.771 638.287,156.104 637.5,154.5 Z"/></g>
<g><path style="opacity:0.026" fill="#040404" d="M 529.5,160.5 C 528.564,161.974 527.23,162.974 525.5,163.5C 525.694,161.088 527.027,160.088 529.5,160.5 Z"/></g>
<g><path style="opacity:0.025" fill="#040404" d="M 647.5,160.5 C 649.973,160.088 651.306,161.088 651.5,163.5C 649.77,162.974 648.436,161.974 647.5,160.5 Z"/></g>
<g><path style="opacity:0.098" fill="#0f0f0f" d="M 524.5,164.5 C 523.329,165.345 521.995,166.011 520.5,166.5C 521.183,164.824 522.517,164.157 524.5,164.5 Z"/></g>
<g><path style="opacity:0.022" fill="#080808" d="M 652.5,164.5 C 654.483,164.157 655.817,164.824 656.5,166.5C 654.847,166.34 653.514,165.674 652.5,164.5 Z"/></g>
<g><path style="opacity:0.122" fill="#0c0c0c" d="M 656.5,167.5 C 658.38,167.229 659.713,167.896 660.5,169.5C 658.62,169.771 657.287,169.104 656.5,167.5 Z"/></g>
<g><path style="opacity:0.014" fill="#090909" d="M 661.5,170.5 C 663.404,170.738 664.738,171.738 665.5,173.5C 663.596,173.262 662.262,172.262 661.5,170.5 Z"/></g>
<g><path style="opacity:0.035" fill="#080202" d="M 665.5,173.5 C 667.404,173.738 668.738,174.738 669.5,176.5C 667.596,176.262 666.262,175.262 665.5,173.5 Z"/></g>
<g><path style="opacity:0.02" fill="#080808" d="M 670.5,177.5 C 671.833,177.5 672.5,178.167 672.5,179.5C 671.5,179.167 670.833,178.5 670.5,177.5 Z"/></g>
<g><path style="opacity:0.021" fill="#000000" d="M 504.5,179.5 C 504.027,180.906 503.027,181.573 501.5,181.5C 501.973,180.094 502.973,179.427 504.5,179.5 Z"/></g>
<g><path style="opacity:0.022" fill="#050505" d="M 672.5,179.5 C 674.833,179.833 676.167,181.167 676.5,183.5C 674.833,182.5 673.5,181.167 672.5,179.5 Z"/></g>
<g><path style="opacity:0.02" fill="#030000" d="M 680.5,186.5 C 681.401,187.29 682.068,188.29 682.5,189.5C 680.952,189.179 680.285,188.179 680.5,186.5 Z"/></g>
<g><path style="opacity:0.055" fill="#080000" d="M 496.5,186.5 C 496.715,188.179 496.048,189.179 494.5,189.5C 494.932,188.29 495.599,187.29 496.5,186.5 Z"/></g>
<g><path style="opacity:0.037" fill="#060606" d="M 493.5,190.5 C 493.167,191.5 492.5,192.167 491.5,192.5C 491.5,191.167 492.167,190.5 493.5,190.5 Z"/></g>
<g><path style="opacity:0.037" fill="#060606" d="M 683.5,190.5 C 684.833,190.5 685.5,191.167 685.5,192.5C 684.5,192.167 683.833,191.5 683.5,190.5 Z"/></g>
<g><path style="opacity:0.188" fill="#16100f" d="M 688.5,196.5 C 689.906,196.973 690.573,197.973 690.5,199.5C 689.094,199.027 688.427,198.027 688.5,196.5 Z"/></g>
<g><path style="opacity:0.004" fill="#050505" d="M 482.5,204.5 C 482.598,206.553 481.931,208.22 480.5,209.5C 480.402,207.447 481.069,205.78 482.5,204.5 Z"/></g>
<g><path style="opacity:0.004" fill="#050505" d="M 694.5,204.5 C 695.931,205.78 696.598,207.447 696.5,209.5C 695.069,208.22 694.402,206.553 694.5,204.5 Z"/></g>
<g><path style="opacity:0.02" fill="#030303" d="M 479.5,212.5 C 478.737,214.368 477.737,216.035 476.5,217.5C 476.259,214.966 477.259,213.3 479.5,212.5 Z"/></g>
<g><path style="opacity:0.02" fill="#030303" d="M 697.5,212.5 C 699.741,213.3 700.741,214.966 700.5,217.5C 699.263,216.035 698.263,214.368 697.5,212.5 Z"/></g>
<g><path style="opacity:0.024" fill="#040404" d="M 475.5,221.5 C 474.12,224.911 472.786,228.244 471.5,231.5C 470.75,227.225 472.083,223.891 475.5,221.5 Z"/></g>
<g><path style="opacity:0.008" fill="#070505" d="M 701.5,221.5 C 704.917,223.891 706.25,227.225 705.5,231.5C 704.214,228.244 702.88,224.911 701.5,221.5 Z"/></g>
<g><path style="opacity:0.018" fill="#050505" d="M 471.5,231.5 C 469.142,240.148 467.475,248.815 466.5,257.5C 466.153,250.893 466.653,244.227 468,237.5C 468.739,235.111 469.905,233.111 471.5,231.5 Z"/></g>
<g><path style="opacity:0.018" fill="#050505" d="M 705.5,231.5 C 707.095,233.111 708.261,235.111 709,237.5C 710.347,244.227 710.847,250.893 710.5,257.5C 709.539,248.832 707.873,240.166 705.5,231.5 Z"/></g>
<g><path style="opacity:0.033" fill="#080808" d="M 467.5,283.5 C 469.067,289.664 470.401,295.998 471.5,302.5C 471.376,303.107 471.043,303.44 470.5,303.5C 468.067,297.112 467.067,290.445 467.5,283.5 Z"/></g>
<g><path style="opacity:0.036" fill="#070707" d="M 709.5,283.5 C 709.933,290.445 708.933,297.112 706.5,303.5C 705.903,303.265 705.57,302.765 705.5,302C 706.665,295.666 707.998,289.499 709.5,283.5 Z"/></g>
<g><path style="opacity:1" fill="#45291e" d="M 462.5,311.5 C 465.875,311.755 469.208,312.089 472.5,312.5C 473.355,315.711 474.355,318.878 475.5,322C 472.459,321.497 469.625,320.997 467,320.5C 459.548,321.284 455.548,325.284 455,332.5C 459.056,329.788 463.222,328.121 467.5,327.5C 469.06,328.607 470.56,328.607 472,327.5C 474.034,328.722 476.2,329.722 478.5,330.5C 479.428,331.768 479.595,333.101 479,334.5C 471.885,328.974 466.552,330.641 463,339.5C 460.656,346.249 461.989,352.582 467,358.5C 467.333,358.167 467.667,357.833 468,357.5C 470.612,360.666 473.779,361.166 477.5,359C 478.293,357.915 478.96,356.748 479.5,355.5C 476.508,354.113 473.675,352.446 471,350.5C 470.017,347.681 469.517,345.014 469.5,342.5C 471.605,337.096 475.105,336.096 480,339.5C 480.238,343.222 480.738,346.889 481.5,350.5C 481.069,351.293 480.735,352.127 480.5,353C 483.066,358.465 485.066,364.132 486.5,370C 486.505,372.163 485.505,373.663 483.5,374.5C 467.206,373.103 455.373,365.103 448,350.5C 445.211,337.556 447.878,325.889 456,315.5C 458.584,314.731 460.75,313.398 462.5,311.5 Z"/></g>
<g><path style="opacity:1" fill="#45291e" d="M 708.5,311.5 C 718.849,311.647 725.349,316.98 728,327.5C 733.479,348.708 725.979,363.541 705.5,372C 701.273,372.744 697.106,373.578 693,374.5C 690.697,372.662 690.031,370.328 691,367.5C 692.694,362.612 694.528,357.778 696.5,353C 696.265,352.127 695.931,351.293 695.5,350.5C 696.262,346.889 696.762,343.222 697,339.5C 701.895,336.096 705.395,337.096 707.5,342.5C 707.83,345.102 707.33,347.769 706,350.5C 703.325,352.446 700.492,354.113 697.5,355.5C 698.855,358.76 701.355,360.427 705,360.5C 706.512,359.743 707.846,358.743 709,357.5C 709.333,357.833 709.667,358.167 710,358.5C 717.573,349.43 717.073,340.597 708.5,332C 704.56,330.358 701.06,331.191 698,334.5C 697.333,333.5 697.333,332.5 698,331.5C 700.129,329.875 702.463,328.542 705,327.5C 708.116,326.874 711.116,327.541 714,329.5C 714.333,329.167 714.667,328.833 715,328.5C 717.463,330.399 719.797,331.733 722,332.5C 721.452,325.284 717.452,321.284 710,320.5C 707.375,320.997 704.541,321.497 701.5,322C 702.645,318.878 703.645,315.711 704.5,312.5C 706.099,312.768 707.432,312.434 708.5,311.5 Z"/></g>
<g><path style="opacity:0.026" fill="#060606" d="M 498.5,390.5 C 494.498,388.16 491.498,384.827 489.5,380.5C 490.117,380.389 490.617,380.056 491,379.5C 493.485,383.125 495.985,386.791 498.5,390.5 Z"/></g>
<g><path style="opacity:0.027" fill="#090909" d="M 498.5,390.5 C 500.888,391.219 502.388,392.885 503,395.5C 508.714,401.046 514.214,406.712 519.5,412.5C 510.654,407.178 503.654,399.845 498.5,390.5 Z"/></g>
<g><path style="opacity:0.021" fill="#070707" d="M 687.5,379.5 C 687.291,380.922 686.791,382.255 686,383.5C 679.064,390.905 672.564,398.572 666.5,406.5C 665.378,407.63 664.044,408.297 662.5,408.5C 670.627,398.526 678.96,388.859 687.5,379.5 Z"/></g>
<g><path style="opacity:0.013" fill="#060606" d="M 661.5,409.5 C 661.586,410.496 661.252,411.329 660.5,412C 658.595,413.421 656.595,414.588 654.5,415.5C 656.219,412.781 658.553,410.781 661.5,409.5 Z"/></g>
<g><path style="opacity:0.008" fill="#080808" d="M 519.5,412.5 C 520.833,413.167 521.833,414.167 522.5,415.5C 520.5,415.5 519.5,414.5 519.5,412.5 Z"/></g>
<g><path style="opacity:0.027" fill="#0a0a0a" d="M 654.5,415.5 C 651.081,418.608 647.747,421.775 644.5,425C 643.207,425.49 641.873,425.657 640.5,425.5C 643.732,421.876 647.399,418.709 651.5,416C 652.448,415.517 653.448,415.351 654.5,415.5 Z"/></g>
<g><path style="opacity:0.032" fill="#070707" d="M 522.5,415.5 C 523.93,415.421 525.264,415.754 526.5,416.5C 530.854,420.522 535.187,424.522 539.5,428.5C 537.529,426.848 535.196,425.681 532.5,425C 529.253,421.775 525.919,418.608 522.5,415.5 Z"/></g>
<g><path style="opacity:0.011" fill="#030000" d="M 640.5,425.5 C 640.5,427.5 639.5,428.5 637.5,428.5C 638.167,427.167 639.167,426.167 640.5,425.5 Z"/></g>
<g><path style="opacity:1" fill="#45291e" d="M 710.5,496.5 C 709.608,498.946 708.108,499.612 706,498.5C 702.661,501.678 700.495,505.512 699.5,510C 699.957,513.248 699.957,516.581 699.5,520C 701.732,533.085 707.065,545.251 715.5,556.5C 719.925,560.39 724.759,562.723 730,563.5C 730.75,562.874 731.584,562.374 732.5,562C 732.167,561.667 731.833,561.333 731.5,561C 734.861,560.946 737.861,559.946 740.5,558C 740.167,557.667 739.833,557.333 739.5,557C 742.849,554.647 745.849,551.98 748.5,549C 747.189,546.726 747.189,544.56 748.5,542.5C 760.303,569.446 769.803,596.446 777,623.5C 782.588,635.621 788.921,647.288 796,658.5C 811.927,682.685 827.094,707.352 841.5,732.5C 844.303,734.314 847.136,735.981 850,737.5C 864.344,758.385 879.011,778.385 894,797.5C 903.818,810.986 913.985,824.153 924.5,837C 926.081,837.707 927.581,838.54 929,839.5C 930.113,838.289 931.28,838.289 932.5,839.5C 940.043,846 948.209,850.666 957,853.5C 969.335,859.918 982.168,865.085 995.5,869C 999.865,871.199 1002.53,874.699 1003.5,879.5C 1002.62,880.251 1001.62,880.751 1000.5,881C 990.936,881.73 981.769,880.23 973,876.5C 967.701,879.327 967.201,882.827 971.5,887C 971.167,887.333 970.833,887.667 970.5,888C 982.558,903.216 995.224,918.049 1008.5,932.5C 1009.31,934.071 1009.64,935.738 1009.5,937.5C 1005.4,937.116 1001.73,935.616 998.5,933C 989.142,923.582 979.309,914.749 969,906.5C 967.779,907.774 966.946,909.274 966.5,911C 972.489,920.212 978.156,929.212 983.5,938C 985.692,943.011 986.859,948.178 987,953.5C 973.642,945.076 964.142,933.909 958.5,920C 956.212,917.257 954.045,914.423 952,911.5C 948.601,907.288 945.768,907.621 943.5,912.5C 946.484,919.24 949.15,925.74 951.5,932C 951.043,932.414 950.709,932.914 950.5,933.5C 952.844,937.409 953.844,941.409 953.5,945.5C 949.429,945.421 945.929,943.421 943,939.5C 934.906,928.812 929.073,916.978 925.5,904C 923.08,903.313 920.913,903.813 919,905.5C 918.65,909.533 918.483,913.367 918.5,917C 919.167,919.667 919.833,922.333 920.5,925C 919.809,926.067 919.309,927.234 919,928.5C 913.565,919.586 911.065,910.086 911.5,900C 910.833,898.667 910.167,897.333 909.5,896C 910.571,889.008 908.571,882.508 903.5,876.5C 887.865,856.943 870.365,839.277 851,823.5C 837.333,806.5 823.667,789.5 810,772.5C 791.537,756.278 775.37,737.944 761.5,717.5C 760.476,716.147 759.143,715.48 757.5,715.5C 754.941,709.937 750.941,705.604 745.5,702.5C 735.458,689.613 725.958,676.28 717,662.5C 705.758,652.357 698.924,639.691 696.5,624.5C 698.183,616.256 700.683,608.256 704,600.5C 704.499,596.514 704.666,592.514 704.5,588.5C 701.951,588.441 699.951,589.441 698.5,591.5C 695.318,601.051 692.318,610.718 689.5,620.5C 690.399,624.14 690.733,627.64 690.5,631C 688.52,638.324 687.854,645.657 688.5,653C 689.912,659.069 690.912,665.069 691.5,671C 691.355,671.772 691.022,672.439 690.5,673C 694.588,685.608 698.088,698.442 701,711.5C 701.5,712 702,712.5 702.5,713C 701.892,714.231 701.559,715.564 701.5,717C 702.71,729.938 704.543,742.772 707,755.5C 712.041,767.004 715.708,779.004 718,791.5C 719.548,794.206 720.714,797.04 721.5,800C 720.643,800.689 719.977,801.522 719.5,802.5C 722.703,810.141 725.369,817.974 727.5,826C 726.978,826.561 726.645,827.228 726.5,828C 728.823,833.481 729.49,838.814 728.5,844C 729.714,850.054 731.047,856.054 732.5,862C 732.268,865.038 731.934,867.704 731.5,870C 732.699,876.495 733.699,883.162 734.5,890C 734.695,905.04 734.695,920.374 734.5,936C 735.357,936.689 736.023,937.522 736.5,938.5C 736.482,951.68 736.149,964.846 735.5,978C 736.289,980.267 736.956,982.6 737.5,985C 736.403,994.021 736.403,1003.02 737.5,1012C 736.833,1016.67 736.167,1021.33 735.5,1026C 735.714,1031.13 736.047,1036.29 736.5,1041.5C 735.608,1047.71 734.608,1053.88 733.5,1060C 733.833,1062.33 734.167,1064.67 734.5,1067C 734,1067.5 733.5,1068 733,1068.5C 732.382,1074.41 731.548,1080.25 730.5,1086C 730.813,1091.71 730.813,1097.37 730.5,1103C 729.12,1104.32 728.786,1105.66 729.5,1107C 728.833,1109 728.167,1111 727.5,1113C 727.833,1115.33 728.167,1117.67 728.5,1120C 726.982,1125.96 725.649,1131.96 724.5,1138C 725.237,1141.06 725.571,1144.06 725.5,1147C 724.978,1147.95 724.311,1148.78 723.5,1149.5C 723.461,1155.66 723.461,1161.82 723.5,1168C 723.245,1169.33 722.578,1170.33 721.5,1171C 722.833,1171.67 723.833,1172.67 724.5,1174C 724.192,1179.97 723.525,1186.13 722.5,1192.5C 723.642,1211.44 725.309,1230.28 727.5,1249C 727.337,1255.19 727.337,1261.35 727.5,1267.5C 728.131,1271.03 728.798,1274.53 729.5,1278C 728.626,1289.62 728.626,1301.62 729.5,1314C 729.097,1315.47 728.43,1316.81 727.5,1318C 727.861,1321.01 728.194,1324.34 728.5,1328C 727.833,1330 727.167,1332 726.5,1334C 726.523,1341.53 726.523,1349.03 726.5,1356.5C 728.365,1359.49 728.365,1362.66 726.5,1366C 727.14,1376.94 727.473,1387.94 727.5,1399C 726.806,1403.47 726.14,1407.97 725.5,1412.5C 725.319,1418.92 725.319,1425.42 725.5,1432C 724.833,1435 724.167,1438 723.5,1441C 725.661,1442.76 725.828,1444.6 724,1446.5C 723.768,1450.55 723.268,1454.55 722.5,1458.5C 722.709,1459.09 723.043,1459.59 723.5,1460C 720.765,1470.34 719.932,1481.17 721,1492.5C 724.505,1496.69 726.005,1501.52 725.5,1507C 724.515,1521.09 723.182,1535.26 721.5,1549.5C 721.664,1559.76 721.997,1570.26 722.5,1581C 721.833,1585.67 721.167,1590.33 720.5,1595C 720.956,1598.08 721.623,1601.42 722.5,1605C 722.384,1606.27 722.051,1607.6 721.5,1609C 724.632,1620.43 723.799,1631.59 719,1642.5C 716.826,1644.18 714.326,1645.18 711.5,1645.5C 703.891,1643.92 697.058,1644.92 691,1648.5C 686.139,1647.09 681.473,1648.09 677,1651.5C 675,1651.5 673,1651.5 671,1651.5C 669.806,1652.43 668.473,1653.1 667,1653.5C 660.721,1651.56 654.555,1652.23 648.5,1655.5C 643.836,1655 640.836,1652.5 639.5,1648C 639.742,1640.21 639.742,1632.21 639.5,1624C 639.977,1621.11 640.644,1618.28 641.5,1615.5C 641.167,1614.83 640.833,1614.17 640.5,1613.5C 643.125,1591.93 646.125,1570.1 649.5,1548C 650.065,1515.08 650.065,1481.41 649.5,1447C 648.665,1439.65 647.665,1432.31 646.5,1425C 647.246,1422.91 647.579,1420.91 647.5,1419C 646.12,1412.25 645.12,1405.41 644.5,1398.5C 644.833,1397.83 645.167,1397.17 645.5,1396.5C 640.616,1363.12 635.949,1329.45 631.5,1295.5C 632.422,1291.92 632.089,1288.42 630.5,1285C 631.733,1281.03 631.4,1277.03 629.5,1273C 631.21,1260.11 632.21,1247.11 632.5,1234C 632.671,1227.2 632.004,1220.53 630.5,1214C 630.539,1211.7 630.872,1209.37 631.5,1207C 630.681,1200.35 629.681,1193.68 628.5,1187C 629.232,1183.96 628.899,1180.96 627.5,1178C 628.479,1176.22 628.146,1174.55 626.5,1173C 627.022,1172.44 627.355,1171.77 627.5,1171C 625.25,1165.76 624.25,1160.26 624.5,1154.5C 625.5,1154.5 626.5,1154.5 627.5,1154.5C 626.903,1145.58 625.403,1136.58 623,1127.5C 619.193,1117.98 615.527,1108.32 612,1098.5C 607.946,1074.62 604.78,1050.62 602.5,1026.5C 602.169,1023.11 602.502,1019.94 603.5,1017C 602.303,1005.05 600.637,993.379 598.5,982C 598.957,981.586 599.291,981.086 599.5,980.5C 596.939,969.581 595.273,958.747 594.5,948C 593.833,947.333 593.167,946.667 592.5,946C 592.833,944.333 593.167,942.667 593.5,941C 591.156,933.531 591.156,925.698 593.5,917.5C 596.45,916.512 599.45,915.679 602.5,915C 604.402,913.606 604.735,911.773 603.5,909.5C 600.48,909.194 597.647,909.528 595,910.5C 593.941,910.37 593.108,909.87 592.5,909C 593.833,908.333 593.833,907.667 592.5,907C 589.833,906.333 587.167,906.333 584.5,907C 583.167,907.667 583.167,908.333 584.5,909C 583.892,909.87 583.059,910.37 582,910.5C 579.353,909.528 576.52,909.194 573.5,909.5C 573.034,911.201 573.034,912.701 573.5,914C 576.731,915.466 580.065,916.633 583.5,917.5C 585.844,925.698 585.844,933.531 583.5,941C 583.833,942.667 584.167,944.333 584.5,946C 582.875,946.853 582.542,947.853 583.5,949C 581.57,959.483 579.57,969.983 577.5,980.5C 577.709,981.086 578.043,981.586 578.5,982C 576.471,991.821 574.971,1001.99 574,1012.5C 572.401,1039.8 569.901,1066.8 566.5,1093.5C 561.81,1106.15 557.31,1118.82 553,1131.5C 552.151,1138.89 550.984,1146.23 549.5,1153.5C 550.5,1153.5 551.5,1153.5 552.5,1153.5C 553.081,1159.66 552.081,1165.49 549.5,1171C 549.833,1171.33 550.167,1171.67 550.5,1172C 549.73,1174.61 549.063,1177.27 548.5,1180C 549.7,1181.7 549.367,1183.2 547.5,1184.5C 548.496,1188.55 548.162,1192.55 546.5,1196.5C 546.271,1204.09 546.271,1211.42 546.5,1218.5C 545.294,1222.74 544.627,1227.07 544.5,1231.5C 545.056,1245.59 546.056,1259.42 547.5,1273C 545.657,1277.18 545.324,1281.01 546.5,1284.5C 545.833,1286.83 545.167,1289.17 544.5,1291.5C 544.696,1296.76 544.696,1302.26 544.5,1308C 540.02,1337.71 535.687,1367.21 531.5,1396.5C 531.833,1397.17 532.167,1397.83 532.5,1398.5C 531.708,1405.39 530.708,1412.22 529.5,1419C 529.421,1420.91 529.754,1422.91 530.5,1425C 529.335,1432.31 528.335,1439.65 527.5,1447C 526.935,1481.41 526.935,1515.08 527.5,1548C 530.875,1570.1 533.875,1591.93 536.5,1613.5C 536.167,1614.17 535.833,1614.83 535.5,1615.5C 536.356,1618.28 537.023,1621.11 537.5,1624C 537.258,1632.21 537.258,1640.21 537.5,1648C 534.623,1654.88 529.957,1656.55 523.5,1653C 518.787,1652.67 514.287,1652.84 510,1653.5C 508.527,1653.1 507.194,1652.43 506,1651.5C 504,1651.5 502,1651.5 500,1651.5C 495.527,1648.09 490.861,1647.09 486,1648.5C 479.673,1644.54 472.84,1643.54 465.5,1645.5C 463.5,1645 461.5,1644.5 459.5,1644C 456.83,1639.83 454.83,1635.33 453.5,1630.5C 453.534,1626.29 453.534,1622.12 453.5,1618C 454.558,1609.96 455.558,1602.29 456.5,1595C 455.833,1590.33 455.167,1585.67 454.5,1581C 455.003,1570.26 455.336,1559.76 455.5,1549.5C 453.78,1535.26 452.446,1521.1 451.5,1507C 450.995,1501.52 452.495,1496.69 456,1492.5C 457.068,1481.17 456.235,1470.34 453.5,1460C 453.957,1459.59 454.291,1459.09 454.5,1458.5C 453.732,1454.55 453.232,1450.55 453,1446.5C 451.172,1444.6 451.339,1442.76 453.5,1441C 452.833,1438 452.167,1435 451.5,1432C 452.081,1431.11 452.415,1430.11 452.5,1429C 450.062,1407.81 449.395,1386.81 450.5,1366C 448.635,1362.66 448.635,1359.49 450.5,1356.5C 450.477,1349.03 450.477,1341.53 450.5,1334C 449.833,1332 449.167,1330 448.5,1328C 448.806,1324.34 449.139,1321.01 449.5,1318C 448.57,1316.81 447.903,1315.47 447.5,1314C 448.633,1302.97 448.633,1291.8 447.5,1280.5C 450.207,1251.53 452.541,1222.2 454.5,1192.5C 452.611,1185.08 451.944,1177.92 452.5,1171C 453.218,1168.54 453.885,1166.04 454.5,1163.5C 452.264,1155.05 451.597,1146.55 452.5,1138C 451.351,1131.96 450.018,1125.96 448.5,1120C 448.802,1115.54 448.802,1110.87 448.5,1106C 447.833,1105 447.167,1104 446.5,1103C 446.187,1097.37 446.187,1091.71 446.5,1086C 445.452,1080.25 444.618,1074.41 444,1068.5C 443.5,1068 443,1067.5 442.5,1067C 442.833,1064.67 443.167,1062.33 443.5,1060C 442.392,1053.88 441.392,1047.71 440.5,1041.5C 440.459,1035.19 440.792,1029.02 441.5,1023C 440.833,1019.33 440.167,1015.67 439.5,1012C 440.597,1003.02 440.597,994.021 439.5,985C 440.044,982.6 440.711,980.267 441.5,978C 440.851,964.846 440.518,951.68 440.5,938.5C 440.977,937.522 441.643,936.689 442.5,936C 442.305,920.374 442.305,905.04 442.5,890C 443.289,887.733 443.956,885.4 444.5,883C 444.862,875.732 444.862,868.732 444.5,862C 445.126,861.25 445.626,860.416 446,859.5C 446.355,852.93 447.188,846.43 448.5,840C 448.091,836.011 448.758,832.011 450.5,828C 450.355,827.228 450.022,826.561 449.5,826C 451.631,817.974 454.297,810.141 457.5,802.5C 457.023,801.522 456.357,800.689 455.5,800C 459.72,785.357 464.22,771.19 469,757.5C 470.071,750.403 471.571,743.403 473.5,736.5C 472.702,727.693 473.702,718.86 476.5,710C 476.167,709.667 475.833,709.333 475.5,709C 483.125,686.919 487.458,664.585 488.5,642C 487.96,624.917 484.794,608.417 479,592.5C 474.192,586.665 472.025,587.665 472.5,595.5C 475.266,605.3 477.933,615.133 480.5,625C 477.894,636.285 473.394,646.785 467,656.5C 463.228,659.36 459.895,662.694 457,666.5C 448.435,680.063 439.102,693.063 429,705.5C 428.667,705.167 428.333,704.833 428,704.5C 417.519,715.307 408.186,726.974 400,739.5C 373.274,765.567 348.608,793.567 326,823.5C 306.635,839.277 289.135,856.943 273.5,876.5C 268.429,882.508 266.429,889.008 267.5,896C 266.237,897.705 265.903,899.372 266.5,901C 265.744,910.87 262.911,920.036 258,928.5C 257.691,927.234 257.191,926.067 256.5,925C 257.167,922.333 257.833,919.667 258.5,917C 258.517,913.367 258.35,909.533 258,905.5C 256.087,903.813 253.92,903.313 251.5,904C 246.89,919.727 239.056,933.56 228,945.5C 226.701,945.034 225.201,945.034 223.5,945.5C 223.156,941.409 224.156,937.409 226.5,933.5C 226.291,932.914 225.957,932.414 225.5,932C 227.85,925.74 230.516,919.24 233.5,912.5C 231.232,907.621 228.399,907.288 225,911.5C 219.38,919.656 213.88,928.322 208.5,937.5C 202.801,943.365 196.635,948.698 190,953.5C 189.881,944.901 192.714,937.401 198.5,931C 198.167,930.667 197.833,930.333 197.5,930C 201.806,923.686 206.139,917.353 210.5,911C 210.054,909.274 209.221,907.774 208,906.5C 197.691,914.749 187.858,923.582 178.5,933C 175.271,935.616 171.604,937.116 167.5,937.5C 167.357,935.738 167.691,934.071 168.5,932.5C 181.776,918.049 194.442,903.216 206.5,888C 206.167,887.667 205.833,887.333 205.5,887C 209.799,882.827 209.299,879.327 204,876.5C 195.231,880.23 186.064,881.73 176.5,881C 175.376,880.751 174.376,880.251 173.5,879.5C 174.079,875.424 176.079,872.257 179.5,870C 193.541,865.726 207.041,860.226 220,853.5C 228.791,850.666 236.957,846 244.5,839.5C 245.72,838.289 246.887,838.289 248,839.5C 249.419,838.54 250.919,837.707 252.5,837C 264.247,823.327 274.914,809.327 284.5,795C 299.387,776.435 313.554,757.268 327,737.5C 329.559,736.02 332.226,734.687 335,733.5C 346.719,711.982 359.719,691.315 374,671.5C 374.661,666.196 376.994,661.863 381,658.5C 385.385,650.069 390.052,641.736 395,633.5C 401.83,618.042 407.163,602.042 411,585.5C 413.974,577.575 417.141,569.741 420.5,562C 420.167,561.667 419.833,561.333 419.5,561C 422.653,554.792 425.653,548.625 428.5,542.5C 429.811,544.56 429.811,546.726 428.5,549C 432.5,553 436.167,556.667 439.5,560C 441.833,560.333 444.167,560.667 446.5,561C 444.099,561.805 444.266,562.638 447,563.5C 452.241,562.723 457.075,560.39 461.5,556.5C 469.935,545.251 475.268,533.085 477.5,520C 477.043,516.581 477.043,513.248 477.5,510C 476.505,505.512 474.339,501.678 471,498.5C 470.586,498.957 470.086,499.291 469.5,499.5C 468.148,498.476 466.815,497.476 465.5,496.5C 475.029,490.82 485.362,486.987 496.5,485C 497.672,484.581 498.672,483.915 499.5,483C 498.167,482.333 498.167,481.667 499.5,481C 506.82,477.448 514.32,474.281 522,471.5C 531.337,468.598 540.503,464.598 549.5,459.5C 550.485,461.772 551.319,464.105 552,466.5C 553,467.833 554,467.833 555,466.5C 555.333,467.5 555.667,468.5 556,469.5C 558.067,463.249 557.9,457.082 555.5,451C 555.833,450.667 556.167,450.333 556.5,450C 554.159,445.468 552.826,440.634 552.5,435.5C 558.89,437.978 565.39,440.645 572,443.5C 577.367,444.394 582.7,445.394 588,446.5C 593.661,445.502 599.327,444.502 605,443.5C 611.599,440.744 618.099,438.077 624.5,435.5C 624.174,440.634 622.841,445.468 620.5,450C 620.833,450.333 621.167,450.667 621.5,451C 619.1,457.082 618.933,463.249 621,469.5C 621.333,468.5 621.667,467.5 622,466.5C 623,467.833 624,467.833 625,466.5C 625.681,464.105 626.515,461.772 627.5,459.5C 636.497,464.598 645.663,468.598 655,471.5C 662.68,474.281 670.18,477.448 677.5,481C 677.446,482.351 677.946,483.518 679,484.5C 684.443,486.203 689.943,487.703 695.5,489C 700.451,491.595 705.451,494.095 710.5,496.5 Z"/></g>
<g><path style="opacity:0.01" fill="#080000" d="M 629.5,450.5 C 629.5,451.833 628.833,452.5 627.5,452.5C 627.833,451.5 628.5,450.833 629.5,450.5 Z"/></g>
<g><path style="opacity:1" fill="#451e17" d="M 465.5,496.5 C 466.815,497.476 468.148,498.476 469.5,499.5C 470.086,499.291 470.586,498.957 471,498.5C 474.339,501.678 476.505,505.512 477.5,510C 477.043,513.248 477.043,516.581 477.5,520C 475.268,533.085 469.935,545.251 461.5,556.5C 457.075,560.39 452.241,562.723 447,563.5C 444.266,562.638 444.099,561.805 446.5,561C 444.167,560.667 441.833,560.333 439.5,560C 436.167,556.667 432.5,553 428.5,549C 429.811,546.726 429.811,544.56 428.5,542.5C 427.047,541.175 427.381,540.342 429.5,540C 429.167,539.667 428.833,539.333 428.5,539C 429.313,537.686 430.313,536.519 431.5,535.5C 431.291,534.914 430.957,534.414 430.5,534C 431.931,533.535 433.097,532.701 434,531.5C 436.944,526.065 440.444,521.065 444.5,516.5C 445.496,516.586 446.329,516.252 447,515.5C 450.851,510.44 454.684,505.44 458.5,500.5C 460.35,498.428 462.683,497.095 465.5,496.5 Z"/></g>
<g><path style="opacity:1" fill="#45291e" d="M 458.5,500.5 C 454.684,505.44 450.851,510.44 447,515.5C 446.329,516.252 445.496,516.586 444.5,516.5C 447.405,509.597 452.071,504.264 458.5,500.5 Z"/></g>
<g><path style="opacity:0.924" fill="#371114" d="M 552.5,501.5 C 558.726,501.419 565.059,502.252 571.5,504C 577.447,507.899 576.78,510.066 569.5,510.5C 563.627,508.784 557.627,506.618 551.5,504C 551.167,503.667 550.833,503.333 550.5,503C 551.416,502.722 552.082,502.222 552.5,501.5 Z"/></g>
<g><path style="opacity:0.907" fill="#371114" d="M 615.5,501.5 C 618.681,501.742 621.681,501.742 624.5,501.5C 626.271,502.035 626.604,502.869 625.5,504C 619.373,506.618 613.373,508.784 607.5,510.5C 605.465,509.959 603.465,509.292 601.5,508.5C 602.04,507.252 602.707,506.085 603.5,505C 607.531,503.509 611.531,502.343 615.5,501.5 Z"/></g>
<g><path style="opacity:1" fill="#45291e" d="M 720.5,502.5 C 722.371,502.859 723.871,503.859 725,505.5C 728.142,508.795 730.642,512.461 732.5,516.5C 731.504,516.586 730.671,516.252 730,515.5C 726.647,511.312 723.481,506.979 720.5,502.5 Z"/></g>
<g><path style="opacity:1" fill="#451e17" d="M 710.5,496.5 C 714.505,497.498 717.839,499.498 720.5,502.5C 723.481,506.979 726.647,511.312 730,515.5C 730.671,516.252 731.504,516.586 732.5,516.5C 736.094,522.028 739.927,527.361 744,532.5C 745.067,533.191 746.234,533.691 747.5,534C 747.043,534.414 746.709,534.914 746.5,535.5C 748.173,537.523 748.84,539.856 748.5,542.5C 747.189,544.56 747.189,546.726 748.5,549C 745.849,551.98 742.849,554.647 739.5,557C 739.833,557.333 740.167,557.667 740.5,558C 737.861,559.946 734.861,560.946 731.5,561C 731.833,561.333 732.167,561.667 732.5,562C 731.584,562.374 730.75,562.874 730,563.5C 724.759,562.723 719.925,560.39 715.5,556.5C 707.065,545.251 701.732,533.085 699.5,520C 699.957,516.581 699.957,513.248 699.5,510C 700.495,505.512 702.661,501.678 706,498.5C 708.108,499.612 709.608,498.946 710.5,496.5 Z"/></g>
<g><path style="opacity:0.439" fill="#101010" d="M 731.5,504.5 C 732.793,506.808 734.126,509.142 735.5,511.5C 732.013,510.555 730.68,508.222 731.5,504.5 Z"/></g>
<g><path style="opacity:0.444" fill="#101010" d="M 444.5,505.5 C 445.019,509.479 443.352,511.813 439.5,512.5C 441.616,510.4 443.283,508.067 444.5,505.5 Z"/></g>
<g><path style="opacity:0.014" fill="#050505" d="M 805.5,655.5 C 807.424,655.711 807.757,656.377 806.5,657.5C 806.167,656.833 805.833,656.167 805.5,655.5 Z"/></g>
<g><path style="opacity:0.348" fill="#121212" d="M 713.5,668.5 C 715.176,669.183 715.843,670.517 715.5,672.5C 714.655,671.329 713.989,669.995 713.5,668.5 Z"/></g>
<g><path style="opacity:1" fill="#461e17" d="M 353.5,718.5 C 359.746,719.449 365.746,721.949 371.5,726C 370.939,727.566 371.606,728.899 373.5,730C 375.351,730.837 377.184,731.671 379,732.5C 379.023,736.56 379.523,740.394 380.5,744C 377.809,746.253 376.142,749.086 375.5,752.5C 374.448,752.351 373.448,752.517 372.5,753C 373.517,754.049 373.684,755.216 373,756.5C 371.159,753.352 368.826,753.352 366,756.5C 365.517,755.552 365.351,754.552 365.5,753.5C 363.856,753.286 362.356,753.62 361,754.5C 360.71,752.956 360.044,751.623 359,750.5C 358.667,750.833 358.333,751.167 358,751.5C 355.929,750.636 354.262,749.303 353,747.5C 351.16,748.833 350.66,748.666 351.5,747C 349.701,745.139 348.035,743.139 346.5,741C 345.207,740.51 343.873,740.343 342.5,740.5C 341.269,733.584 342.769,726.918 347,720.5C 348.43,720.306 349.93,720.306 351.5,720.5C 352.522,720.145 353.189,719.478 353.5,718.5 Z"/></g>
<g><path style="opacity:1" fill="#461e17" d="M 818.5,718.5 C 820.01,719.728 821.51,719.728 823,718.5C 825.888,719.091 828.554,720.091 831,721.5C 834.538,727.783 835.704,734.117 834.5,740.5C 833.127,740.343 831.793,740.51 830.5,741C 828.965,743.139 827.299,745.139 825.5,747C 826.34,748.666 825.84,748.833 824,747.5C 822.738,749.303 821.071,750.636 819,751.5C 818.667,751.167 818.333,750.833 818,750.5C 816.956,751.623 816.29,752.956 816,754.5C 814.644,753.62 813.144,753.286 811.5,753.5C 811.649,754.552 811.483,755.552 811,756.5C 808.174,753.352 805.841,753.352 804,756.5C 803.316,755.216 803.483,754.049 804.5,753C 803.552,752.517 802.552,752.351 801.5,752.5C 800.858,749.086 799.191,746.253 796.5,744C 796.981,741.293 797.648,738.293 798.5,735C 798.355,734.228 798.022,733.561 797.5,733C 799.377,731.815 801.377,730.815 803.5,730C 805.394,728.899 806.061,727.566 805.5,726C 809.996,723.43 814.33,720.93 818.5,718.5 Z"/></g>
<g><path style="opacity:1" fill="#461e17" d="M 586.5,786.5 C 596.829,787.675 600.662,793.342 598,803.5C 596.954,805.09 595.787,806.59 594.5,808C 595.167,808.333 595.833,808.667 596.5,809C 594.351,810.152 592.518,811.652 591,813.5C 589.333,813.5 587.667,813.5 586,813.5C 584.482,811.652 582.649,810.152 580.5,809C 581.167,808.667 581.833,808.333 582.5,808C 578.695,803.909 577.528,799.076 579,793.5C 580.767,790.228 583.267,787.895 586.5,786.5 Z"/></g>
<g><path style="opacity:0.01" fill="#0a0000" d="M 363.5,791.5 C 363.068,792.71 362.401,793.71 361.5,794.5C 361.285,792.821 361.952,791.821 363.5,791.5 Z"/></g>
<g><path style="opacity:0.006" fill="#080000" d="M 813.5,791.5 C 815.048,791.821 815.715,792.821 815.5,794.5C 814.599,793.71 813.932,792.71 813.5,791.5 Z"/></g>
<g><path style="opacity:0.779" fill="#171717" d="M 190.5,887.5 C 189.298,886.595 187.964,886.595 186.5,887.5C 186.5,886.167 186.5,884.833 186.5,883.5C 189.142,883.488 190.475,884.821 190.5,887.5 Z"/></g>
<g><path style="opacity:0.702" fill="#351113" d="M 168.5,945.5 C 168.833,945.5 169.167,945.5 169.5,945.5C 169.315,946.17 168.981,946.17 168.5,945.5 Z"/></g>
<g><path style="opacity:0.8" fill="#351012" d="M 1007.5,945.5 C 1007.83,945.5 1008.17,945.5 1008.5,945.5C 1008.31,946.17 1007.98,946.17 1007.5,945.5 Z"/></g>
<g><path style="opacity:0.033" fill="#060606" d="M 586.5,976.5 C 587.657,979.307 587.657,981.974 586.5,984.5C 586.014,981.618 586.014,978.952 586.5,976.5 Z"/></g>
<g><path style="opacity:0.038" fill="#050505" d="M 590.5,978.5 C 590.715,980.523 590.715,982.856 590.5,985.5C 589.694,984.003 589.028,982.336 588.5,980.5C 588.855,979.478 589.522,978.811 590.5,978.5 Z"/></g>
<g><path style="opacity:0.016" fill="#040404" d="M 592.5,1000.5 C 593.537,1001.93 594.204,1003.6 594.5,1005.5C 592.744,1004.45 592.077,1002.78 592.5,1000.5 Z"/></g>
<g><path style="opacity:0.169" fill="#111111" d="M 614.5,1144.5 C 615.455,1150.41 615.789,1156.41 615.5,1162.5C 614.769,1157.15 614.102,1151.65 613.5,1146C 613.57,1145.24 613.903,1144.74 614.5,1144.5 Z"/></g>
<g><path style="opacity:1" fill="#461e17" d="M 487.5,1171.5 C 494.495,1172.39 501.662,1173.39 509,1174.5C 512.911,1173.9 516.577,1174.9 520,1177.5C 520.414,1177.04 520.914,1176.71 521.5,1176.5C 522.83,1178.09 524.164,1179.76 525.5,1181.5C 524.395,1182.89 523.061,1184.06 521.5,1185C 522.833,1185.67 522.833,1186.33 521.5,1187C 524.5,1188 527.5,1189 530.5,1190C 526.583,1193.21 522.417,1196.04 518,1198.5C 517,1195.83 516,1195.83 515,1198.5C 514.667,1197.83 514.333,1197.17 514,1196.5C 512.333,1197.17 510.667,1197.83 509,1198.5C 508.333,1197.83 507.667,1197.17 507,1196.5C 503.797,1197.29 500.464,1197.63 497,1197.5C 494.333,1196.77 491.833,1195.11 489.5,1192.5C 488.033,1192.72 486.533,1193.06 485,1193.5C 483.461,1189.96 480.794,1187.96 477,1187.5C 473.63,1177.99 477.13,1172.66 487.5,1171.5 Z"/></g>
<g><path style="opacity:1" fill="#461f17" d="M 683.5,1171.5 C 688.051,1171.66 692.718,1172.32 697.5,1173.5C 698.648,1175.15 699.981,1176.65 701.5,1178C 701.186,1181.28 700.686,1184.45 700,1187.5C 696.206,1187.96 693.539,1189.96 692,1193.5C 690.467,1193.06 688.967,1192.72 687.5,1192.5C 685.167,1195.11 682.667,1196.77 680,1197.5C 676.536,1197.63 673.203,1197.29 670,1196.5C 669.333,1197.17 668.667,1197.83 668,1198.5C 666.333,1197.83 664.667,1197.17 663,1196.5C 662.374,1198.99 661.541,1198.99 660.5,1196.5C 659.808,1197.03 659.308,1197.69 659,1198.5C 654.583,1196.04 650.417,1193.21 646.5,1190C 649.83,1188.18 653.164,1187.18 656.5,1187C 655.853,1185.01 654.187,1183.34 651.5,1182C 653.569,1180.24 655.069,1178.41 656,1176.5C 658.128,1176.93 660.295,1176.43 662.5,1175C 669.752,1174.51 676.752,1173.35 683.5,1171.5 Z"/></g>
<g><path style="opacity:0.012" fill="#040404" d="M 626.5,1653.5 C 627.401,1654.29 628.068,1655.29 628.5,1656.5C 626.952,1656.18 626.285,1655.18 626.5,1653.5 Z"/></g>
</svg>
