<?xml version="1.0" encoding="UTF-8"?>
<!DOCTYPE svg PUBLIC "-//W3C//DTD SVG 1.1//EN" "http://www.w3.org/Graphics/SVG/1.1/DTD/svg11.dtd">
<svg xmlns="http://www.w3.org/2000/svg" version="1.1" width="1216px" height="1749px" style="shape-rendering:geometricPrecision; text-rendering:geometricPrecision; image-rendering:optimizeQuality; fill-rule:evenodd; clip-rule:evenodd" xmlns:xlink="http://www.w3.org/1999/xlink">
<g><path style="opacity:0.702" fill="#4c0a0c" d="M 168.5,945.5 C 168.833,945.5 169.167,945.5 169.5,945.5C 169.315,946.17 168.981,946.17 168.5,945.5 Z"/></g>
<g><path style="opacity:0.8" fill="#4a090d" d="M 1007.5,945.5 C 1007.83,945.5 1008.17,945.5 1008.5,945.5C 1008.31,946.17 1007.98,946.17 1007.5,945.5 Z"/></g>
<g><path style="opacity:0.967" fill="#4e0c10" d="M 1008.5,945.5 C 1008.17,944.167 1007.83,944.167 1007.5,945.5C 1006.6,944.402 1005.77,944.402 1005,945.5C 1004.15,943.875 1003.15,943.542 1002,944.5C 999.342,942.044 996.675,940.377 994,939.5C 993.085,938.672 992.419,937.672 992,936.5C 993.452,941.797 994.619,946.964 995.5,952C 994.632,954.235 993.632,956.402 992.5,958.5C 990.566,958.901 989.066,959.901 988,961.5C 984.089,960.421 980.589,958.588 977.5,956C 972.641,951.472 967.807,946.972 963,942.5C 962.272,947.564 959.605,951.23 955,953.5C 952.333,953.5 949.667,953.5 947,953.5C 938.638,947.679 932.305,940.679 928,932.5C 925.659,934.502 923.325,936.502 921,938.5C 914.521,936.693 909.854,932.693 907,926.5C 906,923.833 905,921.167 904,918.5C 902.105,908.189 900.938,898.023 900.5,888C 899.283,886.352 898.45,884.519 898,882.5C 890.371,875.194 883.371,867.194 877,858.5C 854.013,840.54 834.679,819.873 819,796.5C 817.667,795.833 816.333,795.167 815,794.5C 807.621,786.123 800.621,777.456 794,768.5C 793.667,768.833 793.333,769.167 793,769.5C 784.464,760.825 776.131,751.825 768,742.5C 760.692,730.191 752.192,718.857 742.5,708.5C 743.716,706.696 744.716,705.029 745.5,703.5C 758.57,714.588 769.57,727.588 778.5,742.5C 805.21,767.053 829.377,794.053 851,823.5C 870.365,839.277 887.865,856.943 903.5,876.5C 908.571,882.508 910.571,889.008 909.5,896C 910.763,897.705 911.097,899.372 910.5,901C 911.247,910.823 914.08,919.99 919,928.5C 919.309,927.234 919.809,926.067 920.5,925C 919.833,922.333 919.167,919.667 918.5,917C 918.483,913.367 918.65,909.533 919,905.5C 920.913,903.813 923.08,903.313 925.5,904C 930.11,919.727 937.944,933.56 949,945.5C 950.299,945.034 951.799,945.034 953.5,945.5C 953.33,944.178 953.663,943.011 954.5,942C 952.405,938.742 951.405,935.409 951.5,932C 949.64,925.649 946.974,919.316 943.5,913C 945.531,907.729 948.365,907.229 952,911.5C 954.045,914.423 956.212,917.257 958.5,920C 958.167,920.333 957.833,920.667 957.5,921C 964.772,934.077 974.605,944.91 987,953.5C 987.037,948.135 985.871,942.968 983.5,938C 977.833,929 972.167,920 966.5,911C 966.946,909.274 967.779,907.774 969,906.5C 979.309,914.749 989.142,923.582 998.5,933C 1001.73,935.616 1005.4,937.116 1009.5,937.5C 1009.64,935.738 1009.31,934.071 1008.5,932.5C 995.224,918.049 982.558,903.216 970.5,888C 970.833,887.667 971.167,887.333 971.5,887C 967.11,882.74 967.61,879.24 973,876.5C 981.769,880.23 990.936,881.73 1000.5,881C 1001.62,880.751 1002.62,880.251 1003.5,879.5C 1002.53,874.699 999.865,871.199 995.5,869C 981.032,864.396 967.365,858.896 954.5,852.5C 946.54,849.857 939.54,845.691 933.5,840C 930.307,840.27 927.307,839.27 924.5,837C 912.721,823.303 902.055,809.303 892.5,795C 877.613,776.435 863.446,757.268 850,737.5C 847.204,736.099 844.537,734.432 842,732.5C 839,726.167 836,719.833 833,713.5C 814.899,687.206 797.899,660.206 782,632.5C 775.836,618.666 770.67,604.499 766.5,590C 766.833,589.667 767.167,589.333 767.5,589C 764.807,583.254 762.307,577.421 760,571.5C 757.353,561.368 753.853,552.034 749.5,543.5C 750.172,540.092 749.172,537.425 746.5,535.5C 747.609,534.035 747.109,533.035 745,532.5C 738.411,522.989 731.578,513.656 724.5,504.5C 720.145,500.991 715.478,497.991 710.5,495.5C 704.401,493.518 698.567,490.851 693,487.5C 688.554,486.129 684.054,484.962 679.5,484C 679.957,483.586 680.291,483.086 680.5,482.5C 666.115,475.087 651.115,468.92 635.5,464C 632.879,462.405 630.213,460.905 627.5,459.5C 626.515,461.772 625.681,464.105 625,466.5C 624,467.833 623,467.833 622,466.5C 621.667,467.5 621.333,468.5 621,469.5C 619.08,457.429 620.913,445.929 626.5,435C 626.167,434.5 625.833,434 625.5,433.5C 621.682,435.064 618.015,436.73 614.5,438.5C 607.366,441.391 600.033,443.391 592.5,444.5C 584.551,444.461 576.884,443.128 569.5,440.5C 568.833,440.5 568.167,440.5 567.5,440.5C 564.069,438.398 560.402,436.565 556.5,435C 554.866,434.506 553.199,434.34 551.5,434.5C 551.263,435.791 551.596,436.791 552.5,437.5C 555.578,446.896 557.245,456.562 557.5,466.5C 555.774,466.815 554.107,466.981 552.5,467C 551.426,464.544 550.426,462.044 549.5,459.5C 544.431,462.414 539.264,465.08 534,467.5C 521.058,470.711 508.558,475.545 496.5,482C 496.833,482.333 497.167,482.667 497.5,483C 486.271,485.783 475.604,489.95 465.5,495.5C 460.978,498.016 456.478,500.682 452,503.5C 445.924,512.641 439.591,521.641 433,530.5C 432.517,531.448 432.351,532.448 432.5,533.5C 430.058,533.119 429.391,533.786 430.5,535.5C 427.828,537.425 426.828,540.092 427.5,543.5C 417.143,566.369 408.976,589.703 403,613.5C 394.264,633.311 384.264,652.311 373,670.5C 364.974,681.235 357.307,692.235 350,703.5C 344.719,713.063 339.719,722.73 335,732.5C 332.463,734.432 329.796,736.099 327,737.5C 312.656,758.385 297.989,778.385 283,797.5C 273.182,810.986 263.015,824.153 252.5,837C 249.693,839.27 246.693,840.27 243.5,840C 236.024,845.861 228.191,850.361 220,853.5C 207.665,859.918 194.832,865.085 181.5,869C 177.135,871.199 174.468,874.699 173.5,879.5C 177.626,881.447 181.96,881.947 186.5,881C 192.44,880.345 198.274,879.179 204,877.5C 205.971,877.468 207.471,878.302 208.5,880C 207.576,880.85 207.576,881.85 208.5,883C 205.72,887.62 202.72,892.12 199.5,896.5C 189.196,908.475 178.863,920.475 168.5,932.5C 167.691,934.071 167.357,935.738 167.5,937.5C 171.604,937.116 175.271,935.616 178.5,933C 187.858,923.582 197.691,914.749 208,906.5C 209.221,907.774 210.054,909.274 210.5,911C 204.833,920 199.167,929 193.5,938C 191.308,943.011 190.141,948.178 190,953.5C 202.395,944.91 212.228,934.077 219.5,921C 219.167,920.667 218.833,920.333 218.5,920C 220.788,917.257 222.955,914.423 225,911.5C 228.635,907.229 231.469,907.729 233.5,913C 230.026,919.316 227.36,925.649 225.5,932C 225.595,935.409 224.595,938.742 222.5,942C 223.337,943.011 223.67,944.178 223.5,945.5C 227.571,945.421 231.071,943.421 234,939.5C 242.094,928.812 247.927,916.978 251.5,904C 253.92,903.313 256.087,903.813 258,905.5C 258.35,909.533 258.517,913.367 258.5,917C 257.833,919.667 257.167,922.333 256.5,925C 257.191,926.067 257.691,927.234 258,928.5C 263.462,919.346 265.962,909.846 265.5,900C 266.167,898.667 266.833,897.333 267.5,896C 266.429,889.008 268.429,882.508 273.5,876.5C 289.178,856.935 306.678,839.268 326,823.5C 340.253,804.413 355.42,786.08 371.5,768.5C 389.111,753.319 404.444,735.985 417.5,716.5C 422.116,711.595 426.949,706.928 432,702.5C 441.721,689.779 451.054,676.779 460,663.5C 461.999,661.747 464.165,660.413 466.5,659.5C 466.491,657.692 466.991,656.025 468,654.5C 477.245,643.377 481.245,630.711 480,616.5C 479.333,615.833 478.667,615.167 478,614.5C 477.747,609.816 476.413,605.482 474,601.5C 473.333,597.5 473.333,593.5 474,589.5C 475.314,590.313 476.481,591.313 477.5,592.5C 479.981,598.742 482.314,605.075 484.5,611.5C 484.996,621.622 486.33,631.622 488.5,641.5C 487.386,649.933 486.553,658.266 486,666.5C 481.107,685.24 476.607,704.074 472.5,723C 472.983,727.402 472.983,731.902 472.5,736.5C 470.837,738.438 470.171,740.772 470.5,743.5C 466.449,762.589 461.449,781.422 455.5,800C 456.059,800.725 456.392,801.558 456.5,802.5C 454.997,806.838 453.497,811.172 452,815.5C 450.907,823.005 449.407,830.505 447.5,838C 448.022,838.561 448.355,839.228 448.5,840C 447.188,846.43 446.355,852.93 446,859.5C 445.626,860.416 445.126,861.25 444.5,862C 444.862,868.732 444.862,875.732 444.5,883C 443.956,885.4 443.289,887.733 442.5,890C 442.79,896.288 443.123,902.622 443.5,909C 442.833,909.667 442.167,910.333 441.5,911C 441.589,917.885 441.922,924.718 442.5,931.5C 441.833,933.833 441.167,936.167 440.5,938.5C 440.207,951.203 440.541,964.37 441.5,978C 440.711,980.267 440.044,982.6 439.5,985C 440.597,994.021 440.597,1003.02 439.5,1012C 440.167,1016.67 440.833,1021.33 441.5,1026C 440.274,1037.31 440.941,1049.47 443.5,1062.5C 443.277,1063.97 442.944,1065.47 442.5,1067C 443,1067.5 443.5,1068 444,1068.5C 444.834,1075.67 445.667,1082.84 446.5,1090C 445.798,1092.95 446.131,1095.95 447.5,1099C 446.538,1101.41 446.871,1103.74 448.5,1106C 448.507,1107.58 448.174,1109.25 447.5,1111C 448.167,1112.67 448.833,1114.33 449.5,1116C 448.949,1117.4 448.616,1118.73 448.5,1120C 449.201,1126.04 450.201,1132.04 451.5,1138C 451.561,1142.27 451.561,1146.61 451.5,1151C 453.998,1157.55 454.331,1164.05 452.5,1170.5C 452.63,1176.42 452.963,1182.92 453.5,1190C 449.835,1228.98 447.501,1267.98 446.5,1307C 447.833,1309.33 447.833,1311.67 446.5,1314C 448.065,1316.13 448.399,1318.29 447.5,1320.5C 448.846,1327.26 449.513,1334.1 449.5,1341C 448.843,1357.21 448.51,1373.38 448.5,1389.5C 449.076,1397.24 450.076,1404.9 451.5,1412.5C 451.56,1422.5 451.56,1433 451.5,1444C 453.237,1448.91 453.571,1453.58 452.5,1458C 454.301,1458.32 454.634,1458.98 453.5,1460C 454.738,1466.93 455.738,1473.93 456.5,1481C 456.112,1483.19 456.112,1485.53 456.5,1488C 455.332,1492.17 453.499,1496 451,1499.5C 450.833,1501.83 450.667,1504.17 450.5,1506.5C 452.022,1521.99 453.689,1537.49 455.5,1553C 454.42,1571.79 454.42,1590.46 455.5,1609C 452.078,1620.94 452.911,1632.44 458,1643.5C 458.75,1644.13 459.584,1644.63 460.5,1645C 469.389,1644.81 478.056,1645.97 486.5,1648.5C 487.167,1648.17 487.833,1647.83 488.5,1647.5C 493.222,1647.95 497.556,1649.45 501.5,1652C 511.976,1653 522.309,1654 532.5,1655C 536.386,1653.06 538.053,1649.9 537.5,1645.5C 537.234,1634.54 536.9,1623.54 536.5,1612.5C 536.745,1606.92 536.078,1601.58 534.5,1596.5C 530.185,1565.98 527.518,1535.65 526.5,1505.5C 527.651,1501.42 528.318,1497.26 528.5,1493C 528.185,1481.98 527.852,1471.31 527.5,1461C 527.985,1457.59 528.652,1454.26 529.5,1451C 529.501,1441.99 529.501,1432.66 529.5,1423C 530.167,1420.67 530.833,1418.33 531.5,1416C 532.391,1391.72 535.391,1367.39 540.5,1343C 539.786,1341.66 540.12,1340.32 541.5,1339C 541.043,1338.59 540.709,1338.09 540.5,1337.5C 542.99,1323.39 544.99,1309.23 546.5,1295C 547.714,1270.27 547.714,1245.11 546.5,1219.5C 547.631,1211.69 548.298,1203.69 548.5,1195.5C 549.456,1182.16 551.122,1169.16 553.5,1156.5C 551.835,1151.6 551.335,1146.6 552,1141.5C 555.92,1125.49 560.92,1109.82 567,1094.5C 571.293,1060.91 574.793,1027.24 577.5,993.5C 578.682,987.699 579.348,981.699 579.5,975.5C 580.314,966.325 581.647,957.492 583.5,949C 582.542,947.853 582.875,946.853 584.5,946C 584.167,944.333 583.833,942.667 583.5,941C 584.167,939 584.833,937 585.5,935C 584.889,930.808 584.889,926.475 585.5,922C 584.91,920.491 584.244,918.991 583.5,917.5C 580.008,916.839 576.841,915.506 574,913.5C 573.51,912.207 573.343,910.873 573.5,909.5C 576.439,910.462 579.272,910.795 582,910.5C 583.094,908.911 584.594,907.578 586.5,906.5C 587.167,907.167 587.833,907.833 588.5,908.5C 589.532,906.96 590.865,906.46 592.5,907C 593.833,907.667 593.833,908.333 592.5,909C 593.108,909.87 593.941,910.37 595,910.5C 597.728,910.795 600.561,910.462 603.5,909.5C 603.822,911.722 603.155,913.556 601.5,915C 598.828,915.834 596.161,916.668 593.5,917.5C 590.994,925.647 590.994,933.481 593.5,941C 593.167,942.667 592.833,944.333 592.5,946C 594.125,946.853 594.458,947.853 593.5,949C 594.481,954.922 595.648,961.088 597,967.5C 597.71,982.318 599.376,996.985 602,1011.5C 602.445,1024.84 603.112,1038.18 604,1051.5C 605.989,1066.07 607.989,1080.74 610,1095.5C 617.307,1112.09 622.474,1129.26 625.5,1147C 624.95,1150.36 624.284,1153.69 623.5,1157C 626.994,1173.31 628.994,1189.81 629.5,1206.5C 629.848,1215.7 630.515,1224.87 631.5,1234C 631.21,1241.17 630.877,1248.34 630.5,1255.5C 629.192,1283.09 631.192,1310.42 636.5,1337.5C 635.653,1339.06 635.986,1340.56 637.5,1342C 637.167,1342.33 636.833,1342.67 636.5,1343C 640.796,1364.45 643.796,1386.11 645.5,1408C 644.316,1409.55 644.483,1411.05 646,1412.5C 646.649,1424.52 647.483,1436.52 648.5,1448.5C 648.392,1449.44 648.059,1450.28 647.5,1451C 648.43,1454.07 649.097,1457.24 649.5,1460.5C 649.095,1470.98 648.761,1481.82 648.5,1493C 648.682,1497.26 649.349,1501.42 650.5,1505.5C 650.243,1511.91 650.243,1518.41 650.5,1525C 649.833,1528.33 649.167,1531.67 648.5,1535C 648.833,1535.33 649.167,1535.67 649.5,1536C 648.361,1547.03 647.028,1558.03 645.5,1569C 645.426,1580.53 643.76,1592.03 640.5,1603.5C 641.338,1610.16 641.005,1616.83 639.5,1623.5C 639.495,1632.41 639.661,1641.41 640,1650.5C 641.742,1653.29 644.242,1654.96 647.5,1655.5C 656.675,1653.88 666.008,1652.72 675.5,1652C 680.65,1648.73 686.15,1647.56 692,1648.5C 694.149,1647.7 696.316,1646.87 698.5,1646C 704.5,1645.67 710.5,1645.33 716.5,1645C 718.696,1643.78 720.196,1641.94 721,1639.5C 723.915,1629.15 724.082,1618.99 721.5,1609C 722.632,1590.43 722.632,1571.77 721.5,1553C 723.277,1537.45 724.943,1521.95 726.5,1506.5C 726.333,1504.17 726.167,1501.83 726,1499.5C 724.014,1495.7 722.181,1491.86 720.5,1488C 720.933,1479.23 721.767,1470.06 723,1460.5C 723.374,1459.58 723.874,1458.75 724.5,1458C 723.478,1453.6 723.812,1449.27 725.5,1445C 724.447,1436.93 724.78,1428.93 726.5,1421C 726.279,1419.2 725.946,1417.37 725.5,1415.5C 727.105,1398.9 728.105,1382.24 728.5,1365.5C 728.356,1357.31 728.022,1349.14 727.5,1341C 728.281,1329.47 729.281,1318.14 730.5,1307C 729.278,1268.99 726.944,1230.99 723.5,1193C 724.432,1184.91 724.765,1177.41 724.5,1170.5C 722.669,1164.05 723.002,1157.55 725.5,1151C 725.439,1146.61 725.439,1142.27 725.5,1138C 726.799,1132.04 727.799,1126.04 728.5,1120C 728.384,1118.73 728.051,1117.4 727.5,1116C 728.167,1114.33 728.833,1112.67 729.5,1111C 728.826,1109.25 728.493,1107.58 728.5,1106C 730.129,1103.74 730.462,1101.41 729.5,1099C 730.869,1095.95 731.202,1092.95 730.5,1090C 731.333,1082.84 732.166,1075.67 733,1068.5C 733.5,1068 734,1067.5 734.5,1067C 734.167,1064.67 733.833,1062.33 733.5,1060C 734.608,1053.88 735.608,1047.71 736.5,1041.5C 736.644,1007.38 736.644,973.05 736.5,938.5C 735.833,936.167 735.167,933.833 734.5,931.5C 735.203,917.518 735.203,903.685 734.5,890C 733.711,887.733 733.044,885.4 732.5,883C 732.138,875.732 732.138,868.732 732.5,862C 731.874,861.25 731.374,860.416 731,859.5C 730.645,852.93 729.812,846.43 728.5,840C 728.645,839.228 728.978,838.561 729.5,838C 727.593,830.505 726.093,823.005 725,815.5C 723.503,811.172 722.003,806.838 720.5,802.5C 721.135,798.688 720.302,795.022 718,791.5C 715.852,783.246 714.186,774.912 713,766.5C 709.66,759.479 707.326,752.146 706,744.5C 704.925,734.226 703.425,724.06 701.5,714C 701.833,713.667 702.167,713.333 702.5,713C 694.751,690.253 690.084,666.92 688.5,643C 690.448,633.259 691.615,623.426 692,613.5C 694.775,606.734 696.775,599.734 698,592.5C 699.333,591.833 700.333,590.833 701,589.5C 702,589.833 703,590.167 704,590.5C 704.33,593.866 703.997,597.199 703,600.5C 700.812,604.93 699.312,609.597 698.5,614.5C 697.914,614.709 697.414,615.043 697,615.5C 696.033,623.338 696.7,631.005 699,638.5C 706.436,651.942 715.436,664.275 726,675.5C 730.257,682.354 734.757,689.02 739.5,695.5C 739.517,699.377 738.351,700.043 736,697.5C 735.601,697.728 735.435,698.062 735.5,698.5C 733.233,695.729 730.733,693.062 728,690.5C 721.756,679.602 714.089,669.936 705,661.5C 701.831,655.828 698.664,650.161 695.5,644.5C 695.167,645.167 694.833,645.833 694.5,646.5C 697.167,667.669 702,688.335 709,708.5C 710.628,714.388 711.628,720.388 712,726.5C 712.684,728.359 713.684,730.026 715,731.5C 719.712,759.974 725.879,788.14 733.5,816C 733.167,816.333 732.833,816.667 732.5,817C 733.744,823.611 735.411,830.278 737.5,837C 738.235,840.169 738.235,843.502 737.5,847C 738,847.5 738.5,848 739,848.5C 740.025,857.069 741.192,865.569 742.5,874C 742.384,875.268 742.051,876.602 741.5,878C 742.604,886.762 743.604,895.429 744.5,904C 744.481,907.309 744.148,910.642 743.5,914C 744.167,915.333 744.833,916.667 745.5,918C 745.421,921.79 745.088,925.624 744.5,929.5C 745.142,934.365 745.808,939.199 746.5,944C 745.633,946.823 745.299,949.823 745.5,953C 746.167,956.333 746.833,959.667 747.5,963C 747.574,966.29 747.24,969.457 746.5,972.5C 747.149,979.364 747.816,986.198 748.5,993C 748.164,1003.16 748.164,1013.66 748.5,1024.5C 747.865,1028.37 747.199,1032.2 746.5,1036C 746.833,1036.33 747.167,1036.67 747.5,1037C 746.833,1038.67 746.167,1040.33 745.5,1042C 746.357,1045.38 746.024,1049.04 744.5,1053C 744.957,1053.41 745.291,1053.91 745.5,1054.5C 744.637,1059.46 743.97,1064.46 743.5,1069.5C 744.5,1069.5 745.5,1069.5 746.5,1069.5C 744.803,1104.88 739.803,1139.71 731.5,1174C 732.572,1176.68 731.905,1179.01 729.5,1181C 731.831,1208.47 735.164,1235.97 739.5,1263.5C 739.769,1269.51 739.769,1275.35 739.5,1281C 740.167,1285.33 740.833,1289.67 741.5,1294C 741.224,1312.06 741.224,1330.39 741.5,1349C 740.712,1352.08 740.212,1355.24 740,1358.5C 740.033,1382.22 739.033,1405.88 737,1429.5C 734.173,1444.13 731.673,1458.79 729.5,1473.5C 729.504,1477.57 730.004,1481.57 731,1485.5C 734.544,1493.09 737.377,1500.92 739.5,1509C 738.316,1511.66 736.983,1514.16 735.5,1516.5C 733.089,1516.14 731.589,1517.14 731,1519.5C 730.164,1524.38 729.331,1529.21 728.5,1534C 728.808,1563.54 729.808,1593.54 731.5,1624C 732.042,1632.53 730.042,1640.36 725.5,1647.5C 721.849,1650.45 717.682,1652.12 713,1652.5C 709.788,1651.73 706.288,1651.56 702.5,1652C 700.924,1652.44 699.59,1653.27 698.5,1654.5C 697.914,1654.29 697.414,1653.96 697,1653.5C 693.255,1654.3 689.421,1654.8 685.5,1655C 678.632,1659.12 671.632,1660.95 664.5,1660.5C 660.627,1665.48 655.461,1667.48 649,1666.5C 640.443,1666.98 633.276,1663.65 627.5,1656.5C 627.073,1643.01 626.74,1630.01 626.5,1617.5C 628.65,1606.9 630.483,1596.23 632,1585.5C 632.692,1584.97 633.192,1584.31 633.5,1583.5C 634.1,1581.03 633.434,1578.7 631.5,1576.5C 632.704,1561.42 634.537,1546.42 637,1531.5C 637.187,1524.92 637.687,1518.42 638.5,1512C 637.64,1505.07 637.973,1497.9 639.5,1490.5C 639.158,1488.13 638.658,1485.8 638,1483.5C 638.572,1450.04 636.905,1416.71 633,1383.5C 627.685,1348.29 622.185,1313.13 616.5,1278C 620.7,1242.57 620.367,1207.24 615.5,1172C 615.833,1171.67 616.167,1171.33 616.5,1171C 615.148,1162.75 614.148,1154.41 613.5,1146C 612.428,1135 609.928,1124.16 606,1113.5C 604.112,1104.33 602.278,1095.17 600.5,1086C 600.348,1071.83 599.014,1057.66 596.5,1043.5C 596.608,1042.56 596.941,1041.72 597.5,1041C 595.706,1031.06 594.373,1021.06 593.5,1011C 592.967,1000.81 591.3,990.64 588.5,980.5C 589.611,979.389 590.278,978.055 590.5,976.5C 589.705,970.522 589.039,964.522 588.5,958.5C 586.863,966.353 586.53,974.02 587.5,981.5C 581.657,1016.6 577.49,1052.27 575,1088.5C 573.389,1096.11 572.056,1103.77 571,1111.5C 567.804,1121.65 565.138,1131.98 563,1142.5C 560.337,1171.28 558.504,1200.11 557.5,1229C 557.584,1245.28 558.584,1261.28 560.5,1277C 554.909,1312.47 549.409,1347.97 544,1383.5C 540.095,1416.71 538.428,1450.04 539,1483.5C 537.568,1490.49 537.735,1497.49 539.5,1504.5C 538.704,1507.08 538.371,1509.58 538.5,1512C 539.313,1518.42 539.813,1524.92 540,1531.5C 542.449,1546.42 544.282,1561.42 545.5,1576.5C 543.566,1578.7 542.9,1581.03 543.5,1583.5C 543.808,1584.31 544.308,1584.97 545,1585.5C 546.517,1596.23 548.35,1606.9 550.5,1617.5C 550.244,1630.08 549.911,1643.08 549.5,1656.5C 541.838,1665.25 531.838,1668.41 519.5,1666C 516.404,1665.12 514.07,1663.29 512.5,1660.5C 505.368,1660.95 498.368,1659.12 491.5,1655C 487.579,1654.8 483.745,1654.3 480,1653.5C 479.586,1653.96 479.086,1654.29 478.5,1654.5C 477.41,1653.27 476.076,1652.44 474.5,1652C 470.712,1651.56 467.212,1651.73 464,1652.5C 459.318,1652.12 455.151,1650.45 451.5,1647.5C 446.958,1640.36 444.958,1632.53 445.5,1624C 447.192,1593.54 448.192,1563.54 448.5,1534C 447.669,1529.21 446.836,1524.38 446,1519.5C 445.411,1517.14 443.911,1516.14 441.5,1516.5C 440.017,1514.16 438.684,1511.66 437.5,1509C 439.623,1500.92 442.456,1493.09 446,1485.5C 446.996,1481.57 447.496,1477.57 447.5,1473.5C 445.327,1458.79 442.827,1444.13 440,1429.5C 437.967,1405.88 436.967,1382.22 437,1358.5C 436.788,1355.24 436.288,1352.08 435.5,1349C 436.053,1330.11 436.053,1311.61 435.5,1293.5C 436.131,1289.97 436.798,1286.47 437.5,1283C 437.042,1276.95 437.042,1270.45 437.5,1263.5C 441.836,1235.97 445.169,1208.47 447.5,1181C 445.095,1179.01 444.428,1176.68 445.5,1174C 444.313,1170.57 443.313,1167.07 442.5,1163.5C 442.709,1162.91 443.043,1162.41 443.5,1162C 436.104,1131.67 431.77,1100.84 430.5,1069.5C 431.5,1069.5 432.5,1069.5 433.5,1069.5C 433.03,1064.46 432.363,1059.46 431.5,1054.5C 431.709,1053.91 432.043,1053.41 432.5,1053C 430.976,1049.04 430.643,1045.38 431.5,1042C 430.833,1040.33 430.167,1038.67 429.5,1037C 429.833,1036.67 430.167,1036.33 430.5,1036C 429.801,1032.2 429.135,1028.37 428.5,1024.5C 428.836,1013.66 428.836,1003.16 428.5,993C 429.184,986.198 429.851,979.364 430.5,972.5C 429.76,969.457 429.426,966.29 429.5,963C 430.167,959.667 430.833,956.333 431.5,953C 431.701,949.823 431.367,946.823 430.5,944C 431.192,939.199 431.858,934.365 432.5,929.5C 431.912,925.624 431.579,921.79 431.5,918C 432.167,916.667 432.833,915.333 433.5,914C 432.852,910.642 432.519,907.309 432.5,904C 433.396,895.429 434.396,886.762 435.5,878C 434.949,876.602 434.616,875.268 434.5,874C 435.808,865.569 436.975,857.069 438,848.5C 443.938,816.778 450.938,784.445 459,751.5C 461.136,736.509 463.303,721.509 465.5,706.5C 467.124,706.64 468.29,705.973 469,704.5C 472.584,691.922 475.917,679.256 479,666.5C 480.081,660.561 480.414,654.561 480,648.5C 479.333,649.167 478.667,649.833 478,650.5C 463.28,668.928 449.28,687.928 436,707.5C 423.745,721.08 412.745,735.413 403,750.5C 402.667,750.167 402.333,749.833 402,749.5C 400.353,752.473 398.353,755.14 396,757.5C 383.53,768.76 372.197,781.094 362,794.5C 360.693,795.772 359.193,796.772 357.5,797.5C 348.358,809.872 338.358,822.205 327.5,834.5C 318.94,842.234 310.274,849.734 301.5,857C 294.549,866.132 287.049,874.632 279,882.5C 278.55,884.519 277.717,886.352 276.5,888C 276.054,898.079 274.888,908.245 273,918.5C 270.91,925.18 267.41,931.013 262.5,936C 260.341,936.912 258.175,937.745 256,938.5C 253.675,936.502 251.341,934.502 249,932.5C 244.695,940.679 238.362,947.679 230,953.5C 224.561,954.441 219.894,952.774 216,948.5C 215.027,946.608 214.36,944.608 214,942.5C 209.193,946.972 204.359,951.472 199.5,956C 196.411,958.588 192.911,960.421 189,961.5C 187.934,959.901 186.434,958.901 184.5,958.5C 183.368,956.402 182.368,954.235 181.5,952C 182.381,946.964 183.548,941.797 185,936.5C 184.558,938.679 183.558,939.345 182,938.5C 179.986,940.845 177.653,942.845 175,944.5C 173.853,943.542 172.853,943.875 172,945.5C 171.23,944.402 170.397,944.402 169.5,945.5C 169.167,944.167 168.833,944.167 168.5,945.5C 160.18,943.545 157.18,938.711 159.5,931C 172.132,915.7 185.132,900.7 198.5,886C 192.788,886.695 187.121,887.528 181.5,888.5C 168.275,887.644 163.942,881.311 168.5,869.5C 170.568,867.055 172.735,864.722 175,862.5C 175.333,862.833 175.667,863.167 176,863.5C 178.333,862.167 180.667,860.833 183,859.5C 183.333,859.833 183.667,860.167 184,860.5C 196.861,855.326 209.695,850.159 222.5,845C 229.73,842.265 236.397,838.598 242.5,834C 272.098,796.669 301.598,759.169 331,721.5C 335.935,710.767 341.435,700.434 347.5,690.5C 362.078,670.894 375.244,650.894 387,630.5C 387.721,626.658 389.387,623.324 392,620.5C 401.159,591.107 411.659,562.607 423.5,535C 426.286,531.926 428.952,528.759 431.5,525.5C 436.667,517.167 441.833,508.833 447,500.5C 454.828,492.936 463.828,488.269 474,486.5C 480.762,482.536 487.595,478.703 494.5,475C 512.865,468.479 531.198,461.979 549.5,455.5C 546.577,446.744 543.41,438.077 540,429.5C 528.117,420.884 516.783,411.551 506,401.5C 500.333,394.167 494.667,386.833 489,379.5C 488.261,380.574 487.261,381.241 486,381.5C 481.415,381.015 476.582,380.348 471.5,379.5C 470.914,379.709 470.414,380.043 470,380.5C 464.775,378.143 459.275,375.476 453.5,372.5C 449.806,369.074 445.973,365.074 442,360.5C 438.394,353.548 436.561,346.715 436.5,340C 438.019,325.285 444.686,313.618 456.5,305C 461.244,303.565 465.91,303.065 470.5,303.5C 456.303,247.363 471.969,202.196 517.5,168C 518.448,167.517 519.448,167.351 520.5,167.5C 520.5,166.5 520.5,165.5 520.5,164.5C 523.55,165.077 525.55,163.91 526.5,161C 528.722,160.305 530.889,159.472 533,158.5C 535.97,155.979 539.137,153.813 542.5,152C 546.556,151.649 550.223,150.315 553.5,148C 576.833,140.667 600.167,140.667 623.5,148C 626.777,150.315 630.444,151.649 634.5,152C 637.863,153.813 641.03,155.979 644,158.5C 647.652,159.249 650.485,161.082 652.5,164C 653.793,164.49 655.127,164.657 656.5,164.5C 656.5,165.5 656.5,166.5 656.5,167.5C 660.397,169.121 664.064,171.288 667.5,174C 704.277,205.664 718.11,245.831 709,294.5C 707.955,297.436 707.121,300.436 706.5,303.5C 711.09,303.065 715.756,303.565 720.5,305C 732.314,313.618 738.981,325.285 740.5,340C 740.439,346.715 738.606,353.548 735,360.5C 731.027,365.074 727.194,369.074 723.5,372.5C 717.725,375.476 712.225,378.143 707,380.5C 706.586,380.043 706.086,379.709 705.5,379.5C 700.418,380.348 695.585,381.015 691,381.5C 689.739,381.241 688.739,380.574 688,379.5C 677.473,396.359 663.973,410.192 647.5,421C 646.743,422.512 645.743,423.846 644.5,425C 641.541,425.772 639.041,427.272 637,429.5C 636.292,433.249 635.292,436.916 634,440.5C 631.773,444.818 629.607,449.152 627.5,453.5C 631.072,456.314 635.072,458.481 639.5,460C 652.155,464.331 664.822,468.665 677.5,473C 686.258,477.435 694.758,482.268 703,487.5C 703.414,487.043 703.914,486.709 704.5,486.5C 711.805,488.93 718.805,491.93 725.5,495.5C 725.5,496.5 725.5,497.5 725.5,498.5C 726.822,498.33 727.989,498.663 729,499.5C 730.333,502.167 731.667,504.833 733,507.5C 740.839,517.853 748.172,528.52 755,539.5C 757.894,546.288 761.06,552.955 764.5,559.5C 764.167,560.167 763.833,560.833 763.5,561.5C 771.606,580.465 778.773,600.131 785,620.5C 790.049,628.996 794.715,637.662 799,646.5C 801.863,648.897 803.697,651.897 804.5,655.5C 806.942,655.354 807.609,656.187 806.5,658C 812.548,666.906 818.881,675.739 825.5,684.5C 833.443,697.353 840.943,710.686 848,724.5C 876.448,761.093 905.114,797.426 934,833.5C 940.156,838.45 946.989,842.283 954.5,845C 967.305,850.159 980.139,855.326 993,860.5C 993.333,860.167 993.667,859.833 994,859.5C 996.333,860.833 998.667,862.167 1001,863.5C 1001.33,863.167 1001.67,862.833 1002,862.5C 1009.84,868.159 1012.01,875.159 1008.5,883.5C 1004.84,886.774 1000.51,888.44 995.5,888.5C 989.879,887.528 984.212,886.695 978.5,886C 991.897,900.725 1004.9,915.725 1017.5,931C 1019.82,938.711 1016.82,943.545 1008.5,945.5 Z"/></g>
<g><path style="opacity:1" fill="#fedcbf" d="M 710.5,495.5 C 715.478,497.991 720.145,500.991 724.5,504.5C 731.578,513.656 738.411,522.989 745,532.5C 747.109,533.035 747.609,534.035 746.5,535.5C 749.172,537.425 750.172,540.092 749.5,543.5C 748.883,543.389 748.383,543.056 748,542.5C 747.242,544.769 747.409,546.936 748.5,549C 744.5,553 740.833,556.667 737.5,560C 735.167,560.333 732.833,560.667 730.5,561C 732.901,561.805 732.734,562.638 730,563.5C 724.759,562.723 719.925,560.39 715.5,556.5C 703.018,541.567 698.185,524.567 701,505.5C 702.549,501.571 705.049,499.405 708.5,499C 709.823,498.184 710.489,497.017 710.5,495.5 Z"/></g>
<g><path style="opacity:1" fill="#fedcbf" d="M 465.5,495.5 C 466.663,498.238 468.497,499.238 471,498.5C 474.339,501.678 476.505,505.512 477.5,510C 477.043,513.248 477.043,516.581 477.5,520C 475.268,533.085 469.935,545.251 461.5,556.5C 457.075,560.39 452.241,562.723 447,563.5C 446.25,562.874 445.416,562.374 444.5,562C 444.833,561.667 445.167,561.333 445.5,561C 442.139,560.946 439.139,559.946 436.5,558C 436.833,557.667 437.167,557.333 437.5,557C 434.151,554.647 431.151,551.98 428.5,549C 429.591,546.936 429.758,544.769 429,542.5C 428.617,543.056 428.117,543.389 427.5,543.5C 426.828,540.092 427.828,537.425 430.5,535.5C 429.391,533.786 430.058,533.119 432.5,533.5C 432.351,532.448 432.517,531.448 433,530.5C 439.591,521.641 445.924,512.641 452,503.5C 456.478,500.682 460.978,498.016 465.5,495.5 Z"/></g>
<g><path style="opacity:1" fill="#fee8d3" d="M 710.5,495.5 C 710.489,497.017 709.823,498.184 708.5,499C 705.049,499.405 702.549,501.571 701,505.5C 698.185,524.567 703.018,541.567 715.5,556.5C 719.925,560.39 724.759,562.723 730,563.5C 732.734,562.638 732.901,561.805 730.5,561C 732.833,560.667 735.167,560.333 737.5,560C 740.833,556.667 744.5,553 748.5,549C 747.409,546.936 747.242,544.769 748,542.5C 748.383,543.056 748.883,543.389 749.5,543.5C 753.853,552.034 757.353,561.368 760,571.5C 762.307,577.421 764.807,583.254 767.5,589C 767.167,589.333 766.833,589.667 766.5,590C 770.67,604.499 775.836,618.666 782,632.5C 797.899,660.206 814.899,687.206 833,713.5C 836,719.833 839,726.167 842,732.5C 844.537,734.432 847.204,736.099 850,737.5C 863.446,757.268 877.613,776.435 892.5,795C 902.055,809.303 912.721,823.303 924.5,837C 927.307,839.27 930.307,840.27 933.5,840C 939.54,845.691 946.54,849.857 954.5,852.5C 967.365,858.896 981.032,864.396 995.5,869C 999.865,871.199 1002.53,874.699 1003.5,879.5C 1002.62,880.251 1001.62,880.751 1000.5,881C 990.936,881.73 981.769,880.23 973,876.5C 967.61,879.24 967.11,882.74 971.5,887C 971.167,887.333 970.833,887.667 970.5,888C 982.558,903.216 995.224,918.049 1008.5,932.5C 1009.31,934.071 1009.64,935.738 1009.5,937.5C 1005.4,937.116 1001.73,935.616 998.5,933C 989.142,923.582 979.309,914.749 969,906.5C 967.779,907.774 966.946,909.274 966.5,911C 972.167,920 977.833,929 983.5,938C 985.871,942.968 987.037,948.135 987,953.5C 974.605,944.91 964.772,934.077 957.5,921C 957.833,920.667 958.167,920.333 958.5,920C 956.212,917.257 954.045,914.423 952,911.5C 948.365,907.229 945.531,907.729 943.5,913C 946.974,919.316 949.64,925.649 951.5,932C 951.405,935.409 952.405,938.742 954.5,942C 953.663,943.011 953.33,944.178 953.5,945.5C 951.799,945.034 950.299,945.034 949,945.5C 937.944,933.56 930.11,919.727 925.5,904C 923.08,903.313 920.913,903.813 919,905.5C 918.65,909.533 918.483,913.367 918.5,917C 919.167,919.667 919.833,922.333 920.5,925C 919.809,926.067 919.309,927.234 919,928.5C 914.08,919.99 911.247,910.823 910.5,901C 911.097,899.372 910.763,897.705 909.5,896C 910.571,889.008 908.571,882.508 903.5,876.5C 887.865,856.943 870.365,839.277 851,823.5C 829.377,794.053 805.21,767.053 778.5,742.5C 769.57,727.588 758.57,714.588 745.5,703.5C 743.975,700.437 741.975,697.77 739.5,695.5C 734.757,689.02 730.257,682.354 726,675.5C 715.436,664.275 706.436,651.942 699,638.5C 696.7,631.005 696.033,623.338 697,615.5C 697.414,615.043 697.914,614.709 698.5,614.5C 699.312,609.597 700.812,604.93 703,600.5C 703.997,597.199 704.33,593.866 704,590.5C 703,590.167 702,589.833 701,589.5C 700.333,590.833 699.333,591.833 698,592.5C 696.775,599.734 694.775,606.734 692,613.5C 691.615,623.426 690.448,633.259 688.5,643C 690.084,666.92 694.751,690.253 702.5,713C 702.167,713.333 701.833,713.667 701.5,714C 703.425,724.06 704.925,734.226 706,744.5C 707.326,752.146 709.66,759.479 713,766.5C 714.186,774.912 715.852,783.246 718,791.5C 720.302,795.022 721.135,798.688 720.5,802.5C 722.003,806.838 723.503,811.172 725,815.5C 726.093,823.005 727.593,830.505 729.5,838C 728.978,838.561 728.645,839.228 728.5,840C 729.812,846.43 730.645,852.93 731,859.5C 731.374,860.416 731.874,861.25 732.5,862C 732.138,868.732 732.138,875.732 732.5,883C 733.044,885.4 733.711,887.733 734.5,890C 735.203,903.685 735.203,917.518 734.5,931.5C 735.167,933.833 735.833,936.167 736.5,938.5C 736.644,973.05 736.644,1007.38 736.5,1041.5C 735.608,1047.71 734.608,1053.88 733.5,1060C 733.833,1062.33 734.167,1064.67 734.5,1067C 734,1067.5 733.5,1068 733,1068.5C 732.166,1075.67 731.333,1082.84 730.5,1090C 731.202,1092.95 730.869,1095.95 729.5,1099C 730.462,1101.41 730.129,1103.74 728.5,1106C 728.493,1107.58 728.826,1109.25 729.5,1111C 728.833,1112.67 728.167,1114.33 727.5,1116C 728.051,1117.4 728.384,1118.73 728.5,1120C 727.799,1126.04 726.799,1132.04 725.5,1138C 725.439,1142.27 725.439,1146.61 725.5,1151C 723.002,1157.55 722.669,1164.05 724.5,1170.5C 724.765,1177.41 724.432,1184.91 723.5,1193C 726.944,1230.99 729.278,1268.99 730.5,1307C 729.281,1318.14 728.281,1329.47 727.5,1341C 728.022,1349.14 728.356,1357.31 728.5,1365.5C 728.105,1382.24 727.105,1398.9 725.5,1415.5C 725.946,1417.37 726.279,1419.2 726.5,1421C 724.78,1428.93 724.447,1436.93 725.5,1445C 723.812,1449.27 723.478,1453.6 724.5,1458C 723.874,1458.75 723.374,1459.58 723,1460.5C 721.767,1470.06 720.933,1479.23 720.5,1488C 722.181,1491.86 724.014,1495.7 726,1499.5C 726.167,1501.83 726.333,1504.17 726.5,1506.5C 724.943,1521.95 723.277,1537.45 721.5,1553C 722.632,1571.77 722.632,1590.43 721.5,1609C 724.082,1618.99 723.915,1629.15 721,1639.5C 720.196,1641.94 718.696,1643.78 716.5,1645C 710.5,1645.33 704.5,1645.67 698.5,1646C 696.316,1646.87 694.149,1647.7 692,1648.5C 686.15,1647.56 680.65,1648.73 675.5,1652C 666.008,1652.72 656.675,1653.88 647.5,1655.5C 644.242,1654.96 641.742,1653.29 640,1650.5C 639.661,1641.41 639.495,1632.41 639.5,1623.5C 641.005,1616.83 641.338,1610.16 640.5,1603.5C 643.76,1592.03 645.426,1580.53 645.5,1569C 647.028,1558.03 648.361,1547.03 649.5,1536C 649.167,1535.67 648.833,1535.33 648.5,1535C 649.167,1531.67 649.833,1528.33 650.5,1525C 650.243,1518.41 650.243,1511.91 650.5,1505.5C 649.349,1501.42 648.682,1497.26 648.5,1493C 648.761,1481.82 649.095,1470.98 649.5,1460.5C 649.097,1457.24 648.43,1454.07 647.5,1451C 648.059,1450.28 648.392,1449.44 648.5,1448.5C 647.483,1436.52 646.649,1424.52 646,1412.5C 644.483,1411.05 644.316,1409.55 645.5,1408C 643.796,1386.11 640.796,1364.45 636.5,1343C 636.833,1342.67 637.167,1342.33 637.5,1342C 635.986,1340.56 635.653,1339.06 636.5,1337.5C 631.192,1310.42 629.192,1283.09 630.5,1255.5C 633.37,1239.11 633.036,1222.77 629.5,1206.5C 628.994,1189.81 626.994,1173.31 623.5,1157C 624.284,1153.69 624.95,1150.36 625.5,1147C 622.474,1129.26 617.307,1112.09 610,1095.5C 607.989,1080.74 605.989,1066.07 604,1051.5C 603.112,1038.18 602.445,1024.84 602,1011.5C 599.376,996.985 597.71,982.318 597,967.5C 595.648,961.088 594.481,954.922 593.5,949C 594.458,947.853 594.125,946.853 592.5,946C 592.833,944.333 593.167,942.667 593.5,941C 590.994,933.481 590.994,925.647 593.5,917.5C 596.161,916.668 598.828,915.834 601.5,915C 603.155,913.556 603.822,911.722 603.5,909.5C 600.561,910.462 597.728,910.795 595,910.5C 593.941,910.37 593.108,909.87 592.5,909C 593.833,908.333 593.833,907.667 592.5,907C 590.865,906.46 589.532,906.96 588.5,908.5C 587.833,907.833 587.167,907.167 586.5,906.5C 584.594,907.578 583.094,908.911 582,910.5C 579.272,910.795 576.439,910.462 573.5,909.5C 573.343,910.873 573.51,912.207 574,913.5C 576.841,915.506 580.008,916.839 583.5,917.5C 584.244,918.991 584.91,920.491 585.5,922C 584.889,926.475 584.889,930.808 585.5,935C 584.833,937 584.167,939 583.5,941C 583.833,942.667 584.167,944.333 584.5,946C 582.875,946.853 582.542,947.853 583.5,949C 581.647,957.492 580.314,966.325 579.5,975.5C 577.943,981.261 577.276,987.261 577.5,993.5C 574.793,1027.24 571.293,1060.91 567,1094.5C 560.92,1109.82 555.92,1125.49 552,1141.5C 551.335,1146.6 551.835,1151.6 553.5,1156.5C 551.122,1169.16 549.456,1182.16 548.5,1195.5C 547.698,1196.95 547.198,1198.62 547,1200.5C 546.5,1206.82 546.334,1213.16 546.5,1219.5C 547.714,1245.11 547.714,1270.27 546.5,1295C 544.99,1309.23 542.99,1323.39 540.5,1337.5C 540.709,1338.09 541.043,1338.59 541.5,1339C 540.12,1340.32 539.786,1341.66 540.5,1343C 535.391,1367.39 532.391,1391.72 531.5,1416C 530.833,1418.33 530.167,1420.67 529.5,1423C 529.501,1432.66 529.501,1441.99 529.5,1451C 528.652,1454.26 527.985,1457.59 527.5,1461C 527.852,1471.31 528.185,1481.98 528.5,1493C 528.318,1497.26 527.651,1501.42 526.5,1505.5C 527.518,1535.65 530.185,1565.98 534.5,1596.5C 534.668,1602.03 535.335,1607.37 536.5,1612.5C 536.9,1623.54 537.234,1634.54 537.5,1645.5C 538.053,1649.9 536.386,1653.06 532.5,1655C 522.309,1654 511.976,1653 501.5,1652C 497.556,1649.45 493.222,1647.95 488.5,1647.5C 487.833,1647.83 487.167,1648.17 486.5,1648.5C 478.056,1645.97 469.389,1644.81 460.5,1645C 459.584,1644.63 458.75,1644.13 458,1643.5C 452.911,1632.44 452.078,1620.94 455.5,1609C 454.42,1590.46 454.42,1571.79 455.5,1553C 453.689,1537.49 452.022,1521.99 450.5,1506.5C 450.667,1504.17 450.833,1501.83 451,1499.5C 453.499,1496 455.332,1492.17 456.5,1488C 456.112,1485.53 456.112,1483.19 456.5,1481C 455.738,1473.93 454.738,1466.93 453.5,1460C 454.634,1458.98 454.301,1458.32 452.5,1458C 453.571,1453.58 453.237,1448.91 451.5,1444C 451.56,1433 451.56,1422.5 451.5,1412.5C 450.076,1404.9 449.076,1397.24 448.5,1389.5C 448.51,1373.38 448.843,1357.21 449.5,1341C 449.513,1334.1 448.846,1327.26 447.5,1320.5C 448.399,1318.29 448.065,1316.13 446.5,1314C 447.833,1311.67 447.833,1309.33 446.5,1307C 447.501,1267.98 449.835,1228.98 453.5,1190C 452.963,1182.92 452.63,1176.42 452.5,1170.5C 454.331,1164.05 453.998,1157.55 451.5,1151C 451.561,1146.61 451.561,1142.27 451.5,1138C 450.201,1132.04 449.201,1126.04 448.5,1120C 448.616,1118.73 448.949,1117.4 449.5,1116C 448.833,1114.33 448.167,1112.67 447.5,1111C 448.174,1109.25 448.507,1107.58 448.5,1106C 446.871,1103.74 446.538,1101.41 447.5,1099C 446.131,1095.95 445.798,1092.95 446.5,1090C 445.667,1082.84 444.834,1075.67 444,1068.5C 443.5,1068 443,1067.5 442.5,1067C 442.944,1065.47 443.277,1063.97 443.5,1062.5C 440.941,1049.47 440.274,1037.31 441.5,1026C 440.833,1021.33 440.167,1016.67 439.5,1012C 440.597,1003.02 440.597,994.021 439.5,985C 440.044,982.6 440.711,980.267 441.5,978C 440.541,964.37 440.207,951.203 440.5,938.5C 441.167,936.167 441.833,933.833 442.5,931.5C 441.922,924.718 441.589,917.885 441.5,911C 442.167,910.333 442.833,909.667 443.5,909C 443.123,902.622 442.79,896.288 442.5,890C 443.289,887.733 443.956,885.4 444.5,883C 444.862,875.732 444.862,868.732 444.5,862C 445.126,861.25 445.626,860.416 446,859.5C 446.355,852.93 447.188,846.43 448.5,840C 448.355,839.228 448.022,838.561 447.5,838C 449.407,830.505 450.907,823.005 452,815.5C 453.497,811.172 454.997,806.838 456.5,802.5C 456.392,801.558 456.059,800.725 455.5,800C 461.449,781.422 466.449,762.589 470.5,743.5C 471.924,741.485 472.59,739.152 472.5,736.5C 472.983,731.902 472.983,727.402 472.5,723C 476.607,704.074 481.107,685.24 486,666.5C 486.553,658.266 487.386,649.933 488.5,641.5C 486.33,631.622 484.996,621.622 484.5,611.5C 482.314,605.075 479.981,598.742 477.5,592.5C 476.481,591.313 475.314,590.313 474,589.5C 473.333,593.5 473.333,597.5 474,601.5C 476.413,605.482 477.747,609.816 478,614.5C 478.667,615.167 479.333,615.833 480,616.5C 481.245,630.711 477.245,643.377 468,654.5C 466.991,656.025 466.491,657.692 466.5,659.5C 464.165,660.413 461.999,661.747 460,663.5C 451.054,676.779 441.721,689.779 432,702.5C 426.949,706.928 422.116,711.595 417.5,716.5C 404.444,735.985 389.111,753.319 371.5,768.5C 355.42,786.08 340.253,804.413 326,823.5C 306.678,839.268 289.178,856.935 273.5,876.5C 268.429,882.508 266.429,889.008 267.5,896C 266.833,897.333 266.167,898.667 265.5,900C 265.962,909.846 263.462,919.346 258,928.5C 257.691,927.234 257.191,926.067 256.5,925C 257.167,922.333 257.833,919.667 258.5,917C 258.517,913.367 258.35,909.533 258,905.5C 256.087,903.813 253.92,903.313 251.5,904C 247.927,916.978 242.094,928.812 234,939.5C 231.071,943.421 227.571,945.421 223.5,945.5C 223.67,944.178 223.337,943.011 222.5,942C 224.595,938.742 225.595,935.409 225.5,932C 227.36,925.649 230.026,919.316 233.5,913C 231.469,907.729 228.635,907.229 225,911.5C 222.955,914.423 220.788,917.257 218.5,920C 218.833,920.333 219.167,920.667 219.5,921C 212.228,934.077 202.395,944.91 190,953.5C 190.141,948.178 191.308,943.011 193.5,938C 199.167,929 204.833,920 210.5,911C 210.054,909.274 209.221,907.774 208,906.5C 197.691,914.749 187.858,923.582 178.5,933C 175.271,935.616 171.604,937.116 167.5,937.5C 167.357,935.738 167.691,934.071 168.5,932.5C 178.863,920.475 189.196,908.475 199.5,896.5C 202.72,892.12 205.72,887.62 208.5,883C 207.576,881.85 207.576,880.85 208.5,880C 207.471,878.302 205.971,877.468 204,877.5C 198.274,879.179 192.44,880.345 186.5,881C 181.96,881.947 177.626,881.447 173.5,879.5C 174.468,874.699 177.135,871.199 181.5,869C 194.832,865.085 207.665,859.918 220,853.5C 228.191,850.361 236.024,845.861 243.5,840C 246.693,840.27 249.693,839.27 252.5,837C 263.015,824.153 273.182,810.986 283,797.5C 297.989,778.385 312.656,758.385 327,737.5C 329.796,736.099 332.463,734.432 335,732.5C 339.719,722.73 344.719,713.063 350,703.5C 357.307,692.235 364.974,681.235 373,670.5C 384.264,652.311 394.264,633.311 403,613.5C 408.976,589.703 417.143,566.369 427.5,543.5C 428.117,543.389 428.617,543.056 429,542.5C 429.758,544.769 429.591,546.936 428.5,549C 431.151,551.98 434.151,554.647 437.5,557C 437.167,557.333 436.833,557.667 436.5,558C 439.139,559.946 442.139,560.946 445.5,561C 445.167,561.333 444.833,561.667 444.5,562C 445.416,562.374 446.25,562.874 447,563.5C 452.241,562.723 457.075,560.39 461.5,556.5C 469.935,545.251 475.268,533.085 477.5,520C 477.043,516.581 477.043,513.248 477.5,510C 476.505,505.512 474.339,501.678 471,498.5C 468.497,499.238 466.663,498.238 465.5,495.5C 475.604,489.95 486.271,485.783 497.5,483C 497.167,482.667 496.833,482.333 496.5,482C 508.558,475.545 521.058,470.711 534,467.5C 539.264,465.08 544.431,462.414 549.5,459.5C 550.426,462.044 551.426,464.544 552.5,467C 554.107,466.981 555.774,466.815 557.5,466.5C 557.245,456.562 555.578,446.896 552.5,437.5C 552.47,436.503 552.97,435.836 554,435.5C 558.154,438.052 562.654,439.719 567.5,440.5C 568.167,440.5 568.833,440.5 569.5,440.5C 569.414,441.496 569.748,442.329 570.5,443C 577.504,444.558 584.504,445.558 591.5,446C 592.056,445.617 592.389,445.117 592.5,444.5C 600.722,445.133 608.056,443.133 614.5,438.5C 618.015,436.73 621.682,435.064 625.5,433.5C 625.833,434 626.167,434.5 626.5,435C 620.913,445.929 619.08,457.429 621,469.5C 621.333,468.5 621.667,467.5 622,466.5C 623,467.833 624,467.833 625,466.5C 625.681,464.105 626.515,461.772 627.5,459.5C 630.213,460.905 632.879,462.405 635.5,464C 651.115,468.92 666.115,475.087 680.5,482.5C 680.291,483.086 679.957,483.586 679.5,484C 684.054,484.962 688.554,486.129 693,487.5C 698.567,490.851 704.401,493.518 710.5,495.5 Z"/></g>
<g><path style="opacity:1" fill="#e9b5a3" d="M 629.5,1206.5 C 633.036,1222.77 633.37,1239.11 630.5,1255.5C 630.877,1248.34 631.21,1241.17 631.5,1234C 630.515,1224.87 629.848,1215.7 629.5,1206.5 Z"/></g>
<g><path style="opacity:1" fill="#d49d8d" d="M 548.5,1195.5 C 548.298,1203.69 547.631,1211.69 546.5,1219.5C 546.334,1213.16 546.5,1206.82 547,1200.5C 547.198,1198.62 547.698,1196.95 548.5,1195.5 Z"/></g>
<g><path style="opacity:1" fill="#ffddc0" d="M 683.5,1171.5 C 688.158,1172.06 692.825,1172.72 697.5,1173.5C 698.648,1175.15 699.981,1176.65 701.5,1178C 700.712,1181.08 700.212,1184.24 700,1187.5C 696.206,1187.96 693.539,1189.96 692,1193.5C 690.467,1193.06 688.967,1192.72 687.5,1192.5C 685.167,1195.11 682.667,1196.77 680,1197.5C 676.536,1197.63 673.203,1197.29 670,1196.5C 669.333,1197.17 668.667,1197.83 668,1198.5C 666.333,1197.83 664.667,1197.17 663,1196.5C 662.374,1198.99 661.541,1198.99 660.5,1196.5C 659.808,1197.03 659.308,1197.69 659,1198.5C 654.583,1196.04 650.417,1193.21 646.5,1190C 649.658,1188.53 652.991,1187.53 656.5,1187C 655.853,1185.01 654.187,1183.34 651.5,1182C 652.651,1179.88 654.151,1178.05 656,1176.5C 656.333,1176.83 656.667,1177.17 657,1177.5C 660.875,1174.76 665.042,1173.76 669.5,1174.5C 674.376,1173.86 679.042,1172.86 683.5,1171.5 Z"/></g>
<g><path style="opacity:1" fill="#ffddbf" d="M 487.5,1171.5 C 494.495,1172.39 501.662,1173.39 509,1174.5C 509.772,1174.36 510.439,1174.02 511,1173.5C 514.682,1175.09 518.515,1176.25 522.5,1177C 523.184,1178.69 524.184,1180.19 525.5,1181.5C 524.395,1182.89 523.061,1184.06 521.5,1185C 522.833,1185.67 522.833,1186.33 521.5,1187C 524.44,1188.15 527.44,1189.15 530.5,1190C 526.451,1193.01 522.284,1195.85 518,1198.5C 517,1195.83 516,1195.83 515,1198.5C 514.667,1197.83 514.333,1197.17 514,1196.5C 512.333,1197.17 510.667,1197.83 509,1198.5C 508.333,1197.83 507.667,1197.17 507,1196.5C 503.797,1197.29 500.464,1197.63 497,1197.5C 494.333,1196.77 491.833,1195.11 489.5,1192.5C 488.033,1192.72 486.533,1193.06 485,1193.5C 483.461,1189.96 480.794,1187.96 477,1187.5C 473.63,1177.99 477.13,1172.66 487.5,1171.5 Z"/></g>
<g><path style="opacity:1" fill="#bb847a" d="M 579.5,975.5 C 579.348,981.699 578.682,987.699 577.5,993.5C 577.276,987.261 577.943,981.261 579.5,975.5 Z"/></g>
<g><path style="opacity:1" fill="#ffdcbf" d="M 586.5,786.5 C 596.752,787.642 600.585,793.309 598,803.5C 596.954,805.09 595.787,806.59 594.5,808C 595.167,808.333 595.833,808.667 596.5,809C 594.351,810.152 592.518,811.652 591,813.5C 589.333,813.5 587.667,813.5 586,813.5C 584.482,811.652 582.649,810.152 580.5,809C 581.167,808.667 581.833,808.333 582.5,808C 578.695,803.909 577.528,799.076 579,793.5C 580.767,790.228 583.267,787.895 586.5,786.5 Z"/></g>
<g><path style="opacity:1" fill="#b3786d" d="M 472.5,736.5 C 472.59,739.152 471.924,741.485 470.5,743.5C 470.171,740.772 470.837,738.438 472.5,736.5 Z"/></g>
<g><path style="opacity:1" fill="#ffdcbf" d="M 818.5,718.5 C 820.01,719.728 821.51,719.728 823,718.5C 825.888,719.091 828.554,720.091 831,721.5C 834.538,727.783 835.704,734.117 834.5,740.5C 833.127,740.343 831.793,740.51 830.5,741C 828.965,743.139 827.299,745.139 825.5,747C 826.34,748.666 825.84,748.833 824,747.5C 822.738,749.303 821.071,750.636 819,751.5C 818.667,751.167 818.333,750.833 818,750.5C 816.956,751.623 816.29,752.956 816,754.5C 814.644,753.62 813.144,753.286 811.5,753.5C 811.649,754.552 811.483,755.552 811,756.5C 808.174,753.352 805.841,753.352 804,756.5C 803.316,755.216 803.483,754.049 804.5,753C 803.552,752.517 802.552,752.351 801.5,752.5C 800.858,749.086 799.191,746.253 796.5,744C 796.981,741.293 797.648,738.293 798.5,735C 798.355,734.228 798.022,733.561 797.5,733C 799.377,731.815 801.377,730.815 803.5,730C 805.394,728.899 806.061,727.566 805.5,726C 809.996,723.43 814.33,720.93 818.5,718.5 Z"/></g>
<g><path style="opacity:1" fill="#ffdcbf" d="M 353.5,718.5 C 359.746,719.449 365.746,721.949 371.5,726C 370.939,727.566 371.606,728.899 373.5,730C 375.351,730.837 377.184,731.671 379,732.5C 379.023,736.56 379.523,740.394 380.5,744C 377.809,746.253 376.142,749.086 375.5,752.5C 374.448,752.351 373.448,752.517 372.5,753C 373.517,754.049 373.684,755.216 373,756.5C 371.159,753.352 368.826,753.352 366,756.5C 365.517,755.552 365.351,754.552 365.5,753.5C 363.856,753.286 362.356,753.62 361,754.5C 360.71,752.956 360.044,751.623 359,750.5C 358.667,750.833 358.333,751.167 358,751.5C 355.929,750.636 354.262,749.303 353,747.5C 351.16,748.833 350.66,748.666 351.5,747C 349.701,745.139 348.035,743.139 346.5,741C 345.207,740.51 343.873,740.343 342.5,740.5C 341.269,733.584 342.769,726.918 347,720.5C 348.43,720.306 349.93,720.306 351.5,720.5C 352.522,720.145 353.189,719.478 353.5,718.5 Z"/></g>
<g><path style="opacity:0.725" fill="#cb9a83" d="M 738.5,702.5 C 740.759,703.344 741.759,705.011 741.5,707.5C 740.11,706.101 739.11,704.434 738.5,702.5 Z"/></g>
<g><path style="opacity:0.994" fill="#793835" d="M 739.5,695.5 C 741.975,697.77 743.975,700.437 745.5,703.5C 744.716,705.029 743.716,706.696 742.5,708.5C 741.833,708.5 741.5,708.167 741.5,707.5C 741.759,705.011 740.759,703.344 738.5,702.5C 736.738,701.738 735.738,700.404 735.5,698.5C 735.435,698.062 735.601,697.728 736,697.5C 738.351,700.043 739.517,699.377 739.5,695.5 Z"/></g>
<g><path style="opacity:0.812" fill="#652323" d="M 615.5,501.5 C 618.545,501.704 621.379,501.704 624,501.5C 625.824,502.749 625.657,503.915 623.5,505C 617.965,506.808 612.798,508.642 608,510.5C 600.837,510.083 600.003,507.916 605.5,504C 608.991,503.262 612.325,502.429 615.5,501.5 Z"/></g>
<g><path style="opacity:0.841" fill="#642323" d="M 554.5,501.5 C 560.257,501.682 565.924,502.515 571.5,504C 576.997,507.916 576.163,510.083 569,510.5C 567.561,508.986 566.061,508.653 564.5,509.5C 560.416,508.08 556.416,506.413 552.5,504.5C 552.167,504.167 551.833,503.833 551.5,503.5C 552.602,502.824 553.602,502.158 554.5,501.5 Z"/></g>
<g><path style="opacity:1" fill="#e0aa98" d="M 569.5,440.5 C 576.884,443.128 584.551,444.461 592.5,444.5C 592.389,445.117 592.056,445.617 591.5,446C 584.504,445.558 577.504,444.558 570.5,443C 569.748,442.329 569.414,441.496 569.5,440.5 Z"/></g>
<g><path style="opacity:1" fill="#e1a997" d="M 614.5,438.5 C 608.056,443.133 600.722,445.133 592.5,444.5C 600.033,443.391 607.366,441.391 614.5,438.5 Z"/></g>
<g><path style="opacity:1" fill="#ce9382" d="M 567.5,440.5 C 562.654,439.719 558.154,438.052 554,435.5C 552.97,435.836 552.47,436.503 552.5,437.5C 551.596,436.791 551.263,435.791 551.5,434.5C 553.199,434.34 554.866,434.506 556.5,435C 560.402,436.565 564.069,438.398 567.5,440.5 Z"/></g>
<g><path style="opacity:0.886" fill="#652626" d="M 475.5,323.5 C 473.654,323.222 472.32,323.889 471.5,325.5C 474.001,327.376 476.668,328.709 479.5,329.5C 475.5,328.148 471.5,327.481 467.5,327.5C 463.63,327.584 459.963,328.917 456.5,331.5C 455.305,328.027 456.305,325.194 459.5,323C 463.173,321.703 466.673,320.87 470,320.5C 471.876,321.609 473.709,322.609 475.5,323.5 Z"/></g>
<g><path style="opacity:1" fill="#fce4cf" d="M 702.5,311.5 C 706.887,311.429 711.22,311.596 715.5,312C 724.447,316.7 729.28,324.2 730,334.5C 731.225,352.529 723.392,365.029 706.5,372C 702.142,372.788 697.809,373.622 693.5,374.5C 690.992,372.728 689.992,370.228 690.5,367C 690.667,365.167 690.833,363.333 691,361.5C 693.16,359.097 694.66,356.263 695.5,353C 694.681,347.867 694.681,342.7 695.5,337.5C 698.458,338.356 701.458,338.523 704.5,338C 706.099,339.066 707.099,340.566 707.5,342.5C 707.934,345.475 707.434,348.475 706,351.5C 703.217,352.928 700.383,354.262 697.5,355.5C 698.855,358.76 701.355,360.427 705,360.5C 706.512,359.743 707.846,358.743 709,357.5C 709.333,357.833 709.667,358.167 710,358.5C 715.578,350.911 715.912,342.911 711,334.5C 706.841,329.553 702.507,329.553 698,334.5C 697.506,332.866 697.34,331.199 697.5,329.5C 700.29,329.778 702.79,329.111 705,327.5C 708.116,326.874 711.116,327.541 714,329.5C 714.333,329.167 714.667,328.833 715,328.5C 717.302,331.057 719.469,331.39 721.5,329.5C 719.867,323.774 716.033,320.774 710,320.5C 707.041,320.77 704.041,321.77 701,323.5C 701.162,319.499 701.662,315.499 702.5,311.5 Z"/></g>
<g><path style="opacity:1" fill="#fde5d0" d="M 475.5,323.5 C 473.709,322.609 471.876,321.609 470,320.5C 466.673,320.87 463.173,321.703 459.5,323C 456.305,325.194 455.305,328.027 456.5,331.5C 459.963,328.917 463.63,327.584 467.5,327.5C 471.5,327.481 475.5,328.148 479.5,329.5C 479.66,331.199 479.494,332.866 479,334.5C 474.534,329.619 470.201,329.619 466,334.5C 461.088,342.911 461.422,350.911 467,358.5C 467.333,358.167 467.667,357.833 468,357.5C 470.612,360.666 473.779,361.166 477.5,359C 478.293,357.915 478.96,356.748 479.5,355.5C 476.617,354.262 473.783,352.928 471,351.5C 469.566,348.475 469.066,345.475 469.5,342.5C 469.901,340.566 470.901,339.066 472.5,338C 475.542,338.523 478.542,338.356 481.5,337.5C 482.319,342.7 482.319,347.867 481.5,353C 485.17,359.019 486.67,365.519 486,372.5C 473.263,374.911 462.596,370.911 454,360.5C 444.742,347.468 444.076,333.802 452,319.5C 454.424,316.051 457.591,313.551 461.5,312C 465.495,311.857 469.495,312.024 473.5,312.5C 474.759,315.366 475.759,318.366 476.5,321.5C 476.457,322.416 476.124,323.083 475.5,323.5 Z"/></g>
<g><path style="opacity:1" fill="#d89d8b" d="M 690.5,221.5 C 693.821,227.668 696.154,234.335 697.5,241.5C 696.883,241.389 696.383,241.056 696,240.5C 694.473,233.998 692.639,227.664 690.5,221.5 Z"/></g>
<g><path style="opacity:1" fill="#d69b8a" d="M 496.5,202.5 C 487.535,218.059 481.535,234.726 478.5,252.5C 478.833,243.988 480.333,235.654 483,227.5C 485.544,220.64 488.544,213.974 492,207.5C 493.366,205.638 494.866,203.972 496.5,202.5 Z"/></g>
<g><path style="opacity:1" fill="#fee8d3" d="M 605.5,152.5 C 614.644,153.771 623.31,156.438 631.5,160.5C 642.2,167.18 652.533,174.346 662.5,182C 663.337,183.011 663.67,184.178 663.5,185.5C 664.552,185.351 665.552,185.517 666.5,186C 677.545,195.86 685.545,207.693 690.5,221.5C 692.639,227.664 694.473,233.998 696,240.5C 696.383,241.056 696.883,241.389 697.5,241.5C 700.112,263.513 699.612,285.513 696,307.5C 693.556,315.719 690.556,323.719 687,331.5C 687.579,346.605 684.579,360.938 678,374.5C 668.597,391.237 655.763,404.737 639.5,415C 626.28,423.277 612.28,429.943 597.5,435C 593.863,435.717 590.196,436.217 586.5,436.5C 558.046,429.358 533.546,415.358 513,394.5C 504.016,384.203 497.349,372.536 493,359.5C 491.043,350.279 490.043,340.945 490,331.5C 480.133,310.277 475.966,287.944 477.5,264.5C 477.501,260.319 477.834,256.319 478.5,252.5C 481.535,234.726 487.535,218.059 496.5,202.5C 501.654,195.099 507.654,188.265 514.5,182C 519.642,178.358 524.642,174.525 529.5,170.5C 535.543,167.626 541.21,164.126 546.5,160C 554.124,156.404 562.124,153.904 570.5,152.5C 576.612,152.732 582.612,152.066 588.5,150.5C 594.165,151.25 599.832,151.917 605.5,152.5 Z"/></g>
<g><path style="opacity:1" fill="#cd9181" d="M 605.5,152.5 C 599.832,151.917 594.165,151.25 588.5,150.5C 582.612,152.066 576.612,152.732 570.5,152.5C 582.177,148.565 593.843,148.565 605.5,152.5 Z"/></g>
<g><path style="opacity:1" fill="#b2746a" d="M 534.5,1596.5 C 536.078,1601.58 536.745,1606.92 536.5,1612.5C 535.335,1607.37 534.668,1602.03 534.5,1596.5 Z"/></g>
</svg>
