<?xml version="1.0" encoding="UTF-8"?>
<!DOCTYPE svg PUBLIC "-//W3C//DTD SVG 1.1//EN" "http://www.w3.org/Graphics/SVG/1.1/DTD/svg11.dtd">
<svg xmlns="http://www.w3.org/2000/svg" version="1.1" width="1216px" height="1749px" style="shape-rendering:geometricPrecision; text-rendering:geometricPrecision; image-rendering:optimizeQuality; fill-rule:evenodd; clip-rule:evenodd" xmlns:xlink="http://www.w3.org/1999/xlink">
<g><path style="opacity:0.923" fill="#0e0101" d="M 1008.5,945.5 C 1008.17,944.167 1007.83,944.167 1007.5,945.5C 1006.6,944.402 1005.77,944.402 1005,945.5C 1004.15,943.875 1003.15,943.542 1002,944.5C 999.342,942.044 996.675,940.377 994,939.5C 993.085,938.672 992.419,937.672 992,936.5C 993.452,941.797 994.619,946.964 995.5,952C 994.632,954.235 993.632,956.402 992.5,958.5C 990.566,958.901 989.066,959.901 988,961.5C 984.089,960.421 980.589,958.588 977.5,956C 972.641,951.472 967.807,946.972 963,942.5C 962.272,947.564 959.605,951.23 955,953.5C 952.333,953.5 949.667,953.5 947,953.5C 938.638,947.679 932.305,940.679 928,932.5C 925.659,934.502 923.325,936.502 921,938.5C 914.521,936.693 909.854,932.693 907,926.5C 906,923.833 905,921.167 904,918.5C 902.105,908.189 900.938,898.023 900.5,888C 899.283,886.352 898.45,884.519 898,882.5C 890.371,875.194 883.371,867.194 877,858.5C 854.013,840.54 834.679,819.873 819,796.5C 817.667,795.833 816.333,795.167 815,794.5C 807.621,786.123 800.621,777.456 794,768.5C 793.667,768.833 793.333,769.167 793,769.5C 784.464,760.825 776.131,751.825 768,742.5C 760.692,730.191 752.192,718.857 742.5,708.5C 743.716,706.696 744.716,705.029 745.5,703.5C 746.871,705.17 748.371,705.836 750,705.5C 760.299,716.773 769.632,728.773 778,741.5C 804.741,766.581 829.075,793.915 851,823.5C 870.365,839.277 887.865,856.943 903.5,876.5C 908.571,882.508 910.571,889.008 909.5,896C 910.763,897.705 911.097,899.372 910.5,901C 911.247,910.823 914.08,919.99 919,928.5C 919.309,927.234 919.809,926.067 920.5,925C 919.833,922.333 919.167,919.667 918.5,917C 918.483,913.367 918.65,909.533 919,905.5C 920.913,903.813 923.08,903.313 925.5,904C 930.11,919.727 937.944,933.56 949,945.5C 950.299,945.034 951.799,945.034 953.5,945.5C 953.33,944.178 953.663,943.011 954.5,942C 952.405,938.742 951.405,935.409 951.5,932C 949.64,925.649 946.974,919.316 943.5,913C 945.531,907.729 948.365,907.229 952,911.5C 954.045,914.423 956.212,917.257 958.5,920C 958.167,920.333 957.833,920.667 957.5,921C 964.772,934.077 974.605,944.91 987,953.5C 987.037,948.135 985.871,942.968 983.5,938C 977.833,929 972.167,920 966.5,911C 966.946,909.274 967.779,907.774 969,906.5C 979.309,914.749 989.142,923.582 998.5,933C 1001.73,935.616 1005.4,937.116 1009.5,937.5C 1009.64,935.738 1009.31,934.071 1008.5,932.5C 995.224,918.049 982.558,903.216 970.5,888C 970.833,887.667 971.167,887.333 971.5,887C 967.11,882.74 967.61,879.24 973,876.5C 981.769,880.23 990.936,881.73 1000.5,881C 1001.62,880.751 1002.62,880.251 1003.5,879.5C 1002.53,874.699 999.865,871.199 995.5,869C 981.032,864.396 967.365,858.896 954.5,852.5C 946.54,849.857 939.54,845.691 933.5,840C 928.126,839.554 923.626,837.054 920,832.5C 896.6,801.581 873.267,769.915 850,737.5C 847.204,736.099 844.537,734.432 842,732.5C 839.806,728.251 837.806,723.918 836,719.5C 831.511,712.333 826.844,705.333 822,698.5C 820.659,695.978 819.826,693.311 819.5,690.5C 818.5,690.5 817.5,690.5 816.5,690.5C 816.509,688.692 816.009,687.025 815,685.5C 807.02,673.689 799.186,661.856 791.5,650C 778.693,627.434 769.359,603.767 763.5,579C 760.525,573.955 758.692,568.455 758,562.5C 754.522,556.044 751.689,549.711 749.5,543.5C 750.172,540.092 749.172,537.425 746.5,535.5C 739.29,523.925 730.957,512.592 721.5,501.5C 717.961,499.564 714.295,497.898 710.5,496.5C 702.468,491.7 693.802,488.033 684.5,485.5C 683.467,483.915 682.134,482.581 680.5,481.5C 665.855,475.003 650.855,469.169 635.5,464C 632.879,462.405 630.213,460.905 627.5,459.5C 626.515,461.772 625.681,464.105 625,466.5C 624,467.833 623,467.833 622,466.5C 621.667,467.5 621.333,468.5 621,469.5C 619.543,465.259 619.209,460.926 620,456.5C 620.981,449.556 622.814,442.89 625.5,436.5C 626.404,435.791 626.737,434.791 626.5,433.5C 622.235,434.691 618.235,436.358 614.5,438.5C 610.723,438.443 607.389,439.61 604.5,442C 592.606,445.551 580.939,445.051 569.5,440.5C 568.833,440.5 568.167,440.5 567.5,440.5C 564.069,438.398 560.402,436.565 556.5,435C 554.866,434.506 553.199,434.34 551.5,434.5C 551.263,435.791 551.596,436.791 552.5,437.5C 555.578,446.896 557.245,456.562 557.5,466.5C 555.774,466.815 554.107,466.981 552.5,467C 551.426,464.544 550.426,462.044 549.5,459.5C 544.431,462.414 539.264,465.08 534,467.5C 533.667,467.167 533.333,466.833 533,466.5C 521.252,470.907 509.752,475.574 498.5,480.5C 495.311,484.095 491.311,486.095 486.5,486.5C 479.323,488.99 472.323,491.99 465.5,495.5C 460.978,498.016 456.478,500.682 452,503.5C 445.924,512.641 439.591,521.641 433,530.5C 432.517,531.448 432.351,532.448 432.5,533.5C 430.058,533.119 429.391,533.786 430.5,535.5C 427.828,537.425 426.828,540.092 427.5,543.5C 417.131,566.446 408.964,589.779 403,613.5C 395.709,631.788 386.376,648.788 375,664.5C 374.338,666.813 373.838,669.146 373.5,671.5C 372.5,671.5 371.5,671.5 370.5,671.5C 370.509,673.308 370.009,674.975 369,676.5C 355.763,693.861 344.43,712.528 335,732.5C 332.463,734.432 329.796,736.099 327,737.5C 303.733,769.915 280.4,801.581 257,832.5C 253.374,837.054 248.874,839.554 243.5,840C 236.292,846.332 228.459,850.832 220,853.5C 207.665,859.918 194.832,865.085 181.5,869C 177.135,871.199 174.468,874.699 173.5,879.5C 174.376,880.251 175.376,880.751 176.5,881C 186.064,881.73 195.231,880.23 204,876.5C 207.375,877.798 208.875,879.965 208.5,883C 205.72,887.62 202.72,892.12 199.5,896.5C 189.196,908.475 178.863,920.475 168.5,932.5C 167.691,934.071 167.357,935.738 167.5,937.5C 171.604,937.116 175.271,935.616 178.5,933C 187.858,923.582 197.691,914.749 208,906.5C 209.221,907.774 210.054,909.274 210.5,911C 204.833,920 199.167,929 193.5,938C 191.308,943.011 190.141,948.178 190,953.5C 202.395,944.91 212.228,934.077 219.5,921C 219.167,920.667 218.833,920.333 218.5,920C 220.788,917.257 222.955,914.423 225,911.5C 228.635,907.229 231.469,907.729 233.5,913C 230.026,919.316 227.36,925.649 225.5,932C 225.595,935.409 224.595,938.742 222.5,942C 223.337,943.011 223.67,944.178 223.5,945.5C 227.571,945.421 231.071,943.421 234,939.5C 242.094,928.812 247.927,916.978 251.5,904C 253.92,903.313 256.087,903.813 258,905.5C 258.35,909.533 258.517,913.367 258.5,917C 257.833,919.667 257.167,922.333 256.5,925C 257.191,926.067 257.691,927.234 258,928.5C 263.435,919.586 265.935,910.086 265.5,900C 266.167,898.667 266.833,897.333 267.5,896C 266.429,889.008 268.429,882.508 273.5,876.5C 289.135,856.943 306.635,839.277 326,823.5C 347.576,794.096 371.743,767.096 398.5,742.5C 407.8,727.601 418.966,714.268 432,702.5C 441.346,689.491 450.679,676.491 460,663.5C 470.399,653.696 477.066,641.696 480,627.5C 480.667,623.833 480.667,620.167 480,616.5C 479.333,615.833 478.667,615.167 478,614.5C 475.706,607.299 473.873,599.966 472.5,592.5C 472.556,591.263 473.056,590.263 474,589.5C 475.955,590.453 477.622,591.787 479,593.5C 480.217,599.703 482.05,605.703 484.5,611.5C 485.216,622.99 486.549,634.157 488.5,645C 487.951,655.485 486.451,665.985 484,676.5C 480.006,691.963 476.173,707.463 472.5,723C 472.983,727.402 472.983,731.902 472.5,736.5C 470.837,738.438 470.171,740.772 470.5,743.5C 470.5,743.833 470.5,744.167 470.5,744.5C 469.888,750.225 468.555,755.892 466.5,761.5C 466.5,761.833 466.5,762.167 466.5,762.5C 465.076,764.515 464.41,766.848 464.5,769.5C 462.04,779.842 459.04,790.009 455.5,800C 456.167,801 456.833,802 457.5,803C 452.696,810.856 450.363,819.189 450.5,828C 448.758,832.011 448.091,836.011 448.5,840C 447.139,845.751 446.472,851.585 446.5,857.5C 444.899,858.519 443.899,860.019 443.5,862C 443.592,864.931 443.926,867.764 444.5,870.5C 443.869,875.04 443.869,879.207 444.5,883C 443.892,885.553 443.225,888.053 442.5,890.5C 441.944,897.347 441.277,904.18 440.5,911C 441.266,912.368 441.6,913.535 441.5,914.5C 441.174,935.493 441.174,956.659 441.5,978C 440.711,980.267 440.044,982.6 439.5,985C 440.597,994.021 440.597,1003.02 439.5,1012C 440.167,1016.67 440.833,1021.33 441.5,1026C 441.584,1031.42 441.251,1036.58 440.5,1041.5C 441.392,1047.71 442.392,1053.88 443.5,1060C 443.167,1062.33 442.833,1064.67 442.5,1067C 443,1067.5 443.5,1068 444,1068.5C 444.618,1074.41 445.452,1080.25 446.5,1086C 445.519,1090.35 445.853,1094.68 447.5,1099C 446.538,1101.41 446.871,1103.74 448.5,1106C 448.507,1107.58 448.174,1109.25 447.5,1111C 448.167,1112.67 448.833,1114.33 449.5,1116C 448.949,1117.4 448.616,1118.73 448.5,1120C 449.201,1126.04 450.201,1132.04 451.5,1138C 451.561,1142.27 451.561,1146.61 451.5,1151C 453.998,1157.55 454.331,1164.05 452.5,1170.5C 452.216,1177.57 452.549,1185.24 453.5,1193.5C 450.428,1231.35 448.095,1269.18 446.5,1307C 447.711,1318.09 448.711,1329.42 449.5,1341C 448.978,1349.14 448.644,1357.31 448.5,1365.5C 449.019,1390.1 450.352,1414.27 452.5,1438C 451.437,1442.35 451.77,1446.68 453.5,1451C 453.167,1453.33 452.833,1455.67 452.5,1458C 454.301,1458.32 454.634,1458.98 453.5,1460C 454.738,1466.93 455.738,1473.93 456.5,1481C 456.112,1483.19 456.112,1485.53 456.5,1488C 455.316,1492.2 453.483,1496.03 451,1499.5C 450.833,1501.83 450.667,1504.17 450.5,1506.5C 452.034,1521.98 453.7,1537.48 455.5,1553C 454.42,1571.79 454.42,1590.46 455.5,1609C 452.918,1618.99 453.085,1629.15 456,1639.5C 456.804,1641.94 458.304,1643.78 460.5,1645C 469.389,1644.81 478.056,1645.97 486.5,1648.5C 487.167,1648.17 487.833,1647.83 488.5,1647.5C 495.801,1650.19 502.968,1652.19 510,1653.5C 510.873,1653.26 511.707,1652.93 512.5,1652.5C 519.286,1653.34 525.953,1654.17 532.5,1655C 536.386,1653.06 538.053,1649.9 537.5,1645.5C 537.43,1638.22 537.43,1630.89 537.5,1623.5C 537.218,1620.87 536.551,1618.37 535.5,1616C 536.337,1614.99 536.67,1613.82 536.5,1612.5C 536.745,1606.92 536.078,1601.58 534.5,1596.5C 530.185,1565.98 527.518,1535.64 526.5,1505.5C 527.651,1501.42 528.318,1497.26 528.5,1493C 527.908,1482.26 527.575,1471.6 527.5,1461C 528.721,1449.35 529.721,1437.68 530.5,1426C 530.415,1424.89 530.081,1423.89 529.5,1423C 529.978,1418.53 530.978,1414.2 532.5,1410C 531.903,1408.94 531.57,1407.77 531.5,1406.5C 532.199,1400.52 532.699,1394.52 533,1388.5C 537.298,1362.32 541.298,1336.65 545,1311.5C 545.079,1297.4 545.913,1283.4 547.5,1269.5C 546.607,1264.28 546.273,1259.62 546.5,1255.5C 546.611,1240.49 546.945,1225.49 547.5,1210.5C 547.179,1205.31 547.513,1200.31 548.5,1195.5C 550.26,1188.07 551.26,1180.4 551.5,1172.5C 550.294,1170.56 550.627,1168.9 552.5,1167.5C 554.493,1162.58 554.826,1157.58 553.5,1152.5C 551.631,1150.36 550.964,1147.7 551.5,1144.5C 551.629,1142.78 551.962,1141.12 552.5,1139.5C 554.203,1135.38 555.537,1131.05 556.5,1126.5C 559.148,1115.54 562.648,1104.87 567,1094.5C 571.106,1060.89 574.606,1027.23 577.5,993.5C 578.946,987.726 579.612,981.726 579.5,975.5C 580.191,966.607 581.525,957.94 583.5,949.5C 584.341,950.009 584.841,949.343 585,947.5C 585.44,942.327 585.94,937.161 586.5,932C 586.511,928.884 585.845,926.051 584.5,923.5C 584.799,921.396 584.466,919.396 583.5,917.5C 580.839,916.668 578.172,915.834 575.5,915C 573.845,913.556 573.178,911.722 573.5,909.5C 576.439,910.462 579.272,910.795 582,910.5C 583.094,908.911 584.594,907.578 586.5,906.5C 587.167,907.167 587.833,907.833 588.5,908.5C 589.532,906.96 590.865,906.46 592.5,907C 593.833,907.667 593.833,908.333 592.5,909C 593.108,909.87 593.941,910.37 595,910.5C 597.728,910.795 600.561,910.462 603.5,909.5C 603.822,911.722 603.155,913.556 601.5,915C 598.828,915.834 596.161,916.668 593.5,917.5C 591.156,925.698 591.156,933.531 593.5,941C 593.167,942.667 592.833,944.333 592.5,946C 594.125,946.853 594.458,947.853 593.5,949C 594.227,951.124 594.894,953.291 595.5,955.5C 595.162,957.655 595.162,959.989 595.5,962.5C 596.083,969.821 596.583,977.154 597,984.5C 597.232,985.737 597.732,986.737 598.5,987.5C 599.861,995.424 601.028,1003.42 602,1011.5C 603.271,1040.69 606.271,1069.69 611,1098.5C 614.132,1105.75 616.966,1113.08 619.5,1120.5C 619.338,1122.53 619.505,1124.53 620,1126.5C 620.383,1127.06 620.883,1127.39 621.5,1127.5C 622.828,1133.07 624.162,1138.74 625.5,1144.5C 625.241,1149.04 624.574,1153.54 623.5,1158C 623.506,1160.03 623.839,1161.87 624.5,1163.5C 625.903,1168.95 627.237,1174.45 628.5,1180C 628.011,1181.14 627.678,1182.31 627.5,1183.5C 627.094,1191.08 627.761,1198.41 629.5,1205.5C 630.441,1210.07 630.774,1214.74 630.5,1219.5C 630.339,1235.17 630.006,1250.84 629.5,1266.5C 630.729,1279.8 631.562,1293.14 632,1306.5C 635.289,1333.38 639.289,1360.72 644,1388.5C 644.224,1395.04 644.724,1401.54 645.5,1408C 645.355,1408.77 645.022,1409.44 644.5,1410C 646.022,1414.2 647.022,1418.53 647.5,1423C 647.464,1432.34 647.464,1441.68 647.5,1451C 648.43,1454.07 649.097,1457.24 649.5,1460.5C 649.279,1471.28 648.946,1482.12 648.5,1493C 648.682,1497.26 649.349,1501.42 650.5,1505.5C 650.162,1512.86 650.162,1520.03 650.5,1527C 649.833,1529.67 649.167,1532.33 648.5,1535C 648.833,1535.33 649.167,1535.67 649.5,1536C 647.019,1561.76 644.019,1587.76 640.5,1614C 640.645,1614.77 640.978,1615.44 641.5,1616C 640.449,1618.37 639.782,1620.87 639.5,1623.5C 639.706,1632.55 639.872,1641.55 640,1650.5C 640.93,1652.55 642.43,1654.05 644.5,1655C 651.047,1654.17 657.714,1653.34 664.5,1652.5C 665.293,1652.93 666.127,1653.26 667,1653.5C 674.032,1652.19 681.199,1650.19 688.5,1647.5C 691.843,1648.01 695.176,1647.51 698.5,1646C 704.5,1645.67 710.5,1645.33 716.5,1645C 718.696,1643.78 720.196,1641.94 721,1639.5C 723.915,1629.15 724.082,1618.99 721.5,1609C 722.632,1590.43 722.632,1571.77 721.5,1553C 723.311,1537.49 724.978,1521.99 726.5,1506.5C 726.333,1504.17 726.167,1501.83 726,1499.5C 723.517,1496.03 721.684,1492.2 720.5,1488C 720.888,1485.53 720.888,1483.19 720.5,1481C 721.262,1473.93 722.262,1466.93 723.5,1460C 723.043,1459.59 722.709,1459.09 722.5,1458.5C 724.396,1456.12 724.729,1453.62 723.5,1451C 725.23,1446.68 725.563,1442.35 724.5,1438C 726.648,1414.27 727.981,1390.1 728.5,1365.5C 728.356,1357.31 728.022,1349.14 727.5,1341C 727.423,1334.61 728.089,1328.44 729.5,1322.5C 729.633,1320.1 729.633,1317.77 729.5,1315.5C 729.533,1312.71 729.867,1309.88 730.5,1307C 729.229,1282.22 727.895,1257.38 726.5,1232.5C 726.084,1227.51 725.751,1222.51 725.5,1217.5C 724.699,1208.07 724.032,1198.57 723.5,1189C 723.905,1182.26 724.239,1176.09 724.5,1170.5C 722.669,1164.05 723.002,1157.55 725.5,1151C 725.439,1146.61 725.439,1142.27 725.5,1138C 726.799,1132.04 727.799,1126.04 728.5,1120C 728.384,1118.73 728.051,1117.4 727.5,1116C 728.167,1114.33 728.833,1112.67 729.5,1111C 728.826,1109.25 728.493,1107.58 728.5,1106C 729.167,1105 729.833,1104 730.5,1103C 730.813,1097.37 730.813,1091.71 730.5,1086C 731.548,1080.25 732.382,1074.41 733,1068.5C 733.5,1068 734,1067.5 734.5,1067C 734.167,1064.67 733.833,1062.33 733.5,1060C 734.608,1053.88 735.608,1047.71 736.5,1041.5C 736.047,1036.29 735.714,1031.13 735.5,1026C 736.167,1021.33 736.833,1016.67 737.5,1012C 736.403,1003.02 736.403,994.021 737.5,985C 736.866,980.818 736.199,976.651 735.5,972.5C 735.853,960.48 736.187,949.147 736.5,938.5C 736.023,937.522 735.357,936.689 734.5,936C 734.254,927.784 734.588,919.45 735.5,911C 734.833,910.333 734.167,909.667 733.5,909C 733.877,902.622 734.21,896.288 734.5,890C 733.699,883.162 732.699,876.495 731.5,870C 731.934,867.704 732.268,865.038 732.5,862C 731.874,861.25 731.374,860.416 731,859.5C 730.123,842.465 727.457,825.799 723,809.5C 722.205,807.099 721.038,804.932 719.5,803C 720.167,802 720.833,801 721.5,800C 720.714,797.04 719.548,794.206 718,791.5C 714.584,775.877 710.751,760.544 706.5,745.5C 705.413,740.567 704.747,735.567 704.5,730.5C 703.784,724.929 702.784,719.429 701.5,714C 701.833,713.667 702.167,713.333 702.5,713C 697.533,697.164 693.2,681.164 689.5,665C 689.735,664.127 690.069,663.293 690.5,662.5C 688.82,655.953 688.154,649.453 688.5,643C 689.847,631.75 691.347,620.584 693,609.5C 695.461,604.113 697.127,598.446 698,592.5C 699.333,591.833 700.333,590.833 701,589.5C 701.667,590.833 702.333,590.833 703,589.5C 703.991,590.43 704.491,591.596 704.5,593C 703.277,601.115 700.777,608.615 697,615.5C 695.517,624.628 696.851,633.295 701,641.5C 703.375,646.829 706.209,651.829 709.5,656.5C 711.464,660.073 714.131,663.073 717.5,665.5C 724.982,674.461 731.982,683.794 738.5,693.5C 737.875,695.534 737.541,697.534 737.5,699.5C 736.778,699.082 736.278,698.416 736,697.5C 735.601,697.728 735.435,698.062 735.5,698.5C 733.233,695.729 730.733,693.062 728,690.5C 721.756,679.602 714.089,669.936 705,661.5C 701.831,655.828 698.664,650.161 695.5,644.5C 695.167,645.167 694.833,645.833 694.5,646.5C 697.167,667.669 702,688.335 709,708.5C 710.628,714.388 711.628,720.388 712,726.5C 712.684,728.359 713.684,730.026 715,731.5C 719.712,759.974 725.879,788.14 733.5,816C 733.167,816.333 732.833,816.667 732.5,817C 733.744,823.611 735.411,830.278 737.5,837C 738.235,840.169 738.235,843.502 737.5,847C 738,847.5 738.5,848 739,848.5C 740.025,857.069 741.192,865.569 742.5,874C 742.384,875.268 742.051,876.602 741.5,878C 742.604,886.762 743.604,895.429 744.5,904C 744.481,907.309 744.148,910.642 743.5,914C 744.167,915.333 744.833,916.667 745.5,918C 745.421,921.79 745.088,925.624 744.5,929.5C 745.142,934.365 745.808,939.199 746.5,944C 745.633,946.823 745.299,949.823 745.5,953C 746.167,956.333 746.833,959.667 747.5,963C 747.574,966.29 747.24,969.457 746.5,972.5C 747.149,979.364 747.816,986.198 748.5,993C 748.164,1003.16 748.164,1013.66 748.5,1024.5C 747.865,1028.37 747.199,1032.2 746.5,1036C 746.833,1036.33 747.167,1036.67 747.5,1037C 746.833,1038.67 746.167,1040.33 745.5,1042C 746.357,1045.38 746.024,1049.04 744.5,1053C 744.957,1053.41 745.291,1053.91 745.5,1054.5C 744.637,1059.46 743.97,1064.46 743.5,1069.5C 744.5,1069.5 745.5,1069.5 746.5,1069.5C 744.803,1104.88 739.803,1139.71 731.5,1174C 732.572,1176.68 731.905,1179.01 729.5,1181C 731.831,1208.47 735.164,1235.97 739.5,1263.5C 739.769,1269.51 739.769,1275.35 739.5,1281C 740.167,1285.33 740.833,1289.67 741.5,1294C 741.224,1312.06 741.224,1330.39 741.5,1349C 740.712,1352.08 740.212,1355.24 740,1358.5C 740.033,1382.22 739.033,1405.88 737,1429.5C 734.173,1444.13 731.673,1458.79 729.5,1473.5C 729.504,1477.57 730.004,1481.57 731,1485.5C 734.544,1493.09 737.377,1500.92 739.5,1509C 738.316,1511.66 736.983,1514.16 735.5,1516.5C 733.089,1516.14 731.589,1517.14 731,1519.5C 730.164,1524.38 729.331,1529.21 728.5,1534C 728.808,1563.54 729.808,1593.54 731.5,1624C 732.042,1632.53 730.042,1640.36 725.5,1647.5C 721.849,1650.45 717.682,1652.12 713,1652.5C 709.788,1651.73 706.288,1651.56 702.5,1652C 700.924,1652.44 699.59,1653.27 698.5,1654.5C 697.914,1654.29 697.414,1653.96 697,1653.5C 693.255,1654.3 689.421,1654.8 685.5,1655C 678.632,1659.12 671.632,1660.95 664.5,1660.5C 660.627,1665.48 655.461,1667.48 649,1666.5C 640.443,1666.98 633.276,1663.65 627.5,1656.5C 627.073,1643.01 626.74,1630.01 626.5,1617.5C 628.65,1606.9 630.483,1596.23 632,1585.5C 632.692,1584.97 633.192,1584.31 633.5,1583.5C 634.1,1581.03 633.434,1578.7 631.5,1576.5C 632.704,1561.42 634.537,1546.42 637,1531.5C 637.187,1524.92 637.687,1518.42 638.5,1512C 637.64,1505.07 637.973,1497.9 639.5,1490.5C 639.158,1488.13 638.658,1485.8 638,1483.5C 638.572,1450.04 636.905,1416.71 633,1383.5C 627.685,1348.29 622.185,1313.13 616.5,1278C 620.7,1242.57 620.367,1207.24 615.5,1172C 615.833,1171.67 616.167,1171.33 616.5,1171C 615.148,1162.75 614.148,1154.41 613.5,1146C 612.428,1135 609.928,1124.16 606,1113.5C 604.112,1104.33 602.278,1095.17 600.5,1086C 600.348,1071.83 599.014,1057.66 596.5,1043.5C 596.608,1042.56 596.941,1041.72 597.5,1041C 595.706,1031.06 594.373,1021.06 593.5,1011C 592.967,1000.81 591.3,990.64 588.5,980.5C 589.611,979.389 590.278,978.055 590.5,976.5C 589.705,970.522 589.039,964.522 588.5,958.5C 586.863,966.353 586.53,974.02 587.5,981.5C 581.657,1016.6 577.49,1052.27 575,1088.5C 573.389,1096.11 572.056,1103.77 571,1111.5C 567.804,1121.65 565.138,1131.98 563,1142.5C 560.337,1171.28 558.504,1200.11 557.5,1229C 557.584,1245.28 558.584,1261.28 560.5,1277C 554.909,1312.47 549.409,1347.97 544,1383.5C 540.095,1416.71 538.428,1450.04 539,1483.5C 537.568,1490.49 537.735,1497.49 539.5,1504.5C 538.704,1507.08 538.371,1509.58 538.5,1512C 539.313,1518.42 539.813,1524.92 540,1531.5C 542.449,1546.42 544.282,1561.42 545.5,1576.5C 543.566,1578.7 542.9,1581.03 543.5,1583.5C 543.808,1584.31 544.308,1584.97 545,1585.5C 546.517,1596.23 548.35,1606.9 550.5,1617.5C 550.244,1630.08 549.911,1643.08 549.5,1656.5C 541.838,1665.25 531.838,1668.41 519.5,1666C 516.404,1665.12 514.07,1663.29 512.5,1660.5C 505.368,1660.95 498.368,1659.12 491.5,1655C 487.579,1654.8 483.745,1654.3 480,1653.5C 479.586,1653.96 479.086,1654.29 478.5,1654.5C 477.41,1653.27 476.076,1652.44 474.5,1652C 470.712,1651.56 467.212,1651.73 464,1652.5C 459.318,1652.12 455.151,1650.45 451.5,1647.5C 446.958,1640.36 444.958,1632.53 445.5,1624C 447.192,1593.54 448.192,1563.54 448.5,1534C 447.669,1529.21 446.836,1524.38 446,1519.5C 445.411,1517.14 443.911,1516.14 441.5,1516.5C 440.017,1514.16 438.684,1511.66 437.5,1509C 439.623,1500.92 442.456,1493.09 446,1485.5C 446.996,1481.57 447.496,1477.57 447.5,1473.5C 445.327,1458.79 442.827,1444.13 440,1429.5C 437.967,1405.88 436.967,1382.22 437,1358.5C 436.788,1355.24 436.288,1352.08 435.5,1349C 436.053,1330.11 436.053,1311.61 435.5,1293.5C 436.131,1289.97 436.798,1286.47 437.5,1283C 437.042,1276.95 437.042,1270.45 437.5,1263.5C 441.836,1235.97 445.169,1208.47 447.5,1181C 445.095,1179.01 444.428,1176.68 445.5,1174C 444.313,1170.57 443.313,1167.07 442.5,1163.5C 442.709,1162.91 443.043,1162.41 443.5,1162C 436.104,1131.67 431.77,1100.84 430.5,1069.5C 431.5,1069.5 432.5,1069.5 433.5,1069.5C 433.03,1064.46 432.363,1059.46 431.5,1054.5C 431.709,1053.91 432.043,1053.41 432.5,1053C 430.976,1049.04 430.643,1045.38 431.5,1042C 430.833,1040.33 430.167,1038.67 429.5,1037C 429.833,1036.67 430.167,1036.33 430.5,1036C 429.801,1032.2 429.135,1028.37 428.5,1024.5C 428.836,1013.66 428.836,1003.16 428.5,993C 429.184,986.198 429.851,979.364 430.5,972.5C 429.76,969.457 429.426,966.29 429.5,963C 430.167,959.667 430.833,956.333 431.5,953C 431.701,949.823 431.367,946.823 430.5,944C 431.192,939.199 431.858,934.365 432.5,929.5C 431.912,925.624 431.579,921.79 431.5,918C 432.167,916.667 432.833,915.333 433.5,914C 432.852,910.642 432.519,907.309 432.5,904C 433.396,895.429 434.396,886.762 435.5,878C 434.949,876.602 434.616,875.268 434.5,874C 435.808,865.569 436.975,857.069 438,848.5C 443.938,816.778 450.938,784.445 459,751.5C 461.136,736.509 463.303,721.509 465.5,706.5C 467.124,706.64 468.29,705.973 469,704.5C 473.293,689.091 477.126,673.591 480.5,658C 480.382,654.97 480.215,651.803 480,648.5C 466.683,665.133 453.85,682.133 441.5,699.5C 440.167,699.5 439.5,700.167 439.5,701.5C 433.822,709.502 427.655,717.168 421,724.5C 416.361,732.152 411.028,739.152 405,745.5C 404.138,747.087 403.471,748.754 403,750.5C 402.667,750.167 402.333,749.833 402,749.5C 400.353,752.473 398.353,755.14 396,757.5C 383.53,768.76 372.197,781.094 362,794.5C 360.693,795.772 359.193,796.772 357.5,797.5C 348.358,809.872 338.358,822.205 327.5,834.5C 318.94,842.234 310.274,849.734 301.5,857C 294.549,866.132 287.049,874.632 279,882.5C 278.55,884.519 277.717,886.352 276.5,888C 276.054,898.079 274.888,908.245 273,918.5C 270.91,925.18 267.41,931.013 262.5,936C 260.341,936.912 258.175,937.745 256,938.5C 253.675,936.502 251.341,934.502 249,932.5C 244.695,940.679 238.362,947.679 230,953.5C 224.561,954.441 219.894,952.774 216,948.5C 215.027,946.608 214.36,944.608 214,942.5C 209.193,946.972 204.359,951.472 199.5,956C 196.411,958.588 192.911,960.421 189,961.5C 187.934,959.901 186.434,958.901 184.5,958.5C 183.368,956.402 182.368,954.235 181.5,952C 182.381,946.964 183.548,941.797 185,936.5C 184.558,938.679 183.558,939.345 182,938.5C 179.986,940.845 177.653,942.845 175,944.5C 173.853,943.542 172.853,943.875 172,945.5C 171.23,944.402 170.397,944.402 169.5,945.5C 169.167,944.167 168.833,944.167 168.5,945.5C 160.18,943.545 157.18,938.711 159.5,931C 172.132,915.7 185.132,900.7 198.5,886C 192.788,886.695 187.121,887.528 181.5,888.5C 168.275,887.644 163.942,881.311 168.5,869.5C 170.568,867.055 172.735,864.722 175,862.5C 175.333,862.833 175.667,863.167 176,863.5C 178.333,862.167 180.667,860.833 183,859.5C 183.333,859.833 183.667,860.167 184,860.5C 196.861,855.326 209.695,850.159 222.5,845C 229.73,842.265 236.397,838.598 242.5,834C 272.098,796.669 301.598,759.169 331,721.5C 335.935,710.767 341.435,700.434 347.5,690.5C 362.078,670.894 375.244,650.894 387,630.5C 387.721,626.658 389.387,623.324 392,620.5C 401.159,591.107 411.659,562.607 423.5,535C 426.286,531.926 428.952,528.759 431.5,525.5C 436.667,517.167 441.833,508.833 447,500.5C 454.828,492.936 463.828,488.269 474,486.5C 480.762,482.536 487.595,478.703 494.5,475C 512.865,468.479 531.198,461.979 549.5,455.5C 546.577,446.744 543.41,438.077 540,429.5C 528.117,420.884 516.783,411.551 506,401.5C 500.333,394.167 494.667,386.833 489,379.5C 488.261,380.574 487.261,381.241 486,381.5C 481.415,381.015 476.582,380.348 471.5,379.5C 470.914,379.709 470.414,380.043 470,380.5C 464.775,378.143 459.275,375.476 453.5,372.5C 449.806,369.074 445.973,365.074 442,360.5C 438.394,353.548 436.561,346.715 436.5,340C 438.019,325.285 444.686,313.618 456.5,305C 461.244,303.565 465.91,303.065 470.5,303.5C 456.303,247.363 471.969,202.196 517.5,168C 518.448,167.517 519.448,167.351 520.5,167.5C 520.5,166.5 520.5,165.5 520.5,164.5C 523.55,165.077 525.55,163.91 526.5,161C 528.722,160.305 530.889,159.472 533,158.5C 535.97,155.979 539.137,153.813 542.5,152C 546.556,151.649 550.223,150.315 553.5,148C 576.833,140.667 600.167,140.667 623.5,148C 626.777,150.315 630.444,151.649 634.5,152C 637.863,153.813 641.03,155.979 644,158.5C 647.652,159.249 650.485,161.082 652.5,164C 653.793,164.49 655.127,164.657 656.5,164.5C 656.5,165.5 656.5,166.5 656.5,167.5C 660.397,169.121 664.064,171.288 667.5,174C 704.277,205.664 718.11,245.831 709,294.5C 707.955,297.436 707.121,300.436 706.5,303.5C 711.09,303.065 715.756,303.565 720.5,305C 732.314,313.618 738.981,325.285 740.5,340C 740.439,346.715 738.606,353.548 735,360.5C 731.027,365.074 727.194,369.074 723.5,372.5C 717.725,375.476 712.225,378.143 707,380.5C 706.586,380.043 706.086,379.709 705.5,379.5C 700.418,380.348 695.585,381.015 691,381.5C 689.739,381.241 688.739,380.574 688,379.5C 677.473,396.359 663.973,410.192 647.5,421C 646.743,422.512 645.743,423.846 644.5,425C 641.541,425.772 639.041,427.272 637,429.5C 636.292,433.249 635.292,436.916 634,440.5C 631.773,444.818 629.607,449.152 627.5,453.5C 631.072,456.314 635.072,458.481 639.5,460C 652.155,464.331 664.822,468.665 677.5,473C 686.258,477.435 694.758,482.268 703,487.5C 703.414,487.043 703.914,486.709 704.5,486.5C 711.805,488.93 718.805,491.93 725.5,495.5C 725.5,496.5 725.5,497.5 725.5,498.5C 726.822,498.33 727.989,498.663 729,499.5C 730.333,502.167 731.667,504.833 733,507.5C 740.839,517.853 748.172,528.52 755,539.5C 757.894,546.288 761.06,552.955 764.5,559.5C 764.167,560.167 763.833,560.833 763.5,561.5C 771.606,580.465 778.773,600.131 785,620.5C 790.049,628.996 794.715,637.662 799,646.5C 801.863,648.897 803.697,651.897 804.5,655.5C 806.942,655.354 807.609,656.187 806.5,658C 812.548,666.906 818.881,675.739 825.5,684.5C 833.443,697.353 840.943,710.686 848,724.5C 876.448,761.093 905.114,797.426 934,833.5C 940.156,838.45 946.989,842.283 954.5,845C 967.305,850.159 980.139,855.326 993,860.5C 993.333,860.167 993.667,859.833 994,859.5C 996.333,860.833 998.667,862.167 1001,863.5C 1001.33,863.167 1001.67,862.833 1002,862.5C 1009.84,868.159 1012.01,875.159 1008.5,883.5C 1004.84,886.774 1000.51,888.44 995.5,888.5C 989.879,887.528 984.212,886.695 978.5,886C 991.897,900.725 1004.9,915.725 1017.5,931C 1019.82,938.711 1016.82,943.545 1008.5,945.5 Z"/></g>
<g><path style="opacity:1" fill="#bc8970" d="M 465.5,495.5 C 466.663,498.238 468.497,499.238 471,498.5C 474.339,501.678 476.505,505.512 477.5,510C 477.043,513.248 477.043,516.581 477.5,520C 475.268,533.085 469.935,545.251 461.5,556.5C 457.075,560.39 452.241,562.723 447,563.5C 446.25,562.874 445.416,562.374 444.5,562C 444.833,561.667 445.167,561.333 445.5,561C 442.139,560.946 439.139,559.946 436.5,558C 436.833,557.667 437.167,557.333 437.5,557C 434.151,554.647 431.151,551.98 428.5,549C 429.591,546.936 429.758,544.769 429,542.5C 428.617,543.056 428.117,543.389 427.5,543.5C 426.828,540.092 427.828,537.425 430.5,535.5C 429.391,533.786 430.058,533.119 432.5,533.5C 432.351,532.448 432.517,531.448 433,530.5C 439.591,521.641 445.924,512.641 452,503.5C 456.478,500.682 460.978,498.016 465.5,495.5 Z"/></g>
<g><path style="opacity:1" fill="#bc896f" d="M 710.5,496.5 C 714.295,497.898 717.961,499.564 721.5,501.5C 730.957,512.592 739.29,523.925 746.5,535.5C 749.172,537.425 750.172,540.092 749.5,543.5C 748.883,543.389 748.383,543.056 748,542.5C 747.242,544.769 747.409,546.936 748.5,549C 744.5,553 740.833,556.667 737.5,560C 735.167,560.333 732.833,560.667 730.5,561C 732.901,561.805 732.734,562.638 730,563.5C 724.759,562.723 719.925,560.39 715.5,556.5C 703.018,541.567 698.185,524.567 701,505.5C 702.421,502.991 704.088,500.657 706,498.5C 708.108,499.612 709.608,498.946 710.5,496.5 Z"/></g>
<g><path style="opacity:1" fill="#7c4f44" d="M 498.5,480.5 C 498.121,481.806 497.788,483.139 497.5,484.5C 494.009,486.094 490.342,486.761 486.5,486.5C 491.311,486.095 495.311,484.095 498.5,480.5 Z"/></g>
<g><path style="opacity:0.912" fill="#562720" d="M 680.5,481.5 C 682.134,482.581 683.467,483.915 684.5,485.5C 682.173,485.753 680.173,485.086 678.5,483.5C 679.243,482.818 679.909,482.151 680.5,481.5 Z"/></g>
<g><path style="opacity:1" fill="#ba9582" d="M 625.5,436.5 C 622.814,442.89 620.981,449.556 620,456.5C 619.209,460.926 619.543,465.259 621,469.5C 621.333,468.5 621.667,467.5 622,466.5C 623,467.833 624,467.833 625,466.5C 625.681,464.105 626.515,461.772 627.5,459.5C 630.213,460.905 632.879,462.405 635.5,464C 650.855,469.169 665.855,475.003 680.5,481.5C 679.909,482.151 679.243,482.818 678.5,483.5C 680.173,485.086 682.173,485.753 684.5,485.5C 693.802,488.033 702.468,491.7 710.5,496.5C 709.608,498.946 708.108,499.612 706,498.5C 704.088,500.657 702.421,502.991 701,505.5C 698.185,524.567 703.018,541.567 715.5,556.5C 719.925,560.39 724.759,562.723 730,563.5C 732.734,562.638 732.901,561.805 730.5,561C 732.833,560.667 735.167,560.333 737.5,560C 740.833,556.667 744.5,553 748.5,549C 747.409,546.936 747.242,544.769 748,542.5C 748.383,543.056 748.883,543.389 749.5,543.5C 751.689,549.711 754.522,556.044 758,562.5C 758.692,568.455 760.525,573.955 763.5,579C 769.359,603.767 778.693,627.434 791.5,650C 799.186,661.856 807.02,673.689 815,685.5C 816.009,687.025 816.509,688.692 816.5,690.5C 817.5,690.5 818.5,690.5 819.5,690.5C 819.826,693.311 820.659,695.978 822,698.5C 826.844,705.333 831.511,712.333 836,719.5C 837.806,723.918 839.806,728.251 842,732.5C 844.537,734.432 847.204,736.099 850,737.5C 873.267,769.915 896.6,801.581 920,832.5C 923.626,837.054 928.126,839.554 933.5,840C 939.54,845.691 946.54,849.857 954.5,852.5C 967.365,858.896 981.032,864.396 995.5,869C 999.865,871.199 1002.53,874.699 1003.5,879.5C 1002.62,880.251 1001.62,880.751 1000.5,881C 990.936,881.73 981.769,880.23 973,876.5C 967.61,879.24 967.11,882.74 971.5,887C 971.167,887.333 970.833,887.667 970.5,888C 982.558,903.216 995.224,918.049 1008.5,932.5C 1009.31,934.071 1009.64,935.738 1009.5,937.5C 1005.4,937.116 1001.73,935.616 998.5,933C 989.142,923.582 979.309,914.749 969,906.5C 967.779,907.774 966.946,909.274 966.5,911C 972.167,920 977.833,929 983.5,938C 985.871,942.968 987.037,948.135 987,953.5C 974.605,944.91 964.772,934.077 957.5,921C 957.833,920.667 958.167,920.333 958.5,920C 956.212,917.257 954.045,914.423 952,911.5C 948.365,907.229 945.531,907.729 943.5,913C 946.974,919.316 949.64,925.649 951.5,932C 951.405,935.409 952.405,938.742 954.5,942C 953.663,943.011 953.33,944.178 953.5,945.5C 951.799,945.034 950.299,945.034 949,945.5C 937.944,933.56 930.11,919.727 925.5,904C 923.08,903.313 920.913,903.813 919,905.5C 918.65,909.533 918.483,913.367 918.5,917C 919.167,919.667 919.833,922.333 920.5,925C 919.809,926.067 919.309,927.234 919,928.5C 914.08,919.99 911.247,910.823 910.5,901C 911.097,899.372 910.763,897.705 909.5,896C 910.571,889.008 908.571,882.508 903.5,876.5C 887.865,856.943 870.365,839.277 851,823.5C 829.075,793.915 804.741,766.581 778,741.5C 769.632,728.773 760.299,716.773 750,705.5C 748.371,705.836 746.871,705.17 745.5,703.5C 743.659,699.817 741.326,696.484 738.5,693.5C 731.982,683.794 724.982,674.461 717.5,665.5C 715.536,661.927 712.869,658.927 709.5,656.5C 706.209,651.829 703.375,646.829 701,641.5C 696.851,633.295 695.517,624.628 697,615.5C 700.777,608.615 703.277,601.115 704.5,593C 704.491,591.596 703.991,590.43 703,589.5C 702.333,590.833 701.667,590.833 701,589.5C 700.333,590.833 699.333,591.833 698,592.5C 697.127,598.446 695.461,604.113 693,609.5C 691.347,620.584 689.847,631.75 688.5,643C 688.154,649.453 688.82,655.953 690.5,662.5C 690.069,663.293 689.735,664.127 689.5,665C 693.2,681.164 697.533,697.164 702.5,713C 702.167,713.333 701.833,713.667 701.5,714C 702.784,719.429 703.784,724.929 704.5,730.5C 703.11,735.711 703.777,740.711 706.5,745.5C 710.751,760.544 714.584,775.877 718,791.5C 719.548,794.206 720.714,797.04 721.5,800C 720.833,801 720.167,802 719.5,803C 721.038,804.932 722.205,807.099 723,809.5C 727.457,825.799 730.123,842.465 731,859.5C 731.374,860.416 731.874,861.25 732.5,862C 732.268,865.038 731.934,867.704 731.5,870C 732.699,876.495 733.699,883.162 734.5,890C 734.21,896.288 733.877,902.622 733.5,909C 734.167,909.667 734.833,910.333 735.5,911C 734.588,919.45 734.254,927.784 734.5,936C 735.357,936.689 736.023,937.522 736.5,938.5C 736.187,949.147 735.853,960.48 735.5,972.5C 736.199,976.651 736.866,980.818 737.5,985C 736.403,994.021 736.403,1003.02 737.5,1012C 736.833,1016.67 736.167,1021.33 735.5,1026C 735.714,1031.13 736.047,1036.29 736.5,1041.5C 735.608,1047.71 734.608,1053.88 733.5,1060C 733.833,1062.33 734.167,1064.67 734.5,1067C 734,1067.5 733.5,1068 733,1068.5C 732.382,1074.41 731.548,1080.25 730.5,1086C 730.813,1091.71 730.813,1097.37 730.5,1103C 729.833,1104 729.167,1105 728.5,1106C 728.493,1107.58 728.826,1109.25 729.5,1111C 728.833,1112.67 728.167,1114.33 727.5,1116C 728.051,1117.4 728.384,1118.73 728.5,1120C 727.799,1126.04 726.799,1132.04 725.5,1138C 725.439,1142.27 725.439,1146.61 725.5,1151C 723.002,1157.55 722.669,1164.05 724.5,1170.5C 724.239,1176.09 723.905,1182.26 723.5,1189C 724.032,1198.57 724.699,1208.07 725.5,1217.5C 724.174,1222.58 724.507,1227.58 726.5,1232.5C 727.895,1257.38 729.229,1282.22 730.5,1307C 729.867,1309.88 729.533,1312.71 729.5,1315.5C 728.244,1317.73 728.244,1320.06 729.5,1322.5C 728.089,1328.44 727.423,1334.61 727.5,1341C 728.022,1349.14 728.356,1357.31 728.5,1365.5C 727.981,1390.1 726.648,1414.27 724.5,1438C 725.563,1442.35 725.23,1446.68 723.5,1451C 724.729,1453.62 724.396,1456.12 722.5,1458.5C 722.709,1459.09 723.043,1459.59 723.5,1460C 722.262,1466.93 721.262,1473.93 720.5,1481C 720.888,1483.19 720.888,1485.53 720.5,1488C 721.684,1492.2 723.517,1496.03 726,1499.5C 726.167,1501.83 726.333,1504.17 726.5,1506.5C 724.978,1521.99 723.311,1537.49 721.5,1553C 722.632,1571.77 722.632,1590.43 721.5,1609C 724.082,1618.99 723.915,1629.15 721,1639.5C 720.196,1641.94 718.696,1643.78 716.5,1645C 710.5,1645.33 704.5,1645.67 698.5,1646C 695.176,1647.51 691.843,1648.01 688.5,1647.5C 681.199,1650.19 674.032,1652.19 667,1653.5C 666.127,1653.26 665.293,1652.93 664.5,1652.5C 657.714,1653.34 651.047,1654.17 644.5,1655C 642.43,1654.05 640.93,1652.55 640,1650.5C 639.872,1641.55 639.706,1632.55 639.5,1623.5C 639.782,1620.87 640.449,1618.37 641.5,1616C 640.978,1615.44 640.645,1614.77 640.5,1614C 644.019,1587.76 647.019,1561.76 649.5,1536C 649.167,1535.67 648.833,1535.33 648.5,1535C 649.167,1532.33 649.833,1529.67 650.5,1527C 650.162,1520.03 650.162,1512.86 650.5,1505.5C 649.349,1501.42 648.682,1497.26 648.5,1493C 648.946,1482.12 649.279,1471.28 649.5,1460.5C 649.097,1457.24 648.43,1454.07 647.5,1451C 647.464,1441.68 647.464,1432.34 647.5,1423C 647.022,1418.53 646.022,1414.2 644.5,1410C 645.022,1409.44 645.355,1408.77 645.5,1408C 644.724,1401.54 644.224,1395.04 644,1388.5C 639.289,1360.72 635.289,1333.38 632,1306.5C 631.562,1293.14 630.729,1279.8 629.5,1266.5C 630.963,1257.04 631.63,1247.38 631.5,1237.5C 631.5,1231.32 631.166,1225.32 630.5,1219.5C 630.774,1214.74 630.441,1210.07 629.5,1205.5C 629.772,1197.94 629.105,1190.6 627.5,1183.5C 627.678,1182.31 628.011,1181.14 628.5,1180C 627.237,1174.45 625.903,1168.95 624.5,1163.5C 624.45,1158.58 625.117,1153.74 626.5,1149C 626.492,1147.29 626.158,1145.79 625.5,1144.5C 624.162,1138.74 622.828,1133.07 621.5,1127.5C 621.59,1124.85 620.924,1122.51 619.5,1120.5C 616.966,1113.08 614.132,1105.75 611,1098.5C 606.271,1069.69 603.271,1040.69 602,1011.5C 601.028,1003.42 599.861,995.424 598.5,987.5C 598.714,978.883 597.714,970.55 595.5,962.5C 595.162,959.989 595.162,957.655 595.5,955.5C 594.894,953.291 594.227,951.124 593.5,949C 594.458,947.853 594.125,946.853 592.5,946C 592.833,944.333 593.167,942.667 593.5,941C 591.156,933.531 591.156,925.698 593.5,917.5C 596.161,916.668 598.828,915.834 601.5,915C 603.155,913.556 603.822,911.722 603.5,909.5C 600.561,910.462 597.728,910.795 595,910.5C 593.941,910.37 593.108,909.87 592.5,909C 593.833,908.333 593.833,907.667 592.5,907C 590.865,906.46 589.532,906.96 588.5,908.5C 587.833,907.833 587.167,907.167 586.5,906.5C 584.594,907.578 583.094,908.911 582,910.5C 579.272,910.795 576.439,910.462 573.5,909.5C 573.178,911.722 573.845,913.556 575.5,915C 578.172,915.834 580.839,916.668 583.5,917.5C 584.466,919.396 584.799,921.396 584.5,923.5C 585.715,929.722 585.382,935.555 583.5,941C 583.833,942.667 584.167,944.333 584.5,946C 582.627,946.953 582.294,948.12 583.5,949.5C 581.525,957.94 580.191,966.607 579.5,975.5C 578.054,981.274 577.388,987.274 577.5,993.5C 574.606,1027.23 571.106,1060.89 567,1094.5C 562.648,1104.87 559.148,1115.54 556.5,1126.5C 555.883,1126.61 555.383,1126.94 555,1127.5C 553.641,1131.41 552.808,1135.41 552.5,1139.5C 551.962,1141.12 551.629,1142.78 551.5,1144.5C 550.523,1147.29 550.19,1150.29 550.5,1153.5C 551.5,1153.5 552.5,1153.5 553.5,1153.5C 552.873,1158.14 552.54,1162.81 552.5,1167.5C 550.627,1168.9 550.294,1170.56 551.5,1172.5C 549.131,1179.85 548.131,1187.52 548.5,1195.5C 547.513,1200.31 547.179,1205.31 547.5,1210.5C 545.999,1219.28 545.332,1228.28 545.5,1237.5C 545.5,1243.68 545.834,1249.68 546.5,1255.5C 546.273,1259.62 546.607,1264.28 547.5,1269.5C 545.913,1283.4 545.079,1297.4 545,1311.5C 541.298,1336.65 537.298,1362.32 533,1388.5C 532.699,1394.52 532.199,1400.52 531.5,1406.5C 531.57,1407.77 531.903,1408.94 532.5,1410C 530.978,1414.2 529.978,1418.53 529.5,1423C 530.081,1423.89 530.415,1424.89 530.5,1426C 529.721,1437.68 528.721,1449.35 527.5,1461C 527.575,1471.6 527.908,1482.26 528.5,1493C 528.318,1497.26 527.651,1501.42 526.5,1505.5C 527.518,1535.64 530.185,1565.98 534.5,1596.5C 534.668,1602.03 535.335,1607.37 536.5,1612.5C 536.67,1613.82 536.337,1614.99 535.5,1616C 536.551,1618.37 537.218,1620.87 537.5,1623.5C 537.43,1630.89 537.43,1638.22 537.5,1645.5C 538.053,1649.9 536.386,1653.06 532.5,1655C 525.953,1654.17 519.286,1653.34 512.5,1652.5C 511.707,1652.93 510.873,1653.26 510,1653.5C 502.968,1652.19 495.801,1650.19 488.5,1647.5C 487.833,1647.83 487.167,1648.17 486.5,1648.5C 478.056,1645.97 469.389,1644.81 460.5,1645C 458.304,1643.78 456.804,1641.94 456,1639.5C 453.085,1629.15 452.918,1618.99 455.5,1609C 454.42,1590.46 454.42,1571.79 455.5,1553C 453.7,1537.48 452.034,1521.98 450.5,1506.5C 450.667,1504.17 450.833,1501.83 451,1499.5C 453.483,1496.03 455.316,1492.2 456.5,1488C 456.112,1485.53 456.112,1483.19 456.5,1481C 455.738,1473.93 454.738,1466.93 453.5,1460C 454.634,1458.98 454.301,1458.32 452.5,1458C 452.833,1455.67 453.167,1453.33 453.5,1451C 451.77,1446.68 451.437,1442.35 452.5,1438C 450.352,1414.27 449.019,1390.1 448.5,1365.5C 448.644,1357.31 448.978,1349.14 449.5,1341C 448.711,1329.42 447.711,1318.09 446.5,1307C 448.095,1269.18 450.428,1231.35 453.5,1193.5C 452.549,1185.24 452.216,1177.57 452.5,1170.5C 454.331,1164.05 453.998,1157.55 451.5,1151C 451.561,1146.61 451.561,1142.27 451.5,1138C 450.201,1132.04 449.201,1126.04 448.5,1120C 448.616,1118.73 448.949,1117.4 449.5,1116C 448.833,1114.33 448.167,1112.67 447.5,1111C 448.174,1109.25 448.507,1107.58 448.5,1106C 446.871,1103.74 446.538,1101.41 447.5,1099C 445.853,1094.68 445.519,1090.35 446.5,1086C 445.452,1080.25 444.618,1074.41 444,1068.5C 443.5,1068 443,1067.5 442.5,1067C 442.833,1064.67 443.167,1062.33 443.5,1060C 442.392,1053.88 441.392,1047.71 440.5,1041.5C 441.251,1036.58 441.584,1031.42 441.5,1026C 440.833,1021.33 440.167,1016.67 439.5,1012C 440.597,1003.02 440.597,994.021 439.5,985C 440.044,982.6 440.711,980.267 441.5,978C 441.174,956.659 441.174,935.493 441.5,914.5C 442.791,913.458 442.791,912.292 441.5,911C 442.167,910.333 442.833,909.667 443.5,909C 443.191,902.682 442.857,896.515 442.5,890.5C 443.225,888.053 443.892,885.553 444.5,883C 443.869,879.207 443.869,875.04 444.5,870.5C 444.542,868.146 444.542,865.313 444.5,862C 445.582,860.67 446.249,859.17 446.5,857.5C 446.472,851.585 447.139,845.751 448.5,840C 448.091,836.011 448.758,832.011 450.5,828C 450.363,819.189 452.696,810.856 457.5,803C 456.833,802 456.167,801 455.5,800C 459.04,790.009 462.04,779.842 464.5,769.5C 465.924,767.485 466.59,765.152 466.5,762.5C 466.5,762.167 466.5,761.833 466.5,761.5C 470.186,756.585 471.52,750.918 470.5,744.5C 470.5,744.167 470.5,743.833 470.5,743.5C 471.924,741.485 472.59,739.152 472.5,736.5C 472.983,731.902 472.983,727.402 472.5,723C 476.173,707.463 480.006,691.963 484,676.5C 486.451,665.985 487.951,655.485 488.5,645C 486.549,634.157 485.216,622.99 484.5,611.5C 482.05,605.703 480.217,599.703 479,593.5C 477.622,591.787 475.955,590.453 474,589.5C 473.056,590.263 472.556,591.263 472.5,592.5C 473.873,599.966 475.706,607.299 478,614.5C 478.667,615.167 479.333,615.833 480,616.5C 480.667,620.167 480.667,623.833 480,627.5C 477.066,641.696 470.399,653.696 460,663.5C 450.679,676.491 441.346,689.491 432,702.5C 418.966,714.268 407.8,727.601 398.5,742.5C 371.743,767.096 347.576,794.096 326,823.5C 306.635,839.277 289.135,856.943 273.5,876.5C 268.429,882.508 266.429,889.008 267.5,896C 266.833,897.333 266.167,898.667 265.5,900C 265.935,910.086 263.435,919.586 258,928.5C 257.691,927.234 257.191,926.067 256.5,925C 257.167,922.333 257.833,919.667 258.5,917C 258.517,913.367 258.35,909.533 258,905.5C 256.087,903.813 253.92,903.313 251.5,904C 247.927,916.978 242.094,928.812 234,939.5C 231.071,943.421 227.571,945.421 223.5,945.5C 223.67,944.178 223.337,943.011 222.5,942C 224.595,938.742 225.595,935.409 225.5,932C 227.36,925.649 230.026,919.316 233.5,913C 231.469,907.729 228.635,907.229 225,911.5C 222.955,914.423 220.788,917.257 218.5,920C 218.833,920.333 219.167,920.667 219.5,921C 212.228,934.077 202.395,944.91 190,953.5C 190.141,948.178 191.308,943.011 193.5,938C 199.167,929 204.833,920 210.5,911C 210.054,909.274 209.221,907.774 208,906.5C 197.691,914.749 187.858,923.582 178.5,933C 175.271,935.616 171.604,937.116 167.5,937.5C 167.357,935.738 167.691,934.071 168.5,932.5C 178.863,920.475 189.196,908.475 199.5,896.5C 202.72,892.12 205.72,887.62 208.5,883C 208.875,879.965 207.375,877.798 204,876.5C 195.231,880.23 186.064,881.73 176.5,881C 175.376,880.751 174.376,880.251 173.5,879.5C 174.468,874.699 177.135,871.199 181.5,869C 194.832,865.085 207.665,859.918 220,853.5C 228.459,850.832 236.292,846.332 243.5,840C 248.874,839.554 253.374,837.054 257,832.5C 280.4,801.581 303.733,769.915 327,737.5C 329.796,736.099 332.463,734.432 335,732.5C 344.43,712.528 355.763,693.861 369,676.5C 370.009,674.975 370.509,673.308 370.5,671.5C 371.5,671.5 372.5,671.5 373.5,671.5C 373.838,669.146 374.338,666.813 375,664.5C 386.376,648.788 395.709,631.788 403,613.5C 408.964,589.779 417.131,566.446 427.5,543.5C 428.117,543.389 428.617,543.056 429,542.5C 429.758,544.769 429.591,546.936 428.5,549C 431.151,551.98 434.151,554.647 437.5,557C 437.167,557.333 436.833,557.667 436.5,558C 439.139,559.946 442.139,560.946 445.5,561C 445.167,561.333 444.833,561.667 444.5,562C 445.416,562.374 446.25,562.874 447,563.5C 452.241,562.723 457.075,560.39 461.5,556.5C 469.935,545.251 475.268,533.085 477.5,520C 477.043,516.581 477.043,513.248 477.5,510C 476.505,505.512 474.339,501.678 471,498.5C 468.497,499.238 466.663,498.238 465.5,495.5C 472.323,491.99 479.323,488.99 486.5,486.5C 490.342,486.761 494.009,486.094 497.5,484.5C 497.788,483.139 498.121,481.806 498.5,480.5C 509.752,475.574 521.252,470.907 533,466.5C 533.333,466.833 533.667,467.167 534,467.5C 539.264,465.08 544.431,462.414 549.5,459.5C 550.426,462.044 551.426,464.544 552.5,467C 554.107,466.981 555.774,466.815 557.5,466.5C 557.245,456.562 555.578,446.896 552.5,437.5C 552.47,436.503 552.97,435.836 554,435.5C 558.154,438.052 562.654,439.719 567.5,440.5C 568.167,440.5 568.833,440.5 569.5,440.5C 569.414,441.496 569.748,442.329 570.5,443C 585.944,447.219 600.611,445.719 614.5,438.5C 618.473,438.407 621.973,437.074 625,434.5C 625.464,435.094 625.631,435.761 625.5,436.5 Z"/></g>
<g><path style="opacity:1" fill="#360908" d="M 622.5,502.5 C 616.301,502.7 610.301,503.866 604.5,506C 604.043,506.414 603.709,506.914 603.5,507.5C 607.247,508.601 610.913,508.268 614.5,506.5C 615.107,506.624 615.44,506.957 615.5,507.5C 613.006,508.633 610.506,509.633 608,510.5C 605.72,509.914 603.553,509.08 601.5,508C 602.167,507 602.833,506 603.5,505C 609.787,502.39 616.12,501.557 622.5,502.5 Z"/></g>
<g><path style="opacity:0.797" fill="#160402" d="M 615.5,507.5 C 615.44,506.957 615.107,506.624 614.5,506.5C 610.913,508.268 607.247,508.601 603.5,507.5C 603.709,506.914 604.043,506.414 604.5,506C 610.301,503.866 616.301,502.7 622.5,502.5C 625.619,501.812 625.953,502.645 623.5,505C 621.073,506.591 618.407,507.425 615.5,507.5 Z"/></g>
<g><path style="opacity:0.838" fill="#1f0704" d="M 554.5,501.5 C 560.257,501.682 565.924,502.515 571.5,504C 576.997,507.916 576.163,510.083 569,510.5C 567.561,508.986 566.061,508.653 564.5,509.5C 560.82,508.062 557.153,506.562 553.5,505C 551.042,503.267 551.375,502.1 554.5,501.5 Z"/></g>
<g><path style="opacity:1" fill="#6e3e32" d="M 614.5,438.5 C 600.611,445.719 585.944,447.219 570.5,443C 569.748,442.329 569.414,441.496 569.5,440.5C 580.939,445.051 592.606,445.551 604.5,442C 607.389,439.61 610.723,438.443 614.5,438.5 Z"/></g>
<g><path style="opacity:1" fill="#7e4d3f" d="M 625.5,436.5 C 625.631,435.761 625.464,435.094 625,434.5C 621.973,437.074 618.473,438.407 614.5,438.5C 618.235,436.358 622.235,434.691 626.5,433.5C 626.737,434.791 626.404,435.791 625.5,436.5 Z"/></g>
<g><path style="opacity:1" fill="#764437" d="M 567.5,440.5 C 562.654,439.719 558.154,438.052 554,435.5C 552.97,435.836 552.47,436.503 552.5,437.5C 551.596,436.791 551.263,435.791 551.5,434.5C 553.199,434.34 554.866,434.506 556.5,435C 560.402,436.565 564.069,438.398 567.5,440.5 Z"/></g>
<g><path style="opacity:1" fill="#764d45" d="M 704.5,337.5 C 701.833,337.833 699.167,338.167 696.5,338.5C 696.706,342.898 696.373,347.232 695.5,351.5C 694.783,347.011 694.783,342.344 695.5,337.5C 698.673,336.632 701.673,336.632 704.5,337.5 Z"/></g>
<g><path style="opacity:1" fill="#7e554b" d="M 478.5,338.5 C 479.209,337.596 480.209,337.263 481.5,337.5C 481.646,341.519 481.979,345.519 482.5,349.5C 481.167,345.833 479.833,342.167 478.5,338.5 Z"/></g>
<g><path style="opacity:1" fill="#360d0e" d="M 460.5,322.5 C 459.419,324.764 458.085,326.931 456.5,329C 459.284,328.081 462.284,327.581 465.5,327.5C 462.741,328.389 459.741,329.722 456.5,331.5C 455.33,327.498 456.663,324.498 460.5,322.5 Z"/></g>
<g><path style="opacity:1" fill="#b89381" d="M 695.5,351.5 C 696.373,347.232 696.706,342.898 696.5,338.5C 699.167,338.167 701.833,337.833 704.5,337.5C 705.935,338.824 706.935,340.491 707.5,342.5C 707.324,344.672 707.157,347.005 707,349.5C 706.626,350.416 706.126,351.25 705.5,352C 702.782,353.072 700.115,354.238 697.5,355.5C 698.855,358.76 701.355,360.427 705,360.5C 706.984,358.697 708.984,357.697 711,357.5C 711.645,356.354 712.478,355.354 713.5,354.5C 712.145,353.325 712.312,352.325 714,351.5C 715.714,344.27 713.88,337.77 708.5,332C 704.56,330.358 701.06,331.191 698,334.5C 697.506,332.866 697.34,331.199 697.5,329.5C 701.5,328.148 705.5,327.481 709.5,327.5C 713.371,328.234 717.371,329.234 721.5,330.5C 721.358,327.383 720.024,324.883 717.5,323C 711.805,320.478 706.305,320.645 701,323.5C 700.729,319.583 701.562,315.917 703.5,312.5C 717.116,309.626 725.616,315.293 729,329.5C 732.897,349.624 725.397,363.791 706.5,372C 702.142,372.788 697.809,373.622 693.5,374.5C 691.127,373.45 690.127,371.617 690.5,369C 692.316,363.203 693.983,357.37 695.5,351.5 Z"/></g>
<g><path style="opacity:1" fill="#b89381" d="M 460.5,322.5 C 456.663,324.498 455.33,327.498 456.5,331.5C 459.741,329.722 462.741,328.389 465.5,327.5C 470.223,327.055 474.889,327.722 479.5,329.5C 479.66,331.199 479.494,332.866 479,334.5C 475.94,331.191 472.44,330.358 468.5,332C 462.075,338.316 460.742,345.316 464.5,353C 464.043,353.414 463.709,353.914 463.5,354.5C 464.853,355.685 466.02,357.019 467,358.5C 467.333,358.167 467.667,357.833 468,357.5C 470.612,360.666 473.779,361.166 477.5,359C 478.293,357.915 478.96,356.748 479.5,355.5C 476.617,354.262 473.783,352.928 471,351.5C 469.566,348.475 469.066,345.475 469.5,342.5C 470.924,337.723 473.924,336.389 478.5,338.5C 479.833,342.167 481.167,345.833 482.5,349.5C 482.322,350.695 481.989,351.862 481.5,353C 483.995,358.072 485.662,363.405 486.5,369C 486.873,371.617 485.873,373.45 483.5,374.5C 465.823,373.578 453.657,364.911 447,348.5C 445.419,337.736 447.419,327.736 453,318.5C 455.213,315.524 458.047,313.358 461.5,312C 465.495,311.857 469.495,312.024 473.5,312.5C 475.438,315.917 476.271,319.583 476,323.5C 473.912,322.692 471.912,321.692 470,320.5C 467.031,320.857 463.864,321.524 460.5,322.5 Z"/></g>
<g><path style="opacity:1" fill="#53241c" d="M 699.5,255.5 C 700.165,258.817 700.499,262.317 700.5,266C 700.61,272.067 699.943,277.9 698.5,283.5C 699.232,274.185 699.566,264.852 699.5,255.5 Z"/></g>
<g><path style="opacity:1" fill="#7a483b" d="M 697.5,242.5 C 698.563,246.639 699.23,250.972 699.5,255.5C 698.732,254.737 698.232,253.737 698,252.5C 697.502,249.183 697.335,245.85 697.5,242.5 Z"/></g>
<g><path style="opacity:1" fill="#754336" d="M 479.5,242.5 C 479.665,245.85 479.498,249.183 479,252.5C 478.768,253.737 478.268,254.737 477.5,255.5C 477.77,250.972 478.437,246.639 479.5,242.5 Z"/></g>
<g><path style="opacity:1" fill="#7d4c3e" d="M 689.5,216.5 C 690.687,220.21 692.187,223.877 694,227.5C 694.945,231.494 695.778,235.494 696.5,239.5C 693.74,232.031 691.407,224.364 689.5,216.5 Z"/></g>
<g><path style="opacity:1" fill="#784639" d="M 491.5,210.5 C 487.638,220.086 483.971,229.753 480.5,239.5C 481.013,235.447 481.846,231.447 483,227.5C 484.8,221.244 487.633,215.577 491.5,210.5 Z"/></g>
<g><path style="opacity:1" fill="#5a2a21" d="M 495.5,204.5 C 494.525,206.795 493.192,208.795 491.5,210.5C 491.684,207.663 493.018,205.663 495.5,204.5 Z"/></g>
<g><path style="opacity:1" fill="#582821" d="M 682.5,204.5 C 685.447,207.995 687.447,211.995 688.5,216.5C 685.937,212.83 683.937,208.83 682.5,204.5 Z"/></g>
<g><path style="opacity:1" fill="#592820" d="M 499.5,198.5 C 498.876,200.754 497.543,202.421 495.5,203.5C 496.136,201.205 497.469,199.539 499.5,198.5 Z"/></g>
<g><path style="opacity:1" fill="#895b4d" d="M 507.5,189.5 C 506.361,193.453 504.027,196.453 500.5,198.5C 501.999,194.899 504.333,191.899 507.5,189.5 Z"/></g>
<g><path style="opacity:1" fill="#6c3b2f" d="M 513.5,184.5 C 512.155,186.836 510.155,188.503 507.5,189.5C 508.865,187.14 510.865,185.473 513.5,184.5 Z"/></g>
<g><path style="opacity:1" fill="#68362c" d="M 659.5,181.5 C 663.332,182.655 666.332,184.988 668.5,188.5C 664.898,186.893 661.898,184.56 659.5,181.5 Z"/></g>
<g><path style="opacity:1" fill="#835243" d="M 524.5,175.5 C 521.78,179.544 518.113,182.544 513.5,184.5C 513.414,183.504 513.748,182.671 514.5,182C 517.744,179.652 521.077,177.485 524.5,175.5 Z"/></g>
<g><path style="opacity:1" fill="#6f3e32" d="M 643.5,168.5 C 647.09,170.092 650.09,172.425 652.5,175.5C 648.894,173.873 645.894,171.54 643.5,168.5 Z"/></g>
<g><path style="opacity:1" fill="#6d3c2f" d="M 535.5,167.5 C 533.583,169.703 531.25,171.369 528.5,172.5C 530.15,169.939 532.484,168.273 535.5,167.5 Z"/></g>
<g><path style="opacity:1" fill="#613127" d="M 634.5,162.5 C 637.814,164.143 640.814,166.143 643.5,168.5C 640.933,167.25 638.267,166.083 635.5,165C 634.748,164.329 634.414,163.496 634.5,162.5 Z"/></g>
<g><path style="opacity:1" fill="#8f6152" d="M 549.5,159.5 C 546.829,163.138 543.163,165.138 538.5,165.5C 541.79,162.865 545.457,160.865 549.5,159.5 Z"/></g>
<g><path style="opacity:1" fill="#744235" d="M 626.5,158.5 C 628.819,158.992 630.819,159.992 632.5,161.5C 629.784,161.614 627.784,160.614 626.5,158.5 Z"/></g>
<g><path style="opacity:1" fill="#7a4739" d="M 570.5,152.5 C 567.146,154.258 563.479,155.258 559.5,155.5C 562.854,153.742 566.521,152.742 570.5,152.5 Z"/></g>
<g><path style="opacity:1" fill="#6c3a2f" d="M 602.5,151.5 C 606.534,151.517 610.201,152.517 613.5,154.5C 609.521,154.258 605.854,153.258 602.5,151.5 Z"/></g>
<g><path style="opacity:1" fill="#825243" d="M 583.5,150.5 C 582.737,151.268 581.737,151.768 580.5,152C 577.183,152.498 573.85,152.665 570.5,152.5C 574.567,150.946 578.9,150.28 583.5,150.5 Z"/></g>
<g><path style="opacity:1" fill="#ba9582" d="M 583.5,150.5 C 589.5,150.833 595.5,151.167 601.5,151.5C 601.833,151.5 602.167,151.5 602.5,151.5C 605.854,153.258 609.521,154.258 613.5,154.5C 618.135,155.046 622.468,156.38 626.5,158.5C 627.784,160.614 629.784,161.614 632.5,161.5C 632.842,162.338 633.508,162.672 634.5,162.5C 634.414,163.496 634.748,164.329 635.5,165C 638.267,166.083 640.933,167.25 643.5,168.5C 645.894,171.54 648.894,173.873 652.5,175.5C 655.692,176.436 658.025,178.436 659.5,181.5C 661.898,184.56 664.898,186.893 668.5,188.5C 673.126,193.826 677.792,199.16 682.5,204.5C 683.937,208.83 685.937,212.83 688.5,216.5C 688.833,216.5 689.167,216.5 689.5,216.5C 691.407,224.364 693.74,232.031 696.5,239.5C 697.404,240.209 697.737,241.209 697.5,242.5C 697.335,245.85 697.502,249.183 698,252.5C 698.232,253.737 698.732,254.737 699.5,255.5C 699.566,264.852 699.232,274.185 698.5,283.5C 698.442,300.398 694.609,316.398 687,331.5C 687.856,351.423 682.523,369.423 671,385.5C 649.524,412 622.024,429 588.5,436.5C 559.131,429.902 533.965,415.902 513,394.5C 501.145,381.79 493.812,366.79 491,349.5C 490.667,343.5 490.333,337.5 490,331.5C 485.673,322.186 482.34,312.519 480,302.5C 478.391,286.872 477.558,271.206 477.5,255.5C 478.268,254.737 478.768,253.737 479,252.5C 479.498,249.183 479.665,245.85 479.5,242.5C 479.263,241.209 479.596,240.209 480.5,239.5C 483.971,229.753 487.638,220.086 491.5,210.5C 493.192,208.795 494.525,206.795 495.5,204.5C 495.5,204.167 495.5,203.833 495.5,203.5C 497.543,202.421 498.876,200.754 499.5,198.5C 499.833,198.5 500.167,198.5 500.5,198.5C 504.027,196.453 506.361,193.453 507.5,189.5C 510.155,188.503 512.155,186.836 513.5,184.5C 518.113,182.544 521.78,179.544 524.5,175.5C 525.262,173.738 526.596,172.738 528.5,172.5C 531.25,171.369 533.583,169.703 535.5,167.5C 536.71,167.068 537.71,166.401 538.5,165.5C 543.163,165.138 546.829,163.138 549.5,159.5C 552.583,157.804 555.917,156.47 559.5,155.5C 563.479,155.258 567.146,154.258 570.5,152.5C 573.85,152.665 577.183,152.498 580.5,152C 581.737,151.768 582.737,151.268 583.5,150.5 Z"/></g>
<g><path style="opacity:1" fill="#713e32" d="M 583.5,150.5 C 589.548,149.37 595.548,149.703 601.5,151.5C 595.5,151.167 589.5,150.833 583.5,150.5 Z"/></g>
<g><path style="opacity:0.904" fill="#3b1b18" d="M 709.5,656.5 C 712.869,658.927 715.536,661.927 717.5,665.5C 714.131,663.073 711.464,660.073 709.5,656.5 Z"/></g>
<g><path style="opacity:0.075" fill="#c46447" d="M 441.5,699.5 C 441.167,700.5 440.5,701.167 439.5,701.5C 439.5,700.167 440.167,699.5 441.5,699.5 Z"/></g>
<g><path style="opacity:0.071" fill="#b66f5a" d="M 737.5,699.5 C 738.11,700.391 738.443,701.391 738.5,702.5C 736.738,701.738 735.738,700.404 735.5,698.5C 735.435,698.062 735.601,697.728 736,697.5C 736.278,698.416 736.778,699.082 737.5,699.5 Z"/></g>
<g><path style="opacity:0.999" fill="#250403" d="M 738.5,693.5 C 741.326,696.484 743.659,699.817 745.5,703.5C 744.716,705.029 743.716,706.696 742.5,708.5C 741.833,708.5 741.5,708.167 741.5,707.5C 741.759,705.011 740.759,703.344 738.5,702.5C 738.443,701.391 738.11,700.391 737.5,699.5C 737.541,697.534 737.875,695.534 738.5,693.5 Z"/></g>
<g><path style="opacity:0.922" fill="#72382d" d="M 738.5,702.5 C 740.759,703.344 741.759,705.011 741.5,707.5C 740.11,706.101 739.11,704.434 738.5,702.5 Z"/></g>
<g><path style="opacity:1" fill="#bc896f" d="M 353.5,718.5 C 359.746,719.449 365.746,721.949 371.5,726C 370.939,727.566 371.606,728.899 373.5,730C 375.351,730.837 377.184,731.671 379,732.5C 379.023,736.56 379.523,740.394 380.5,744C 377.809,746.253 376.142,749.086 375.5,752.5C 374.448,752.351 373.448,752.517 372.5,753C 373.517,754.049 373.684,755.216 373,756.5C 371.159,753.352 368.826,753.352 366,756.5C 365.517,755.552 365.351,754.552 365.5,753.5C 363.856,753.286 362.356,753.62 361,754.5C 360.71,752.956 360.044,751.623 359,750.5C 358.667,750.833 358.333,751.167 358,751.5C 355.929,750.636 354.262,749.303 353,747.5C 351.16,748.833 350.66,748.666 351.5,747C 349.701,745.139 348.035,743.139 346.5,741C 345.207,740.51 343.873,740.343 342.5,740.5C 341.269,733.584 342.769,726.918 347,720.5C 348.43,720.306 349.93,720.306 351.5,720.5C 352.522,720.145 353.189,719.478 353.5,718.5 Z"/></g>
<g><path style="opacity:1" fill="#bc896f" d="M 818.5,718.5 C 820.01,719.728 821.51,719.728 823,718.5C 825.888,719.091 828.554,720.091 831,721.5C 834.538,727.783 835.704,734.117 834.5,740.5C 833.127,740.343 831.793,740.51 830.5,741C 828.965,743.139 827.299,745.139 825.5,747C 826.34,748.666 825.84,748.833 824,747.5C 822.738,749.303 821.071,750.636 819,751.5C 818.667,751.167 818.333,750.833 818,750.5C 816.956,751.623 816.29,752.956 816,754.5C 814.644,753.62 813.144,753.286 811.5,753.5C 811.649,754.552 811.483,755.552 811,756.5C 808.174,753.352 805.841,753.352 804,756.5C 803.316,755.216 803.483,754.049 804.5,753C 803.552,752.517 802.552,752.351 801.5,752.5C 800.858,749.086 799.191,746.253 796.5,744C 796.981,741.293 797.648,738.293 798.5,735C 798.355,734.228 798.022,733.561 797.5,733C 799.377,731.815 801.377,730.815 803.5,730C 805.394,728.899 806.061,727.566 805.5,726C 809.996,723.43 814.33,720.93 818.5,718.5 Z"/></g>
<g><path style="opacity:1" fill="#6f4338" d="M 704.5,730.5 C 704.747,735.567 705.413,740.567 706.5,745.5C 703.777,740.711 703.11,735.711 704.5,730.5 Z"/></g>
<g><path style="opacity:1" fill="#5e3128" d="M 472.5,736.5 C 472.59,739.152 471.924,741.485 470.5,743.5C 470.171,740.772 470.837,738.438 472.5,736.5 Z"/></g>
<g><path style="opacity:1" fill="#8e6355" d="M 470.5,744.5 C 471.52,750.918 470.186,756.585 466.5,761.5C 468.555,755.892 469.888,750.225 470.5,744.5 Z"/></g>
<g><path style="opacity:1" fill="#6b3d33" d="M 466.5,762.5 C 466.59,765.152 465.924,767.485 464.5,769.5C 464.41,766.848 465.076,764.515 466.5,762.5 Z"/></g>
<g><path style="opacity:1" fill="#bc896f" d="M 586.5,786.5 C 596.829,787.675 600.662,793.342 598,803.5C 596.954,805.09 595.787,806.59 594.5,808C 595.167,808.333 595.833,808.667 596.5,809C 594.351,810.152 592.518,811.652 591,813.5C 589.333,813.5 587.667,813.5 586,813.5C 584.482,811.652 582.649,810.152 580.5,809C 581.167,808.667 581.833,808.333 582.5,808C 578.695,803.909 577.528,799.076 579,793.5C 580.767,790.228 583.267,787.895 586.5,786.5 Z"/></g>
<g><path style="opacity:1" fill="#330806" d="M 446.5,857.5 C 446.249,859.17 445.582,860.67 444.5,862C 444.542,865.313 444.542,868.146 444.5,870.5C 443.926,867.764 443.592,864.931 443.5,862C 443.899,860.019 444.899,858.519 446.5,857.5 Z"/></g>
<g><path style="opacity:1" fill="#280704" d="M 442.5,890.5 C 442.857,896.515 443.191,902.682 443.5,909C 442.833,909.667 442.167,910.333 441.5,911C 442.791,912.292 442.791,913.458 441.5,914.5C 441.6,913.535 441.266,912.368 440.5,911C 441.277,904.18 441.944,897.347 442.5,890.5 Z"/></g>
<g><path style="opacity:1" fill="#300b09" d="M 584.5,923.5 C 585.845,926.051 586.511,928.884 586.5,932C 585.94,937.161 585.44,942.327 585,947.5C 584.841,949.343 584.341,950.009 583.5,949.5C 582.294,948.12 582.627,946.953 584.5,946C 584.167,944.333 583.833,942.667 583.5,941C 585.382,935.555 585.715,929.722 584.5,923.5 Z"/></g>
<g><path style="opacity:0.702" fill="#090000" d="M 168.5,945.5 C 168.833,945.5 169.167,945.5 169.5,945.5C 169.315,946.17 168.981,946.17 168.5,945.5 Z"/></g>
<g><path style="opacity:0.8" fill="#090000" d="M 1007.5,945.5 C 1007.83,945.5 1008.17,945.5 1008.5,945.5C 1008.31,946.17 1007.98,946.17 1007.5,945.5 Z"/></g>
<g><path style="opacity:0.985" fill="#2b0f0d" d="M 595.5,962.5 C 597.714,970.55 598.714,978.883 598.5,987.5C 597.732,986.737 597.232,985.737 597,984.5C 596.583,977.154 596.083,969.821 595.5,962.5 Z"/></g>
<g><path style="opacity:1" fill="#60332c" d="M 579.5,975.5 C 579.612,981.726 578.946,987.726 577.5,993.5C 577.388,987.274 578.054,981.274 579.5,975.5 Z"/></g>
<g><path style="opacity:1" fill="#6b3d34" d="M 619.5,1120.5 C 620.924,1122.51 621.59,1124.85 621.5,1127.5C 620.883,1127.39 620.383,1127.06 620,1126.5C 619.505,1124.53 619.338,1122.53 619.5,1120.5 Z"/></g>
<g><path style="opacity:0.982" fill="#683830" d="M 556.5,1126.5 C 555.537,1131.05 554.203,1135.38 552.5,1139.5C 552.808,1135.41 553.641,1131.41 555,1127.5C 555.383,1126.94 555.883,1126.61 556.5,1126.5 Z"/></g>
<g><path style="opacity:1" fill="#77483c" d="M 551.5,1144.5 C 550.964,1147.7 551.631,1150.36 553.5,1152.5C 553.5,1152.83 553.5,1153.17 553.5,1153.5C 552.5,1153.5 551.5,1153.5 550.5,1153.5C 550.19,1150.29 550.523,1147.29 551.5,1144.5 Z"/></g>
<g><path style="opacity:1" fill="#63342b" d="M 625.5,1144.5 C 626.158,1145.79 626.492,1147.29 626.5,1149C 625.117,1153.74 624.45,1158.58 624.5,1163.5C 623.839,1161.87 623.506,1160.03 623.5,1158C 624.574,1153.54 625.241,1149.04 625.5,1144.5 Z"/></g>
<g><path style="opacity:0.949" fill="#3c1412" d="M 553.5,1152.5 C 554.826,1157.58 554.493,1162.58 552.5,1167.5C 552.54,1162.81 552.873,1158.14 553.5,1153.5C 553.5,1153.17 553.5,1152.83 553.5,1152.5 Z"/></g>
<g><path style="opacity:1" fill="#bc8970" d="M 487.5,1171.5 C 496.619,1172.81 505.952,1173.97 515.5,1175C 517.591,1176.67 519.758,1177.17 522,1176.5C 522.928,1178.31 524.094,1179.97 525.5,1181.5C 524.395,1182.89 523.061,1184.06 521.5,1185C 522.833,1185.67 522.833,1186.33 521.5,1187C 524.363,1188.4 527.363,1189.4 530.5,1190C 526.451,1193.01 522.284,1195.85 518,1198.5C 517,1195.83 516,1195.83 515,1198.5C 514.667,1197.83 514.333,1197.17 514,1196.5C 512.333,1197.17 510.667,1197.83 509,1198.5C 508.333,1197.83 507.667,1197.17 507,1196.5C 503.797,1197.29 500.464,1197.63 497,1197.5C 494.333,1196.77 491.833,1195.11 489.5,1192.5C 488.033,1192.72 486.533,1193.06 485,1193.5C 483.524,1190.21 481.024,1188.21 477.5,1187.5C 476.96,1186.25 476.293,1185.09 475.5,1184C 476.833,1182 476.833,1180 475.5,1178C 478.457,1173.78 482.457,1171.61 487.5,1171.5 Z"/></g>
<g><path style="opacity:1" fill="#bc8970" d="M 683.5,1171.5 C 688.158,1172.06 692.825,1172.72 697.5,1173.5C 698.648,1175.15 699.981,1176.65 701.5,1178C 700.712,1181.08 700.212,1184.24 700,1187.5C 696.206,1187.96 693.539,1189.96 692,1193.5C 690.467,1193.06 688.967,1192.72 687.5,1192.5C 685.167,1195.11 682.667,1196.77 680,1197.5C 676.536,1197.63 673.203,1197.29 670,1196.5C 669.333,1197.17 668.667,1197.83 668,1198.5C 666.333,1197.83 664.667,1197.17 663,1196.5C 662.374,1198.99 661.541,1198.99 660.5,1196.5C 659.808,1197.03 659.308,1197.69 659,1198.5C 654.583,1196.04 650.417,1193.21 646.5,1190C 649.893,1189.2 653.226,1188.2 656.5,1187C 655.853,1185.01 654.187,1183.34 651.5,1182C 653.504,1180.58 655.004,1178.74 656,1176.5C 658.128,1176.93 660.295,1176.43 662.5,1175C 669.752,1174.51 676.752,1173.35 683.5,1171.5 Z"/></g>
<g><path style="opacity:0.975" fill="#401916" d="M 551.5,1172.5 C 551.26,1180.4 550.26,1188.07 548.5,1195.5C 548.131,1187.52 549.131,1179.85 551.5,1172.5 Z"/></g>
<g><path style="opacity:0.998" fill="#381412" d="M 627.5,1183.5 C 629.105,1190.6 629.772,1197.94 629.5,1205.5C 627.761,1198.41 627.094,1191.08 627.5,1183.5 Z"/></g>
<g><path style="opacity:1" fill="#885849" d="M 725.5,1217.5 C 725.751,1222.51 726.084,1227.51 726.5,1232.5C 724.507,1227.58 724.174,1222.58 725.5,1217.5 Z"/></g>
<g><path style="opacity:0.914" fill="#4c1e1a" d="M 630.5,1219.5 C 631.166,1225.32 631.5,1231.32 631.5,1237.5C 631.63,1247.38 630.963,1257.04 629.5,1266.5C 630.006,1250.84 630.339,1235.17 630.5,1219.5 Z"/></g>
<g><path style="opacity:0.992" fill="#62352c" d="M 547.5,1210.5 C 546.945,1225.49 546.611,1240.49 546.5,1255.5C 545.834,1249.68 545.5,1243.68 545.5,1237.5C 545.332,1228.28 545.999,1219.28 547.5,1210.5 Z"/></g>
<g><path style="opacity:1" fill="#51211b" d="M 729.5,1315.5 C 729.633,1317.77 729.633,1320.1 729.5,1322.5C 728.244,1320.06 728.244,1317.73 729.5,1315.5 Z"/></g>
<g><path style="opacity:1" fill="#5e2d24" d="M 534.5,1596.5 C 536.078,1601.58 536.745,1606.92 536.5,1612.5C 535.335,1607.37 534.668,1602.03 534.5,1596.5 Z"/></g>
</svg>
