<?xml version="1.0" encoding="UTF-8"?>
<!DOCTYPE svg PUBLIC "-//W3C//DTD SVG 1.1//EN" "http://www.w3.org/Graphics/SVG/1.1/DTD/svg11.dtd">
<svg xmlns="http://www.w3.org/2000/svg" version="1.1" width="1216px" height="1749px" style="shape-rendering:geometricPrecision; text-rendering:geometricPrecision; image-rendering:optimizeQuality; fill-rule:evenodd; clip-rule:evenodd" xmlns:xlink="http://www.w3.org/1999/xlink">
<g><path style="opacity:1" fill="#e9c5b2" d="M 583.5,150.5 C 589.5,150.833 595.5,151.167 601.5,151.5C 610.192,152.755 618.525,155.088 626.5,158.5C 627.784,160.614 629.784,161.614 632.5,161.5C 632.842,162.338 633.508,162.672 634.5,162.5C 634.414,163.496 634.748,164.329 635.5,165C 637.488,165.938 639.488,166.772 641.5,167.5C 643.464,169.127 644.797,171.127 645.5,173.5C 646.873,173.343 648.207,173.51 649.5,174C 652.697,176.77 656.031,179.27 659.5,181.5C 662.5,181.167 663.833,182.5 663.5,185.5C 664.552,185.351 665.552,185.517 666.5,186C 673.113,192.775 679.113,199.942 684.5,207.5C 684.692,211.102 686.026,214.102 688.5,216.5C 690.517,220.24 692.183,224.24 693.5,228.5C 693.808,232.595 694.641,236.595 696,240.5C 696.383,241.056 696.883,241.389 697.5,241.5C 698.296,246.112 698.963,250.779 699.5,255.5C 699.698,263.534 699.365,271.534 698.5,279.5C 698.5,284.833 698.5,290.167 698.5,295.5C 696.184,307.949 692.351,319.949 687,331.5C 688.043,353.354 681.71,372.688 668,389.5C 646.53,413.492 620.03,429.159 588.5,436.5C 581.979,435.786 575.645,434.286 569.5,432C 545.963,422.437 525.796,408.27 509,389.5C 495.29,372.688 488.957,353.354 490,331.5C 484.618,319.86 480.785,307.86 478.5,295.5C 477.249,277.812 477.415,260.145 479,242.5C 479.232,241.263 479.732,240.263 480.5,239.5C 482.577,235.503 483.91,231.169 484.5,226.5C 484.796,224.597 485.463,222.93 486.5,221.5C 487.476,218.894 488.976,216.561 491,214.5C 491.49,213.207 491.657,211.873 491.5,210.5C 492.428,207.403 494.094,204.736 496.5,202.5C 500.226,201.047 502.559,198.381 503.5,194.5C 503.5,193.833 503.833,193.5 504.5,193.5C 506.587,192.415 507.92,190.749 508.5,188.5C 510.795,187.864 512.461,186.531 513.5,184.5C 513.414,183.504 513.748,182.671 514.5,182C 524.53,174.381 534.863,167.215 545.5,160.5C 553.417,156.639 561.75,153.973 570.5,152.5C 574.182,152.665 577.848,152.499 581.5,152C 582.416,151.722 583.082,151.222 583.5,150.5 Z"/></g>
<g><path style="opacity:0.821" fill="#371114" d="M 706.5,302.5 C 706.577,299.988 705.577,297.988 703.5,296.5C 701.482,297.813 700.315,297.147 700,294.5C 699.617,295.056 699.117,295.389 698.5,295.5C 698.5,290.167 698.5,284.833 698.5,279.5C 699.268,278.737 699.768,277.737 700,276.5C 700.821,269.321 700.655,262.321 699.5,255.5C 698.963,250.779 698.296,246.112 697.5,241.5C 696.537,236.95 695.203,232.617 693.5,228.5C 692.183,224.24 690.517,220.24 688.5,216.5C 687.548,213.303 686.215,210.303 684.5,207.5C 679.113,199.942 673.113,192.775 666.5,186C 665.552,185.517 664.552,185.351 663.5,185.5C 663.833,182.5 662.5,181.167 659.5,181.5C 658.524,180.185 657.524,178.852 656.5,177.5C 651.615,173.898 646.615,170.565 641.5,167.5C 639.458,165.625 637.124,163.959 634.5,162.5C 633.508,162.672 632.842,162.338 632.5,161.5C 630.819,159.992 628.819,158.992 626.5,158.5C 618.525,155.088 610.192,152.755 601.5,151.5C 595.548,149.703 589.548,149.37 583.5,150.5C 578.9,150.28 574.567,150.946 570.5,152.5C 561.75,153.973 553.417,156.639 545.5,160.5C 534.863,167.215 524.53,174.381 514.5,182C 513.748,182.671 513.414,183.504 513.5,184.5C 511.251,185.08 509.585,186.413 508.5,188.5C 506.413,189.585 505.08,191.251 504.5,193.5C 503.833,193.5 503.5,193.833 503.5,194.5C 501.717,196.36 499.717,198.026 497.5,199.5C 496.873,200.417 496.539,201.417 496.5,202.5C 494.094,204.736 492.428,207.403 491.5,210.5C 488.678,213.582 487.011,217.248 486.5,221.5C 485.463,222.93 484.796,224.597 484.5,226.5C 483.883,226.611 483.383,226.944 483,227.5C 481.846,231.447 481.013,235.447 480.5,239.5C 479.732,240.263 479.232,241.263 479,242.5C 477.415,260.145 477.249,277.812 478.5,295.5C 478.769,297.429 478.269,299.095 477,300.5C 474.325,299.312 472.159,299.979 470.5,302.5C 456.414,246.83 472.08,201.996 517.5,168C 518.448,167.517 519.448,167.351 520.5,167.5C 520.5,166.5 520.5,165.5 520.5,164.5C 523.55,165.077 525.55,163.91 526.5,161C 528.722,160.305 530.889,159.472 533,158.5C 535.97,155.979 539.137,153.813 542.5,152C 546.556,151.649 550.223,150.315 553.5,148C 576.833,140.667 600.167,140.667 623.5,148C 626.777,150.315 630.444,151.649 634.5,152C 637.863,153.813 641.03,155.979 644,158.5C 647.652,159.249 650.485,161.082 652.5,164C 653.793,164.49 655.127,164.657 656.5,164.5C 656.5,165.5 656.5,166.5 656.5,167.5C 660.397,169.121 664.064,171.288 667.5,174C 704.277,205.664 718.11,245.831 709,294.5C 708.057,297.251 707.224,299.917 706.5,302.5 Z"/></g>
<g><path style="opacity:1" fill="#b38374" d="M 583.5,150.5 C 583.082,151.222 582.416,151.722 581.5,152C 577.848,152.499 574.182,152.665 570.5,152.5C 574.567,150.946 578.9,150.28 583.5,150.5 Z"/></g>
<g><path style="opacity:1" fill="#a06d61" d="M 583.5,150.5 C 589.548,149.37 595.548,149.703 601.5,151.5C 595.5,151.167 589.5,150.833 583.5,150.5 Z"/></g>
<g><path style="opacity:1" fill="#a37064" d="M 626.5,158.5 C 628.819,158.992 630.819,159.992 632.5,161.5C 629.784,161.614 627.784,160.614 626.5,158.5 Z"/></g>
<g><path style="opacity:1" fill="#946257" d="M 634.5,162.5 C 637.124,163.959 639.458,165.625 641.5,167.5C 639.488,166.772 637.488,165.938 635.5,165C 634.748,164.329 634.414,163.496 634.5,162.5 Z"/></g>
<g><path style="opacity:1" fill="#bb8c7d" d="M 641.5,167.5 C 646.615,170.565 651.615,173.898 656.5,177.5C 657.524,178.852 658.524,180.185 659.5,181.5C 656.031,179.27 652.697,176.77 649.5,174C 648.207,173.51 646.873,173.343 645.5,173.5C 644.797,171.127 643.464,169.127 641.5,167.5 Z"/></g>
<g><path style="opacity:1" fill="#a77567" d="M 513.5,184.5 C 512.461,186.531 510.795,187.864 508.5,188.5C 509.585,186.413 511.251,185.08 513.5,184.5 Z"/></g>
<g><path style="opacity:1" fill="#a57366" d="M 508.5,188.5 C 507.92,190.749 506.587,192.415 504.5,193.5C 505.08,191.251 506.413,189.585 508.5,188.5 Z"/></g>
<g><path style="opacity:1" fill="#bc8d7f" d="M 503.5,194.5 C 502.559,198.381 500.226,201.047 496.5,202.5C 496.539,201.417 496.873,200.417 497.5,199.5C 499.717,198.026 501.717,196.36 503.5,194.5 Z"/></g>
<g><path style="opacity:1" fill="#ab7a6d" d="M 491.5,210.5 C 491.657,211.873 491.49,213.207 491,214.5C 488.976,216.561 487.476,218.894 486.5,221.5C 487.011,217.248 488.678,213.582 491.5,210.5 Z"/></g>
<g><path style="opacity:1" fill="#99675b" d="M 684.5,207.5 C 686.215,210.303 687.548,213.303 688.5,216.5C 686.026,214.102 684.692,211.102 684.5,207.5 Z"/></g>
<g><path style="opacity:1" fill="#a57466" d="M 693.5,228.5 C 695.203,232.617 696.537,236.95 697.5,241.5C 696.883,241.389 696.383,241.056 696,240.5C 694.641,236.595 693.808,232.595 693.5,228.5 Z"/></g>
<g><path style="opacity:1" fill="#ab796b" d="M 484.5,226.5 C 483.91,231.169 482.577,235.503 480.5,239.5C 481.013,235.447 481.846,231.447 483,227.5C 483.383,226.944 483.883,226.611 484.5,226.5 Z"/></g>
<g><path style="opacity:1" fill="#86544c" d="M 699.5,255.5 C 700.655,262.321 700.821,269.321 700,276.5C 699.768,277.737 699.268,278.737 698.5,279.5C 699.365,271.534 699.698,263.534 699.5,255.5 Z"/></g>
<g><path style="opacity:1" fill="#e9c5b2" d="M 680.5,481.5 C 679.909,482.151 679.243,482.818 678.5,483.5C 682.686,485.149 687.019,486.482 691.5,487.5C 698.078,490.103 704.412,493.103 710.5,496.5C 709.608,498.946 708.108,499.612 706,498.5C 702.661,501.678 700.495,505.512 699.5,510C 699.957,513.248 699.957,516.581 699.5,520C 701.732,533.085 707.065,545.251 715.5,556.5C 719.925,560.39 724.759,562.723 730,563.5C 730.75,562.874 731.584,562.374 732.5,562C 732.167,561.667 731.833,561.333 731.5,561C 734.861,560.946 737.861,559.946 740.5,558C 740.167,557.667 739.833,557.333 739.5,557C 742.849,554.647 745.849,551.98 748.5,549C 747.409,546.936 747.242,544.769 748,542.5C 748.383,543.056 748.883,543.389 749.5,543.5C 751.651,549.69 754.484,556.024 758,562.5C 764.543,585.125 772.21,607.791 781,630.5C 791.072,649.651 802.406,667.984 815,685.5C 816.009,687.025 816.509,688.692 816.5,690.5C 817.5,690.5 818.5,690.5 819.5,690.5C 819.519,692.06 819.852,693.56 820.5,695C 829.316,706.5 836.482,719 842,732.5C 844.537,734.432 847.204,736.099 850,737.5C 873.267,769.915 896.6,801.581 920,832.5C 923.626,837.054 928.126,839.554 933.5,840C 940.708,846.332 948.541,850.832 957,853.5C 969.335,859.918 982.168,865.085 995.5,869C 999.865,871.199 1002.53,874.699 1003.5,879.5C 1002.62,880.251 1001.62,880.751 1000.5,881C 990.936,881.73 981.769,880.23 973,876.5C 967.61,879.24 967.11,882.74 971.5,887C 971.167,887.333 970.833,887.667 970.5,888C 982.558,903.216 995.224,918.049 1008.5,932.5C 1009.31,934.071 1009.64,935.738 1009.5,937.5C 1005.4,937.116 1001.73,935.616 998.5,933C 989.142,923.582 979.309,914.749 969,906.5C 967.779,907.774 966.946,909.274 966.5,911C 973.904,921.641 980.404,932.808 986,944.5C 986.535,947.561 986.868,950.561 987,953.5C 974.605,944.91 964.772,934.077 957.5,921C 957.833,920.667 958.167,920.333 958.5,920C 956.212,917.257 954.045,914.423 952,911.5C 948.365,907.229 945.531,907.729 943.5,913C 946.974,919.316 949.64,925.649 951.5,932C 951.405,935.409 952.405,938.742 954.5,942C 953.663,943.011 953.33,944.178 953.5,945.5C 949.429,945.421 945.929,943.421 943,939.5C 934.906,928.812 929.073,916.978 925.5,904C 923.08,903.313 920.913,903.813 919,905.5C 918.65,909.533 918.483,913.367 918.5,917C 919.167,919.667 919.833,922.333 920.5,925C 919.809,926.067 919.309,927.234 919,928.5C 913.565,919.586 911.065,910.086 911.5,900C 910.833,898.667 910.167,897.333 909.5,896C 910.571,889.008 908.571,882.508 903.5,876.5C 887.865,856.943 870.365,839.277 851,823.5C 829.075,793.915 804.741,766.581 778,741.5C 768.997,726.826 757.997,713.826 745,702.5C 736.589,692.009 728.923,681.009 722,669.5C 718.543,666.899 715.709,663.732 713.5,660C 712.552,659.517 711.552,659.351 710.5,659.5C 710.509,657.692 710.009,656.025 709,654.5C 699.58,643.148 695.58,630.148 697,615.5C 701.1,607.959 703.6,599.793 704.5,591C 704,590.5 703.5,590 703,589.5C 702.333,590.833 701.667,590.833 701,589.5C 700.333,590.833 699.333,591.833 698,592.5C 697.127,598.446 695.461,604.113 693,609.5C 691.831,620.805 690.331,631.971 688.5,643C 688.942,655.119 690.442,667.285 693,679.5C 698.772,698.724 702.772,718.057 705,737.5C 706.515,746.263 708.348,754.929 710.5,763.5C 711.656,765.824 712.656,768.157 713.5,770.5C 715.159,780.639 717.826,790.473 721.5,800C 720.833,801 720.167,802 719.5,803C 724.281,810.826 726.615,819.159 726.5,828C 728.242,832.011 728.909,836.011 728.5,840C 729.812,846.43 730.645,852.93 731,859.5C 731.374,860.416 731.874,861.25 732.5,862C 732.268,865.038 731.934,867.704 731.5,870C 732.699,876.495 733.699,883.162 734.5,890C 734.21,896.288 733.877,902.622 733.5,909C 734.167,909.667 734.833,910.333 735.5,911C 734.588,919.45 734.254,927.784 734.5,936C 735.357,936.689 736.023,937.522 736.5,938.5C 735.477,957.7 735.477,977.367 736.5,997.5C 736.542,1002.71 736.875,1007.55 737.5,1012C 736.833,1016.67 736.167,1021.33 735.5,1026C 735.416,1031.42 735.749,1036.58 736.5,1041.5C 735.608,1047.71 734.608,1053.88 733.5,1060C 733.833,1062.33 734.167,1064.67 734.5,1067C 734,1067.5 733.5,1068 733,1068.5C 732.382,1074.41 731.548,1080.25 730.5,1086C 730.813,1091.71 730.813,1097.37 730.5,1103C 729.833,1104 729.167,1105 728.5,1106C 728.493,1107.58 728.826,1109.25 729.5,1111C 728.833,1112.67 728.167,1114.33 727.5,1116C 728.051,1117.4 728.384,1118.73 728.5,1120C 727.799,1126.04 726.799,1132.04 725.5,1138C 725.439,1142.27 725.439,1146.61 725.5,1151C 723.002,1157.55 722.669,1164.05 724.5,1170.5C 724.765,1177.41 724.432,1184.91 723.5,1193C 726.765,1233.49 729.098,1273.83 730.5,1314C 728.32,1316.42 727.987,1319.08 729.5,1322C 728.106,1328.21 727.44,1334.54 727.5,1341C 728.609,1365.61 727.942,1390.45 725.5,1415.5C 725.511,1424.71 725.511,1433.88 725.5,1443C 722.984,1458.1 721.318,1473.1 720.5,1488C 721.668,1492.17 723.501,1496 726,1499.5C 726.167,1501.83 726.333,1504.17 726.5,1506.5C 724.978,1521.99 723.311,1537.49 721.5,1553C 722.632,1571.77 722.632,1590.43 721.5,1609C 724.082,1618.99 723.915,1629.15 721,1639.5C 720.196,1641.94 718.696,1643.78 716.5,1645C 707.611,1644.81 698.944,1645.97 690.5,1648.5C 689.833,1648.17 689.167,1647.83 688.5,1647.5C 681.199,1650.19 674.032,1652.19 667,1653.5C 666.127,1653.26 665.293,1652.93 664.5,1652.5C 658.68,1653.01 653.013,1654.01 647.5,1655.5C 644.242,1654.96 641.742,1653.29 640,1650.5C 639.661,1641.41 639.495,1632.41 639.5,1623.5C 639.782,1620.87 640.449,1618.37 641.5,1616C 640.978,1615.44 640.645,1614.77 640.5,1614C 644.019,1587.76 647.019,1561.76 649.5,1536C 649.167,1535.67 648.833,1535.33 648.5,1535C 649.167,1532.33 649.833,1529.67 650.5,1527C 650.162,1520.03 650.162,1512.86 650.5,1505.5C 649.349,1501.42 648.682,1497.26 648.5,1493C 648.946,1482.12 649.279,1471.28 649.5,1460.5C 649.097,1457.24 648.43,1454.07 647.5,1451C 647.464,1441.68 647.464,1432.34 647.5,1423C 647.022,1418.53 646.022,1414.2 644.5,1410C 645.022,1409.44 645.355,1408.77 645.5,1408C 643.521,1386.77 641.021,1365.6 638,1344.5C 637.988,1342.66 637.154,1340.83 635.5,1339C 635.957,1338.59 636.291,1338.09 636.5,1337.5C 634.726,1327.25 633.226,1316.91 632,1306.5C 631.562,1293.14 630.729,1279.8 629.5,1266.5C 630.963,1257.04 631.63,1247.38 631.5,1237.5C 631.5,1231.32 631.166,1225.32 630.5,1219.5C 630.726,1214.44 630.392,1209.44 629.5,1204.5C 629.741,1197.27 629.075,1190.27 627.5,1183.5C 628.255,1178.61 627.588,1173.95 625.5,1169.5C 624.735,1166.9 624.401,1164.24 624.5,1161.5C 624.601,1157.26 625.268,1153.09 626.5,1149C 626.492,1147.29 626.158,1145.79 625.5,1144.5C 623.887,1135.77 621.887,1127.11 619.5,1118.5C 613.78,1107.51 609.947,1095.84 608,1083.5C 604.335,1047.47 601.002,1011.47 598,975.5C 597.468,969.177 596.302,963.01 594.5,957C 594.607,953.935 594.607,950.935 594.5,948C 593.833,947.333 593.167,946.667 592.5,946C 592.833,944.333 593.167,942.667 593.5,941C 591.156,933.531 591.156,925.698 593.5,917.5C 596.161,916.668 598.828,915.834 601.5,915C 603.155,913.556 603.822,911.722 603.5,909.5C 600.561,910.462 597.728,910.795 595,910.5C 593.667,909.167 592.333,907.833 591,906.5C 589.394,908.984 587.894,908.984 586.5,906.5C 584.594,907.578 583.094,908.911 582,910.5C 579.272,910.795 576.439,910.462 573.5,909.5C 573.178,911.722 573.845,913.556 575.5,915C 578.172,915.834 580.839,916.668 583.5,917.5C 585.844,925.698 585.844,933.531 583.5,941C 583.833,942.667 584.167,944.333 584.5,946C 582.875,946.853 582.542,947.853 583.5,949C 581.718,957.742 580.218,966.575 579,975.5C 575.608,1015.2 571.608,1054.87 567,1094.5C 559.66,1111.35 554.493,1128.85 551.5,1147C 552.283,1150.84 552.95,1154.67 553.5,1158.5C 549.422,1178.25 546.922,1198.58 546,1219.5C 545.174,1231.67 545.34,1243.67 546.5,1255.5C 547.024,1268.35 547.024,1281.52 546.5,1295C 544.995,1309.2 542.995,1323.37 540.5,1337.5C 541.347,1339.06 541.014,1340.56 539.5,1342C 539.833,1342.33 540.167,1342.67 540.5,1343C 536.287,1363.94 533.287,1385.1 531.5,1406.5C 531.57,1407.77 531.903,1408.94 532.5,1410C 530.978,1414.2 529.978,1418.53 529.5,1423C 530.081,1423.89 530.415,1424.89 530.5,1426C 529.721,1437.68 528.721,1449.35 527.5,1461C 527.575,1471.6 527.908,1482.26 528.5,1493C 528.318,1497.26 527.651,1501.42 526.5,1505.5C 526.757,1511.91 526.757,1518.41 526.5,1525C 527.167,1528.33 527.833,1531.67 528.5,1535C 528.167,1535.33 527.833,1535.67 527.5,1536C 529.981,1561.76 532.981,1587.76 536.5,1614C 536.355,1614.77 536.022,1615.44 535.5,1616C 536.551,1618.37 537.218,1620.87 537.5,1623.5C 537.294,1632.55 537.128,1641.55 537,1650.5C 535.258,1653.29 532.758,1654.96 529.5,1655.5C 523.987,1654.01 518.32,1653.01 512.5,1652.5C 511.707,1652.93 510.873,1653.26 510,1653.5C 502.968,1652.19 495.801,1650.19 488.5,1647.5C 485.157,1648.01 481.824,1647.51 478.5,1646C 472.5,1645.67 466.5,1645.33 460.5,1645C 459.584,1644.63 458.75,1644.13 458,1643.5C 456.516,1640.56 455.182,1637.56 454,1634.5C 453.647,1628.84 453.481,1623.34 453.5,1618C 454.077,1614.94 454.743,1611.94 455.5,1609C 454.42,1590.46 454.42,1571.79 455.5,1553C 453.7,1537.48 452.034,1521.98 450.5,1506.5C 450.667,1504.17 450.833,1501.83 451,1499.5C 453.499,1496 455.332,1492.17 456.5,1488C 456.112,1485.53 456.112,1483.19 456.5,1481C 455.738,1473.93 454.738,1466.93 453.5,1460C 454.634,1458.98 454.301,1458.32 452.5,1458C 453.571,1453.58 453.237,1448.91 451.5,1444C 452.131,1442.09 452.464,1440.09 452.5,1438C 450.352,1414.3 449.019,1390.14 448.5,1365.5C 448.644,1357.31 448.978,1349.14 449.5,1341C 449.513,1334.1 448.846,1327.26 447.5,1320.5C 449.158,1317.99 448.825,1315.82 446.5,1314C 448.009,1272.85 450.343,1231.51 453.5,1190C 452.963,1182.92 452.63,1176.42 452.5,1170.5C 454.331,1164.05 453.998,1157.55 451.5,1151C 451.561,1146.61 451.561,1142.27 451.5,1138C 450.201,1132.04 449.201,1126.04 448.5,1120C 448.616,1118.73 448.949,1117.4 449.5,1116C 448.833,1114.33 448.167,1112.67 447.5,1111C 448.174,1109.25 448.507,1107.58 448.5,1106C 446.871,1103.74 446.538,1101.41 447.5,1099C 445.853,1094.68 445.519,1090.35 446.5,1086C 445.452,1080.25 444.618,1074.41 444,1068.5C 443.5,1068 443,1067.5 442.5,1067C 442.833,1064.67 443.167,1062.33 443.5,1060C 442.392,1053.88 441.392,1047.71 440.5,1041.5C 441.251,1036.58 441.584,1031.42 441.5,1026C 440.833,1021.33 440.167,1016.67 439.5,1012C 440.597,1003.02 440.597,994.021 439.5,985C 440.044,982.6 440.711,980.267 441.5,978C 440.791,970.228 440.791,962.728 441.5,955.5C 441.591,941.303 441.591,926.47 441.5,911C 442.167,910.333 442.833,909.667 443.5,909C 443.123,902.622 442.79,896.288 442.5,890C 443.289,887.733 443.956,885.4 444.5,883C 444.366,880.4 444.366,877.9 444.5,875.5C 445.063,870.885 445.063,866.385 444.5,862C 446.227,859.096 446.893,855.93 446.5,852.5C 446.933,848.3 447.6,844.133 448.5,840C 448.091,836.011 448.758,832.011 450.5,828C 450.355,827.228 450.022,826.561 449.5,826C 455.6,803.488 461.766,780.655 468,757.5C 468.944,752.809 469.778,748.142 470.5,743.5C 471.924,741.485 472.59,739.152 472.5,736.5C 472.983,731.902 472.983,727.402 472.5,723C 476.618,704.076 481.118,685.243 486,666.5C 485.967,659.249 486.801,652.082 488.5,645C 486.82,634.8 485.653,624.3 485,613.5C 482.07,606.78 480.237,599.78 479.5,592.5C 477.339,592.174 475.506,591.174 474,589.5C 473.009,590.43 472.509,591.596 472.5,593C 474.059,600.248 475.892,607.415 478,614.5C 478.667,615.167 479.333,615.833 480,616.5C 480.906,625.971 479.239,634.971 475,643.5C 472.075,650.403 467.741,656.069 462,660.5C 452.401,674.769 442.401,688.769 432,702.5C 419.179,714.495 408.012,727.828 398.5,742.5C 371.771,767.07 347.605,794.07 326,823.5C 306.635,839.277 289.135,856.943 273.5,876.5C 268.429,882.508 266.429,889.008 267.5,896C 266.237,897.705 265.903,899.372 266.5,901C 265.753,910.823 262.92,919.99 258,928.5C 257.691,927.234 257.191,926.067 256.5,925C 257.167,922.333 257.833,919.667 258.5,917C 258.517,913.367 258.35,909.533 258,905.5C 256.087,903.813 253.92,903.313 251.5,904C 246.89,919.727 239.056,933.56 228,945.5C 226.701,945.034 225.201,945.034 223.5,945.5C 223.67,944.178 223.337,943.011 222.5,942C 224.595,938.742 225.595,935.409 225.5,932C 227.36,925.649 230.026,919.316 233.5,913C 231.469,907.729 228.635,907.229 225,911.5C 222.955,914.423 220.788,917.257 218.5,920C 218.833,920.333 219.167,920.667 219.5,921C 212.228,934.077 202.395,944.91 190,953.5C 190.141,948.178 191.308,943.011 193.5,938C 199.167,929 204.833,920 210.5,911C 209.899,906.685 207.899,905.685 204.5,908C 195.825,916.377 187.158,924.71 178.5,933C 175.271,935.616 171.604,937.116 167.5,937.5C 167.357,935.738 167.691,934.071 168.5,932.5C 178.863,920.475 189.196,908.475 199.5,896.5C 202.72,892.12 205.72,887.62 208.5,883C 208.875,879.965 207.375,877.798 204,876.5C 195.231,880.23 186.064,881.73 176.5,881C 175.376,880.751 174.376,880.251 173.5,879.5C 174.468,874.699 177.135,871.199 181.5,869C 195.968,864.396 209.635,858.896 222.5,852.5C 230.46,849.857 237.46,845.691 243.5,840C 248.874,839.554 253.374,837.054 257,832.5C 280.4,801.581 303.733,769.915 327,737.5C 329.796,736.099 332.463,734.432 335,732.5C 338.452,724.813 342.286,717.313 346.5,710C 353.794,697.729 361.627,685.895 370,674.5C 370.483,673.552 370.649,672.552 370.5,671.5C 371.5,671.5 372.5,671.5 373.5,671.5C 373.838,669.146 374.338,666.813 375,664.5C 391.798,642.415 402.964,617.915 408.5,591C 409.67,588.815 410.836,586.649 412,584.5C 415.673,569.898 420.84,556.231 427.5,543.5C 428.117,543.389 428.617,543.056 429,542.5C 429.758,544.769 429.591,546.936 428.5,549C 431.151,551.98 434.151,554.647 437.5,557C 437.167,557.333 436.833,557.667 436.5,558C 439.139,559.946 442.139,560.946 445.5,561C 445.167,561.333 444.833,561.667 444.5,562C 445.416,562.374 446.25,562.874 447,563.5C 452.241,562.723 457.075,560.39 461.5,556.5C 473.982,541.567 478.815,524.567 476,505.5C 474.451,501.571 471.951,499.405 468.5,499C 467.29,497.961 466.29,496.794 465.5,495.5C 472.321,491.995 479.321,488.995 486.5,486.5C 489.941,486.699 493.274,486.199 496.5,485C 498.107,483.951 498.773,482.451 498.5,480.5C 509.752,475.574 521.252,470.907 533,466.5C 533.333,466.833 533.667,467.167 534,467.5C 539.264,465.08 544.431,462.414 549.5,459.5C 550.426,462.044 551.426,464.544 552.5,467C 554.107,466.981 555.774,466.815 557.5,466.5C 557.665,463.15 557.498,459.817 557,456.5C 555.453,449.08 553.62,441.747 551.5,434.5C 557.683,435.923 563.683,437.923 569.5,440.5C 569.414,441.496 569.748,442.329 570.5,443C 582.172,446.332 593.839,446.332 605.5,443C 608.844,441.995 611.844,440.495 614.5,438.5C 618.015,436.73 621.682,435.064 625.5,433.5C 625.833,434 626.167,434.5 626.5,435C 620.913,445.929 619.08,457.429 621,469.5C 621.333,468.5 621.667,467.5 622,466.5C 623,467.833 624,467.833 625,466.5C 625.681,464.105 626.515,461.772 627.5,459.5C 630.213,460.905 632.879,462.405 635.5,464C 650.855,469.169 665.855,475.003 680.5,481.5 Z"/></g>
<g><path style="opacity:0.963" fill="#3a1315" d="M 706.5,302.5 C 706.369,303.376 706.702,304.043 707.5,304.5C 711.872,303.151 716.206,303.318 720.5,305C 732.314,313.618 738.981,325.285 740.5,340C 740.439,346.715 738.606,353.548 735,360.5C 731.027,365.074 727.194,369.074 723.5,372.5C 717.725,375.476 712.225,378.143 707,380.5C 706.586,380.043 706.086,379.709 705.5,379.5C 701.633,380.135 697.8,380.801 694,381.5C 691.816,382.108 689.816,381.441 688,379.5C 677.473,396.359 663.973,410.192 647.5,421C 646.743,422.512 645.743,423.846 644.5,425C 641.541,425.772 639.041,427.272 637,429.5C 636.292,433.249 635.292,436.916 634,440.5C 631.773,444.818 629.607,449.152 627.5,453.5C 631.072,456.314 635.072,458.481 639.5,460C 652.155,464.331 664.822,468.665 677.5,473C 686.258,477.435 694.758,482.268 703,487.5C 703.414,487.043 703.914,486.709 704.5,486.5C 711.805,488.93 718.805,491.93 725.5,495.5C 725.5,496.5 725.5,497.5 725.5,498.5C 726.822,498.33 727.989,498.663 729,499.5C 730.333,502.167 731.667,504.833 733,507.5C 740.839,517.853 748.172,528.52 755,539.5C 757.894,546.288 761.06,552.955 764.5,559.5C 764.167,560.167 763.833,560.833 763.5,561.5C 771.606,580.465 778.773,600.131 785,620.5C 790.049,628.996 794.715,637.662 799,646.5C 801.863,648.897 803.697,651.897 804.5,655.5C 806.942,655.354 807.609,656.187 806.5,658C 812.548,666.906 818.881,675.739 825.5,684.5C 833.443,697.353 840.943,710.686 848,724.5C 876.448,761.093 905.114,797.426 934,833.5C 940.156,838.45 946.989,842.283 954.5,845C 967.305,850.159 980.139,855.326 993,860.5C 993.333,860.167 993.667,859.833 994,859.5C 996.333,860.833 998.667,862.167 1001,863.5C 1001.33,863.167 1001.67,862.833 1002,862.5C 1009.84,868.159 1012.01,875.159 1008.5,883.5C 1004.84,886.774 1000.51,888.44 995.5,888.5C 989.879,887.528 984.212,886.695 978.5,886C 991.897,900.725 1004.9,915.725 1017.5,931C 1019.82,938.711 1016.82,943.545 1008.5,945.5C 1008.17,944.167 1007.83,944.167 1007.5,945.5C 1006.6,944.402 1005.77,944.402 1005,945.5C 1004.15,943.875 1003.15,943.542 1002,944.5C 999.342,942.044 996.675,940.377 994,939.5C 993.085,938.672 992.419,937.672 992,936.5C 993.452,941.797 994.619,946.964 995.5,952C 994.632,954.235 993.632,956.402 992.5,958.5C 990.566,958.901 989.066,959.901 988,961.5C 984.089,960.421 980.589,958.588 977.5,956C 972.641,951.472 967.807,946.972 963,942.5C 962.272,947.564 959.605,951.23 955,953.5C 952.333,953.5 949.667,953.5 947,953.5C 938.638,947.679 932.305,940.679 928,932.5C 925.659,934.502 923.325,936.502 921,938.5C 914.521,936.693 909.854,932.693 907,926.5C 906,923.833 905,921.167 904,918.5C 902.105,908.189 900.938,898.023 900.5,888C 899.283,886.352 898.45,884.519 898,882.5C 890.371,875.194 883.371,867.194 877,858.5C 854.013,840.54 834.679,819.873 819,796.5C 817.667,795.833 816.333,795.167 815,794.5C 807.621,786.123 800.621,777.456 794,768.5C 779.205,756.322 766.539,741.656 756,724.5C 751.232,718.763 746.399,713.096 741.5,707.5C 741.759,705.011 740.759,703.344 738.5,702.5C 737.839,700.243 736.839,698.909 735.5,698.5C 733.233,695.729 730.733,693.062 728,690.5C 721.756,679.602 714.089,669.936 705,661.5C 701.831,655.828 698.664,650.161 695.5,644.5C 695.167,645.167 694.833,645.833 694.5,646.5C 697.167,667.669 702,688.335 709,708.5C 710.628,714.388 711.628,720.388 712,726.5C 712.684,728.359 713.684,730.026 715,731.5C 716.701,744.939 719.034,758.272 722,771.5C 731.625,805.715 738.458,839.881 742.5,874C 742.384,875.268 742.051,876.602 741.5,878C 742.604,886.762 743.604,895.429 744.5,904C 744.481,907.309 744.148,910.642 743.5,914C 744.167,915.333 744.833,916.667 745.5,918C 745.421,921.79 745.088,925.624 744.5,929.5C 745.142,934.365 745.808,939.199 746.5,944C 745.633,946.823 745.299,949.823 745.5,953C 746.167,956.333 746.833,959.667 747.5,963C 747.473,976.077 747.473,988.577 747.5,1000.5C 746.678,999.007 745.511,997.674 744,996.5C 741.582,996.37 739.082,996.703 736.5,997.5C 735.477,977.367 735.477,957.7 736.5,938.5C 736.023,937.522 735.357,936.689 734.5,936C 734.254,927.784 734.588,919.45 735.5,911C 734.833,910.333 734.167,909.667 733.5,909C 733.877,902.622 734.21,896.288 734.5,890C 733.699,883.162 732.699,876.495 731.5,870C 731.934,867.704 732.268,865.038 732.5,862C 731.874,861.25 731.374,860.416 731,859.5C 730.645,852.93 729.812,846.43 728.5,840C 728.909,836.011 728.242,832.011 726.5,828C 726.615,819.159 724.281,810.826 719.5,803C 720.167,802 720.833,801 721.5,800C 717.826,790.473 715.159,780.639 713.5,770.5C 713.66,768.801 713.494,767.134 713,765.5C 712.583,764.244 711.75,763.577 710.5,763.5C 708.348,754.929 706.515,746.263 705,737.5C 702.772,718.057 698.772,698.724 693,679.5C 690.442,667.285 688.942,655.119 688.5,643C 690.331,631.971 691.831,620.805 693,609.5C 695.461,604.113 697.127,598.446 698,592.5C 699.333,591.833 700.333,590.833 701,589.5C 701.667,590.833 702.333,590.833 703,589.5C 703.5,590 704,590.5 704.5,591C 703.6,599.793 701.1,607.959 697,615.5C 695.58,630.148 699.58,643.148 709,654.5C 710.009,656.025 710.509,657.692 710.5,659.5C 711.552,659.351 712.552,659.517 713.5,660C 715.709,663.732 718.543,666.899 722,669.5C 728.923,681.009 736.589,692.009 745,702.5C 757.997,713.826 768.997,726.826 778,741.5C 804.741,766.581 829.075,793.915 851,823.5C 870.365,839.277 887.865,856.943 903.5,876.5C 908.571,882.508 910.571,889.008 909.5,896C 910.167,897.333 910.833,898.667 911.5,900C 911.065,910.086 913.565,919.586 919,928.5C 919.309,927.234 919.809,926.067 920.5,925C 919.833,922.333 919.167,919.667 918.5,917C 918.483,913.367 918.65,909.533 919,905.5C 920.913,903.813 923.08,903.313 925.5,904C 929.073,916.978 934.906,928.812 943,939.5C 945.929,943.421 949.429,945.421 953.5,945.5C 953.33,944.178 953.663,943.011 954.5,942C 952.405,938.742 951.405,935.409 951.5,932C 949.64,925.649 946.974,919.316 943.5,913C 945.531,907.729 948.365,907.229 952,911.5C 954.045,914.423 956.212,917.257 958.5,920C 958.167,920.333 957.833,920.667 957.5,921C 964.772,934.077 974.605,944.91 987,953.5C 986.868,950.561 986.535,947.561 986,944.5C 980.404,932.808 973.904,921.641 966.5,911C 966.946,909.274 967.779,907.774 969,906.5C 979.309,914.749 989.142,923.582 998.5,933C 1001.73,935.616 1005.4,937.116 1009.5,937.5C 1009.64,935.738 1009.31,934.071 1008.5,932.5C 995.224,918.049 982.558,903.216 970.5,888C 970.833,887.667 971.167,887.333 971.5,887C 967.11,882.74 967.61,879.24 973,876.5C 981.769,880.23 990.936,881.73 1000.5,881C 1001.62,880.751 1002.62,880.251 1003.5,879.5C 1002.53,874.699 999.865,871.199 995.5,869C 982.168,865.085 969.335,859.918 957,853.5C 948.541,850.832 940.708,846.332 933.5,840C 928.126,839.554 923.626,837.054 920,832.5C 896.6,801.581 873.267,769.915 850,737.5C 847.204,736.099 844.537,734.432 842,732.5C 836.482,719 829.316,706.5 820.5,695C 819.852,693.56 819.519,692.06 819.5,690.5C 818.5,690.5 817.5,690.5 816.5,690.5C 816.509,688.692 816.009,687.025 815,685.5C 802.406,667.984 791.072,649.651 781,630.5C 772.21,607.791 764.543,585.125 758,562.5C 754.484,556.024 751.651,549.69 749.5,543.5C 750.172,540.092 749.172,537.425 746.5,535.5C 739.29,523.925 730.957,512.592 721.5,501.5C 717.961,499.564 714.295,497.898 710.5,496.5C 704.412,493.103 698.078,490.103 691.5,487.5C 690.713,485.896 689.38,485.229 687.5,485.5C 687.33,484.178 687.663,483.011 688.5,482C 687.085,482.255 685.585,482.755 684,483.5C 682.566,483.138 681.399,482.472 680.5,481.5C 665.855,475.003 650.855,469.169 635.5,464C 632.879,462.405 630.213,460.905 627.5,459.5C 626.515,461.772 625.681,464.105 625,466.5C 624,467.833 623,467.833 622,466.5C 621.667,467.5 621.333,468.5 621,469.5C 619.08,457.429 620.913,445.929 626.5,435C 626.167,434.5 625.833,434 625.5,433.5C 621.682,435.064 618.015,436.73 614.5,438.5C 606.221,441.891 597.554,443.891 588.5,444.5C 581.913,444.087 575.58,442.753 569.5,440.5C 563.683,437.923 557.683,435.923 551.5,434.5C 553.62,441.747 555.453,449.08 557,456.5C 557.498,459.817 557.665,463.15 557.5,466.5C 555.774,466.815 554.107,466.981 552.5,467C 551.426,464.544 550.426,462.044 549.5,459.5C 544.431,462.414 539.264,465.08 534,467.5C 533.667,467.167 533.333,466.833 533,466.5C 521.252,470.907 509.752,475.574 498.5,480.5C 496.767,481.008 496.434,481.841 497.5,483C 493.839,484.593 490.172,485.759 486.5,486.5C 479.321,488.995 472.321,491.995 465.5,495.5C 460.978,498.016 456.478,500.682 452,503.5C 445.941,512.59 439.607,521.59 433,530.5C 432.517,531.448 432.351,532.448 432.5,533.5C 430.058,533.119 429.391,533.786 430.5,535.5C 427.828,537.425 426.828,540.092 427.5,543.5C 420.84,556.231 415.673,569.898 412,584.5C 410.836,586.649 409.67,588.815 408.5,591C 402.964,617.915 391.798,642.415 375,664.5C 374.338,666.813 373.838,669.146 373.5,671.5C 372.5,671.5 371.5,671.5 370.5,671.5C 370.649,672.552 370.483,673.552 370,674.5C 361.627,685.895 353.794,697.729 346.5,710C 342.286,717.313 338.452,724.813 335,732.5C 332.463,734.432 329.796,736.099 327,737.5C 303.733,769.915 280.4,801.581 257,832.5C 253.374,837.054 248.874,839.554 243.5,840C 237.46,845.691 230.46,849.857 222.5,852.5C 209.635,858.896 195.968,864.396 181.5,869C 177.135,871.199 174.468,874.699 173.5,879.5C 174.376,880.251 175.376,880.751 176.5,881C 186.064,881.73 195.231,880.23 204,876.5C 207.375,877.798 208.875,879.965 208.5,883C 205.72,887.62 202.72,892.12 199.5,896.5C 189.196,908.475 178.863,920.475 168.5,932.5C 167.691,934.071 167.357,935.738 167.5,937.5C 171.604,937.116 175.271,935.616 178.5,933C 187.158,924.71 195.825,916.377 204.5,908C 207.899,905.685 209.899,906.685 210.5,911C 204.833,920 199.167,929 193.5,938C 191.308,943.011 190.141,948.178 190,953.5C 202.395,944.91 212.228,934.077 219.5,921C 219.167,920.667 218.833,920.333 218.5,920C 220.788,917.257 222.955,914.423 225,911.5C 228.635,907.229 231.469,907.729 233.5,913C 230.026,919.316 227.36,925.649 225.5,932C 225.595,935.409 224.595,938.742 222.5,942C 223.337,943.011 223.67,944.178 223.5,945.5C 225.201,945.034 226.701,945.034 228,945.5C 239.056,933.56 246.89,919.727 251.5,904C 253.92,903.313 256.087,903.813 258,905.5C 258.35,909.533 258.517,913.367 258.5,917C 257.833,919.667 257.167,922.333 256.5,925C 257.191,926.067 257.691,927.234 258,928.5C 262.92,919.99 265.753,910.823 266.5,901C 265.903,899.372 266.237,897.705 267.5,896C 266.429,889.008 268.429,882.508 273.5,876.5C 289.135,856.943 306.635,839.277 326,823.5C 347.605,794.07 371.771,767.07 398.5,742.5C 408.012,727.828 419.179,714.495 432,702.5C 442.401,688.769 452.401,674.769 462,660.5C 467.741,656.069 472.075,650.403 475,643.5C 479.239,634.971 480.906,625.971 480,616.5C 479.333,615.833 478.667,615.167 478,614.5C 475.892,607.415 474.059,600.248 472.5,593C 472.509,591.596 473.009,590.43 474,589.5C 475.506,591.174 477.339,592.174 479.5,592.5C 480.237,599.78 482.07,606.78 485,613.5C 485.653,624.3 486.82,634.8 488.5,645C 486.801,652.082 485.967,659.249 486,666.5C 481.118,685.243 476.618,704.076 472.5,723C 472.983,727.402 472.983,731.902 472.5,736.5C 470.837,738.438 470.171,740.772 470.5,743.5C 469.778,748.142 468.944,752.809 468,757.5C 461.766,780.655 455.6,803.488 449.5,826C 450.022,826.561 450.355,827.228 450.5,828C 448.758,832.011 448.091,836.011 448.5,840C 447.6,844.133 446.933,848.3 446.5,852.5C 445.768,855.627 444.768,858.794 443.5,862C 443.383,866.583 443.716,871.083 444.5,875.5C 444.366,877.9 444.366,880.4 444.5,883C 443.956,885.4 443.289,887.733 442.5,890C 442.79,896.288 443.123,902.622 443.5,909C 442.833,909.667 442.167,910.333 441.5,911C 441.591,926.47 441.591,941.303 441.5,955.5C 438.071,955.317 435.238,953.984 433,951.5C 432.235,951.57 431.735,951.903 431.5,952.5C 431.628,949.599 431.294,946.765 430.5,944C 431.192,939.199 431.858,934.365 432.5,929.5C 431.912,925.624 431.579,921.79 431.5,918C 432.167,916.667 432.833,915.333 433.5,914C 432.852,910.642 432.519,907.309 432.5,904C 433.396,895.429 434.396,886.762 435.5,878C 434.949,876.602 434.616,875.268 434.5,874C 435.808,865.569 436.975,857.069 438,848.5C 443.938,816.778 450.938,784.445 459,751.5C 461.136,736.509 463.303,721.509 465.5,706.5C 467.124,706.64 468.29,705.973 469,704.5C 472.584,691.922 475.917,679.256 479,666.5C 480.081,660.561 480.414,654.561 480,648.5C 479.333,649.167 478.667,649.833 478,650.5C 463.28,668.928 449.28,687.928 436,707.5C 423.745,721.08 412.745,735.413 403,750.5C 402.667,750.167 402.333,749.833 402,749.5C 400.353,752.473 398.353,755.14 396,757.5C 383.53,768.76 372.197,781.094 362,794.5C 360.693,795.772 359.193,796.772 357.5,797.5C 348.358,809.872 338.358,822.205 327.5,834.5C 318.94,842.234 310.274,849.734 301.5,857C 294.549,866.132 287.049,874.632 279,882.5C 278.55,884.519 277.717,886.352 276.5,888C 276.054,898.079 274.888,908.245 273,918.5C 270.91,925.18 267.41,931.013 262.5,936C 260.341,936.912 258.175,937.745 256,938.5C 253.675,936.502 251.341,934.502 249,932.5C 244.695,940.679 238.362,947.679 230,953.5C 224.561,954.441 219.894,952.774 216,948.5C 215.027,946.608 214.36,944.608 214,942.5C 209.193,946.972 204.359,951.472 199.5,956C 196.411,958.588 192.911,960.421 189,961.5C 187.934,959.901 186.434,958.901 184.5,958.5C 183.368,956.402 182.368,954.235 181.5,952C 182.381,946.964 183.548,941.797 185,936.5C 184.558,938.679 183.558,939.345 182,938.5C 179.986,940.845 177.653,942.845 175,944.5C 173.853,943.542 172.853,943.875 172,945.5C 171.23,944.402 170.397,944.402 169.5,945.5C 169.167,944.167 168.833,944.167 168.5,945.5C 160.18,943.545 157.18,938.711 159.5,931C 172.132,915.7 185.132,900.7 198.5,886C 192.788,886.695 187.121,887.528 181.5,888.5C 168.275,887.644 163.942,881.311 168.5,869.5C 170.568,867.055 172.735,864.722 175,862.5C 175.333,862.833 175.667,863.167 176,863.5C 178.333,862.167 180.667,860.833 183,859.5C 183.333,859.833 183.667,860.167 184,860.5C 196.861,855.326 209.695,850.159 222.5,845C 229.73,842.265 236.397,838.598 242.5,834C 272.098,796.669 301.598,759.169 331,721.5C 335.935,710.767 341.435,700.434 347.5,690.5C 362.078,670.894 375.244,650.894 387,630.5C 387.721,626.658 389.387,623.324 392,620.5C 401.159,591.107 411.659,562.607 423.5,535C 426.286,531.926 428.952,528.759 431.5,525.5C 436.667,517.167 441.833,508.833 447,500.5C 454.828,492.936 463.828,488.269 474,486.5C 480.762,482.536 487.595,478.703 494.5,475C 512.865,468.479 531.198,461.979 549.5,455.5C 546.577,446.744 543.41,438.077 540,429.5C 528.117,420.884 516.783,411.551 506,401.5C 500.333,394.167 494.667,386.833 489,379.5C 487.184,381.441 485.184,382.108 483,381.5C 479.2,380.801 475.367,380.135 471.5,379.5C 469.223,379.985 467.056,379.319 465,377.5C 464.667,377.833 464.333,378.167 464,378.5C 434.136,362.038 428.969,339.705 448.5,311.5C 452.673,306.809 457.84,304.142 464,303.5C 465.894,303.58 467.727,303.913 469.5,304.5C 470.298,304.043 470.631,303.376 470.5,302.5C 472.159,299.979 474.325,299.312 477,300.5C 478.269,299.095 478.769,297.429 478.5,295.5C 480.785,307.86 484.618,319.86 490,331.5C 488.957,353.354 495.29,372.688 509,389.5C 525.796,408.27 545.963,422.437 569.5,432C 575.645,434.286 581.979,435.786 588.5,436.5C 620.03,429.159 646.53,413.492 668,389.5C 681.71,372.688 688.043,353.354 687,331.5C 692.351,319.949 696.184,307.949 698.5,295.5C 699.117,295.389 699.617,295.056 700,294.5C 700.315,297.147 701.482,297.813 703.5,296.5C 705.577,297.988 706.577,299.988 706.5,302.5 Z"/></g>
<g><path style="opacity:1" fill="#61302f" d="M 446.5,852.5 C 446.893,855.93 446.227,859.096 444.5,862C 445.063,866.385 445.063,870.885 444.5,875.5C 443.716,871.083 443.383,866.583 443.5,862C 444.768,858.794 445.768,855.627 446.5,852.5 Z"/></g>
<g><path style="opacity:1" fill="#ebb89e" d="M 586.5,786.5 C 596.752,787.642 600.585,793.309 598,803.5C 596.954,805.09 595.787,806.59 594.5,808C 595.167,808.333 595.833,808.667 596.5,809C 594.351,810.152 592.518,811.652 591,813.5C 589.333,813.5 587.667,813.5 586,813.5C 584.482,811.652 582.649,810.152 580.5,809C 581.167,808.667 581.833,808.333 582.5,808C 578.695,803.909 577.528,799.076 579,793.5C 580.767,790.228 583.267,787.895 586.5,786.5 Z"/></g>
<g><path style="opacity:1" fill="#8b5e57" d="M 710.5,763.5 C 711.75,763.577 712.583,764.244 713,765.5C 713.494,767.134 713.66,768.801 713.5,770.5C 712.656,768.157 711.656,765.824 710.5,763.5 Z"/></g>
<g><path style="opacity:1" fill="#8e5e56" d="M 472.5,736.5 C 472.59,739.152 471.924,741.485 470.5,743.5C 470.171,740.772 470.837,738.438 472.5,736.5 Z"/></g>
<g><path style="opacity:1" fill="#ebb89e" d="M 818.5,718.5 C 819.721,719.028 820.887,719.695 822,720.5C 822.333,719.833 822.667,719.167 823,718.5C 825.888,719.091 828.554,720.091 831,721.5C 834.538,727.783 835.704,734.117 834.5,740.5C 833.127,740.343 831.793,740.51 830.5,741C 828.965,743.139 827.299,745.139 825.5,747C 826.34,748.666 825.84,748.833 824,747.5C 822.738,749.303 821.071,750.636 819,751.5C 818.667,751.167 818.333,750.833 818,750.5C 816.956,751.623 816.29,752.956 816,754.5C 814.644,753.62 813.144,753.286 811.5,753.5C 811.649,754.552 811.483,755.552 811,756.5C 808.174,753.352 805.841,753.352 804,756.5C 803.316,755.216 803.483,754.049 804.5,753C 803.552,752.517 802.552,752.351 801.5,752.5C 800.858,749.086 799.191,746.253 796.5,744C 796.981,741.293 797.648,738.293 798.5,735C 798.355,734.228 798.022,733.561 797.5,733C 799.377,731.815 801.377,730.815 803.5,730C 805.394,728.899 806.061,727.566 805.5,726C 809.996,723.43 814.33,720.93 818.5,718.5 Z"/></g>
<g><path style="opacity:1" fill="#ebb89e" d="M 353.5,718.5 C 359.746,719.449 365.746,721.949 371.5,726C 370.939,727.566 371.606,728.899 373.5,730C 375.351,730.837 377.184,731.671 379,732.5C 379.023,736.56 379.523,740.394 380.5,744C 377.809,746.253 376.142,749.086 375.5,752.5C 374.448,752.351 373.448,752.517 372.5,753C 373.517,754.049 373.684,755.216 373,756.5C 371.159,753.352 368.826,753.352 366,756.5C 365.517,755.552 365.351,754.552 365.5,753.5C 363.856,753.286 362.356,753.62 361,754.5C 360.71,752.956 360.044,751.623 359,750.5C 358.667,750.833 358.333,751.167 358,751.5C 355.929,750.636 354.262,749.303 353,747.5C 351.16,748.833 350.66,748.666 351.5,747C 349.701,745.139 348.035,743.139 346.5,741C 345.207,740.51 343.873,740.343 342.5,740.5C 341.269,733.584 342.769,726.918 347,720.5C 348.43,720.306 349.93,720.306 351.5,720.5C 352.522,720.145 353.189,719.478 353.5,718.5 Z"/></g>
<g><path style="opacity:0.031" fill="#b17360" d="M 738.5,702.5 C 740.759,703.344 741.759,705.011 741.5,707.5C 740.11,706.101 739.11,704.434 738.5,702.5 Z"/></g>
<g><path style="opacity:0.071" fill="#e1a083" d="M 738.5,702.5 C 736.738,701.738 735.738,700.404 735.5,698.5C 736.839,698.909 737.839,700.243 738.5,702.5 Z"/></g>
<g><path style="opacity:0.831" fill="#391214" d="M 573.5,509.5 C 571.297,509.935 569.297,509.935 567.5,509.5C 567.38,508.414 566.713,507.747 565.5,507.5C 563.181,506.936 560.847,506.436 558.5,506C 559.645,504.141 561.312,503.307 563.5,503.5C 566.638,503.868 569.638,504.701 572.5,506C 573.337,507.011 573.67,508.178 573.5,509.5 Z"/></g>
<g><path style="opacity:0.817" fill="#4c2121" d="M 615.5,501.5 C 618.545,501.704 621.379,501.704 624,501.5C 624.5,502 625,502.5 625.5,503C 621.165,506.703 616.332,508.537 611,508.5C 610,509.167 609,509.833 608,510.5C 600.837,510.083 600.003,507.916 605.5,504C 608.991,503.262 612.325,502.429 615.5,501.5 Z"/></g>
<g><path style="opacity:0.85" fill="#582a29" d="M 573.5,509.5 C 573.67,508.178 573.337,507.011 572.5,506C 569.638,504.701 566.638,503.868 563.5,503.5C 561.312,503.307 559.645,504.141 558.5,506C 560.847,506.436 563.181,506.936 565.5,507.5C 566.713,507.747 567.38,508.414 567.5,509.5C 562.035,508.63 556.701,506.63 551.5,503.5C 558.911,501.225 566.244,501.725 573.5,505C 575.688,506.848 575.688,508.348 573.5,509.5 Z"/></g>
<g><path style="opacity:1" fill="#ebb89f" d="M 710.5,496.5 C 714.295,497.898 717.961,499.564 721.5,501.5C 730.957,512.592 739.29,523.925 746.5,535.5C 749.172,537.425 750.172,540.092 749.5,543.5C 748.883,543.389 748.383,543.056 748,542.5C 747.242,544.769 747.409,546.936 748.5,549C 745.849,551.98 742.849,554.647 739.5,557C 739.833,557.333 740.167,557.667 740.5,558C 737.861,559.946 734.861,560.946 731.5,561C 731.833,561.333 732.167,561.667 732.5,562C 731.584,562.374 730.75,562.874 730,563.5C 724.759,562.723 719.925,560.39 715.5,556.5C 707.065,545.251 701.732,533.085 699.5,520C 699.957,516.581 699.957,513.248 699.5,510C 700.495,505.512 702.661,501.678 706,498.5C 708.108,499.612 709.608,498.946 710.5,496.5 Z"/></g>
<g><path style="opacity:1" fill="#ebb89f" d="M 465.5,495.5 C 466.29,496.794 467.29,497.961 468.5,499C 471.951,499.405 474.451,501.571 476,505.5C 478.815,524.567 473.982,541.567 461.5,556.5C 457.075,560.39 452.241,562.723 447,563.5C 446.25,562.874 445.416,562.374 444.5,562C 444.833,561.667 445.167,561.333 445.5,561C 442.139,560.946 439.139,559.946 436.5,558C 436.833,557.667 437.167,557.333 437.5,557C 434.151,554.647 431.151,551.98 428.5,549C 429.591,546.936 429.758,544.769 429,542.5C 428.617,543.056 428.117,543.389 427.5,543.5C 426.828,540.092 427.828,537.425 430.5,535.5C 429.391,533.786 430.058,533.119 432.5,533.5C 432.351,532.448 432.517,531.448 433,530.5C 439.607,521.59 445.941,512.59 452,503.5C 456.478,500.682 460.978,498.016 465.5,495.5 Z"/></g>
<g><path style="opacity:1" fill="#b18478" d="M 498.5,480.5 C 498.773,482.451 498.107,483.951 496.5,485C 493.274,486.199 489.941,486.699 486.5,486.5C 490.172,485.759 493.839,484.593 497.5,483C 496.434,481.841 496.767,481.008 498.5,480.5 Z"/></g>
<g><path style="opacity:0.957" fill="#5f3230" d="M 680.5,481.5 C 681.399,482.472 682.566,483.138 684,483.5C 685.585,482.755 687.085,482.255 688.5,482C 687.663,483.011 687.33,484.178 687.5,485.5C 689.38,485.229 690.713,485.896 691.5,487.5C 687.019,486.482 682.686,485.149 678.5,483.5C 679.243,482.818 679.909,482.151 680.5,481.5 Z"/></g>
<g><path style="opacity:1" fill="#a9786a" d="M 614.5,438.5 C 611.844,440.495 608.844,441.995 605.5,443C 593.839,446.332 582.172,446.332 570.5,443C 569.748,442.329 569.414,441.496 569.5,440.5C 575.58,442.753 581.913,444.087 588.5,444.5C 597.554,443.891 606.221,441.891 614.5,438.5 Z"/></g>
<g><path style="opacity:1" fill="#8d625c" d="M 483.5,359.5 C 485.975,360.687 486.975,362.687 486.5,365.5C 485.508,363.544 484.508,361.544 483.5,359.5 Z"/></g>
<g><path style="opacity:1" fill="#aa8278" d="M 478.5,338.5 C 479.209,337.596 480.209,337.263 481.5,337.5C 481.646,341.519 481.979,345.519 482.5,349.5C 481.883,349.389 481.383,349.056 481,348.5C 481.083,344.689 480.25,341.355 478.5,338.5 Z"/></g>
<g><path style="opacity:1" fill="#9b716a" d="M 698.5,338.5 C 696.888,341.614 695.555,344.947 694.5,348.5C 695.114,344.865 695.448,341.198 695.5,337.5C 696.791,337.263 697.791,337.596 698.5,338.5 Z"/></g>
<g><path style="opacity:0.817" fill="#4b2122" d="M 475.5,323.5 C 473.738,323.643 472.071,323.309 470.5,322.5C 470.264,323.247 469.93,324.08 469.5,325C 473.015,326.414 476.349,327.914 479.5,329.5C 475.5,328.148 471.5,327.481 467.5,327.5C 463.63,327.584 459.963,328.917 456.5,331.5C 455.305,328.027 456.305,325.194 459.5,323C 463.173,321.703 466.673,320.87 470,320.5C 471.876,321.609 473.709,322.609 475.5,323.5 Z"/></g>
<g><path style="opacity:1" fill="#e7c3b0" d="M 694.5,348.5 C 695.555,344.947 696.888,341.614 698.5,338.5C 703.076,336.389 706.076,337.723 707.5,342.5C 707.934,345.475 707.434,348.475 706,351.5C 703.217,352.928 700.383,354.262 697.5,355.5C 698.855,358.76 701.355,360.427 705,360.5C 706.512,359.743 707.846,358.743 709,357.5C 709.333,357.833 709.667,358.167 710,358.5C 710.98,357.019 712.147,355.685 713.5,354.5C 712.145,353.325 712.312,352.325 714,351.5C 715.714,344.27 713.88,337.77 708.5,332C 704.56,330.358 701.06,331.191 698,334.5C 697.506,332.866 697.34,331.199 697.5,329.5C 700.29,329.778 702.79,329.111 705,327.5C 708.116,326.874 711.116,327.541 714,329.5C 714.333,329.167 714.667,328.833 715,328.5C 717.302,331.057 719.469,331.39 721.5,329.5C 719.867,323.774 716.033,320.774 710,320.5C 707.041,320.77 704.041,321.77 701,323.5C 700.729,319.583 701.562,315.917 703.5,312.5C 717.116,309.626 725.616,315.293 729,329.5C 732.933,349.6 725.433,363.767 706.5,372C 702.142,372.788 697.809,373.622 693.5,374.5C 691.127,373.45 690.127,371.617 690.5,369C 691.873,363.584 693.54,358.251 695.5,353C 694.852,351.56 694.519,350.06 694.5,348.5 Z"/></g>
<g><path style="opacity:1" fill="#e7c3b0" d="M 475.5,323.5 C 473.709,322.609 471.876,321.609 470,320.5C 466.673,320.87 463.173,321.703 459.5,323C 456.305,325.194 455.305,328.027 456.5,331.5C 459.963,328.917 463.63,327.584 467.5,327.5C 471.5,327.481 475.5,328.148 479.5,329.5C 479.66,331.199 479.494,332.866 479,334.5C 475.94,331.191 472.44,330.358 468.5,332C 462.075,338.316 460.742,345.316 464.5,353C 464.043,353.414 463.709,353.914 463.5,354.5C 464.853,355.685 466.02,357.019 467,358.5C 467.333,358.167 467.667,357.833 468,357.5C 470.612,360.666 473.779,361.166 477.5,359C 478.293,357.915 478.96,356.748 479.5,355.5C 476.617,354.262 473.783,352.928 471,351.5C 469.566,348.475 469.066,345.475 469.5,342.5C 470.924,337.723 473.924,336.389 478.5,338.5C 480.25,341.355 481.083,344.689 481,348.5C 481.383,349.056 481.883,349.389 482.5,349.5C 482.322,350.695 481.989,351.862 481.5,353C 482.609,355.047 483.276,357.213 483.5,359.5C 484.508,361.544 485.508,363.544 486.5,365.5C 486.663,367.857 486.497,370.19 486,372.5C 473.833,374.885 463.5,371.218 455,361.5C 445.939,350.868 443.939,338.868 449,325.5C 453.815,314.071 461.982,309.738 473.5,312.5C 474.759,315.366 475.759,318.366 476.5,321.5C 476.457,322.416 476.124,323.083 475.5,323.5 Z"/></g>
<g><path style="opacity:0.702" fill="#381113" d="M 168.5,945.5 C 168.833,945.5 169.167,945.5 169.5,945.5C 169.315,946.17 168.981,946.17 168.5,945.5 Z"/></g>
<g><path style="opacity:0.8" fill="#371213" d="M 1007.5,945.5 C 1007.83,945.5 1008.17,945.5 1008.5,945.5C 1008.31,946.17 1007.98,946.17 1007.5,945.5 Z"/></g>
<g><path style="opacity:0.965" fill="#391315" d="M 625.5,1144.5 C 625.399,1148.74 624.732,1152.91 623.5,1157C 623.508,1158.71 623.842,1160.21 624.5,1161.5C 624.401,1164.24 624.735,1166.9 625.5,1169.5C 625.322,1170.69 624.989,1171.86 624.5,1173C 625.941,1176.45 626.941,1179.95 627.5,1183.5C 627.334,1188.84 627.501,1194.18 628,1199.5C 628.198,1201.38 628.698,1203.05 629.5,1204.5C 630.392,1209.44 630.726,1214.44 630.5,1219.5C 630.339,1235.17 630.006,1250.84 629.5,1266.5C 630.729,1279.8 631.562,1293.14 632,1306.5C 633.226,1316.91 634.726,1327.25 636.5,1337.5C 636.291,1338.09 635.957,1338.59 635.5,1339C 637.154,1340.83 637.988,1342.66 638,1344.5C 641.021,1365.6 643.521,1386.77 645.5,1408C 645.355,1408.77 645.022,1409.44 644.5,1410C 646.022,1414.2 647.022,1418.53 647.5,1423C 647.464,1432.34 647.464,1441.68 647.5,1451C 648.43,1454.07 649.097,1457.24 649.5,1460.5C 649.279,1471.28 648.946,1482.12 648.5,1493C 648.682,1497.26 649.349,1501.42 650.5,1505.5C 650.162,1512.86 650.162,1520.03 650.5,1527C 649.833,1529.67 649.167,1532.33 648.5,1535C 648.833,1535.33 649.167,1535.67 649.5,1536C 647.019,1561.76 644.019,1587.76 640.5,1614C 640.645,1614.77 640.978,1615.44 641.5,1616C 640.449,1618.37 639.782,1620.87 639.5,1623.5C 639.495,1632.41 639.661,1641.41 640,1650.5C 641.742,1653.29 644.242,1654.96 647.5,1655.5C 653.013,1654.01 658.68,1653.01 664.5,1652.5C 665.293,1652.93 666.127,1653.26 667,1653.5C 674.032,1652.19 681.199,1650.19 688.5,1647.5C 689.167,1647.83 689.833,1648.17 690.5,1648.5C 698.944,1645.97 707.611,1644.81 716.5,1645C 718.696,1643.78 720.196,1641.94 721,1639.5C 723.915,1629.15 724.082,1618.99 721.5,1609C 722.632,1590.43 722.632,1571.77 721.5,1553C 723.311,1537.49 724.978,1521.99 726.5,1506.5C 726.333,1504.17 726.167,1501.83 726,1499.5C 723.501,1496 721.668,1492.17 720.5,1488C 721.318,1473.1 722.984,1458.1 725.5,1443C 725.511,1433.88 725.511,1424.71 725.5,1415.5C 727.942,1390.45 728.609,1365.61 727.5,1341C 727.44,1334.54 728.106,1328.21 729.5,1322C 727.987,1319.08 728.32,1316.42 730.5,1314C 729.098,1273.83 726.765,1233.49 723.5,1193C 724.432,1184.91 724.765,1177.41 724.5,1170.5C 722.669,1164.05 723.002,1157.55 725.5,1151C 725.439,1146.61 725.439,1142.27 725.5,1138C 726.799,1132.04 727.799,1126.04 728.5,1120C 728.384,1118.73 728.051,1117.4 727.5,1116C 728.167,1114.33 728.833,1112.67 729.5,1111C 728.826,1109.25 728.493,1107.58 728.5,1106C 729.167,1105 729.833,1104 730.5,1103C 730.813,1097.37 730.813,1091.71 730.5,1086C 731.548,1080.25 732.382,1074.41 733,1068.5C 733.5,1068 734,1067.5 734.5,1067C 734.167,1064.67 733.833,1062.33 733.5,1060C 734.608,1053.88 735.608,1047.71 736.5,1041.5C 735.749,1036.58 735.416,1031.42 735.5,1026C 736.167,1021.33 736.833,1016.67 737.5,1012C 736.875,1007.55 736.542,1002.71 736.5,997.5C 739.082,996.703 741.582,996.37 744,996.5C 745.511,997.674 746.678,999.007 747.5,1000.5C 747.611,1008.86 747.944,1016.86 748.5,1024.5C 747.865,1028.37 747.199,1032.2 746.5,1036C 746.833,1036.33 747.167,1036.67 747.5,1037C 746.833,1038.67 746.167,1040.33 745.5,1042C 746.357,1045.38 746.024,1049.04 744.5,1053C 744.957,1053.41 745.291,1053.91 745.5,1054.5C 744.637,1059.46 743.97,1064.46 743.5,1069.5C 744.5,1069.5 745.5,1069.5 746.5,1069.5C 744.803,1104.88 739.803,1139.71 731.5,1174C 732.572,1176.68 731.905,1179.01 729.5,1181C 731.831,1208.47 735.164,1235.97 739.5,1263.5C 739.769,1269.51 739.769,1275.35 739.5,1281C 740.167,1285.33 740.833,1289.67 741.5,1294C 741.224,1312.06 741.224,1330.39 741.5,1349C 740.712,1352.08 740.212,1355.24 740,1358.5C 740.033,1382.22 739.033,1405.88 737,1429.5C 734.173,1444.13 731.673,1458.79 729.5,1473.5C 729.504,1477.57 730.004,1481.57 731,1485.5C 734.544,1493.09 737.377,1500.92 739.5,1509C 738.316,1511.66 736.983,1514.16 735.5,1516.5C 733.089,1516.14 731.589,1517.14 731,1519.5C 730.164,1524.38 729.331,1529.21 728.5,1534C 728.808,1563.54 729.808,1593.54 731.5,1624C 732.042,1632.53 730.042,1640.36 725.5,1647.5C 721.849,1650.45 717.682,1652.12 713,1652.5C 709.788,1651.73 706.288,1651.56 702.5,1652C 700.924,1652.44 699.59,1653.27 698.5,1654.5C 697.914,1654.29 697.414,1653.96 697,1653.5C 693.255,1654.3 689.421,1654.8 685.5,1655C 678.632,1659.12 671.632,1660.95 664.5,1660.5C 660.627,1665.48 655.461,1667.48 649,1666.5C 640.443,1666.98 633.276,1663.65 627.5,1656.5C 627.073,1643.01 626.74,1630.01 626.5,1617.5C 628.65,1606.9 630.483,1596.23 632,1585.5C 632.692,1584.97 633.192,1584.31 633.5,1583.5C 634.1,1581.03 633.434,1578.7 631.5,1576.5C 632.704,1561.42 634.537,1546.42 637,1531.5C 637.187,1524.92 637.687,1518.42 638.5,1512C 637.64,1505.07 637.973,1497.9 639.5,1490.5C 639.158,1488.13 638.658,1485.8 638,1483.5C 638.572,1450.04 636.905,1416.71 633,1383.5C 627.685,1348.29 622.185,1313.13 616.5,1278C 620.7,1242.57 620.367,1207.24 615.5,1172C 615.833,1171.67 616.167,1171.33 616.5,1171C 615.148,1162.75 614.148,1154.41 613.5,1146C 612.428,1135 609.928,1124.16 606,1113.5C 604.112,1104.33 602.278,1095.17 600.5,1086C 600.348,1071.83 599.014,1057.66 596.5,1043.5C 596.608,1042.56 596.941,1041.72 597.5,1041C 595.706,1031.06 594.373,1021.06 593.5,1011C 592.967,1000.81 591.3,990.64 588.5,980.5C 589.611,979.389 590.278,978.055 590.5,976.5C 589.705,970.522 589.039,964.522 588.5,958.5C 586.863,966.353 586.53,974.02 587.5,981.5C 581.657,1016.6 577.49,1052.27 575,1088.5C 573.389,1096.11 572.056,1103.77 571,1111.5C 567.804,1121.65 565.138,1131.98 563,1142.5C 560.337,1171.28 558.504,1200.11 557.5,1229C 557.584,1245.28 558.584,1261.28 560.5,1277C 554.909,1312.47 549.409,1347.97 544,1383.5C 540.095,1416.71 538.428,1450.04 539,1483.5C 537.568,1490.49 537.735,1497.49 539.5,1504.5C 538.704,1507.08 538.371,1509.58 538.5,1512C 539.313,1518.42 539.813,1524.92 540,1531.5C 542.449,1546.42 544.282,1561.42 545.5,1576.5C 543.566,1578.7 542.9,1581.03 543.5,1583.5C 543.808,1584.31 544.308,1584.97 545,1585.5C 546.517,1596.23 548.35,1606.9 550.5,1617.5C 550.244,1630.08 549.911,1643.08 549.5,1656.5C 541.838,1665.25 531.838,1668.41 519.5,1666C 516.404,1665.12 514.07,1663.29 512.5,1660.5C 505.368,1660.95 498.368,1659.12 491.5,1655C 487.579,1654.8 483.745,1654.3 480,1653.5C 479.586,1653.96 479.086,1654.29 478.5,1654.5C 477.41,1653.27 476.076,1652.44 474.5,1652C 470.712,1651.56 467.212,1651.73 464,1652.5C 459.318,1652.12 455.151,1650.45 451.5,1647.5C 446.958,1640.36 444.958,1632.53 445.5,1624C 447.192,1593.54 448.192,1563.54 448.5,1534C 447.669,1529.21 446.836,1524.38 446,1519.5C 445.411,1517.14 443.911,1516.14 441.5,1516.5C 440.017,1514.16 438.684,1511.66 437.5,1509C 439.623,1500.92 442.456,1493.09 446,1485.5C 446.996,1481.57 447.496,1477.57 447.5,1473.5C 445.327,1458.79 442.827,1444.13 440,1429.5C 437.967,1405.88 436.967,1382.22 437,1358.5C 436.788,1355.24 436.288,1352.08 435.5,1349C 436.053,1330.11 436.053,1311.61 435.5,1293.5C 436.131,1289.97 436.798,1286.47 437.5,1283C 437.042,1276.95 437.042,1270.45 437.5,1263.5C 441.836,1235.97 445.169,1208.47 447.5,1181C 445.095,1179.01 444.428,1176.68 445.5,1174C 444.313,1170.57 443.313,1167.07 442.5,1163.5C 442.709,1162.91 443.043,1162.41 443.5,1162C 436.104,1131.67 431.77,1100.84 430.5,1069.5C 431.5,1069.5 432.5,1069.5 433.5,1069.5C 433.03,1064.46 432.363,1059.46 431.5,1054.5C 431.709,1053.91 432.043,1053.41 432.5,1053C 430.976,1049.04 430.643,1045.38 431.5,1042C 430.833,1040.33 430.167,1038.67 429.5,1037C 429.833,1036.67 430.167,1036.33 430.5,1036C 429.801,1032.2 429.135,1028.37 428.5,1024.5C 428.836,1013.66 428.836,1003.16 428.5,993C 429.184,986.198 429.851,979.364 430.5,972.5C 429.76,969.457 429.426,966.29 429.5,963C 430.203,959.504 430.87,956.004 431.5,952.5C 431.735,951.903 432.235,951.57 433,951.5C 435.238,953.984 438.071,955.317 441.5,955.5C 440.791,962.728 440.791,970.228 441.5,978C 440.711,980.267 440.044,982.6 439.5,985C 440.597,994.021 440.597,1003.02 439.5,1012C 440.167,1016.67 440.833,1021.33 441.5,1026C 441.584,1031.42 441.251,1036.58 440.5,1041.5C 441.392,1047.71 442.392,1053.88 443.5,1060C 443.167,1062.33 442.833,1064.67 442.5,1067C 443,1067.5 443.5,1068 444,1068.5C 444.618,1074.41 445.452,1080.25 446.5,1086C 445.519,1090.35 445.853,1094.68 447.5,1099C 446.538,1101.41 446.871,1103.74 448.5,1106C 448.507,1107.58 448.174,1109.25 447.5,1111C 448.167,1112.67 448.833,1114.33 449.5,1116C 448.949,1117.4 448.616,1118.73 448.5,1120C 449.201,1126.04 450.201,1132.04 451.5,1138C 451.561,1142.27 451.561,1146.61 451.5,1151C 453.998,1157.55 454.331,1164.05 452.5,1170.5C 452.63,1176.42 452.963,1182.92 453.5,1190C 450.343,1231.51 448.009,1272.85 446.5,1314C 448.825,1315.82 449.158,1317.99 447.5,1320.5C 448.846,1327.26 449.513,1334.1 449.5,1341C 448.978,1349.14 448.644,1357.31 448.5,1365.5C 449.019,1390.14 450.352,1414.3 452.5,1438C 452.464,1440.09 452.131,1442.09 451.5,1444C 453.237,1448.91 453.571,1453.58 452.5,1458C 454.301,1458.32 454.634,1458.98 453.5,1460C 454.738,1466.93 455.738,1473.93 456.5,1481C 456.112,1483.19 456.112,1485.53 456.5,1488C 455.332,1492.17 453.499,1496 451,1499.5C 450.833,1501.83 450.667,1504.17 450.5,1506.5C 452.034,1521.98 453.7,1537.48 455.5,1553C 454.42,1571.79 454.42,1590.46 455.5,1609C 454.743,1611.94 454.077,1614.94 453.5,1618C 453.481,1623.34 453.647,1628.84 454,1634.5C 455.182,1637.56 456.516,1640.56 458,1643.5C 458.75,1644.13 459.584,1644.63 460.5,1645C 466.5,1645.33 472.5,1645.67 478.5,1646C 481.824,1647.51 485.157,1648.01 488.5,1647.5C 495.801,1650.19 502.968,1652.19 510,1653.5C 510.873,1653.26 511.707,1652.93 512.5,1652.5C 518.32,1653.01 523.987,1654.01 529.5,1655.5C 532.758,1654.96 535.258,1653.29 537,1650.5C 537.128,1641.55 537.294,1632.55 537.5,1623.5C 537.218,1620.87 536.551,1618.37 535.5,1616C 536.022,1615.44 536.355,1614.77 536.5,1614C 532.981,1587.76 529.981,1561.76 527.5,1536C 527.833,1535.67 528.167,1535.33 528.5,1535C 527.833,1531.67 527.167,1528.33 526.5,1525C 526.757,1518.41 526.757,1511.91 526.5,1505.5C 527.651,1501.42 528.318,1497.26 528.5,1493C 527.908,1482.26 527.575,1471.6 527.5,1461C 528.721,1449.35 529.721,1437.68 530.5,1426C 530.415,1424.89 530.081,1423.89 529.5,1423C 529.978,1418.53 530.978,1414.2 532.5,1410C 531.903,1408.94 531.57,1407.77 531.5,1406.5C 533.287,1385.1 536.287,1363.94 540.5,1343C 540.167,1342.67 539.833,1342.33 539.5,1342C 541.014,1340.56 541.347,1339.06 540.5,1337.5C 542.995,1323.37 544.995,1309.2 546.5,1295C 547.024,1281.52 547.024,1268.35 546.5,1255.5C 546.212,1239.11 547.045,1222.78 549,1206.5C 549.667,1205.17 550.333,1203.83 551,1202.5C 551.654,1203.7 552.154,1203.7 552.5,1202.5C 550.154,1200.76 549.154,1198.43 549.5,1195.5C 550.151,1189.14 550.984,1182.81 552,1176.5C 552.333,1177.17 552.667,1177.83 553,1178.5C 553.903,1177.3 555.069,1176.47 556.5,1176C 555.809,1174.93 555.309,1173.77 555,1172.5C 554.692,1173.31 554.192,1173.97 553.5,1174.5C 553.167,1173.33 552.833,1172.17 552.5,1171C 553.237,1166.86 553.571,1162.7 553.5,1158.5C 552.95,1154.67 552.283,1150.84 551.5,1147C 554.493,1128.85 559.66,1111.35 567,1094.5C 571.608,1054.87 575.608,1015.2 579,975.5C 580.218,966.575 581.718,957.742 583.5,949C 582.542,947.853 582.875,946.853 584.5,946C 584.167,944.333 583.833,942.667 583.5,941C 585.844,933.531 585.844,925.698 583.5,917.5C 580.839,916.668 578.172,915.834 575.5,915C 573.845,913.556 573.178,911.722 573.5,909.5C 576.439,910.462 579.272,910.795 582,910.5C 583.094,908.911 584.594,907.578 586.5,906.5C 587.894,908.984 589.394,908.984 591,906.5C 592.333,907.833 593.667,909.167 595,910.5C 597.728,910.795 600.561,910.462 603.5,909.5C 603.822,911.722 603.155,913.556 601.5,915C 598.828,915.834 596.161,916.668 593.5,917.5C 591.156,925.698 591.156,933.531 593.5,941C 593.167,942.667 592.833,944.333 592.5,946C 593.167,946.667 593.833,947.333 594.5,948C 594.607,950.935 594.607,953.935 594.5,957C 596.302,963.01 597.468,969.177 598,975.5C 601.002,1011.47 604.335,1047.47 608,1083.5C 609.947,1095.84 613.78,1107.51 619.5,1118.5C 621.887,1127.11 623.887,1135.77 625.5,1144.5 Z"/></g>
<g><path style="opacity:0.996" fill="#7c4b45" d="M 630.5,1219.5 C 631.166,1225.32 631.5,1231.32 631.5,1237.5C 631.63,1247.38 630.963,1257.04 629.5,1266.5C 630.006,1250.84 630.339,1235.17 630.5,1219.5 Z"/></g>
<g><path style="opacity:0.998" fill="#6a3936" d="M 627.5,1183.5 C 629.075,1190.27 629.741,1197.27 629.5,1204.5C 628.698,1203.05 628.198,1201.38 628,1199.5C 627.501,1194.18 627.334,1188.84 627.5,1183.5 Z"/></g>
<g><path style="opacity:0.996" fill="#72413e" d="M 625.5,1169.5 C 627.588,1173.95 628.255,1178.61 627.5,1183.5C 626.941,1179.95 625.941,1176.45 624.5,1173C 624.989,1171.86 625.322,1170.69 625.5,1169.5 Z"/></g>
<g><path style="opacity:0.96" fill="#663835" d="M 553.5,1158.5 C 553.571,1162.7 553.237,1166.86 552.5,1171C 552.833,1172.17 553.167,1173.33 553.5,1174.5C 554.192,1173.97 554.692,1173.31 555,1172.5C 555.309,1173.77 555.809,1174.93 556.5,1176C 555.069,1176.47 553.903,1177.3 553,1178.5C 552.667,1177.83 552.333,1177.17 552,1176.5C 550.984,1182.81 550.151,1189.14 549.5,1195.5C 549.154,1198.43 550.154,1200.76 552.5,1202.5C 552.154,1203.7 551.654,1203.7 551,1202.5C 550.333,1203.83 549.667,1205.17 549,1206.5C 547.045,1222.78 546.212,1239.11 546.5,1255.5C 545.34,1243.67 545.174,1231.67 546,1219.5C 546.922,1198.58 549.422,1178.25 553.5,1158.5 Z"/></g>
<g><path style="opacity:1" fill="#ebb99f" d="M 683.5,1171.5 C 688.158,1172.06 692.825,1172.72 697.5,1173.5C 698.648,1175.15 699.981,1176.65 701.5,1178C 700.712,1181.08 700.212,1184.24 700,1187.5C 696.206,1187.96 693.539,1189.96 692,1193.5C 690.467,1193.06 688.967,1192.72 687.5,1192.5C 685.167,1195.11 682.667,1196.77 680,1197.5C 676.536,1197.63 673.203,1197.29 670,1196.5C 669.333,1197.17 668.667,1197.83 668,1198.5C 666.333,1197.83 664.667,1197.17 663,1196.5C 662.374,1198.99 661.541,1198.99 660.5,1196.5C 659.808,1197.03 659.308,1197.69 659,1198.5C 654.583,1196.04 650.417,1193.21 646.5,1190C 649.658,1188.53 652.991,1187.53 656.5,1187C 653.833,1186.33 653.833,1185.67 656.5,1185C 654.833,1184 653.167,1183 651.5,1182C 653.504,1180.58 655.004,1178.74 656,1176.5C 656.414,1176.96 656.914,1177.29 657.5,1177.5C 661.007,1174.7 664.841,1174.03 669,1175.5C 673.83,1173.94 678.663,1172.6 683.5,1171.5 Z"/></g>
<g><path style="opacity:1" fill="#ebb89f" d="M 487.5,1171.5 C 494.495,1172.39 501.662,1173.39 509,1174.5C 509.772,1174.36 510.439,1174.02 511,1173.5C 514.256,1174.58 517.422,1175.91 520.5,1177.5C 521.086,1177.29 521.586,1176.96 522,1176.5C 522.928,1178.31 524.094,1179.97 525.5,1181.5C 524.395,1182.89 523.061,1184.06 521.5,1185C 522.833,1185.67 522.833,1186.33 521.5,1187C 524.363,1188.4 527.363,1189.4 530.5,1190C 526.451,1193.01 522.284,1195.85 518,1198.5C 517,1195.83 516,1195.83 515,1198.5C 514.667,1197.83 514.333,1197.17 514,1196.5C 512.333,1197.17 510.667,1197.83 509,1198.5C 508.333,1197.83 507.667,1197.17 507,1196.5C 503.797,1197.29 500.464,1197.63 497,1197.5C 494.333,1196.77 491.833,1195.11 489.5,1192.5C 488.033,1192.72 486.533,1193.06 485,1193.5C 483.524,1190.21 481.024,1188.21 477.5,1187.5C 476.96,1186.25 476.293,1185.09 475.5,1184C 476.833,1182 476.833,1180 475.5,1178C 478.457,1173.78 482.457,1171.61 487.5,1171.5 Z"/></g>
<g><path style="opacity:1" fill="#a1746a" d="M 625.5,1144.5 C 626.158,1145.79 626.492,1147.29 626.5,1149C 625.268,1153.09 624.601,1157.26 624.5,1161.5C 623.842,1160.21 623.508,1158.71 623.5,1157C 624.732,1152.91 625.399,1148.74 625.5,1144.5 Z"/></g>
</svg>
