<?xml version="1.0" encoding="UTF-8"?>
<!DOCTYPE svg PUBLIC "-//W3C//DTD SVG 1.1//EN" "http://www.w3.org/Graphics/SVG/1.1/DTD/svg11.dtd">
<svg xmlns="http://www.w3.org/2000/svg" version="1.1" width="1216px" height="1749px" style="shape-rendering:geometricPrecision; text-rendering:geometricPrecision; image-rendering:optimizeQuality; fill-rule:evenodd; clip-rule:evenodd" xmlns:xlink="http://www.w3.org/1999/xlink">
<g><path style="opacity:0.938" fill="#3a1416" d="M 1008.5,945.5 C 1008.17,944.167 1007.83,944.167 1007.5,945.5C 1006.6,944.402 1005.77,944.402 1005,945.5C 1004.15,943.875 1003.15,943.542 1002,944.5C 999.342,942.044 996.675,940.377 994,939.5C 993.085,938.672 992.419,937.672 992,936.5C 993.452,941.797 994.619,946.964 995.5,952C 994.632,954.235 993.632,956.402 992.5,958.5C 990.566,958.901 989.066,959.901 988,961.5C 984.089,960.421 980.589,958.588 977.5,956C 972.641,951.472 967.807,946.972 963,942.5C 962.272,947.564 959.605,951.23 955,953.5C 952.333,953.5 949.667,953.5 947,953.5C 938.638,947.679 932.305,940.679 928,932.5C 925.659,934.502 923.325,936.502 921,938.5C 914.521,936.693 909.854,932.693 907,926.5C 906,923.833 905,921.167 904,918.5C 902.105,908.189 900.938,898.023 900.5,888C 899.283,886.352 898.45,884.519 898,882.5C 890.371,875.194 883.371,867.194 877,858.5C 854.013,840.54 834.679,819.873 819,796.5C 817.667,795.833 816.333,795.167 815,794.5C 807.621,786.123 800.621,777.456 794,768.5C 779.205,756.322 766.539,741.656 756,724.5C 751.232,718.763 746.399,713.096 741.5,707.5C 741.759,705.011 740.759,703.344 738.5,702.5C 737.839,700.243 736.839,698.909 735.5,698.5C 733.233,695.729 730.733,693.062 728,690.5C 721.756,679.602 714.089,669.936 705,661.5C 701.831,655.828 698.664,650.161 695.5,644.5C 695.167,645.167 694.833,645.833 694.5,646.5C 697.167,667.669 702,688.335 709,708.5C 710.628,714.388 711.628,720.388 712,726.5C 712.684,728.359 713.684,730.026 715,731.5C 719.712,759.974 725.879,788.14 733.5,816C 733.167,816.333 732.833,816.667 732.5,817C 733.744,823.611 735.411,830.278 737.5,837C 738.235,840.169 738.235,843.502 737.5,847C 738,847.5 738.5,848 739,848.5C 740.025,857.069 741.192,865.569 742.5,874C 742.384,875.268 742.051,876.602 741.5,878C 742.604,886.762 743.604,895.429 744.5,904C 744.481,907.309 744.148,910.642 743.5,914C 744.167,915.333 744.833,916.667 745.5,918C 745.421,921.79 745.088,925.624 744.5,929.5C 745.142,934.365 745.808,939.199 746.5,944C 745.633,946.823 745.299,949.823 745.5,953C 746.167,956.333 746.833,959.667 747.5,963C 747.574,966.29 747.24,969.457 746.5,972.5C 747.149,979.364 747.816,986.198 748.5,993C 748.164,1003.16 748.164,1013.66 748.5,1024.5C 747.865,1028.37 747.199,1032.2 746.5,1036C 746.833,1036.33 747.167,1036.67 747.5,1037C 746.833,1038.67 746.167,1040.33 745.5,1042C 746.357,1045.38 746.024,1049.04 744.5,1053C 744.957,1053.41 745.291,1053.91 745.5,1054.5C 744.637,1059.46 743.97,1064.46 743.5,1069.5C 744.5,1069.5 745.5,1069.5 746.5,1069.5C 744.803,1104.88 739.803,1139.71 731.5,1174C 732.572,1176.68 731.905,1179.01 729.5,1181C 731.831,1208.47 735.164,1235.97 739.5,1263.5C 739.769,1269.51 739.769,1275.35 739.5,1281C 740.167,1285.33 740.833,1289.67 741.5,1294C 741.224,1312.06 741.224,1330.39 741.5,1349C 740.712,1352.08 740.212,1355.24 740,1358.5C 740.033,1382.22 739.033,1405.88 737,1429.5C 734.173,1444.13 731.673,1458.79 729.5,1473.5C 729.504,1477.57 730.004,1481.57 731,1485.5C 734.544,1493.09 737.377,1500.92 739.5,1509C 738.316,1511.66 736.983,1514.16 735.5,1516.5C 733.089,1516.14 731.589,1517.14 731,1519.5C 730.164,1524.38 729.331,1529.21 728.5,1534C 728.808,1563.54 729.808,1593.54 731.5,1624C 732.042,1632.53 730.042,1640.36 725.5,1647.5C 721.849,1650.45 717.682,1652.12 713,1652.5C 709.788,1651.73 706.288,1651.56 702.5,1652C 700.924,1652.44 699.59,1653.27 698.5,1654.5C 697.914,1654.29 697.414,1653.96 697,1653.5C 693.255,1654.3 689.421,1654.8 685.5,1655C 678.632,1659.12 671.632,1660.95 664.5,1660.5C 660.627,1665.48 655.461,1667.48 649,1666.5C 640.443,1666.98 633.276,1663.65 627.5,1656.5C 627.073,1643.01 626.74,1630.01 626.5,1617.5C 628.65,1606.9 630.483,1596.23 632,1585.5C 632.692,1584.97 633.192,1584.31 633.5,1583.5C 634.1,1581.03 633.434,1578.7 631.5,1576.5C 632.704,1561.42 634.537,1546.42 637,1531.5C 637.187,1524.92 637.687,1518.42 638.5,1512C 637.64,1505.07 637.973,1497.9 639.5,1490.5C 639.158,1488.13 638.658,1485.8 638,1483.5C 638.572,1450.04 636.905,1416.71 633,1383.5C 627.685,1348.29 622.185,1313.13 616.5,1278C 620.7,1242.57 620.367,1207.24 615.5,1172C 615.833,1171.67 616.167,1171.33 616.5,1171C 615.148,1162.75 614.148,1154.41 613.5,1146C 612.428,1135 609.928,1124.16 606,1113.5C 604.112,1104.33 602.278,1095.17 600.5,1086C 600.348,1071.83 599.014,1057.66 596.5,1043.5C 596.608,1042.56 596.941,1041.72 597.5,1041C 595.706,1031.06 594.373,1021.06 593.5,1011C 592.967,1000.81 591.3,990.64 588.5,980.5C 589.611,979.389 590.278,978.055 590.5,976.5C 589.705,970.522 589.039,964.522 588.5,958.5C 586.863,966.353 586.53,974.02 587.5,981.5C 581.657,1016.6 577.49,1052.27 575,1088.5C 573.389,1096.11 572.056,1103.77 571,1111.5C 567.804,1121.65 565.138,1131.98 563,1142.5C 560.337,1171.28 558.504,1200.11 557.5,1229C 557.584,1245.28 558.584,1261.28 560.5,1277C 554.909,1312.47 549.409,1347.97 544,1383.5C 540.095,1416.71 538.428,1450.04 539,1483.5C 537.568,1490.49 537.735,1497.49 539.5,1504.5C 538.704,1507.08 538.371,1509.58 538.5,1512C 539.313,1518.42 539.813,1524.92 540,1531.5C 542.449,1546.42 544.282,1561.42 545.5,1576.5C 543.566,1578.7 542.9,1581.03 543.5,1583.5C 543.808,1584.31 544.308,1584.97 545,1585.5C 546.517,1596.23 548.35,1606.9 550.5,1617.5C 550.244,1630.08 549.911,1643.08 549.5,1656.5C 541.838,1665.25 531.838,1668.41 519.5,1666C 516.404,1665.12 514.07,1663.29 512.5,1660.5C 505.368,1660.95 498.368,1659.12 491.5,1655C 487.579,1654.8 483.745,1654.3 480,1653.5C 479.586,1653.96 479.086,1654.29 478.5,1654.5C 477.41,1653.27 476.076,1652.44 474.5,1652C 470.712,1651.56 467.212,1651.73 464,1652.5C 459.318,1652.12 455.151,1650.45 451.5,1647.5C 446.958,1640.36 444.958,1632.53 445.5,1624C 447.192,1593.54 448.192,1563.54 448.5,1534C 447.669,1529.21 446.836,1524.38 446,1519.5C 445.411,1517.14 443.911,1516.14 441.5,1516.5C 440.017,1514.16 438.684,1511.66 437.5,1509C 439.623,1500.92 442.456,1493.09 446,1485.5C 446.996,1481.57 447.496,1477.57 447.5,1473.5C 445.327,1458.79 442.827,1444.13 440,1429.5C 437.967,1405.88 436.967,1382.22 437,1358.5C 436.788,1355.24 436.288,1352.08 435.5,1349C 436.053,1330.11 436.053,1311.61 435.5,1293.5C 436.131,1289.97 436.798,1286.47 437.5,1283C 437.042,1276.95 437.042,1270.45 437.5,1263.5C 441.836,1235.97 445.169,1208.47 447.5,1181C 445.095,1179.01 444.428,1176.68 445.5,1174C 444.313,1170.57 443.313,1167.07 442.5,1163.5C 442.709,1162.91 443.043,1162.41 443.5,1162C 436.104,1131.67 431.77,1100.84 430.5,1069.5C 431.5,1069.5 432.5,1069.5 433.5,1069.5C 433.03,1064.46 432.363,1059.46 431.5,1054.5C 431.709,1053.91 432.043,1053.41 432.5,1053C 430.976,1049.04 430.643,1045.38 431.5,1042C 430.833,1040.33 430.167,1038.67 429.5,1037C 429.833,1036.67 430.167,1036.33 430.5,1036C 429.801,1032.2 429.135,1028.37 428.5,1024.5C 428.836,1013.66 428.836,1003.16 428.5,993C 429.184,986.198 429.851,979.364 430.5,972.5C 429.76,969.457 429.426,966.29 429.5,963C 430.167,959.667 430.833,956.333 431.5,953C 431.701,949.823 431.367,946.823 430.5,944C 431.192,939.199 431.858,934.365 432.5,929.5C 431.912,925.624 431.579,921.79 431.5,918C 432.167,916.667 432.833,915.333 433.5,914C 432.852,910.642 432.519,907.309 432.5,904C 433.396,895.429 434.396,886.762 435.5,878C 434.949,876.602 434.616,875.268 434.5,874C 435.808,865.569 436.975,857.069 438,848.5C 443.938,816.778 450.938,784.445 459,751.5C 461.136,736.509 463.303,721.509 465.5,706.5C 467.124,706.64 468.29,705.973 469,704.5C 473.293,689.091 477.126,673.591 480.5,658C 480.382,654.97 480.215,651.803 480,648.5C 466.683,665.133 453.85,682.133 441.5,699.5C 440.167,699.5 439.5,700.167 439.5,701.5C 433.822,709.502 427.655,717.168 421,724.5C 416.361,732.152 411.028,739.152 405,745.5C 404.138,747.087 403.471,748.754 403,750.5C 402.667,750.167 402.333,749.833 402,749.5C 400.353,752.473 398.353,755.14 396,757.5C 383.53,768.76 372.197,781.094 362,794.5C 360.693,795.772 359.193,796.772 357.5,797.5C 348.358,809.872 338.358,822.205 327.5,834.5C 318.94,842.234 310.274,849.734 301.5,857C 294.549,866.132 287.049,874.632 279,882.5C 278.55,884.519 277.717,886.352 276.5,888C 276.054,898.079 274.888,908.245 273,918.5C 270.91,925.18 267.41,931.013 262.5,936C 260.341,936.912 258.175,937.745 256,938.5C 253.675,936.502 251.341,934.502 249,932.5C 244.695,940.679 238.362,947.679 230,953.5C 224.561,954.441 219.894,952.774 216,948.5C 215.027,946.608 214.36,944.608 214,942.5C 209.193,946.972 204.359,951.472 199.5,956C 196.411,958.588 192.911,960.421 189,961.5C 187.934,959.901 186.434,958.901 184.5,958.5C 183.368,956.402 182.368,954.235 181.5,952C 182.381,946.964 183.548,941.797 185,936.5C 184.558,938.679 183.558,939.345 182,938.5C 179.986,940.845 177.653,942.845 175,944.5C 173.853,943.542 172.853,943.875 172,945.5C 171.23,944.402 170.397,944.402 169.5,945.5C 169.167,944.167 168.833,944.167 168.5,945.5C 160.18,943.545 157.18,938.711 159.5,931C 172.132,915.7 185.132,900.7 198.5,886C 192.788,886.695 187.121,887.528 181.5,888.5C 168.275,887.644 163.942,881.311 168.5,869.5C 170.568,867.055 172.735,864.722 175,862.5C 175.333,862.833 175.667,863.167 176,863.5C 178.333,862.167 180.667,860.833 183,859.5C 183.333,859.833 183.667,860.167 184,860.5C 196.861,855.326 209.695,850.159 222.5,845C 229.73,842.265 236.397,838.598 242.5,834C 272.098,796.669 301.598,759.169 331,721.5C 335.935,710.767 341.435,700.434 347.5,690.5C 362.078,670.894 375.244,650.894 387,630.5C 387.721,626.658 389.387,623.324 392,620.5C 401.159,591.107 411.659,562.607 423.5,535C 426.286,531.926 428.952,528.759 431.5,525.5C 436.667,517.167 441.833,508.833 447,500.5C 454.828,492.936 463.828,488.269 474,486.5C 480.762,482.536 487.595,478.703 494.5,475C 512.865,468.479 531.198,461.979 549.5,455.5C 546.577,446.744 543.41,438.077 540,429.5C 528.117,420.884 516.783,411.551 506,401.5C 500.333,394.167 494.667,386.833 489,379.5C 488.261,380.574 487.261,381.241 486,381.5C 481.415,381.015 476.582,380.348 471.5,379.5C 470.914,379.709 470.414,380.043 470,380.5C 464.775,378.143 459.275,375.476 453.5,372.5C 449.806,369.074 445.973,365.074 442,360.5C 438.394,353.548 436.561,346.715 436.5,340C 438.019,325.285 444.686,313.618 456.5,305C 461.244,303.565 465.91,303.065 470.5,303.5C 456.303,247.363 471.969,202.196 517.5,168C 518.448,167.517 519.448,167.351 520.5,167.5C 520.5,166.5 520.5,165.5 520.5,164.5C 523.55,165.077 525.55,163.91 526.5,161C 528.722,160.305 530.889,159.472 533,158.5C 535.97,155.979 539.137,153.813 542.5,152C 546.556,151.649 550.223,150.315 553.5,148C 576.833,140.667 600.167,140.667 623.5,148C 626.777,150.315 630.444,151.649 634.5,152C 637.863,153.813 641.03,155.979 644,158.5C 647.652,159.249 650.485,161.082 652.5,164C 653.793,164.49 655.127,164.657 656.5,164.5C 656.5,165.5 656.5,166.5 656.5,167.5C 660.397,169.121 664.064,171.288 667.5,174C 704.277,205.664 718.11,245.831 709,294.5C 707.955,297.436 707.121,300.436 706.5,303.5C 711.09,303.065 715.756,303.565 720.5,305C 732.314,313.618 738.981,325.285 740.5,340C 740.439,346.715 738.606,353.548 735,360.5C 731.027,365.074 727.194,369.074 723.5,372.5C 717.725,375.476 712.225,378.143 707,380.5C 706.586,380.043 706.086,379.709 705.5,379.5C 700.418,380.348 695.585,381.015 691,381.5C 689.739,381.241 688.739,380.574 688,379.5C 677.473,396.359 663.973,410.192 647.5,421C 646.743,422.512 645.743,423.846 644.5,425C 641.541,425.772 639.041,427.272 637,429.5C 636.292,433.249 635.292,436.916 634,440.5C 631.773,444.818 629.607,449.152 627.5,453.5C 631.072,456.314 635.072,458.481 639.5,460C 652.155,464.331 664.822,468.665 677.5,473C 686.258,477.435 694.758,482.268 703,487.5C 703.414,487.043 703.914,486.709 704.5,486.5C 711.805,488.93 718.805,491.93 725.5,495.5C 725.5,496.5 725.5,497.5 725.5,498.5C 726.822,498.33 727.989,498.663 729,499.5C 730.333,502.167 731.667,504.833 733,507.5C 740.839,517.853 748.172,528.52 755,539.5C 757.894,546.288 761.06,552.955 764.5,559.5C 764.167,560.167 763.833,560.833 763.5,561.5C 771.606,580.465 778.773,600.131 785,620.5C 790.049,628.996 794.715,637.662 799,646.5C 801.863,648.897 803.697,651.897 804.5,655.5C 806.942,655.354 807.609,656.187 806.5,658C 812.548,666.906 818.881,675.739 825.5,684.5C 833.443,697.353 840.943,710.686 848,724.5C 876.448,761.093 905.114,797.426 934,833.5C 940.156,838.45 946.989,842.283 954.5,845C 967.305,850.159 980.139,855.326 993,860.5C 993.333,860.167 993.667,859.833 994,859.5C 996.333,860.833 998.667,862.167 1001,863.5C 1001.33,863.167 1001.67,862.833 1002,862.5C 1009.84,868.159 1012.01,875.159 1008.5,883.5C 1004.84,886.774 1000.51,888.44 995.5,888.5C 989.879,887.528 984.212,886.695 978.5,886C 991.897,900.725 1004.9,915.725 1017.5,931C 1019.82,938.711 1016.82,943.545 1008.5,945.5 Z"/></g>
<g><path style="opacity:1" fill="#facfba" d="M 710.5,496.5 C 714.295,497.898 717.961,499.564 721.5,501.5C 730.957,512.592 739.29,523.925 746.5,535.5C 749.172,537.425 750.172,540.092 749.5,543.5C 748.883,543.389 748.383,543.056 748,542.5C 747.242,544.769 747.409,546.936 748.5,549C 744.5,553 740.833,556.667 737.5,560C 735.167,560.333 732.833,560.667 730.5,561C 732.901,561.805 732.734,562.638 730,563.5C 724.759,562.723 719.925,560.39 715.5,556.5C 703.018,541.567 698.185,524.567 701,505.5C 702.421,502.991 704.088,500.657 706,498.5C 708.108,499.612 709.608,498.946 710.5,496.5 Z"/></g>
<g><path style="opacity:1" fill="#facfbb" d="M 465.5,495.5 C 466.663,498.238 468.497,499.238 471,498.5C 474.339,501.678 476.505,505.512 477.5,510C 477.043,513.248 477.043,516.581 477.5,520C 475.268,533.085 469.935,545.251 461.5,556.5C 457.075,560.39 452.241,562.723 447,563.5C 446.25,562.874 445.416,562.374 444.5,562C 444.833,561.667 445.167,561.333 445.5,561C 442.139,560.946 439.139,559.946 436.5,558C 436.833,557.667 437.167,557.333 437.5,557C 434.151,554.647 431.151,551.98 428.5,549C 429.591,546.936 429.758,544.769 429,542.5C 428.617,543.056 428.117,543.389 427.5,543.5C 426.828,540.092 427.828,537.425 430.5,535.5C 429.391,533.786 430.058,533.119 432.5,533.5C 432.351,532.448 432.517,531.448 433,530.5C 439.595,521.628 445.928,512.628 452,503.5C 456.478,500.682 460.978,498.016 465.5,495.5 Z"/></g>
<g><path style="opacity:1" fill="#ba958a" d="M 498.5,480.5 C 498.762,481.978 498.429,483.311 497.5,484.5C 494.009,486.094 490.342,486.761 486.5,486.5C 490.172,485.759 493.839,484.593 497.5,483C 496.434,481.841 496.767,481.008 498.5,480.5 Z"/></g>
<g><path style="opacity:0.988" fill="#916962" d="M 680.5,481.5 C 681.5,483.167 682.833,484.5 684.5,485.5C 682.173,485.753 680.173,485.086 678.5,483.5C 679.243,482.818 679.909,482.151 680.5,481.5 Z"/></g>
<g><path style="opacity:1" fill="#cfa99b" d="M 624.5,434.5 C 616.353,439.8 607.353,443.133 597.5,444.5C 597.5,444.167 597.5,443.833 597.5,443.5C 606.61,440.776 615.61,437.776 624.5,434.5 Z"/></g>
<g><path style="opacity:1" fill="#fadbcc" d="M 680.5,481.5 C 679.909,482.151 679.243,482.818 678.5,483.5C 680.173,485.086 682.173,485.753 684.5,485.5C 693.932,487.635 702.599,491.302 710.5,496.5C 709.608,498.946 708.108,499.612 706,498.5C 704.088,500.657 702.421,502.991 701,505.5C 698.185,524.567 703.018,541.567 715.5,556.5C 719.925,560.39 724.759,562.723 730,563.5C 732.734,562.638 732.901,561.805 730.5,561C 732.833,560.667 735.167,560.333 737.5,560C 740.833,556.667 744.5,553 748.5,549C 747.409,546.936 747.242,544.769 748,542.5C 748.383,543.056 748.883,543.389 749.5,543.5C 758.079,562.718 765.079,582.718 770.5,603.5C 776.044,619.747 783.044,635.247 791.5,650C 799.519,662.523 807.686,675.023 816,687.5C 816.483,688.448 816.649,689.448 816.5,690.5C 817.5,690.5 818.5,690.5 819.5,690.5C 819.519,692.06 819.852,693.56 820.5,695C 828.563,706.956 835.73,719.456 842,732.5C 844.537,734.432 847.204,736.099 850,737.5C 873.267,769.915 896.6,801.581 920,832.5C 923.626,837.054 928.126,839.554 933.5,840C 940.708,846.332 948.541,850.832 957,853.5C 969.335,859.918 982.168,865.085 995.5,869C 999.865,871.199 1002.53,874.699 1003.5,879.5C 1002.62,880.251 1001.62,880.751 1000.5,881C 990.936,881.73 981.769,880.23 973,876.5C 967.61,879.24 967.11,882.74 971.5,887C 971.167,887.333 970.833,887.667 970.5,888C 982.558,903.216 995.224,918.049 1008.5,932.5C 1009.31,934.071 1009.64,935.738 1009.5,937.5C 1005.4,937.116 1001.73,935.616 998.5,933C 989.142,923.582 979.309,914.749 969,906.5C 967.779,907.774 966.946,909.274 966.5,911C 973.904,921.641 980.404,932.808 986,944.5C 986.535,947.561 986.868,950.561 987,953.5C 974.605,944.91 964.772,934.077 957.5,921C 957.833,920.667 958.167,920.333 958.5,920C 956.212,917.257 954.045,914.423 952,911.5C 948.365,907.229 945.531,907.729 943.5,913C 946.974,919.316 949.64,925.649 951.5,932C 951.405,935.409 952.405,938.742 954.5,942C 953.663,943.011 953.33,944.178 953.5,945.5C 949.429,945.421 945.929,943.421 943,939.5C 934.906,928.812 929.073,916.978 925.5,904C 923.08,903.313 920.913,903.813 919,905.5C 918.65,909.533 918.483,913.367 918.5,917C 919.167,919.667 919.833,922.333 920.5,925C 919.809,926.067 919.309,927.234 919,928.5C 913.565,919.586 911.065,910.086 911.5,900C 910.833,898.667 910.167,897.333 909.5,896C 910.571,889.008 908.571,882.508 903.5,876.5C 887.865,856.943 870.365,839.277 851,823.5C 829.038,793.882 804.705,766.549 778,741.5C 768.997,726.826 757.997,713.826 745,702.5C 738.265,693.768 731.932,684.768 726,675.5C 718.988,666.824 711.988,658.157 705,649.5C 698.549,639.031 695.882,627.698 697,615.5C 700.777,608.615 703.277,601.115 704.5,593C 704.491,591.596 703.991,590.43 703,589.5C 702.333,590.833 701.667,590.833 701,589.5C 700.333,590.833 699.333,591.833 698,592.5C 696.775,599.734 694.775,606.734 692,613.5C 690.521,626.139 689.354,638.639 688.5,651C 691.129,672.197 695.795,692.864 702.5,713C 702.043,713.414 701.709,713.914 701.5,714.5C 703.525,724.738 705.025,735.071 706,745.5C 707.581,751.423 709.081,757.423 710.5,763.5C 711.656,765.824 712.656,768.157 713.5,770.5C 715.159,780.639 717.826,790.473 721.5,800C 720.833,801 720.167,802 719.5,803C 722,806.838 723.834,811.004 725,815.5C 726.093,823.005 727.593,830.505 729.5,838C 728.978,838.561 728.645,839.228 728.5,840C 729.812,846.43 730.645,852.93 731,859.5C 731.374,860.416 731.874,861.25 732.5,862C 732.138,868.732 732.138,875.732 732.5,883C 733.044,885.4 733.711,887.733 734.5,890C 734.695,905.04 734.695,920.374 734.5,936C 735.357,936.689 736.023,937.522 736.5,938.5C 736.622,973.017 736.622,1007.35 736.5,1041.5C 735.608,1047.71 734.608,1053.88 733.5,1060C 733.833,1062.33 734.167,1064.67 734.5,1067C 734,1067.5 733.5,1068 733,1068.5C 732.166,1075.67 731.333,1082.84 730.5,1090C 731.202,1092.95 730.869,1095.95 729.5,1099C 730.462,1101.41 730.129,1103.74 728.5,1106C 728.493,1107.58 728.826,1109.25 729.5,1111C 728.833,1112.67 728.167,1114.33 727.5,1116C 728.051,1117.4 728.384,1118.73 728.5,1120C 727.799,1126.04 726.799,1132.04 725.5,1138C 725.439,1142.27 725.439,1146.61 725.5,1151C 723.002,1157.55 722.669,1164.05 724.5,1170.5C 724.239,1176.09 723.905,1182.26 723.5,1189C 726.442,1228.35 728.775,1267.69 730.5,1307C 729.867,1309.88 729.533,1312.71 729.5,1315.5C 728.244,1317.73 728.244,1320.06 729.5,1322.5C 728.089,1328.44 727.423,1334.61 727.5,1341C 728.477,1373.43 727.477,1405.76 724.5,1438C 725.563,1442.35 725.23,1446.68 723.5,1451C 724.128,1453.37 724.461,1455.7 724.5,1458C 723.874,1458.75 723.374,1459.58 723,1460.5C 721.767,1470.06 720.933,1479.23 720.5,1488C 721.668,1492.17 723.501,1496 726,1499.5C 726.167,1501.83 726.333,1504.17 726.5,1506.5C 724.978,1521.99 723.311,1537.49 721.5,1553C 722.632,1571.77 722.632,1590.43 721.5,1609C 724.082,1618.99 723.915,1629.15 721,1639.5C 720.196,1641.94 718.696,1643.78 716.5,1645C 710.5,1645.33 704.5,1645.67 698.5,1646C 696.316,1646.87 694.149,1647.7 692,1648.5C 690.774,1648.36 689.607,1648.02 688.5,1647.5C 681.199,1650.19 674.032,1652.19 667,1653.5C 666.127,1653.26 665.293,1652.93 664.5,1652.5C 657.714,1653.34 651.047,1654.17 644.5,1655C 642.43,1654.05 640.93,1652.55 640,1650.5C 639.661,1641.41 639.495,1632.41 639.5,1623.5C 639.782,1620.87 640.449,1618.37 641.5,1616C 640.978,1615.44 640.645,1614.77 640.5,1614C 644.019,1587.76 647.019,1561.76 649.5,1536C 649.167,1535.67 648.833,1535.33 648.5,1535C 649.167,1532.33 649.833,1529.67 650.5,1527C 650.162,1520.03 650.162,1512.86 650.5,1505.5C 649.349,1501.42 648.682,1497.26 648.5,1493C 648.946,1482.12 649.279,1471.28 649.5,1460.5C 649.097,1457.24 648.43,1454.07 647.5,1451C 647.464,1441.68 647.464,1432.34 647.5,1423C 647.022,1418.53 646.022,1414.2 644.5,1410C 645.022,1409.44 645.355,1408.77 645.5,1408C 643.796,1386.11 640.796,1364.45 636.5,1343C 637.214,1341.66 636.88,1340.32 635.5,1339C 635.957,1338.59 636.291,1338.09 636.5,1337.5C 634.726,1327.25 633.226,1316.91 632,1306.5C 631.562,1293.14 630.729,1279.8 629.5,1266.5C 630.963,1257.04 631.63,1247.38 631.5,1237.5C 631.5,1231.32 631.166,1225.32 630.5,1219.5C 630.726,1214.44 630.392,1209.44 629.5,1204.5C 629.741,1197.27 629.075,1190.27 627.5,1183.5C 628.462,1180 628.129,1176.66 626.5,1173.5C 625.515,1168.89 624.848,1164.22 624.5,1159.5C 625.005,1155.97 625.672,1152.47 626.5,1149C 626.492,1147.29 626.158,1145.79 625.5,1144.5C 624.162,1138.74 622.828,1133.07 621.5,1127.5C 621.59,1124.85 620.924,1122.51 619.5,1120.5C 616.966,1113.08 614.132,1105.75 611,1098.5C 609.893,1093.52 608.893,1088.52 608,1083.5C 606.982,1072.69 605.649,1062.02 604,1051.5C 603.112,1038.18 602.445,1024.84 602,1011.5C 599.376,996.985 597.71,982.318 597,967.5C 595.648,961.088 594.481,954.922 593.5,949C 594.458,947.853 594.125,946.853 592.5,946C 592.833,944.333 593.167,942.667 593.5,941C 591.156,933.531 591.156,925.698 593.5,917.5C 596.161,916.668 598.828,915.834 601.5,915C 603.155,913.556 603.822,911.722 603.5,909.5C 600.561,910.462 597.728,910.795 595,910.5C 593.667,909.167 592.333,907.833 591,906.5C 589.394,908.984 587.894,908.984 586.5,906.5C 584.594,907.578 583.094,908.911 582,910.5C 579.272,910.795 576.439,910.462 573.5,909.5C 573.178,911.722 573.845,913.556 575.5,915C 578.172,915.834 580.839,916.668 583.5,917.5C 584.466,919.396 584.799,921.396 584.5,923.5C 585.715,929.722 585.382,935.555 583.5,941C 583.833,942.667 584.167,944.333 584.5,946C 582.627,946.953 582.294,948.12 583.5,949.5C 581.525,957.94 580.191,966.607 579.5,975.5C 578.054,981.274 577.388,987.274 577.5,993.5C 574.606,1027.23 571.106,1060.89 567,1094.5C 560.39,1110.72 555.223,1127.39 551.5,1144.5C 550.523,1147.29 550.19,1150.29 550.5,1153.5C 551.5,1153.5 552.5,1153.5 553.5,1153.5C 552.873,1158.14 552.54,1162.81 552.5,1167.5C 550.78,1168.75 550.447,1170.25 551.5,1172C 550.352,1175.72 549.686,1179.55 549.5,1183.5C 545.843,1207.41 544.843,1231.41 546.5,1255.5C 546.928,1268.45 546.928,1281.62 546.5,1295C 544.99,1309.23 542.99,1323.39 540.5,1337.5C 541.347,1339.06 541.014,1340.56 539.5,1342C 539.833,1342.33 540.167,1342.67 540.5,1343C 536.319,1363.94 533.319,1385.11 531.5,1406.5C 531.57,1407.77 531.903,1408.94 532.5,1410C 530.978,1414.2 529.978,1418.53 529.5,1423C 529.536,1432.34 529.536,1441.68 529.5,1451C 528.652,1454.26 527.985,1457.59 527.5,1461C 527.852,1471.31 528.185,1481.98 528.5,1493C 528.318,1497.26 527.651,1501.42 526.5,1505.5C 527.518,1535.65 530.185,1565.98 534.5,1596.5C 534.668,1602.03 535.335,1607.37 536.5,1612.5C 536.67,1613.82 536.337,1614.99 535.5,1616C 536.551,1618.37 537.218,1620.87 537.5,1623.5C 537.43,1630.89 537.43,1638.22 537.5,1645.5C 538.053,1649.9 536.386,1653.06 532.5,1655C 525.953,1654.17 519.286,1653.34 512.5,1652.5C 511.707,1652.93 510.873,1653.26 510,1653.5C 502.649,1651.99 495.482,1649.99 488.5,1647.5C 485.157,1648.01 481.824,1647.51 478.5,1646C 472.5,1645.67 466.5,1645.33 460.5,1645C 459.584,1644.63 458.75,1644.13 458,1643.5C 456.516,1640.56 455.182,1637.56 454,1634.5C 453.647,1628.84 453.481,1623.34 453.5,1618C 454.077,1614.94 454.743,1611.94 455.5,1609C 454.42,1590.46 454.42,1571.79 455.5,1553C 453.7,1537.48 452.034,1521.98 450.5,1506.5C 450.667,1504.17 450.833,1501.83 451,1499.5C 453.499,1496 455.332,1492.17 456.5,1488C 456.112,1485.53 456.112,1483.19 456.5,1481C 455.738,1473.93 454.738,1466.93 453.5,1460C 454.634,1458.98 454.301,1458.32 452.5,1458C 453.571,1453.58 453.237,1448.91 451.5,1444C 452.131,1442.09 452.464,1440.09 452.5,1438C 450.352,1414.3 449.019,1390.14 448.5,1365.5C 448.644,1357.31 448.978,1349.14 449.5,1341C 449.513,1334.1 448.846,1327.26 447.5,1320.5C 449.158,1317.99 448.825,1315.82 446.5,1314C 447.833,1311.67 447.833,1309.33 446.5,1307C 447.501,1267.98 449.835,1228.98 453.5,1190C 452.963,1182.92 452.63,1176.42 452.5,1170.5C 454.331,1164.05 453.998,1157.55 451.5,1151C 451.561,1146.61 451.561,1142.27 451.5,1138C 450.201,1132.04 449.201,1126.04 448.5,1120C 448.616,1118.73 448.949,1117.4 449.5,1116C 448.833,1114.33 448.167,1112.67 447.5,1111C 448.174,1109.25 448.507,1107.58 448.5,1106C 446.871,1103.74 446.538,1101.41 447.5,1099C 446.131,1095.95 445.798,1092.95 446.5,1090C 445.667,1082.84 444.834,1075.67 444,1068.5C 443.5,1068 443,1067.5 442.5,1067C 442.944,1065.47 443.277,1063.97 443.5,1062.5C 440.941,1049.47 440.274,1037.31 441.5,1026C 440.833,1021.33 440.167,1016.67 439.5,1012C 440.597,1003.02 440.597,994.021 439.5,985C 440.044,982.6 440.711,980.267 441.5,978C 440.541,964.37 440.207,951.203 440.5,938.5C 440.977,937.522 441.643,936.689 442.5,936C 442.746,927.784 442.412,919.45 441.5,911C 442.167,910.333 442.833,909.667 443.5,909C 443.123,902.622 442.79,896.288 442.5,890C 443.289,887.733 443.956,885.4 444.5,883C 444.366,880.4 444.366,877.9 444.5,875.5C 445.063,870.885 445.063,866.385 444.5,862C 446.227,859.096 446.893,855.93 446.5,852.5C 446.933,848.3 447.6,844.133 448.5,840C 448.091,836.011 448.758,832.011 450.5,828C 450.355,827.228 450.022,826.561 449.5,826C 456.08,802.213 462.58,778.046 469,753.5C 469.248,750.081 469.748,746.747 470.5,743.5C 471.924,741.485 472.59,739.152 472.5,736.5C 472.983,731.902 472.983,727.402 472.5,723C 476.626,704.026 481.126,685.192 486,666.5C 485.967,659.249 486.801,652.082 488.5,645C 486.82,634.8 485.653,624.3 485,613.5C 482.07,606.78 480.237,599.78 479.5,592.5C 477.339,592.174 475.506,591.174 474,589.5C 473.009,590.43 472.509,591.596 472.5,593C 475.559,603.587 478.559,614.087 481.5,624.5C 478.228,639.867 471.062,652.867 460,663.5C 445.142,686.346 428.142,707.346 409,726.5C 406.12,732.218 402.62,737.552 398.5,742.5C 371.771,767.07 347.605,794.07 326,823.5C 306.678,839.268 289.178,856.935 273.5,876.5C 268.429,882.508 266.429,889.008 267.5,896C 266.237,897.705 265.903,899.372 266.5,901C 265.753,910.823 262.92,919.99 258,928.5C 257.691,927.234 257.191,926.067 256.5,925C 257.167,922.333 257.833,919.667 258.5,917C 258.517,913.367 258.35,909.533 258,905.5C 256.087,903.813 253.92,903.313 251.5,904C 246.89,919.727 239.056,933.56 228,945.5C 226.701,945.034 225.201,945.034 223.5,945.5C 223.67,944.178 223.337,943.011 222.5,942C 224.595,938.742 225.595,935.409 225.5,932C 227.36,925.649 230.026,919.316 233.5,913C 231.469,907.729 228.635,907.229 225,911.5C 222.955,914.423 220.788,917.257 218.5,920C 218.833,920.333 219.167,920.667 219.5,921C 212.228,934.077 202.395,944.91 190,953.5C 190.141,948.178 191.308,943.011 193.5,938C 199.167,929 204.833,920 210.5,911C 209.899,906.685 207.899,905.685 204.5,908C 195.825,916.377 187.158,924.71 178.5,933C 175.271,935.616 171.604,937.116 167.5,937.5C 167.357,935.738 167.691,934.071 168.5,932.5C 178.863,920.475 189.196,908.475 199.5,896.5C 202.72,892.12 205.72,887.62 208.5,883C 207.576,881.85 207.576,880.85 208.5,880C 207.471,878.302 205.971,877.468 204,877.5C 195.019,880.259 185.852,881.426 176.5,881C 175.376,880.751 174.376,880.251 173.5,879.5C 174.468,874.699 177.135,871.199 181.5,869C 195.968,864.396 209.635,858.896 222.5,852.5C 230.46,849.857 237.46,845.691 243.5,840C 246.693,840.27 249.693,839.27 252.5,837C 264.279,823.303 274.945,809.303 284.5,795C 299.387,776.435 313.554,757.268 327,737.5C 329.796,736.099 332.463,734.432 335,732.5C 339.356,723.127 344.189,713.961 349.5,705C 361.508,686.646 373.508,668.313 385.5,650C 391.714,638.029 397.547,625.862 403,613.5C 409.033,589.342 417.199,566.008 427.5,543.5C 428.117,543.389 428.617,543.056 429,542.5C 429.758,544.769 429.591,546.936 428.5,549C 431.151,551.98 434.151,554.647 437.5,557C 437.167,557.333 436.833,557.667 436.5,558C 439.139,559.946 442.139,560.946 445.5,561C 445.167,561.333 444.833,561.667 444.5,562C 445.416,562.374 446.25,562.874 447,563.5C 452.241,562.723 457.075,560.39 461.5,556.5C 469.935,545.251 475.268,533.085 477.5,520C 477.043,516.581 477.043,513.248 477.5,510C 476.505,505.512 474.339,501.678 471,498.5C 468.497,499.238 466.663,498.238 465.5,495.5C 472.321,491.995 479.321,488.995 486.5,486.5C 490.342,486.761 494.009,486.094 497.5,484.5C 498.429,483.311 498.762,481.978 498.5,480.5C 509.752,475.574 521.252,470.907 533,466.5C 533.333,466.833 533.667,467.167 534,467.5C 539.264,465.08 544.431,462.414 549.5,459.5C 550.426,462.044 551.426,464.544 552.5,467C 554.107,466.981 555.774,466.815 557.5,466.5C 557.245,456.562 555.578,446.896 552.5,437.5C 552.47,436.503 552.97,435.836 554,435.5C 558.154,438.052 562.654,439.719 567.5,440.5C 568.167,440.5 568.833,440.5 569.5,440.5C 569.414,441.496 569.748,442.329 570.5,443C 579.434,445.228 588.434,445.728 597.5,444.5C 607.353,443.133 616.353,439.8 624.5,434.5C 625.302,433.115 625.969,433.282 626.5,435C 620.913,445.929 619.08,457.429 621,469.5C 621.333,468.5 621.667,467.5 622,466.5C 623,467.833 624,467.833 625,466.5C 625.681,464.105 626.515,461.772 627.5,459.5C 630.213,460.905 632.879,462.405 635.5,464C 650.855,469.169 665.855,475.003 680.5,481.5 Z"/></g>
<g><path style="opacity:1" fill="#6f4642" d="M 616.5,507.5 C 618.09,505.766 620.09,504.6 622.5,504C 621.57,503.009 620.404,502.509 619,502.5C 613.734,502.985 608.734,504.318 604,506.5C 603.833,506.833 603.667,507.167 603.5,507.5C 607.247,508.601 610.913,508.268 614.5,506.5C 615.107,506.624 615.44,506.957 615.5,507.5C 613.006,508.633 610.506,509.633 608,510.5C 600.837,510.083 600.003,507.916 605.5,504C 611.778,502.307 617.945,501.474 624,501.5C 624.5,502 625,502.5 625.5,503C 622.804,505.172 619.804,506.672 616.5,507.5 Z"/></g>
<g><path style="opacity:0.797" fill="#371114" d="M 616.5,507.5 C 616.167,507.5 615.833,507.5 615.5,507.5C 615.44,506.957 615.107,506.624 614.5,506.5C 610.913,508.268 607.247,508.601 603.5,507.5C 603.667,507.167 603.833,506.833 604,506.5C 608.734,504.318 613.734,502.985 619,502.5C 620.404,502.509 621.57,503.009 622.5,504C 620.09,504.6 618.09,505.766 616.5,507.5 Z"/></g>
<g><path style="opacity:0.835" fill="#4c2524" d="M 554.5,501.5 C 560.257,501.682 565.924,502.515 571.5,504C 576.997,507.916 576.163,510.083 569,510.5C 567.561,508.986 566.061,508.653 564.5,509.5C 560.82,508.062 557.153,506.562 553.5,505C 551.042,503.267 551.375,502.1 554.5,501.5 Z"/></g>
<g><path style="opacity:1" fill="#a47b70" d="M 569.5,440.5 C 578.544,443.934 587.877,444.934 597.5,443.5C 597.5,443.833 597.5,444.167 597.5,444.5C 588.434,445.728 579.434,445.228 570.5,443C 569.748,442.329 569.414,441.496 569.5,440.5 Z"/></g>
<g><path style="opacity:1" fill="#ae8579" d="M 567.5,440.5 C 562.654,439.719 558.154,438.052 554,435.5C 552.97,435.836 552.47,436.503 552.5,437.5C 551.596,436.791 551.263,435.791 551.5,434.5C 553.199,434.34 554.866,434.506 556.5,435C 560.402,436.565 564.069,438.398 567.5,440.5 Z"/></g>
<g><path style="opacity:1" fill="#b8978e" d="M 478.5,338.5 C 479.209,337.596 480.209,337.263 481.5,337.5C 482.217,342.344 482.217,347.011 481.5,351.5C 481.281,346.751 480.281,342.417 478.5,338.5 Z"/></g>
<g><path style="opacity:1" fill="#a5837c" d="M 698.5,338.5 C 696.799,341.921 695.466,345.587 694.5,349.5C 695.021,345.519 695.354,341.519 695.5,337.5C 696.791,337.263 697.791,337.596 698.5,338.5 Z"/></g>
<g><path style="opacity:1" fill="#f8d9ca" d="M 694.5,349.5 C 695.466,345.587 696.799,341.921 698.5,338.5C 703.076,336.389 706.076,337.723 707.5,342.5C 707.934,345.475 707.434,348.475 706,351.5C 703.217,352.928 700.383,354.262 697.5,355.5C 698.855,358.76 701.355,360.427 705,360.5C 706.512,359.743 707.846,358.743 709,357.5C 709.333,357.833 709.667,358.167 710,358.5C 710.98,357.019 712.147,355.685 713.5,354.5C 712.145,353.325 712.312,352.325 714,351.5C 715.714,344.27 713.88,337.77 708.5,332C 704.56,330.358 701.06,331.191 698,334.5C 697.506,332.866 697.34,331.199 697.5,329.5C 700.29,329.778 702.79,329.111 705,327.5C 708.116,326.874 711.116,327.541 714,329.5C 714.333,329.167 714.667,328.833 715,328.5C 717.302,331.057 719.469,331.39 721.5,329.5C 719.867,323.774 716.033,320.774 710,320.5C 707.041,320.77 704.041,321.77 701,323.5C 700.729,319.583 701.562,315.917 703.5,312.5C 717.13,309.629 725.63,315.295 729,329.5C 732.933,349.6 725.433,363.767 706.5,372C 702.142,372.788 697.809,373.622 693.5,374.5C 691.127,373.45 690.127,371.617 690.5,369C 691.873,363.584 693.54,358.251 695.5,353C 695.011,351.862 694.678,350.695 694.5,349.5 Z"/></g>
<g><path style="opacity:1" fill="#f8d8ca" d="M 478.5,338.5 C 480.281,342.417 481.281,346.751 481.5,351.5C 482.135,355.243 483.635,358.576 486,361.5C 486.667,365.167 486.667,368.833 486,372.5C 471.683,375.023 460.35,370.023 452,357.5C 446.811,350.702 445.144,343.035 447,334.5C 447.895,324.306 452.729,316.806 461.5,312C 465.495,311.857 469.495,312.024 473.5,312.5C 475.438,315.917 476.271,319.583 476,323.5C 470.695,320.645 465.195,320.478 459.5,323C 456.305,325.194 455.305,328.027 456.5,331.5C 459.963,328.917 463.63,327.584 467.5,327.5C 471.5,327.481 475.5,328.148 479.5,329.5C 479.66,331.199 479.494,332.866 479,334.5C 475.94,331.191 472.44,330.358 468.5,332C 462.075,338.316 460.742,345.316 464.5,353C 464.043,353.414 463.709,353.914 463.5,354.5C 464.853,355.685 466.02,357.019 467,358.5C 467.333,358.167 467.667,357.833 468,357.5C 470.612,360.666 473.779,361.166 477.5,359C 478.293,357.915 478.96,356.748 479.5,355.5C 476.617,354.262 473.783,352.928 471,351.5C 469.566,348.475 469.066,345.475 469.5,342.5C 470.924,337.723 473.924,336.389 478.5,338.5 Z"/></g>
<g><path style="opacity:1" fill="#8c635c" d="M 699.5,255.5 C 700.655,262.321 700.821,269.321 700,276.5C 699.768,277.737 699.268,278.737 698.5,279.5C 699.365,271.534 699.698,263.534 699.5,255.5 Z"/></g>
<g><path style="opacity:1" fill="#ad8378" d="M 479.5,242.5 C 479.665,245.85 479.498,249.183 479,252.5C 478.768,253.737 478.268,254.737 477.5,255.5C 477.77,250.972 478.437,246.639 479.5,242.5 Z"/></g>
<g><path style="opacity:1" fill="#b88f82" d="M 690.5,221.5 C 693.821,227.668 696.154,234.335 697.5,241.5C 696.883,241.389 696.383,241.056 696,240.5C 694.473,233.998 692.639,227.664 690.5,221.5 Z"/></g>
<g><path style="opacity:1" fill="#ba9285" d="M 486.5,221.5 C 484.622,227.583 482.622,233.583 480.5,239.5C 480.985,232.854 482.985,226.854 486.5,221.5 Z"/></g>
<g><path style="opacity:1" fill="#8e665d" d="M 682.5,204.5 C 685.447,207.995 687.447,211.995 688.5,216.5C 685.937,212.83 683.937,208.83 682.5,204.5 Z"/></g>
<g><path style="opacity:1" fill="#90675e" d="M 495.5,204.5 C 494.525,206.795 493.192,208.795 491.5,210.5C 491.684,207.663 493.018,205.663 495.5,204.5 Z"/></g>
<g><path style="opacity:1" fill="#ab8176" d="M 513.5,184.5 C 512.415,186.587 510.749,187.92 508.5,188.5C 509.585,186.413 511.251,185.08 513.5,184.5 Z"/></g>
<g><path style="opacity:1" fill="#bf978a" d="M 646.5,170.5 C 651.47,173.475 655.804,177.142 659.5,181.5C 657.151,179.516 654.485,177.85 651.5,176.5C 649.758,174.437 648.091,172.437 646.5,170.5 Z"/></g>
<g><path style="opacity:1" fill="#a57b70" d="M 535.5,167.5 C 533.583,169.703 531.25,171.369 528.5,172.5C 530.15,169.939 532.484,168.273 535.5,167.5 Z"/></g>
<g><path style="opacity:1" fill="#9b7269" d="M 634.5,162.5 C 637.124,163.959 639.458,165.625 641.5,167.5C 639.488,166.772 637.488,165.938 635.5,165C 634.748,164.329 634.414,163.496 634.5,162.5 Z"/></g>
<g><path style="opacity:1" fill="#ab8277" d="M 626.5,158.5 C 628.819,158.992 630.819,159.992 632.5,161.5C 629.784,161.614 627.784,160.614 626.5,158.5 Z"/></g>
<g><path style="opacity:1" fill="#bd9589" d="M 583.5,150.5 C 583.082,151.222 582.416,151.722 581.5,152C 577.848,152.499 574.182,152.665 570.5,152.5C 574.567,150.946 578.9,150.28 583.5,150.5 Z"/></g>
<g><path style="opacity:1" fill="#fadbcc" d="M 583.5,150.5 C 589.5,150.833 595.5,151.167 601.5,151.5C 610.192,152.755 618.525,155.088 626.5,158.5C 627.784,160.614 629.784,161.614 632.5,161.5C 632.842,162.338 633.508,162.672 634.5,162.5C 634.414,163.496 634.748,164.329 635.5,165C 637.488,165.938 639.488,166.772 641.5,167.5C 643.411,168.075 645.078,169.075 646.5,170.5C 648.091,172.437 649.758,174.437 651.5,176.5C 654.485,177.85 657.151,179.516 659.5,181.5C 662.5,181.167 663.833,182.5 663.5,185.5C 664.552,185.351 665.552,185.517 666.5,186C 671.743,192.372 677.076,198.539 682.5,204.5C 683.937,208.83 685.937,212.83 688.5,216.5C 689.167,218.167 689.833,219.833 690.5,221.5C 692.639,227.664 694.473,233.998 696,240.5C 696.383,241.056 696.883,241.389 697.5,241.5C 698.296,246.112 698.963,250.779 699.5,255.5C 699.698,263.534 699.365,271.534 698.5,279.5C 699.089,297.811 695.256,315.145 687,331.5C 687.856,351.423 682.523,369.423 671,385.5C 649.531,411.997 622.031,428.997 588.5,436.5C 559.131,429.902 533.965,415.902 513,394.5C 501.145,381.79 493.812,366.79 491,349.5C 490.667,343.5 490.333,337.5 490,331.5C 479.411,307.297 475.245,281.964 477.5,255.5C 478.268,254.737 478.768,253.737 479,252.5C 479.498,249.183 479.665,245.85 479.5,242.5C 479.263,241.209 479.596,240.209 480.5,239.5C 482.622,233.583 484.622,227.583 486.5,221.5C 487.199,217.406 488.866,213.739 491.5,210.5C 493.192,208.795 494.525,206.795 495.5,204.5C 495.877,202.742 496.544,201.075 497.5,199.5C 501.532,196.135 505.198,192.468 508.5,188.5C 510.749,187.92 512.415,186.587 513.5,184.5C 513.414,183.504 513.748,182.671 514.5,182C 519.014,178.579 523.681,175.412 528.5,172.5C 531.25,171.369 533.583,169.703 535.5,167.5C 539.018,164.822 542.684,162.322 546.5,160C 554.124,156.404 562.124,153.904 570.5,152.5C 574.182,152.665 577.848,152.499 581.5,152C 582.416,151.722 583.082,151.222 583.5,150.5 Z"/></g>
<g><path style="opacity:1" fill="#a87f74" d="M 583.5,150.5 C 589.548,149.37 595.548,149.703 601.5,151.5C 595.5,151.167 589.5,150.833 583.5,150.5 Z"/></g>
<g><path style="opacity:0.075" fill="#f39d7e" d="M 441.5,699.5 C 441.167,700.5 440.5,701.167 439.5,701.5C 439.5,700.167 440.167,699.5 441.5,699.5 Z"/></g>
<g><path style="opacity:0.071" fill="#eeb6a2" d="M 738.5,702.5 C 736.738,701.738 735.738,700.404 735.5,698.5C 736.839,698.909 737.839,700.243 738.5,702.5 Z"/></g>
<g><path style="opacity:0.725" fill="#b68c7c" d="M 738.5,702.5 C 740.759,703.344 741.759,705.011 741.5,707.5C 740.11,706.101 739.11,704.434 738.5,702.5 Z"/></g>
<g><path style="opacity:1" fill="#fbcfba" d="M 353.5,718.5 C 359.746,719.449 365.746,721.949 371.5,726C 370.939,727.566 371.606,728.899 373.5,730C 375.351,730.837 377.184,731.671 379,732.5C 379.023,736.56 379.523,740.394 380.5,744C 377.809,746.253 376.142,749.086 375.5,752.5C 374.448,752.351 373.448,752.517 372.5,753C 373.517,754.049 373.684,755.216 373,756.5C 371.159,753.352 368.826,753.352 366,756.5C 365.517,755.552 365.351,754.552 365.5,753.5C 363.856,753.286 362.356,753.62 361,754.5C 360.71,752.956 360.044,751.623 359,750.5C 358.667,750.833 358.333,751.167 358,751.5C 355.929,750.636 354.262,749.303 353,747.5C 351.16,748.833 350.66,748.666 351.5,747C 349.701,745.139 348.035,743.139 346.5,741C 345.207,740.51 343.873,740.343 342.5,740.5C 341.269,733.584 342.769,726.918 347,720.5C 348.43,720.306 349.93,720.306 351.5,720.5C 352.522,720.145 353.189,719.478 353.5,718.5 Z"/></g>
<g><path style="opacity:1" fill="#fbcfba" d="M 818.5,718.5 C 820.01,719.728 821.51,719.728 823,718.5C 825.888,719.091 828.554,720.091 831,721.5C 834.538,727.783 835.704,734.117 834.5,740.5C 833.127,740.343 831.793,740.51 830.5,741C 828.965,743.139 827.299,745.139 825.5,747C 826.34,748.666 825.84,748.833 824,747.5C 822.738,749.303 821.071,750.636 819,751.5C 818.667,751.167 818.333,750.833 818,750.5C 816.956,751.623 816.29,752.956 816,754.5C 814.644,753.62 813.144,753.286 811.5,753.5C 811.649,754.552 811.483,755.552 811,756.5C 808.174,753.352 805.841,753.352 804,756.5C 803.316,755.216 803.483,754.049 804.5,753C 803.552,752.517 802.552,752.351 801.5,752.5C 800.858,749.086 799.191,746.253 796.5,744C 796.981,741.293 797.648,738.293 798.5,735C 798.355,734.228 798.022,733.561 797.5,733C 799.377,731.815 801.377,730.815 803.5,730C 805.394,728.899 806.061,727.566 805.5,726C 809.996,723.43 814.33,720.93 818.5,718.5 Z"/></g>
<g><path style="opacity:1" fill="#956e66" d="M 472.5,736.5 C 472.59,739.152 471.924,741.485 470.5,743.5C 470.171,740.772 470.837,738.438 472.5,736.5 Z"/></g>
<g><path style="opacity:1" fill="#926e67" d="M 710.5,763.5 C 711.75,763.577 712.583,764.244 713,765.5C 713.494,767.134 713.66,768.801 713.5,770.5C 712.656,768.157 711.656,765.824 710.5,763.5 Z"/></g>
<g><path style="opacity:1" fill="#fbcfba" d="M 586.5,786.5 C 596.829,787.675 600.662,793.342 598,803.5C 596.954,805.09 595.787,806.59 594.5,808C 595.167,808.333 595.833,808.667 596.5,809C 594.351,810.152 592.518,811.652 591,813.5C 589.333,813.5 587.667,813.5 586,813.5C 584.482,811.652 582.649,810.152 580.5,809C 581.167,808.667 581.833,808.333 582.5,808C 578.695,803.909 577.528,799.076 579,793.5C 580.767,790.228 583.267,787.895 586.5,786.5 Z"/></g>
<g><path style="opacity:1" fill="#633b38" d="M 446.5,852.5 C 446.893,855.93 446.227,859.096 444.5,862C 445.063,866.385 445.063,870.885 444.5,875.5C 443.716,871.083 443.383,866.583 443.5,862C 444.768,858.794 445.768,855.627 446.5,852.5 Z"/></g>
<g><path style="opacity:1" fill="#643c39" d="M 584.5,923.5 C 585.845,926.051 586.511,928.884 586.5,932C 585.94,937.161 585.44,942.327 585,947.5C 584.841,949.343 584.341,950.009 583.5,949.5C 582.294,948.12 582.627,946.953 584.5,946C 584.167,944.333 583.833,942.667 583.5,941C 585.382,935.555 585.715,929.722 584.5,923.5 Z"/></g>
<g><path style="opacity:0.702" fill="#371113" d="M 168.5,945.5 C 168.833,945.5 169.167,945.5 169.5,945.5C 169.315,946.17 168.981,946.17 168.5,945.5 Z"/></g>
<g><path style="opacity:0.8" fill="#361213" d="M 1007.5,945.5 C 1007.83,945.5 1008.17,945.5 1008.5,945.5C 1008.31,946.17 1007.98,946.17 1007.5,945.5 Z"/></g>
<g><path style="opacity:1" fill="#97716a" d="M 579.5,975.5 C 579.612,981.726 578.946,987.726 577.5,993.5C 577.388,987.274 578.054,981.274 579.5,975.5 Z"/></g>
<g><path style="opacity:1" fill="#a37c73" d="M 619.5,1120.5 C 620.924,1122.51 621.59,1124.85 621.5,1127.5C 620.883,1127.39 620.383,1127.06 620,1126.5C 619.505,1124.53 619.338,1122.53 619.5,1120.5 Z"/></g>
<g><path style="opacity:0.976" fill="#7f5751" d="M 551.5,1144.5 C 551.5,1146.83 551.5,1149.17 551.5,1151.5C 552.5,1151.5 553.5,1151.5 554.5,1151.5C 554.624,1157.07 553.957,1162.4 552.5,1167.5C 552.54,1162.81 552.873,1158.14 553.5,1153.5C 552.5,1153.5 551.5,1153.5 550.5,1153.5C 550.19,1150.29 550.523,1147.29 551.5,1144.5 Z"/></g>
<g><path style="opacity:1" fill="#99736b" d="M 625.5,1144.5 C 626.158,1145.79 626.492,1147.29 626.5,1149C 625.672,1152.47 625.005,1155.97 624.5,1159.5C 624.848,1164.22 625.515,1168.89 626.5,1173.5C 624.267,1169.22 623.267,1164.55 623.5,1159.5C 624.334,1154.5 625.001,1149.5 625.5,1144.5 Z"/></g>
<g><path style="opacity:1" fill="#fbcfbb" d="M 487.5,1171.5 C 494.332,1172.32 501.332,1173.32 508.5,1174.5C 512.707,1173.88 516.707,1174.88 520.5,1177.5C 521.086,1177.29 521.586,1176.96 522,1176.5C 522.928,1178.31 524.094,1179.97 525.5,1181.5C 524.395,1182.89 523.061,1184.06 521.5,1185C 522.833,1185.67 522.833,1186.33 521.5,1187C 524.022,1188.34 526.689,1189.17 529.5,1189.5C 529.719,1190.68 529.386,1191.68 528.5,1192.5C 524.452,1193.67 520.952,1195.67 518,1198.5C 517,1195.83 516,1195.83 515,1198.5C 514.667,1197.83 514.333,1197.17 514,1196.5C 512.333,1197.17 510.667,1197.83 509,1198.5C 508.333,1197.83 507.667,1197.17 507,1196.5C 503.797,1197.29 500.464,1197.63 497,1197.5C 494.333,1196.77 491.833,1195.11 489.5,1192.5C 488.033,1192.72 486.533,1193.06 485,1193.5C 483.524,1190.21 481.024,1188.21 477.5,1187.5C 476.96,1186.25 476.293,1185.09 475.5,1184C 476.833,1182 476.833,1180 475.5,1178C 478.457,1173.78 482.457,1171.61 487.5,1171.5 Z"/></g>
<g><path style="opacity:1" fill="#fbd0bb" d="M 683.5,1171.5 C 688.158,1172.06 692.825,1172.72 697.5,1173.5C 698.648,1175.15 699.981,1176.65 701.5,1178C 700.712,1181.08 700.212,1184.24 700,1187.5C 696.206,1187.96 693.539,1189.96 692,1193.5C 690.467,1193.06 688.967,1192.72 687.5,1192.5C 685.167,1195.11 682.667,1196.77 680,1197.5C 676.536,1197.63 673.203,1197.29 670,1196.5C 669.333,1197.17 668.667,1197.83 668,1198.5C 666.333,1197.83 664.667,1197.17 663,1196.5C 662.374,1198.99 661.541,1198.99 660.5,1196.5C 659.808,1197.03 659.308,1197.69 659,1198.5C 656.058,1195.67 652.558,1193.67 648.5,1192.5C 647.614,1191.68 647.281,1190.68 647.5,1189.5C 650.568,1188.98 653.568,1188.14 656.5,1187C 655.853,1185.01 654.187,1183.34 651.5,1182C 653.504,1180.58 655.004,1178.74 656,1176.5C 658.128,1176.93 660.295,1176.43 662.5,1175C 669.752,1174.51 676.752,1173.35 683.5,1171.5 Z"/></g>
<g><path style="opacity:1" fill="#6d4541" d="M 627.5,1183.5 C 629.075,1190.27 629.741,1197.27 629.5,1204.5C 628.698,1203.05 628.198,1201.38 628,1199.5C 627.501,1194.18 627.334,1188.84 627.5,1183.5 Z"/></g>
<g><path style="opacity:0.992" fill="#825a54" d="M 549.5,1183.5 C 548.091,1207.48 547.091,1231.48 546.5,1255.5C 544.843,1231.41 545.843,1207.41 549.5,1183.5 Z"/></g>
<g><path style="opacity:0.914" fill="#805852" d="M 630.5,1219.5 C 631.166,1225.32 631.5,1231.32 631.5,1237.5C 631.63,1247.38 630.963,1257.04 629.5,1266.5C 629.961,1250.84 630.295,1235.17 630.5,1219.5 Z"/></g>
<g><path style="opacity:1" fill="#865d56" d="M 729.5,1315.5 C 729.633,1317.77 729.633,1320.1 729.5,1322.5C 728.244,1320.06 728.244,1317.73 729.5,1315.5 Z"/></g>
<g><path style="opacity:1" fill="#946a62" d="M 534.5,1596.5 C 536.078,1601.58 536.745,1606.92 536.5,1612.5C 535.335,1607.37 534.668,1602.03 534.5,1596.5 Z"/></g>
</svg>
