<?xml version="1.0" encoding="UTF-8"?>
<!DOCTYPE svg PUBLIC "-//W3C//DTD SVG 1.1//EN" "http://www.w3.org/Graphics/SVG/1.1/DTD/svg11.dtd">
<svg xmlns="http://www.w3.org/2000/svg" version="1.1" width="1216px" height="1749px" style="shape-rendering:geometricPrecision; text-rendering:geometricPrecision; image-rendering:optimizeQuality; fill-rule:evenodd; clip-rule:evenodd" xmlns:xlink="http://www.w3.org/1999/xlink">
<g><path style="opacity:0.079" fill="#000000" d="M 601.5,143.5 C 589.754,143.103 578.087,143.77 566.5,145.5C 569.008,143.763 572.008,142.93 575.5,143C 584.343,142.176 593.01,142.343 601.5,143.5 Z"/></g>
<g><path style="opacity:0.94" fill="#371113" d="M 601.5,143.5 C 606.617,143.581 611.617,144.414 616.5,146C 622.276,148.548 628.276,150.548 634.5,152C 637.863,153.813 641.03,155.979 644,158.5C 647.652,159.249 650.485,161.082 652.5,164C 653.793,164.49 655.127,164.657 656.5,164.5C 656.5,165.5 656.5,166.5 656.5,167.5C 660.397,169.121 664.064,171.288 667.5,174C 677.707,183.26 686.873,193.427 695,204.5C 698.534,211.451 701.867,218.451 705,225.5C 705.495,227.473 705.662,229.473 705.5,231.5C 708.062,240.13 709.728,248.797 710.5,257.5C 710.804,266.584 710.471,275.584 709.5,284.5C 708.06,290.354 706.727,296.354 705.5,302.5C 705.624,303.107 705.957,303.44 706.5,303.5C 711.021,303.056 715.688,303.556 720.5,305C 732.314,313.618 738.981,325.285 740.5,340C 740.439,346.715 738.606,353.548 735,360.5C 731.027,365.074 727.194,369.074 723.5,372.5C 717.725,375.476 712.225,378.143 707,380.5C 706.586,380.043 706.086,379.709 705.5,379.5C 700.418,380.348 695.585,381.015 691,381.5C 689.739,381.241 688.739,380.574 688,379.5C 687.009,382.64 685.176,384.974 682.5,386.5C 677.725,388.719 674.725,392.386 673.5,397.5C 669.215,400.452 665.548,404.118 662.5,408.5C 661.972,409.721 661.305,410.887 660.5,412C 652.341,417.666 644.507,423.5 637,429.5C 635.421,436.845 633.087,443.845 630,450.5C 629.5,451.667 628.667,452.5 627.5,453C 628.984,454.574 630.651,455.907 632.5,457C 647.393,462.612 662.393,467.945 677.5,473C 684.616,476.392 691.616,480.058 698.5,484C 708.055,486.788 717.055,490.621 725.5,495.5C 725.5,496.5 725.5,497.5 725.5,498.5C 726.822,498.33 727.989,498.663 729,499.5C 730.333,502.167 731.667,504.833 733,507.5C 740.839,517.853 748.172,528.52 755,539.5C 757.894,546.288 761.06,552.955 764.5,559.5C 764.167,560.167 763.833,560.833 763.5,561.5C 771.606,580.465 778.773,600.131 785,620.5C 790.049,628.996 794.715,637.662 799,646.5C 801.863,648.897 803.697,651.897 804.5,655.5C 806.942,655.354 807.609,656.187 806.5,658C 812.548,666.906 818.881,675.739 825.5,684.5C 833.443,697.353 840.943,710.686 848,724.5C 876.448,761.093 905.114,797.426 934,833.5C 940.156,838.45 946.989,842.283 954.5,845C 967.305,850.159 980.139,855.326 993,860.5C 993.333,860.167 993.667,859.833 994,859.5C 996.333,860.833 998.667,862.167 1001,863.5C 1001.33,863.167 1001.67,862.833 1002,862.5C 1009.84,868.159 1012.01,875.159 1008.5,883.5C 1004.84,886.774 1000.51,888.44 995.5,888.5C 989.879,887.528 984.212,886.695 978.5,886C 991.897,900.725 1004.9,915.725 1017.5,931C 1019.82,938.711 1016.82,943.545 1008.5,945.5C 1008.17,944.167 1007.83,944.167 1007.5,945.5C 1006.6,944.402 1005.77,944.402 1005,945.5C 1004.15,943.875 1003.15,943.542 1002,944.5C 999.342,942.044 996.675,940.377 994,939.5C 993.085,938.672 992.419,937.672 992,936.5C 993.452,941.797 994.619,946.964 995.5,952C 994.632,954.235 993.632,956.402 992.5,958.5C 990.566,958.901 989.066,959.901 988,961.5C 984.089,960.421 980.589,958.588 977.5,956C 972.641,951.472 967.807,946.972 963,942.5C 962.272,947.564 959.605,951.23 955,953.5C 952.333,953.5 949.667,953.5 947,953.5C 938.638,947.679 932.305,940.679 928,932.5C 925.659,934.502 923.325,936.502 921,938.5C 914.521,936.693 909.854,932.693 907,926.5C 906,923.833 905,921.167 904,918.5C 902.105,908.189 900.938,898.023 900.5,888C 899.283,886.352 898.45,884.519 898,882.5C 889.951,874.632 882.451,866.132 875.5,857C 866.726,849.734 858.06,842.234 849.5,834.5C 838.389,821.964 828.222,809.298 819,796.5C 817.667,795.833 816.333,795.167 815,794.5C 807.621,786.123 800.621,777.456 794,768.5C 779.205,756.322 766.539,741.656 756,724.5C 745.979,713.805 736.646,702.471 728,690.5C 721.756,679.602 714.089,669.936 705,661.5C 701.831,655.828 698.664,650.161 695.5,644.5C 695.167,645.167 694.833,645.833 694.5,646.5C 697.167,667.669 702,688.335 709,708.5C 710.628,714.388 711.628,720.388 712,726.5C 712.684,728.359 713.684,730.026 715,731.5C 719.712,759.974 725.879,788.14 733.5,816C 733.167,816.333 732.833,816.667 732.5,817C 733.744,823.611 735.411,830.278 737.5,837C 738.235,840.169 738.235,843.502 737.5,847C 738,847.5 738.5,848 739,848.5C 740.025,857.069 741.192,865.569 742.5,874C 742.384,875.268 742.051,876.602 741.5,878C 742.604,886.762 743.604,895.429 744.5,904C 744.481,907.309 744.148,910.642 743.5,914C 744.167,915.333 744.833,916.667 745.5,918C 745.421,921.79 745.088,925.624 744.5,929.5C 745.142,934.365 745.808,939.199 746.5,944C 745.633,946.823 745.299,949.823 745.5,953C 746.167,956.333 746.833,959.667 747.5,963C 747.574,966.29 747.24,969.457 746.5,972.5C 747.149,979.364 747.816,986.198 748.5,993C 748.164,1003.16 748.164,1013.66 748.5,1024.5C 747.865,1028.37 747.199,1032.2 746.5,1036C 746.833,1036.33 747.167,1036.67 747.5,1037C 746.833,1038.67 746.167,1040.33 745.5,1042C 746.357,1045.38 746.024,1049.04 744.5,1053C 744.957,1053.41 745.291,1053.91 745.5,1054.5C 744.637,1059.46 743.97,1064.46 743.5,1069.5C 744.5,1069.5 745.5,1069.5 746.5,1069.5C 744.803,1104.88 739.803,1139.71 731.5,1174C 732.572,1176.68 731.905,1179.01 729.5,1181C 731.831,1208.47 735.164,1235.97 739.5,1263.5C 739.769,1269.51 739.769,1275.35 739.5,1281C 740.167,1285.33 740.833,1289.67 741.5,1294C 741.224,1312.06 741.224,1330.39 741.5,1349C 740.712,1352.08 740.212,1355.24 740,1358.5C 740.033,1382.22 739.033,1405.88 737,1429.5C 734.173,1444.13 731.673,1458.79 729.5,1473.5C 729.504,1477.57 730.004,1481.57 731,1485.5C 734.544,1493.09 737.377,1500.92 739.5,1509C 738.316,1511.66 736.983,1514.16 735.5,1516.5C 733.089,1516.14 731.589,1517.14 731,1519.5C 730.164,1524.38 729.331,1529.21 728.5,1534C 728.808,1563.54 729.808,1593.54 731.5,1624C 732.042,1632.53 730.042,1640.36 725.5,1647.5C 721.849,1650.45 717.682,1652.12 713,1652.5C 709.788,1651.73 706.288,1651.56 702.5,1652C 700.924,1652.44 699.59,1653.27 698.5,1654.5C 697.914,1654.29 697.414,1653.96 697,1653.5C 693.255,1654.3 689.421,1654.8 685.5,1655C 678.632,1659.12 671.632,1660.95 664.5,1660.5C 660.627,1665.48 655.461,1667.48 649,1666.5C 640.443,1666.98 633.276,1663.65 627.5,1656.5C 627.073,1643.01 626.74,1630.01 626.5,1617.5C 628.65,1606.9 630.483,1596.23 632,1585.5C 632.692,1584.97 633.192,1584.31 633.5,1583.5C 634.1,1581.03 633.434,1578.7 631.5,1576.5C 632.704,1561.42 634.537,1546.42 637,1531.5C 637.187,1524.92 637.687,1518.42 638.5,1512C 637.64,1505.07 637.973,1497.9 639.5,1490.5C 639.158,1488.13 638.658,1485.8 638,1483.5C 638.092,1455.78 637.092,1428.12 635,1400.5C 629.119,1359.61 622.952,1318.78 616.5,1278C 618.384,1261.72 619.384,1245.39 619.5,1229C 618.926,1206.5 617.592,1184.34 615.5,1162.5C 615.789,1156.41 615.455,1150.41 614.5,1144.5C 612.233,1133.99 609.4,1123.66 606,1113.5C 604.112,1104.33 602.278,1095.17 600.5,1086C 600.348,1071.83 599.014,1057.66 596.5,1043.5C 596.608,1042.56 596.941,1041.72 597.5,1041C 595.706,1031.06 594.373,1021.06 593.5,1011C 592.967,1000.81 591.3,990.64 588.5,980.5C 589.611,979.389 590.278,978.055 590.5,976.5C 589.705,970.522 589.039,964.522 588.5,958.5C 586.863,966.353 586.53,974.02 587.5,981.5C 581.657,1016.6 577.49,1052.27 575,1088.5C 573.389,1096.11 572.056,1103.77 571,1111.5C 567.804,1121.65 565.138,1131.98 563,1142.5C 560.337,1171.28 558.504,1200.11 557.5,1229C 557.584,1245.28 558.584,1261.28 560.5,1277C 554.13,1318.12 547.963,1359.29 542,1400.5C 539.908,1428.12 538.908,1455.78 539,1483.5C 537.568,1490.49 537.735,1497.49 539.5,1504.5C 538.704,1507.08 538.371,1509.58 538.5,1512C 539.313,1518.42 539.813,1524.92 540,1531.5C 542.449,1546.42 544.282,1561.42 545.5,1576.5C 543.566,1578.7 542.9,1581.03 543.5,1583.5C 543.808,1584.31 544.308,1584.97 545,1585.5C 546.517,1596.23 548.35,1606.9 550.5,1617.5C 550.244,1630.08 549.911,1643.08 549.5,1656.5C 541.838,1665.25 531.838,1668.41 519.5,1666C 516.404,1665.12 514.07,1663.29 512.5,1660.5C 505.368,1660.95 498.368,1659.12 491.5,1655C 487.579,1654.8 483.745,1654.3 480,1653.5C 479.586,1653.96 479.086,1654.29 478.5,1654.5C 477.41,1653.27 476.076,1652.44 474.5,1652C 470.712,1651.56 467.212,1651.73 464,1652.5C 459.318,1652.12 455.151,1650.45 451.5,1647.5C 446.958,1640.36 444.958,1632.53 445.5,1624C 447.192,1593.54 448.192,1563.54 448.5,1534C 447.669,1529.21 446.836,1524.38 446,1519.5C 445.411,1517.14 443.911,1516.14 441.5,1516.5C 440.017,1514.16 438.684,1511.66 437.5,1509C 439.623,1500.92 442.456,1493.09 446,1485.5C 446.996,1481.57 447.496,1477.57 447.5,1473.5C 445.327,1458.79 442.827,1444.13 440,1429.5C 437.967,1405.88 436.967,1382.22 437,1358.5C 436.788,1355.24 436.288,1352.08 435.5,1349C 436.053,1330.11 436.053,1311.61 435.5,1293.5C 436.131,1289.97 436.798,1286.47 437.5,1283C 437.042,1276.95 437.042,1270.45 437.5,1263.5C 441.836,1235.97 445.169,1208.47 447.5,1181C 445.095,1179.01 444.428,1176.68 445.5,1174C 444.313,1170.57 443.313,1167.07 442.5,1163.5C 442.709,1162.91 443.043,1162.41 443.5,1162C 436.104,1131.67 431.77,1100.84 430.5,1069.5C 431.5,1069.5 432.5,1069.5 433.5,1069.5C 433.03,1064.46 432.363,1059.46 431.5,1054.5C 431.709,1053.91 432.043,1053.41 432.5,1053C 430.976,1049.04 430.643,1045.38 431.5,1042C 430.833,1040.33 430.167,1038.67 429.5,1037C 429.833,1036.67 430.167,1036.33 430.5,1036C 429.801,1032.2 429.135,1028.37 428.5,1024.5C 428.836,1013.66 428.836,1003.16 428.5,993C 429.184,986.198 429.851,979.364 430.5,972.5C 429.76,969.457 429.426,966.29 429.5,963C 430.167,959.667 430.833,956.333 431.5,953C 431.701,949.823 431.367,946.823 430.5,944C 431.192,939.199 431.858,934.365 432.5,929.5C 431.912,925.624 431.579,921.79 431.5,918C 432.167,916.667 432.833,915.333 433.5,914C 432.852,910.642 432.519,907.309 432.5,904C 433.396,895.429 434.396,886.762 435.5,878C 434.949,876.602 434.616,875.268 434.5,874C 435.808,865.569 436.975,857.069 438,848.5C 443.938,816.778 450.938,784.445 459,751.5C 461.136,736.509 463.303,721.509 465.5,706.5C 467.124,706.64 468.29,705.973 469,704.5C 472.584,691.922 475.917,679.256 479,666.5C 480.081,660.561 480.414,654.561 480,648.5C 479.333,649.167 478.667,649.833 478,650.5C 463.28,668.928 449.28,687.928 436,707.5C 423.745,721.08 412.745,735.413 403,750.5C 402.667,750.167 402.333,749.833 402,749.5C 400.353,752.473 398.353,755.14 396,757.5C 383.53,768.76 372.197,781.094 362,794.5C 360.693,795.772 359.193,796.772 357.5,797.5C 348.358,809.872 338.358,822.205 327.5,834.5C 318.94,842.234 310.274,849.734 301.5,857C 294.549,866.132 287.049,874.632 279,882.5C 278.55,884.519 277.717,886.352 276.5,888C 276.054,898.079 274.888,908.245 273,918.5C 270.91,925.18 267.41,931.013 262.5,936C 260.341,936.912 258.175,937.745 256,938.5C 253.675,936.502 251.341,934.502 249,932.5C 244.695,940.679 238.362,947.679 230,953.5C 224.561,954.441 219.894,952.774 216,948.5C 215.027,946.608 214.36,944.608 214,942.5C 209.193,946.972 204.359,951.472 199.5,956C 196.411,958.588 192.911,960.421 189,961.5C 187.934,959.901 186.434,958.901 184.5,958.5C 183.368,956.402 182.368,954.235 181.5,952C 182.381,946.964 183.548,941.797 185,936.5C 184.558,938.679 183.558,939.345 182,938.5C 179.986,940.845 177.653,942.845 175,944.5C 173.853,943.542 172.853,943.875 172,945.5C 171.23,944.402 170.397,944.402 169.5,945.5C 169.167,944.167 168.833,944.167 168.5,945.5C 160.18,943.545 157.18,938.711 159.5,931C 172.132,915.7 185.132,900.7 198.5,886C 192.788,886.695 187.121,887.528 181.5,888.5C 168.275,887.644 163.942,881.311 168.5,869.5C 170.568,867.055 172.735,864.722 175,862.5C 175.333,862.833 175.667,863.167 176,863.5C 195.119,856.329 214.286,848.495 233.5,840C 236.672,838.248 239.672,836.248 242.5,834C 271.653,797.836 300.486,761.336 329,724.5C 340.724,700.931 354.557,678.764 370.5,658C 370.167,657.667 369.833,657.333 369.5,657C 372.538,653.697 375.371,650.197 378,646.5C 382.292,637.617 386.959,628.95 392,620.5C 401.159,591.107 411.659,562.607 423.5,535C 426.286,531.926 428.952,528.759 431.5,525.5C 436.667,517.167 441.833,508.833 447,500.5C 455.826,492.054 466.326,486.554 478.5,484C 483.859,480.958 489.192,477.958 494.5,475C 508.705,469.599 523.038,464.599 537.5,460C 542.076,458.592 546.076,456.259 549.5,453C 548.333,452.5 547.5,451.667 547,450.5C 543.895,443.43 541.395,436.097 539.5,428.5C 537.442,424.969 534.442,422.636 530.5,421.5C 525.965,418.13 521.298,414.964 516.5,412C 515.695,410.887 515.028,409.721 514.5,408.5C 509.5,402.833 504.5,397.167 499.5,391.5C 498.833,391.5 498.5,391.167 498.5,390.5C 496.161,386.498 493.161,383.165 489.5,380.5C 483.615,380.924 477.115,380.924 470,380.5C 464.775,378.143 459.275,375.476 453.5,372.5C 449.806,369.074 445.973,365.074 442,360.5C 438.394,353.548 436.561,346.715 436.5,340C 438.019,325.285 444.686,313.618 456.5,305C 460.794,303.318 465.128,303.151 469.5,304.5C 469.782,302.013 469.782,299.347 469.5,296.5C 469.461,292.267 468.795,288.267 467.5,284.5C 466.529,275.584 466.196,266.584 466.5,257.5C 467.272,248.797 468.938,240.13 471.5,231.5C 470.883,227.505 472.049,224.172 475,221.5C 476.849,215.645 479.183,209.979 482,204.5C 490.127,193.427 499.293,183.26 509.5,174C 512.936,171.288 516.603,169.121 520.5,167.5C 520.5,166.5 520.5,165.5 520.5,164.5C 523.55,165.077 525.55,163.91 526.5,161C 528.722,160.305 530.889,159.472 533,158.5C 535.97,155.979 539.137,153.813 542.5,152C 548.724,150.548 554.724,148.548 560.5,146C 562.473,145.505 564.473,145.338 566.5,145.5C 578.087,143.77 589.754,143.103 601.5,143.5 Z"/></g>
<g><path style="opacity:1" fill="#8a6553" d="M 583.5,150.5 C 600.593,151.023 616.926,154.856 632.5,162C 644.845,170.509 656.845,179.509 668.5,189C 688.466,210.357 698.799,235.857 699.5,265.5C 700.565,288.233 696.399,309.9 687,330.5C 687.541,360.917 676.041,385.75 652.5,405C 633.453,420.231 612.119,430.731 588.5,436.5C 553.95,428.476 525.783,410.476 504,382.5C 493.721,366.721 489.055,349.388 490,330.5C 480.54,309.737 476.374,287.903 477.5,265C 478.46,256.884 479.293,248.717 480,240.5C 480.915,239.672 481.581,238.672 482,237.5C 482.333,234.5 482.667,231.5 483,228.5C 485.98,221.733 489.313,215.066 493,208.5C 497.012,201.872 501.678,195.872 507,190.5C 522.175,175.541 539.675,164.041 559.5,156C 567.437,153.316 575.437,151.483 583.5,150.5 Z"/></g>
<g><path style="opacity:0.048" fill="#000000" d="M 471.5,231.5 C 468.938,240.13 467.272,248.797 466.5,257.5C 466.153,250.893 466.653,244.227 468,237.5C 468.739,235.111 469.905,233.111 471.5,231.5 Z"/></g>
<g><path style="opacity:0.049" fill="#000000" d="M 705.5,231.5 C 707.095,233.111 708.261,235.111 709,237.5C 710.347,244.227 710.847,250.893 710.5,257.5C 709.728,248.797 708.062,240.13 705.5,231.5 Z"/></g>
<g><path style="opacity:0.041" fill="#000000" d="M 467.5,284.5 C 468.795,288.267 469.461,292.267 469.5,296.5C 468.778,296.082 468.278,295.416 468,294.5C 467.502,291.183 467.335,287.85 467.5,284.5 Z"/></g>
<g><path style="opacity:0.079" fill="#000000" d="M 709.5,284.5 C 709.876,291.111 708.876,297.445 706.5,303.5C 705.957,303.44 705.624,303.107 705.5,302.5C 706.727,296.354 708.06,290.354 709.5,284.5 Z"/></g>
<g><path style="opacity:1" fill="#896452" d="M 462.5,311.5 C 466.086,311.378 469.753,311.712 473.5,312.5C 474.041,316.39 474.874,320.057 476,323.5C 472.854,321.635 469.687,320.635 466.5,320.5C 460.69,320.984 457.023,323.984 455.5,329.5C 455.833,330.167 456.167,330.833 456.5,331.5C 459.963,328.917 463.63,327.584 467.5,327.5C 471.5,327.481 475.5,328.148 479.5,329.5C 479.66,331.199 479.494,332.866 479,334.5C 471.885,328.974 466.552,330.641 463,339.5C 460.656,346.249 461.989,352.582 467,358.5C 467.333,358.167 467.667,357.833 468,357.5C 470.612,360.666 473.779,361.166 477.5,359C 478.293,357.915 478.96,356.748 479.5,355.5C 476.429,354.215 473.596,352.549 471,350.5C 470.017,347.681 469.517,345.014 469.5,342.5C 469.901,340.566 470.901,339.066 472.5,338C 475.157,337.825 477.824,337.992 480.5,338.5C 480.33,342.644 480.997,346.644 482.5,350.5C 482.013,351.446 481.68,352.446 481.5,353.5C 484.159,358.504 485.826,363.838 486.5,369.5C 486.61,371.374 485.944,372.874 484.5,374C 463.502,373.175 450.836,362.508 446.5,342C 446.454,333.011 448.954,324.844 454,317.5C 456.637,315.109 459.47,313.109 462.5,311.5 Z"/></g>
<g><path style="opacity:1" fill="#8a6453" d="M 708.5,311.5 C 718.412,311.53 724.912,316.53 728,326.5C 730.573,334.449 730.907,342.449 729,350.5C 721.903,365.42 710.069,373.42 693.5,374.5C 691.257,373.588 690.257,371.922 690.5,369.5C 690.936,366.821 691.436,364.155 692,361.5C 693.527,359.779 694.527,357.779 695,355.5C 695.633,349.839 696.133,344.172 696.5,338.5C 699.176,337.992 701.843,337.825 704.5,338C 706.099,339.066 707.099,340.566 707.5,342.5C 707.83,345.102 707.33,347.769 706,350.5C 703.404,352.549 700.571,354.215 697.5,355.5C 698.855,358.76 701.355,360.427 705,360.5C 706.512,359.743 707.846,358.743 709,357.5C 709.333,357.833 709.667,358.167 710,358.5C 716.247,350.563 716.58,342.563 711,334.5C 706.799,329.619 702.466,329.619 698,334.5C 697.506,332.866 697.34,331.199 697.5,329.5C 701.5,328.148 705.5,327.481 709.5,327.5C 713.436,327.788 717.269,329.121 721,331.5C 721.854,328.302 720.688,325.469 717.5,323C 711.606,320.041 706.106,320.207 701,323.5C 702.126,320.057 702.959,316.39 703.5,312.5C 705.415,312.784 707.081,312.451 708.5,311.5 Z"/></g>
<g><path style="opacity:0.044" fill="#000000" d="M 489.5,380.5 C 493.161,383.165 496.161,386.498 498.5,390.5C 494.498,388.16 491.498,384.827 489.5,380.5 Z"/></g>
<g><path style="opacity:0.063" fill="#000000" d="M 682.5,386.5 C 679.81,390.513 676.81,394.18 673.5,397.5C 674.725,392.386 677.725,388.719 682.5,386.5 Z"/></g>
<g><path style="opacity:0.07" fill="#000000" d="M 499.5,391.5 C 504.5,397.167 509.5,402.833 514.5,408.5C 507.893,404.311 502.893,398.644 499.5,391.5 Z"/></g>
<g><path style="opacity:0.064" fill="#000000" d="M 673.5,397.5 C 671.554,400.782 669.221,403.782 666.5,406.5C 665.378,407.63 664.044,408.297 662.5,408.5C 665.548,404.118 669.215,400.452 673.5,397.5 Z"/></g>
<g><path style="opacity:0.068" fill="#000000" d="M 530.5,421.5 C 534.442,422.636 537.442,424.969 539.5,428.5C 537.529,426.848 535.196,425.681 532.5,425C 531.177,424.184 530.511,423.017 530.5,421.5 Z"/></g>
<g><path style="opacity:1" fill="#8a6553" d="M 710.5,496.5 C 709.608,498.946 708.108,499.612 706,498.5C 702.661,501.678 700.495,505.512 699.5,510C 699.957,513.248 699.957,516.581 699.5,520C 701.732,533.085 707.065,545.251 715.5,556.5C 719.925,560.39 724.759,562.723 730,563.5C 730.75,562.874 731.584,562.374 732.5,562C 732.167,561.667 731.833,561.333 731.5,561C 734.861,560.946 737.861,559.946 740.5,558C 740.167,557.667 739.833,557.333 739.5,557C 742.849,554.647 745.849,551.98 748.5,549C 747.189,546.726 747.189,544.56 748.5,542.5C 755.321,558.46 761.654,574.627 767.5,591C 767.167,591.333 766.833,591.667 766.5,592C 770.83,602.964 774.664,614.131 778,625.5C 792.909,652.319 808.909,678.319 826,703.5C 831.08,713.327 836.413,722.994 842,732.5C 844.537,734.432 847.204,736.099 850,737.5C 864.344,758.385 879.011,778.385 894,797.5C 903.818,810.986 913.985,824.153 924.5,837C 926.081,837.707 927.581,838.54 929,839.5C 930.113,838.289 931.28,838.289 932.5,839.5C 940.043,846 948.209,850.666 957,853.5C 969.335,859.918 982.168,865.085 995.5,869C 999.865,871.199 1002.53,874.699 1003.5,879.5C 1002.62,880.251 1001.62,880.751 1000.5,881C 990.936,881.73 981.769,880.23 973,876.5C 967.701,879.327 967.201,882.827 971.5,887C 971.167,887.333 970.833,887.667 970.5,888C 982.558,903.216 995.224,918.049 1008.5,932.5C 1009.31,934.071 1009.64,935.738 1009.5,937.5C 1005.4,937.116 1001.73,935.616 998.5,933C 989.142,923.582 979.309,914.749 969,906.5C 967.779,907.774 966.946,909.274 966.5,911C 972.489,920.212 978.156,929.212 983.5,938C 985.692,943.011 986.859,948.178 987,953.5C 973.642,945.076 964.142,933.909 958.5,920C 956.212,917.257 954.045,914.423 952,911.5C 948.601,907.288 945.768,907.621 943.5,912.5C 946.748,919.085 949.415,925.585 951.5,932C 951.043,932.414 950.709,932.914 950.5,933.5C 952.844,937.409 953.844,941.409 953.5,945.5C 949.429,945.421 945.929,943.421 943,939.5C 934.906,928.812 929.073,916.978 925.5,904C 923.08,903.313 920.913,903.813 919,905.5C 918.65,909.533 918.483,913.367 918.5,917C 919.167,919.667 919.833,922.333 920.5,925C 919.809,926.067 919.309,927.234 919,928.5C 913.565,919.586 911.065,910.086 911.5,900C 910.833,898.667 910.167,897.333 909.5,896C 910.571,889.008 908.571,882.508 903.5,876.5C 887.865,856.943 870.365,839.277 851,823.5C 828.743,793.749 804.243,766.082 777.5,740.5C 769.196,727.563 759.696,715.563 749,704.5C 748.667,704.833 748.333,705.167 748,705.5C 738.361,694.23 729.694,682.23 722,669.5C 718.312,664.814 714.312,660.481 710,656.5C 703.353,647.902 699.02,638.235 697,627.5C 696.333,624.833 696.333,622.167 697,619.5C 699.95,611.381 702.45,603.048 704.5,594.5C 704.612,587.174 702.445,586.507 698,592.5C 696.61,599.402 694.61,606.069 692,612.5C 690.769,617.383 690.603,622.216 691.5,627C 690.12,628.324 689.786,629.657 690.5,631C 689.592,634.915 688.925,638.915 688.5,643C 688.684,647.688 688.684,652.355 688.5,657C 690.468,665.933 692.301,675.099 694,684.5C 696.585,694.103 699.418,703.603 702.5,713C 701.077,715.62 701.243,718.12 703,720.5C 703.333,726.5 703.667,732.5 704,738.5C 705.841,744.367 707.174,750.367 708,756.5C 712.712,770.967 717.212,785.467 721.5,800C 720.833,801 720.167,802 719.5,803C 720.962,807.382 722.796,811.549 725,815.5C 726.093,823.005 727.593,830.505 729.5,838C 728.981,840.026 728.647,842.026 728.5,844C 729.714,850.054 731.047,856.054 732.5,862C 732.268,865.038 731.934,867.704 731.5,870C 732.699,876.495 733.699,883.162 734.5,890C 734.695,905.04 734.695,920.374 734.5,936C 735.357,936.689 736.023,937.522 736.5,938.5C 736.39,951.511 736.057,964.677 735.5,978C 736.289,980.267 736.956,982.6 737.5,985C 736.403,994.021 736.403,1003.02 737.5,1012C 736.833,1016.67 736.167,1021.33 735.5,1026C 735.714,1031.13 736.047,1036.29 736.5,1041.5C 735.608,1047.71 734.608,1053.88 733.5,1060C 733.833,1062.33 734.167,1064.67 734.5,1067C 734,1067.5 733.5,1068 733,1068.5C 732.382,1074.41 731.548,1080.25 730.5,1086C 730.813,1091.71 730.813,1097.37 730.5,1103C 729.833,1104 729.167,1105 728.5,1106C 728.493,1107.58 728.826,1109.25 729.5,1111C 728.833,1112.67 728.167,1114.33 727.5,1116C 728.051,1117.4 728.384,1118.73 728.5,1120C 727.643,1126.09 726.31,1132.09 724.5,1138C 725.167,1138.33 725.833,1138.67 726.5,1139C 725.26,1147.35 723.927,1155.68 722.5,1164C 723.227,1166.12 723.894,1168.29 724.5,1170.5C 723.257,1186.36 723.257,1202.69 724.5,1219.5C 726.594,1239.96 728.26,1260.46 729.5,1281C 729.478,1294.32 729.478,1307.99 729.5,1322C 728.57,1323.19 727.903,1324.53 727.5,1326C 727.347,1341.26 727.68,1356.59 728.5,1372C 727.892,1385.5 726.892,1399 725.5,1412.5C 725.723,1413.97 726.056,1415.47 726.5,1417C 725.69,1420.93 725.024,1424.93 724.5,1429C 724.638,1433.66 724.971,1438.66 725.5,1444C 724.874,1444.75 724.374,1445.58 724,1446.5C 723.768,1450.55 723.268,1454.55 722.5,1458.5C 722.709,1459.09 723.043,1459.59 723.5,1460C 720.649,1470.6 719.815,1481.43 721,1492.5C 724.18,1495.86 726.014,1499.86 726.5,1504.5C 722.265,1530.79 720.932,1556.29 722.5,1581C 721.833,1586.33 721.167,1591.67 720.5,1597C 722.155,1601.28 722.488,1605.28 721.5,1609C 722.257,1611.94 722.923,1614.94 723.5,1618C 723.5,1622 723.5,1626 723.5,1630C 722.306,1635.05 720.306,1639.72 717.5,1644C 715.2,1644.66 712.867,1645.16 710.5,1645.5C 707.188,1644.62 703.855,1644.45 700.5,1645C 695.585,1647.63 690.752,1648.47 686,1647.5C 679.84,1650.26 673.506,1652.26 667,1653.5C 660.798,1651.6 654.798,1652.27 649,1655.5C 646.416,1654.9 643.916,1654.06 641.5,1653C 640.809,1651.93 640.309,1650.77 640,1649.5C 639.842,1641.05 639.675,1632.55 639.5,1624C 640.734,1610.24 642.734,1596.41 645.5,1582.5C 645.53,1578.03 645.53,1573.53 645.5,1569C 646.126,1568.25 646.626,1567.42 647,1566.5C 647.693,1557.79 648.526,1549.13 649.5,1540.5C 649.069,1539.71 648.735,1538.87 648.5,1538C 650.98,1522.79 650.98,1507.62 648.5,1492.5C 649.321,1482.69 649.654,1472.85 649.5,1463C 647.793,1423.98 643.959,1384.48 638,1344.5C 636.513,1343.75 636.346,1342.91 637.5,1342C 634.062,1319.32 631.395,1296.32 629.5,1273C 632.252,1244.85 631.918,1216.69 628.5,1188.5C 629.79,1186.07 629.457,1184.07 627.5,1182.5C 627.931,1181.71 628.265,1180.87 628.5,1180C 625.919,1171.35 624.586,1162.52 624.5,1153.5C 625.5,1153.5 626.5,1153.5 627.5,1153.5C 625.572,1145.27 624.072,1136.93 623,1128.5C 618.222,1116.43 613.889,1104.09 610,1091.5C 605.35,1060.67 602.35,1029.67 601,998.5C 597.811,974.88 594.644,952.38 591.5,931C 592.017,926.48 592.684,921.98 593.5,917.5C 596.548,916.654 599.548,915.654 602.5,914.5C 603.452,912.955 603.785,911.288 603.5,909.5C 600.48,909.194 597.647,909.528 595,910.5C 593.667,909.167 592.333,907.833 591,906.5C 590.05,907.022 589.216,907.689 588.5,908.5C 587.468,906.96 586.135,906.46 584.5,907C 583.167,907.667 583.167,908.333 584.5,909C 583.892,909.87 583.059,910.37 582,910.5C 579.353,909.528 576.52,909.194 573.5,909.5C 573.67,910.822 573.337,911.989 572.5,913C 575.862,915.178 579.529,916.678 583.5,917.5C 585.844,925.698 585.844,933.531 583.5,941C 583.833,942.667 584.167,944.333 584.5,946C 582.875,946.853 582.542,947.853 583.5,949C 580.309,965.351 577.809,981.851 576,998.5C 573.93,1032.34 570.263,1066.01 565,1099.5C 560.786,1111.14 556.786,1122.81 553,1134.5C 551.421,1140.74 550.588,1147.07 550.5,1153.5C 551.5,1153.5 552.5,1153.5 553.5,1153.5C 552.814,1162.98 551.147,1171.64 548.5,1179.5C 548.931,1180.29 549.265,1181.13 549.5,1182C 545.27,1211.1 544.604,1240.27 547.5,1269.5C 547.009,1274.96 546.343,1280.63 545.5,1286.5C 545.381,1289.26 545.715,1292.09 546.5,1295C 545.043,1299.57 544.043,1304.24 543.5,1309C 543.957,1309.41 544.291,1309.91 544.5,1310.5C 542.743,1321.01 541.076,1331.51 539.5,1342C 539.833,1342.33 540.167,1342.67 540.5,1343C 538.408,1343.95 538.075,1345.29 539.5,1347C 536.787,1360.13 534.453,1373.13 532.5,1386C 532.645,1386.77 532.978,1387.44 533.5,1388C 532.425,1398.2 531.091,1408.53 529.5,1419C 529.466,1421.55 529.799,1424.21 530.5,1427C 528.927,1438.89 527.927,1450.89 527.5,1463C 527.346,1472.85 527.679,1482.69 528.5,1492.5C 528.404,1496.14 527.738,1499.64 526.5,1503C 526.659,1510.95 526.659,1518.95 526.5,1527C 527.455,1540.94 529.122,1554.94 531.5,1569C 531.439,1573.39 531.439,1577.73 531.5,1582C 534.101,1596.07 536.101,1610.07 537.5,1624C 537.325,1632.55 537.158,1641.05 537,1649.5C 536.691,1650.77 536.191,1651.93 535.5,1653C 533.084,1654.06 530.584,1654.9 528,1655.5C 522.176,1652.19 516.176,1651.52 510,1653.5C 503.494,1652.26 497.16,1650.26 491,1647.5C 486.248,1648.47 481.415,1647.63 476.5,1645C 473.145,1644.45 469.812,1644.62 466.5,1645.5C 464.133,1645.16 461.8,1644.66 459.5,1644C 456.694,1639.72 454.694,1635.05 453.5,1630C 453.5,1626 453.5,1622 453.5,1618C 454.077,1614.94 454.743,1611.94 455.5,1609C 454.949,1607.6 454.616,1606.27 454.5,1605C 455.167,1602.33 455.833,1599.67 456.5,1597C 455.833,1591.67 455.167,1586.33 454.5,1581C 456.068,1556.29 454.735,1530.79 450.5,1504.5C 450.986,1499.86 452.82,1495.86 456,1492.5C 457.185,1481.43 456.351,1470.6 453.5,1460C 453.957,1459.59 454.291,1459.09 454.5,1458.5C 453.732,1454.55 453.232,1450.55 453,1446.5C 452.626,1445.58 452.126,1444.75 451.5,1444C 451.826,1437.78 452.159,1432.11 452.5,1427C 451.833,1423.67 451.167,1420.33 450.5,1417C 450.944,1415.47 451.277,1413.97 451.5,1412.5C 450.108,1399 449.108,1385.5 448.5,1372C 449.04,1356.75 449.373,1341.41 449.5,1326C 449.097,1324.53 448.43,1323.19 447.5,1322C 447.522,1307.99 447.522,1294.32 447.5,1281C 449.638,1251.84 451.638,1222.68 453.5,1193.5C 452.549,1185.24 452.216,1177.57 452.5,1170.5C 453.106,1168.29 453.773,1166.12 454.5,1164C 453.073,1155.68 451.74,1147.35 450.5,1139C 451.167,1138.67 451.833,1138.33 452.5,1138C 450.69,1132.09 449.357,1126.09 448.5,1120C 448.616,1118.73 448.949,1117.4 449.5,1116C 448.833,1114.33 448.167,1112.67 447.5,1111C 448.174,1109.25 448.507,1107.58 448.5,1106C 447.833,1105 447.167,1104 446.5,1103C 446.187,1097.37 446.187,1091.71 446.5,1086C 445.452,1080.25 444.618,1074.41 444,1068.5C 443.5,1068 443,1067.5 442.5,1067C 442.833,1064.67 443.167,1062.33 443.5,1060C 442.392,1053.88 441.392,1047.71 440.5,1041.5C 440.459,1035.19 440.792,1029.02 441.5,1023C 440.833,1019.33 440.167,1015.67 439.5,1012C 440.597,1003.02 440.597,994.021 439.5,985C 440.044,982.6 440.711,980.267 441.5,978C 440.851,964.846 440.518,951.68 440.5,938.5C 440.977,937.522 441.643,936.689 442.5,936C 442.305,920.374 442.305,905.04 442.5,890C 443.289,887.733 443.956,885.4 444.5,883C 444.862,875.732 444.862,868.732 444.5,862C 445.126,861.25 445.626,860.416 446,859.5C 446.355,852.93 447.188,846.43 448.5,840C 448.355,839.228 448.022,838.561 447.5,838C 449.407,830.505 450.907,823.005 452,815.5C 454.204,811.549 456.038,807.382 457.5,803C 456.833,802 456.167,801 455.5,800C 462.596,778.974 468.596,757.307 473.5,735C 472.821,726.75 473.821,718.416 476.5,710C 475.273,708.413 475.606,707.079 477.5,706C 477.167,705.667 476.833,705.333 476.5,705C 482.474,686.967 486.474,668.467 488.5,649.5C 487.645,637.545 486.478,625.212 485,612.5C 482.206,606.115 480.206,599.449 479,592.5C 475.073,588.087 472.906,588.754 472.5,594.5C 474.145,602.59 476.479,610.423 479.5,618C 480.309,627.638 478.475,636.804 474,645.5C 471.597,649.968 468.93,654.301 466,658.5C 464.933,659.191 463.766,659.691 462.5,660C 451.7,675.462 440.533,690.629 429,705.5C 428.667,705.167 428.333,704.833 428,704.5C 417.128,715.923 407.461,728.256 399,741.5C 372.299,766.546 347.965,793.879 326,823.5C 306.635,839.277 289.135,856.943 273.5,876.5C 268.429,882.508 266.429,889.008 267.5,896C 266.237,897.705 265.903,899.372 266.5,901C 265.753,910.823 262.92,919.99 258,928.5C 257.691,927.234 257.191,926.067 256.5,925C 257.167,922.333 257.833,919.667 258.5,917C 258.517,913.367 258.35,909.533 258,905.5C 256.087,903.813 253.92,903.313 251.5,904C 246.89,919.727 239.056,933.56 228,945.5C 226.701,945.034 225.201,945.034 223.5,945.5C 223.156,941.409 224.156,937.409 226.5,933.5C 226.291,932.914 225.957,932.414 225.5,932C 227.585,925.585 230.252,919.085 233.5,912.5C 231.232,907.621 228.399,907.288 225,911.5C 219.38,919.656 213.88,928.322 208.5,937.5C 202.801,943.365 196.635,948.698 190,953.5C 189.881,944.901 192.714,937.401 198.5,931C 198.167,930.667 197.833,930.333 197.5,930C 201.806,923.686 206.139,917.353 210.5,911C 210.054,909.274 209.221,907.774 208,906.5C 197.691,914.749 187.858,923.582 178.5,933C 175.271,935.616 171.604,937.116 167.5,937.5C 167.357,935.738 167.691,934.071 168.5,932.5C 181.776,918.049 194.442,903.216 206.5,888C 206.167,887.667 205.833,887.333 205.5,887C 209.799,882.827 209.299,879.327 204,876.5C 195.231,880.23 186.064,881.73 176.5,881C 175.376,880.751 174.376,880.251 173.5,879.5C 174.079,875.424 176.079,872.257 179.5,870C 193.511,865.744 207.011,860.244 220,853.5C 228.791,850.666 236.957,846 244.5,839.5C 245.72,838.289 246.887,838.289 248,839.5C 249.419,838.54 250.919,837.707 252.5,837C 264.279,823.303 274.945,809.303 284.5,795C 299.387,776.435 313.554,757.268 327,737.5C 329.796,736.099 332.463,734.432 335,732.5C 350.437,704.732 367.104,677.732 385,651.5C 396.571,631.751 404.737,610.917 409.5,589C 412,583.17 414.5,577.337 417,571.5C 417.339,568.964 417.839,566.464 418.5,564C 418.905,563.055 419.572,562.388 420.5,562C 420.167,561.667 419.833,561.333 419.5,561C 423.253,555.26 425.92,549.427 427.5,543.5C 428.117,543.389 428.617,543.056 429,542.5C 429.758,544.769 429.591,546.936 428.5,549C 431.151,551.98 434.151,554.647 437.5,557C 437.167,557.333 436.833,557.667 436.5,558C 439.139,559.946 442.139,560.946 445.5,561C 445.167,561.333 444.833,561.667 444.5,562C 445.416,562.374 446.25,562.874 447,563.5C 452.241,562.723 457.075,560.39 461.5,556.5C 473.982,541.567 478.815,524.567 476,505.5C 474.451,501.571 471.951,499.405 468.5,499C 467.29,497.961 466.29,496.794 465.5,495.5C 470.924,493.298 476.258,490.798 481.5,488C 486.976,487.172 492.309,485.839 497.5,484C 497.833,483 498.167,482 498.5,481C 506.307,477.883 514.141,474.716 522,471.5C 531.337,468.598 540.503,464.598 549.5,459.5C 550.485,461.772 551.319,464.105 552,466.5C 553,467.833 554,467.833 555,466.5C 555.333,467.5 555.667,468.5 556,469.5C 558.067,463.249 557.9,457.082 555.5,451C 555.833,450.667 556.167,450.333 556.5,450C 554.159,445.468 552.826,440.634 552.5,435.5C 558.084,437.362 563.751,439.195 569.5,441C 570.167,441.667 570.833,442.333 571.5,443C 583.285,446.601 594.952,446.268 606.5,442C 612.513,439.13 618.679,436.63 625,434.5C 624.301,439.78 622.801,444.947 620.5,450C 620.833,450.333 621.167,450.667 621.5,451C 619.1,457.082 618.933,463.249 621,469.5C 621.333,468.5 621.667,467.5 622,466.5C 623,467.833 624,467.833 625,466.5C 625.681,464.105 626.515,461.772 627.5,459.5C 636.497,464.598 645.663,468.598 655,471.5C 663.333,475.389 671.833,478.889 680.5,482C 677.833,483 677.833,484 680.5,485C 691.226,487.299 701.226,491.132 710.5,496.5 Z"/></g>
<g><path style="opacity:1" fill="#8c5940" d="M 465.5,495.5 C 466.29,496.794 467.29,497.961 468.5,499C 471.951,499.405 474.451,501.571 476,505.5C 478.815,524.567 473.982,541.567 461.5,556.5C 457.075,560.39 452.241,562.723 447,563.5C 446.25,562.874 445.416,562.374 444.5,562C 444.833,561.667 445.167,561.333 445.5,561C 442.139,560.946 439.139,559.946 436.5,558C 436.833,557.667 437.167,557.333 437.5,557C 434.151,554.647 431.151,551.98 428.5,549C 429.591,546.936 429.758,544.769 429,542.5C 428.617,543.056 428.117,543.389 427.5,543.5C 426.828,540.092 427.828,537.425 430.5,535.5C 429.391,533.786 430.058,533.119 432.5,533.5C 432.351,532.448 432.517,531.448 433,530.5C 439.449,522.401 445.449,514.068 451,505.5C 455.324,501.349 460.158,498.016 465.5,495.5 Z"/></g>
<g><path style="opacity:1" fill="#8c5940" d="M 710.5,496.5 C 722.401,501.233 730.901,509.566 736,521.5C 740.252,524.571 743.085,528.571 744.5,533.5C 746.942,533.119 747.609,533.786 746.5,535.5C 749.454,537.3 750.121,539.633 748.5,542.5C 747.189,544.56 747.189,546.726 748.5,549C 745.849,551.98 742.849,554.647 739.5,557C 739.833,557.333 740.167,557.667 740.5,558C 737.861,559.946 734.861,560.946 731.5,561C 731.833,561.333 732.167,561.667 732.5,562C 731.584,562.374 730.75,562.874 730,563.5C 724.759,562.723 719.925,560.39 715.5,556.5C 707.065,545.251 701.732,533.085 699.5,520C 699.957,516.581 699.957,513.248 699.5,510C 700.495,505.512 702.661,501.678 706,498.5C 708.108,499.612 709.608,498.946 710.5,496.5 Z"/></g>
<g><path style="opacity:0.908" fill="#060000" d="M 554.5,501.5 C 560.257,501.682 565.924,502.515 571.5,504C 576.997,507.916 576.163,510.083 569,510.5C 567.561,508.986 566.061,508.653 564.5,509.5C 560.416,508.08 556.416,506.413 552.5,504.5C 552.167,504.167 551.833,503.833 551.5,503.5C 552.602,502.824 553.602,502.158 554.5,501.5 Z"/></g>
<g><path style="opacity:0.887" fill="#070000" d="M 615.5,501.5 C 618.941,501.301 622.274,501.801 625.5,503C 621.165,506.703 616.332,508.537 611,508.5C 610,509.167 609,509.833 608,510.5C 600.837,510.083 600.003,507.916 605.5,504C 608.991,503.262 612.325,502.429 615.5,501.5 Z"/></g>
<g><path style="opacity:1" fill="#8c593f" d="M 353.5,718.5 C 359.746,719.449 365.746,721.949 371.5,726C 370.939,727.566 371.606,728.899 373.5,730C 375.351,730.837 377.184,731.671 379,732.5C 379.023,736.56 379.523,740.394 380.5,744C 377.809,746.253 376.142,749.086 375.5,752.5C 374.448,752.351 373.448,752.517 372.5,753C 373.517,754.049 373.684,755.216 373,756.5C 371.159,753.352 368.826,753.352 366,756.5C 365.517,755.552 365.351,754.552 365.5,753.5C 363.856,753.286 362.356,753.62 361,754.5C 360.71,752.956 360.044,751.623 359,750.5C 358.667,750.833 358.333,751.167 358,751.5C 355.929,750.636 354.262,749.303 353,747.5C 351.16,748.833 350.66,748.666 351.5,747C 349.701,745.139 348.035,743.139 346.5,741C 345.207,740.51 343.873,740.343 342.5,740.5C 341.269,733.584 342.769,726.918 347,720.5C 348.43,720.306 349.93,720.306 351.5,720.5C 352.522,720.145 353.189,719.478 353.5,718.5 Z"/></g>
<g><path style="opacity:1" fill="#8c593f" d="M 818.5,718.5 C 820.01,719.728 821.51,719.728 823,718.5C 825.888,719.091 828.554,720.091 831,721.5C 834.538,727.783 835.704,734.117 834.5,740.5C 833.127,740.343 831.793,740.51 830.5,741C 828.965,743.139 827.299,745.139 825.5,747C 826.34,748.666 825.84,748.833 824,747.5C 822.738,749.303 821.071,750.636 819,751.5C 818.667,751.167 818.333,750.833 818,750.5C 816.956,751.623 816.29,752.956 816,754.5C 814.644,753.62 813.144,753.286 811.5,753.5C 811.649,754.552 811.483,755.552 811,756.5C 808.174,753.352 805.841,753.352 804,756.5C 803.316,755.216 803.483,754.049 804.5,753C 803.552,752.517 802.552,752.351 801.5,752.5C 800.858,749.086 799.191,746.253 796.5,744C 796.981,741.293 797.648,738.293 798.5,735C 798.355,734.228 798.022,733.561 797.5,733C 799.377,731.815 801.377,730.815 803.5,730C 805.394,728.899 806.061,727.566 805.5,726C 809.996,723.43 814.33,720.93 818.5,718.5 Z"/></g>
<g><path style="opacity:1" fill="#8c593f" d="M 586.5,786.5 C 596.829,787.675 600.662,793.342 598,803.5C 596.954,805.09 595.787,806.59 594.5,808C 595.167,808.333 595.833,808.667 596.5,809C 594.351,810.152 592.518,811.652 591,813.5C 589.333,813.5 587.667,813.5 586,813.5C 584.482,811.652 582.649,810.152 580.5,809C 581.167,808.667 581.833,808.333 582.5,808C 578.695,803.909 577.528,799.076 579,793.5C 580.767,790.228 583.267,787.895 586.5,786.5 Z"/></g>
<g><path style="opacity:0.702" fill="#371113" d="M 168.5,945.5 C 168.833,945.5 169.167,945.5 169.5,945.5C 169.315,946.17 168.981,946.17 168.5,945.5 Z"/></g>
<g><path style="opacity:0.8" fill="#361213" d="M 1007.5,945.5 C 1007.83,945.5 1008.17,945.5 1008.5,945.5C 1008.31,946.17 1007.98,946.17 1007.5,945.5 Z"/></g>
<g><path style="opacity:0.114" fill="#000000" d="M 614.5,1144.5 C 615.455,1150.41 615.789,1156.41 615.5,1162.5C 614.769,1157.15 614.102,1151.65 613.5,1146C 613.57,1145.24 613.903,1144.74 614.5,1144.5 Z"/></g>
<g><path style="opacity:1" fill="#8c5940" d="M 487.5,1171.5 C 494.332,1172.32 501.332,1173.32 508.5,1174.5C 512.707,1173.88 516.707,1174.88 520.5,1177.5C 521.086,1177.29 521.586,1176.96 522,1176.5C 525.124,1179.73 524.958,1182.56 521.5,1185C 522.833,1185.67 522.833,1186.33 521.5,1187C 524.363,1188.4 527.363,1189.4 530.5,1190C 526.451,1193.01 522.284,1195.85 518,1198.5C 517,1195.83 516,1195.83 515,1198.5C 514.667,1197.83 514.333,1197.17 514,1196.5C 512.333,1197.17 510.667,1197.83 509,1198.5C 508.333,1197.83 507.667,1197.17 507,1196.5C 503.797,1197.29 500.464,1197.63 497,1197.5C 494.333,1196.77 491.833,1195.11 489.5,1192.5C 488.033,1192.72 486.533,1193.06 485,1193.5C 483.628,1190.04 481.128,1188.37 477.5,1188.5C 477.703,1186.61 477.037,1185.11 475.5,1184C 476.833,1182 476.833,1180 475.5,1178C 478.457,1173.78 482.457,1171.61 487.5,1171.5 Z"/></g>
<g><path style="opacity:1" fill="#8c5a40" d="M 683.5,1171.5 C 688.158,1172.06 692.825,1172.72 697.5,1173.5C 698.648,1175.15 699.981,1176.65 701.5,1178C 700.712,1181.08 700.212,1184.24 700,1187.5C 696.206,1187.96 693.539,1189.96 692,1193.5C 690.467,1193.06 688.967,1192.72 687.5,1192.5C 685.167,1195.11 682.667,1196.77 680,1197.5C 676.536,1197.63 673.203,1197.29 670,1196.5C 669.333,1197.17 668.667,1197.83 668,1198.5C 666.333,1197.83 664.667,1197.17 663,1196.5C 662.374,1198.99 661.541,1198.99 660.5,1196.5C 659.808,1197.03 659.308,1197.69 659,1198.5C 654.727,1195.85 650.56,1193.02 646.5,1190C 649.658,1188.53 652.991,1187.53 656.5,1187C 653.833,1186.33 653.833,1185.67 656.5,1185C 654.833,1184 653.167,1183 651.5,1182C 653.504,1180.58 655.004,1178.74 656,1176.5C 656.333,1176.83 656.667,1177.17 657,1177.5C 660.684,1174.76 664.684,1174.1 669,1175.5C 673.83,1173.94 678.663,1172.6 683.5,1171.5 Z"/></g>
</svg>
