<?xml version="1.0" encoding="UTF-8"?>
<!DOCTYPE svg PUBLIC "-//W3C//DTD SVG 1.1//EN" "http://www.w3.org/Graphics/SVG/1.1/DTD/svg11.dtd">
<svg xmlns="http://www.w3.org/2000/svg" version="1.1" width="1216px" height="1749px" style="shape-rendering:geometricPrecision; text-rendering:geometricPrecision; image-rendering:optimizeQuality; fill-rule:evenodd; clip-rule:evenodd" xmlns:xlink="http://www.w3.org/1999/xlink">
<g><path style="opacity:0.966" fill="#391316" d="M 462.5,437.5 C 466.239,437.881 469.572,439.714 472.5,443C 473.57,445.474 475.404,447.974 478,450.5C 482.409,456.651 485.742,463.317 488,470.5C 494.737,464.619 501.57,464.619 508.5,470.5C 512.306,476.616 515.973,482.783 519.5,489C 519.167,489.333 518.833,489.667 518.5,490C 520.877,493.79 522.877,497.79 524.5,502C 523.366,503.016 523.699,503.683 525.5,504C 525.167,504.333 524.833,504.667 524.5,505C 526.536,510.895 528.87,516.895 531.5,523C 531.384,524.268 531.051,525.602 530.5,527C 532.263,529.895 533.596,533.062 534.5,536.5C 541.972,538.468 549.805,540.135 558,541.5C 578.292,540.208 598.625,540.208 619,541.5C 627.195,540.135 635.028,538.468 642.5,536.5C 643.404,533.062 644.737,529.895 646.5,527C 645.949,525.602 645.616,524.268 645.5,523C 648.13,516.895 650.464,510.895 652.5,505C 651.366,503.984 651.699,503.317 653.5,503C 653.167,502.667 652.833,502.333 652.5,502C 654.123,497.79 656.123,493.79 658.5,490C 658.167,489.667 657.833,489.333 657.5,489C 661.027,482.783 664.694,476.616 668.5,470.5C 671.619,467.262 675.453,465.595 680,465.5C 683.289,467.4 686.789,467.4 690.5,465.5C 695.605,454.325 702.438,444.992 711,437.5C 715.098,437.906 719.264,439.073 723.5,441C 735.146,451.303 740.98,464.137 741,479.5C 738.549,485.617 734.382,490.117 728.5,493C 731.051,495.956 734.051,498.456 737.5,500.5C 739.371,503.23 740.038,506.064 739.5,509C 738.891,511.51 737.558,513.51 735.5,515C 736.257,517.848 735.257,520.181 732.5,522C 732.833,522.333 733.167,522.667 733.5,523C 731.655,525.851 730.489,529.018 730,532.5C 728.667,533.167 727.667,534.167 727,535.5C 723.441,534.727 720.941,536.227 719.5,540C 720.077,543.811 721.077,547.478 722.5,551C 722.167,551.333 721.833,551.667 721.5,552C 723.632,555.764 726.132,559.264 729,562.5C 729.667,565.167 729.667,567.833 729,570.5C 724.915,577.589 720.415,584.423 715.5,591C 711.577,594.267 707.411,597.101 703,599.5C 701.853,598.542 700.853,598.875 700,600.5C 698.663,599.235 697.163,598.735 695.5,599C 696.167,601.667 696.833,604.333 697.5,607C 697.384,608.268 697.051,609.602 696.5,611C 698.125,611.853 698.458,612.853 697.5,614C 698.315,618.37 699.315,622.704 700.5,627C 700.711,629.169 700.378,631.503 699.5,634C 728.791,730.923 761.958,825.423 799,917.5C 807.718,943.148 817.718,968.148 829,992.5C 831.501,1001.17 834.001,1009.84 836.5,1018.5C 833.621,1022.42 830.621,1026.26 827.5,1030C 827.833,1030.33 828.167,1030.67 828.5,1031C 819.789,1041.41 809.789,1050.41 798.5,1058C 796.5,1058.67 794.5,1059.33 792.5,1060C 792.833,1060.33 793.167,1060.67 793.5,1061C 788.151,1062.84 782.818,1064.67 777.5,1066.5C 778.974,1074.59 776.64,1081.76 770.5,1088C 757.275,1097.95 743.275,1104.95 728.5,1109C 722.273,1109.86 716.44,1111.03 711,1112.5C 709.333,1112.17 707.667,1111.83 706,1111.5C 704.933,1112.19 703.766,1112.69 702.5,1113C 695.586,1113.19 688.753,1113.69 682,1114.5C 679.667,1113.17 677.333,1113.17 675,1114.5C 672.803,1112.27 670.47,1112.27 668,1114.5C 667.667,1113.83 667.333,1113.17 667,1112.5C 663.309,1115.65 659.309,1118.98 655,1122.5C 654.667,1122.17 654.333,1121.83 654,1121.5C 646.405,1124.47 639.405,1127.81 633,1131.5C 632.439,1130.98 631.772,1130.64 631,1130.5C 626.587,1132.89 622.087,1134.22 617.5,1134.5C 615.694,1133.14 614.194,1133.47 613,1135.5C 609.76,1133.96 606.76,1134.3 604,1136.5C 603,1133.83 602,1133.83 601,1136.5C 599,1135.83 597,1135.17 595,1134.5C 590.667,1135.83 586.333,1135.83 582,1134.5C 580,1135.17 578,1135.83 576,1136.5C 575,1133.83 574,1133.83 573,1136.5C 570.24,1134.3 567.24,1133.96 564,1135.5C 563.311,1134.64 562.478,1133.98 561.5,1133.5C 558.565,1133.7 555.732,1133.7 553,1133.5C 550.528,1132.8 548.195,1131.8 546,1130.5C 545.228,1130.64 544.561,1130.98 544,1131.5C 537.308,1127.66 530.308,1124.32 523,1121.5C 522.667,1121.83 522.333,1122.17 522,1122.5C 517.691,1118.98 513.691,1115.65 510,1112.5C 509.667,1113.17 509.333,1113.83 509,1114.5C 506.53,1112.27 504.197,1112.27 502,1114.5C 498.463,1113.57 495.129,1113.57 492,1114.5C 486.667,1113.83 481.333,1113.17 476,1112.5C 474.372,1113.1 472.705,1112.76 471,1111.5C 469.333,1111.83 467.667,1112.17 466,1112.5C 464.333,1111.83 462.667,1111.17 461,1110.5C 460.667,1110.83 460.333,1111.17 460,1111.5C 454.165,1110.38 448.498,1108.72 443,1106.5C 430.1,1103.13 417.933,1096.96 406.5,1088C 400.36,1081.76 398.026,1074.59 399.5,1066.5C 394.182,1064.67 388.849,1062.84 383.5,1061C 383.833,1060.67 384.167,1060.33 384.5,1060C 377.036,1057.07 370.036,1052.73 363.5,1047C 358.161,1041.99 353.161,1036.66 348.5,1031C 348.833,1030.67 349.167,1030.33 349.5,1030C 346.379,1026.26 343.379,1022.42 340.5,1018.5C 342.999,1009.84 345.499,1001.17 348,992.5C 354.309,979.084 360.143,965.417 365.5,951.5C 364.395,950.108 363.061,948.941 361.5,948C 355.979,946.159 350.646,943.825 345.5,941C 341.161,935.663 338.161,929.663 336.5,923C 337.048,916.828 338.048,910.495 339.5,904C 340.754,890.091 344.421,876.757 350.5,864C 356.306,844.871 364.806,826.705 376,809.5C 380.696,803.814 386.529,799.647 393.5,797C 407.096,776.812 423.429,759.145 442.5,744C 454.679,708.476 466.179,672.642 477,636.5C 476.436,629.176 477.269,621.676 479.5,614C 478.542,612.853 478.875,611.853 480.5,611C 479.949,609.602 479.616,608.268 479.5,607C 480.167,604.333 480.833,601.667 481.5,599C 479.837,598.735 478.337,599.235 477,600.5C 476.147,598.875 475.147,598.542 474,599.5C 469.421,596.933 465.088,593.933 461,590.5C 457.397,584.562 453.397,578.895 449,573.5C 447.595,569.928 447.262,566.261 448,562.5C 450.868,559.264 453.368,555.764 455.5,552C 455.167,551.667 454.833,551.333 454.5,551C 455.923,547.478 456.923,543.811 457.5,540C 456.059,536.227 453.559,534.727 450,535.5C 449.333,534.167 448.333,533.167 447,532.5C 445.607,526.466 443.44,521.133 440.5,516.5C 440.709,515.914 441.043,515.414 441.5,515C 439.442,513.51 438.109,511.51 437.5,509C 436.962,506.064 437.629,503.23 439.5,500.5C 442.949,498.456 445.949,495.956 448.5,493C 436.177,485.969 432.677,475.802 438,462.5C 441.808,454.397 446.975,447.23 453.5,441C 456.598,439.772 459.598,438.606 462.5,437.5 Z"/></g>
<g><path style="opacity:1" fill="#e8e8e8" d="M 462.5,447.5 C 464.379,447.393 464.712,447.893 463.5,449C 464.704,453.788 465.37,458.121 465.5,462C 465.333,462.5 465.167,463 465,463.5C 462.399,460.101 459.899,460.434 457.5,464.5C 459.786,467.082 461.453,469.582 462.5,472C 465.109,472.943 467.109,474.61 468.5,477C 471.408,477.689 474.075,478.855 476.5,480.5C 478.81,484.254 480.643,488.254 482,492.5C 483.044,498.473 484.544,503.973 486.5,509C 487.469,514.82 487.469,520.32 486.5,525.5C 487.135,529.367 487.801,533.2 488.5,537C 488.182,544.474 487.515,552.141 486.5,560C 486.9,565.14 486.233,570.307 484.5,575.5C 484.709,576.086 485.043,576.586 485.5,577C 484.024,580.312 483.19,583.812 483,587.5C 479.347,588.167 476.18,587.001 473.5,584C 470.64,580.473 467.473,577.306 464,574.5C 462.36,571.365 460.527,568.365 458.5,565.5C 460.721,558.194 463.221,551.861 466,546.5C 467.531,537.761 468.698,529.427 469.5,521.5C 468.573,519.054 466.906,518.221 464.5,519C 463.038,523.379 461.872,527.545 461,531.5C 459.278,531.038 457.445,530.872 455.5,531C 456.308,530.692 456.975,530.192 457.5,529.5C 457.377,527.622 457.377,525.789 457.5,524C 453.709,518.418 450.709,512.418 448.5,506C 451.58,501.182 454.913,496.515 458.5,492C 460.171,490.07 460.837,488.07 460.5,486C 453.813,484.865 448.813,481.031 445.5,474.5C 446.96,462.699 452.627,453.699 462.5,447.5 Z"/></g>
<g><path style="opacity:1" fill="#e8e8e8" d="M 712.5,448.5 C 713.46,447.485 714.627,447.485 716,448.5C 724.774,454.957 729.941,463.624 731.5,474.5C 728.213,480.999 723.213,484.832 716.5,486C 716.982,487.008 717.148,488.175 717,489.5C 721.205,494.745 725.039,500.245 728.5,506C 726.291,512.418 723.291,518.418 719.5,524C 719.623,525.789 719.623,527.622 719.5,529.5C 720.025,530.192 720.692,530.692 721.5,531C 718.909,531.36 716.576,530.693 714.5,529C 714.833,528.667 715.167,528.333 715.5,528C 714.5,525 713.5,522 712.5,519C 710.094,518.221 708.427,519.054 707.5,521.5C 709.128,527.895 709.961,534.562 710,541.5C 710.093,544.007 710.926,546.174 712.5,548C 711.542,549.147 711.875,550.147 713.5,551C 714.95,555.504 716.616,560.337 718.5,565.5C 716.473,568.365 714.64,571.365 713,574.5C 709.038,578.627 704.871,582.627 700.5,586.5C 698.326,587.863 696.159,588.197 694,587.5C 693.81,583.812 692.976,580.312 691.5,577C 691.957,576.586 692.291,576.086 692.5,575.5C 690.767,570.307 690.1,565.14 690.5,560C 689.485,552.141 688.818,544.474 688.5,537C 689.199,533.2 689.865,529.367 690.5,525.5C 689.403,509.633 693.069,494.299 701.5,479.5C 703.795,478.568 706.129,477.735 708.5,477C 709.891,474.61 711.891,472.943 714.5,472C 715.547,469.582 717.214,467.082 719.5,464.5C 717.101,460.434 714.601,460.101 712,463.5C 712.676,461.037 712.509,458.87 711.5,457C 712.167,454.333 712.833,451.667 713.5,449C 713.272,448.601 712.938,448.435 712.5,448.5 Z"/></g>
<g><path style="opacity:1" fill="#bbbaba" d="M 472.5,451.5 C 476.52,458.371 480.187,465.538 483.5,473C 482,473.833 480.833,475 480,476.5C 477.697,474.607 475.53,472.607 473.5,470.5C 472.504,464.202 472.17,457.868 472.5,451.5 Z"/></g>
<g><path style="opacity:1" fill="#bbbabb" d="M 703.5,451.5 C 704.817,457.678 704.817,464.012 703.5,470.5C 702.281,471.263 701.281,472.263 700.5,473.5C 699.053,471.834 697.719,470.001 696.5,468C 698.725,462.391 701.059,456.891 703.5,451.5 Z"/></g>
<g><path style="opacity:1" fill="#555555" d="M 627.5,580.5 C 626.539,574.513 624.205,568.679 620.5,563C 617.697,562.245 615.03,562.578 612.5,564C 607.599,569.051 603.599,574.718 600.5,581C 592.5,587 584.5,587 576.5,581C 573.401,574.718 569.401,569.051 564.5,564C 561.135,561.843 557.968,562.009 555,564.5C 552.77,569.19 550.937,574.024 549.5,579C 549.833,579.333 550.167,579.667 550.5,580C 548.974,585.023 547.974,590.19 547.5,595.5C 548.128,599.675 548.628,603.675 549,607.5C 551.333,609.5 553.667,611.5 556,613.5C 559.511,613.751 563.011,612.918 566.5,611C 570.167,608 573.833,605 577.5,602C 578.167,601.333 578.833,601.333 579.5,602C 573.504,620.826 566.67,639.326 559,657.5C 558.186,659.902 558.353,662.235 559.5,664.5C 562.917,662.078 566.417,659.744 570,657.5C 575.444,647.516 578.611,637.016 579.5,626C 583.096,615.757 585.596,604.924 587,593.5C 588,594.833 589,594.833 590,593.5C 591.404,604.924 593.904,615.757 597.5,626C 596.862,627.707 596.862,629.54 597.5,631.5C 585.664,649.173 573.831,666.84 562,684.5C 536.736,716.762 510.402,748.095 483,778.5C 476.291,788.123 468.458,796.789 459.5,804.5C 451.374,801.338 442.707,798.838 433.5,797C 452.917,744.796 469.083,691.963 482,638.5C 484.428,635.258 486.595,631.925 488.5,628.5C 487.653,626.939 487.986,625.439 489.5,624C 488.317,621.845 488.65,619.845 490.5,618C 491.539,611.961 491.539,605.961 490.5,600C 492.648,597.925 492.982,595.592 491.5,593C 493.669,591.672 494.002,590.006 492.5,588C 492.975,586.237 493.642,584.57 494.5,583C 493.252,580.218 493.586,577.218 495.5,574C 495.167,573 494.833,572 494.5,571C 495.202,567.534 495.869,564.034 496.5,560.5C 495.232,552.103 495.232,543.103 496.5,533.5C 495.558,526.865 494.558,520.532 493.5,514.5C 494.094,510.353 494.094,506.353 493.5,502.5C 491.627,494.003 487.96,486.503 482.5,480C 487.289,478.44 491.622,476.107 495.5,473C 498.429,472.223 501.263,472.39 504,473.5C 514.521,493.736 521.521,515.403 525,538.5C 525.5,540.333 526.667,541.5 528.5,542C 538.177,544.793 548.344,547.293 559,549.5C 559.772,549.355 560.439,549.022 561,548.5C 564.71,549.428 568.377,550.428 572,551.5C 574.37,550.872 576.703,550.539 579,550.5C 579.953,552.592 581.286,552.925 583,551.5C 584.085,552.293 585.252,552.96 586.5,553.5C 587.833,552.167 589.167,552.167 590.5,553.5C 592.302,551.966 594.135,551.632 596,552.5C 596.945,552.095 597.612,551.428 598,550.5C 600.297,550.539 602.63,550.872 605,551.5C 607.193,550.227 609.36,549.894 611.5,550.5C 625.624,548.241 638.957,545.074 651.5,541C 643.336,554.18 635.336,567.346 627.5,580.5 Z"/></g>
<g><path style="opacity:1" fill="#545454" d="M 673.5,472.5 C 676.681,472.002 679.347,472.835 681.5,475C 675.546,497.369 666.212,518.202 653.5,537.5C 652.847,533.074 653.513,528.741 655.5,524.5C 656.795,513.238 660.129,502.072 665.5,491C 665.167,490.667 664.833,490.333 664.5,490C 667.309,484.178 670.309,478.344 673.5,472.5 Z"/></g>
<g><path style="opacity:1" fill="#b96c71" d="M 611.5,644.5 C 610.814,643.152 609.814,641.985 608.5,641C 608.833,640.667 609.167,640.333 609.5,640C 608.071,637.31 607.071,634.477 606.5,631.5C 607.376,631.631 608.043,631.298 608.5,630.5C 611.872,624.414 615.205,618.414 618.5,612.5C 619.458,612.047 620.292,611.381 621,610.5C 621.333,610.833 621.667,611.167 622,611.5C 622.574,609.508 623.741,608.008 625.5,607C 625.167,606.667 624.833,606.333 624.5,606C 625.308,605.692 625.975,605.192 626.5,604.5C 626.08,602.674 626.08,600.674 626.5,598.5C 628.47,596.353 630.303,594.02 632,591.5C 643.412,570.194 655.412,548.861 668,527.5C 670.082,521.559 672.915,515.559 676.5,509.5C 678.03,507.202 677.696,505.369 675.5,504C 679.477,500.198 682.144,495.532 683.5,490C 683.355,489.228 683.022,488.561 682.5,488C 684.295,484.537 684.961,481.037 684.5,477.5C 685.85,476.05 687.516,475.383 689.5,475.5C 684.885,502.873 676.218,528.04 663.5,551C 664.061,552.566 663.394,553.899 661.5,555C 661.833,555.333 662.167,555.667 662.5,556C 646.118,585.37 629.118,614.87 611.5,644.5 Z"/></g>
<g><path style="opacity:1" fill="#555454" d="M 612.5,661.5 C 614.143,661.48 615.476,662.147 616.5,663.5C 617.086,663.291 617.586,662.957 618,662.5C 618.626,659.664 618.126,656.997 616.5,654.5C 641.619,615.845 662.786,576.512 680,536.5C 680.333,536.833 680.667,537.167 681,537.5C 681.447,545.775 681.28,553.441 680.5,560.5C 681.131,564.034 681.798,567.534 682.5,571C 681.593,573.477 681.926,576.311 683.5,579.5C 683.272,582.825 683.272,586.491 683.5,590.5C 683.977,591.478 684.643,592.311 685.5,593C 684.018,595.592 684.352,597.925 686.5,600C 685.715,602.908 685.381,605.742 685.5,608.5C 686.122,611.37 686.789,614.204 687.5,617C 687.167,617.333 686.833,617.667 686.5,618C 688.35,619.845 688.683,621.845 687.5,624C 689.014,625.439 689.347,626.939 688.5,628.5C 690.405,631.925 692.572,635.258 695,638.5C 710.372,701.247 729.538,762.08 752.5,821C 752.167,821.333 751.833,821.667 751.5,822C 754.943,828.299 757.61,834.633 759.5,841C 759.043,841.414 758.709,841.914 758.5,842.5C 760.945,848.133 763.612,853.633 766.5,859C 766.167,859.333 765.833,859.667 765.5,860C 771.367,874.277 776.367,888.61 780.5,903C 783.076,908.904 785.743,914.738 788.5,920.5C 788.306,922.07 788.306,923.57 788.5,925C 790.833,926.243 791.5,927.909 790.5,930C 792.193,931.713 793.526,933.713 794.5,936C 794.167,936.333 793.833,936.667 793.5,937C 795.416,941.499 797.749,946.166 800.5,951C 800.167,951.333 799.833,951.667 799.5,952C 807.007,970.321 814.341,987.655 821.5,1004C 821.167,1004.33 820.833,1004.67 820.5,1005C 823.848,1009.02 825.848,1013.68 826.5,1019C 815.95,1034.21 802.283,1045.88 785.5,1054C 781.687,1055.77 777.687,1056.61 773.5,1056.5C 771.824,1051.26 770.324,1046.26 769,1041.5C 767.181,1039.46 765.347,1039.3 763.5,1041C 764.391,1049.74 766.391,1059.07 769.5,1069C 769.369,1071.25 768.869,1073.42 768,1075.5C 765.313,1079.02 762.147,1082.02 758.5,1084.5C 744.86,1091.77 731.193,1096.94 717.5,1100C 713.113,1100.23 708.779,1100.73 704.5,1101.5C 703.038,1100.53 701.705,1100.86 700.5,1102.5C 688.356,1101.91 676.023,1101.91 663.5,1102.5C 660.92,1092.96 658.753,1083.29 657,1073.5C 656.411,1071.14 654.911,1070.14 652.5,1070.5C 652.735,1075.46 652.735,1080.29 652.5,1085C 653.211,1087.8 653.878,1090.63 654.5,1093.5C 653.529,1094.96 653.862,1096.3 655.5,1097.5C 655.291,1098.09 654.957,1098.59 654.5,1099C 655.167,1102 655.833,1105 656.5,1108C 655.07,1109.89 653.403,1111.55 651.5,1113C 645.032,1114.49 638.865,1116.66 633,1119.5C 632.667,1119.17 632.333,1118.83 632,1118.5C 628.465,1119.9 624.798,1120.9 621,1121.5C 617.74,1120.38 614.407,1119.38 611,1118.5C 604.939,1119.59 598.939,1120.92 593,1122.5C 590,1121.17 587,1121.17 584,1122.5C 578.061,1120.92 572.061,1119.59 566,1118.5C 562.593,1119.38 559.26,1120.38 556,1121.5C 552.202,1120.9 548.535,1119.9 545,1118.5C 544.667,1118.83 544.333,1119.17 544,1119.5C 538.135,1116.66 531.968,1114.49 525.5,1113C 523.597,1111.55 521.93,1109.89 520.5,1108C 521.167,1105 521.833,1102 522.5,1099C 521.273,1097.41 521.606,1096.08 523.5,1095C 523.043,1094.59 522.709,1094.09 522.5,1093.5C 523.122,1090.63 523.789,1087.8 524.5,1085C 524.265,1080.29 524.265,1075.46 524.5,1070.5C 522.089,1070.14 520.589,1071.14 520,1073.5C 517.93,1083.21 515.763,1092.87 513.5,1102.5C 500.977,1101.91 488.644,1101.91 476.5,1102.5C 475.295,1100.86 473.962,1100.53 472.5,1101.5C 468.221,1100.73 463.887,1100.23 459.5,1100C 445.807,1096.94 432.14,1091.77 418.5,1084.5C 414.853,1082.02 411.687,1079.02 409,1075.5C 408.131,1073.42 407.631,1071.25 407.5,1069C 410.609,1059.07 412.609,1049.74 413.5,1041C 411.653,1039.3 409.819,1039.46 408,1041.5C 406.676,1046.26 405.176,1051.26 403.5,1056.5C 395.143,1055.82 387.477,1053.16 380.5,1048.5C 374.735,1044.05 369.068,1039.55 363.5,1035C 358.395,1030.24 354.062,1024.9 350.5,1019C 353.773,1008.25 358.106,997.579 363.5,987C 362.167,985.16 362.334,984.66 364,985.5C 368.072,975.608 372.072,965.274 376,954.5C 376.519,953.484 377.353,952.818 378.5,952.5C 380.105,953.43 381.605,953.43 383,952.5C 383.875,954.513 385.209,954.513 387,952.5C 387.333,953.167 387.667,953.833 388,954.5C 389.907,954.579 391.907,954.246 394,953.5C 394.667,954.167 395.333,954.833 396,955.5C 396.741,954.359 397.575,954.359 398.5,955.5C 399.478,955.023 400.311,954.357 401,953.5C 402,954.5 403,955.5 404,956.5C 405.676,955.569 407.509,954.902 409.5,954.5C 410.77,955.562 411.937,956.562 413,957.5C 414.667,957.5 416.333,957.5 418,957.5C 419,956.833 420,956.167 421,955.5C 422.312,957.658 423.978,957.991 426,956.5C 426.333,957.167 426.667,957.833 427,958.5C 428,957.5 429,956.5 430,955.5C 430.333,956.167 430.667,956.833 431,957.5C 433.667,956.167 436.333,956.167 439,957.5C 439.667,956.833 440.333,956.167 441,955.5C 444.358,956.148 447.691,956.481 451,956.5C 455.111,954.202 458.944,952.202 462.5,950.5C 465.382,947.729 467.715,944.562 469.5,941C 468.465,939.493 468.632,937.993 470,936.5C 472.906,932.175 475.406,927.008 477.5,921C 477.043,920.586 476.709,920.086 476.5,919.5C 477.809,916.766 478.809,914.099 479.5,911.5C 478.894,909.36 479.227,907.193 480.5,905C 480.167,904.667 479.833,904.333 479.5,904C 481.289,893.772 482.955,883.772 484.5,874C 484.415,872.893 484.081,871.893 483.5,871C 485.848,867.598 486.514,863.932 485.5,860C 487.146,858.445 487.479,856.779 486.5,855C 487.931,852.504 488.265,850.004 487.5,847.5C 488.108,844.855 488.608,842.188 489,839.5C 492.836,834.131 497.336,829.464 502.5,825.5C 506.144,820.688 509.978,816.021 514,811.5C 514.483,810.552 514.649,809.552 514.5,808.5C 516.606,808.321 518.272,807.321 519.5,805.5C 531.609,790.375 543.275,774.875 554.5,759C 554.167,758.667 553.833,758.333 553.5,758C 564.116,744.588 573.116,730.588 580.5,716C 582.394,714.899 583.061,713.566 582.5,712C 583.416,711.626 584.25,711.126 585,710.5C 594.102,694.405 603.602,678.571 613.5,663C 612.944,662.617 612.611,662.117 612.5,661.5 Z"/></g>
<g><path style="opacity:0.971" fill="#3b1618" d="M 470.5,552.5 C 473.272,552.627 474.605,554.127 474.5,557C 473.997,561.731 474.331,566.564 475.5,571.5C 475.43,572.772 475.097,573.938 474.5,575C 472.203,575.018 469.869,574.851 467.5,574.5C 465.667,566.989 466.667,559.656 470.5,552.5 Z"/></g>
<g><path style="opacity:0.975" fill="#3b1618" d="M 704.5,552.5 C 706.624,553.031 708.124,554.365 709,556.5C 710.81,562.759 710.976,568.759 709.5,574.5C 706.894,575.136 704.394,575.136 702,574.5C 701.658,569.894 702.158,565.394 703.5,561C 702.014,557.896 702.347,555.062 704.5,552.5 Z"/></g>
<g><path style="opacity:1" fill="#e3e3e3" d="M 627.5,580.5 C 627.665,586.059 627.332,592.059 626.5,598.5C 626.08,600.674 626.08,602.674 626.5,604.5C 625.975,605.192 625.308,605.692 624.5,606C 624.833,606.333 625.167,606.667 625.5,607C 623.741,608.008 622.574,609.508 622,611.5C 621.667,611.167 621.333,610.833 621,610.5C 620.292,611.381 619.458,612.047 618.5,612.5C 615.408,612.582 612.408,611.582 609.5,609.5C 606.047,607.261 602.714,604.761 599.5,602C 598.833,601.333 598.167,601.333 597.5,602C 600.002,608.007 602.002,614.173 603.5,620.5C 603.816,624.149 604.816,627.816 606.5,631.5C 607.071,634.477 608.071,637.31 609.5,640C 609.167,640.333 608.833,640.667 608.5,641C 609.814,641.985 610.814,643.152 611.5,644.5C 612.126,647.315 613.46,649.815 615.5,652C 615.167,652.333 614.833,652.667 614.5,653C 615.416,653.278 616.082,653.778 616.5,654.5C 618.126,656.997 618.626,659.664 618,662.5C 617.586,662.957 617.086,663.291 616.5,663.5C 615.476,662.147 614.143,661.48 612.5,661.5C 611.737,660.732 610.737,660.232 609.5,660C 609.316,657.677 607.982,655.844 605.5,654.5C 604.072,650.65 602.406,646.983 600.5,643.5C 599.992,639.264 598.992,635.264 597.5,631.5C 596.862,629.54 596.862,627.707 597.5,626C 593.904,615.757 591.404,604.924 590,593.5C 589,594.833 588,594.833 587,593.5C 585.596,604.924 583.096,615.757 579.5,626C 578.611,637.016 575.444,647.516 570,657.5C 566.417,659.744 562.917,662.078 559.5,664.5C 558.353,662.235 558.186,659.902 559,657.5C 566.67,639.326 573.504,620.826 579.5,602C 578.833,601.333 578.167,601.333 577.5,602C 573.833,605 570.167,608 566.5,611C 563.011,612.918 559.511,613.751 556,613.5C 553.667,611.5 551.333,609.5 549,607.5C 548.628,603.675 548.128,599.675 547.5,595.5C 547.974,590.19 548.974,585.023 550.5,580C 550.167,579.667 549.833,579.333 549.5,579C 550.937,574.024 552.77,569.19 555,564.5C 557.968,562.009 561.135,561.843 564.5,564C 569.401,569.051 573.401,574.718 576.5,581C 584.5,587 592.5,587 600.5,581C 603.599,574.718 607.599,569.051 612.5,564C 615.03,562.578 617.697,562.245 620.5,563C 624.205,568.679 626.539,574.513 627.5,580.5 Z"/></g>
<g><path style="opacity:1" fill="#555555" d="M 619.5,594.5 C 618.514,596.426 617.514,598.426 616.5,600.5C 615.611,602.859 614.278,603.025 612.5,601C 607.5,597.333 603.167,593 599.5,588C 604.983,583.252 610.15,578.086 615,572.5C 616.901,577.209 618.401,581.709 619.5,586C 620.35,589.097 620.35,591.93 619.5,594.5 Z"/></g>
<g><path style="opacity:1" fill="#555555" d="M 561.5,572.5 C 566.687,577.855 572.021,583.021 577.5,588C 573.29,593.878 568.123,598.711 562,602.5C 560.829,601.107 559.329,600.273 557.5,600C 557.833,599.667 558.167,599.333 558.5,599C 557.833,597.333 557.167,595.667 556.5,594C 558.159,587.064 559.826,579.898 561.5,572.5 Z"/></g>
<g><path style="opacity:1" fill="#391416" d="M 619.5,594.5 C 619.146,596.541 619.146,598.374 619.5,600C 618.552,600.483 617.552,600.649 616.5,600.5C 617.514,598.426 618.514,596.426 619.5,594.5 Z"/></g>
<g><path style="opacity:1" fill="#545454" d="M 609.5,609.5 C 608.278,613.612 606.278,617.279 603.5,620.5C 602.002,614.173 600.002,608.007 597.5,602C 598.167,601.333 598.833,601.333 599.5,602C 602.714,604.761 606.047,607.261 609.5,609.5 Z"/></g>
<g><path style="opacity:1" fill="#3b1719" d="M 609.5,609.5 C 612.408,611.582 615.408,612.582 618.5,612.5C 615.205,618.414 611.872,624.414 608.5,630.5C 608.043,631.298 607.376,631.631 606.5,631.5C 604.816,627.816 603.816,624.149 603.5,620.5C 606.278,617.279 608.278,613.612 609.5,609.5 Z"/></g>
<g><path style="opacity:1" fill="#bb6e73" d="M 600.5,643.5 C 602.406,646.983 604.072,650.65 605.5,654.5C 604.397,657.382 602.73,659.882 600.5,662C 600.833,662.333 601.167,662.667 601.5,663C 597.179,668.785 593.179,674.618 589.5,680.5C 586.419,677.807 582.753,676.807 578.5,677.5C 583.116,670.031 588.116,662.364 593.5,654.5C 596.669,657.112 599.836,657.112 603,654.5C 603.507,653.004 603.007,651.837 601.5,651C 599.753,650.648 598.086,650.148 596.5,649.5C 598.226,647.772 599.559,645.772 600.5,643.5 Z"/></g>
<g><path style="opacity:1" fill="#a34a50" d="M 596.5,649.5 C 598.086,650.148 599.753,650.648 601.5,651C 603.007,651.837 603.507,653.004 603,654.5C 599.836,657.112 596.669,657.112 593.5,654.5C 593.31,652.041 594.31,650.374 596.5,649.5 Z"/></g>
<g><path style="opacity:1" fill="#a2464c" d="M 578.5,677.5 C 582.753,676.807 586.419,677.807 589.5,680.5C 589.573,682.027 588.906,683.027 587.5,683.5C 585.361,685.443 583.028,686.11 580.5,685.5C 578.814,684.143 577.148,682.81 575.5,681.5C 575.738,679.596 576.738,678.262 578.5,677.5 Z"/></g>
<g><path style="opacity:1" fill="#bb6e73" d="M 575.5,681.5 C 577.148,682.81 578.814,684.143 580.5,685.5C 583.028,686.11 585.361,685.443 587.5,683.5C 587.649,684.552 587.483,685.552 587,686.5C 567.74,718.026 547.24,748.693 525.5,778.5C 520.049,773.181 513.549,770.848 506,771.5C 505.32,773.976 506.153,775.809 508.5,777C 512.728,780.089 517.395,781.923 522.5,782.5C 510.934,797.575 498.767,812.242 486,826.5C 481.957,821.883 477.791,817.216 473.5,812.5C 470.881,812.024 468.881,810.691 467.5,808.5C 472.861,802.308 478.361,796.308 484,790.5C 484.278,791.416 484.778,792.082 485.5,792.5C 488.933,796.637 493.267,799.804 498.5,802C 500.835,802.507 502.835,801.84 504.5,800C 499.741,794.454 493.741,791.287 486.5,790.5C 490.778,784.885 495.445,779.551 500.5,774.5C 501.986,772.698 502.986,770.698 503.5,768.5C 504.675,768.719 505.675,768.386 506.5,767.5C 509.507,763.332 512.673,759.332 516,755.5C 520.027,752.134 523.36,748.134 526,743.5C 527.77,741.258 529.937,739.592 532.5,738.5C 532.33,739.822 532.663,740.989 533.5,742C 536.474,743.262 539.307,744.762 542,746.5C 549.15,742.176 548.317,739.01 539.5,737C 537.071,736.297 534.738,736.463 532.5,737.5C 540.286,728.958 547.286,720.291 553.5,711.5C 555.392,716.971 559.058,718.471 564.5,716C 564.957,715.586 565.291,715.086 565.5,714.5C 563.089,709.685 559.422,708.352 554.5,710.5C 561.267,700.619 568.267,690.952 575.5,681.5 Z"/></g>
<g><path style="opacity:1" fill="#a1454b" d="M 553.5,711.5 C 553.5,710.833 553.833,710.5 554.5,710.5C 559.422,708.352 563.089,709.685 565.5,714.5C 565.291,715.086 564.957,715.586 564.5,716C 559.058,718.471 555.392,716.971 553.5,711.5 Z"/></g>
<g><path style="opacity:1" fill="#a1454b" d="M 532.5,738.5 C 532.5,738.167 532.5,737.833 532.5,737.5C 534.738,736.463 537.071,736.297 539.5,737C 548.317,739.01 549.15,742.176 542,746.5C 539.307,744.762 536.474,743.262 533.5,742C 532.663,740.989 532.33,739.822 532.5,738.5 Z"/></g>
<g><path style="opacity:1" fill="#bb6e73" d="M 440.5,750.5 C 441.239,750.369 441.906,750.536 442.5,751C 433.982,765.865 426.982,781.365 421.5,797.5C 414.889,798.156 408.556,798.156 402.5,797.5C 414.257,780.993 426.923,765.326 440.5,750.5 Z"/></g>
<g><path style="opacity:1" fill="#a2474d" d="M 525.5,778.5 C 524.878,780.122 523.878,781.455 522.5,782.5C 517.395,781.923 512.728,780.089 508.5,777C 506.153,775.809 505.32,773.976 506,771.5C 513.549,770.848 520.049,773.181 525.5,778.5 Z"/></g>
<g><path style="opacity:1" fill="#a3494f" d="M 486.5,790.5 C 493.741,791.287 499.741,794.454 504.5,800C 502.835,801.84 500.835,802.507 498.5,802C 493.267,799.804 488.933,796.637 485.5,792.5C 485.328,791.508 485.662,790.842 486.5,790.5 Z"/></g>
<g><path style="opacity:0.947" fill="#381214" d="M 291.5,862.5 C 291.167,861.167 290.833,861.167 290.5,862.5C 288.099,861.951 285.765,861.118 283.5,860C 277.632,854.961 271.965,849.794 266.5,844.5C 264.917,840.348 262.084,836.682 258,833.5C 256.352,829.544 254.519,825.711 252.5,822C 252.207,819.692 253.041,817.526 255,815.5C 260.956,810.712 266.456,805.378 271.5,799.5C 273.396,798.534 275.396,798.201 277.5,798.5C 277.343,799.873 277.51,801.207 278,802.5C 286.248,813.415 295.748,822.915 306.5,831C 310.321,832.325 313.987,833.991 317.5,836C 317.945,838.672 317.111,841.172 315,843.5C 307.953,850.37 301.453,857.037 295.5,863.5C 294.264,862.754 292.93,862.421 291.5,862.5 Z"/></g>
<g><path style="opacity:1" fill="#bb6e73" d="M 394.5,804.5 C 404.645,805.707 414.145,805.707 423,804.5C 427.224,806.121 431.224,806.454 435,805.5C 435.605,807.481 436.605,807.815 438,806.5C 439.958,807.952 441.958,808.285 444,807.5C 450.513,810.842 457.013,814.342 463.5,818C 469.779,823.755 473.779,830.421 475.5,838C 472.417,840.954 472.084,844.121 474.5,847.5C 473.879,851.013 473.213,854.513 472.5,858C 472.645,858.772 472.978,859.439 473.5,860C 472.046,865.788 470.379,871.788 468.5,878C 468.957,878.414 469.291,878.914 469.5,879.5C 467.351,888.57 465.351,897.404 463.5,906C 464.479,909.364 463.313,911.864 460,913.5C 459.31,916.526 458.143,919.359 456.5,922C 456.645,922.772 456.978,923.439 457.5,924C 456.584,924.374 455.75,924.874 455,925.5C 454.124,929.341 452.791,933.007 451,936.5C 450.25,937.126 449.416,937.626 448.5,938C 443.641,938.933 438.808,939.766 434,940.5C 432,939.833 430,939.167 428,938.5C 422.143,939.263 415.81,939.596 409,939.5C 406.923,938.983 404.923,938.316 403,937.5C 399.361,937.47 395.694,937.804 392,938.5C 389.667,937.833 387.333,937.167 385,936.5C 381.395,936.423 377.729,936.423 374,936.5C 370.251,935.26 366.585,933.926 363,932.5C 358.767,932.006 355.434,929.673 353,925.5C 351.742,917.93 351.909,910.264 353.5,902.5C 353.167,901.833 352.833,901.167 352.5,900.5C 354.432,896.739 355.098,892.906 354.5,889C 356.301,888.683 356.634,888.016 355.5,887C 358.047,879.988 360.213,872.822 362,865.5C 362.829,861.839 364.329,858.505 366.5,855.5C 366.167,854.833 365.833,854.167 365.5,853.5C 367.822,852.064 368.489,850.23 367.5,848C 371.166,838.498 375.666,828.998 381,819.5C 384.597,813.602 389.097,808.602 394.5,804.5 Z"/></g>
<g><path style="opacity:1" fill="#545454" d="M 272.5,807.5 C 279.67,817.131 287.337,826.464 295.5,835.5C 298.383,837.554 301.383,839.388 304.5,841C 300.714,845.609 296.214,848.443 291,849.5C 278.336,842.335 268.502,832.335 261.5,819.5C 265.245,815.428 268.912,811.428 272.5,807.5 Z"/></g>
<g><path style="opacity:0.986" fill="#3a1517" d="M 400.5,861.5 C 400.198,864.059 400.532,866.393 401.5,868.5C 401.196,869.15 400.863,869.817 400.5,870.5C 401.502,872.833 402.169,874.833 402.5,876.5C 402.995,878.482 403.495,880.482 404,882.5C 405.045,881.627 405.878,880.627 406.5,879.5C 408.14,878.68 409.807,877.847 411.5,877C 420.318,868.401 428.985,859.901 437.5,851.5C 442.428,847.359 447.761,843.693 453.5,840.5C 460.215,842.812 461.549,846.646 457.5,852C 446.173,861.659 434.84,871.326 423.5,881C 422.663,882.011 422.33,883.178 422.5,884.5C 421.127,884.343 419.793,884.51 418.5,885C 418.833,885.333 419.167,885.667 419.5,886C 414.692,890.653 409.692,895.82 404.5,901.5C 402.452,900.917 400.619,900.917 399,901.5C 398.085,900.672 397.419,899.672 397,898.5C 396.333,899.833 395.667,899.833 395,898.5C 393.627,893.928 392.794,889.261 392.5,884.5C 392.5,883.833 392.5,883.167 392.5,882.5C 390.025,862.44 387.858,842.773 386,823.5C 387.194,821.475 388.694,821.141 390.5,822.5C 391.948,824.667 393.115,827 394,829.5C 395.942,840.416 398.109,851.083 400.5,861.5 Z"/></g>
<g><path style="opacity:1" fill="#ddcacb" d="M 405.5,869.5 C 404.196,868.013 403.03,866.346 402,864.5C 401.51,865.793 401.343,867.127 401.5,868.5C 400.532,866.393 400.198,864.059 400.5,861.5C 400.513,851.792 399.513,842.292 397.5,833C 397.833,832.167 398.167,831.333 398.5,830.5C 400.119,833.188 401.453,836.021 402.5,839C 402.167,839.333 401.833,839.667 401.5,840C 402.917,842.983 403.75,846.15 404,849.5C 404.906,856.326 405.406,862.992 405.5,869.5 Z"/></g>
<g><path style="opacity:0.965" fill="#371214" d="M 290.5,862.5 C 290.833,862.5 291.167,862.5 291.5,862.5C 291.315,863.17 290.981,863.17 290.5,862.5 Z"/></g>
<g><path style="opacity:1" fill="#e3dbdc" d="M 437.5,851.5 C 428.985,859.901 420.318,868.401 411.5,877C 409.807,877.847 408.14,878.68 406.5,879.5C 405.167,878.5 403.833,877.5 402.5,876.5C 402.169,874.833 401.502,872.833 400.5,870.5C 400.863,869.817 401.196,869.15 401.5,868.5C 401.343,867.127 401.51,865.793 402,864.5C 403.03,866.346 404.196,868.013 405.5,869.5C 405.351,870.552 405.517,871.552 406,872.5C 417.508,861.326 429.341,850.493 441.5,840C 443.914,838.115 446.581,837.448 449.5,838C 445.663,842.669 441.663,847.169 437.5,851.5 Z"/></g>
<g><path style="opacity:1" fill="#a2474d" d="M 392.5,882.5 C 392.5,883.167 392.5,883.833 392.5,884.5C 391.351,884.791 390.684,885.624 390.5,887C 389.505,894.137 388.505,900.971 387.5,907.5C 395.717,908.716 404.05,910.382 412.5,912.5C 414.231,904.995 416.397,897.662 419,890.5C 420.653,892.232 421.486,894.399 421.5,897C 421.021,902.495 420.354,907.661 419.5,912.5C 424.655,913.755 429.822,914.755 435,915.5C 436.333,914.833 437.333,913.833 438,912.5C 440.245,905.856 441.912,899.523 443,893.5C 439.861,892.921 436.861,891.921 434,890.5C 432.657,891.214 431.324,890.88 430,889.5C 429.667,889.833 429.333,890.167 429,890.5C 427.59,889.213 426.09,888.046 424.5,887C 425.288,884.215 427.121,883.049 430,883.5C 435.501,884.234 441.001,884.901 446.5,885.5C 447.895,879.314 449.895,873.314 452.5,867.5C 454.045,866.548 455.712,866.215 457.5,866.5C 457.286,868.144 457.62,869.644 458.5,871C 456.62,876.596 454.953,881.93 453.5,887C 456.934,887.036 459.267,888.536 460.5,891.5C 458.751,895.292 455.918,896.292 452,894.5C 450.233,898.37 449.4,902.203 449.5,906C 448.259,908.563 446.926,911.063 445.5,913.5C 447.742,914.692 450.075,915.692 452.5,916.5C 453.282,918.329 452.616,919.829 450.5,921C 448.26,921.977 445.927,922.477 443.5,922.5C 443.252,926.744 441.919,930.578 439.5,934C 437.251,934.863 435.418,934.363 434,932.5C 433.746,929.805 433.579,927.305 433.5,925C 435.125,924.147 435.458,923.147 434.5,922C 431.927,922.204 429.26,921.704 426.5,920.5C 424.252,921.378 422.085,921.045 420,919.5C 417.718,921.366 416.885,923.532 417.5,926C 416.174,928.158 414.507,929.992 412.5,931.5C 407.939,928.698 407.272,925.032 410.5,920.5C 410.167,919.833 409.833,919.167 409.5,918.5C 402.162,916.833 394.829,915.166 387.5,913.5C 385.997,914.59 385.664,915.757 386.5,917C 384.986,918.439 384.653,919.939 385.5,921.5C 384.974,924.573 383.474,926.906 381,928.5C 379.167,928 378,926.833 377.5,925C 377.946,920.806 378.946,916.473 380.5,912C 375.88,910.673 371.213,910.007 366.5,910C 366.833,910.333 367.167,910.667 367.5,911C 366.272,914.421 364.939,917.754 363.5,921C 364.202,924.113 363.035,926.613 360,928.5C 358.702,927.44 357.535,926.274 356.5,925C 359.917,910.577 363.583,896.243 367.5,882C 360.437,877.619 361.103,875.452 369.5,875.5C 369.799,871.47 370.799,867.637 372.5,864C 372.065,861.602 372.731,859.269 374.5,857C 373.639,854.679 374.639,853.513 377.5,853.5C 377.531,859.536 376.531,865.369 374.5,871C 375.097,872.628 374.763,874.295 373.5,876C 380.28,877.105 386.613,879.272 392.5,882.5 Z"/></g>
<g><path style="opacity:1" fill="#bf777b" d="M 402.5,876.5 C 403.833,877.5 405.167,878.5 406.5,879.5C 405.878,880.627 405.045,881.627 404,882.5C 403.495,880.482 402.995,878.482 402.5,876.5 Z"/></g>
<g><path style="opacity:1" fill="#bb6e73" d="M 372.5,881.5 C 375.88,882.503 379.546,883.67 383.5,885C 384.578,885.674 385.245,886.674 385.5,888C 384.001,894.498 382.501,900.998 381,907.5C 376.357,906.792 371.857,905.625 367.5,904C 369.883,896.679 371.549,889.179 372.5,881.5 Z"/></g>
<g><path style="opacity:1" fill="#e2e2e2" d="M 817.5,1014.5 C 818.649,1014.79 819.316,1015.62 819.5,1017C 816.538,1023.97 812.372,1030.13 807,1035.5C 803.147,1038.55 800.313,1037.72 798.5,1033C 798.862,1031.78 799.362,1030.61 800,1029.5C 806.225,1024.83 812.058,1019.83 817.5,1014.5 Z"/></g>
<g><path style="opacity:1" fill="#e4e4e4" d="M 358.5,1014.5 C 360.14,1015.32 361.807,1016.15 363.5,1017C 367.673,1021.51 372.173,1025.67 377,1029.5C 379.035,1032.41 378.535,1034.91 375.5,1037C 370.999,1036.73 367.499,1034.56 365,1030.5C 361.775,1025.88 358.941,1021.05 356.5,1016C 357.416,1015.72 358.082,1015.22 358.5,1014.5 Z"/></g>
<g><path style="opacity:1" fill="#e5e5e5" d="M 788.5,1036.5 C 792.677,1035.84 794.177,1037.51 793,1041.5C 789.585,1044.25 785.918,1046.59 782,1048.5C 775.59,1046.48 775.09,1043.65 780.5,1040C 783.158,1038.52 785.825,1037.36 788.5,1036.5 Z"/></g>
<g><path style="opacity:1" fill="#e4e4e4" d="M 384.5,1036.5 C 391.204,1036.52 396.538,1039.19 400.5,1044.5C 398.881,1047.31 396.547,1048.48 393.5,1048C 390.339,1045.84 387.173,1043.68 384,1041.5C 383.36,1039.73 383.527,1038.07 384.5,1036.5 Z"/></g>
<g><path style="opacity:1" fill="#e7e7e7" d="M 753.5,1070.5 C 758.26,1072.67 758.593,1075.34 754.5,1078.5C 752.088,1079.58 749.754,1080.74 747.5,1082C 742.169,1083.32 736.669,1085.15 731,1087.5C 724.329,1084.32 724.329,1080.65 731,1076.5C 733,1076.5 735,1076.5 737,1076.5C 742.614,1074.55 748.114,1072.55 753.5,1070.5 Z"/></g>
<g><path style="opacity:1" fill="#e5e5e5" d="M 422.5,1070.5 C 428.344,1072.45 434.178,1074.45 440,1076.5C 442,1076.5 444,1076.5 446,1076.5C 452.671,1080.65 452.671,1084.32 446,1087.5C 440.331,1085.15 434.831,1083.32 429.5,1082C 425.722,1080.7 422.556,1078.53 420,1075.5C 420.058,1073.56 420.891,1071.9 422.5,1070.5 Z"/></g>
<g><path style="opacity:1" fill="#e4e4e4" d="M 464.5,1080.5 C 470.086,1080.81 475.586,1081.47 481,1082.5C 484.259,1082.46 487.426,1082.12 490.5,1081.5C 501.089,1085.63 500.923,1089.63 490,1093.5C 486.791,1091.69 483.791,1091.69 481,1093.5C 474.337,1092.47 468.17,1090.63 462.5,1088C 459.759,1084.71 460.425,1082.21 464.5,1080.5 Z"/></g>
<g><path style="opacity:1" fill="#e2e2e2" d="M 706.5,1080.5 C 711.022,1079.62 714.355,1081.12 716.5,1085C 716.241,1086.26 715.574,1087.26 714.5,1088C 712.22,1088.23 710.22,1089.07 708.5,1090.5C 707.158,1089.1 706.324,1089.43 706,1091.5C 705.667,1091.17 705.333,1090.83 705,1090.5C 701.861,1091.08 698.861,1092.08 696,1093.5C 693.209,1091.69 690.209,1091.69 687,1093.5C 685.266,1092.75 683.433,1092.25 681.5,1092C 678.317,1089.52 677.984,1086.85 680.5,1084C 682.615,1083.44 684.615,1082.61 686.5,1081.5C 689.574,1082.12 692.741,1082.46 696,1082.5C 699.603,1081.86 703.103,1081.2 706.5,1080.5 Z"/></g>
<g><path style="opacity:1" fill="#e3e3e3" d="M 529.5,1099.5 C 537.545,1099.35 545.545,1100.85 553.5,1104C 556.154,1106.07 555.82,1107.74 552.5,1109C 549.574,1109.22 546.74,1109.72 544,1110.5C 542.155,1108.65 540.155,1108.32 538,1109.5C 534.045,1108.02 530.378,1106.02 527,1103.5C 526.333,1102.83 526.333,1102.17 527,1101.5C 527.995,1100.93 528.828,1100.27 529.5,1099.5 Z"/></g>
<g><path style="opacity:1" fill="#e5e5e5" d="M 569.5,1101.5 C 581.52,1102.51 593.52,1102.51 605.5,1101.5C 607.568,1101.97 609.568,1102.63 611.5,1103.5C 612.158,1105.44 612.491,1107.27 612.5,1109C 609.829,1110.54 606.996,1111.71 604,1112.5C 602.853,1111.54 601.853,1111.88 601,1113.5C 600.333,1112.83 599.667,1112.17 599,1111.5C 597.151,1112.56 595.151,1113.23 593,1113.5C 590,1113.5 587,1113.5 584,1113.5C 581.849,1113.23 579.849,1112.56 578,1111.5C 576.667,1114.17 575.333,1114.17 574,1111.5C 573.667,1111.83 573.333,1112.17 573,1112.5C 570.004,1111.71 567.171,1110.54 564.5,1109C 564.509,1107.27 564.842,1105.44 565.5,1103.5C 567.026,1103.01 568.359,1102.34 569.5,1101.5 Z"/></g>
<g><path style="opacity:1" fill="#dedede" d="M 639.5,1099.5 C 641.972,1099.63 644.639,1099.8 647.5,1100C 651.167,1101 651.5,1102.67 648.5,1105C 643.337,1107.7 638.17,1109.54 633,1110.5C 630.26,1109.72 627.426,1109.22 624.5,1109C 620.48,1106.48 620.813,1104.48 625.5,1103C 630.184,1101.35 634.85,1100.18 639.5,1099.5 Z"/></g>
<g><path style="opacity:0.784" fill="#371213" d="M 568.5,1135.5 C 569.833,1136.17 569.833,1136.17 568.5,1135.5 Z"/></g>
<g><path style="opacity:0.933" fill="#371213" d="M 607.5,1135.5 C 608.833,1136.17 608.833,1136.17 607.5,1135.5 Z"/></g>
<g><path style="opacity:0.951" fill="#391215" d="M 496.5,1691.5 C 496.167,1690.17 495.833,1690.17 495.5,1691.5C 491.479,1691.72 487.479,1691.72 483.5,1691.5C 480.569,1690.09 477.235,1688.76 473.5,1687.5C 467.872,1682.16 461.205,1677.32 453.5,1673C 450.625,1669.96 447.625,1667.12 444.5,1664.5C 443.571,1663.31 443.238,1661.98 443.5,1660.5C 441.61,1660.7 440.11,1660.04 439,1658.5C 436.578,1654.66 433.911,1650.99 431,1647.5C 425.869,1638.24 425.702,1628.74 430.5,1619C 429.786,1617.66 430.12,1616.32 431.5,1615C 431.167,1614.67 430.833,1614.33 430.5,1614C 431.94,1608.69 433.273,1603.36 434.5,1598C 434.329,1585.12 434.329,1572.78 434.5,1561C 431.528,1549.7 432.028,1538.87 436,1528.5C 439.392,1523.95 442.559,1519.28 445.5,1514.5C 446.651,1513.27 447.817,1513.27 449,1514.5C 449.333,1516.83 449.667,1519.17 450,1521.5C 454.617,1526.11 455.783,1531.28 453.5,1537C 455.279,1547.28 456.445,1557.45 457,1567.5C 464.136,1563.08 471.803,1561.08 480,1561.5C 489.329,1560.45 498.662,1559.45 508,1558.5C 512.257,1559.31 516.257,1560.64 520,1562.5C 521.117,1562.33 522.284,1562 523.5,1561.5C 526.096,1562.48 528.762,1563.15 531.5,1563.5C 533.587,1556.25 533.587,1548.92 531.5,1541.5C 531.709,1540.91 532.043,1540.41 532.5,1540C 528.457,1533.62 527.624,1526.78 530,1519.5C 531.613,1516.36 534.113,1515.19 537.5,1516C 543.072,1523.48 547.072,1531.81 549.5,1541C 549.167,1541.33 548.833,1541.67 548.5,1542C 549.5,1549.67 550.5,1557.33 551.5,1565C 550.651,1568.73 550.317,1572.73 550.5,1577C 551.167,1582.67 551.833,1588.33 552.5,1594C 552.167,1594.33 551.833,1594.67 551.5,1595C 552.167,1597 552.833,1599 553.5,1601C 553.167,1601.33 552.833,1601.67 552.5,1602C 557.48,1614.34 561.48,1626.67 564.5,1639C 564.26,1643.07 564.26,1647.07 564.5,1651C 560.801,1660.36 554.135,1666.7 544.5,1670C 543.382,1671.07 542.382,1672.24 541.5,1673.5C 540.914,1673.29 540.414,1672.96 540,1672.5C 538.5,1674.67 536.667,1676.5 534.5,1678C 530.523,1679.46 526.69,1681.96 523,1685.5C 521.984,1684.37 521.317,1684.7 521,1686.5C 519.984,1685.37 519.317,1685.7 519,1687.5C 516.945,1687.15 514.945,1687.82 513,1689.5C 512.667,1689.17 512.333,1688.83 512,1688.5C 509.254,1689.68 506.588,1690.68 504,1691.5C 501.649,1690.79 499.149,1690.79 496.5,1691.5 Z M 454.5,1620.5 C 454.407,1618.75 454.074,1616.92 453.5,1615C 454.763,1613.29 455.097,1611.63 454.5,1610C 456.004,1604.92 457.004,1599.92 457.5,1595C 456.49,1592.18 456.49,1589.01 457.5,1585.5C 475.356,1580.15 493.022,1579.48 510.5,1583.5C 519.005,1583.23 527.005,1585.4 534.5,1590C 533.919,1590.89 533.585,1591.89 533.5,1593C 533.479,1602.81 535.479,1612.14 539.5,1621C 538.065,1623.27 538.398,1625.27 540.5,1627C 539.093,1628.45 537.593,1628.29 536,1626.5C 520.932,1618.05 504.265,1613.38 486,1612.5C 475.302,1613.32 464.802,1615.99 454.5,1620.5 Z"/></g>
<g><path style="opacity:0.938" fill="#391215" d="M 681.5,1691.5 C 681.167,1690.17 680.833,1690.17 680.5,1691.5C 677.851,1690.79 675.351,1690.79 673,1691.5C 671.739,1691.24 670.739,1690.57 670,1689.5C 667.911,1689.75 665.911,1689.75 664,1689.5C 662.055,1687.82 660.055,1687.15 658,1687.5C 657.683,1685.7 657.016,1685.37 656,1686.5C 651.937,1683.97 648.27,1680.97 645,1677.5C 644.282,1678.45 643.449,1678.62 642.5,1678C 640.333,1676.5 638.5,1674.67 637,1672.5C 636.586,1672.96 636.086,1673.29 635.5,1673.5C 630.953,1669.47 625.953,1665.97 620.5,1663C 616.746,1659.76 614.079,1655.76 612.5,1651C 612.74,1647.07 612.74,1643.07 612.5,1639C 615.52,1626.67 619.52,1614.34 624.5,1602C 624.167,1601.67 623.833,1601.33 623.5,1601C 624.167,1599 624.833,1597 625.5,1595C 625.167,1594.67 624.833,1594.33 624.5,1594C 625.167,1588.33 625.833,1582.67 626.5,1577C 626.683,1572.73 626.349,1568.73 625.5,1565C 626.167,1561.33 626.833,1557.67 627.5,1554C 627.5,1549.67 627.5,1545.33 627.5,1541C 629.959,1532.79 633.293,1524.95 637.5,1517.5C 640.805,1514.61 643.805,1514.95 646.5,1518.5C 649.456,1526.05 648.79,1533.22 644.5,1540C 644.957,1540.41 645.291,1540.91 645.5,1541.5C 643.413,1548.92 643.413,1556.25 645.5,1563.5C 653.17,1562.14 661.003,1560.48 669,1558.5C 678.338,1559.45 687.671,1560.45 697,1561.5C 705.197,1561.08 712.864,1563.08 720,1567.5C 720.555,1557.45 721.721,1547.28 723.5,1537C 721.217,1531.28 722.383,1526.11 727,1521.5C 727.333,1519.17 727.667,1516.83 728,1514.5C 729.183,1513.27 730.349,1513.27 731.5,1514.5C 734.441,1519.28 737.608,1523.95 741,1528.5C 744.972,1538.87 745.472,1549.7 742.5,1561C 742.671,1572.78 742.671,1585.12 742.5,1598C 743.727,1603.36 745.06,1608.69 746.5,1614C 745.786,1615.34 746.12,1616.68 747.5,1618C 747.167,1618.33 746.833,1618.67 746.5,1619C 751.298,1628.74 751.131,1638.24 746,1647.5C 743.257,1650.65 740.757,1653.99 738.5,1657.5C 737.272,1659.32 735.606,1660.32 733.5,1660.5C 728.723,1669.1 721.723,1675.6 712.5,1680C 711.874,1680.75 711.374,1681.58 711,1682.5C 710.667,1682.17 710.333,1681.83 710,1681.5C 707.738,1683.38 705.572,1685.38 703.5,1687.5C 699.765,1688.76 696.431,1690.09 693.5,1691.5C 689.59,1692.34 685.59,1692.34 681.5,1691.5 Z M 722.5,1620.5 C 697.633,1610.13 672.633,1610.96 647.5,1623C 645.056,1623.8 643.222,1625.3 642,1627.5C 640.657,1626.79 639.324,1627.12 638,1628.5C 636,1627.5 636,1626.5 638,1625.5C 638.72,1623.89 638.554,1622.39 637.5,1621C 642.131,1610.88 643.798,1600.55 642.5,1590C 646.088,1588.04 649.755,1586.37 653.5,1585C 662.446,1584.36 671.446,1582.86 680.5,1580.5C 686.129,1580.53 692.129,1580.53 698.5,1580.5C 705.325,1581.95 712.325,1583.62 719.5,1585.5C 720.51,1589.01 720.51,1592.18 719.5,1595C 719.996,1599.92 720.996,1604.92 722.5,1610C 721.903,1611.63 722.237,1613.29 723.5,1615C 722.926,1616.92 722.593,1618.75 722.5,1620.5 Z"/></g>
<g><path style="opacity:1" fill="#b96d72" d="M 536.5,1523.5 C 538.754,1526.65 540.754,1530.15 542.5,1534C 542.434,1540.06 542.268,1546.23 542,1552.5C 540.761,1547.49 539.261,1542.65 537.5,1538C 537.833,1537.67 538.167,1537.33 538.5,1537C 534.246,1532.92 533.579,1528.42 536.5,1523.5 Z"/></g>
<g><path style="opacity:1" fill="#ba6d72" d="M 638.5,1523.5 C 640.74,1524.59 642.073,1526.42 642.5,1529C 641.964,1532.07 640.63,1534.74 638.5,1537C 638.833,1537.33 639.167,1537.67 639.5,1538C 637.739,1542.65 636.239,1547.49 635,1552.5C 634.732,1546.23 634.566,1540.06 634.5,1534C 636.712,1530.87 638.046,1527.37 638.5,1523.5 Z"/></g>
<g><path style="opacity:0.945" fill="#7a4044" d="M 640.5,1582.5 C 638.921,1585.33 637.588,1588.33 636.5,1591.5C 635.675,1592.39 634.675,1592.72 633.5,1592.5C 633.157,1590.52 633.824,1589.18 635.5,1588.5C 635.435,1588.94 635.601,1589.27 636,1589.5C 636.541,1586.39 638.041,1584.05 640.5,1582.5 Z"/></g>
<g><path style="opacity:1" fill="#bb6e73" d="M 446.5,1525.5 C 447.117,1525.61 447.617,1525.94 448,1526.5C 448.889,1529.69 449.722,1532.85 450.5,1536C 450.263,1546.47 450.263,1556.8 450.5,1567C 447.709,1571.23 448.042,1575.23 451.5,1579C 454.149,1578.86 455.815,1577.36 456.5,1574.5C 459.875,1573.1 463.209,1571.6 466.5,1570C 473.219,1568.01 479.886,1566.84 486.5,1566.5C 487.647,1566.82 488.481,1567.48 489,1568.5C 495.878,1567.45 502.378,1566.78 508.5,1566.5C 513.994,1568.2 519.327,1570.2 524.5,1572.5C 527.021,1569.91 529.521,1569.91 532,1572.5C 533.699,1571.59 535.533,1571.26 537.5,1571.5C 537.822,1569.28 537.155,1567.44 535.5,1566C 540.142,1565.69 542.308,1563.19 542,1558.5C 542.27,1561.22 542.77,1563.89 543.5,1566.5C 542.463,1573.47 541.797,1580.3 541.5,1587C 542.885,1588.6 543.551,1590.43 543.5,1592.5C 542.5,1592.5 541.5,1592.5 540.5,1592.5C 540.752,1589.68 540.252,1587.01 539,1584.5C 533.59,1579.34 527.09,1576.34 519.5,1575.5C 514.894,1575.44 510.228,1575.44 505.5,1575.5C 487.376,1572.16 469.376,1574.66 451.5,1583C 450.663,1584.01 450.33,1585.18 450.5,1586.5C 451.552,1586.35 452.552,1586.52 453.5,1587C 450.207,1598.03 447.207,1608.87 444.5,1619.5C 444.63,1621.42 444.964,1623.26 445.5,1625C 443.142,1627.03 441.142,1629.36 439.5,1632C 439.93,1633.43 440.764,1634.6 442,1635.5C 456.185,1626.58 471.685,1621.91 488.5,1621.5C 489.517,1624.03 490.684,1624.03 492,1621.5C 501.939,1623.24 512.106,1626.41 522.5,1631C 528.076,1634.27 534.076,1637.6 540.5,1641C 543.829,1643.97 547.162,1646.97 550.5,1650C 549.476,1651.7 548.142,1653.2 546.5,1654.5C 537.5,1660.67 528.5,1666.83 519.5,1673C 508,1679.11 496.166,1681.28 484,1679.5C 472.346,1671.5 461.346,1662.83 451,1653.5C 447.909,1648.99 444.575,1644.65 441,1640.5C 439.162,1637.96 438.329,1635.13 438.5,1632C 438.991,1629.79 438.991,1627.79 438.5,1626C 440.125,1625.15 440.458,1624.15 439.5,1623C 442.07,1615.32 443.737,1607.16 444.5,1598.5C 444.407,1587.33 444.407,1576.16 444.5,1565C 443.284,1555.74 442.284,1546.74 441.5,1538C 442.291,1533.46 443.958,1529.29 446.5,1525.5 Z"/></g>
<g><path style="opacity:1" fill="#bb6e73" d="M 640.5,1582.5 C 638.041,1584.05 636.541,1586.39 636,1589.5C 635.601,1589.27 635.435,1588.94 635.5,1588.5C 634.907,1581.15 634.24,1573.82 633.5,1566.5C 634.23,1563.89 634.73,1561.22 635,1558.5C 634.815,1562.65 636.648,1565.48 640.5,1567C 639.483,1568.05 639.316,1569.22 640,1570.5C 641.667,1571.17 643.333,1571.83 645,1572.5C 647.479,1569.91 649.979,1569.91 652.5,1572.5C 654.711,1571.88 656.711,1570.88 658.5,1569.5C 660.329,1570.28 661.829,1569.62 663,1567.5C 663.333,1567.83 663.667,1568.17 664,1568.5C 665.667,1567.83 667.333,1567.17 669,1566.5C 672.749,1566.24 676.583,1566.57 680.5,1567.5C 683.089,1567.15 685.589,1566.48 688,1565.5C 695.279,1567.17 702.779,1568.67 710.5,1570C 713.791,1571.6 717.125,1573.1 720.5,1574.5C 724.115,1581.22 726.781,1580.72 728.5,1573C 727.833,1571 727.167,1569 726.5,1567C 726.756,1556.97 726.756,1546.8 726.5,1536.5C 727.104,1533.1 727.937,1529.77 729,1526.5C 730.147,1525.54 731.147,1525.88 732,1527.5C 733.544,1530.91 734.711,1534.41 735.5,1538C 734.716,1546.74 733.716,1555.74 732.5,1565C 732.784,1578.54 732.784,1591.88 732.5,1605C 733.644,1609.21 734.978,1613.38 736.5,1617.5C 736.413,1619.7 736.413,1621.87 736.5,1624C 737.167,1624.67 737.833,1625.33 738.5,1626C 738.501,1629.3 738.334,1632.8 738,1636.5C 732.916,1645.24 726.749,1653.08 719.5,1660C 710.978,1666.85 702.144,1673.35 693,1679.5C 692.667,1679.17 692.333,1678.83 692,1678.5C 687.333,1679.17 682.667,1679.83 678,1680.5C 673.265,1678.77 668.432,1677.27 663.5,1676C 650.199,1668.53 637.865,1659.87 626.5,1650C 629.612,1647.21 632.612,1644.38 635.5,1641.5C 642.205,1637.84 648.538,1634.34 654.5,1631C 664.894,1626.41 675.061,1623.24 685,1621.5C 686.316,1624.03 687.483,1624.03 688.5,1621.5C 705.315,1621.91 720.815,1626.58 735,1635.5C 736.236,1634.6 737.07,1633.43 737.5,1632C 735.858,1629.36 733.858,1627.03 731.5,1625C 732.036,1623.26 732.37,1621.42 732.5,1619.5C 729.797,1608.88 726.797,1598.05 723.5,1587C 725.037,1585.89 725.703,1584.39 725.5,1582.5C 710.26,1576.2 694.927,1573.2 679.5,1573.5C 672.697,1573.95 665.864,1574.95 659,1576.5C 658.586,1576.04 658.086,1575.71 657.5,1575.5C 651.149,1576.49 645.482,1578.82 640.5,1582.5 Z"/></g>
<g><path style="opacity:1" fill="#ad6469" d="M 627.5,1621.5 C 628.5,1621.5 629.5,1621.5 630.5,1621.5C 630.25,1624.21 630.083,1626.88 630,1629.5C 632.024,1627.12 634.191,1626.95 636.5,1629C 635.643,1629.69 634.977,1630.52 634.5,1631.5C 631.743,1632.03 629.243,1633.03 627,1634.5C 626.751,1630.24 626.918,1625.9 627.5,1621.5 Z"/></g>
<g><path style="opacity:1" fill="#a96166" d="M 546.5,1621.5 C 547.822,1621.33 548.989,1621.66 550,1622.5C 549.797,1626.6 549.797,1630.6 550,1634.5C 547.757,1633.03 545.257,1632.03 542.5,1631.5C 539.613,1629.38 539.946,1628.05 543.5,1627.5C 545.029,1627.53 546.196,1628.2 547,1629.5C 546.917,1626.88 546.75,1624.21 546.5,1621.5 Z"/></g>
<g><path style="opacity:0.867" fill="#361114" d="M 495.5,1691.5 C 495.833,1691.5 496.167,1691.5 496.5,1691.5C 496.315,1692.17 495.981,1692.17 495.5,1691.5 Z"/></g>
<g><path style="opacity:0.62" fill="#361012" d="M 680.5,1691.5 C 680.833,1691.5 681.167,1691.5 681.5,1691.5C 681.315,1692.17 680.981,1692.17 680.5,1691.5 Z"/></g>
</svg>
