<?xml version="1.0" encoding="UTF-8"?>
<!DOCTYPE svg PUBLIC "-//W3C//DTD SVG 1.1//EN" "http://www.w3.org/Graphics/SVG/1.1/DTD/svg11.dtd">
<svg xmlns="http://www.w3.org/2000/svg" version="1.1" width="1216px" height="1749px" style="shape-rendering:geometricPrecision; text-rendering:geometricPrecision; image-rendering:optimizeQuality; fill-rule:evenodd; clip-rule:evenodd" xmlns:xlink="http://www.w3.org/1999/xlink">
<g><path style="opacity:0.982" fill="#3b1416" d="M 742.5,732.5 C 744.511,730.409 744.511,728.742 742.5,727.5C 759.108,714.191 776.108,701.357 793.5,689C 801.022,682.476 808.189,675.643 815,668.5C 819.048,664.12 822.715,659.454 826,654.5C 826.995,651.874 827.328,649.207 827,646.5C 826.082,644.624 824.582,643.624 822.5,643.5C 821.5,643.167 820.833,642.5 820.5,641.5C 819.833,640.167 818.833,639.167 817.5,638.5C 815.823,636.46 814.156,634.46 812.5,632.5C 813.658,631.05 813.158,630.05 811,629.5C 810.617,630.056 810.117,630.389 809.5,630.5C 801.228,621.721 793.061,612.721 785,603.5C 774.938,589.208 765.771,574.374 757.5,559C 757.833,558.667 758.167,558.333 758.5,558C 755.084,550.757 752.251,543.257 750,535.5C 748.262,531.759 745.762,528.592 742.5,526C 737.25,524.523 732.083,524.023 727,524.5C 711.434,529.001 695.768,532.001 680,533.5C 677.676,534.845 675.342,535.178 673,534.5C 660.738,556.53 644.238,574.697 623.5,589C 619.921,590.706 616.421,592.539 613,594.5C 612.667,594.167 612.333,593.833 612,593.5C 611.5,594.5 611,595.5 610.5,596.5C 613.433,597.93 615.933,599.93 618,602.5C 641.822,635.62 653.656,672.12 653.5,712C 654.167,713.667 654.833,715.333 655.5,717C 655.578,722.964 655.411,729.131 655,735.5C 653.123,737.791 653.29,739.791 655.5,741.5C 655,741.833 654.5,742.167 654,742.5C 652.584,741.427 651.25,741.427 650,742.5C 620.341,716.141 602.008,683.807 595,645.5C 592.936,634.247 593.77,623.414 597.5,613C 597.355,612.228 597.022,611.561 596.5,611C 591.167,610.333 585.833,610.333 580.5,611C 579.317,613.155 579.65,615.155 581.5,617C 581.167,617.333 580.833,617.667 580.5,618C 581.904,621.904 582.904,625.904 583.5,630C 582.53,653.392 576.363,675.225 565,695.5C 554.883,713.278 542.216,728.945 527,742.5C 525.187,742.253 523.353,741.92 521.5,741.5C 521.977,740.522 522.643,739.689 523.5,739C 521.977,735.194 521.31,731.194 521.5,727C 523.139,708.248 525.306,688.748 528,668.5C 532.663,651.207 539.33,634.54 548,618.5C 551.276,612.892 554.943,607.558 559,602.5C 561.067,599.93 563.567,597.93 566.5,596.5C 566,595.5 565.5,594.5 565,593.5C 564.667,593.833 564.333,594.167 564,594.5C 549.623,587.129 536.956,577.462 526,565.5C 517.915,555.65 510.582,545.316 504,534.5C 501.266,534.633 498.599,534.633 496,534.5C 480.492,531.905 465.158,528.571 450,524.5C 444.917,524.023 439.75,524.523 434.5,526C 431.238,528.592 428.738,531.759 427,535.5C 421.074,556.032 411.741,575.365 399,593.5C 396.174,596.484 393.841,599.817 392,603.5C 383.939,612.721 375.772,621.721 367.5,630.5C 366.211,629.499 364.878,629.666 363.5,631C 364.056,631.383 364.389,631.883 364.5,632.5C 362.844,634.46 361.177,636.46 359.5,638.5C 358.167,639.167 357.167,640.167 356.5,641.5C 356.167,642.5 355.5,643.167 354.5,643.5C 352.418,643.624 350.918,644.624 350,646.5C 349.672,649.207 350.005,651.874 351,654.5C 360.775,666.977 371.608,678.477 383.5,689C 400.892,701.357 417.892,714.191 434.5,727.5C 433.909,728.151 433.243,728.818 432.5,729.5C 433.193,730.518 433.859,731.518 434.5,732.5C 429.403,730.855 424.903,728.188 421,724.5C 420.667,724.833 420.333,725.167 420,725.5C 419.517,724.552 419.351,723.552 419.5,722.5C 417.345,722.628 415.345,722.128 413.5,721C 393.187,705.498 374.52,688.164 357.5,669C 356.552,668.517 355.552,668.351 354.5,668.5C 351.544,664.691 348.711,660.691 346,656.5C 345.691,655.234 345.191,654.067 344.5,653C 344.626,651.026 344.792,648.859 345,646.5C 346.677,643.147 348.843,640.147 351.5,637.5C 366.53,622.97 380.697,607.637 394,591.5C 400.524,581.632 406.69,571.465 412.5,561C 408.696,557.234 406.03,552.734 404.5,547.5C 409.278,535.063 414.945,523.063 421.5,511.5C 432.427,500.401 444.094,490.234 456.5,481C 479.414,466.043 503.08,452.376 527.5,440C 530.5,439.333 533.5,439.333 536.5,440C 538.303,440.637 539.636,441.803 540.5,443.5C 550.534,443.534 555.534,448.534 555.5,458.5C 554.448,458.351 553.448,458.517 552.5,459C 549.781,461.68 546.781,463.847 543.5,465.5C 545.667,469.167 547.833,472.833 550,476.5C 551.816,475.671 553.649,474.837 555.5,474C 564.328,472.002 573.161,470.169 582,468.5C 594.649,468.827 607.815,470.66 621.5,474C 623.351,474.837 625.184,475.671 627,476.5C 629.167,472.833 631.333,469.167 633.5,465.5C 630.219,463.847 627.219,461.68 624.5,459C 623.552,458.517 622.552,458.351 621.5,458.5C 621.466,448.534 626.466,443.534 636.5,443.5C 637.364,441.803 638.697,440.637 640.5,440C 643.5,439.333 646.5,439.333 649.5,440C 673.92,452.376 697.586,466.043 720.5,481C 732.906,490.234 744.573,500.401 755.5,511.5C 762.055,523.063 767.722,535.063 772.5,547.5C 770.97,552.734 768.304,557.234 764.5,561C 772.443,576.104 781.776,590.271 792.5,603.5C 803.555,614.887 814.555,626.22 825.5,637.5C 828.157,640.147 830.323,643.147 832,646.5C 832.208,648.859 832.374,651.026 832.5,653C 831.809,654.067 831.309,655.234 831,656.5C 828.289,660.691 825.456,664.691 822.5,668.5C 821.448,668.351 820.448,668.517 819.5,669C 802.48,688.164 783.813,705.498 763.5,721C 761.655,722.128 759.655,722.628 757.5,722.5C 757.649,723.552 757.483,724.552 757,725.5C 756.667,725.167 756.333,724.833 756,724.5C 752.097,728.188 747.597,730.855 742.5,732.5 Z"/></g>
<g><path style="opacity:1" fill="#456ba7" d="M 570.5,541.5 C 565.064,537.24 559.731,532.74 554.5,528C 530.181,512.96 504.181,502.794 476.5,497.5C 475.094,498.668 473.928,498.335 473,496.5C 472.667,496.833 472.333,497.167 472,497.5C 465.568,495.809 459.401,494.142 453.5,492.5C 458.361,487.229 464.361,482.396 471.5,478C 491.711,466.06 512.377,454.893 533.5,444.5C 537.728,448.891 542.728,450.724 548.5,450C 549.705,452.234 549.039,453.901 546.5,455C 543.727,457.282 540.727,457.782 537.5,456.5C 536.5,456.833 535.833,457.5 535.5,458.5C 548.615,485.927 560.281,513.594 570.5,541.5 Z"/></g>
<g><path style="opacity:1" fill="#456ba7" d="M 723.5,492.5 C 717.599,494.142 711.432,495.809 705,497.5C 703.853,496.542 702.853,496.875 702,498.5C 701.586,498.043 701.086,497.709 700.5,497.5C 672.819,502.794 646.819,512.96 622.5,528C 617.269,532.74 611.936,537.24 606.5,541.5C 616.719,513.594 628.385,485.927 641.5,458.5C 640.106,456.398 638.439,456.065 636.5,457.5C 632.841,456.674 629.841,454.841 627.5,452C 627.645,451.228 627.978,450.561 628.5,450C 634.272,450.724 639.272,448.891 643.5,444.5C 671.681,458.053 698.181,473.386 723,490.5C 723.464,491.094 723.631,491.761 723.5,492.5 Z"/></g>
<g><path style="opacity:1" fill="#f9fbfe" d="M 622.5,486.5 C 599.833,477.167 577.167,477.167 554.5,486.5C 552.707,484.574 551.707,482.241 551.5,479.5C 556.806,478.405 562.14,477.238 567.5,476C 572.419,475.198 577.252,475.365 582,476.5C 584.192,475.601 586.358,474.601 588.5,473.5C 590.642,474.601 592.808,475.601 595,476.5C 599.748,475.365 604.581,475.198 609.5,476C 614.86,477.238 620.194,478.405 625.5,479.5C 625.293,482.241 624.293,484.574 622.5,486.5 Z"/></g>
<g><path style="opacity:1" fill="#4f73ac" d="M 622.5,486.5 C 622.771,488.38 622.104,489.713 620.5,490.5C 612.41,488.716 604.244,487.382 596,486.5C 591,486.5 586,486.5 581,486.5C 577.944,487.077 574.944,487.743 572,488.5C 571.586,488.043 571.086,487.709 570.5,487.5C 565.898,488.817 561.231,489.817 556.5,490.5C 554.896,489.713 554.229,488.38 554.5,486.5C 577.167,477.167 599.833,477.167 622.5,486.5 Z"/></g>
<g><path style="opacity:1" fill="#f9fbfe" d="M 620.5,490.5 C 619.226,493.76 617.56,496.76 615.5,499.5C 615.586,498.504 615.252,497.671 614.5,497C 599.529,490.234 584.529,489.234 569.5,494C 567.283,495.275 564.949,496.275 562.5,497C 561.748,497.671 561.414,498.504 561.5,499.5C 559.44,496.76 557.774,493.76 556.5,490.5C 561.231,489.817 565.898,488.817 570.5,487.5C 571.086,487.709 571.586,488.043 572,488.5C 574.944,487.743 577.944,487.077 581,486.5C 586,486.5 591,486.5 596,486.5C 604.244,487.382 612.41,488.716 620.5,490.5 Z"/></g>
<g><path style="opacity:1" fill="#456ca8" d="M 449.5,494.5 C 457.247,499.025 465.08,501.692 473,502.5C 500.475,508.333 526.308,518.166 550.5,532C 557.794,537.626 564.794,543.626 571.5,550C 572.448,550.483 573.448,550.649 574.5,550.5C 575.441,552.05 576.107,553.716 576.5,555.5C 564.155,544.726 551.155,535.559 537.5,528C 520.152,521.564 502.985,516.397 486,512.5C 475.398,509.3 464.564,506.8 453.5,505C 450.141,503.953 447.141,502.453 444.5,500.5C 446.219,498.456 447.886,496.456 449.5,494.5 Z"/></g>
<g><path style="opacity:1" fill="#456ca8" d="M 727.5,494.5 C 729.114,496.456 730.781,498.456 732.5,500.5C 729.859,502.453 726.859,503.953 723.5,505C 712.436,506.8 701.602,509.3 691,512.5C 674.015,516.397 656.848,521.564 639.5,528C 626.053,535.852 613.053,545.019 600.5,555.5C 600.893,553.716 601.559,552.05 602.5,550.5C 603.552,550.649 604.552,550.483 605.5,550C 617.942,537.214 632.276,527.214 648.5,520C 666.56,512.758 685.06,506.924 704,502.5C 711.92,501.692 719.753,499.025 727.5,494.5 Z"/></g>
<g><path style="opacity:1" fill="#5477af" d="M 615.5,499.5 C 615.672,500.492 615.338,501.158 614.5,501.5C 611.95,500.642 609.45,499.642 607,498.5C 606.667,498.833 606.333,499.167 606,499.5C 603.009,498.148 599.842,497.481 596.5,497.5C 591.167,497.5 585.833,497.5 580.5,497.5C 577.158,497.481 573.991,498.148 571,499.5C 570.667,499.167 570.333,498.833 570,498.5C 567.55,499.642 565.05,500.642 562.5,501.5C 561.662,501.158 561.328,500.492 561.5,499.5C 561.414,498.504 561.748,497.671 562.5,497C 564.949,496.275 567.283,495.275 569.5,494C 584.529,489.234 599.529,490.234 614.5,497C 615.252,497.671 615.586,498.504 615.5,499.5 Z"/></g>
<g><path style="opacity:1" fill="#f9fbfe" d="M 614.5,501.5 C 610.959,508.749 607.292,515.916 603.5,523C 604.517,524.049 604.684,525.216 604,526.5C 599.367,539.093 594.201,551.427 588.5,563.5C 582.799,551.427 577.633,539.093 573,526.5C 572.316,525.216 572.483,524.049 573.5,523C 569.708,515.916 566.041,508.749 562.5,501.5C 565.05,500.642 567.55,499.642 570,498.5C 570.333,498.833 570.667,499.167 571,499.5C 573.991,498.148 577.158,497.481 580.5,497.5C 585.833,497.5 591.167,497.5 596.5,497.5C 599.842,497.481 603.009,498.148 606,499.5C 606.333,499.167 606.667,498.833 607,498.5C 609.45,499.642 611.95,500.642 614.5,501.5 Z"/></g>
<g><path style="opacity:1" fill="#f3f6fc" d="M 453.5,492.5 C 459.401,494.142 465.568,495.809 472,497.5C 472.333,497.167 472.667,496.833 473,496.5C 473.928,498.335 475.094,498.668 476.5,497.5C 504.181,502.794 530.181,512.96 554.5,528C 559.731,532.74 565.064,537.24 570.5,541.5C 572.594,544.097 573.927,547.097 574.5,550.5C 573.448,550.649 572.448,550.483 571.5,550C 564.794,543.626 557.794,537.626 550.5,532C 526.308,518.166 500.475,508.333 473,502.5C 465.08,501.692 457.247,499.025 449.5,494.5C 449.91,491.569 451.244,490.903 453.5,492.5 Z"/></g>
<g><path style="opacity:1" fill="#456ba7" d="M 440.5,503.5 C 444.025,506.431 448.025,508.598 452.5,510C 480.069,517.19 507.402,525.19 534.5,534C 544.558,539.253 553.891,545.42 562.5,552.5C 552.824,547.329 543.157,542.162 533.5,537C 518.116,530.843 502.616,527.676 487,527.5C 481,526.167 475,524.833 469,523.5C 468.667,523.833 468.333,524.167 468,524.5C 456.815,519.845 445.482,518.845 434,521.5C 433,521.167 432,520.833 431,520.5C 428.564,521.355 426.064,522.021 423.5,522.5C 428.141,515.196 433.807,508.862 440.5,503.5 Z"/></g>
<g><path style="opacity:1" fill="#446ba7" d="M 736.5,503.5 C 743.193,508.862 748.859,515.196 753.5,522.5C 750.936,522.021 748.436,521.355 746,520.5C 745,520.833 744,521.167 743,521.5C 731.518,518.845 720.185,519.845 709,524.5C 708.667,524.167 708.333,523.833 708,523.5C 694.306,526.254 680.473,528.421 666.5,530C 658.7,531.867 651.033,534.2 643.5,537C 633.843,542.162 624.176,547.329 614.5,552.5C 626.506,542.044 640.172,534.211 655.5,529C 678.523,522.658 701.523,516.324 724.5,510C 728.975,508.598 732.975,506.431 736.5,503.5 Z"/></g>
<g><path style="opacity:1" fill="#eff3fa" d="M 727.5,494.5 C 719.753,499.025 711.92,501.692 704,502.5C 685.06,506.924 666.56,512.758 648.5,520C 632.276,527.214 617.942,537.214 605.5,550C 604.552,550.483 603.552,550.649 602.5,550.5C 603.059,547.057 604.393,544.057 606.5,541.5C 611.936,537.24 617.269,532.74 622.5,528C 646.819,512.96 672.819,502.794 700.5,497.5C 701.086,497.709 701.586,498.043 702,498.5C 702.853,496.875 703.853,496.542 705,497.5C 711.432,495.809 717.599,494.142 723.5,492.5C 725.756,490.903 727.09,491.569 727.5,494.5 Z"/></g>
<g><path style="opacity:1" fill="#f3f6fc" d="M 444.5,500.5 C 447.141,502.453 450.141,503.953 453.5,505C 464.564,506.8 475.398,509.3 486,512.5C 502.985,516.397 520.152,521.564 537.5,528C 551.155,535.559 564.155,544.726 576.5,555.5C 577.74,556.973 578.74,558.64 579.5,560.5C 578.833,560.833 578.167,561.167 577.5,561.5C 573.489,559.149 569.489,556.816 565.5,554.5C 565.027,553.094 564.027,552.427 562.5,552.5C 553.891,545.42 544.558,539.253 534.5,534C 507.402,525.19 480.069,517.19 452.5,510C 448.025,508.598 444.025,506.431 440.5,503.5C 441.262,501.738 442.596,500.738 444.5,500.5 Z"/></g>
<g><path style="opacity:1" fill="#456ba6" d="M 423.5,522.5 C 424.122,523.627 424.955,524.627 426,525.5C 427.183,524.269 428.349,524.269 429.5,525.5C 423.296,534.248 418.963,543.915 416.5,554.5C 415.325,554.719 414.325,554.386 413.5,553.5C 412.509,551.677 411.176,550.177 409.5,549C 413.153,543.245 415.986,537.078 418,530.5C 420.103,527.941 421.936,525.274 423.5,522.5 Z"/></g>
<g><path style="opacity:1" fill="#456ba7" d="M 753.5,522.5 C 755.064,525.274 756.897,527.941 759,530.5C 760.877,537.141 763.71,543.308 767.5,549C 765.824,550.177 764.491,551.677 763.5,553.5C 762.675,554.386 761.675,554.719 760.5,554.5C 758.043,543.925 753.71,534.258 747.5,525.5C 748.651,524.269 749.817,524.269 751,525.5C 752.417,524.922 753.25,523.922 753.5,522.5 Z"/></g>
<g><path style="opacity:1" fill="#f9fbfe" d="M 809.5,630.5 C 803.23,637.271 796.73,643.938 790,650.5C 781.381,655.728 773.381,662.395 766,670.5C 765.667,670.167 765.333,669.833 765,669.5C 750.286,681.882 734.12,693.215 716.5,703.5C 714.574,693.374 712.074,683.374 709,673.5C 707.387,664.828 707.221,656.162 708.5,647.5C 707.891,644.163 706.724,643.83 705,646.5C 702.349,662.792 703.849,678.625 709.5,694C 708.786,695.343 709.12,696.676 710.5,698C 710.167,698.333 709.833,698.667 709.5,699C 716.665,722.332 723.332,745.832 729.5,769.5C 728.802,770.863 728.802,772.029 729.5,773C 726.11,777.058 723.11,781.391 720.5,786C 706.668,790.433 692.835,793.266 679,794.5C 676.215,793.799 673.548,793.466 671,793.5C 656.864,795.14 642.531,796.807 628,798.5C 627.667,798.167 627.333,797.833 627,797.5C 624.667,798.167 622.333,798.833 620,799.5C 618.667,798.167 617.333,798.167 616,799.5C 614.974,795.807 612.64,793.474 609,792.5C 606.812,793.447 604.478,793.447 602,792.5C 597.511,793.359 593.011,794.359 588.5,795.5C 583.989,794.359 579.489,793.359 575,792.5C 572.522,793.447 570.188,793.447 568,792.5C 564.36,793.474 562.026,795.807 561,799.5C 559.667,798.167 558.333,798.167 557,799.5C 554.667,798.833 552.333,798.167 550,797.5C 539.453,797.48 528.786,796.48 518,794.5C 517.228,794.645 516.561,794.978 516,795.5C 512.667,794.833 509.333,794.167 506,793.5C 503.452,793.466 500.785,793.799 498,794.5C 484.165,793.266 470.332,790.433 456.5,786C 453.89,781.391 450.89,777.058 447.5,773C 448.198,772.029 448.198,770.863 447.5,769.5C 457.17,736.614 465.836,704.114 473.5,672C 473.482,665.863 473.482,659.697 473.5,653.5C 472.787,651.224 472.287,648.891 472,646.5C 470.276,643.83 469.109,644.163 468.5,647.5C 469.626,653.782 469.793,660.115 469,666.5C 466.008,678.8 463.175,691.134 460.5,703.5C 433.704,687.528 409.538,669.528 388,649.5C 387.667,649.833 387.333,650.167 387,650.5C 380.243,643.911 373.743,637.245 367.5,630.5C 375.772,621.721 383.939,612.721 392,603.5C 393.841,599.817 396.174,596.484 399,593.5C 411.741,575.365 421.074,556.032 427,535.5C 428.738,531.759 431.238,528.592 434.5,526C 439.75,524.523 444.917,524.023 450,524.5C 465.158,528.571 480.492,531.905 496,534.5C 498.599,534.633 501.266,534.633 504,534.5C 510.582,545.316 517.915,555.65 526,565.5C 536.956,577.462 549.623,587.129 564,594.5C 564.333,594.167 564.667,593.833 565,593.5C 565.5,594.5 566,595.5 566.5,596.5C 563.567,597.93 561.067,599.93 559,602.5C 554.943,607.558 551.276,612.892 548,618.5C 539.33,634.54 532.663,651.207 528,668.5C 525.306,688.748 523.139,708.248 521.5,727C 521.31,731.194 521.977,735.194 523.5,739C 522.643,739.689 521.977,740.522 521.5,741.5C 523.353,741.92 525.187,742.253 527,742.5C 542.216,728.945 554.883,713.278 565,695.5C 576.363,675.225 582.53,653.392 583.5,630C 582.904,625.904 581.904,621.904 580.5,618C 580.833,617.667 581.167,617.333 581.5,617C 579.65,615.155 579.317,613.155 580.5,611C 585.833,610.333 591.167,610.333 596.5,611C 597.022,611.561 597.355,612.228 597.5,613C 593.77,623.414 592.936,634.247 595,645.5C 602.008,683.807 620.341,716.141 650,742.5C 651.25,741.427 652.584,741.427 654,742.5C 654.5,742.167 655,741.833 655.5,741.5C 653.29,739.791 653.123,737.791 655,735.5C 655.411,729.131 655.578,722.964 655.5,717C 654.833,715.333 654.167,713.667 653.5,712C 653.656,672.12 641.822,635.62 618,602.5C 615.933,599.93 613.433,597.93 610.5,596.5C 611,595.5 611.5,594.5 612,593.5C 612.333,593.833 612.667,594.167 613,594.5C 616.421,592.539 619.921,590.706 623.5,589C 644.238,574.697 660.738,556.53 673,534.5C 675.342,535.178 677.676,534.845 680,533.5C 695.768,532.001 711.434,529.001 727,524.5C 732.083,524.023 737.25,524.523 742.5,526C 745.762,528.592 748.262,531.759 750,535.5C 752.251,543.257 755.084,550.757 758.5,558C 758.167,558.333 757.833,558.667 757.5,559C 765.771,574.374 774.938,589.208 785,603.5C 793.061,612.721 801.228,621.721 809.5,630.5 Z"/></g>
<g><path style="opacity:1" fill="#ecf0f9" d="M 732.5,500.5 C 734.404,500.738 735.738,501.738 736.5,503.5C 732.975,506.431 728.975,508.598 724.5,510C 701.523,516.324 678.523,522.658 655.5,529C 640.172,534.211 626.506,542.044 614.5,552.5C 612.973,552.427 611.973,553.094 611.5,554.5C 607.036,557.789 602.202,560.456 597,562.5C 597.579,560.008 598.746,557.675 600.5,555.5C 613.053,545.019 626.053,535.852 639.5,528C 656.848,521.564 674.015,516.397 691,512.5C 701.602,509.3 712.436,506.8 723.5,505C 726.859,503.953 729.859,502.453 732.5,500.5 Z"/></g>
<g><path style="opacity:1" fill="#90332c" d="M 508.5,537.5 C 509.097,536.861 509.93,536.528 511,536.5C 515.79,537.268 520.123,538.935 524,541.5C 524.414,541.043 524.914,540.709 525.5,540.5C 541.838,549.805 557.838,558.972 573.5,568C 572.101,568.595 570.768,568.428 569.5,567.5C 566.993,574.2 565.659,581.2 565.5,588.5C 561.981,587.652 558.648,586.319 555.5,584.5C 549.024,579.858 542.691,575.025 536.5,570C 526.928,559.269 517.594,548.436 508.5,537.5 Z"/></g>
<g><path style="opacity:1" fill="#90332c" d="M 663.5,536.5 C 665.199,536.34 666.866,536.506 668.5,537C 659.709,548.127 650.542,558.96 641,569.5C 634.643,574.691 628.143,579.691 621.5,584.5C 618.352,586.319 615.019,587.652 611.5,588.5C 611.341,581.2 610.007,574.2 607.5,567.5C 606.232,568.428 604.899,568.595 603.5,568C 616.896,561.246 630.563,553.246 644.5,544C 650.551,541.658 656.885,539.158 663.5,536.5 Z"/></g>
<g><path style="opacity:1" fill="#456ca8" d="M 562.5,552.5 C 564.027,552.427 565.027,553.094 565.5,554.5C 563.973,554.573 562.973,553.906 562.5,552.5 Z"/></g>
<g><path style="opacity:1" fill="#456ca8" d="M 614.5,552.5 C 614.027,553.906 613.027,554.573 611.5,554.5C 611.973,553.094 612.973,552.427 614.5,552.5 Z"/></g>
<g><path style="opacity:1" fill="#90332c" d="M 570.5,575.5 C 572.392,576.851 574.558,577.518 577,577.5C 580.82,576.753 584.653,576.087 588.5,575.5C 592.347,576.087 596.18,576.753 600,577.5C 602.145,577.604 603.979,576.937 605.5,575.5C 606.017,579.392 606.684,583.559 607.5,588C 607.016,590.475 605.683,592.308 603.5,593.5C 604.167,594.167 604.833,594.833 605.5,595.5C 603.946,599.006 602.112,602.339 600,605.5C 596.323,602.383 592.489,602.05 588.5,604.5C 584.511,602.05 580.677,602.383 577,605.5C 574.888,602.339 573.054,599.006 571.5,595.5C 572.167,594.833 572.833,594.167 573.5,593.5C 571.317,592.308 569.984,590.475 569.5,588C 570.648,583.718 570.981,579.552 570.5,575.5 Z"/></g>
<g><path style="opacity:0.997" fill="#3a1517" d="M 747.5,544.5 C 749.028,544.517 749.528,545.184 749,546.5C 724.663,572.535 709.996,602.535 705,636.5C 703.128,634.562 702.295,632.229 702.5,629.5C 705.347,606.436 713.847,585.436 728,566.5C 734.737,559.27 741.237,551.937 747.5,544.5 Z"/></g>
<g><path style="opacity:0.993" fill="#3c1719" d="M 427.5,544.5 C 450.649,564.223 465.982,589.057 473.5,619C 473.167,619.333 472.833,619.667 472.5,620C 474.862,625.744 475.028,631.578 473,637.5C 471.249,635.51 470.249,633.177 470,630.5C 467.853,611.661 461.519,593.661 451,576.5C 443.392,565.597 435.559,554.93 427.5,544.5 Z"/></g>
<g><path style="opacity:1" fill="#90332c" d="M 566.5,600.5 C 568.379,600.393 568.712,600.893 567.5,602C 568.942,605.775 571.442,608.608 575,610.5C 576.275,612.717 577.275,615.051 578,617.5C 578.359,625.063 578.859,632.23 579.5,639C 572.726,677.035 555.226,709.535 527,736.5C 526.626,735.584 526.126,734.75 525.5,734C 525.767,729.066 525.767,724.4 525.5,720C 526.5,713.667 527.5,707.333 528.5,701C 527.994,684.139 531.327,667.472 538.5,651C 542.755,636.793 549.255,622.96 558,609.5C 560.859,606.384 563.692,603.384 566.5,600.5 Z"/></g>
<g><path style="opacity:1" fill="#90332c" d="M 608.5,601.5 C 608.56,600.957 608.893,600.624 609.5,600.5C 615.557,605.062 620.39,610.728 624,617.5C 636.225,639.818 644.392,663.652 648.5,689C 648.5,693 648.5,697 648.5,701C 649.5,707.333 650.5,713.667 651.5,720C 651.233,724.4 651.233,729.066 651.5,734C 650.874,734.75 650.374,735.584 650,736.5C 621.774,709.535 604.274,677.035 597.5,639C 597.925,634.851 597.925,630.518 597.5,626C 597.442,617.796 600.609,611.296 607,606.5C 607.707,604.919 608.54,603.419 609.5,602C 609.272,601.601 608.938,601.435 608.5,601.5 Z"/></g>
<g><path style="opacity:0.91" fill="#3d1416" d="M 605.5,614.5 C 609.818,618.35 613.318,623.016 616,628.5C 621.37,641.276 625.536,654.443 628.5,668C 628.333,669.167 628.167,670.333 628,671.5C 626.731,670.095 626.231,668.429 626.5,666.5C 625.325,666.719 624.325,666.386 623.5,665.5C 615.468,648.938 609.468,631.938 605.5,614.5 Z"/></g>
<g><path style="opacity:0.926" fill="#3f1416" d="M 569.5,614.5 C 570.995,614.415 571.995,615.081 572.5,616.5C 566.989,633.482 560.489,650.482 553,667.5C 549.529,671.884 547.196,676.884 546,682.5C 546.509,672.962 548.676,663.795 552.5,655C 555.292,640.504 560.958,627.004 569.5,614.5 Z"/></g>
<g><path style="opacity:1" fill="#f9fbfe" d="M 364.5,632.5 C 365.045,634.593 365.878,636.593 367,638.5C 391.741,666.264 420.241,689.097 452.5,707C 454.436,707.813 456.436,708.313 458.5,708.5C 456.591,710.696 455.925,713.03 456.5,715.5C 429.944,698.793 404.611,680.293 380.5,660C 373.633,652.634 366.633,645.467 359.5,638.5C 361.177,636.46 362.844,634.46 364.5,632.5 Z"/></g>
<g><path style="opacity:1" fill="#f9fbfe" d="M 812.5,632.5 C 814.156,634.46 815.823,636.46 817.5,638.5C 810.367,645.467 803.367,652.634 796.5,660C 772.389,680.293 747.056,698.793 720.5,715.5C 721.075,713.03 720.409,710.696 718.5,708.5C 720.564,708.313 722.564,707.813 724.5,707C 756.784,689.066 785.284,666.233 810,638.5C 811.122,636.593 811.955,634.593 812.5,632.5 Z"/></g>
<g><path style="opacity:1" fill="#f9fbfe" d="M 356.5,641.5 C 365.842,653.352 376.175,664.518 387.5,675C 404.623,688.797 422.289,701.797 440.5,714C 444.46,716.228 448.627,718.062 453,719.5C 453.902,719.257 454.735,718.923 455.5,718.5C 454.833,720.5 454.167,722.5 453.5,724.5C 442.545,721.252 433.212,715.419 425.5,707C 402.928,692.439 382.094,675.606 363,656.5C 360.5,653.333 358,650.167 355.5,647C 355.957,646.586 356.291,646.086 356.5,645.5C 355.757,644.818 355.091,644.151 354.5,643.5C 355.5,643.167 356.167,642.5 356.5,641.5 Z"/></g>
<g><path style="opacity:1" fill="#f9fbfe" d="M 820.5,641.5 C 820.833,642.5 821.5,643.167 822.5,643.5C 821.909,644.151 821.243,644.818 820.5,645.5C 821.46,646.812 821.294,648.146 820,649.5C 803.278,668.291 784.444,684.625 763.5,698.5C 760.382,702.561 756.382,705.394 751.5,707C 743.788,715.419 734.455,721.252 723.5,724.5C 722.833,722.5 722.167,720.5 721.5,718.5C 722.265,718.923 723.098,719.257 724,719.5C 728.373,718.062 732.54,716.228 736.5,714C 754.711,701.797 772.377,688.797 789.5,675C 800.853,664.492 811.186,653.325 820.5,641.5 Z"/></g>
<g><path style="opacity:0.972" fill="#371215" d="M 716.5,703.5 C 716.077,705.781 716.744,707.448 718.5,708.5C 720.409,710.696 721.075,713.03 720.5,715.5C 721.11,716.391 721.443,717.391 721.5,718.5C 722.167,720.5 722.833,722.5 723.5,724.5C 723.441,727.53 723.441,730.53 723.5,733.5C 730.218,732.705 736.551,730.705 742.5,727.5C 744.511,728.742 744.511,730.409 742.5,732.5C 741.942,733.79 740.942,734.623 739.5,735C 735.58,736.313 731.58,737.313 727.5,738C 730.132,748.586 733.132,759.253 736.5,770C 736.891,772.775 736.391,775.608 735,778.5C 732.565,781.314 730.731,783.981 729.5,786.5C 737.899,794.85 741.066,804.517 739,815.5C 737.143,817.518 734.976,819.185 732.5,820.5C 743.402,854.701 755.069,888.867 767.5,923C 767.167,923.333 766.833,923.667 766.5,924C 780.655,962.142 792.322,1000.14 801.5,1038C 803.71,1044.77 805.044,1051.43 805.5,1058C 801.884,1063.62 797.551,1068.62 792.5,1073C 777.407,1082.62 761.241,1088.79 744,1091.5C 740.634,1092.37 737.3,1093.37 734,1094.5C 732.984,1093.37 732.317,1093.7 732,1095.5C 729.974,1094.98 727.974,1094.65 726,1094.5C 724.295,1095.76 722.628,1096.1 721,1095.5C 715.01,1096.57 709.01,1097.57 703,1098.5C 700.347,1098.32 697.68,1097.98 695,1097.5C 694.667,1098.17 694.333,1098.83 694,1099.5C 687.35,1098.62 680.85,1098.29 674.5,1098.5C 668.277,1099.48 662.277,1100.15 656.5,1100.5C 642.833,1101.83 630,1101.83 618,1100.5C 617.333,1099.83 616.667,1099.17 616,1098.5C 614.026,1098.65 612.026,1098.98 610,1099.5C 608.806,1098.57 607.473,1097.9 606,1097.5C 603.054,1098.4 600.387,1099.07 598,1099.5C 593.545,1092.81 590.379,1085.48 588.5,1077.5C 586.621,1085.48 583.455,1092.81 579,1099.5C 576.613,1099.07 573.946,1098.4 571,1097.5C 569.527,1097.9 568.194,1098.57 567,1099.5C 563.399,1098.62 559.899,1098.96 556.5,1100.5C 554.577,1100.37 552.744,1100.04 551,1099.5C 547.667,1100.17 544.333,1100.83 541,1101.5C 534.098,1100.85 527.265,1100.52 520.5,1100.5C 514.723,1100.15 508.723,1099.48 502.5,1098.5C 496.15,1098.29 489.65,1098.62 483,1099.5C 482.667,1098.83 482.333,1098.17 482,1097.5C 479.32,1097.98 476.653,1098.32 474,1098.5C 464.029,1096.99 454.529,1095.66 445.5,1094.5C 431.01,1092.33 416.343,1088.5 401.5,1083C 395.047,1079.38 388.713,1075.55 382.5,1071.5C 378.266,1067.44 374.599,1062.94 371.5,1058C 372.26,1046.68 374.593,1036.02 378.5,1026C 396.91,961.275 417.91,897.108 441.5,833.5C 441.013,832.554 440.68,831.554 440.5,830.5C 441.83,827.172 443.164,823.838 444.5,820.5C 442.024,819.185 439.857,817.518 438,815.5C 435.934,804.517 439.101,794.85 447.5,786.5C 446.269,783.981 444.435,781.314 442,778.5C 440.609,775.608 440.109,772.775 440.5,770C 443.868,759.253 446.868,748.586 449.5,738C 445.42,737.313 441.42,736.313 437.5,735C 436.058,734.623 435.058,733.79 434.5,732.5C 433.859,731.518 433.193,730.518 432.5,729.5C 433.243,728.818 433.909,728.151 434.5,727.5C 440.449,730.705 446.782,732.705 453.5,733.5C 453.559,730.53 453.559,727.53 453.5,724.5C 454.167,722.5 454.833,720.5 455.5,718.5C 455.557,717.391 455.89,716.391 456.5,715.5C 455.925,713.03 456.591,710.696 458.5,708.5C 460.256,707.448 460.923,705.781 460.5,703.5C 463.175,691.134 466.008,678.8 469,666.5C 469.793,660.115 469.626,653.782 468.5,647.5C 469.109,644.163 470.276,643.83 472,646.5C 472.287,648.891 472.787,651.224 473.5,653.5C 473.482,659.697 473.482,665.863 473.5,672C 465.836,704.114 457.17,736.614 447.5,769.5C 448.198,770.863 448.198,772.029 447.5,773C 450.89,777.058 453.89,781.391 456.5,786C 470.332,790.433 484.165,793.266 498,794.5C 500.785,793.799 503.452,793.466 506,793.5C 509.333,794.167 512.667,794.833 516,795.5C 516.561,794.978 517.228,794.645 518,794.5C 528.786,796.48 539.453,797.48 550,797.5C 552.333,798.167 554.667,798.833 557,799.5C 558.333,798.167 559.667,798.167 561,799.5C 562.026,795.807 564.36,793.474 568,792.5C 570.188,793.447 572.522,793.447 575,792.5C 579.489,793.359 583.989,794.359 588.5,795.5C 593.011,794.359 597.511,793.359 602,792.5C 604.478,793.447 606.812,793.447 609,792.5C 612.64,793.474 614.974,795.807 616,799.5C 617.333,798.167 618.667,798.167 620,799.5C 622.333,798.833 624.667,798.167 627,797.5C 627.333,797.833 627.667,798.167 628,798.5C 642.531,796.807 656.864,795.14 671,793.5C 673.548,793.466 676.215,793.799 679,794.5C 692.835,793.266 706.668,790.433 720.5,786C 723.11,781.391 726.11,777.058 729.5,773C 728.802,772.029 728.802,770.863 729.5,769.5C 723.332,745.832 716.665,722.332 709.5,699C 709.833,698.667 710.167,698.333 710.5,698C 709.12,696.676 708.786,695.343 709.5,694C 703.849,678.625 702.349,662.792 705,646.5C 706.724,643.83 707.891,644.163 708.5,647.5C 707.221,656.162 707.387,664.828 709,673.5C 712.074,683.374 714.574,693.374 716.5,703.5 Z"/></g>
<g><path style="opacity:1" fill="#4a6faa" d="M 812.5,632.5 C 811.955,634.593 811.122,636.593 810,638.5C 785.284,666.233 756.784,689.066 724.5,707C 722.564,707.813 720.564,708.313 718.5,708.5C 716.744,707.448 716.077,705.781 716.5,703.5C 734.12,693.215 750.286,681.882 765,669.5C 765.333,669.833 765.667,670.167 766,670.5C 773.381,662.395 781.381,655.728 790,650.5C 796.73,643.938 803.23,637.271 809.5,630.5C 810.117,630.389 810.617,630.056 811,629.5C 813.158,630.05 813.658,631.05 812.5,632.5 Z"/></g>
<g><path style="opacity:1" fill="#476da8" d="M 354.5,643.5 C 355.091,644.151 355.757,644.818 356.5,645.5C 356.291,646.086 355.957,646.586 355.5,647C 358,650.167 360.5,653.333 363,656.5C 382.094,675.606 402.928,692.439 425.5,707C 433.212,715.419 442.545,721.252 453.5,724.5C 453.559,727.53 453.559,730.53 453.5,733.5C 446.782,732.705 440.449,730.705 434.5,727.5C 417.892,714.191 400.892,701.357 383.5,689C 371.608,678.477 360.775,666.977 351,654.5C 350.005,651.874 349.672,649.207 350,646.5C 350.918,644.624 352.418,643.624 354.5,643.5 Z"/></g>
<g><path style="opacity:1" fill="#476ea9" d="M 359.5,638.5 C 366.633,645.467 373.633,652.634 380.5,660C 404.611,680.293 429.944,698.793 456.5,715.5C 455.89,716.391 455.557,717.391 455.5,718.5C 454.735,718.923 453.902,719.257 453,719.5C 448.627,718.062 444.46,716.228 440.5,714C 422.289,701.797 404.623,688.797 387.5,675C 376.175,664.518 365.842,653.352 356.5,641.5C 357.167,640.167 358.167,639.167 359.5,638.5 Z"/></g>
<g><path style="opacity:1" fill="#476ea9" d="M 367.5,630.5 C 373.743,637.245 380.243,643.911 387,650.5C 387.333,650.167 387.667,649.833 388,649.5C 409.538,669.528 433.704,687.528 460.5,703.5C 460.923,705.781 460.256,707.448 458.5,708.5C 456.436,708.313 454.436,707.813 452.5,707C 420.241,689.097 391.741,666.264 367,638.5C 365.878,636.593 365.045,634.593 364.5,632.5C 364.389,631.883 364.056,631.383 363.5,631C 364.878,629.666 366.211,629.499 367.5,630.5 Z"/></g>
<g><path style="opacity:1" fill="#4a70aa" d="M 817.5,638.5 C 818.833,639.167 819.833,640.167 820.5,641.5C 811.186,653.325 800.853,664.492 789.5,675C 772.377,688.797 754.711,701.797 736.5,714C 732.54,716.228 728.373,718.062 724,719.5C 723.098,719.257 722.265,718.923 721.5,718.5C 721.443,717.391 721.11,716.391 720.5,715.5C 747.056,698.793 772.389,680.293 796.5,660C 803.367,652.634 810.367,645.467 817.5,638.5 Z"/></g>
<g><path style="opacity:1" fill="#496fa9" d="M 822.5,643.5 C 824.582,643.624 826.082,644.624 827,646.5C 827.328,649.207 826.995,651.874 826,654.5C 822.715,659.454 819.048,664.12 815,668.5C 808.189,675.643 801.022,682.476 793.5,689C 776.108,701.357 759.108,714.191 742.5,727.5C 736.551,730.705 730.218,732.705 723.5,733.5C 723.441,730.53 723.441,727.53 723.5,724.5C 734.455,721.252 743.788,715.419 751.5,707C 756.382,705.394 760.382,702.561 763.5,698.5C 784.444,684.625 803.278,668.291 820,649.5C 821.294,648.146 821.46,646.812 820.5,645.5C 821.243,644.818 821.909,644.151 822.5,643.5 Z"/></g>
<g><path style="opacity:1" fill="#4d3d0c" d="M 449.5,789.5 C 450.901,789.971 452.234,790.638 453.5,791.5C 449.75,799.162 446.917,807.162 445,815.5C 444.075,814.953 443.242,814.287 442.5,813.5C 441.965,805.02 444.299,797.02 449.5,789.5 Z"/></g>
<g><path style="opacity:1" fill="#4e3d0c" d="M 726.5,789.5 C 727.458,789.953 728.292,790.619 729,791.5C 733.125,798.662 734.959,805.996 734.5,813.5C 733.758,814.287 732.925,814.953 732,815.5C 730.083,807.162 727.25,799.162 723.5,791.5C 724.602,790.824 725.602,790.158 726.5,789.5 Z"/></g>
<g><path style="opacity:1" fill="#ad881c" d="M 457.5,791.5 C 461.57,792.356 465.57,793.523 469.5,795C 465.016,802.578 463.35,810.411 464.5,818.5C 463.667,818.833 462.833,819.167 462,819.5C 458.163,818.777 454.33,818.111 450.5,817.5C 450.966,808.301 453.299,799.635 457.5,791.5 Z"/></g>
<g><path style="opacity:1" fill="#ad881c" d="M 716.5,791.5 C 717.822,791.33 718.989,791.663 720,792.5C 723.888,800.387 726.055,808.721 726.5,817.5C 722.67,818.111 718.837,818.777 715,819.5C 714.167,819.167 713.333,818.833 712.5,818.5C 713.65,810.411 711.984,802.578 707.5,795C 710.718,794.1 713.718,792.933 716.5,791.5 Z"/></g>
<g><path style="opacity:1" fill="#4d3c0c" d="M 472.5,795.5 C 473.87,795.856 474.87,796.69 475.5,798C 473.291,803.338 471.624,808.838 470.5,814.5C 471.093,816.382 471.76,818.215 472.5,820C 471.5,820.667 470.5,820.667 469.5,820C 469.833,819.667 470.167,819.333 470.5,819C 469.407,815.848 468.741,812.848 468.5,810C 470.399,805.346 471.732,800.513 472.5,795.5 Z"/></g>
<g><path style="opacity:1" fill="#4d3d0c" d="M 703.5,795.5 C 705.224,800.237 706.891,805.07 708.5,810C 708.331,813.116 707.498,816.283 706,819.5C 706.188,812.111 704.688,804.944 701.5,798C 702.056,796.989 702.722,796.156 703.5,795.5 Z"/></g>
<g><path style="opacity:1" fill="#4d3d0c" d="M 569.5,796.5 C 576.087,797.139 582.421,798.806 588.5,801.5C 595.514,797.907 602.847,796.574 610.5,797.5C 610.446,804.066 610.779,810.733 611.5,817.5C 610.902,818.795 610.402,820.128 610,821.5C 606.706,822.742 603.539,824.242 600.5,826C 597.628,826.315 594.795,826.815 592,827.5C 589.667,826.167 587.333,826.167 585,827.5C 582.923,826.983 580.923,826.316 579,825.5C 578.586,825.957 578.086,826.291 577.5,826.5C 574.209,824.371 570.709,822.704 567,821.5C 566.598,820.128 566.098,818.795 565.5,817.5C 566.221,810.733 566.554,804.066 566.5,797.5C 567.791,797.737 568.791,797.404 569.5,796.5 Z"/></g>
<g><path style="opacity:1" fill="#ad881c" d="M 479.5,797.5 C 487.135,799.123 494.635,800.123 502,800.5C 503.628,799.903 505.295,800.237 507,801.5C 510.898,801.604 514.565,801.271 518,800.5C 519.667,801.167 521.333,801.833 523,802.5C 523.333,802.167 523.667,801.833 524,801.5C 529.602,802.66 535.269,803.66 541,804.5C 545.741,804.712 550.574,804.712 555.5,804.5C 557.547,806.015 559.881,806.849 562.5,807C 560.826,812.202 559.992,817.369 560,822.5C 540.903,822.173 521.237,821.173 501,819.5C 493.555,820.278 485.555,820.612 477,820.5C 476.308,819.975 475.808,819.308 475.5,818.5C 476.114,811.364 477.447,804.364 479.5,797.5 Z"/></g>
<g><path style="opacity:1" fill="#ad881c" d="M 695.5,797.5 C 696.497,797.47 697.164,797.97 697.5,799C 699.65,805.347 700.983,811.847 701.5,818.5C 701.192,819.308 700.692,819.975 700,820.5C 691.445,820.612 683.445,820.278 676,819.5C 655.763,821.173 636.097,822.173 617,822.5C 617.008,817.369 616.174,812.202 614.5,807C 617.119,806.849 619.453,806.015 621.5,804.5C 624.514,804.985 627.514,805.319 630.5,805.5C 632.302,803.966 634.135,803.632 636,804.5C 643.771,803.528 651.437,802.195 659,800.5C 662.435,801.271 666.102,801.604 670,801.5C 671.333,800.833 672.667,800.167 674,799.5C 678,799.5 682,799.5 686,799.5C 689.27,798.868 692.437,798.201 695.5,797.5 Z"/></g>
<g><path style="opacity:1" fill="#456ba7" d="M 793.5,1032.5 C 792.127,1032.34 790.793,1032.51 789.5,1033C 782.883,1036.33 776.216,1039.66 769.5,1043C 712.394,1060.92 655.061,1070.08 597.5,1070.5C 596.702,1070.96 596.369,1071.62 596.5,1072.5C 594.627,1063.84 593.293,1055.01 592.5,1046C 593.349,1042.89 593.683,1039.89 593.5,1037C 592.833,1034.67 592.167,1032.33 591.5,1030C 591.349,1007.53 591.682,985.53 592.5,964C 591.697,959.586 591.197,955.086 591,950.5C 589.333,949.167 587.667,949.167 586,950.5C 585.803,955.086 585.303,959.586 584.5,964C 585.318,985.53 585.651,1007.53 585.5,1030C 584.833,1032.33 584.167,1034.67 583.5,1037C 583.317,1039.89 583.651,1042.89 584.5,1046C 583.707,1055.01 582.373,1063.84 580.5,1072.5C 579.714,1070.26 578.048,1069.26 575.5,1069.5C 569.086,1070.17 562.253,1070.51 555,1070.5C 551.045,1068.98 547.378,1068.64 544,1069.5C 498.262,1065.66 452.762,1056.83 407.5,1043C 399.653,1039 391.653,1035.5 383.5,1032.5C 389.708,1005.59 397.375,979.421 406.5,954C 418.875,911.348 432.875,868.181 448.5,824.5C 447.674,823.549 447.508,822.549 448,821.5C 450.718,822.347 453.384,823.347 456,824.5C 458.599,824.633 461.266,824.633 464,824.5C 465.667,825.167 467.333,825.833 469,826.5C 480.718,826.063 492.385,825.729 504,825.5C 506.124,826.227 508.291,826.894 510.5,827.5C 511.086,827.291 511.586,826.957 512,826.5C 517,827.167 522,827.833 527,828.5C 539.123,827.414 551.623,827.414 564.5,828.5C 565.287,829.242 565.953,830.075 566.5,831C 569.899,832.39 573.233,832.89 576.5,832.5C 577.192,833.025 577.692,833.692 578,834.5C 580.178,834.064 582.678,833.564 585.5,833C 587.5,829.667 589.5,829.667 591.5,833C 594.322,833.564 596.822,834.064 599,834.5C 599.308,833.692 599.808,833.025 600.5,832.5C 602.703,832.587 604.87,832.587 607,832.5C 609.179,831.604 611.012,830.271 612.5,828.5C 625.221,827.724 637.721,827.724 650,828.5C 655,827.833 660,827.167 665,826.5C 665.414,826.957 665.914,827.291 666.5,827.5C 668.709,826.894 670.876,826.227 673,825.5C 684.615,825.729 696.282,826.063 708,826.5C 709.667,825.833 711.333,825.167 713,824.5C 715.734,824.633 718.401,824.633 721,824.5C 723.616,823.347 726.282,822.347 729,821.5C 732.156,835.57 736.656,849.403 742.5,863C 748.35,882.559 754.684,902.226 761.5,922C 760.892,924.184 761.559,926.184 763.5,928C 762.542,929.147 762.875,930.147 764.5,931C 764.167,931.333 763.833,931.667 763.5,932C 766.044,939.091 768.711,946.091 771.5,953C 771.043,953.414 770.709,953.914 770.5,954.5C 772.181,956.992 772.848,959.492 772.5,962C 774.497,966.297 776.497,970.63 778.5,975C 778.167,975.333 777.833,975.667 777.5,976C 784.161,994.48 789.494,1013.31 793.5,1032.5 Z"/></g>
<g><path style="opacity:1" fill="#39161b" d="M 598.5,841.5 C 599.496,841.414 600.329,841.748 601,842.5C 601.309,843.766 601.809,844.933 602.5,846C 602.167,847 601.833,848 601.5,849C 603.781,864.212 603.948,879.712 602,895.5C 600.639,904.942 595.306,910.275 586,911.5C 584.56,910.852 583.06,910.519 581.5,910.5C 581.33,909.178 581.663,908.011 582.5,907C 585.991,905.423 589.491,903.923 593,902.5C 597.565,893.229 599.732,883.395 599.5,873C 598.899,862.725 598.565,852.225 598.5,841.5 Z"/></g>
<g><path style="opacity:1" fill="#391519" d="M 694.5,857.5 C 696.844,858.347 698.344,860.014 699,862.5C 701.837,872.032 704.67,881.532 707.5,891C 708.5,891.5 709.5,892 710.5,892.5C 717.179,890.663 723.679,888.329 730,885.5C 732.24,886.036 734.073,887.203 735.5,889C 734.027,889.71 733.36,890.876 733.5,892.5C 727.6,893.73 721.6,895.73 715.5,898.5C 713.665,897.808 711.832,898.142 710,899.5C 704.604,897.163 701.77,893.33 701.5,888C 700.376,887.161 699.709,885.994 699.5,884.5C 697.665,875.501 695.998,866.501 694.5,857.5 Z"/></g>
<g><path style="opacity:1" fill="#3a191f" d="M 467.5,880.5 C 468.837,881.315 469.837,882.482 470.5,884C 468.607,888.347 467.107,892.847 466,897.5C 464.542,899.96 462.709,902.127 460.5,904C 450.09,909.068 439.756,908.568 429.5,902.5C 429.887,901.28 430.72,900.613 432,900.5C 440.545,903.831 449.045,903.664 457.5,900C 460.873,895.07 463.04,889.57 464,883.5C 465.145,882.364 466.312,881.364 467.5,880.5 Z"/></g>
<g><path style="opacity:1" fill="#456ca8" d="M 381.5,1035.5 C 382.384,1038.22 384.217,1040.22 387,1041.5C 415.547,1054.83 445.047,1063.17 475.5,1066.5C 484.944,1068.9 494.444,1070.9 504,1072.5C 506.466,1071.89 508.966,1072.22 511.5,1073.5C 512.086,1073.29 512.586,1072.96 513,1072.5C 515.333,1073.17 517.667,1073.83 520,1074.5C 526.237,1073.73 532.904,1073.4 540,1073.5C 542,1074.17 544,1074.83 546,1075.5C 552.877,1075.38 559.711,1075.38 566.5,1075.5C 571.329,1074.16 575.995,1073.16 580.5,1072.5C 580.874,1076.65 579.874,1080.31 577.5,1083.5C 577.38,1082.41 576.713,1081.75 575.5,1081.5C 568.219,1082.8 561.719,1083.47 556,1083.5C 551,1082.83 546,1082.17 541,1081.5C 537.939,1082.46 534.606,1082.13 531,1080.5C 528.965,1081.37 526.632,1081.71 524,1081.5C 522,1080.83 520,1080.17 518,1079.5C 472.352,1079.39 428.186,1068.89 385.5,1048C 383.16,1047.25 381.16,1047.75 379.5,1049.5C 380.807,1044.93 381.474,1040.27 381.5,1035.5 Z"/></g>
<g><path style="opacity:1" fill="#456ca8" d="M 795.5,1035.5 C 795.526,1040.27 796.193,1044.93 797.5,1049.5C 795.84,1047.75 793.84,1047.25 791.5,1048C 748.814,1068.89 704.648,1079.39 659,1079.5C 657,1080.17 655,1080.83 653,1081.5C 650.368,1081.71 648.035,1081.37 646,1080.5C 642.394,1082.13 639.061,1082.46 636,1081.5C 631,1082.17 626,1082.83 621,1083.5C 615.281,1083.47 608.781,1082.8 601.5,1081.5C 600.287,1081.75 599.62,1082.41 599.5,1083.5C 597.126,1080.31 596.126,1076.65 596.5,1072.5C 601.005,1073.16 605.671,1074.16 610.5,1075.5C 617.289,1075.38 624.123,1075.38 631,1075.5C 633,1074.83 635,1074.17 637,1073.5C 644.096,1073.4 650.763,1073.73 657,1074.5C 659.333,1073.83 661.667,1073.17 664,1072.5C 666.466,1073.11 668.966,1072.78 671.5,1071.5C 672.086,1071.71 672.586,1072.04 673,1072.5C 694.765,1068.88 716.098,1064.55 737,1059.5C 755.868,1055.55 773.535,1049.55 790,1041.5C 792.783,1040.22 794.616,1038.22 795.5,1035.5 Z"/></g>
<g><path style="opacity:1" fill="#f4f7fd" d="M 383.5,1032.5 C 391.653,1035.5 399.653,1039 407.5,1043C 452.762,1056.83 498.262,1065.66 544,1069.5C 547.378,1068.64 551.045,1068.98 555,1070.5C 562.253,1070.51 569.086,1070.17 575.5,1069.5C 578.048,1069.26 579.714,1070.26 580.5,1072.5C 575.995,1073.16 571.329,1074.16 566.5,1075.5C 559.711,1075.38 552.877,1075.38 546,1075.5C 544,1074.83 542,1074.17 540,1073.5C 532.904,1073.4 526.237,1073.73 520,1074.5C 517.667,1073.83 515.333,1073.17 513,1072.5C 512.586,1072.96 512.086,1073.29 511.5,1073.5C 508.966,1072.22 506.466,1071.89 504,1072.5C 494.444,1070.9 484.944,1068.9 475.5,1066.5C 445.047,1063.17 415.547,1054.83 387,1041.5C 384.217,1040.22 382.384,1038.22 381.5,1035.5C 381.427,1033.97 382.094,1032.97 383.5,1032.5 Z"/></g>
<g><path style="opacity:1" fill="#456ca7" d="M 379.5,1050.5 C 380.954,1051.52 381.287,1052.69 380.5,1054C 385.019,1058.66 390.186,1061.5 396,1062.5C 399,1064.17 402,1065.83 405,1067.5C 405.333,1067.17 405.667,1066.83 406,1066.5C 410,1068.5 414,1070.5 418,1072.5C 418.414,1072.04 418.914,1071.71 419.5,1071.5C 424.604,1073.83 429.437,1075.83 434,1077.5C 436.537,1077.41 439.037,1077.41 441.5,1077.5C 446.356,1079.01 451.189,1080.68 456,1082.5C 457.907,1082.58 459.907,1082.25 462,1081.5C 462.5,1082 463,1082.5 463.5,1083C 467.826,1083.23 471.993,1084.06 476,1085.5C 482.278,1085.77 488.611,1085.77 495,1085.5C 496.57,1086.36 498.237,1087.02 500,1087.5C 512.496,1087.4 524.829,1087.4 537,1087.5C 540.667,1088.17 544.333,1088.83 548,1089.5C 553.2,1088.92 558.7,1088.25 564.5,1087.5C 568.635,1088.14 572.635,1087.47 576.5,1085.5C 576.5,1086.83 576.5,1088.17 576.5,1089.5C 569.873,1089.9 563.373,1090.9 557,1092.5C 543.916,1092.47 530.916,1092.47 518,1092.5C 513.667,1091.83 509.333,1091.17 505,1090.5C 497.152,1091.3 489.485,1091.63 482,1091.5C 476.665,1089.95 471.332,1088.95 466,1088.5C 463.224,1089.65 460.557,1089.31 458,1087.5C 455.58,1088.49 453.247,1088.15 451,1086.5C 447.667,1086.5 444.333,1086.5 441,1086.5C 434.286,1085.2 427.12,1083.36 419.5,1081C 403.935,1077.47 390.769,1069.97 380,1058.5C 379.503,1055.85 379.336,1053.19 379.5,1050.5 Z"/></g>
<g><path style="opacity:1" fill="#456ba7" d="M 797.5,1050.5 C 797.968,1054.13 797.301,1057.46 795.5,1060.5C 784.749,1070.71 772.082,1077.55 757.5,1081C 749.88,1083.36 742.714,1085.2 736,1086.5C 732.667,1086.5 729.333,1086.5 726,1086.5C 723.753,1088.15 721.42,1088.49 719,1087.5C 716.443,1089.31 713.776,1089.65 711,1088.5C 705.668,1088.95 700.335,1089.95 695,1091.5C 687.515,1091.63 679.848,1091.3 672,1090.5C 667.667,1091.17 663.333,1091.83 659,1092.5C 646.084,1092.47 633.084,1092.47 620,1092.5C 613.627,1090.9 607.127,1089.9 600.5,1089.5C 600.5,1088.17 600.5,1086.83 600.5,1085.5C 604.323,1087.6 608.323,1088.27 612.5,1087.5C 618.3,1088.25 623.8,1088.92 629,1089.5C 632.667,1088.83 636.333,1088.17 640,1087.5C 652.171,1087.4 664.504,1087.4 677,1087.5C 678.763,1087.02 680.43,1086.36 682,1085.5C 688.389,1085.77 694.722,1085.77 701,1085.5C 705.007,1084.06 709.174,1083.23 713.5,1083C 714,1082.5 714.5,1082 715,1081.5C 717.093,1082.25 719.093,1082.58 721,1082.5C 725.811,1080.68 730.644,1079.01 735.5,1077.5C 737.963,1077.41 740.463,1077.41 743,1077.5C 747.563,1075.83 752.396,1073.83 757.5,1071.5C 758.086,1071.71 758.586,1072.04 759,1072.5C 763,1070.5 767,1068.5 771,1066.5C 771.333,1066.83 771.667,1067.17 772,1067.5C 775,1065.83 778,1064.17 781,1062.5C 786.814,1061.5 791.981,1058.66 796.5,1054C 795.713,1052.69 796.046,1051.52 797.5,1050.5 Z"/></g>
<g><path style="opacity:1" fill="#f4f7fd" d="M 577.5,1083.5 C 577.672,1084.49 577.338,1085.16 576.5,1085.5C 572.635,1087.47 568.635,1088.14 564.5,1087.5C 558.7,1088.25 553.2,1088.92 548,1089.5C 544.333,1088.83 540.667,1088.17 537,1087.5C 524.829,1087.4 512.496,1087.4 500,1087.5C 498.237,1087.02 496.57,1086.36 495,1085.5C 488.611,1085.77 482.278,1085.77 476,1085.5C 471.993,1084.06 467.826,1083.23 463.5,1083C 463,1082.5 462.5,1082 462,1081.5C 459.907,1082.25 457.907,1082.58 456,1082.5C 451.189,1080.68 446.356,1079.01 441.5,1077.5C 439.037,1077.41 436.537,1077.41 434,1077.5C 429.437,1075.83 424.604,1073.83 419.5,1071.5C 418.914,1071.71 418.414,1072.04 418,1072.5C 414,1070.5 410,1068.5 406,1066.5C 405.667,1066.83 405.333,1067.17 405,1067.5C 402,1065.83 399,1064.17 396,1062.5C 390.186,1061.5 385.019,1058.66 380.5,1054C 381.287,1052.69 380.954,1051.52 379.5,1050.5C 379.5,1050.17 379.5,1049.83 379.5,1049.5C 381.16,1047.75 383.16,1047.25 385.5,1048C 428.186,1068.89 472.352,1079.39 518,1079.5C 520,1080.17 522,1080.83 524,1081.5C 526.632,1081.71 528.965,1081.37 531,1080.5C 534.606,1082.13 537.939,1082.46 541,1081.5C 546,1082.17 551,1082.83 556,1083.5C 561.719,1083.47 568.219,1082.8 575.5,1081.5C 576.713,1081.75 577.38,1082.41 577.5,1083.5 Z"/></g>
<g><path style="opacity:1" fill="#f2f6fc" d="M 793.5,1032.5 C 794.906,1032.97 795.573,1033.97 795.5,1035.5C 794.616,1038.22 792.783,1040.22 790,1041.5C 773.535,1049.55 755.868,1055.55 737,1059.5C 716.098,1064.55 694.765,1068.88 673,1072.5C 672.586,1072.04 672.086,1071.71 671.5,1071.5C 668.966,1072.78 666.466,1073.11 664,1072.5C 661.667,1073.17 659.333,1073.83 657,1074.5C 650.763,1073.73 644.096,1073.4 637,1073.5C 635,1074.17 633,1074.83 631,1075.5C 624.123,1075.38 617.289,1075.38 610.5,1075.5C 605.671,1074.16 601.005,1073.16 596.5,1072.5C 596.369,1071.62 596.702,1070.96 597.5,1070.5C 655.061,1070.08 712.394,1060.92 769.5,1043C 776.216,1039.66 782.883,1036.33 789.5,1033C 790.793,1032.51 792.127,1032.34 793.5,1032.5 Z"/></g>
<g><path style="opacity:1" fill="#f5f8fd" d="M 797.5,1049.5 C 797.5,1049.83 797.5,1050.17 797.5,1050.5C 796.046,1051.52 795.713,1052.69 796.5,1054C 791.981,1058.66 786.814,1061.5 781,1062.5C 778,1064.17 775,1065.83 772,1067.5C 771.667,1067.17 771.333,1066.83 771,1066.5C 767,1068.5 763,1070.5 759,1072.5C 758.586,1072.04 758.086,1071.71 757.5,1071.5C 752.396,1073.83 747.563,1075.83 743,1077.5C 740.463,1077.41 737.963,1077.41 735.5,1077.5C 730.644,1079.01 725.811,1080.68 721,1082.5C 719.093,1082.58 717.093,1082.25 715,1081.5C 714.5,1082 714,1082.5 713.5,1083C 709.174,1083.23 705.007,1084.06 701,1085.5C 694.722,1085.77 688.389,1085.77 682,1085.5C 680.43,1086.36 678.763,1087.02 677,1087.5C 664.504,1087.4 652.171,1087.4 640,1087.5C 636.333,1088.17 632.667,1088.83 629,1089.5C 623.8,1088.92 618.3,1088.25 612.5,1087.5C 608.323,1088.27 604.323,1087.6 600.5,1085.5C 599.662,1085.16 599.328,1084.49 599.5,1083.5C 599.62,1082.41 600.287,1081.75 601.5,1081.5C 608.781,1082.8 615.281,1083.47 621,1083.5C 626,1082.83 631,1082.17 636,1081.5C 639.061,1082.46 642.394,1082.13 646,1080.5C 648.035,1081.37 650.368,1081.71 653,1081.5C 655,1080.83 657,1080.17 659,1079.5C 704.648,1079.39 748.814,1068.89 791.5,1048C 793.84,1047.25 795.84,1047.75 797.5,1049.5 Z"/></g>
<g><path style="opacity:0.71" fill="#350f13" d="M 445.5,1094.5 C 444.833,1095.17 444.833,1095.17 445.5,1094.5 Z"/></g>
<g><path style="opacity:0.612" fill="#351013" d="M 520.5,1100.5 C 519.833,1101.17 519.833,1101.17 520.5,1100.5 Z"/></g>
<g><path style="opacity:0.51" fill="#361213" d="M 656.5,1100.5 C 657.833,1101.17 657.833,1101.17 656.5,1100.5 Z"/></g>
<g><path style="opacity:0.97" fill="#391316" d="M 432.5,1361.5 C 437.217,1360.79 440.884,1362.29 443.5,1366C 453.362,1370.25 463.529,1371.42 474,1369.5C 480.456,1370.28 486.956,1371.11 493.5,1372C 494.416,1372.37 495.25,1372.87 496,1373.5C 502.667,1372.83 509.333,1372.17 516,1371.5C 519.578,1372.26 523.245,1372.59 527,1372.5C 531.106,1371.58 535.273,1370.74 539.5,1370C 543.542,1363.87 547.375,1364.04 551,1370.5C 552.772,1378.32 550.272,1384.15 543.5,1388C 543.797,1393.44 543.797,1398.78 543.5,1404C 542.5,1407.67 541.5,1411.33 540.5,1415C 541.022,1415.56 541.355,1416.23 541.5,1417C 540.538,1422.7 539.538,1428.37 538.5,1434C 539.14,1456.18 539.474,1478.51 539.5,1501C 537.991,1502.67 537.324,1504.34 537.5,1506C 539.563,1508.51 541.063,1511.34 542,1514.5C 543.762,1521.72 545.596,1528.88 547.5,1536C 547.384,1537.27 547.051,1538.6 546.5,1540C 547.167,1544.33 547.833,1548.67 548.5,1553C 548.054,1558.45 548.054,1563.79 548.5,1569C 547.73,1571.57 546.73,1574.07 545.5,1576.5C 545.709,1577.09 546.043,1577.59 546.5,1578C 544.133,1582.72 544.133,1587.06 546.5,1591C 542.103,1594.32 541.27,1598.48 544,1603.5C 546,1607.5 549,1610.5 553,1612.5C 556.086,1616.63 557.919,1620.96 558.5,1625.5C 557.465,1629.68 557.465,1634.01 558.5,1638.5C 558.518,1642.49 557.851,1646.32 556.5,1650C 556.957,1650.41 557.291,1650.91 557.5,1651.5C 555.27,1655.72 552.77,1659.72 550,1663.5C 549.667,1663.17 549.333,1662.83 549,1662.5C 547.299,1664.71 545.299,1665.38 543,1664.5C 529.747,1669.48 516.08,1670.15 502,1666.5C 501.667,1666.83 501.333,1667.17 501,1667.5C 498.275,1666.13 495.609,1665.13 493,1664.5C 482.334,1665.47 471.834,1665.47 461.5,1664.5C 458.283,1663.24 455.116,1661.91 452,1660.5C 451.667,1660.83 451.333,1661.17 451,1661.5C 447.126,1659.48 443.293,1657.31 439.5,1655C 438.333,1653.17 436.833,1651.67 435,1650.5C 431.314,1636.05 432.147,1621.89 437.5,1608C 436.167,1600.67 436.167,1593.33 437.5,1586C 436.443,1581.55 435.443,1577.05 434.5,1572.5C 434.608,1571.56 434.941,1570.72 435.5,1570C 433.417,1550.59 431.751,1531.92 430.5,1514C 430.95,1506.93 434.283,1501.76 440.5,1498.5C 441.557,1494.31 442.557,1490.15 443.5,1486C 442.903,1484.37 443.237,1482.71 444.5,1481C 443.949,1479.6 443.616,1478.27 443.5,1477C 444.167,1473 444.833,1469 445.5,1465C 444.57,1441.44 441.736,1417.61 437,1393.5C 436.063,1390.34 434.563,1387.51 432.5,1385C 432.833,1384.67 433.167,1384.33 433.5,1384C 431.351,1380.85 428.851,1378.02 426,1375.5C 424.357,1369 426.524,1364.33 432.5,1361.5 Z"/></g>
<g><path style="opacity:0.969" fill="#391316" d="M 738.5,1361.5 C 749.483,1361.82 753.316,1367.15 750,1377.5C 746.401,1379.38 744.568,1382.05 744.5,1385.5C 742.349,1387.77 740.849,1390.44 740,1393.5C 735.263,1417.61 732.429,1441.45 731.5,1465C 732.167,1469 732.833,1473 733.5,1477C 733.384,1478.27 733.051,1479.6 732.5,1481C 733.763,1482.71 734.097,1484.37 733.5,1486C 734.443,1490.15 735.443,1494.31 736.5,1498.5C 739.094,1499.59 741.261,1501.26 743,1503.5C 744.295,1507.65 745.462,1511.82 746.5,1516C 745.085,1533.52 743.418,1551.52 741.5,1570C 742.059,1570.72 742.392,1571.56 742.5,1572.5C 741.557,1577.05 740.557,1581.55 739.5,1586C 740.833,1593.33 740.833,1600.67 739.5,1608C 744.871,1621.88 745.705,1636.05 742,1650.5C 740.167,1651.67 738.667,1653.17 737.5,1655C 733.707,1657.31 729.874,1659.48 726,1661.5C 725.667,1661.17 725.333,1660.83 725,1660.5C 721.884,1661.91 718.717,1663.24 715.5,1664.5C 705.166,1665.47 694.666,1665.47 684,1664.5C 682.921,1666.39 681.587,1666.73 680,1665.5C 672.034,1667.03 664.034,1668.36 656,1669.5C 648.888,1669.09 641.555,1667.42 634,1664.5C 631.701,1665.38 629.701,1664.71 628,1662.5C 627.667,1662.83 627.333,1663.17 627,1663.5C 624.23,1659.72 621.73,1655.72 619.5,1651.5C 619.709,1650.91 620.043,1650.41 620.5,1650C 619.149,1646.32 618.482,1642.49 618.5,1638.5C 619.535,1634.01 619.535,1629.68 618.5,1625.5C 619.081,1620.96 620.914,1616.63 624,1612.5C 631.503,1608.21 634.67,1601.87 633.5,1593.5C 632.5,1592.67 631.5,1591.83 630.5,1591C 632.867,1587.06 632.867,1582.72 630.5,1578C 630.957,1577.59 631.291,1577.09 631.5,1576.5C 630.27,1574.07 629.27,1571.57 628.5,1569C 628.946,1563.79 628.946,1558.45 628.5,1553C 629.167,1548.67 629.833,1544.33 630.5,1540C 630.384,1538.73 630.051,1537.4 629.5,1536C 631.249,1529.93 632.749,1523.76 634,1517.5C 635.266,1513.36 637.099,1509.52 639.5,1506C 639.676,1504.34 639.009,1502.67 637.5,1501C 637.243,1478.29 637.576,1455.95 638.5,1434C 637.782,1431.54 637.115,1429.04 636.5,1426.5C 636.433,1422.66 636.433,1418.83 636.5,1415C 635.5,1411.33 634.5,1407.67 633.5,1404C 633.203,1398.78 633.203,1393.44 633.5,1388C 626.728,1384.15 624.228,1378.32 626,1370.5C 629.625,1364.04 633.458,1363.87 637.5,1370C 641.727,1370.74 645.894,1371.58 650,1372.5C 653.755,1372.59 657.422,1372.26 661,1371.5C 667.667,1372.17 674.333,1372.83 681,1373.5C 681.75,1372.87 682.584,1372.37 683.5,1372C 692.915,1370.34 702.249,1369.84 711.5,1370.5C 721.908,1370.81 730.908,1367.81 738.5,1361.5 Z"/></g>
<g><path style="opacity:1" fill="#f9fbfe" d="M 435.5,1365.5 C 445.003,1372.61 455.837,1376.28 468,1376.5C 474.082,1376.32 480.082,1376.32 486,1376.5C 488.088,1377.31 490.088,1378.31 492,1379.5C 494.836,1378.73 497.67,1379.07 500.5,1380.5C 510.351,1379.29 520.185,1379.29 530,1380.5C 534.479,1379.23 538.812,1377.56 543,1375.5C 543.72,1377.11 543.554,1378.61 542.5,1380C 529.316,1384.7 515.482,1387.54 501,1388.5C 492.197,1388.36 483.197,1388.36 474,1388.5C 460.477,1385.44 446.977,1381.28 433.5,1376C 429.299,1371.63 429.966,1368.13 435.5,1365.5 Z"/></g>
<g><path style="opacity:1" fill="#f9fbfe" d="M 740.5,1365.5 C 746.905,1367.63 747.905,1371.13 743.5,1376C 730.023,1381.28 716.523,1385.44 703,1388.5C 693.978,1388.39 684.978,1388.39 676,1388.5C 662.002,1387.36 648.502,1384.86 635.5,1381C 633.675,1379.53 633.175,1377.7 634,1375.5C 638.188,1377.56 642.521,1379.23 647,1380.5C 656.737,1379.24 666.571,1379.24 676.5,1380.5C 679.33,1379.07 682.164,1378.73 685,1379.5C 686.912,1378.31 688.912,1377.31 691,1376.5C 696.918,1376.32 702.918,1376.32 709,1376.5C 718.308,1376.2 727.142,1374.03 735.5,1370C 737.692,1368.93 739.358,1367.43 740.5,1365.5 Z"/></g>
<g><path style="opacity:1" fill="#f9fbfe" d="M 437.5,1383.5 C 450.226,1387.55 462.392,1391.22 474,1394.5C 474.414,1394.04 474.914,1393.71 475.5,1393.5C 478.039,1394.12 480.539,1394.78 483,1395.5C 489.883,1394.32 496.549,1394.32 503,1395.5C 503.689,1394.64 504.522,1393.98 505.5,1393.5C 508.102,1394.49 510.935,1394.83 514,1394.5C 522.567,1393.21 531.067,1391.54 539.5,1389.5C 538.436,1401.19 536.436,1412.69 533.5,1424C 533.379,1427.64 533.379,1431.3 533.5,1435C 532.048,1436.96 531.715,1438.96 532.5,1441C 531.872,1451.15 530.872,1461.49 529.5,1472C 529.25,1480.51 529.584,1489.51 530.5,1499C 530.087,1502.18 528.587,1504.68 526,1506.5C 514.7,1505.76 503.7,1505.43 493,1505.5C 481.032,1509.97 475.199,1518.47 475.5,1531C 474.926,1535.15 473.26,1538.81 470.5,1542C 463.691,1543.21 457.858,1541.04 453,1535.5C 451.506,1529.35 450.006,1523.51 448.5,1518C 448.833,1517 449.167,1516 449.5,1515C 448.798,1511.53 448.131,1508.03 447.5,1504.5C 448.489,1503.53 449.156,1502.37 449.5,1501C 450.173,1494.77 451.173,1488.6 452.5,1482.5C 452.633,1477.01 452.3,1471.51 451.5,1466C 452.167,1465.67 452.833,1465.33 453.5,1465C 451.974,1439.85 447.974,1415.18 441.5,1391C 439.505,1388.84 438.172,1386.34 437.5,1383.5 Z"/></g>
<g><path style="opacity:1" fill="#f9fbfe" d="M 737.5,1383.5 C 738.376,1383.37 739.043,1383.7 739.5,1384.5C 738.543,1386.92 737.209,1389.08 735.5,1391C 729.026,1415.18 725.026,1439.85 723.5,1465C 724.167,1465.33 724.833,1465.67 725.5,1466C 724.833,1467.33 724.167,1468.67 723.5,1470C 724.463,1479.33 725.63,1488.83 727,1498.5C 727.212,1500.78 728.045,1502.78 729.5,1504.5C 728.869,1508.03 728.202,1511.53 727.5,1515C 727.833,1516 728.167,1517 728.5,1518C 726.994,1523.51 725.494,1529.35 724,1535.5C 719.68,1540.25 714.513,1542.59 708.5,1542.5C 706.971,1542.47 705.804,1541.8 705,1540.5C 702.793,1536.95 701.96,1533.28 702.5,1529.5C 701.356,1517.53 695.189,1509.53 684,1505.5C 673.3,1505.43 662.3,1505.76 651,1506.5C 648.413,1504.68 646.913,1502.18 646.5,1499C 647.416,1489.51 647.75,1480.51 647.5,1472C 646.128,1461.49 645.128,1451.15 644.5,1441C 645.285,1438.96 644.952,1436.96 643.5,1435C 643.621,1431.3 643.621,1427.64 643.5,1424C 640.564,1412.69 638.564,1401.19 637.5,1389.5C 645.933,1391.54 654.433,1393.21 663,1394.5C 666.065,1394.83 668.898,1394.49 671.5,1393.5C 672.478,1393.98 673.311,1394.64 674,1395.5C 680.451,1394.32 687.117,1394.32 694,1395.5C 696.461,1394.78 698.961,1394.12 701.5,1393.5C 703.335,1394.19 705.168,1393.86 707,1392.5C 707.333,1392.83 707.667,1393.17 708,1393.5C 711.752,1391.89 715.252,1390.56 718.5,1389.5C 719.086,1389.71 719.586,1390.04 720,1390.5C 725.865,1387.97 731.698,1385.64 737.5,1383.5 Z"/></g>
<g><path style="opacity:1" fill="#2a4066" d="M 442.5,1570.5 C 441.456,1566.44 440.456,1562.27 439.5,1558C 440.462,1554.94 440.129,1551.61 438.5,1548C 439.059,1547.28 439.392,1546.44 439.5,1545.5C 438.416,1537.66 437.082,1529.66 435.5,1521.5C 436.279,1516.89 436.779,1512.22 437,1507.5C 437.632,1505.04 439.132,1503.37 441.5,1502.5C 441.322,1503.96 442.156,1505.29 444,1506.5C 444.789,1510.09 444.622,1513.59 443.5,1517C 444.544,1524.33 445.378,1531.16 446,1537.5C 448.304,1539.43 450.138,1541.76 451.5,1544.5C 454.466,1546.3 457.299,1548.3 460,1550.5C 463.537,1551.42 467.204,1551.42 471,1550.5C 473.312,1548.19 475.645,1545.86 478,1543.5C 479.092,1540.29 480.259,1537.12 481.5,1534C 481.446,1530.8 481.446,1527.63 481.5,1524.5C 483.271,1518.74 486.938,1514.91 492.5,1513C 501.99,1512.35 511.823,1511.85 522,1511.5C 524.167,1513 526.333,1514.5 528.5,1516C 528.167,1516.33 527.833,1516.67 527.5,1517C 531.508,1520.19 533.508,1524.36 533.5,1529.5C 532.5,1529.5 531.5,1529.5 530.5,1529.5C 529.656,1536.21 530.49,1542.87 533,1549.5C 534.593,1553.43 537.427,1555.93 541.5,1557C 541.243,1559.98 540.576,1563.14 539.5,1566.5C 533.432,1562.3 526.765,1559.47 519.5,1558C 509.636,1557.88 500.136,1557.71 491,1557.5C 483.87,1559.21 477.037,1561.71 470.5,1565C 462.332,1573.44 462.499,1581.6 471,1589.5C 475.431,1586.02 480.431,1583.69 486,1582.5C 493.654,1582.72 501.654,1583.38 510,1584.5C 511.343,1583.79 512.676,1584.12 514,1585.5C 514.725,1584.94 515.558,1584.61 516.5,1584.5C 523.034,1585.72 529.367,1587.38 535.5,1589.5C 535.854,1591.54 535.854,1593.37 535.5,1595C 536.13,1596.89 537.13,1598.56 538.5,1600C 538.775,1606.44 541.775,1611.61 547.5,1615.5C 549.227,1618.29 550.394,1621.29 551,1624.5C 550.912,1631.94 551.079,1638.77 551.5,1645C 549.91,1648.5 548.243,1652 546.5,1655.5C 543.745,1656.63 541.411,1658.3 539.5,1660.5C 537.568,1661.37 535.568,1662.03 533.5,1662.5C 518.788,1661.34 503.955,1659.68 489,1657.5C 482.54,1658.1 476.04,1658.43 469.5,1658.5C 458.707,1658.01 449.207,1654.35 441,1647.5C 439.254,1643.95 439.421,1640.45 441.5,1637C 441.629,1632.42 441.629,1627.75 441.5,1623C 442.833,1619.67 444.167,1616.33 445.5,1613C 445.188,1609.84 444.521,1606.5 443.5,1603C 443.802,1598.68 444.135,1594.68 444.5,1591C 443.404,1583.97 442.737,1577.14 442.5,1570.5 Z"/></g>
<g><path style="opacity:1" fill="#2a4066" d="M 734.5,1570.5 C 734.263,1577.14 733.596,1583.97 732.5,1591C 732.865,1594.68 733.198,1598.68 733.5,1603C 732.479,1606.5 731.812,1609.84 731.5,1613C 732.833,1616.33 734.167,1619.67 735.5,1623C 735.371,1627.75 735.371,1632.42 735.5,1637C 738.931,1643.11 737.598,1647.94 731.5,1651.5C 724.055,1655.7 716.055,1658.03 707.5,1658.5C 700.96,1658.43 694.46,1658.1 688,1657.5C 673.045,1659.68 658.212,1661.34 643.5,1662.5C 639.888,1662.46 637.221,1660.96 635.5,1658C 633.579,1657.64 631.912,1656.81 630.5,1655.5C 628.757,1652 627.09,1648.5 625.5,1645C 625.921,1638.77 626.088,1631.94 626,1624.5C 626.606,1621.29 627.773,1618.29 629.5,1615.5C 635.225,1611.61 638.225,1606.44 638.5,1600C 639.87,1598.56 640.87,1596.89 641.5,1595C 641.146,1593.37 641.146,1591.54 641.5,1589.5C 647.633,1587.38 653.966,1585.72 660.5,1584.5C 661.442,1584.61 662.275,1584.94 663,1585.5C 676.386,1581.49 689.219,1581.65 701.5,1586C 703.09,1587.05 704.59,1588.21 706,1589.5C 714.501,1581.6 714.668,1573.44 706.5,1565C 699.963,1561.71 693.13,1559.21 686,1557.5C 676.864,1557.71 667.364,1557.88 657.5,1558C 650.235,1559.47 643.568,1562.3 637.5,1566.5C 636.424,1563.14 635.757,1559.98 635.5,1557C 639.573,1555.93 642.407,1553.43 644,1549.5C 646.51,1542.87 647.344,1536.21 646.5,1529.5C 645.5,1529.5 644.5,1529.5 643.5,1529.5C 643.492,1524.36 645.492,1520.19 649.5,1517C 649.167,1516.67 648.833,1516.33 648.5,1516C 650.667,1514.5 652.833,1513 655,1511.5C 665.177,1511.85 675.01,1512.35 684.5,1513C 690.062,1514.91 693.729,1518.74 695.5,1524.5C 695.554,1527.63 695.554,1530.8 695.5,1534C 696.741,1537.12 697.908,1540.29 699,1543.5C 701.355,1545.86 703.688,1548.19 706,1550.5C 709.796,1551.42 713.463,1551.42 717,1550.5C 719.701,1548.3 722.534,1546.3 725.5,1544.5C 726.862,1541.76 728.696,1539.43 731,1537.5C 731.622,1531.16 732.456,1524.33 733.5,1517C 731.768,1511.81 732.435,1506.98 735.5,1502.5C 737.868,1503.37 739.368,1505.04 740,1507.5C 740.221,1512.22 740.721,1516.89 741.5,1521.5C 739.617,1532.46 737.95,1543.29 736.5,1554C 737.051,1555.4 737.384,1556.73 737.5,1558C 736.544,1562.27 735.544,1566.44 734.5,1570.5 Z"/></g>
<g><path style="opacity:1" fill="#2a4065" d="M 534.5,1510.5 C 536.48,1511.85 537.647,1513.85 538,1516.5C 538.226,1519.09 538.726,1521.59 539.5,1524C 539.167,1524.17 538.833,1524.33 538.5,1524.5C 537.148,1520.32 535.148,1516.49 532.5,1513C 533.381,1512.29 534.047,1511.46 534.5,1510.5 Z"/></g>
<g><path style="opacity:1" fill="#2a4066" d="M 640.5,1510.5 C 642.196,1510.69 643.529,1511.52 644.5,1513C 641.852,1516.49 639.852,1520.32 638.5,1524.5C 638.167,1524.33 637.833,1524.17 637.5,1524C 638.36,1519.49 639.36,1514.99 640.5,1510.5 Z"/></g>
<g><path style="opacity:1" fill="#2a4066" d="M 538.5,1525.5 C 539.925,1530.16 540.925,1534.99 541.5,1540C 541.063,1542.45 541.063,1544.78 541.5,1547C 541,1547.5 540.5,1548 540,1548.5C 538.636,1546.22 537.803,1543.72 537.5,1541C 538.161,1536.17 538.495,1531 538.5,1525.5 Z"/></g>
<g><path style="opacity:1" fill="#2a4066" d="M 637.5,1525.5 C 638.249,1526.53 638.915,1527.7 639.5,1529C 639.174,1533.16 639.174,1537.33 639.5,1541.5C 639.353,1544.11 638.519,1546.44 637,1548.5C 636.5,1548 636,1547.5 635.5,1547C 635.937,1544.78 635.937,1542.45 635.5,1540C 636.394,1535.24 637.061,1530.4 637.5,1525.5 Z"/></g>
<g><path style="opacity:1" fill="#ad881c" d="M 499.5,1562.5 C 503.482,1562.86 507.649,1563.53 512,1564.5C 522.408,1563.73 531.241,1567.56 538.5,1576C 537.713,1578.1 537.38,1580.27 537.5,1582.5C 533.475,1581.87 529.309,1580.53 525,1578.5C 523.176,1579.24 521.176,1579.57 519,1579.5C 517.667,1578.83 516.333,1578.17 515,1577.5C 505.75,1577.63 496.75,1577.63 488,1577.5C 482.731,1578.9 477.564,1580.4 472.5,1582C 468.354,1577.37 468.687,1573.04 473.5,1569C 476.785,1568.24 479.785,1566.91 482.5,1565C 488.119,1564.43 493.785,1563.59 499.5,1562.5 Z"/></g>
<g><path style="opacity:1" fill="#ad881c" d="M 673.5,1562.5 C 677.809,1562.89 682.309,1563.56 687,1564.5C 687.414,1564.04 687.914,1563.71 688.5,1563.5C 693.723,1564.78 698.723,1566.61 703.5,1569C 708.313,1573.04 708.646,1577.37 704.5,1582C 699.436,1580.4 694.269,1578.9 689,1577.5C 680.25,1577.63 671.25,1577.63 662,1577.5C 660.667,1578.17 659.333,1578.83 658,1579.5C 655.824,1579.57 653.824,1579.24 652,1578.5C 647.691,1580.53 643.525,1581.87 639.5,1582.5C 639.62,1580.27 639.287,1578.1 638.5,1576C 645.981,1567.17 654.815,1563.34 665,1564.5C 667.939,1563.87 670.772,1563.21 673.5,1562.5 Z"/></g>
<g><path style="opacity:1" fill="#aa871f" d="M 734.5,1570.5 C 730.604,1571.61 728.771,1574.28 729,1578.5C 726.626,1580.94 724.459,1580.61 722.5,1577.5C 718.59,1578.42 717.256,1576.92 718.5,1573C 717.516,1571.34 716.516,1569.68 715.5,1568C 717.52,1566.78 719.52,1566.62 721.5,1567.5C 723.361,1566.47 724.695,1564.97 725.5,1563C 726.793,1562.51 728.127,1562.34 729.5,1562.5C 729.5,1563.83 729.5,1565.17 729.5,1566.5C 732.344,1566.34 734.011,1567.68 734.5,1570.5 Z"/></g>
<g><path style="opacity:1" fill="#ab871e" d="M 442.5,1570.5 C 442.989,1567.68 444.656,1566.34 447.5,1566.5C 447.5,1565.17 447.5,1563.83 447.5,1562.5C 448.873,1562.34 450.207,1562.51 451.5,1563C 452.551,1566.28 454.551,1567.45 457.5,1566.5C 458.795,1567.1 460.128,1567.6 461.5,1568C 458.806,1570.4 457.973,1573.24 459,1576.5C 457.806,1578.53 456.306,1578.86 454.5,1577.5C 452.541,1580.61 450.374,1580.94 448,1578.5C 448.229,1574.28 446.396,1571.61 442.5,1570.5 Z"/></g>
<g><path style="opacity:0.997" fill="#3a1414" d="M 501.5,1566.5 C 507.632,1566.98 513.966,1567.82 520.5,1569C 522.037,1570.11 522.703,1571.61 522.5,1573.5C 511.06,1570.81 499.394,1570.47 487.5,1572.5C 487.5,1571.5 487.5,1570.5 487.5,1569.5C 492.209,1568.21 496.875,1567.21 501.5,1566.5 Z"/></g>
<g><path style="opacity:0.976" fill="#3c1714" d="M 670.5,1566.5 C 674.924,1566.94 679.591,1567.44 684.5,1568C 686.555,1568.69 688.221,1569.85 689.5,1571.5C 688.667,1571.83 687.833,1572.17 687,1572.5C 675.942,1570.61 665.109,1570.94 654.5,1573.5C 654.297,1571.61 654.963,1570.11 656.5,1569C 661.315,1568.2 665.981,1567.36 670.5,1566.5 Z"/></g>
<g><path style="opacity:0.987" fill="#371215" d="M 500.5,1600.5 C 505.945,1600.52 511.445,1600.52 517,1600.5C 525.913,1601.37 533.413,1605.04 539.5,1611.5C 539.167,1612.5 538.5,1613.17 537.5,1613.5C 527.409,1606.75 516.409,1604.59 504.5,1607C 499.363,1607.87 494.363,1609.2 489.5,1611C 482.611,1614.7 475.778,1618.53 469,1622.5C 467.286,1621.92 466.119,1620.76 465.5,1619C 475.658,1609.9 487.324,1603.73 500.5,1600.5 Z"/></g>
<g><path style="opacity:0.98" fill="#371215" d="M 659.5,1600.5 C 679.272,1598.93 696.605,1605.1 711.5,1619C 710.881,1620.76 709.714,1621.92 708,1622.5C 701.222,1618.53 694.389,1614.7 687.5,1611C 676.822,1607.01 665.989,1605.51 655,1606.5C 649.404,1607.88 644.237,1610.21 639.5,1613.5C 638.5,1613.17 637.833,1612.5 637.5,1611.5C 643.549,1605.14 650.882,1601.48 659.5,1600.5 Z"/></g>
</svg>
