<?xml version="1.0" encoding="UTF-8"?>
<!DOCTYPE svg PUBLIC "-//W3C//DTD SVG 1.1//EN" "http://www.w3.org/Graphics/SVG/1.1/DTD/svg11.dtd">
<svg xmlns="http://www.w3.org/2000/svg" version="1.1" width="1216px" height="1749px" style="shape-rendering:geometricPrecision; text-rendering:geometricPrecision; image-rendering:optimizeQuality; fill-rule:evenodd; clip-rule:evenodd" xmlns:xlink="http://www.w3.org/1999/xlink">
<g><path style="opacity:0.977" fill="#381214" d="M 790.5,1027.5 C 789.167,1027.83 789.167,1028.17 790.5,1028.5C 786.67,1038.33 781.67,1047.49 775.5,1056C 775.833,1056.33 776.167,1056.67 776.5,1057C 775.058,1057.38 774.058,1058.21 773.5,1059.5C 772.167,1059.83 772.167,1060.17 773.5,1060.5C 768.733,1065.73 764.4,1070.89 760.5,1076C 760.833,1076.33 761.167,1076.67 761.5,1077C 760.584,1077.37 759.75,1077.87 759,1078.5C 756.823,1084.11 754.823,1089.45 753,1094.5C 751.883,1094.67 750.716,1095 749.5,1095.5C 746.587,1093.13 743.42,1091.13 740,1089.5C 738.643,1091.74 738.81,1094.07 740.5,1096.5C 739.675,1097.39 738.675,1097.72 737.5,1097.5C 737.649,1098.55 737.483,1099.55 737,1100.5C 734.675,1100.87 732.509,1102.21 730.5,1104.5C 729.808,1103.97 729.308,1103.31 729,1102.5C 727.333,1102.5 725.667,1102.5 724,1102.5C 723.047,1100.63 721.88,1100.29 720.5,1101.5C 719.048,1100.7 717.382,1100.2 715.5,1100C 714.167,1099.33 714.167,1098.67 715.5,1098C 712.462,1098.6 709.628,1097.77 707,1095.5C 706.259,1096.64 705.425,1096.64 704.5,1095.5C 703.808,1096.03 703.308,1096.69 703,1097.5C 699.644,1095.78 695.977,1094.78 692,1094.5C 691.228,1094.64 690.561,1094.98 690,1095.5C 689.21,1093.21 687.876,1092.88 686,1094.5C 682.614,1093.91 679.28,1093.25 676,1092.5C 675.612,1093.43 674.945,1094.09 674,1094.5C 671.723,1093.63 669.389,1092.96 667,1092.5C 662.654,1093.16 658.154,1093.16 653.5,1092.5C 653.167,1091.17 652.833,1091.17 652.5,1092.5C 650.516,1093.62 648.683,1093.29 647,1091.5C 645.715,1091.95 644.548,1092.62 643.5,1093.5C 641.684,1090.94 639.851,1090.94 638,1093.5C 637.667,1092.83 637.333,1092.17 637,1091.5C 629.129,1091.71 621.129,1091.71 613,1091.5C 609.977,1091.29 607.144,1089.96 604.5,1087.5C 603.359,1086.57 603.359,1085.74 604.5,1085C 601.094,1082.64 600.76,1079.97 603.5,1077C 602.991,1075.83 602.158,1075 601,1074.5C 598.385,1075.31 595.552,1075.31 592.5,1074.5C 587.727,1076.7 583.06,1076.7 578.5,1074.5C 576.591,1075.35 574.591,1075.68 572.5,1075.5C 573.248,1077.58 573.248,1079.58 572.5,1081.5C 575.852,1086.64 574.519,1090.81 568.5,1094C 565.574,1094.22 562.74,1094.72 560,1095.5C 550.594,1095.37 540.594,1095.37 530,1095.5C 521.699,1097.73 513.699,1100.06 506,1102.5C 505.228,1102.36 504.561,1102.02 504,1101.5C 502.316,1103.7 500.316,1104.37 498,1103.5C 494,1104.83 490,1106.17 486,1107.5C 481.3,1107.33 476.633,1108.33 472,1110.5C 469.667,1110.17 467.333,1109.83 465,1109.5C 460.115,1111.38 455.448,1113.72 451,1116.5C 449.667,1115.83 448.333,1115.17 447,1114.5C 443.048,1119.64 438.048,1123.3 432,1125.5C 427.7,1125.6 425.033,1123.6 424,1119.5C 421.971,1115.1 421.471,1110.93 422.5,1107C 421.707,1103.59 421.207,1100.09 421,1096.5C 407.792,1086.79 395.126,1075.79 383,1063.5C 379.948,1058.63 378.448,1053.29 378.5,1047.5C 379.08,1044.02 379.08,1040.69 378.5,1037.5C 378.854,1034.56 379.52,1031.73 380.5,1029C 380.043,1028.59 379.709,1028.09 379.5,1027.5C 386.735,988.086 397.568,948.42 412,908.5C 428.505,865.608 442.505,822.275 454,778.5C 457.088,763.316 460.254,748.15 463.5,733C 461.69,722.656 460.19,712.489 459,702.5C 456.1,710.981 453.766,719.648 452,728.5C 443.688,743.911 436.355,759.911 430,776.5C 425.587,784.995 420.92,793.328 416,801.5C 406.019,813.484 396.019,825.484 386,837.5C 375.353,846.817 365.686,857.151 357,868.5C 350.687,874.813 344.02,881.48 337,888.5C 334.702,893.424 332.369,898.757 330,904.5C 325.843,908.15 322.677,912.483 320.5,917.5C 319.5,917.5 318.5,917.5 317.5,917.5C 317.649,918.552 317.483,919.552 317,920.5C 311.88,927.27 307.214,934.27 303,941.5C 298.745,947.509 293.912,953.009 288.5,958C 286.295,959.427 284.128,959.927 282,959.5C 276.68,960.582 271.346,961.582 266,962.5C 265.586,962.043 265.086,961.709 264.5,961.5C 262.112,963.387 259.612,964.054 257,963.5C 253.468,965.127 250.134,967.127 247,969.5C 246,968.833 245,968.167 244,967.5C 243.634,969.452 242.801,971.118 241.5,972.5C 237.535,971.061 234.202,968.561 231.5,965C 218.041,955.586 204.041,946.919 189.5,939C 182.111,937.299 175.278,935.133 169,932.5C 165.882,933.397 162.882,933.397 160,932.5C 158.175,933.103 156.341,933.77 154.5,934.5C 154.709,935.086 155.043,935.586 155.5,936C 153.645,936.422 151.811,936.922 150,937.5C 146.912,934.983 144.745,932.316 143.5,929.5C 144.635,927.201 145.968,925.034 147.5,923C 146.826,921.249 146.493,919.583 146.5,918C 148.935,913.39 151.602,908.89 154.5,904.5C 154.291,903.914 153.957,903.414 153.5,903C 157.122,898.255 160.622,893.422 164,888.5C 165.184,877.542 165.851,866.542 166,855.5C 169.167,851 173,847.167 177.5,844C 193.373,834.787 208.707,824.787 223.5,814C 237.948,807.353 249.781,797.52 259,784.5C 279.156,754.327 300.156,724.66 322,695.5C 340.236,668.706 358.236,641.706 376,614.5C 385.147,600.54 392.98,585.873 399.5,570.5C 401.473,567.36 403.64,564.36 406,561.5C 408.071,555.989 409.738,550.656 411,545.5C 413.773,542.781 417.106,541.447 421,541.5C 425.365,541.829 429.865,541.996 434.5,542C 445.579,543.774 456.745,545.607 468,547.5C 475.333,547.5 482.667,547.5 490,547.5C 493.405,546.418 496.905,545.584 500.5,545C 500.536,536.701 500.869,527.701 501.5,518C 500.731,508.174 499.564,498.341 498,488.5C 496.271,484.742 494.771,480.909 493.5,477C 494.862,472.312 498.029,469.812 503,469.5C 505.528,469.558 507.528,470.558 509,472.5C 511.621,481.868 513.788,490.701 515.5,499C 514.949,500.398 514.616,501.732 514.5,503C 515.593,507.65 516.593,512.316 517.5,517C 517.467,521.953 517.134,526.953 516.5,532C 517.13,535.129 517.796,538.296 518.5,541.5C 529.665,538.159 540.499,534.826 551,531.5C 570.915,521.752 590.415,511.252 609.5,500C 620.906,492.637 630.573,483.47 638.5,472.5C 639.747,470.958 639.747,469.458 638.5,468C 640.833,464.667 643.167,461.333 645.5,458C 648.928,457.398 652.095,456.898 655,456.5C 658.55,457.236 661.717,458.736 664.5,461C 675.556,462.364 685.223,466.697 693.5,474C 693.043,474.414 692.709,474.914 692.5,475.5C 699.277,478.055 705.944,480.888 712.5,484C 723.244,490.706 734.578,496.372 746.5,501C 767.076,526.151 782.243,553.985 792,584.5C 803.563,612.06 816.896,638.726 832,664.5C 840.209,675.612 848.876,686.279 858,696.5C 870.057,708.56 882.391,720.227 895,731.5C 908.321,753.152 924.821,771.986 944.5,788C 955.564,795.527 966.897,802.527 978.5,809C 1004.78,828.347 1018.45,852.681 1019.5,882C 1020.04,886.399 1020.7,890.733 1021.5,895C 1020.17,905.976 1020.17,917.309 1021.5,929C 1020.43,929.739 1019.76,930.739 1019.5,932C 1020.62,933.235 1020.62,934.402 1019.5,935.5C 1014.81,937.902 1009.81,939.569 1004.5,940.5C 998.918,939.558 993.585,938.891 988.5,938.5C 983.887,939.279 979.22,939.779 974.5,940C 973.24,941.113 972.073,941.28 971,940.5C 969.295,941.763 967.628,942.097 966,941.5C 951.002,947.284 936.002,951.951 921,955.5C 918.899,956.924 916.733,958.258 914.5,959.5C 912.61,957.422 910.276,956.089 907.5,955.5C 900.537,948.696 894.037,941.362 888,933.5C 882.591,921.016 876.924,908.683 871,896.5C 867.532,892.189 863.365,888.855 858.5,886.5C 852.336,881.356 846.169,876.356 840,871.5C 836.435,863.035 833.435,854.369 831,845.5C 826.266,839.557 821.266,833.891 816,828.5C 798.892,801.711 780.559,775.711 761,750.5C 745.073,722.995 726.906,696.995 706.5,672.5C 706.34,681.698 706.34,691.198 706.5,701C 710.27,724.055 719.437,744.888 734,763.5C 745.45,774.338 750.617,786.838 749.5,801C 751.394,802.079 751.727,803.413 750.5,805C 751.167,807.667 751.833,810.333 752.5,813C 751.789,816.775 751.456,820.775 751.5,825C 752.145,829.163 753.145,833.496 754.5,838C 754.677,840.55 754.343,842.883 753.5,845C 754.357,845.689 755.023,846.522 755.5,847.5C 754.674,856.912 754.34,866.078 754.5,875C 759.882,893.162 766.048,910.662 773,927.5C 783.095,943.417 792.262,959.917 800.5,977C 800.672,979.978 800.005,982.978 798.5,986C 799.282,991.818 799.282,997.484 798.5,1003C 796.724,1004.67 796.39,1006.5 797.5,1008.5C 795.734,1014.05 793.734,1019.55 791.5,1025C 791.833,1025.33 792.167,1025.67 792.5,1026C 791.584,1026.28 790.918,1026.78 790.5,1027.5 Z"/></g>
<g><path style="opacity:1" fill="#802f2a" d="M 648.5,461.5 C 653.348,461.639 657.681,463.139 661.5,466C 666.011,468.06 670.511,469.226 675,469.5C 677.723,471.187 680.557,472.687 683.5,474C 683.5,475.333 683.5,476.667 683.5,478C 691.064,478.707 697.897,481.207 704,485.5C 704.333,485.167 704.667,484.833 705,484.5C 710.615,487.817 716.115,491.317 721.5,495C 729.498,498.166 737.165,502 744.5,506.5C 764.232,534.627 779.065,564.961 789,597.5C 797.125,616.417 805.792,635.084 815,653.5C 834.93,684.556 859.097,711.889 887.5,735.5C 898.194,752.366 910.694,768.366 925,783.5C 932.26,789.774 939.76,795.608 947.5,801C 962.288,809.141 976.121,818.641 989,829.5C 993.333,835.833 997.667,842.167 1002,848.5C 1007.97,862.988 1011.13,878.154 1011.5,894C 1010.43,902.533 1010.43,911.199 1011.5,920C 1004.32,919.542 997.148,919.376 990,919.5C 982.333,920.167 974.667,920.833 967,921.5C 951.833,921.052 936.667,924.219 921.5,931C 916.734,933.597 912.734,937.097 909.5,941.5C 905.439,940.106 902.772,937.439 901.5,933.5C 900.5,933.5 899.5,933.5 898.5,933.5C 892.383,918.236 885.217,902.903 877,887.5C 866.87,880.426 856.87,873.093 847,865.5C 843.397,857.11 840.397,848.444 838,839.5C 833.092,835.598 828.425,831.264 824,826.5C 805.838,799.333 786.504,773 766,747.5C 748.785,719.089 729.118,692.422 707,667.5C 705.913,662.362 705.08,657.195 704.5,652C 704.958,639.875 704.958,627.875 704.5,616C 702.209,602.688 700.542,589.354 699.5,576C 700.466,568.283 700.133,559.783 698.5,550.5C 697.914,550.291 697.414,549.957 697,549.5C 695.731,561.52 695.231,573.02 695.5,584C 696.167,587.667 696.833,591.333 697.5,595C 697.167,595.333 696.833,595.667 696.5,596C 698.904,615.592 699.57,634.592 698.5,653C 699.167,663.333 699.833,673.667 700.5,684C 697.914,707.025 703.248,729.025 716.5,750C 716.167,750.333 715.833,750.667 715.5,751C 719.605,757.679 724.605,764.179 730.5,770.5C 736.283,777.826 739.949,785.826 741.5,794.5C 741.291,795.086 740.957,795.586 740.5,796C 741.384,802.398 742.384,808.731 743.5,815C 743.461,817.297 743.128,819.63 742.5,822C 743.24,823.785 743.907,825.618 744.5,827.5C 743.744,829.451 743.411,831.284 743.5,833C 744.209,839.194 745.209,845.528 746.5,852C 745.558,862.068 745.225,872.068 745.5,882C 751.374,898.593 757.541,915.426 764,932.5C 773.608,948.107 782.108,963.94 789.5,980C 787.903,1012.87 776.236,1041.7 754.5,1066.5C 753.575,1065.36 752.741,1065.36 752,1066.5C 751.452,1060.7 749.119,1055.37 745,1050.5C 726.52,1034.26 705.187,1024.26 681,1020.5C 672.17,1018.44 663.003,1016.78 653.5,1015.5C 641.72,1016.46 629.887,1016.46 618,1015.5C 604.628,1016.84 591.295,1018.5 578,1020.5C 577.667,1020.17 577.333,1019.83 577,1019.5C 568.543,1021.43 560.21,1023.09 552,1024.5C 551.228,1024.36 550.561,1024.02 550,1023.5C 533.518,1027.67 517.352,1033.5 501.5,1041C 483.239,1051.3 465.239,1061.97 447.5,1073C 440.895,1078.03 435.061,1083.86 430,1090.5C 416.08,1079.87 402.746,1068.54 390,1056.5C 388.963,1053.72 388.13,1050.89 387.5,1048C 388.031,1023.1 392.365,998.268 400.5,973.5C 409.146,939.23 419.812,905.396 432.5,872C 437.475,856.089 442.641,839.922 448,823.5C 454.814,799.287 460.314,774.454 464.5,749C 464.833,748.167 465.167,747.333 465.5,746.5C 469.439,750.477 472.105,749.977 473.5,745C 470.65,733.04 467.984,721.374 465.5,710C 462.579,680.142 457.245,649.976 449.5,619.5C 448.5,619.5 447.5,619.5 446.5,619.5C 450.156,640.993 453.823,662.159 457.5,683C 457.043,683.414 456.709,683.914 456.5,684.5C 457.661,689.115 458.161,693.782 458,698.5C 456.701,698.034 455.201,698.034 453.5,698.5C 453.683,700.936 453.016,703.103 451.5,705C 451.833,705.333 452.167,705.667 452.5,706C 448.372,713.332 445.539,721.165 444,729.5C 440.667,735.5 437.333,741.5 434,747.5C 428.487,761.527 422.154,775.193 415,788.5C 406.717,800.118 398.05,811.451 389,822.5C 369.324,843.209 349.658,863.875 330,884.5C 327.163,889.172 325.163,894.172 324,899.5C 313.504,911.663 304.17,924.663 296,938.5C 292.619,942.759 289.119,946.926 285.5,951C 277.712,953.734 269.712,955.734 261.5,957C 256.713,958.893 252.047,961.06 247.5,963.5C 246.172,957.178 243.505,951.512 239.5,946.5C 233.317,939.483 226.65,932.983 219.5,927C 204.776,919.147 189.109,914.647 172.5,913.5C 167.025,914.796 161.692,915.796 156.5,916.5C 156.167,916.167 155.833,915.833 155.5,915.5C 158.371,910.035 161.871,905.035 166,900.5C 168.106,897.392 169.772,894.059 171,890.5C 171.72,888.888 171.554,887.388 170.5,886C 171.167,884.333 171.833,882.667 172.5,881C 172.555,875.34 172.221,869.34 171.5,863C 172.024,859.095 173.691,855.761 176.5,853C 189.84,844.998 202.84,836.498 215.5,827.5C 223.009,822.339 231.009,818.006 239.5,814.5C 248.867,805.626 257.701,796.959 266,788.5C 289.063,754.571 312.063,721.238 335,688.5C 354.404,658.761 373.404,628.761 392,598.5C 395.777,591.046 399.111,583.38 402,575.5C 409.586,567.662 413.92,558.328 415,547.5C 416.085,546.707 417.252,546.04 418.5,545.5C 423.275,545.965 427.775,547.299 432,549.5C 434.882,548.603 437.882,548.603 441,549.5C 441.667,550.167 442.333,550.833 443,551.5C 447.09,552.588 451.09,552.588 455,551.5C 455.667,552.167 456.333,552.833 457,553.5C 460.378,552.643 464.045,552.976 468,554.5C 475.115,553.603 482.115,553.603 489,554.5C 518.564,549.957 547.064,540.79 574.5,527C 581.599,521.909 588.432,518.075 595,515.5C 603.08,509.876 611.247,504.376 619.5,499C 632.489,488.872 642.155,476.372 648.5,461.5 Z"/></g>
<g><path style="opacity:1" fill="#3a1215" d="M 652.5,475.5 C 657.675,475.272 662.675,476.105 667.5,478C 669.211,479.133 669.711,480.633 669,482.5C 666.63,483.128 664.297,483.461 662,483.5C 657.285,482.221 652.452,481.388 647.5,481C 646.549,480.282 646.383,479.449 647,478.5C 648.719,477.131 650.552,476.131 652.5,475.5 Z"/></g>
<g><path style="opacity:0.972" fill="#391214" d="M 680.5,482.5 C 682.117,483.038 683.784,483.371 685.5,483.5C 684.352,488.95 681.352,493.117 676.5,496C 676.833,496.333 677.167,496.667 677.5,497C 668.845,507.926 659.011,516.76 648,523.5C 640.068,529.207 632.401,534.54 625,539.5C 624.667,539.167 624.333,538.833 624,538.5C 618.956,542.612 613.456,546.112 607.5,549C 575.676,562.719 543.176,573.553 510,581.5C 506.281,580.512 502.281,580.845 498,582.5C 494.425,582.692 490.759,582.692 487,582.5C 483.333,583.5 479.667,584.5 476,585.5C 467.891,585.282 459.391,585.282 450.5,585.5C 439.043,583.526 427.376,581.193 415.5,578.5C 413.588,578.488 411.588,578.821 409.5,579.5C 407.525,578.725 406.691,577.391 407,575.5C 417.902,574.144 428.902,575.144 440,578.5C 440.414,578.043 440.914,577.709 441.5,577.5C 447.992,578.454 454.325,579.12 460.5,579.5C 479.119,577.173 497.786,575.006 516.5,573C 548.844,564.229 579.844,553.229 609.5,540C 626.499,530.834 642.499,520.167 657.5,508C 665.301,499.522 672.967,491.022 680.5,482.5 Z"/></g>
<g><path style="opacity:1" fill="#3a1214" d="M 632.5,496.5 C 639.472,496.19 644.805,498.856 648.5,504.5C 648.132,505.91 647.299,506.91 646,507.5C 641.167,504.667 636.333,501.833 631.5,499C 632.252,498.329 632.586,497.496 632.5,496.5 Z"/></g>
<g><path style="opacity:1" fill="#3c1315" d="M 604.5,513.5 C 613.075,513.781 619.409,517.615 623.5,525C 622.055,528.081 620.055,528.747 617.5,527C 617.833,526.667 618.167,526.333 618.5,526C 615.344,523.843 612.511,521.343 610,518.5C 609.667,518.833 609.333,519.167 609,519.5C 607.559,518.13 605.892,517.13 604,516.5C 603.53,515.423 603.697,514.423 604.5,513.5 Z"/></g>
<g><path style="opacity:1" fill="#3a1315" d="M 564.5,534.5 C 570.625,536.281 574.958,540.281 577.5,546.5C 575.736,549.962 573.569,549.962 571,546.5C 569.576,542.219 567.076,538.719 563.5,536C 564.056,535.617 564.389,535.117 564.5,534.5 Z"/></g>
<g><path style="opacity:1" fill="#3a1315" d="M 525.5,550.5 C 530.732,550.784 534.066,553.451 535.5,558.5C 535.444,559.737 534.944,560.737 534,561.5C 530.525,559.098 527.359,556.265 524.5,553C 525.252,552.329 525.586,551.496 525.5,550.5 Z"/></g>
<g><path style="opacity:1" fill="#3a1215" d="M 430.5,555.5 C 431.5,555.5 432.5,555.5 433.5,555.5C 433.192,559.595 432.359,563.595 431,567.5C 430.313,569.555 429.146,571.221 427.5,572.5C 426.713,571.758 426.047,570.925 425.5,570C 427.397,565.245 429.064,560.412 430.5,555.5 Z"/></g>
<g><path style="opacity:1" fill="#391214" d="M 455.5,555.5 C 456.117,555.611 456.617,555.944 457,556.5C 457.217,561.553 457.717,566.553 458.5,571.5C 457.924,574.124 456.59,574.791 454.5,573.5C 453.101,567.365 453.434,561.365 455.5,555.5 Z"/></g>
<g><path style="opacity:1" fill="#3d1316" d="M 484.5,560.5 C 486.886,561.373 488.886,562.873 490.5,565C 491.557,566.455 491.557,568.122 490.5,570C 486.206,570.214 483.873,568.047 483.5,563.5C 483.685,562.416 484.018,561.416 484.5,560.5 Z"/></g>
<g><path style="opacity:1" fill="#3a1215" d="M 608.5,593.5 C 629.294,593.428 640.294,603.761 641.5,624.5C 640.415,630.585 638.415,635.919 635.5,640.5C 639.91,642.384 644.243,644.551 648.5,647C 648.167,647.333 647.833,647.667 647.5,648C 649.781,650.07 651.947,652.236 654,654.5C 659.016,665.343 659.516,676.343 655.5,687.5C 654.099,689.869 652.432,692.036 650.5,694C 647.804,694.69 645.637,696.19 644,698.5C 641.816,697.892 639.816,698.559 638,700.5C 637,700.167 636,699.833 635,699.5C 634,700.5 633,701.5 632,702.5C 627.981,701.338 623.814,700.672 619.5,700.5C 618.3,704.934 616.8,709.268 615,713.5C 614.363,715.303 613.197,716.636 611.5,717.5C 611.709,718.086 612.043,718.586 612.5,719C 610.01,719.495 608.51,720.995 608,723.5C 607.667,723.167 607.333,722.833 607,722.5C 604.664,726.174 601.997,728.841 599,730.5C 598.586,730.043 598.086,729.709 597.5,729.5C 587.331,736.082 576.331,737.249 564.5,733C 557.829,730.316 553.496,725.483 551.5,718.5C 551.163,713.194 551.83,707.861 553.5,702.5C 547.979,702.032 542.979,700.865 538.5,699C 538.833,698.667 539.167,698.333 539.5,698C 535.729,696.434 532.062,694.601 528.5,692.5C 525.074,687.83 521.574,683.83 518,680.5C 513.736,668.964 515.569,658.131 523.5,648C 528.38,644.817 533.713,642.817 539.5,642C 537.499,638.21 536.499,634.377 536.5,630.5C 539.008,622.486 543.674,615.986 550.5,611C 555.888,607.639 561.554,604.806 567.5,602.5C 574.8,602.879 581.634,605.212 588,609.5C 592.457,600.85 599.29,595.516 608.5,593.5 Z"/></g>
<g><path style="opacity:1" fill="#efe4ce" d="M 609.5,598.5 C 623.332,599.165 631.332,606.332 633.5,620C 632.724,626.334 630.39,632.001 626.5,637C 624.783,638.559 622.783,639.392 620.5,639.5C 620.16,642.144 620.827,644.477 622.5,646.5C 627.909,648.026 633.243,649.859 638.5,652C 641.171,653.25 643.337,655.083 645,657.5C 648.458,665.029 648.958,672.863 646.5,681C 646.833,681.333 647.167,681.667 647.5,682C 641.501,687.291 634.501,690.791 626.5,692.5C 622.221,691.027 618.221,689.027 614.5,686.5C 612.929,687.309 611.262,687.643 609.5,687.5C 609.763,710.911 598.096,723.578 574.5,725.5C 568.252,724.422 563.918,720.922 561.5,715C 561.464,708.793 563.464,702.96 567.5,697.5C 566.541,694.335 564.374,692.668 561,692.5C 548.086,693.575 537.086,688.908 528,678.5C 522.67,667.916 524.336,658.916 533,651.5C 533.333,651.833 533.667,652.167 534,652.5C 534.605,650.519 535.605,650.185 537,651.5C 537.853,649.875 538.853,649.542 540,650.5C 543.561,649.656 547.394,648.656 551.5,647.5C 553.604,645.417 553.938,643.083 552.5,640.5C 545.914,636.831 544.414,631.831 548,625.5C 553.952,617.593 561.952,612.927 572,611.5C 577.089,612.461 581.589,614.628 585.5,618C 587.433,618.783 588.933,618.283 590,616.5C 590.333,616.833 590.667,617.167 591,617.5C 592.019,615.731 592.186,614.064 591.5,612.5C 595.291,604.944 601.291,600.277 609.5,598.5 Z"/></g>
<g><path style="opacity:1" fill="#3b1315" d="M 584.5,631.5 C 589.045,632.031 593.378,633.198 597.5,635C 613.126,648.739 613.293,662.906 598,677.5C 596.984,676.366 596.317,676.699 596,678.5C 595.667,678.167 595.333,677.833 595,677.5C 585.039,683.707 575.705,683.041 567,675.5C 564.613,671.672 563.446,667.505 563.5,663C 565.133,656.22 566.633,649.387 568,642.5C 572.063,636.592 577.563,632.925 584.5,631.5 Z"/></g>
<g><path style="opacity:1" fill="#c5af88" d="M 584.5,642.5 C 591.523,642.297 596.023,645.963 598,653.5C 600.118,661.839 597.285,667.672 589.5,671C 584.924,672.476 580.257,672.81 575.5,672C 573.395,670.807 571.728,669.14 570.5,667C 570.59,663.604 570.59,660.27 570.5,657C 572.103,652.835 574.437,649.169 577.5,646C 580.025,645.104 582.192,645.604 584,647.5C 583.932,645.658 584.099,643.991 584.5,642.5 Z"/></g>
<g><path style="opacity:1" fill="#3b1315" d="M 878.5,832.5 C 882.727,833.227 885.06,835.727 885.5,840C 882.972,845.202 879.639,849.869 875.5,854C 873.866,854.494 872.199,854.66 870.5,854.5C 870.351,853.448 870.517,852.448 871,851.5C 877.216,848.394 880.383,843.394 880.5,836.5C 877.255,836.88 874.255,838.047 871.5,840C 864.806,845.36 858.806,851.36 853.5,858C 852.668,858.688 852.002,858.521 851.5,857.5C 857.851,846.183 866.851,837.849 878.5,832.5 Z"/></g>
<g><path style="opacity:1" fill="#391214" d="M 240.5,827.5 C 242.103,827.312 243.437,827.812 244.5,829C 233.583,840.748 220.916,849.415 206.5,855C 208.924,861.421 208.924,867.921 206.5,874.5C 206.833,875.167 207.167,875.833 207.5,876.5C 214.487,874.327 221.154,871.494 227.5,868C 235.92,861.122 245.254,855.788 255.5,852C 257.821,851.163 260.155,850.83 262.5,851C 246.616,864.058 229.783,874.558 212,882.5C 211.667,882.167 211.333,881.833 211,881.5C 205.881,884.548 202.048,882.881 199.5,876.5C 201.442,870.631 202.275,864.631 202,858.5C 200.354,856.403 198.354,854.736 196,853.5C 195.815,851.174 196.982,849.84 199.5,849.5C 201.473,850.331 203.473,850.498 205.5,850C 216.474,845.852 226.474,840.185 235.5,833C 237.373,831.296 239.04,829.463 240.5,827.5 Z"/></g>
<g><path style="opacity:1" fill="#3d1416" d="M 910.5,800.5 C 940.398,817.229 966.565,838.563 989,864.5C 990.106,868.559 988.939,871.725 985.5,874C 978.537,876.074 971.537,877.241 964.5,877.5C 958.227,876.129 951.894,873.962 945.5,871C 945.043,870.586 944.709,870.086 944.5,869.5C 947.167,869.167 949.833,868.833 952.5,868.5C 959.123,868.42 965.623,868.753 972,869.5C 976.109,868.647 979.942,867.814 983.5,867C 977.752,857.752 970.752,849.586 962.5,842.5C 945.758,828.621 928.424,815.454 910.5,803C 909.402,802.23 909.402,801.397 910.5,800.5 Z"/></g>
<g><path style="opacity:0.989" fill="#3a1214" d="M 636.5,855.5 C 637.497,855.47 638.164,855.97 638.5,857C 631.698,868.479 623.365,878.812 613.5,888C 581.023,915.684 545.69,937.851 507.5,954.5C 507.297,952.61 507.963,951.11 509.5,950C 545.175,932.172 578.508,910.839 609.5,886C 619.823,876.853 628.823,866.686 636.5,855.5 Z"/></g>
<g><path style="opacity:1" fill="#5a221d" d="M 161.5,920.5 C 163.46,921.138 165.293,921.138 167,920.5C 167.5,921 168,921.5 168.5,922C 167.671,923.816 166.837,925.649 166,927.5C 162.597,926.299 159.264,926.299 156,927.5C 154.933,926.809 153.766,926.309 152.5,926C 155.263,923.626 158.263,921.792 161.5,920.5 Z"/></g>
<g><path style="opacity:1" fill="#5a211d" d="M 184.5,931.5 C 180.049,930.851 175.716,929.684 171.5,928C 172.12,925.527 172.786,923.027 173.5,920.5C 177.256,920.97 181.256,921.47 185.5,922C 183.359,925.003 183.026,928.169 184.5,931.5 Z"/></g>
<g><path style="opacity:1" fill="#5a211d" d="M 200.5,937.5 C 195.01,935.799 189.677,933.799 184.5,931.5C 186.311,931.428 187.644,930.595 188.5,929C 188.609,926.758 188.942,924.591 189.5,922.5C 193.114,923.82 196.78,924.987 200.5,926C 201.412,928.906 200.746,931.573 198.5,934C 199.305,935.113 199.972,936.279 200.5,937.5 Z"/></g>
<g><path style="opacity:1" fill="#56201c" d="M 967.5,926.5 C 972.808,927.487 977.975,927.487 983,926.5C 983.303,928.888 984.137,931.055 985.5,933C 979.857,933.864 974.19,934.531 968.5,935C 956.88,938.655 945.213,942.155 933.5,945.5C 931.914,942.659 930.08,939.993 928,937.5C 926.933,936.809 925.766,936.309 924.5,936C 930.071,933.921 936.071,931.921 942.5,930C 951.015,928.448 959.349,927.281 967.5,926.5 Z"/></g>
<g><path style="opacity:1" fill="#5a211d" d="M 994.5,926.5 C 997.879,926.882 1001.55,926.882 1005.5,926.5C 1006.48,926.977 1007.31,927.643 1008,928.5C 1008.33,928.167 1008.67,927.833 1009,927.5C 1010.39,930.278 1010.89,933.278 1010.5,936.5C 1003.96,935.825 997.79,934.825 992,933.5C 990.817,934.731 989.651,934.731 988.5,933.5C 989.615,932.402 989.615,931.235 988.5,930C 990.354,928.447 992.354,927.28 994.5,926.5 Z"/></g>
<g><path style="opacity:1" fill="#5a221d" d="M 200.5,937.5 C 202.017,937.489 203.184,936.823 204,935.5C 204.725,933.051 205.725,930.717 207,928.5C 211.6,930.465 216.1,932.965 220.5,936C 217.327,938.835 214.493,942.002 212,945.5C 209.026,942.667 205.526,940.667 201.5,939.5C 200.702,939.043 200.369,938.376 200.5,937.5 Z"/></g>
<g><path style="opacity:1" fill="#3b1315" d="M 291.5,897.5 C 292.586,897.62 293.253,898.287 293.5,899.5C 291.172,912.976 286.672,925.976 280,938.5C 275.12,944.095 269.287,945.095 262.5,941.5C 260.929,942.309 259.262,942.643 257.5,942.5C 257.277,939.886 258.444,938.219 261,937.5C 264.991,938.451 269.158,938.451 273.5,937.5C 280.039,924.421 286.039,911.088 291.5,897.5 Z"/></g>
<g><path style="opacity:1" fill="#5a211d" d="M 921.5,936.5 C 923.549,936.706 923.883,937.539 922.5,939C 924.155,941.653 926.155,943.986 928.5,946C 924.131,947.267 920.297,949.433 917,952.5C 915.601,951.773 914.101,951.273 912.5,951C 913.152,948.91 913.319,946.743 913,944.5C 915.157,941.024 917.99,938.357 921.5,936.5 Z"/></g>
<g><path style="opacity:1" fill="#5a221d" d="M 222.5,939.5 C 227.809,944.313 232.642,949.647 237,955.5C 238.15,957.754 238.484,960.087 238,962.5C 235.451,959.95 232.618,957.783 229.5,956C 232.307,954.603 232.807,952.769 231,950.5C 229.294,951.308 228.461,952.641 228.5,954.5C 224.761,952.794 221.095,950.794 217.5,948.5C 219.428,945.643 221.095,942.643 222.5,939.5 Z"/></g>
<g><path style="opacity:0.972" fill="#391214" d="M 669.5,940.5 C 672.684,940.394 676.017,940.728 679.5,941.5C 680.871,944.326 679.871,945.826 676.5,946C 666.842,947.096 657.008,948.596 647,950.5C 643.527,950.022 639.861,950.022 636,950.5C 598.788,955.877 561.955,963.711 525.5,974C 521.35,975.576 517.35,977.409 513.5,979.5C 512.246,977.741 512.579,976.241 514.5,975C 531.405,968.438 548.738,963.104 566.5,959C 597.474,951.847 627.974,946.681 658,943.5C 661.917,942.439 665.751,941.439 669.5,940.5 Z"/></g>
<g><path style="opacity:0.094" fill="#1e0504" d="M 991.5,961.5 C 992.172,960.733 993.005,960.066 994,959.5C 994.188,961.061 993.355,961.728 991.5,961.5 Z"/></g>
<g><path style="opacity:0.012" fill="#000000" d="M 991.5,961.5 C 991.103,962.525 990.437,962.692 989.5,962C 990.094,961.536 990.761,961.369 991.5,961.5 Z"/></g>
<g><path style="opacity:0.263" fill="#2f0e0f" d="M 241.5,972.5 C 242.239,972.369 242.906,972.536 243.5,973C 242.61,976.292 240.943,976.959 238.5,975C 239.571,974.148 240.571,973.315 241.5,972.5 Z"/></g>
<g><path style="opacity:1" fill="#5a211d" d="M 615.5,1023.5 C 625.611,1024.78 635.444,1024.78 645,1023.5C 646.285,1023.95 647.452,1024.62 648.5,1025.5C 649.772,1024.95 651.106,1024.62 652.5,1024.5C 657.835,1024.89 663.002,1025.89 668,1027.5C 671.672,1026.51 675.506,1027.17 679.5,1029.5C 681.745,1029.75 684.078,1029.75 686.5,1029.5C 693.044,1032.41 699.544,1034.41 706,1035.5C 706.308,1036.31 706.808,1036.97 707.5,1037.5C 710.539,1038.57 713.539,1039.74 716.5,1041C 717.035,1043.11 718.035,1043.61 719.5,1042.5C 726.454,1047.29 732.954,1052.62 739,1058.5C 740.466,1062.03 741.466,1065.7 742,1069.5C 744.247,1071.15 746.58,1071.49 749,1070.5C 750.44,1072.59 750.274,1074.76 748.5,1077C 749.982,1079.67 749.815,1082.17 748,1084.5C 743.197,1082.04 738.197,1080.04 733,1078.5C 732.667,1078.83 732.333,1079.17 732,1079.5C 714.204,1073.49 695.704,1069.32 676.5,1067C 657.151,1066.72 638.651,1066.55 621,1066.5C 613.623,1067.13 606.289,1067.8 599,1068.5C 576.042,1066.48 553.208,1069.48 530.5,1077.5C 523.597,1076.54 516.93,1077.54 510.5,1080.5C 509.833,1080.17 509.167,1079.83 508.5,1079.5C 486.189,1086.39 464.522,1096.23 443.5,1109C 439.594,1113.44 434.928,1116.61 429.5,1118.5C 428.801,1114.9 427.801,1111.4 426.5,1108C 427.422,1105.8 427.422,1103.47 426.5,1101C 430.927,1097.22 434.927,1092.88 438.5,1088C 441.797,1085.7 444.797,1083.04 447.5,1080C 473.711,1063.56 501.044,1049.23 529.5,1037C 538.658,1034.75 547.492,1032.59 556,1030.5C 559.396,1030.59 562.73,1030.59 566,1030.5C 568.043,1028.48 570.043,1028.15 572,1029.5C 576.359,1028.43 581.025,1027.43 586,1026.5C 588.934,1027.72 592.101,1027.38 595.5,1025.5C 596.967,1025.72 598.467,1026.06 600,1026.5C 601.57,1025.64 603.237,1024.98 605,1024.5C 607.351,1024.82 609.684,1025.15 612,1025.5C 613.302,1024.92 614.469,1024.25 615.5,1023.5 Z"/></g>
<g><path style="opacity:0.953" fill="#371213" d="M 790.5,1027.5 C 791.833,1028.17 791.833,1028.17 790.5,1027.5 Z"/></g>
<g><path style="opacity:1" fill="#3a1214" d="M 569.5,1038.5 C 570.496,1038.41 571.329,1038.75 572,1039.5C 574.124,1047.96 574.624,1056.96 573.5,1066.5C 571.571,1066.77 569.905,1066.27 568.5,1065C 569.22,1056.18 569.553,1047.35 569.5,1038.5 Z"/></g>
<g><path style="opacity:1" fill="#391214" d="M 648.5,1034.5 C 651.926,1036.01 652.26,1038.18 649.5,1041C 649.395,1045.65 649.395,1050.32 649.5,1055C 647.919,1055.71 646.419,1056.54 645,1057.5C 644.085,1056.67 643.419,1055.67 643,1054.5C 642.998,1049.01 643.998,1043.34 646,1037.5C 646.698,1036.31 647.531,1035.31 648.5,1034.5 Z"/></g>
<g><path style="opacity:1" fill="#3b1315" d="M 669.5,1039.5 C 671.103,1039.31 672.437,1039.81 673.5,1041C 672.653,1043.72 671.653,1046.38 670.5,1049C 671.129,1052.04 669.963,1054.54 667,1056.5C 666.167,1055.67 665.333,1054.83 664.5,1054C 666.081,1049.09 667.748,1044.26 669.5,1039.5 Z"/></g>
<g><path style="opacity:1" fill="#3a1315" d="M 597.5,1034.5 C 600.488,1034.15 601.821,1035.49 601.5,1038.5C 601.056,1044.48 600.056,1050.31 598.5,1056C 599.051,1057.4 599.384,1058.73 599.5,1060C 597.694,1064.16 595.361,1064.49 592.5,1061C 594.489,1052.25 596.156,1043.41 597.5,1034.5 Z"/></g>
<g><path style="opacity:1" fill="#3a1315" d="M 705.5,1044.5 C 706.222,1044.92 706.722,1045.58 707,1046.5C 708.484,1051.47 707.15,1055.8 703,1059.5C 701.115,1059.14 700.281,1057.97 700.5,1056C 701.332,1052.84 702.166,1049.67 703,1046.5C 703.995,1045.93 704.828,1045.27 705.5,1044.5 Z"/></g>
<g><path style="opacity:1" fill="#371213" d="M 773.5,1059.5 C 774.833,1060.17 774.833,1060.17 773.5,1059.5 Z"/></g>
<g><path style="opacity:1" fill="#391214" d="M 491.5,1059.5 C 493.124,1059.36 494.29,1060.03 495,1061.5C 494.913,1066.72 495.413,1072.05 496.5,1077.5C 494.418,1077.53 492.584,1076.86 491,1075.5C 490.267,1070.11 490.433,1064.78 491.5,1059.5 Z"/></g>
<g><path style="opacity:1" fill="#391214" d="M 471.5,1070.5 C 472.822,1070.33 473.989,1070.66 475,1071.5C 476.665,1075.85 478.165,1080.18 479.5,1084.5C 477.856,1084.71 476.356,1084.38 475,1083.5C 473.051,1079.37 471.884,1075.04 471.5,1070.5 Z"/></g>
<g><path style="opacity:0.875" fill="#371114" d="M 652.5,1092.5 C 652.833,1092.5 653.167,1092.5 653.5,1092.5C 653.315,1093.17 652.981,1093.17 652.5,1092.5 Z"/></g>
<g><path style="opacity:0.945" fill="#371213" d="M 720.5,1101.5 C 719.833,1102.17 719.833,1102.17 720.5,1101.5 Z"/></g>
<g><path style="opacity:0.977" fill="#391315" d="M 624.5,1300.5 C 627.224,1302.72 629.891,1305.22 632.5,1308C 635.412,1309.37 638.246,1310.87 641,1312.5C 641.333,1312.17 641.667,1311.83 642,1311.5C 651.036,1313.69 660.203,1315.36 669.5,1316.5C 674.476,1316.11 679.642,1316.11 685,1316.5C 688.718,1315.9 692.384,1315.24 696,1314.5C 700.757,1313.7 705.59,1312.2 710.5,1310C 715.669,1308.83 720.836,1307.67 726,1306.5C 731.52,1307.21 736.853,1307.21 742,1306.5C 743.353,1307.69 744.52,1309.02 745.5,1310.5C 745.538,1324.15 745.205,1337.31 744.5,1350C 746.414,1353.22 746.748,1356.22 745.5,1359C 746.323,1373.25 746.99,1387.09 747.5,1400.5C 745.652,1402.97 745.652,1405.14 747.5,1407C 746.458,1415.71 746.458,1424.38 747.5,1433C 746.641,1437.59 745.641,1442.26 744.5,1447C 744.729,1450.43 744.729,1453.76 744.5,1457C 743.833,1458.67 743.167,1460.33 742.5,1462C 742.295,1466.51 742.628,1470.84 743.5,1475C 741.323,1483.4 740.323,1491.74 740.5,1500C 739.419,1508.91 737.752,1517.74 735.5,1526.5C 736.262,1526.91 737.262,1527.08 738.5,1527C 739.872,1530.29 739.538,1533.46 737.5,1536.5C 738.624,1537.91 739.624,1539.41 740.5,1541C 740.146,1548.7 740.146,1556.53 740.5,1564.5C 741.699,1567.43 742.699,1570.43 743.5,1573.5C 742.885,1582.07 742.551,1590.9 742.5,1600C 743.167,1602 743.833,1604 744.5,1606C 744.167,1607.67 743.833,1609.33 743.5,1611C 745.235,1621.48 746.401,1632.31 747,1643.5C 742.761,1652.32 737.594,1659.82 731.5,1666C 721.862,1671.5 712.195,1674.66 702.5,1675.5C 699.031,1676.39 695.531,1677.39 692,1678.5C 690.221,1677.52 688.555,1677.85 687,1679.5C 684.215,1678.8 681.548,1678.47 679,1678.5C 677.209,1680.51 675.875,1680.51 675,1678.5C 672.782,1679.47 670.449,1680.14 668,1680.5C 663.452,1679.4 658.952,1679.4 654.5,1680.5C 651.252,1679.35 647.919,1678.52 644.5,1678C 635.449,1673.51 626.449,1669.85 617.5,1667C 615.789,1664.41 613.955,1661.91 612,1659.5C 611.803,1656.31 610.97,1653.31 609.5,1650.5C 610.855,1649.32 610.688,1648.32 609,1647.5C 607.442,1638.29 609.108,1629.62 614,1621.5C 616.862,1618.88 620.195,1617.21 624,1616.5C 624.504,1601.86 631.337,1591.69 644.5,1586C 638.776,1579.91 635.109,1572.58 633.5,1564C 634.257,1562.49 635.257,1561.15 636.5,1560C 636.167,1559.67 635.833,1559.33 635.5,1559C 638.95,1556.48 642.284,1553.81 645.5,1551C 640.359,1540.23 634.693,1529.4 628.5,1518.5C 629.48,1516.48 630.814,1514.65 632.5,1513C 632.848,1509.71 632.181,1506.21 630.5,1502.5C 631.511,1480.35 631.511,1457.35 630.5,1433.5C 626.981,1410.95 623.981,1388.78 621.5,1367C 621.944,1365.47 622.277,1363.97 622.5,1362.5C 621.869,1358.97 621.202,1355.47 620.5,1352C 620.944,1350.47 621.277,1348.97 621.5,1347.5C 620.533,1336.24 619.533,1325.24 618.5,1314.5C 618.701,1312.03 619.368,1309.69 620.5,1307.5C 621.72,1306.29 622.887,1306.29 624,1307.5C 624.692,1306.97 625.192,1306.31 625.5,1305.5C 624.691,1303.93 624.357,1302.26 624.5,1300.5 Z"/></g>
<g><path style="opacity:1" fill="#563734" d="M 625.5,1312.5 C 628.216,1314.47 631.216,1315.97 634.5,1317C 644.825,1319.23 655.158,1321.4 665.5,1323.5C 674.099,1323.15 682.599,1323.15 691,1323.5C 694.667,1322.83 698.333,1322.17 702,1321.5C 702.333,1321.83 702.667,1322.17 703,1322.5C 705.607,1321.73 708.273,1321.06 711,1320.5C 712.646,1322.14 713.646,1321.81 714,1319.5C 715.824,1320.24 717.824,1320.57 720,1320.5C 720.928,1318.67 722.094,1318.33 723.5,1319.5C 727.548,1317.83 731.548,1316.16 735.5,1314.5C 736.478,1314.98 737.311,1315.64 738,1316.5C 737.763,1319.78 737.93,1322.95 738.5,1326C 737.833,1329 737.167,1332 736.5,1335C 737.194,1349.65 737.194,1364.98 736.5,1381C 738.686,1381.6 738.852,1382.77 737,1384.5C 736.81,1390.42 736.31,1396.25 735.5,1402C 736.446,1407.83 736.113,1414.16 734.5,1421C 734.287,1426.27 734.62,1431.61 735.5,1437C 734.5,1444.67 733.5,1452.33 732.5,1460C 732.374,1462.23 732.707,1464.57 733.5,1467C 731.912,1470.69 731.578,1474.53 732.5,1478.5C 728.941,1491.1 726.774,1503.77 726,1516.5C 723.313,1517.84 721.647,1519.51 721,1521.5C 717.895,1518.82 714.395,1516.65 710.5,1515C 706.5,1513.67 702.5,1512.33 698.5,1511C 696.559,1510.26 694.726,1510.42 693,1511.5C 691.803,1509.21 690.137,1508.88 688,1510.5C 679.637,1509.08 671.637,1508.42 664,1508.5C 661.237,1508.92 658.57,1509.58 656,1510.5C 652.664,1509.8 649.498,1510.47 646.5,1512.5C 645.945,1499.6 643.945,1486.77 640.5,1474C 640.833,1471 641.167,1468 641.5,1465C 640.833,1464.67 640.167,1464.33 639.5,1464C 639.847,1460.99 640.18,1457.99 640.5,1455C 639.65,1445.59 638.65,1436.09 637.5,1426.5C 638.002,1425.28 638.335,1424.12 638.5,1423C 637.355,1417.36 636.355,1411.69 635.5,1406C 635.833,1405.67 636.167,1405.33 636.5,1405C 635.489,1398.93 634.155,1392.93 632.5,1387C 633.271,1383.44 633.271,1379.77 632.5,1376C 631.833,1375 631.167,1374 630.5,1373C 630.755,1368.56 630.755,1364.23 630.5,1360C 629.833,1358.67 629.167,1357.33 628.5,1356C 628.616,1354.73 628.949,1353.4 629.5,1352C 628.833,1351.33 628.167,1350.67 627.5,1350C 627.252,1346.12 627.585,1342.45 628.5,1339C 626.986,1337.56 626.653,1336.06 627.5,1334.5C 626.373,1330.86 625.373,1327.2 624.5,1323.5C 624.243,1319.96 624.576,1316.29 625.5,1312.5 Z"/></g>
<g><path style="opacity:0.98" fill="#391315" d="M 443.5,1365.5 C 444.873,1365.34 446.207,1365.51 447.5,1366C 467.327,1383.26 490.494,1391.43 517,1390.5C 522.901,1390.08 528.568,1388.75 534,1386.5C 540.166,1388.01 542.666,1391.84 541.5,1398C 543.875,1405.98 545.208,1413.98 545.5,1422C 544.979,1426.48 544.979,1430.81 545.5,1435C 544.816,1441.8 544.149,1448.64 543.5,1455.5C 544.477,1460.49 544.811,1465.33 544.5,1470C 543.606,1473.41 542.939,1476.91 542.5,1480.5C 543.482,1484.81 543.815,1488.98 543.5,1493C 542.526,1499.35 541.526,1505.68 540.5,1512C 542.45,1513.88 544.784,1515.22 547.5,1516C 548.059,1516.72 548.392,1517.56 548.5,1518.5C 542.307,1529.4 536.641,1540.23 531.5,1551C 534.716,1553.81 538.05,1556.48 541.5,1559C 541.167,1559.33 540.833,1559.67 540.5,1560C 541.743,1561.15 542.743,1562.49 543.5,1564C 541.891,1572.58 538.224,1579.91 532.5,1586C 545.663,1591.69 552.496,1601.86 553,1616.5C 560.411,1617.87 565.078,1622.21 567,1629.5C 568.466,1634.51 568.966,1639.51 568.5,1644.5C 567.537,1649.25 566.37,1654.25 565,1659.5C 563.045,1661.91 561.211,1664.41 559.5,1667C 550.551,1669.85 541.551,1673.51 532.5,1678C 529.081,1678.52 525.748,1679.35 522.5,1680.5C 518.048,1679.4 513.548,1679.4 509,1680.5C 506.551,1680.14 504.218,1679.47 502,1678.5C 501.667,1679.17 501.333,1679.83 501,1680.5C 499.333,1679.83 497.667,1679.17 496,1678.5C 494.176,1679.24 492.176,1679.57 490,1679.5C 488.445,1677.85 486.779,1677.52 485,1678.5C 481.469,1677.39 477.969,1676.39 474.5,1675.5C 467.708,1674.48 460.375,1672.64 452.5,1670C 447.707,1667.95 443.707,1664.95 440.5,1661C 435.9,1654.5 431.9,1647.17 428.5,1639C 429.94,1633.69 431.273,1628.36 432.5,1623C 432.797,1617.18 432.797,1611.52 432.5,1606C 433.167,1604 433.833,1602 434.5,1600C 434.449,1590.9 434.115,1582.07 433.5,1573.5C 434.301,1570.43 435.301,1567.43 436.5,1564.5C 436.854,1556.53 436.854,1548.7 436.5,1541C 437.376,1539.41 438.376,1537.91 439.5,1536.5C 436.501,1532.36 436.834,1528.69 440.5,1525.5C 437.246,1502.79 434.913,1480.29 433.5,1458C 434.308,1450.86 434.308,1443.53 433.5,1436C 434.896,1420.78 436.896,1405.62 439.5,1390.5C 438.505,1387.9 438.172,1385.07 438.5,1382C 438.578,1375.97 440.244,1370.47 443.5,1365.5 Z"/></g>
<g><path style="opacity:1" fill="#573835" d="M 445.5,1372.5 C 453.843,1377.01 461.509,1382.51 468.5,1389C 475.319,1392.5 482.486,1395 490,1396.5C 493.428,1395.74 496.762,1395.41 500,1395.5C 501.333,1396.17 502.667,1396.83 504,1397.5C 510.541,1396.42 517.041,1396.42 523.5,1397.5C 527.155,1396.94 530.655,1395.94 534,1394.5C 534.251,1396.43 534.751,1398.27 535.5,1400C 534.786,1401.34 535.12,1402.68 536.5,1404C 535.701,1406.75 535.368,1409.75 535.5,1413C 537.182,1415.61 537.848,1418.27 537.5,1421C 536.833,1421.67 536.167,1422.33 535.5,1423C 535.709,1429.21 536.042,1435.38 536.5,1441.5C 535.851,1448.36 535.184,1455.2 534.5,1462C 535.11,1464.47 534.776,1466.97 533.5,1469.5C 533.581,1473.3 533.915,1477.47 534.5,1482C 533.833,1483.67 533.167,1485.33 532.5,1487C 532.833,1487.33 533.167,1487.67 533.5,1488C 532.5,1493.67 531.5,1499.33 530.5,1505C 530.833,1506 531.167,1507 531.5,1508C 530.929,1509.21 530.262,1510.37 529.5,1511.5C 524.311,1509.92 518.978,1508.92 513.5,1508.5C 508.208,1508.82 502.874,1508.82 497.5,1508.5C 494.158,1508.48 490.991,1509.15 488,1510.5C 483.664,1509.75 479.664,1510.75 476,1513.5C 474.286,1512.07 472.953,1512.41 472,1514.5C 470.23,1513.72 468.397,1513.89 466.5,1515C 461.04,1517.56 455.706,1520.4 450.5,1523.5C 450.167,1523 449.833,1522.5 449.5,1522C 450.081,1519.83 449.414,1517.83 447.5,1516C 449.615,1511.56 449.615,1506.9 447.5,1502C 448.357,1501.31 449.023,1500.48 449.5,1499.5C 448.167,1497.5 448.167,1495.5 449.5,1493.5C 448.833,1493.17 448.167,1492.83 447.5,1492.5C 449.024,1490.21 448.691,1488.21 446.5,1486.5C 447.167,1485.17 447.833,1483.83 448.5,1482.5C 447.167,1481.5 447.167,1480.5 448.5,1479.5C 448.023,1478.52 447.357,1477.69 446.5,1477C 446.742,1470.74 447.075,1464.74 447.5,1459C 446.992,1455.22 445.992,1451.55 444.5,1448C 446.906,1445.42 446.906,1442.75 444.5,1440C 445.602,1437.6 445.769,1435.1 445,1432.5C 444.111,1433.89 443.611,1433.72 443.5,1432C 445.973,1429.72 445.973,1427.39 443.5,1425C 444.167,1424.67 444.833,1424.33 445.5,1424C 442.833,1420.33 442.833,1416.67 445.5,1413C 444.582,1407.74 444.916,1402.24 446.5,1396.5C 446.103,1388.47 445.769,1380.47 445.5,1372.5 Z"/></g>
<g><path style="opacity:1" fill="#efe3ce" d="M 492.5,1513.5 C 498.062,1514.02 503.062,1514.02 507.5,1513.5C 515.154,1514.62 522.82,1515.78 530.5,1517C 532.09,1518.05 533.59,1519.21 535,1520.5C 538.93,1518.97 540.596,1520.3 540,1524.5C 535.054,1532.89 530.221,1541.39 525.5,1550C 520.582,1550.19 515.749,1550.69 511,1551.5C 510.586,1551.04 510.086,1550.71 509.5,1550.5C 506.298,1551.13 503.131,1551.79 500,1552.5C 499.439,1551.98 498.772,1551.64 498,1551.5C 484.817,1554.13 471.317,1556.29 457.5,1558C 457.833,1557.67 458.167,1557.33 458.5,1557C 453.968,1549.96 449.635,1542.8 445.5,1535.5C 446.098,1534.21 446.598,1532.87 447,1531.5C 460.53,1521.27 475.697,1515.27 492.5,1513.5 Z"/></g>
<g><path style="opacity:1" fill="#efe3ce" d="M 668.5,1513.5 C 673.125,1514.25 678.292,1514.25 684,1513.5C 699.721,1515.3 714.221,1520.46 727.5,1529C 729.167,1530.67 730.833,1532.33 732.5,1534C 728.23,1541.93 723.564,1549.6 718.5,1557C 718.833,1557.33 719.167,1557.67 719.5,1558C 708.833,1557.21 698.333,1555.38 688,1552.5C 687.667,1552.83 687.333,1553.17 687,1553.5C 684.393,1552.73 681.727,1552.06 679,1551.5C 678.228,1551.64 677.561,1551.98 677,1552.5C 673.869,1551.79 670.702,1551.13 667.5,1550.5C 666.914,1550.71 666.414,1551.04 666,1551.5C 661.251,1550.69 656.418,1550.19 651.5,1550C 646.793,1541.42 641.96,1532.92 637,1524.5C 636.333,1523.5 636.333,1522.5 637,1521.5C 639.546,1519.71 642.713,1518.21 646.5,1517C 653.983,1515.86 661.317,1514.7 668.5,1513.5 Z"/></g>
<g><path style="opacity:1" fill="#efe3ce" d="M 441.5,1541.5 C 443.946,1542.39 444.612,1543.89 443.5,1546C 445.792,1549.42 447.959,1552.92 450,1556.5C 451.255,1557.21 452.421,1558.04 453.5,1559C 450.965,1567.26 451.299,1575.6 454.5,1584C 456.936,1587.61 460.269,1589.78 464.5,1590.5C 464.719,1591.68 464.386,1592.68 463.5,1593.5C 456.649,1595.77 450.816,1600.1 446,1606.5C 445.506,1608.13 445.34,1609.8 445.5,1611.5C 447.655,1611.63 449.655,1611.13 451.5,1610C 460.314,1601.26 470.98,1595.93 483.5,1594C 484.931,1593.53 486.097,1592.7 487,1591.5C 488.398,1592.05 489.732,1592.38 491,1592.5C 494.951,1591.77 498.951,1591.1 503,1590.5C 509.667,1590.5 516.333,1590.5 523,1590.5C 529.304,1591.57 534.471,1594.57 538.5,1599.5C 541.029,1604.44 543.029,1609.61 544.5,1615C 543.538,1618.06 543.871,1621.39 545.5,1625C 544.932,1627.68 543.932,1630.18 542.5,1632.5C 538.783,1632.97 534.616,1633.97 530,1635.5C 518.694,1633.96 507.194,1632.63 495.5,1631.5C 487.064,1632.1 478.398,1632.43 469.5,1632.5C 463.697,1631.48 458.031,1630.15 452.5,1628.5C 447.821,1629.33 443.154,1629.16 438.5,1628C 439.357,1627.31 440.023,1626.48 440.5,1625.5C 440.777,1619.73 440.777,1614.23 440.5,1609C 441.167,1607 441.833,1605 442.5,1603C 442.285,1596.93 442.285,1591.09 442.5,1585.5C 441.873,1582.3 441.206,1579.13 440.5,1576C 441.603,1571.73 442.27,1567.06 442.5,1562C 442.241,1554.93 441.908,1548.1 441.5,1541.5 Z"/></g>
<g><path style="opacity:1" fill="#efe3ce" d="M 734.5,1541.5 C 734.931,1547.93 734.931,1554.76 734.5,1562C 734.457,1566.16 735.124,1570.16 736.5,1574C 735.98,1577.54 735.313,1581.38 734.5,1585.5C 734.715,1591.09 734.715,1596.93 734.5,1603C 735.167,1605 735.833,1607 736.5,1609C 736.223,1614.23 736.223,1619.73 736.5,1625.5C 736.977,1626.48 737.643,1627.31 738.5,1628C 733.846,1629.16 729.179,1629.33 724.5,1628.5C 711.509,1632.24 698.009,1633.24 684,1631.5C 671.293,1632.44 658.793,1633.77 646.5,1635.5C 642.055,1634.22 638.055,1633.22 634.5,1632.5C 631.562,1628.05 631.229,1623.55 633.5,1619C 632.773,1609.62 636.106,1601.45 643.5,1594.5C 646.968,1593.09 650.468,1591.76 654,1590.5C 660.667,1590.5 667.333,1590.5 674,1590.5C 678.049,1591.1 682.049,1591.77 686,1592.5C 687.268,1592.38 688.602,1592.05 690,1591.5C 690.903,1592.7 692.069,1593.53 693.5,1594C 706.02,1595.93 716.686,1601.26 725.5,1610C 727.345,1611.13 729.345,1611.63 731.5,1611.5C 731.66,1609.8 731.494,1608.13 731,1606.5C 726.184,1600.1 720.351,1595.77 713.5,1593.5C 712.614,1592.68 712.281,1591.68 712.5,1590.5C 716.731,1589.78 720.064,1587.61 722.5,1584C 725.701,1575.6 726.035,1567.26 723.5,1559C 728.923,1553.93 732.59,1548.1 734.5,1541.5 Z"/></g>
<g><path style="opacity:1" fill="#c5af88" d="M 509.5,1556.5 C 514.059,1556.98 518.892,1556.98 524,1556.5C 525.734,1557.25 527.567,1557.75 529.5,1558C 530.817,1559.66 532.483,1560.83 534.5,1561.5C 535.556,1567.18 534.223,1572.35 530.5,1577C 515.186,1579.34 499.686,1582.17 484,1585.5C 479.571,1584.64 475.238,1584.64 471,1585.5C 469,1584.83 467,1584.17 465,1583.5C 463.127,1584.09 461.46,1583.42 460,1581.5C 459.697,1579.11 458.863,1576.94 457.5,1575C 457.5,1571.33 457.5,1567.67 457.5,1564C 474.914,1560.7 492.247,1558.2 509.5,1556.5 Z"/></g>
<g><path style="opacity:1" fill="#c5af88" d="M 651.5,1556.5 C 672.204,1556.12 693.037,1558.45 714,1563.5C 716.319,1562.7 718.486,1563.2 720.5,1565C 719.833,1568 719.167,1571 718.5,1574C 718.833,1574.33 719.167,1574.67 719.5,1575C 718.313,1577.77 716.98,1580.44 715.5,1583C 712.579,1583.67 709.412,1584.5 706,1585.5C 701.762,1584.64 697.429,1584.64 693,1585.5C 677.314,1582.17 661.814,1579.34 646.5,1577C 642.777,1572.35 641.444,1567.18 642.5,1561.5C 644.772,1560.56 646.772,1559.23 648.5,1557.5C 649.922,1558.78 650.922,1558.44 651.5,1556.5 Z"/></g>
<g><path style="opacity:1" fill="#c5b088" d="M 553.5,1626.5 C 557.693,1630.2 559.693,1635.04 559.5,1641C 559.512,1648.12 557.178,1654.62 552.5,1660.5C 551.914,1660.29 551.414,1659.96 551,1659.5C 550.668,1656.49 549.834,1653.66 548.5,1651C 548.986,1648.27 548.32,1645.6 546.5,1643C 550.268,1640.51 553.934,1637.85 557.5,1635C 555.731,1632.3 554.398,1629.47 553.5,1626.5 Z"/></g>
<g><path style="opacity:1" fill="#c5b088" d="M 621.5,1626.5 C 622.497,1626.47 623.164,1626.97 623.5,1628C 622.174,1630.32 620.84,1632.65 619.5,1635C 623.066,1637.85 626.732,1640.51 630.5,1643C 629.021,1648.66 627.188,1654.49 625,1660.5C 616.568,1650.31 615.402,1638.98 621.5,1626.5 Z"/></g>
<g><path style="opacity:1" fill="#c5af88" d="M 438.5,1634.5 C 441.523,1635.32 444.356,1635.32 447,1634.5C 447.483,1635.45 447.649,1636.45 447.5,1637.5C 449.167,1637.5 450.833,1637.5 452.5,1637.5C 452.178,1639.72 452.845,1641.56 454.5,1643C 454.167,1643.33 453.833,1643.67 453.5,1644C 454.877,1649.73 455.377,1655.57 455,1661.5C 452.833,1660 450.667,1658.5 448.5,1657C 445.437,1651.83 441.771,1645.99 437.5,1639.5C 438.309,1637.93 438.643,1636.26 438.5,1634.5 Z"/></g>
<g><path style="opacity:1" fill="#c5af88" d="M 729.5,1634.5 C 732.158,1635.15 734.991,1635.15 738,1634.5C 738.346,1636.22 738.846,1637.88 739.5,1639.5C 737.046,1642.9 734.713,1646.4 732.5,1650C 732.833,1650.33 733.167,1650.67 733.5,1651C 730.446,1653.95 727.446,1656.95 724.5,1660C 721.951,1662.02 720.951,1661.19 721.5,1657.5C 721.915,1652.92 722.582,1648.42 723.5,1644C 723.167,1643.67 722.833,1643.33 722.5,1643C 724.155,1641.56 724.822,1639.72 724.5,1637.5C 726.167,1637.5 727.833,1637.5 729.5,1637.5C 729.5,1636.5 729.5,1635.5 729.5,1634.5 Z"/></g>
<g><path style="opacity:1" fill="#c5af88" d="M 459.5,1636.5 C 462.684,1637.42 465.85,1638.42 469,1639.5C 469.333,1639.17 469.667,1638.83 470,1638.5C 473.342,1647.54 475.508,1656.88 476.5,1666.5C 471.688,1666.71 467.021,1665.88 462.5,1664C 462.833,1663.67 463.167,1663.33 463.5,1663C 462.663,1657.97 461.663,1652.97 460.5,1648C 460.833,1647.67 461.167,1647.33 461.5,1647C 460.751,1643.93 459.751,1640.93 458.5,1638C 459.056,1637.62 459.389,1637.12 459.5,1636.5 Z"/></g>
<g><path style="opacity:1" fill="#c5b088" d="M 716.5,1636.5 C 717.289,1636.78 717.956,1637.28 718.5,1638C 717.249,1640.93 716.249,1643.93 715.5,1647C 715.833,1647.33 716.167,1647.67 716.5,1648C 715.337,1652.97 714.337,1657.97 713.5,1663C 713.833,1663.33 714.167,1663.67 714.5,1664C 709.979,1665.88 705.312,1666.71 700.5,1666.5C 701.492,1656.88 703.658,1647.54 707,1638.5C 707.333,1638.83 707.667,1639.17 708,1639.5C 710.949,1638.56 713.783,1637.56 716.5,1636.5 Z"/></g>
<g><path style="opacity:1" fill="#c5af88" d="M 483.5,1638.5 C 484.151,1639.09 484.818,1639.76 485.5,1640.5C 489.121,1640.57 492.621,1640.24 496,1639.5C 496.925,1640.05 497.758,1640.71 498.5,1641.5C 499.991,1646.76 501.658,1651.59 503.5,1656C 502.89,1658.47 503.224,1660.97 504.5,1663.5C 504.162,1665.66 504.162,1667.99 504.5,1670.5C 500.726,1670.29 497.226,1670.29 494,1670.5C 491.667,1669.83 489.333,1669.17 487,1668.5C 485.757,1669.34 484.59,1669 483.5,1667.5C 481.131,1658.23 478.464,1649.06 475.5,1640C 477.235,1639.35 478.902,1639.52 480.5,1640.5C 481.739,1640.06 482.739,1639.39 483.5,1638.5 Z"/></g>
<g><path style="opacity:1" fill="#c5af88" d="M 680.5,1639.5 C 687.415,1640.09 694.415,1640.42 701.5,1640.5C 698.427,1649.39 695.76,1658.39 693.5,1667.5C 692.41,1669 691.243,1669.34 690,1668.5C 687.667,1669.17 685.333,1669.83 683,1670.5C 679.774,1670.29 676.274,1670.29 672.5,1670.5C 672.213,1666.13 672.88,1661.79 674.5,1657.5C 673.653,1655.94 673.986,1654.44 675.5,1653C 675.167,1652.67 674.833,1652.33 674.5,1652C 675.848,1647.42 677.848,1643.26 680.5,1639.5 Z"/></g>
<g><path style="opacity:1" fill="#c5af88" d="M 503.5,1641.5 C 510.776,1641.93 518.11,1642.6 525.5,1643.5C 526.833,1650.5 528.167,1657.5 529.5,1664.5C 529.331,1666.12 528.997,1667.78 528.5,1669.5C 525.63,1670.12 522.796,1670.79 520,1671.5C 516.667,1670.17 513.333,1670.17 510,1671.5C 509.851,1661.18 507.684,1651.18 503.5,1641.5 Z"/></g>
<g><path style="opacity:1" fill="#c5af88" d="M 664.5,1641.5 C 667.357,1641.42 670.357,1641.76 673.5,1642.5C 669.108,1651.8 666.942,1661.47 667,1671.5C 663.667,1670.17 660.333,1670.17 657,1671.5C 654.204,1670.79 651.37,1670.12 648.5,1669.5C 648.003,1667.78 647.669,1666.12 647.5,1664.5C 648.833,1657.5 650.167,1650.5 651.5,1643.5C 655.884,1643.63 660.217,1642.96 664.5,1641.5 Z"/></g>
<g><path style="opacity:1" fill="#c5af88" d="M 541.5,1642.5 C 543.085,1643.47 544.085,1644.97 544.5,1647C 544.043,1647.41 543.709,1647.91 543.5,1648.5C 544.509,1653.27 545.509,1657.77 546.5,1662C 543.081,1664.04 539.414,1665.54 535.5,1666.5C 534.692,1666.19 534.025,1665.69 533.5,1665C 533.783,1661.9 533.783,1658.9 533.5,1656C 531.637,1652.02 530.804,1647.85 531,1643.5C 531.725,1644.06 532.558,1644.39 533.5,1644.5C 536.349,1644.04 539.016,1643.37 541.5,1642.5 Z"/></g>
<g><path style="opacity:1" fill="#c5af88" d="M 633.5,1642.5 C 637.688,1643.79 641.855,1644.12 646,1643.5C 645.354,1650.33 644.187,1656.83 642.5,1663C 644.045,1664.64 643.711,1665.81 641.5,1666.5C 637.586,1665.54 633.919,1664.04 630.5,1662C 632.195,1655.66 633.195,1649.16 633.5,1642.5 Z"/></g>
</svg>
