<?xml version="1.0" encoding="UTF-8"?>
<!DOCTYPE svg PUBLIC "-//W3C//DTD SVG 1.1//EN" "http://www.w3.org/Graphics/SVG/1.1/DTD/svg11.dtd">
<svg xmlns="http://www.w3.org/2000/svg" version="1.1" width="1216px" height="1749px" style="shape-rendering:geometricPrecision; text-rendering:geometricPrecision; image-rendering:optimizeQuality; fill-rule:evenodd; clip-rule:evenodd" xmlns:xlink="http://www.w3.org/1999/xlink">
<g><path style="opacity:0.971" fill="#371215" d="M 920.5,894.5 C 919.448,894.351 918.448,894.517 917.5,895C 917.833,895.333 918.167,895.667 918.5,896C 916.101,896.731 913.935,897.898 912,899.5C 910.732,899.384 909.398,899.051 908,898.5C 907.3,900.032 906.134,901.032 904.5,901.5C 902.111,901.657 899.611,901.324 897,900.5C 895.522,899.022 894.022,897.522 892.5,896C 894.275,892.276 895.942,888.442 897.5,884.5C 895.083,880.396 892.25,877.396 889,875.5C 887.676,873.172 886.343,870.839 885,868.5C 883.307,869.184 881.807,870.184 880.5,871.5C 878.5,871.5 876.5,871.5 874.5,871.5C 873.201,870.91 872.368,869.91 872,868.5C 867.948,870.942 863.781,871.109 859.5,869C 857.672,866.503 855.672,864.17 853.5,862C 853.833,861.667 854.167,861.333 854.5,861C 851.061,858.473 848.061,855.473 845.5,852C 841.951,851.226 838.618,849.893 835.5,848C 828.798,842.876 822.298,837.376 816,831.5C 804.696,818.525 793.362,805.525 782,792.5C 766.441,770.776 748.941,750.776 729.5,732.5C 729.167,733 728.833,733.5 728.5,734C 730.839,739.675 732.172,745.341 732.5,751C 738.17,768.877 744.17,786.877 750.5,805C 750.251,810.755 750.251,816.755 750.5,823C 749.76,824.785 749.093,826.618 748.5,828.5C 746.838,829.327 745.505,830.493 744.5,832C 747.509,837.023 750.509,842.023 753.5,847C 752.742,848.364 753.242,849.531 755,850.5C 755.226,853.095 755.726,855.595 756.5,858C 752.988,860.683 749.655,863.516 746.5,866.5C 764.402,913.2 781.235,959.867 797,1006.5C 801.779,1019.22 806.946,1031.72 812.5,1044C 810.844,1045.83 808.844,1047.16 806.5,1048C 798.582,1050.39 790.916,1053.22 783.5,1056.5C 780.459,1055.78 777.626,1056.45 775,1058.5C 772.607,1057.52 770.607,1058.19 769,1060.5C 766.541,1059.35 764.041,1059.35 761.5,1060.5C 761.167,1059.17 760.833,1059.17 760.5,1060.5C 756.045,1061.6 751.879,1061.6 748,1060.5C 746.941,1060.63 746.108,1061.13 745.5,1062C 748.205,1065.24 750.539,1068.74 752.5,1072.5C 751.998,1073.72 751.665,1074.88 751.5,1076C 747.997,1077.04 744.663,1078.54 741.5,1080.5C 739.53,1079.56 738.03,1080.22 737,1082.5C 734.945,1082.15 732.945,1082.82 731,1084.5C 725.114,1084.67 719.448,1086.34 714,1089.5C 713.667,1089.17 713.333,1088.83 713,1088.5C 711.774,1090.55 710.274,1090.88 708.5,1089.5C 708.167,1088.17 707.833,1088.17 707.5,1089.5C 704.928,1090.4 702.094,1090.4 699,1089.5C 698.692,1090.31 698.192,1090.97 697.5,1091.5C 696.284,1091 695.117,1090.67 694,1090.5C 692.667,1091.17 691.333,1091.83 690,1092.5C 679.099,1091.73 668.932,1091.73 659.5,1092.5C 652.081,1091.63 644.414,1090.63 636.5,1089.5C 635.558,1089.61 634.725,1089.94 634,1090.5C 633.581,1089.33 632.915,1088.33 632,1087.5C 622.933,1092.23 614.267,1096.23 606,1099.5C 604.093,1099.58 602.093,1099.25 600,1098.5C 599.646,1100.81 598.646,1101.14 597,1099.5C 595.527,1099.9 594.194,1100.57 593,1101.5C 590,1100.17 587,1100.17 584,1101.5C 582.155,1099.65 580.155,1099.32 578,1100.5C 577.667,1099.83 577.333,1099.17 577,1098.5C 574.907,1099.25 572.907,1099.58 571,1099.5C 562.806,1095.93 554.139,1091.93 545,1087.5C 544.085,1088.33 543.419,1089.33 543,1090.5C 542.275,1089.94 541.442,1089.61 540.5,1089.5C 532.586,1090.63 524.919,1091.63 517.5,1092.5C 508.068,1091.73 497.901,1091.73 487,1092.5C 485.667,1091.83 484.333,1091.17 483,1090.5C 481.883,1090.67 480.716,1091 479.5,1091.5C 478.808,1090.97 478.308,1090.31 478,1089.5C 474.906,1090.4 472.072,1090.4 469.5,1089.5C 469.167,1088.17 468.833,1088.17 468.5,1089.5C 466.726,1090.88 465.226,1090.55 464,1088.5C 463.667,1088.83 463.333,1089.17 463,1089.5C 457.552,1086.34 451.886,1084.67 446,1084.5C 444.055,1082.82 442.055,1082.15 440,1082.5C 438.97,1080.22 437.47,1079.56 435.5,1080.5C 432.337,1078.54 429.003,1077.04 425.5,1076C 425.335,1074.88 425.002,1073.72 424.5,1072.5C 426.461,1068.74 428.795,1065.24 431.5,1062C 430.892,1061.13 430.059,1060.63 429,1060.5C 425.121,1061.6 420.955,1061.6 416.5,1060.5C 416.167,1059.17 415.833,1059.17 415.5,1060.5C 412.959,1059.35 410.459,1059.35 408,1060.5C 406.393,1058.19 404.393,1057.52 402,1058.5C 399.374,1056.45 396.541,1055.78 393.5,1056.5C 386.049,1053.22 378.383,1050.38 370.5,1048C 368.156,1047.16 366.156,1045.83 364.5,1044C 379.958,1007.1 393.292,970.43 404.5,934C 413.469,911.59 422.136,889.09 430.5,866.5C 427.345,863.516 424.012,860.683 420.5,858C 421.274,855.595 421.774,853.095 422,850.5C 423.758,849.531 424.258,848.364 423.5,847C 426.491,842.023 429.491,837.023 432.5,832C 431.495,830.493 430.162,829.327 428.5,828.5C 427.907,826.618 427.24,824.785 426.5,823C 426.749,816.755 426.749,810.755 426.5,805C 432.842,786.829 438.842,768.829 444.5,751C 444.828,745.341 446.161,739.675 448.5,734C 448.167,733.5 447.833,733 447.5,732.5C 428.059,750.776 410.559,770.776 395,792.5C 383.609,805.551 372.275,818.551 361,831.5C 354.702,837.376 348.202,842.876 341.5,848C 338.382,849.893 335.049,851.226 331.5,852C 328.939,855.473 325.939,858.473 322.5,861C 322.833,861.333 323.167,861.667 323.5,862C 321.328,864.17 319.328,866.503 317.5,869C 313.219,871.109 309.052,870.942 305,868.5C 304.632,869.91 303.799,870.91 302.5,871.5C 300.378,871.377 298.211,871.377 296,871.5C 295.009,870.061 293.676,869.061 292,868.5C 290.657,870.839 289.324,873.172 288,875.5C 284.75,877.396 281.917,880.396 279.5,884.5C 281.058,888.442 282.725,892.276 284.5,896C 282.978,897.522 281.478,899.022 280,900.5C 277.389,901.324 274.889,901.657 272.5,901.5C 270.866,901.032 269.7,900.032 269,898.5C 267.602,899.051 266.268,899.384 265,899.5C 262.289,897.549 259.455,895.883 256.5,894.5C 251.924,892.116 247.591,889.616 243.5,887C 236.748,880.244 229.414,874.244 221.5,869C 217.327,865.159 213.493,860.993 210,856.5C 206.739,850.977 207.405,845.977 212,841.5C 222.009,838.933 231.843,835.767 241.5,832C 240.52,828.851 239.187,825.518 237.5,822C 237.439,820.289 238.106,818.956 239.5,818C 242.251,817.484 244.584,816.317 246.5,814.5C 245.532,811.727 244.199,809.227 242.5,807C 242.379,804.308 242.712,801.475 243.5,798.5C 251.826,792.34 258.993,785.007 265,776.5C 271.965,765.006 278.799,753.339 285.5,741.5C 318.432,691.468 350.265,639.802 381,586.5C 390.58,568.061 400.247,550.061 410,532.5C 415.121,525.378 420.621,518.544 426.5,512C 437.833,503.667 449.167,495.333 460.5,487C 477.167,478 493.833,469 510.5,460C 523.437,455.917 535.937,451.083 548,445.5C 550.255,445.61 551.922,446.61 553,448.5C 554.174,451.239 555.007,453.739 555.5,456C 550.142,459.348 545.142,463.181 540.5,467.5C 542.098,472.266 545.264,475.599 550,477.5C 561.431,480.552 572.764,483.885 584,487.5C 587,487.5 590,487.5 593,487.5C 604.236,483.885 615.569,480.552 627,477.5C 640.077,470.397 639.577,464.564 625.5,460C 624.5,458.333 623.167,457 621.5,456C 622.262,452.929 623.595,449.763 625.5,446.5C 627.765,445.353 630.098,445.186 632.5,446C 634.921,448.094 637.588,449.76 640.5,451C 649.369,453.435 658.035,456.435 666.5,460C 680.286,467.709 694.286,475.042 708.5,482C 719.167,489.333 729.833,496.667 740.5,504C 758.724,518.819 772.057,536.819 780.5,558C 808.177,609.348 838.177,659.348 870.5,708C 876.315,718.959 883.315,730.125 891.5,741.5C 896.666,749.156 901.166,757.156 905,765.5C 909.302,772.362 913.969,779.029 919,785.5C 923.133,790.644 927.966,794.977 933.5,798.5C 934.288,801.475 934.621,804.308 934.5,807C 932.801,809.227 931.468,811.727 930.5,814.5C 932.416,816.317 934.749,817.484 937.5,818C 938.894,818.956 939.561,820.289 939.5,822C 937.813,825.518 936.48,828.851 935.5,832C 945.157,835.767 954.991,838.933 965,841.5C 969.595,845.977 970.261,850.977 967,856.5C 964.518,859.949 961.685,863.116 958.5,866C 950.021,872.752 941.688,879.752 933.5,887C 929.409,889.616 925.076,892.116 920.5,894.5 Z"/></g>
<g><path style="opacity:0.998" fill="#3a4582" d="M 544.5,451.5 C 546.099,452.799 546.599,454.465 546,456.5C 543.258,457.57 540.758,459.07 538.5,461C 536.414,461.557 535.081,460.724 534.5,458.5C 538.25,456.637 541.583,454.303 544.5,451.5 Z"/></g>
<g><path style="opacity:1" fill="#3a4583" d="M 631.5,451.5 C 634.554,453.871 637.887,455.871 641.5,457.5C 642.59,458.391 642.59,459.391 641.5,460.5C 640.635,461.583 639.635,461.749 638.5,461C 636.295,459.294 633.962,457.794 631.5,456.5C 630.465,454.872 630.465,453.205 631.5,451.5 Z"/></g>
<g><path style="opacity:1" fill="#92b685" d="M 670.5,469.5 C 666.336,472.832 662.669,476.665 659.5,481C 652.833,486.333 646.167,491.667 639.5,497C 633.713,499.481 628.047,502.147 622.5,505C 613.771,506.429 605.438,508.929 597.5,512.5C 596.914,512.291 596.414,511.957 596,511.5C 593.583,512.352 591.083,513.019 588.5,513.5C 577.189,510.868 565.856,508.034 554.5,505C 548.953,502.147 543.287,499.481 537.5,497C 530.833,491.667 524.167,486.333 517.5,481C 514.331,476.665 510.664,472.832 506.5,469.5C 513.445,466.115 520.612,463.115 528,460.5C 531.624,465.833 534.791,471.5 537.5,477.5C 542.899,483.486 549.566,487.32 557.5,489C 558.667,489.5 559.5,490.333 560,491.5C 562.316,490.633 564.316,491.299 566,493.5C 567.016,492.366 567.683,492.699 568,494.5C 568.561,493.978 569.228,493.645 570,493.5C 572.754,496.021 575.421,496.688 578,495.5C 580.213,496.802 582.546,497.802 585,498.5C 587.333,497.167 589.667,497.167 592,498.5C 594.454,497.802 596.787,496.802 599,495.5C 600,495.833 601,496.167 602,496.5C 606.684,494.096 611.184,492.096 615.5,490.5C 616.086,490.709 616.586,491.043 617,491.5C 617.5,490.333 618.333,489.5 619.5,489C 627.434,487.32 634.101,483.486 639.5,477.5C 642.209,471.5 645.376,465.833 649,460.5C 656.388,463.115 663.555,466.115 670.5,469.5 Z"/></g>
<g><path style="opacity:1" fill="#3a4584" d="M 503.5,472.5 C 512.867,486.745 524.867,498.578 539.5,508C 546.671,511.681 553.837,514.514 561,516.5C 561.333,516.167 561.667,515.833 562,515.5C 563.523,517.62 565.356,517.953 567.5,516.5C 569.286,518.021 571.119,518.354 573,517.5C 585.45,521.01 597.616,520.677 609.5,516.5C 611.644,517.953 613.477,517.62 615,515.5C 615.333,515.833 615.667,516.167 616,516.5C 637.962,510.096 655.796,497.43 669.5,478.5C 670.833,478.5 671.5,477.833 671.5,476.5C 671.66,474.847 672.326,473.514 673.5,472.5C 687.668,479.729 701.335,487.229 714.5,495C 721.479,500.823 728.812,506.156 736.5,511C 751.971,523.73 763.304,539.063 770.5,557C 772.907,561.138 775.573,565.138 778.5,569C 783.649,582.115 790.316,594.782 798.5,607C 797.939,608.566 798.606,609.899 800.5,611C 800.167,611.333 799.833,611.667 799.5,612C 801.956,614.658 803.623,617.325 804.5,620C 814.28,637.496 824.946,654.829 836.5,672C 836.041,673.943 837.041,675.276 839.5,676C 851.923,697.05 864.756,718.216 878,739.5C 884.911,748.749 891.078,758.916 896.5,770C 898.317,773.109 900.317,776.109 902.5,779C 904.219,783.791 907.385,787.957 912,791.5C 912.308,790.692 912.808,790.025 913.5,789.5C 916.47,793.97 919.97,797.97 924,801.5C 924.579,804.017 923.746,806.017 921.5,807.5C 921.709,808.086 922.043,808.586 922.5,809C 921.009,811.089 919.342,813.089 917.5,815C 918.603,816.68 918.27,818.18 916.5,819.5C 917.09,820.799 918.09,821.632 919.5,822C 904.209,830.271 888.542,838.605 872.5,847C 871.207,847.49 869.873,847.657 868.5,847.5C 867.854,852.823 869.521,856.156 873.5,857.5C 874.863,856.802 876.029,856.802 877,857.5C 889.915,848.245 903.082,839.411 916.5,831C 919.809,827.236 923.643,824.069 928,821.5C 929.28,821.613 930.113,822.28 930.5,823.5C 925.513,829.829 919.513,834.996 912.5,839C 900.657,845.176 889.324,852.176 878.5,860C 877.551,860.617 876.718,860.451 876,859.5C 873.305,863.792 869.805,864.959 865.5,863C 857.966,851.465 847.966,842.798 835.5,837C 810.215,811.635 787.382,784.135 767,754.5C 751.88,740.378 738.547,724.711 727,707.5C 723.446,704.948 720.613,701.781 718.5,698C 718.5,689.667 718.5,681.333 718.5,673C 719.656,665.501 720.989,658.001 722.5,650.5C 722.512,648.119 721.512,646.452 719.5,645.5C 713.595,657.58 709.929,671.08 708.5,686C 709.775,688.3 709.441,690.467 707.5,692.5C 708.256,694.451 708.589,696.284 708.5,698C 707.57,699.194 706.903,700.527 706.5,702C 708.077,705.262 709.077,708.429 709.5,711.5C 708.626,713.705 709.292,715.538 711.5,717C 711.167,717.333 710.833,717.667 710.5,718C 712.944,721.147 713.944,724.48 713.5,728C 716.864,733.629 718.698,739.795 719,746.5C 720.452,750.142 721.952,754.142 723.5,758.5C 723.167,759.167 722.833,759.833 722.5,760.5C 724.326,765.047 725.993,769.547 727.5,774C 726.892,776.184 727.559,778.184 729.5,780C 729.5,781.667 729.5,783.333 729.5,785C 732.02,790.888 734.353,796.888 736.5,803C 736.572,805.176 736.238,807.176 735.5,809C 736.357,809.689 737.023,810.522 737.5,811.5C 735.117,816.36 735.117,821.193 737.5,826C 735.758,828.702 733.424,830.702 730.5,832C 734.942,838.28 738.276,845.114 740.5,852.5C 740.291,853.086 739.957,853.586 739.5,854C 733.656,855.84 728.156,858.34 723,861.5C 721.883,861.335 720.716,861.002 719.5,860.5C 716.487,862.395 713.487,862.728 710.5,861.5C 709.5,862 708.5,862.5 707.5,863C 703.627,863.27 699.794,863.77 696,864.5C 691.824,863.83 687.657,864.164 683.5,865.5C 681.208,864.691 679.041,864.357 677,864.5C 675.333,867.167 673.667,867.167 672,864.5C 670.333,865.167 668.667,865.833 667,866.5C 665.467,866.056 663.967,865.723 662.5,865.5C 660.028,867.348 657.861,867.348 656,865.5C 654.667,866.833 653.333,866.833 652,865.5C 650.915,866.293 649.748,866.96 648.5,867.5C 646.629,866.233 644.796,866.233 643,867.5C 641.667,866.833 640.333,866.167 639,865.5C 636.018,866.177 633.185,866.177 630.5,865.5C 628.389,868.044 626.222,868.044 624,865.5C 622.192,865.888 620.525,865.888 619,865.5C 616.056,866.257 613.056,866.923 610,867.5C 608.354,865.859 607.354,866.193 607,868.5C 605.093,868.579 603.093,868.246 601,867.5C 599.333,868.167 597.667,868.833 596,869.5C 591,869.5 586,869.5 581,869.5C 578.504,868.069 576.004,867.735 573.5,868.5C 571.813,868.24 570.313,867.573 569,866.5C 568.439,867.022 567.772,867.355 567,867.5C 563.944,866.923 560.944,866.257 558,865.5C 556.475,865.888 554.808,865.888 553,865.5C 550.778,868.044 548.611,868.044 546.5,865.5C 543.815,866.177 540.982,866.177 538,865.5C 537.333,866.167 536.667,866.833 536,867.5C 530.959,868.109 525.959,867.442 521,865.5C 519.139,867.348 516.972,867.348 514.5,865.5C 513.033,865.723 511.533,866.056 510,866.5C 507.26,864.64 504.76,864.64 502.5,866.5C 501.522,866.023 500.689,865.357 500,864.5C 493.9,864.852 487.567,864.852 481,864.5C 476.02,864.055 471.187,863.055 466.5,861.5C 462.201,861.868 458.034,861.868 454,861.5C 448.844,858.34 443.344,855.84 437.5,854C 437.043,853.586 436.709,853.086 436.5,852.5C 438.724,845.114 442.058,838.28 446.5,832C 443.576,830.702 441.242,828.702 439.5,826C 441.883,821.193 441.883,816.36 439.5,811.5C 439.977,810.522 440.643,809.689 441.5,809C 440.762,807.176 440.428,805.176 440.5,803C 442.647,796.888 444.98,790.888 447.5,785C 447.5,783.333 447.5,781.667 447.5,780C 449.441,778.184 450.108,776.184 449.5,774C 451.007,769.547 452.674,765.047 454.5,760.5C 454.167,759.833 453.833,759.167 453.5,758.5C 456.568,751.056 458.734,743.056 460,734.5C 462.111,732.172 462.945,729.672 462.5,727C 464.423,721.871 466.423,717.205 468.5,713C 468.043,712.586 467.709,712.086 467.5,711.5C 467.923,708.429 468.923,705.262 470.5,702C 470.097,700.527 469.43,699.194 468.5,698C 468.411,696.284 468.744,694.451 469.5,692.5C 467.559,690.467 467.225,688.3 468.5,686C 467.071,671.08 463.405,657.58 457.5,645.5C 455.488,646.452 454.488,648.119 454.5,650.5C 456.011,658.001 457.344,665.501 458.5,673C 458.5,681.333 458.5,689.667 458.5,698C 456.387,701.781 453.554,704.948 450,707.5C 438.453,724.711 425.12,740.378 410,754.5C 389.625,784.111 366.792,811.611 341.5,837C 329.034,842.798 319.034,851.465 311.5,863C 307.195,864.959 303.695,863.792 301,859.5C 300.282,860.451 299.449,860.617 298.5,860C 283.813,850.636 269.146,841.302 254.5,832C 251.086,829.227 248.586,826.06 247,822.5C 247.561,821.978 248.228,821.645 249,821.5C 253.357,824.069 257.191,827.236 260.5,831C 273.918,839.411 287.085,848.245 300,857.5C 300.971,856.802 302.137,856.802 303.5,857.5C 307.479,856.156 309.146,852.823 308.5,847.5C 307.127,847.657 305.793,847.49 304.5,847C 288.458,838.605 272.791,830.271 257.5,822C 261.044,820.747 261.377,818.913 258.5,816.5C 258.709,815.914 259.043,815.414 259.5,815C 255.562,811.158 253.395,806.658 253,801.5C 257.03,797.97 260.53,793.97 263.5,789.5C 264.197,791.385 265.197,791.718 266.5,790.5C 272.206,784.609 276.539,777.776 279.5,770C 309.659,721.868 339.492,674.035 369,626.5C 369.795,624.099 370.962,621.932 372.5,620C 383.886,599.515 395.053,578.015 406,555.5C 411.655,545.528 417.822,535.861 424.5,526.5C 429.641,521.103 434.974,515.937 440.5,511C 453.726,501.442 467.226,492.275 481,483.5C 481.333,483.833 481.667,484.167 482,484.5C 488.521,479.48 495.688,475.48 503.5,472.5 Z"/></g>
<g><path style="opacity:1" fill="#8aab86" d="M 671.5,476.5 C 671.5,477.833 670.833,478.5 669.5,478.5C 669.833,477.5 670.5,476.833 671.5,476.5 Z"/></g>
<g><path style="opacity:1" fill="#3e1a20" d="M 506.5,469.5 C 510.664,472.832 514.331,476.665 517.5,481C 524.167,486.333 530.833,491.667 537.5,497C 543.287,499.481 548.953,502.147 554.5,505C 565.856,508.034 577.189,510.868 588.5,513.5C 591.083,513.019 593.583,512.352 596,511.5C 596.414,511.957 596.914,512.291 597.5,512.5C 605.438,508.929 613.771,506.429 622.5,505C 628.047,502.147 633.713,499.481 639.5,497C 646.167,491.667 652.833,486.333 659.5,481C 662.669,476.665 666.336,472.832 670.5,469.5C 673.494,469.146 674.494,470.146 673.5,472.5C 672.326,473.514 671.66,474.847 671.5,476.5C 670.5,476.833 669.833,477.5 669.5,478.5C 655.796,497.43 637.962,510.096 616,516.5C 615.667,516.167 615.333,515.833 615,515.5C 613.477,517.62 611.644,517.953 609.5,516.5C 597.616,520.677 585.45,521.01 573,517.5C 571.119,518.354 569.286,518.021 567.5,516.5C 565.356,517.953 563.523,517.62 562,515.5C 561.667,515.833 561.333,516.167 561,516.5C 553.837,514.514 546.671,511.681 539.5,508C 524.867,498.578 512.867,486.745 503.5,472.5C 502.805,470.563 503.805,469.563 506.5,469.5 Z"/></g>
<g><path style="opacity:1" fill="#586a83" d="M 553.5,566.5 C 549.72,565.183 546.054,565.516 542.5,567.5C 541.624,567.631 540.957,567.298 540.5,566.5C 544.092,563.866 548.092,563.033 552.5,564C 553.252,564.671 553.586,565.504 553.5,566.5 Z"/></g>
<g><path style="opacity:1" fill="#40272d" d="M 635.5,570.5 C 634.458,571.791 633.292,571.791 632,570.5C 631.536,571.094 631.369,571.761 631.5,572.5C 627.082,573.597 622.748,573.43 618.5,572C 617.663,570.989 617.33,569.822 617.5,568.5C 614.747,568.121 612.747,566.621 611.5,564C 612.902,562.658 612.569,561.824 610.5,561.5C 607.584,562.134 604.918,563.134 602.5,564.5C 598.55,565.592 594.883,567.259 591.5,569.5C 585.262,572.025 578.928,574.358 572.5,576.5C 570.962,576.547 569.962,575.88 569.5,574.5C 569.937,572.926 570.937,571.759 572.5,571C 574.725,570.439 576.725,569.439 578.5,568C 574.05,567.73 570.05,568.897 566.5,571.5C 563.654,571.552 561.32,572.552 559.5,574.5C 555.248,574.598 551.581,575.932 548.5,578.5C 539.512,581.331 530.679,584.664 522,588.5C 520.699,588.361 519.866,587.695 519.5,586.5C 521.766,585.08 523.933,583.413 526,581.5C 526.085,583.085 526.251,584.418 526.5,585.5C 532.131,582.005 538.131,579.172 544.5,577C 545.598,576.23 545.598,575.397 544.5,574.5C 548.042,573.46 551.375,572.126 554.5,570.5C 561.451,568.239 568.451,566.072 575.5,564C 578.833,563.333 582.167,563.333 585.5,564C 585.998,565.158 586.831,565.991 588,566.5C 594.987,562.674 602.32,559.674 610,557.5C 612.532,558.006 614.698,559.173 616.5,561C 616.167,561.333 615.833,561.667 615.5,562C 619.208,563.201 621.208,565.701 621.5,569.5C 624.777,569.784 627.943,569.451 631,568.5C 632.622,569.099 634.122,569.766 635.5,570.5 Z"/></g>
<g><path style="opacity:1" fill="#607585" d="M 617.5,568.5 C 614.551,567.987 611.718,567.987 609,568.5C 608.062,565.277 605.895,563.944 602.5,564.5C 604.918,563.134 607.584,562.134 610.5,561.5C 612.569,561.824 612.902,562.658 611.5,564C 612.747,566.621 614.747,568.121 617.5,568.5 Z"/></g>
<g><path style="opacity:1" fill="#402a36" d="M 553.5,566.5 C 554.434,567.568 554.768,568.901 554.5,570.5C 551.375,572.126 548.042,573.46 544.5,574.5C 545.716,572.549 547.382,571.049 549.5,570C 544.267,569.739 539.934,571.572 536.5,575.5C 534.152,577.68 531.652,579.68 529,581.5C 527.97,581.164 527.47,580.497 527.5,579.5C 532.524,575.47 537.524,571.47 542.5,567.5C 546.054,565.516 549.72,565.183 553.5,566.5 Z"/></g>
<g><path style="opacity:1" fill="#566985" d="M 566.5,571.5 C 567.738,571.81 567.738,572.31 566.5,573C 564.359,573.573 562.359,574.406 560.5,575.5C 560.5,574.833 560.167,574.5 559.5,574.5C 561.32,572.552 563.654,571.552 566.5,571.5 Z"/></g>
<g><path style="opacity:1" fill="#5f7384" d="M 544.5,574.5 C 542.097,575.727 539.597,576.727 537,577.5C 536.536,576.906 536.369,576.239 536.5,575.5C 539.934,571.572 544.267,569.739 549.5,570C 547.382,571.049 545.716,572.549 544.5,574.5 Z"/></g>
<g><path style="opacity:1" fill="#7e9c85" d="M 602.5,564.5 C 605.895,563.944 608.062,565.277 609,568.5C 611.718,567.987 614.551,567.987 617.5,568.5C 617.33,569.822 617.663,570.989 618.5,572C 622.748,573.43 627.082,573.597 631.5,572.5C 631.938,572.435 632.272,572.601 632.5,573C 631.139,574.584 630.472,576.418 630.5,578.5C 626.713,578.085 623.046,578.085 619.5,578.5C 619.577,577.25 620.244,576.417 621.5,576C 618.49,573.831 615.156,573.164 611.5,574C 601.761,576.09 592.595,579.59 584,584.5C 583.626,583.584 583.126,582.75 582.5,582C 587.449,578.572 592.783,575.905 598.5,574C 599.167,572.667 600.167,571.667 601.5,571C 600.216,570.316 599.049,570.483 598,571.5C 597.692,570.692 597.192,570.025 596.5,569.5C 594.801,570.815 593.135,570.815 591.5,569.5C 594.883,567.259 598.55,565.592 602.5,564.5 Z"/></g>
<g><path style="opacity:1" fill="#3c2d45" d="M 559.5,574.5 C 560.167,574.5 560.5,574.833 560.5,575.5C 556.628,577.597 552.961,579.931 549.5,582.5C 546.167,584.167 542.833,585.833 539.5,587.5C 538.508,587.672 537.842,587.338 537.5,586.5C 540.806,583.842 544.473,581.676 548.5,580C 549.738,579.31 549.738,578.81 548.5,578.5C 551.581,575.932 555.248,574.598 559.5,574.5 Z"/></g>
<g><path style="opacity:1" fill="#779285" d="M 569.5,574.5 C 565.607,576.127 561.94,578.127 558.5,580.5C 555.562,581.489 552.562,582.156 549.5,582.5C 552.961,579.931 556.628,577.597 560.5,575.5C 562.359,574.406 564.359,573.573 566.5,573C 567.738,572.31 567.738,571.81 566.5,571.5C 570.05,568.897 574.05,567.73 578.5,568C 576.725,569.439 574.725,570.439 572.5,571C 570.937,571.759 569.937,572.926 569.5,574.5 Z"/></g>
<g><path style="opacity:1" fill="#70857d" d="M 544.5,574.5 C 545.598,575.397 545.598,576.23 544.5,577C 538.131,579.172 532.131,582.005 526.5,585.5C 526.251,584.418 526.085,583.085 526,581.5C 523.933,583.413 521.766,585.08 519.5,586.5C 517.352,586.611 517.019,585.944 518.5,584.5C 521.517,582.805 524.517,581.139 527.5,579.5C 527.47,580.497 527.97,581.164 529,581.5C 531.652,579.68 534.152,577.68 536.5,575.5C 536.369,576.239 536.536,576.906 537,577.5C 539.597,576.727 542.097,575.727 544.5,574.5 Z"/></g>
<g><path style="opacity:1" fill="#92b686" d="M 619.5,578.5 C 623.046,578.085 626.713,578.085 630.5,578.5C 639.195,579.199 647.862,579.366 656.5,579C 656.034,580.299 656.034,581.799 656.5,583.5C 660.106,583.789 663.606,583.456 667,582.5C 667.167,582.833 667.333,583.167 667.5,583.5C 663.535,584.786 661.535,587.453 661.5,591.5C 663.861,591.326 666.194,590.993 668.5,590.5C 668.369,591.239 668.536,591.906 669,592.5C 669.654,591.304 670.154,591.304 670.5,592.5C 669.224,594.861 669.558,597.028 671.5,599C 670.14,604.36 666.807,607.693 661.5,609C 663.9,609.744 666.233,610.577 668.5,611.5C 668.611,612.117 668.944,612.617 669.5,613C 671.833,613.333 674.167,613.667 676.5,614C 669.397,617.589 662.063,620.589 654.5,623C 649.77,626.364 644.77,629.197 639.5,631.5C 635.549,632.963 633.049,635.297 632,638.5C 625.47,642.598 618.47,645.598 611,647.5C 609.726,648.535 608.56,649.702 607.5,651C 604.482,651.001 601.482,650.501 598.5,649.5C 596.813,649.76 595.313,650.427 594,651.5C 593.724,656.545 592.391,657.212 590,653.5C 587.585,654.132 585.418,655.132 583.5,656.5C 580.994,657.75 578.327,658.416 575.5,658.5C 575.723,655.886 574.556,654.219 572,653.5C 566.87,655.833 561.703,657.667 556.5,659C 560.372,656.889 560.205,655.055 556,653.5C 549.629,655.345 543.462,657.679 537.5,660.5C 534.651,659.505 532.151,660.171 530,662.5C 529.692,661.692 529.192,661.025 528.5,660.5C 525.749,661.341 523.582,660.341 522,657.5C 522.23,655.385 522.23,653.385 522,651.5C 523.77,652.276 525.603,652.11 527.5,651C 526.067,648.291 524.067,646.125 521.5,644.5C 520.167,643.167 520.167,641.833 521.5,640.5C 519.843,637.911 519.509,635.244 520.5,632.5C 524.595,631.074 527.929,629.074 530.5,626.5C 532.372,624.09 533.705,621.423 534.5,618.5C 535.167,617.833 535.833,617.167 536.5,616.5C 537.167,616.5 537.833,616.5 538.5,616.5C 545.494,625.585 554.661,631.252 566,633.5C 568.166,632.269 570.333,631.269 572.5,630.5C 574.117,629.962 575.784,629.629 577.5,629.5C 577.5,628.5 577.5,627.5 577.5,626.5C 578.5,626.5 579.5,626.5 580.5,626.5C 584.289,614.439 581.955,603.773 573.5,594.5C 574.75,594.423 575.583,593.756 576,592.5C 576.561,593.022 577.228,593.355 578,593.5C 581.616,592.186 585.116,590.686 588.5,589C 589.05,587.155 590.05,585.655 591.5,584.5C 591.998,585.603 592.331,586.603 592.5,587.5C 599.027,584.201 605.694,581.201 612.5,578.5C 614.735,578.028 617.068,578.028 619.5,578.5 Z"/></g>
<g><path style="opacity:1" fill="#3c202a" d="M 691.5,598.5 C 690.662,598.158 690.328,597.492 690.5,596.5C 695.425,593.439 700.425,590.272 705.5,587C 704.584,586.626 703.75,586.126 703,585.5C 701,585.5 699,585.5 697,585.5C 691.887,586.303 686.72,586.969 681.5,587.5C 682.85,586.35 682.684,585.683 681,585.5C 676.982,586.835 672.982,588.168 669,589.5C 669.24,587.533 670.073,585.7 671.5,584C 670.956,582.415 670.289,580.915 669.5,579.5C 672.122,577.992 674.455,578.492 676.5,581C 675.833,583 674.5,584.333 672.5,585C 680.565,583.806 688.732,582.973 697,582.5C 710.963,582.845 712.129,587.012 700.5,595C 697.673,596.664 694.673,597.83 691.5,598.5 Z"/></g>
<g><path style="opacity:1" fill="#483332" d="M 635.5,570.5 C 637.271,571.866 638.938,573.366 640.5,575C 646.167,575.333 651.833,575.667 657.5,576C 658.77,576.9 659.77,578.066 660.5,579.5C 663.495,578.276 666.495,578.276 669.5,579.5C 670.289,580.915 670.956,582.415 671.5,584C 670.073,585.7 669.24,587.533 669,589.5C 672.982,588.168 676.982,586.835 681,585.5C 682.684,585.683 682.85,586.35 681.5,587.5C 677.09,588.179 672.757,589.179 668.5,590.5C 666.194,590.993 663.861,591.326 661.5,591.5C 661.535,587.453 663.535,584.786 667.5,583.5C 667.333,583.167 667.167,582.833 667,582.5C 663.606,583.456 660.106,583.789 656.5,583.5C 656.034,581.799 656.034,580.299 656.5,579C 647.862,579.366 639.195,579.199 630.5,578.5C 630.472,576.418 631.139,574.584 632.5,573C 632.272,572.601 631.938,572.435 631.5,572.5C 631.369,571.761 631.536,571.094 632,570.5C 633.292,571.791 634.458,571.791 635.5,570.5 Z"/></g>
<g><path style="opacity:1" fill="#8db085" d="M 591.5,569.5 C 593.135,570.815 594.801,570.815 596.5,569.5C 597.192,570.025 597.692,570.692 598,571.5C 599.049,570.483 600.216,570.316 601.5,571C 600.167,571.667 599.167,572.667 598.5,574C 592.783,575.905 587.449,578.572 582.5,582C 583.126,582.75 583.626,583.584 584,584.5C 592.595,579.59 601.761,576.09 611.5,574C 615.156,573.164 618.49,573.831 621.5,576C 620.244,576.417 619.577,577.25 619.5,578.5C 617.068,578.028 614.735,578.028 612.5,578.5C 605.694,581.201 599.027,584.201 592.5,587.5C 592.331,586.603 591.998,585.603 591.5,584.5C 590.05,585.655 589.05,587.155 588.5,589C 585.116,590.686 581.616,592.186 578,593.5C 577.228,593.355 576.561,593.022 576,592.5C 575.583,593.756 574.75,594.423 573.5,594.5C 572.833,593.167 571.833,592.167 570.5,591.5C 569.527,589.861 568.194,588.527 566.5,587.5C 563.372,584.843 560.372,585.177 557.5,588.5C 553.963,593.946 552.13,599.946 552,606.5C 549.109,604.181 545.776,602.847 542,602.5C 536.377,603.118 534.377,606.118 536,611.5C 536.366,613.452 537.199,615.118 538.5,616.5C 537.833,616.5 537.167,616.5 536.5,616.5C 535.713,614.896 534.38,614.229 532.5,614.5C 532.33,613.178 532.663,612.011 533.5,611C 532.451,610.508 531.451,610.674 530.5,611.5C 529.099,610.479 527.765,609.479 526.5,608.5C 529.066,605.122 532.399,602.789 536.5,601.5C 536.67,600.178 536.337,599.011 535.5,598C 539.518,598.5 542.851,597 545.5,593.5C 545,593.167 544.5,592.833 544,592.5C 538.881,594.929 533.714,597.262 528.5,599.5C 526.204,598.632 525.537,597.298 526.5,595.5C 531.004,593.083 535.337,590.416 539.5,587.5C 542.833,585.833 546.167,584.167 549.5,582.5C 552.562,582.156 555.562,581.489 558.5,580.5C 561.94,578.127 565.607,576.127 569.5,574.5C 569.962,575.88 570.962,576.547 572.5,576.5C 578.928,574.358 585.262,572.025 591.5,569.5 Z"/></g>
<g><path style="opacity:1" fill="#84a385" d="M 690.5,596.5 C 689.85,596.196 689.183,595.863 688.5,595.5C 686.289,596.66 684.289,597.993 682.5,599.5C 678.774,600.191 675.107,601.191 671.5,602.5C 670.523,604.411 669.857,606.411 669.5,608.5C 669.443,609.609 669.11,610.609 668.5,611.5C 666.233,610.577 663.9,609.744 661.5,609C 666.807,607.693 670.14,604.36 671.5,599C 669.558,597.028 669.224,594.861 670.5,592.5C 670.154,591.304 669.654,591.304 669,592.5C 668.536,591.906 668.369,591.239 668.5,590.5C 672.757,589.179 677.09,588.179 681.5,587.5C 686.72,586.969 691.887,586.303 697,585.5C 699,585.5 701,585.5 703,585.5C 703.75,586.126 704.584,586.626 705.5,587C 700.425,590.272 695.425,593.439 690.5,596.5 Z"/></g>
<g><path style="opacity:1" fill="#7a9683" d="M 526.5,608.5 C 525.5,608.167 524.833,607.5 524.5,606.5C 524.833,605.833 525.167,605.167 525.5,604.5C 528.421,601.012 527.421,599.012 522.5,598.5C 523.588,597.066 524.922,596.066 526.5,595.5C 525.537,597.298 526.204,598.632 528.5,599.5C 533.714,597.262 538.881,594.929 544,592.5C 544.5,592.833 545,593.167 545.5,593.5C 542.851,597 539.518,598.5 535.5,598C 536.337,599.011 536.67,600.178 536.5,601.5C 532.399,602.789 529.066,605.122 526.5,608.5 Z"/></g>
<g><path style="opacity:1" fill="#4a3c42" d="M 537.5,586.5 C 537.842,587.338 538.508,587.672 539.5,587.5C 535.337,590.416 531.004,593.083 526.5,595.5C 524.922,596.066 523.588,597.066 522.5,598.5C 527.421,599.012 528.421,601.012 525.5,604.5C 525.158,603.662 524.492,603.328 523.5,603.5C 522.322,602.001 520.655,601.001 518.5,600.5C 520.607,598.47 522.607,596.303 524.5,594C 529.025,591.599 533.359,589.099 537.5,586.5 Z"/></g>
<g><path style="opacity:1" fill="#95b788" d="M 567.5,597.5 C 569.785,604.189 571.118,611.189 571.5,618.5C 571.737,619.791 571.404,620.791 570.5,621.5C 568.52,620.152 567.353,618.152 567,615.5C 566.626,609.262 566.793,603.262 567.5,597.5 Z"/></g>
<g><path style="opacity:1" fill="#3e487f" d="M 682.5,599.5 C 679.389,601.559 676.056,603.392 672.5,605C 671.663,606.011 671.33,607.178 671.5,608.5C 670.833,608.5 670.167,608.5 669.5,608.5C 669.857,606.411 670.523,604.411 671.5,602.5C 675.107,601.191 678.774,600.191 682.5,599.5 Z"/></g>
<g><path style="opacity:1" fill="#f0f7dd" d="M 570.5,591.5 C 571.833,592.167 572.833,593.167 573.5,594.5C 581.955,603.773 584.289,614.439 580.5,626.5C 579.5,626.5 578.5,626.5 577.5,626.5C 577.5,627.5 577.5,628.5 577.5,629.5C 575.784,629.629 574.117,629.962 572.5,630.5C 573.6,629.395 574.267,628.062 574.5,626.5C 575.99,622.898 576.656,619.231 576.5,615.5C 575.129,607.305 573.129,599.305 570.5,591.5 Z"/></g>
<g><path style="opacity:1" fill="#5a403a" d="M 566.5,587.5 C 568.194,588.527 569.527,589.861 570.5,591.5C 573.129,599.305 575.129,607.305 576.5,615.5C 576.656,619.231 575.99,622.898 574.5,626.5C 572.446,625.288 572.446,623.621 574.5,621.5C 574.121,619.787 573.121,618.787 571.5,618.5C 571.118,611.189 569.785,604.189 567.5,597.5C 567.107,595.716 566.441,594.05 565.5,592.5C 566.451,591.081 566.784,589.415 566.5,587.5 Z"/></g>
<g><path style="opacity:1" fill="#3a253c" d="M 690.5,596.5 C 690.328,597.492 690.662,598.158 691.5,598.5C 686.983,600.676 682.483,603.01 678,605.5C 677.5,606.5 677,607.5 676.5,608.5C 678.766,609.314 681.1,609.814 683.5,610C 684.833,611.333 684.833,612.667 683.5,614C 681.593,615.122 679.593,615.955 677.5,616.5C 677.5,615.167 677.5,613.833 677.5,612.5C 676.127,612.657 674.793,612.49 673.5,612C 676.043,609.649 675.377,608.483 671.5,608.5C 671.33,607.178 671.663,606.011 672.5,605C 676.056,603.392 679.389,601.559 682.5,599.5C 684.289,597.993 686.289,596.66 688.5,595.5C 689.183,595.863 689.85,596.196 690.5,596.5 Z"/></g>
<g><path style="opacity:1" fill="#f2f9de" d="M 565.5,592.5 C 566.441,594.05 567.107,595.716 567.5,597.5C 566.793,603.262 566.626,609.262 567,615.5C 567.353,618.152 568.52,620.152 570.5,621.5C 570.356,626.813 567.69,628.979 562.5,628C 552.441,624.306 544.775,617.806 539.5,608.5C 540.005,607.081 541.005,606.415 542.5,606.5C 545.111,610.435 548.777,612.769 553.5,613.5C 555.268,614.507 556.601,613.841 557.5,611.5C 556.368,604.765 557.368,598.099 560.5,591.5C 562.601,588.886 564.268,589.22 565.5,592.5 Z"/></g>
<g><path style="opacity:1" fill="#6a8285" d="M 524.5,606.5 C 524.833,607.5 525.5,608.167 526.5,608.5C 527.765,609.479 529.099,610.479 530.5,611.5C 531.451,610.674 532.451,610.508 533.5,611C 532.663,612.011 532.33,613.178 532.5,614.5C 534.38,614.229 535.713,614.896 536.5,616.5C 535.833,617.167 535.167,617.833 534.5,618.5C 531.122,619.023 528.122,620.356 525.5,622.5C 526.609,620.446 527.609,618.279 528.5,616C 528.07,615.035 527.404,614.535 526.5,614.5C 527.888,611.991 527.054,610.324 524,609.5C 523.26,608.251 523.427,607.251 524.5,606.5 Z"/></g>
<g><path style="opacity:1" fill="#462825" d="M 566.5,587.5 C 566.784,589.415 566.451,591.081 565.5,592.5C 564.268,589.22 562.601,588.886 560.5,591.5C 557.368,598.099 556.368,604.765 557.5,611.5C 556.601,613.841 555.268,614.507 553.5,613.5C 553.461,612.417 553.127,611.417 552.5,610.5C 549.355,608.687 546.022,607.354 542.5,606.5C 541.005,606.415 540.005,607.081 539.5,608.5C 544.775,617.806 552.441,624.306 562.5,628C 567.69,628.979 570.356,626.813 570.5,621.5C 571.404,620.791 571.737,619.791 571.5,618.5C 573.121,618.787 574.121,619.787 574.5,621.5C 572.446,623.621 572.446,625.288 574.5,626.5C 574.267,628.062 573.6,629.395 572.5,630.5C 570.333,631.269 568.166,632.269 566,633.5C 554.661,631.252 545.494,625.585 538.5,616.5C 537.199,615.118 536.366,613.452 536,611.5C 534.377,606.118 536.377,603.118 542,602.5C 545.776,602.847 549.109,604.181 552,606.5C 552.13,599.946 553.963,593.946 557.5,588.5C 560.372,585.177 563.372,584.843 566.5,587.5 Z"/></g>
<g><path style="opacity:1" fill="#9ebb91" d="M 542.5,606.5 C 546.022,607.354 549.355,608.687 552.5,610.5C 553.127,611.417 553.461,612.417 553.5,613.5C 548.777,612.769 545.111,610.435 542.5,606.5 Z"/></g>
<g><path style="opacity:1" fill="#4e3d39" d="M 669.5,608.5 C 670.167,608.5 670.833,608.5 671.5,608.5C 675.377,608.483 676.043,609.649 673.5,612C 674.793,612.49 676.127,612.657 677.5,612.5C 677.5,613.833 677.5,615.167 677.5,616.5C 668.666,619.966 659.999,623.966 651.5,628.5C 647.511,630.16 643.511,631.827 639.5,633.5C 639.5,632.833 639.5,632.167 639.5,631.5C 644.77,629.197 649.77,626.364 654.5,623C 662.063,620.589 669.397,617.589 676.5,614C 674.167,613.667 671.833,613.333 669.5,613C 668.944,612.617 668.611,612.117 668.5,611.5C 669.11,610.609 669.443,609.609 669.5,608.5 Z"/></g>
<g><path style="opacity:1" fill="#526585" d="M 526.5,614.5 C 527.404,614.535 528.07,615.035 528.5,616C 527.609,618.279 526.609,620.446 525.5,622.5C 524.833,622.5 524.167,622.5 523.5,622.5C 522.448,622.649 521.448,622.483 520.5,622C 522.364,619.312 524.364,616.812 526.5,614.5 Z"/></g>
<g><path style="opacity:1" fill="#4d302c" d="M 605.5,621.5 C 606.144,624.144 607.811,625.811 610.5,626.5C 611.38,624.389 611.38,622.389 610.5,620.5C 611.429,617.325 612.262,613.991 613,610.5C 617.044,606.499 620.377,607.165 623,612.5C 623.771,615.859 624.605,619.192 625.5,622.5C 624.808,624.335 625.142,626.168 626.5,628C 625.585,632.339 623.919,636.339 621.5,640C 618.62,640.684 615.787,640.517 613,639.5C 610.553,636.939 607.887,634.606 605,632.5C 602.827,629.654 601.327,626.488 600.5,623C 601.512,619.42 603.178,618.92 605.5,621.5 Z"/></g>
<g><path style="opacity:1" fill="#3c2029" d="M 523.5,603.5 C 524.492,603.328 525.158,603.662 525.5,604.5C 525.167,605.167 524.833,605.833 524.5,606.5C 523.427,607.251 523.26,608.251 524,609.5C 527.054,610.324 527.888,611.991 526.5,614.5C 524.364,616.812 522.364,619.312 520.5,622C 521.448,622.483 522.448,622.649 523.5,622.5C 521.497,623.859 519.497,625.192 517.5,626.5C 516.847,625.193 516.18,623.86 515.5,622.5C 517.451,619.214 519.785,616.214 522.5,613.5C 517.961,610.159 518.294,606.825 523.5,603.5 Z"/></g>
<g><path style="opacity:1" fill="#e1ebce" d="M 610.5,620.5 C 611.38,622.389 611.38,624.389 610.5,626.5C 607.811,625.811 606.144,624.144 605.5,621.5C 606.748,619.31 608.414,618.977 610.5,620.5 Z"/></g>
<g><path style="opacity:1" fill="#3d1a22" d="M 468.5,620.5 C 469.79,621.058 470.623,622.058 471,623.5C 473.856,633.841 474.023,644.008 471.5,654C 471.833,654.333 472.167,654.667 472.5,655C 471.296,658.716 470.462,662.55 470,666.5C 468.834,652.902 468,639.235 467.5,625.5C 468.204,623.734 468.537,622.067 468.5,620.5 Z"/></g>
<g><path style="opacity:1" fill="#452b28" d="M 523.5,622.5 C 524.167,622.5 524.833,622.5 525.5,622.5C 526.317,624.308 525.65,625.808 523.5,627C 514.548,633.284 505.882,639.95 497.5,647C 500.719,648.703 501.386,651.203 499.5,654.5C 499.217,655.289 498.717,655.956 498,656.5C 497.578,654.574 496.411,653.574 494.5,653.5C 493.653,650.84 493.153,648.174 493,645.5C 496.358,642.969 499.524,640.302 502.5,637.5C 505.432,636.2 507.766,634.2 509.5,631.5C 511.632,629.045 514.299,627.379 517.5,626.5C 519.497,625.192 521.497,623.859 523.5,622.5 Z"/></g>
<g><path style="opacity:1" fill="#4a393b" d="M 692.5,623.5 C 693.773,624.077 693.773,624.743 692.5,625.5C 685.136,627.683 678.136,630.683 671.5,634.5C 665.324,636.446 659.324,638.78 653.5,641.5C 658.167,638.5 662.833,635.5 667.5,632.5C 675.246,628.139 683.579,625.139 692.5,623.5 Z"/></g>
<g><path style="opacity:1" fill="#3b2a44" d="M 692.5,623.5 C 683.579,625.139 675.246,628.139 667.5,632.5C 663.5,633.167 659.5,633.833 655.5,634.5C 655.611,633.883 655.944,633.383 656.5,633C 654.866,632.506 653.199,632.34 651.5,632.5C 663.789,627.924 676.456,624.257 689.5,621.5C 691.03,621.64 692.03,622.307 692.5,623.5 Z"/></g>
<g><path style="opacity:1" fill="#3d1d28" d="M 706.5,621.5 C 707.552,621.351 708.552,621.517 709.5,622C 708.787,634.248 708.287,646.748 708,659.5C 707.586,659.957 707.086,660.291 706.5,660.5C 706.11,656.102 705.11,651.602 703.5,647C 703.733,638.517 704.733,630.017 706.5,621.5 Z"/></g>
<g><path style="opacity:1" fill="#eef5da" d="M 610.5,626.5 C 610.879,629.253 612.379,631.253 615,632.5C 615.333,632.167 615.667,631.833 616,631.5C 616.198,628.07 616.031,624.57 615.5,621C 616.071,618.389 616.904,615.889 618,613.5C 620.436,620.392 620.936,627.392 619.5,634.5C 618.758,635.287 617.925,635.953 617,636.5C 612.962,633.917 609.462,630.75 606.5,627C 607.996,626.493 609.163,626.993 610,628.5C 610.464,627.906 610.631,627.239 610.5,626.5 Z"/></g>
<g><path style="opacity:1" fill="#728b86" d="M 509.5,631.5 C 507.766,634.2 505.432,636.2 502.5,637.5C 503.779,634.348 506.112,632.348 509.5,631.5 Z"/></g>
<g><path style="opacity:1" fill="#3b212f" d="M 651.5,628.5 C 649.073,630.558 646.407,632.391 643.5,634C 646.174,633.847 648.84,633.347 651.5,632.5C 653.199,632.34 654.866,632.506 656.5,633C 655.944,633.383 655.611,633.883 655.5,634.5C 652.759,634.707 650.426,635.707 648.5,637.5C 648.167,637.5 647.833,637.5 647.5,637.5C 645.214,637.595 643.214,638.262 641.5,639.5C 639.248,640.333 637.081,640.333 635,639.5C 634.713,636.273 636.213,634.273 639.5,633.5C 643.511,631.827 647.511,630.16 651.5,628.5 Z"/></g>
<g><path style="opacity:1" fill="#3c4985" d="M 655.5,634.5 C 653.68,636.448 651.346,637.448 648.5,637.5C 650.426,635.707 652.759,634.707 655.5,634.5 Z"/></g>
<g><path style="opacity:1" fill="#445285" d="M 647.5,637.5 C 646.035,638.737 644.368,639.737 642.5,640.5C 642.5,639.833 642.167,639.5 641.5,639.5C 643.214,638.262 645.214,637.595 647.5,637.5 Z"/></g>
<g><path style="opacity:1" fill="#728c85" d="M 667.5,632.5 C 662.833,635.5 658.167,638.5 653.5,641.5C 650.5,642.833 647.5,644.167 644.5,645.5C 644.608,643.486 643.942,641.82 642.5,640.5C 644.368,639.737 646.035,638.737 647.5,637.5C 647.833,637.5 648.167,637.5 648.5,637.5C 651.346,637.448 653.68,636.448 655.5,634.5C 659.5,633.833 663.5,633.167 667.5,632.5 Z"/></g>
<g><path style="opacity:1" fill="#8aab85" d="M 534.5,618.5 C 533.705,621.423 532.372,624.09 530.5,626.5C 527.929,629.074 524.595,631.074 520.5,632.5C 519.509,635.244 519.843,637.911 521.5,640.5C 520.167,641.833 520.167,643.167 521.5,644.5C 524.067,646.125 526.067,648.291 527.5,651C 525.603,652.11 523.77,652.276 522,651.5C 522.23,653.385 522.23,655.385 522,657.5C 523.582,660.341 525.749,661.341 528.5,660.5C 529.192,661.025 529.692,661.692 530,662.5C 532.151,660.171 534.651,659.505 537.5,660.5C 530.136,664.685 522.302,668.019 514,670.5C 511.942,669.942 510.775,668.609 510.5,666.5C 512.285,662.994 513.118,659.328 513,655.5C 511.938,654.101 510.605,653.101 509,652.5C 505.974,653.872 502.807,654.538 499.5,654.5C 501.386,651.203 500.719,648.703 497.5,647C 505.882,639.95 514.548,633.284 523.5,627C 525.65,625.808 526.317,624.308 525.5,622.5C 528.122,620.356 531.122,619.023 534.5,618.5 Z"/></g>
<g><path style="opacity:1" fill="#88a885" d="M 639.5,631.5 C 639.5,632.167 639.5,632.833 639.5,633.5C 636.213,634.273 634.713,636.273 635,639.5C 637.081,640.333 639.248,640.333 641.5,639.5C 642.167,639.5 642.5,639.833 642.5,640.5C 643.942,641.82 644.608,643.486 644.5,645.5C 639.082,649.591 633.415,653.258 627.5,656.5C 626.521,657.765 625.521,659.099 624.5,660.5C 625.016,659.242 624.35,658.242 622.5,657.5C 619.068,660.549 615.068,662.549 610.5,663.5C 613.475,661.05 613.641,658.717 611,656.5C 605.089,657.859 599.256,659.525 593.5,661.5C 591.321,661.16 589.488,660.16 588,658.5C 587.586,658.957 587.086,659.291 586.5,659.5C 585.289,658.726 585.289,657.893 586.5,657C 585.552,656.517 584.552,656.351 583.5,656.5C 585.418,655.132 587.585,654.132 590,653.5C 592.391,657.212 593.724,656.545 594,651.5C 595.313,650.427 596.813,649.76 598.5,649.5C 601.482,650.501 604.482,651.001 607.5,651C 608.56,649.702 609.726,648.535 611,647.5C 618.47,645.598 625.47,642.598 632,638.5C 633.049,635.297 635.549,632.963 639.5,631.5 Z"/></g>
<g><path style="opacity:1" fill="#3d1f25" d="M 537.5,660.5 C 543.462,657.679 549.629,655.345 556,653.5C 560.205,655.055 560.372,656.889 556.5,659C 561.703,657.667 566.87,655.833 572,653.5C 574.556,654.219 575.723,655.886 575.5,658.5C 570.993,663.156 566.827,667.822 563,672.5C 569.328,669.668 575.828,667.335 582.5,665.5C 580.21,666.49 578.544,668.157 577.5,670.5C 571.027,672.979 564.527,675.645 558,678.5C 554.296,677.052 553.629,674.719 556,671.5C 560.864,668.315 564.531,664.315 567,659.5C 562.597,661.284 558.431,663.451 554.5,666C 552.5,666.667 550.5,666.667 548.5,666C 548.943,664.482 548.276,663.315 546.5,662.5C 536.165,668.42 525.331,673.087 514,676.5C 511.631,676.273 509.131,676.107 506.5,676C 504.484,674.972 503.484,673.305 503.5,671C 504.562,666.883 505.896,662.883 507.5,659C 504.586,657.615 501.586,657.782 498.5,659.5C 494.562,658.923 493.229,656.923 494.5,653.5C 496.411,653.574 497.578,654.574 498,656.5C 498.717,655.956 499.217,655.289 499.5,654.5C 502.807,654.538 505.974,653.872 509,652.5C 510.605,653.101 511.938,654.101 513,655.5C 513.118,659.328 512.285,662.994 510.5,666.5C 510.775,668.609 511.942,669.942 514,670.5C 522.302,668.019 530.136,664.685 537.5,660.5 Z"/></g>
<g><path style="opacity:1" fill="#7e9b85" d="M 583.5,656.5 C 584.552,656.351 585.552,656.517 586.5,657C 585.289,657.893 585.289,658.726 586.5,659.5C 587.086,659.291 587.586,658.957 588,658.5C 589.488,660.16 591.321,661.16 593.5,661.5C 589.833,662.833 586.167,664.167 582.5,665.5C 575.828,667.335 569.328,669.668 563,672.5C 566.827,667.822 570.993,663.156 575.5,658.5C 578.327,658.416 580.994,657.75 583.5,656.5 Z"/></g>
<g><path style="opacity:1" fill="#3e242e" d="M 671.5,634.5 C 661.896,639.973 652.229,645.473 642.5,651C 653.826,649.065 664.992,646.231 676,642.5C 680.274,643.069 681.274,645.069 679,648.5C 666.523,656.248 653.523,662.248 640,666.5C 629.349,670.074 618.849,674.074 608.5,678.5C 604.961,677.204 604.627,675.371 607.5,673C 605.177,673.306 602.844,673.972 600.5,675C 598.421,675.808 596.421,675.641 594.5,674.5C 597.273,670.223 600.607,666.39 604.5,663C 595.176,665.407 586.176,667.907 577.5,670.5C 578.544,668.157 580.21,666.49 582.5,665.5C 586.167,664.167 589.833,662.833 593.5,661.5C 599.256,659.525 605.089,657.859 611,656.5C 613.641,658.717 613.475,661.05 610.5,663.5C 609.167,663.5 608.5,664.167 608.5,665.5C 605.652,666.17 604.152,667.837 604,670.5C 607.268,667.9 610.768,666.9 614.5,667.5C 614.703,669.39 614.037,670.89 612.5,672C 614.506,671.85 616.506,671.35 618.5,670.5C 631.881,666.484 644.881,661.484 657.5,655.5C 662.447,653.027 667.447,650.527 672.5,648C 670.041,647.761 667.707,648.261 665.5,649.5C 659.408,651.187 653.408,652.854 647.5,654.5C 640.744,655.856 634.077,657.522 627.5,659.5C 627.5,658.5 627.5,657.5 627.5,656.5C 633.415,653.258 639.082,649.591 644.5,645.5C 647.5,644.167 650.5,642.833 653.5,641.5C 659.324,638.78 665.324,636.446 671.5,634.5 Z"/></g>
<g><path style="opacity:1" fill="#4f6083" d="M 630.5,661.5 C 627.018,663.743 623.352,665.743 619.5,667.5C 618.873,668.417 618.539,669.417 618.5,670.5C 616.506,671.35 614.506,671.85 612.5,672C 614.037,670.89 614.703,669.39 614.5,667.5C 617.412,666.185 620.412,665.018 623.5,664C 622.584,663.722 621.918,663.222 621.5,662.5C 624.545,662.492 627.545,662.159 630.5,661.5 Z"/></g>
<g><path style="opacity:1" fill="#3f4b82" d="M 621.5,662.5 C 621.918,663.222 622.584,663.722 623.5,664C 620.412,665.018 617.412,666.185 614.5,667.5C 610.768,666.9 607.268,667.9 604,670.5C 604.152,667.837 605.652,666.17 608.5,665.5C 612.786,664.293 617.12,663.293 621.5,662.5 Z"/></g>
<g><path style="opacity:1" fill="#84a385" d="M 665.5,649.5 C 662.55,651.115 659.884,653.115 657.5,655.5C 644.881,661.484 631.881,666.484 618.5,670.5C 618.539,669.417 618.873,668.417 619.5,667.5C 623.352,665.743 627.018,663.743 630.5,661.5C 636.597,659.944 642.263,657.61 647.5,654.5C 653.408,652.854 659.408,651.187 665.5,649.5 Z"/></g>
<g><path style="opacity:1" fill="#6f8783" d="M 647.5,654.5 C 642.263,657.61 636.597,659.944 630.5,661.5C 627.545,662.159 624.545,662.492 621.5,662.5C 617.12,663.293 612.786,664.293 608.5,665.5C 608.5,664.167 609.167,663.5 610.5,663.5C 615.068,662.549 619.068,660.549 622.5,657.5C 624.35,658.242 625.016,659.242 624.5,660.5C 625.521,659.099 626.521,657.765 627.5,656.5C 627.5,657.5 627.5,658.5 627.5,659.5C 634.077,657.522 640.744,655.856 647.5,654.5 Z"/></g>
<g><path style="opacity:1" fill="#3e4982" d="M 657.5,655.5 C 659.884,653.115 662.55,651.115 665.5,649.5C 667.707,648.261 670.041,647.761 672.5,648C 667.447,650.527 662.447,653.027 657.5,655.5 Z"/></g>
<g><path style="opacity:1" fill="#3d161a" d="M 338.5,780.5 C 339.289,780.783 339.956,781.283 340.5,782C 338.29,791.945 334.79,801.778 330,811.5C 328.29,815.219 325.79,818.386 322.5,821C 319.204,822.356 315.871,822.189 312.5,820.5C 311.262,818.363 309.429,817.029 307,816.5C 306.047,814.545 304.713,812.878 303,811.5C 302.517,810.552 302.351,809.552 302.5,808.5C 306.778,809.608 310.445,811.774 313.5,815C 315.579,815.808 317.579,815.641 319.5,814.5C 323.479,806.404 326.979,798.071 330,789.5C 332.362,785.973 335.196,782.973 338.5,780.5 Z"/></g>
<g><path style="opacity:1" fill="#3d161a" d="M 837.5,780.5 C 841.454,782.62 844.621,785.62 847,789.5C 850.021,798.071 853.521,806.404 857.5,814.5C 859.421,815.641 861.421,815.808 863.5,815C 866.578,811.739 870.244,809.572 874.5,808.5C 874.649,809.552 874.483,810.552 874,811.5C 870.015,816.048 865.348,819.714 860,822.5C 858.376,822.43 856.543,821.93 854.5,821C 851.21,818.386 848.71,815.219 847,811.5C 843.697,804.394 840.531,797.228 837.5,790C 837.678,787.045 837.678,783.879 837.5,780.5 Z"/></g>
<g><path style="opacity:0.971" fill="#371215" d="M 454.5,830.5 C 461.938,830.967 469.272,832.134 476.5,834C 483.414,834.186 490.247,834.686 497,835.5C 501.015,834.222 505.015,834.556 509,836.5C 512.651,835.751 516.318,836.085 520,837.5C 524.377,837.436 528.71,837.436 533,837.5C 535.667,838.167 538.333,838.833 541,839.5C 543.632,839.707 545.965,839.374 548,838.5C 558.431,839.938 568.931,840.938 579.5,841.5C 585.5,841.5 591.5,841.5 597.5,841.5C 608.069,840.938 618.569,839.938 629,838.5C 631.035,839.374 633.368,839.707 636,839.5C 638.667,838.833 641.333,838.167 644,837.5C 648.29,837.436 652.623,837.436 657,837.5C 660.682,836.085 664.349,835.751 668,836.5C 670.455,835.084 672.955,834.75 675.5,835.5C 684.119,834.695 692.785,834.195 701.5,834C 708.368,831.876 715.368,830.876 722.5,831C 723.167,832 723.833,833 724.5,834C 721.39,836.815 717.89,837.982 714,837.5C 711.955,838.887 709.788,840.054 707.5,841C 697.131,843.913 686.964,844.746 677,843.5C 676,844.167 675,844.833 674,845.5C 668.04,845.614 662.04,845.614 656,845.5C 655.311,846.357 654.478,847.023 653.5,847.5C 649.923,846.594 646.09,846.927 642,848.5C 640.318,848.193 638.652,847.86 637,847.5C 636.055,847.905 635.388,848.572 635,849.5C 624.06,849.753 612.727,849.42 601,848.5C 599,849.167 597,849.833 595,850.5C 590.667,849.167 586.333,849.167 582,850.5C 577.333,849.833 572.667,849.167 568,848.5C 559.189,849.391 550.523,849.724 542,849.5C 541.612,848.572 540.945,847.905 540,847.5C 536.241,848.459 532.241,848.126 528,846.5C 526.467,846.944 524.967,847.277 523.5,847.5C 522.522,847.023 521.689,846.357 521,845.5C 514.96,845.614 508.96,845.614 503,845.5C 502,844.833 501,844.167 500,843.5C 494.723,844.122 489.389,844.455 484,844.5C 474.021,842.191 464.187,839.358 454.5,836C 452.453,834.4 452.453,832.567 454.5,830.5 Z"/></g>
<g><path style="opacity:1" fill="#92b585" d="M 245.5,836.5 C 256.578,845.747 268.078,854.414 280,862.5C 280.718,861.549 281.551,861.383 282.5,862C 277.328,866.839 272.495,872.006 268,877.5C 267.727,879.101 267.227,880.601 266.5,882C 266.665,883.117 266.998,884.284 267.5,885.5C 267,885.833 266.5,886.167 266,886.5C 249.09,878.601 234.09,867.934 221,854.5C 220.289,852.633 220.789,851.133 222.5,850C 230.112,846.861 237.446,843.194 244.5,839C 245.252,838.329 245.586,837.496 245.5,836.5 Z"/></g>
<g><path style="opacity:1" fill="#92b585" d="M 930.5,836.5 C 937.624,842.237 945.624,846.737 954.5,850C 956.211,851.133 956.711,852.633 956,854.5C 943.052,868.133 928.052,878.8 911,886.5C 909.418,885.705 909.251,884.538 910.5,883C 909.922,881.189 909.422,879.355 909,877.5C 904.505,872.006 899.672,866.839 894.5,862C 895.449,861.383 896.282,861.549 897,862.5C 901.711,857.559 907.211,853.726 913.5,851C 919.65,846.613 925.317,841.779 930.5,836.5 Z"/></g>
<g><path style="opacity:1" fill="#452525" d="M 247.5,846.5 C 248.978,846.238 250.311,846.571 251.5,847.5C 248.032,854.639 242.698,859.639 235.5,862.5C 235.608,860.217 236.441,858.217 238,856.5C 242.046,853.955 245.213,850.622 247.5,846.5 Z"/></g>
<g><path style="opacity:1" fill="#472927" d="M 925.5,846.5 C 926.93,846.421 928.264,846.754 929.5,847.5C 931.672,850.505 934.339,853.005 937.5,855C 939.54,857.185 940.874,859.685 941.5,862.5C 936.082,860.606 931.582,857.272 928,852.5C 926.441,850.783 925.608,848.783 925.5,846.5 Z"/></g>
<g><path style="opacity:1" fill="#4b302c" d="M 257.5,853.5 C 258.5,853.5 259.5,853.5 260.5,853.5C 259.308,856.562 257.808,859.562 256,862.5C 254.736,864.607 252.903,865.607 250.5,865.5C 251.964,861.026 254.297,857.026 257.5,853.5 Z"/></g>
<g><path style="opacity:1" fill="#4c332e" d="M 916.5,853.5 C 917.552,853.351 918.552,853.517 919.5,854C 923.506,857.069 925.173,860.902 924.5,865.5C 923.186,864.687 922.019,863.687 921,862.5C 919.192,859.562 917.692,856.562 916.5,853.5 Z"/></g>
<g><path style="opacity:1" fill="#462726" d="M 267.5,856.5 C 268.922,856.709 270.255,857.209 271.5,858C 267.277,864.292 262.944,870.458 258.5,876.5C 257.359,874.579 257.192,872.579 258,870.5C 260.606,865.405 263.772,860.738 267.5,856.5 Z"/></g>
<g><path style="opacity:1" fill="#578d98" d="M 434.5,867.5 C 436.187,868.867 437.853,869.867 439.5,870.5C 441.325,869.429 442.492,870.096 443,872.5C 443.333,872.167 443.667,871.833 444,871.5C 451.284,873.516 458.284,875.516 465,877.5C 467.234,877.626 469.568,877.293 472,876.5C 473.346,879.249 474.68,879.583 476,877.5C 476.667,878.167 477.333,878.833 478,879.5C 479.268,879.384 480.602,879.051 482,878.5C 482.667,879.167 483.333,879.833 484,880.5C 485.399,880.499 486.899,880.165 488.5,879.5C 489.478,879.977 490.311,880.643 491,881.5C 492.692,880.305 494.692,879.638 497,879.5C 497.333,880.167 497.667,880.833 498,881.5C 503.898,880.661 510.065,880.328 516.5,880.5C 517.833,881.167 519.167,881.833 520.5,882.5C 524.236,881.521 527.736,881.521 531,882.5C 532.309,880.109 533.309,880.109 534,882.5C 536.77,881.675 539.437,881.341 542,881.5C 544.328,883.438 546.661,883.105 549,880.5C 549.333,881.167 549.667,881.833 550,882.5C 552.817,882.077 555.65,881.744 558.5,881.5C 559.478,881.977 560.311,882.643 561,883.5C 561.308,882.692 561.808,882.025 562.5,881.5C 566.882,883.799 571.549,885.132 576.5,885.5C 577.748,884.96 578.915,884.293 580,883.5C 582.481,884.022 584.814,884.022 587,883.5C 588,886.167 589,886.167 590,883.5C 592.186,884.022 594.519,884.022 597,883.5C 598.085,884.293 599.252,884.96 600.5,885.5C 605.399,884.99 610.066,883.657 614.5,881.5C 615.192,882.025 615.692,882.692 616,883.5C 616.689,882.643 617.522,881.977 618.5,881.5C 621.35,881.744 624.183,882.077 627,882.5C 627.333,881.833 627.667,881.167 628,880.5C 630.339,883.105 632.672,883.438 635,881.5C 637.563,881.341 640.23,881.675 643,882.5C 643.691,880.109 644.691,880.109 646,882.5C 649.264,881.521 652.764,881.521 656.5,882.5C 657.833,881.833 659.167,881.167 660.5,880.5C 666.935,880.328 673.102,880.661 679,881.5C 679.333,880.833 679.667,880.167 680,879.5C 682.308,879.638 684.308,880.305 686,881.5C 686.689,880.643 687.522,879.977 688.5,879.5C 690.101,880.165 691.601,880.499 693,880.5C 693.667,879.833 694.333,879.167 695,878.5C 696.398,879.051 697.732,879.384 699,879.5C 700.309,877.109 701.309,877.109 702,879.5C 703.333,878.833 704.333,877.833 705,876.5C 707.432,877.293 709.766,877.626 712,877.5C 718.716,875.516 725.716,873.516 733,871.5C 733.333,871.833 733.667,872.167 734,872.5C 734.508,870.096 735.675,869.429 737.5,870.5C 738.833,869.5 740.167,868.5 741.5,867.5C 756.789,910.531 771.456,954.031 785.5,998C 784.366,999.016 784.699,999.683 786.5,1000C 786.167,1000.33 785.833,1000.67 785.5,1001C 790.687,1014.22 795.687,1027.56 800.5,1041C 795.561,1043.42 790.395,1045.26 785,1046.5C 784.667,1046.17 784.333,1045.83 784,1045.5C 777.8,1048.24 771.3,1049.91 764.5,1050.5C 756.447,1050.67 748.614,1050.67 741,1050.5C 735.743,1039.06 731.076,1027.39 727,1015.5C 725.818,1012.29 723.985,1011.79 721.5,1014C 726.246,1032.8 732.913,1050.8 741.5,1068C 740.66,1069.17 739.827,1070.34 739,1071.5C 738.586,1071.04 738.086,1070.71 737.5,1070.5C 732.86,1071.67 728.194,1073.34 723.5,1075.5C 722.914,1075.29 722.414,1074.96 722,1074.5C 718.333,1075.5 714.667,1076.5 711,1077.5C 710.667,1077.17 710.333,1076.83 710,1076.5C 704.427,1077.34 698.594,1078.34 692.5,1079.5C 684.055,1079.2 675.389,1079.2 666.5,1079.5C 657.092,1078.8 647.592,1077.46 638,1075.5C 636.01,1076.4 634.843,1075.57 634.5,1073C 630.653,1051.27 627.653,1029.43 625.5,1007.5C 623.833,1007.5 622.167,1007.5 620.5,1007.5C 620.86,1015.71 620.86,1023.54 620.5,1031C 621.167,1033 621.833,1035 622.5,1037C 621.812,1039.73 621.478,1042.39 621.5,1045C 622.394,1055.29 623.394,1065.46 624.5,1075.5C 621.542,1077.96 618.709,1080.62 616,1083.5C 615.667,1083.17 615.333,1082.83 615,1082.5C 608.638,1085.84 602.304,1087.17 596,1086.5C 593.539,1087.22 591.039,1087.88 588.5,1088.5C 585.961,1087.88 583.461,1087.22 581,1086.5C 574.696,1087.17 568.362,1085.84 562,1082.5C 561.667,1082.83 561.333,1083.17 561,1083.5C 558.291,1080.62 555.458,1077.96 552.5,1075.5C 553.606,1065.46 554.606,1055.29 555.5,1045C 555.522,1042.39 555.188,1039.73 554.5,1037C 555.167,1035 555.833,1033 556.5,1031C 556.14,1023.54 556.14,1015.71 556.5,1007.5C 554.833,1007.5 553.167,1007.5 551.5,1007.5C 550.663,1015.02 549.663,1022.52 548.5,1030C 548.645,1030.77 548.978,1031.44 549.5,1032C 547.918,1041.05 546.251,1050.05 544.5,1059C 544.833,1059.33 545.167,1059.67 545.5,1060C 544.466,1064.96 543.133,1070.13 541.5,1075.5C 531.285,1077.14 520.951,1078.48 510.5,1079.5C 501.611,1079.2 492.945,1079.2 484.5,1079.5C 481.298,1078.87 478.131,1078.21 475,1077.5C 474.667,1077.83 474.333,1078.17 474,1078.5C 467.873,1077.61 461.54,1076.27 455,1074.5C 454.586,1074.96 454.086,1075.29 453.5,1075.5C 448.806,1073.34 444.14,1071.67 439.5,1070.5C 438.914,1070.71 438.414,1071.04 438,1071.5C 437.173,1070.34 436.34,1069.17 435.5,1068C 444.216,1050.69 450.883,1032.53 455.5,1013.5C 454.178,1013.67 453.011,1013.34 452,1012.5C 446.69,1025.13 441.357,1037.79 436,1050.5C 428.386,1050.67 420.553,1050.67 412.5,1050.5C 405.7,1049.91 399.2,1048.24 393,1045.5C 392.667,1045.83 392.333,1046.17 392,1046.5C 386.605,1045.26 381.439,1043.42 376.5,1041C 387.719,1011.67 397.719,981.337 406.5,950C 407.833,947.333 409.167,944.667 410.5,942C 410.167,941.667 409.833,941.333 409.5,941C 411.304,936.593 413.304,932.26 415.5,928C 415.043,927.586 414.709,927.086 414.5,926.5C 422.551,907.291 429.218,887.625 434.5,867.5 Z"/></g>
<g><path style="opacity:1" fill="#442425" d="M 907.5,856.5 C 911.099,858.263 913.932,860.93 916,864.5C 916.561,866.725 917.561,868.725 919,870.5C 919.808,872.579 919.641,874.579 918.5,876.5C 914.056,870.458 909.723,864.292 905.5,858C 906.416,857.722 907.082,857.222 907.5,856.5 Z"/></g>
<g><path style="opacity:0.929" fill="#371213" d="M 256.5,894.5 C 255.833,895.167 255.833,895.167 256.5,894.5 Z"/></g>
<g><path style="opacity:1" fill="#371213" d="M 920.5,894.5 C 921.833,895.167 921.833,895.167 920.5,894.5 Z"/></g>
<g><path style="opacity:0.008" fill="#000000" d="M 271.5,910.5 C 272.833,911.167 272.833,911.167 271.5,910.5 Z"/></g>
<g><path style="opacity:0.008" fill="#000000" d="M 904.5,910.5 C 905.833,911.167 905.833,911.167 904.5,910.5 Z"/></g>
<g><path style="opacity:1" fill="#3e2024" d="M 604.5,916.5 C 605.966,917.347 606.8,918.68 607,920.5C 611.588,940.016 616.088,959.516 620.5,979C 620.602,982.287 620.269,985.454 619.5,988.5C 618.201,987.91 617.368,986.91 617,985.5C 612.425,967.1 608.258,948.933 604.5,931C 605.097,929.372 604.763,927.705 603.5,926C 603.27,922.941 603.603,919.774 604.5,916.5 Z"/></g>
<g><path style="opacity:1" fill="#3d1e21" d="M 699.5,890.5 C 701.888,891.219 703.388,892.885 704,895.5C 714.881,925.918 727.381,955.585 741.5,984.5C 740.52,985.981 739.353,987.315 738,988.5C 736.907,986.651 735.574,984.984 734,983.5C 729.861,973.418 725.528,963.418 721,953.5C 720.333,954.833 720.333,956.167 721,957.5C 724.406,968.709 727.906,979.542 731.5,990C 730.543,994.604 728.376,995.438 725,992.5C 717.33,963.865 709.496,934.532 701.5,904.5C 701.931,903.707 702.265,902.873 702.5,902C 700.576,898.397 699.576,894.564 699.5,890.5 Z"/></g>
<g><path style="opacity:1" fill="#3e2124" d="M 475.5,890.5 C 476.695,890.866 477.361,891.699 477.5,893C 469.527,926.535 461.027,959.701 452,992.5C 448.624,995.438 446.457,994.604 445.5,990C 449.094,979.542 452.594,968.709 456,957.5C 456.667,956.167 456.667,954.833 456,953.5C 451.472,963.418 447.139,973.418 443,983.5C 441.426,984.984 440.093,986.651 439,988.5C 437.647,987.315 436.48,985.981 435.5,984.5C 450.188,953.778 463.521,922.445 475.5,890.5 Z"/></g>
<g><path style="opacity:1" fill="#3e2024" d="M 571.5,916.5 C 572.117,916.611 572.617,916.944 573,917.5C 573.288,920.53 573.455,923.364 573.5,926C 570.346,940.836 567.179,956.002 564,971.5C 563.221,976.921 561.387,981.921 558.5,986.5C 557.914,986.291 557.414,985.957 557,985.5C 556.792,983.141 556.626,980.974 556.5,979C 561.107,958.073 566.107,937.24 571.5,916.5 Z"/></g>
<g><path style="opacity:0.435" fill="#361214" d="M 415.5,1060.5 C 415.833,1060.5 416.167,1060.5 416.5,1060.5C 416.315,1061.17 415.981,1061.17 415.5,1060.5 Z"/></g>
<g><path style="opacity:0.384" fill="#361214" d="M 760.5,1060.5 C 760.833,1060.5 761.167,1060.5 761.5,1060.5C 761.315,1061.17 760.981,1061.17 760.5,1060.5 Z"/></g>
<g><path style="opacity:0.851" fill="#361213" d="M 468.5,1089.5 C 468.833,1089.5 469.167,1089.5 469.5,1089.5C 469.315,1090.17 468.981,1090.17 468.5,1089.5 Z"/></g>
<g><path style="opacity:0.745" fill="#361113" d="M 707.5,1089.5 C 707.833,1089.5 708.167,1089.5 708.5,1089.5C 708.315,1090.17 707.981,1090.17 707.5,1089.5 Z"/></g>
<g><path style="opacity:0.475" fill="#381114" d="M 517.5,1092.5 C 516.833,1093.17 516.833,1093.17 517.5,1092.5 Z"/></g>
<g><path style="opacity:0.506" fill="#361213" d="M 659.5,1092.5 C 660.833,1093.17 660.833,1093.17 659.5,1092.5 Z"/></g>
<g><path style="opacity:0.974" fill="#381315" d="M 438.5,1389.5 C 451.585,1393.92 464.418,1397.92 477,1401.5C 478.587,1400.27 479.921,1400.61 481,1402.5C 485.902,1402.91 490.568,1402.91 495,1402.5C 497.124,1403.23 499.291,1403.89 501.5,1404.5C 512.29,1404.22 523.457,1403.88 535,1403.5C 537.562,1405.91 540.562,1407.58 544,1408.5C 544.837,1411.36 545.67,1414.2 546.5,1417C 546.271,1423.1 546.271,1429.1 546.5,1435C 545.014,1448.2 543.348,1461.04 541.5,1473.5C 543.355,1475.54 544.022,1477.71 543.5,1480C 544.24,1481.78 544.907,1483.62 545.5,1485.5C 546.424,1489.76 546.424,1493.93 545.5,1498C 546.167,1499.33 546.833,1500.67 547.5,1502C 546.607,1508.61 546.274,1514.94 546.5,1521C 547.773,1523.19 548.106,1525.36 547.5,1527.5C 548.859,1531.67 549.859,1535.67 550.5,1539.5C 549.332,1540.91 549.665,1542.07 551.5,1543C 549.5,1543.67 548.167,1545 547.5,1547C 548.833,1554.33 550.167,1561.67 551.5,1569C 552.36,1577.71 552.36,1586.21 551.5,1594.5C 553.857,1596.35 556.523,1597.52 559.5,1598C 563.157,1602.92 567.491,1607.76 572.5,1612.5C 574.185,1615.03 575.851,1617.53 577.5,1620C 577.167,1620.33 576.833,1620.67 576.5,1621C 578.574,1624.02 579.907,1627.35 580.5,1631C 579.36,1636.43 579.36,1641.93 580.5,1647.5C 579.96,1648.75 579.293,1649.91 578.5,1651C 579.507,1657.16 577.34,1661.99 572,1665.5C 570.057,1665.04 568.724,1666.04 568,1668.5C 564.76,1668.6 561.76,1669.94 559,1672.5C 558.667,1672.17 558.333,1671.83 558,1671.5C 549.901,1674.67 541.901,1677.34 534,1679.5C 528.509,1679.46 522.675,1679.46 516.5,1679.5C 512.694,1681.42 508.86,1681.75 505,1680.5C 503.676,1681.88 502.343,1682.21 501,1681.5C 499,1682.17 497,1682.83 495,1683.5C 492.149,1682.76 489.483,1682.76 487,1683.5C 486.333,1682.83 485.667,1682.17 485,1681.5C 477.401,1681.43 469.734,1681.43 462,1681.5C 460.739,1681.24 459.739,1680.57 459,1679.5C 454.941,1680.52 451.107,1679.85 447.5,1677.5C 446.914,1677.71 446.414,1678.04 446,1678.5C 442.844,1676.34 440.011,1673.84 437.5,1671C 439.283,1669.93 439.783,1668.43 439,1666.5C 436.568,1664.48 434.735,1661.98 433.5,1659C 433.833,1658.67 434.167,1658.33 434.5,1658C 431.508,1655.37 429.841,1652.04 429.5,1648C 431.01,1641.83 432.01,1635.66 432.5,1629.5C 431.332,1628.09 431.665,1626.93 433.5,1626C 433.056,1622.48 434.056,1619.15 436.5,1616C 436.167,1615.67 435.833,1615.33 435.5,1615C 437.799,1606.77 439.799,1598.77 441.5,1591C 441.059,1583.79 441.059,1576.79 441.5,1570C 440.249,1567.07 439.249,1564.07 438.5,1561C 438.806,1557.34 439.139,1554.01 439.5,1551C 437.693,1545.77 436.36,1540.44 435.5,1535C 435.697,1532.98 436.697,1530.98 438.5,1529C 437.833,1523.67 437.167,1518.33 436.5,1513C 437.306,1505.65 437.472,1497.81 437,1489.5C 433.053,1486.17 433.053,1482.51 437,1478.5C 437.333,1479.17 437.667,1479.83 438,1480.5C 438.236,1478.24 438.736,1476.07 439.5,1474C 441.367,1473.29 442.867,1473.79 444,1475.5C 444.067,1473.26 443.567,1471.1 442.5,1469C 442.423,1464.36 442.423,1459.69 442.5,1455C 441.227,1452.81 440.894,1450.64 441.5,1448.5C 439.779,1439.91 438.113,1431.41 436.5,1423C 436.933,1411.6 436.933,1400.94 436.5,1391C 437.416,1390.72 438.082,1390.22 438.5,1389.5 Z"/></g>
<g><path style="opacity:0.97" fill="#381315" d="M 736.5,1389.5 C 737.922,1389.71 739.255,1390.21 740.5,1391C 740.067,1400.94 740.067,1411.6 740.5,1423C 736.861,1440.43 734.361,1457.93 733,1475.5C 734.133,1473.79 735.633,1473.29 737.5,1474C 738.249,1475.73 738.749,1477.57 739,1479.5C 740.364,1478.74 741.531,1479.24 742.5,1481C 741.786,1482.34 742.12,1483.68 743.5,1485C 742.842,1486.9 741.675,1488.4 740,1489.5C 739.528,1497.81 739.694,1505.65 740.5,1513C 739.833,1518.33 739.167,1523.67 738.5,1529C 740.303,1530.98 741.303,1532.98 741.5,1535C 740.64,1540.44 739.307,1545.77 737.5,1551C 737.861,1554.01 738.194,1557.34 738.5,1561C 737.751,1564.07 736.751,1567.07 735.5,1570C 735.941,1576.79 735.941,1583.79 735.5,1591C 737.724,1602.56 740.724,1613.9 744.5,1625C 743.542,1626.15 743.875,1627.15 745.5,1628C 745.043,1628.41 744.709,1628.91 744.5,1629.5C 744.99,1635.66 745.99,1641.83 747.5,1648C 747.159,1652.04 745.492,1655.37 742.5,1658C 742.833,1658.33 743.167,1658.67 743.5,1659C 742.265,1661.98 740.432,1664.48 738,1666.5C 737.217,1668.43 737.717,1669.93 739.5,1671C 736.989,1673.84 734.156,1676.34 731,1678.5C 730.586,1678.04 730.086,1677.71 729.5,1677.5C 725.893,1679.85 722.059,1680.52 718,1679.5C 717.261,1680.57 716.261,1681.24 715,1681.5C 707.266,1681.43 699.599,1681.43 692,1681.5C 691.333,1682.17 690.667,1682.83 690,1683.5C 687.517,1682.76 684.851,1682.76 682,1683.5C 680,1682.83 678,1682.17 676,1681.5C 674.657,1682.21 673.324,1681.88 672,1680.5C 668.14,1681.75 664.306,1681.42 660.5,1679.5C 643.024,1680.33 626.19,1676.33 610,1667.5C 609.667,1667.83 609.333,1668.17 609,1668.5C 608.276,1666.04 606.943,1665.04 605,1665.5C 603.846,1664.26 602.512,1663.26 601,1662.5C 598.368,1657.6 596.868,1652.6 596.5,1647.5C 597.64,1641.93 597.64,1636.43 596.5,1631C 597.093,1627.35 598.426,1624.02 600.5,1621C 600.167,1620.67 599.833,1620.33 599.5,1620C 604.359,1612.26 610.359,1605.59 617.5,1600C 616.167,1599.33 616.167,1598.67 617.5,1598C 620.477,1597.52 623.143,1596.35 625.5,1594.5C 624.64,1586.21 624.64,1577.71 625.5,1569C 626.833,1561.67 628.167,1554.33 629.5,1547C 628.833,1545 627.5,1543.67 625.5,1543C 627.335,1542.07 627.668,1540.91 626.5,1539.5C 627.074,1537.94 627.74,1536.44 628.5,1535C 628.607,1532.06 628.607,1529.06 628.5,1526C 629.167,1524.33 629.833,1522.67 630.5,1521C 629.668,1516.31 629.335,1511.31 629.5,1506C 631.081,1501.26 631.415,1496.76 630.5,1492.5C 632.384,1489.1 632.718,1485.93 631.5,1483C 632.248,1479.92 633.581,1476.75 635.5,1473.5C 633.652,1461.04 631.986,1448.2 630.5,1435C 630.729,1429.1 630.729,1423.1 630.5,1417C 631.33,1414.2 632.163,1411.36 633,1408.5C 636.438,1407.58 639.438,1405.91 642,1403.5C 653.786,1403.58 664.952,1403.92 675.5,1404.5C 677.709,1403.89 679.876,1403.23 682,1402.5C 686.432,1402.91 691.098,1402.91 696,1402.5C 697.079,1400.61 698.413,1400.27 700,1401.5C 705.655,1399.63 711.322,1397.63 717,1395.5C 717.333,1395.83 717.667,1396.17 718,1396.5C 724.099,1393.69 730.266,1391.36 736.5,1389.5 Z"/></g>
<g><path style="opacity:1" fill="#394584" d="M 443.5,1398.5 C 451.732,1402.21 459.565,1405.88 467,1409.5C 470.297,1408.92 473.297,1409.92 476,1412.5C 479.197,1411.66 482.197,1412.33 485,1414.5C 486,1414.17 487,1413.83 488,1413.5C 489.837,1415.86 492.004,1416.53 494.5,1415.5C 497.56,1417.76 500.726,1417.76 504,1415.5C 505.667,1416.5 507.333,1417.5 509,1418.5C 516.261,1417.75 524.095,1417.41 532.5,1417.5C 532.709,1426.73 532.042,1435.57 530.5,1444C 531.311,1447.51 530.978,1451.34 529.5,1455.5C 530.192,1457.34 529.858,1459.17 528.5,1461C 528.816,1465.54 528.816,1470.38 528.5,1475.5C 527.96,1476.75 527.293,1477.91 526.5,1479C 526.647,1480.97 526.981,1482.97 527.5,1485C 524.966,1487.59 524.966,1490.25 527.5,1493C 527.167,1493.33 526.833,1493.67 526.5,1494C 527.308,1494.31 527.975,1494.81 528.5,1495.5C 522.531,1496.76 516.531,1497.76 510.5,1498.5C 507.047,1494.42 503.713,1490.26 500.5,1486C 497.873,1484.1 495.039,1482.6 492,1481.5C 489.04,1482.29 486.206,1483.45 483.5,1485C 479.95,1488.88 476.783,1493.05 474,1497.5C 472.488,1496.74 471.154,1495.74 470,1494.5C 468.602,1495.05 467.268,1495.38 466,1495.5C 464.982,1493.44 463.649,1493.1 462,1494.5C 460.775,1494.14 459.609,1493.64 458.5,1493C 459.804,1492.2 460.471,1491.03 460.5,1489.5C 458.333,1483.29 456.666,1477.12 455.5,1471C 454.91,1459.73 452.577,1448.39 448.5,1437C 448.833,1436.67 449.167,1436.33 449.5,1436C 447.188,1431.75 446.188,1427.41 446.5,1423C 444.993,1414.93 443.993,1406.76 443.5,1398.5 Z"/></g>
<g><path style="opacity:1" fill="#3a4584" d="M 732.5,1398.5 C 733.097,1398.74 733.43,1399.24 733.5,1400C 732.94,1407.76 731.94,1415.43 730.5,1423C 730.833,1423.33 731.167,1423.67 731.5,1424C 727.333,1438.83 723.666,1453.83 720.5,1469C 722.141,1470.65 721.807,1471.65 719.5,1472C 719.367,1474.6 719.367,1477.27 719.5,1480C 717.817,1482.87 716.817,1486.03 716.5,1489.5C 716.529,1491.03 717.196,1492.2 718.5,1493C 716.702,1494.51 714.868,1494.67 713,1493.5C 712.333,1494.17 711.667,1494.83 711,1495.5C 709.732,1495.38 708.398,1495.05 707,1494.5C 705.846,1495.74 704.512,1496.74 703,1497.5C 700.217,1493.05 697.05,1488.88 693.5,1485C 690.794,1483.45 687.96,1482.29 685,1481.5C 681.961,1482.6 679.127,1484.1 676.5,1486C 673.276,1490.3 669.943,1494.46 666.5,1498.5C 662.5,1497.83 658.5,1497.17 654.5,1496.5C 652.523,1497.19 650.523,1496.86 648.5,1495.5C 649.025,1494.81 649.692,1494.31 650.5,1494C 650.167,1493.67 649.833,1493.33 649.5,1493C 652.034,1490.25 652.034,1487.59 649.5,1485C 650.019,1482.97 650.353,1480.97 650.5,1479C 649.707,1477.91 649.04,1476.75 648.5,1475.5C 648.184,1470.38 648.184,1465.54 648.5,1461C 647.142,1459.17 646.808,1457.34 647.5,1455.5C 646.022,1451.34 645.689,1447.51 646.5,1444C 644.958,1435.57 644.291,1426.73 644.5,1417.5C 652.905,1417.41 660.739,1417.75 668,1418.5C 669.667,1417.5 671.333,1416.5 673,1415.5C 676.274,1417.76 679.44,1417.76 682.5,1415.5C 684.996,1416.53 687.163,1415.86 689,1413.5C 690,1413.83 691,1414.17 692,1414.5C 694.803,1412.33 697.803,1411.66 701,1412.5C 706.252,1409.64 711.419,1407.31 716.5,1405.5C 717.086,1405.71 717.586,1406.04 718,1406.5C 722.686,1403.41 727.52,1400.74 732.5,1398.5 Z"/></g>
<g><path style="opacity:1" fill="#3d181e" d="M 453.5,1414.5 C 461.576,1416.85 469.576,1419.52 477.5,1422.5C 478.086,1422.29 478.586,1421.96 479,1421.5C 486.909,1423.41 494.909,1424.74 503,1425.5C 510.167,1424.4 517.5,1422.73 525,1420.5C 526.757,1422.41 528.257,1424.41 529.5,1426.5C 527.738,1430.09 524.905,1432.43 521,1433.5C 520.667,1433.17 520.333,1432.83 520,1432.5C 514.562,1434.16 509.229,1435.16 504,1435.5C 502.619,1433.58 500.786,1433.24 498.5,1434.5C 496.626,1434.61 495.126,1433.94 494,1432.5C 493.275,1433.06 492.442,1433.39 491.5,1433.5C 481.267,1430.99 470.6,1427.49 459.5,1423C 457.023,1421.36 454.69,1419.52 452.5,1417.5C 453.127,1416.58 453.461,1415.58 453.5,1414.5 Z"/></g>
<g><path style="opacity:1" fill="#3d1920" d="M 719.5,1414.5 C 721.958,1414.23 723.625,1415.23 724.5,1417.5C 722.31,1419.52 719.977,1421.36 717.5,1423C 706.4,1427.49 695.733,1430.99 685.5,1433.5C 682.212,1434.38 678.712,1434.38 675,1433.5C 674.333,1434.17 673.667,1434.83 673,1435.5C 667.771,1435.16 662.438,1434.16 657,1432.5C 656.667,1432.83 656.333,1433.17 656,1433.5C 652.095,1432.43 649.262,1430.09 647.5,1426.5C 648.799,1424.41 650.299,1422.41 652,1420.5C 659.5,1422.73 666.833,1424.4 674,1425.5C 689.256,1424.6 703.589,1421.26 717,1415.5C 718.159,1416.57 718.992,1416.23 719.5,1414.5 Z"/></g>
<g><path style="opacity:1" fill="#3d171b" d="M 486.5,1435.5 C 487.237,1437.38 488.404,1438.05 490,1437.5C 490.914,1444.09 491.747,1450.92 492.5,1458C 491.21,1464.65 488.21,1465.65 483.5,1461C 483.573,1454.09 483.573,1447.09 483.5,1440C 484.386,1438.39 485.386,1436.89 486.5,1435.5 Z"/></g>
<g><path style="opacity:1" fill="#3d171c" d="M 689.5,1435.5 C 691.339,1436.51 692.672,1438.01 693.5,1440C 693.427,1447.09 693.427,1454.09 693.5,1461C 688.79,1465.65 685.79,1464.65 684.5,1458C 685.253,1450.92 686.086,1444.09 687,1437.5C 687.995,1436.93 688.828,1436.27 689.5,1435.5 Z"/></g>
<g><path style="opacity:1" fill="#3d171b" d="M 706.5,1431.5 C 708.124,1431.36 709.29,1432.03 710,1433.5C 710.437,1442.2 710.604,1450.7 710.5,1459C 708.796,1461.55 706.463,1463.05 703.5,1463.5C 703.143,1460.09 702.809,1456.93 702.5,1454C 703.227,1451.88 703.894,1449.71 704.5,1447.5C 704.539,1443.7 704.539,1439.86 704.5,1436C 705.267,1434.53 705.933,1433.03 706.5,1431.5 Z"/></g>
<g><path style="opacity:1" fill="#3d181d" d="M 467.5,1431.5 C 470.321,1431.32 471.988,1432.65 472.5,1435.5C 472.423,1439.56 472.423,1443.56 472.5,1447.5C 473.106,1449.71 473.773,1451.88 474.5,1454C 474.191,1456.93 473.857,1460.09 473.5,1463.5C 470.537,1463.05 468.204,1461.55 466.5,1459C 466.284,1449.73 466.617,1440.56 467.5,1431.5 Z"/></g>
<g><path style="opacity:1" fill="#3d181e" d="M 510.5,1435.5 C 512.776,1435.76 513.943,1437.09 514,1439.5C 514.437,1444.23 515.271,1448.9 516.5,1453.5C 515.894,1455.64 516.227,1457.81 517.5,1460C 517.868,1461.47 517.368,1462.97 516,1464.5C 511.864,1466.07 509.364,1464.57 508.5,1460C 508.666,1454.17 508.666,1448.34 508.5,1442.5C 508.442,1439.92 509.109,1437.59 510.5,1435.5 Z"/></g>
<g><path style="opacity:1" fill="#3d1a21" d="M 663.5,1435.5 C 667.312,1436.08 668.979,1438.41 668.5,1442.5C 668.334,1448.34 668.334,1454.17 668.5,1460C 666.451,1466.27 663.451,1466.93 659.5,1462C 661.094,1453.47 662.427,1444.63 663.5,1435.5 Z"/></g>
<g><path style="opacity:1" fill="#72a85d" d="M 489.5,1489.5 C 491.09,1489.63 492.423,1490.29 493.5,1491.5C 497.484,1496.65 500.818,1502.15 503.5,1508C 502.097,1512.75 501.097,1517.42 500.5,1522C 501.444,1524.72 501.777,1527.55 501.5,1530.5C 497.17,1530.62 492.67,1531.29 488,1532.5C 486.761,1521.44 484.595,1510.94 481.5,1501C 483.194,1496.48 485.861,1492.64 489.5,1489.5 Z"/></g>
<g><path style="opacity:1" fill="#72a85d" d="M 685.5,1489.5 C 689.046,1490.87 691.88,1493.2 694,1496.5C 694.875,1497.87 695.375,1499.37 695.5,1501C 692.405,1510.94 690.239,1521.44 689,1532.5C 684.33,1531.29 679.83,1530.62 675.5,1530.5C 675.223,1527.55 675.556,1524.72 676.5,1522C 675.903,1517.42 674.903,1512.75 673.5,1508C 676.862,1501.4 680.862,1495.24 685.5,1489.5 Z"/></g>
<g><path style="opacity:1" fill="#72a85d" d="M 444.5,1496.5 C 447.175,1495.25 449.009,1496.25 450,1499.5C 450.333,1499.17 450.667,1498.83 451,1498.5C 454.855,1500.42 458.855,1502.09 463,1503.5C 464.998,1502.73 466.665,1503.4 468,1505.5C 468.718,1504.55 469.551,1504.38 470.5,1505C 472.562,1507.07 473.728,1509.57 474,1512.5C 474.238,1516.22 474.738,1519.89 475.5,1523.5C 475.291,1524.09 474.957,1524.59 474.5,1525C 476.369,1528.35 476.369,1531.52 474.5,1534.5C 471.823,1532.83 470.156,1533.5 469.5,1536.5C 469.65,1540.23 470.317,1544.06 471.5,1548C 470.402,1551.94 470.235,1556.11 471,1560.5C 468.232,1562.67 465.065,1564.17 461.5,1565C 458.965,1567.46 458.965,1569.96 461.5,1572.5C 462.325,1576.12 462.825,1579.79 463,1583.5C 464.609,1584.15 466.109,1584.98 467.5,1586C 466.359,1586.74 466.359,1587.57 467.5,1588.5C 468.76,1589.38 469.926,1590.38 471,1591.5C 474.335,1590.38 477.835,1590.22 481.5,1591C 473.612,1593.58 466.778,1597.75 461,1603.5C 460.506,1605.13 460.34,1606.8 460.5,1608.5C 461.822,1608.33 462.989,1608.66 464,1609.5C 472.023,1604.93 480.356,1600.93 489,1597.5C 489.772,1597.64 490.439,1597.98 491,1598.5C 491.667,1597.17 492.667,1596.17 494,1595.5C 497.563,1595.67 501.063,1595.67 504.5,1595.5C 507.568,1593.64 510.402,1593.64 513,1595.5C 517.431,1594.85 521.765,1595.51 526,1597.5C 527.016,1596.37 527.683,1596.7 528,1598.5C 529.06,1598.75 530.227,1598.75 531.5,1598.5C 535.582,1602.31 540.082,1604.65 545,1605.5C 545.333,1606.17 545.667,1606.83 546,1607.5C 547,1606.5 548,1605.5 549,1604.5C 553.687,1610.3 558.187,1615.63 562.5,1620.5C 563.695,1622.75 564.695,1625.08 565.5,1627.5C 562.372,1627.34 559.039,1627.84 555.5,1629C 536.779,1636.29 518.279,1638.79 500,1636.5C 497.888,1638.92 495.888,1638.92 494,1636.5C 486.801,1636.99 479.135,1636.99 471,1636.5C 464.473,1633.49 457.64,1631.15 450.5,1629.5C 448.813,1629.76 447.313,1630.43 446,1631.5C 445.196,1627.8 445.696,1624.3 447.5,1621C 446.521,1619.22 446.854,1617.55 448.5,1616C 447.508,1612.93 447.841,1609.93 449.5,1607C 448.715,1604.96 449.048,1602.96 450.5,1601C 449.948,1594.09 449.948,1586.76 450.5,1579C 449.956,1576.6 449.289,1574.27 448.5,1572C 450.473,1565 451.14,1558 450.5,1551C 449.833,1550 449.167,1549 448.5,1548C 449.174,1546.25 449.507,1544.58 449.5,1543C 448.392,1536.88 447.392,1530.71 446.5,1524.5C 447.192,1522.66 446.858,1520.83 445.5,1519C 446.648,1516.22 446.314,1513.56 444.5,1511C 445.241,1505.62 445.241,1500.78 444.5,1496.5 Z"/></g>
<g><path style="opacity:1" fill="#72a85d" d="M 729.5,1495.5 C 730.552,1495.35 731.552,1495.52 732.5,1496C 731.778,1500.55 731.778,1505.55 732.5,1511C 731.104,1515.08 730.104,1519.08 729.5,1523C 729.957,1523.41 730.291,1523.91 730.5,1524.5C 729.608,1530.71 728.608,1536.88 727.5,1543C 727.493,1544.58 727.826,1546.25 728.5,1548C 727.833,1549 727.167,1550 726.5,1551C 727.461,1554.29 727.461,1557.79 726.5,1561.5C 726.403,1563.94 727.07,1566.11 728.5,1568C 728.269,1571.51 727.603,1575.18 726.5,1579C 727.005,1586.52 727.005,1593.86 726.5,1601C 727.952,1602.96 728.285,1604.96 727.5,1607C 729.159,1609.93 729.492,1612.93 728.5,1616C 730.146,1617.55 730.479,1619.22 729.5,1621C 731.304,1624.3 731.804,1627.8 731,1631.5C 729.687,1630.43 728.187,1629.76 726.5,1629.5C 719.36,1631.15 712.527,1633.49 706,1636.5C 697.865,1636.99 690.199,1636.99 683,1636.5C 681.112,1638.92 679.112,1638.92 677,1636.5C 658.721,1638.79 640.221,1636.29 621.5,1629C 617.961,1627.84 614.628,1627.34 611.5,1627.5C 612.471,1623.05 614.804,1619.55 618.5,1617C 618.167,1616.67 617.833,1616.33 617.5,1616C 621.2,1612.37 624.7,1608.54 628,1604.5C 629,1605.5 630,1606.5 631,1607.5C 631.317,1605.7 631.984,1605.37 633,1606.5C 637.548,1604.46 641.715,1601.79 645.5,1598.5C 646.842,1599.9 647.676,1599.57 648,1597.5C 648.333,1597.83 648.667,1598.17 649,1598.5C 652.681,1596.43 656.681,1595.1 661,1594.5C 662.957,1595.85 664.957,1595.52 667,1593.5C 668.785,1594.24 670.618,1594.91 672.5,1595.5C 675.937,1595.67 679.437,1595.67 683,1595.5C 684.333,1596.17 685.333,1597.17 686,1598.5C 686.561,1597.98 687.228,1597.64 688,1597.5C 696.609,1600.93 704.942,1604.93 713,1609.5C 714.011,1608.66 715.178,1608.33 716.5,1608.5C 716.857,1604.34 715.19,1601.17 711.5,1599C 706.477,1595.82 701.143,1593.16 695.5,1591C 699.165,1590.22 702.665,1590.38 706,1591.5C 707.074,1590.38 708.24,1589.38 709.5,1588.5C 710.641,1587.57 710.641,1586.74 709.5,1586C 710.891,1584.98 712.391,1584.15 714,1583.5C 714.037,1578.2 715.204,1573.2 717.5,1568.5C 716.96,1567.25 716.293,1566.09 715.5,1565C 711.935,1564.17 708.768,1562.67 706,1560.5C 706.765,1556.11 706.598,1551.94 705.5,1548C 706.683,1544.06 707.35,1540.23 707.5,1536.5C 706.844,1533.5 705.177,1532.83 702.5,1534.5C 700.631,1531.52 700.631,1528.35 702.5,1525C 702.043,1524.59 701.709,1524.09 701.5,1523.5C 702.262,1519.89 702.762,1516.22 703,1512.5C 703.249,1509.82 704.249,1507.49 706,1505.5C 712.306,1504.03 718.972,1501.7 726,1498.5C 726.333,1498.83 726.667,1499.17 727,1499.5C 727.662,1498.02 728.496,1496.68 729.5,1495.5 Z"/></g>
<g><path style="opacity:1" fill="#72a85d" d="M 537.5,1501.5 C 538.234,1502.88 538.901,1504.38 539.5,1506C 538.498,1514.87 538.332,1524.37 539,1534.5C 542.465,1553.6 542.965,1572.27 540.5,1590.5C 536.209,1588.98 531.876,1587.31 527.5,1585.5C 530.291,1582.71 530.958,1579.54 529.5,1576C 531.725,1572.91 531.725,1569.58 529.5,1566C 532.997,1561.06 531.997,1556.73 526.5,1553C 524.114,1553.35 521.781,1553.18 519.5,1552.5C 520.061,1547.82 520.394,1543.15 520.5,1538.5C 520.259,1533.14 517.592,1529.97 512.5,1529C 513.561,1527.15 514.227,1525.15 514.5,1523C 514.299,1519.66 513.966,1516.33 513.5,1513C 514.784,1508.44 517.617,1506.94 522,1508.5C 522.324,1506.43 523.158,1506.1 524.5,1507.5C 529.53,1506.82 533.864,1504.82 537.5,1501.5 Z"/></g>
<g><path style="opacity:1" fill="#72a85d" d="M 638.5,1501.5 C 642.67,1504.58 647.337,1506.58 652.5,1507.5C 653.842,1506.1 654.676,1506.43 655,1508.5C 659.113,1507.23 661.946,1508.73 663.5,1513C 663.034,1516.33 662.701,1519.66 662.5,1523C 662.773,1525.15 663.439,1527.15 664.5,1529C 659.408,1529.97 656.741,1533.14 656.5,1538.5C 656.606,1543.15 656.939,1547.82 657.5,1552.5C 655.219,1553.18 652.886,1553.35 650.5,1553C 645.003,1556.73 644.003,1561.06 647.5,1566C 645.275,1569.58 645.275,1572.91 647.5,1576C 646.042,1579.54 646.709,1582.71 649.5,1585.5C 645.124,1587.31 640.791,1588.98 636.5,1590.5C 634.035,1572.27 634.535,1553.6 638,1534.5C 638.18,1522.79 638.347,1511.79 638.5,1501.5 Z"/></g>
<g><path style="opacity:1" fill="#f9fee5" d="M 495.5,1538.5 C 499.273,1538.59 503.439,1538.92 508,1539.5C 508.334,1543.2 508.501,1546.7 508.5,1550C 507.929,1551.21 507.262,1552.37 506.5,1553.5C 497.134,1555 487.801,1556.16 478.5,1557C 478.833,1556.67 479.167,1556.33 479.5,1556C 477.559,1550.92 476.893,1545.76 477.5,1540.5C 483.223,1539.55 488.723,1539.55 494,1540.5C 494.717,1539.96 495.217,1539.29 495.5,1538.5 Z"/></g>
<g><path style="opacity:1" fill="#f9fee5" d="M 669.5,1538.5 C 673.168,1538.75 676.668,1538.75 680,1538.5C 681.261,1538.76 682.261,1539.43 683,1540.5C 688.277,1539.55 693.777,1539.55 699.5,1540.5C 700.107,1545.76 699.441,1550.92 697.5,1556C 697.833,1556.33 698.167,1556.67 698.5,1557C 689.199,1556.16 679.866,1555 670.5,1553.5C 669.738,1552.37 669.071,1551.21 668.5,1550C 668.248,1546.28 668.581,1542.45 669.5,1538.5 Z"/></g>
<g><path style="opacity:1" fill="#f9fee5" d="M 515.5,1565.5 C 516.873,1565.34 518.207,1565.51 519.5,1566C 519.047,1568.89 519.047,1571.89 519.5,1575C 517.446,1577.96 514.78,1578.8 511.5,1577.5C 500.104,1579.53 488.938,1581.2 478,1582.5C 476.342,1582.32 475.009,1581.66 474,1580.5C 473.782,1577.57 473.282,1574.74 472.5,1572C 472.616,1570.73 472.949,1569.4 473.5,1568C 483.581,1567.59 493.748,1567.75 504,1568.5C 504.388,1567.57 505.055,1566.91 506,1566.5C 509.275,1567.87 512.442,1567.54 515.5,1565.5 Z"/></g>
<g><path style="opacity:1" fill="#f9fee5" d="M 657.5,1566.5 C 662.154,1566.83 666.654,1566.83 671,1566.5C 671.945,1566.91 672.612,1567.57 673,1568.5C 683.252,1567.75 693.419,1567.59 703.5,1568C 704.051,1569.4 704.384,1570.73 704.5,1572C 703.718,1574.74 703.218,1577.57 703,1580.5C 701.991,1581.66 700.658,1582.32 699,1582.5C 688.062,1581.2 676.896,1579.53 665.5,1577.5C 662.22,1578.8 659.554,1577.96 657.5,1575C 658.051,1571.94 658.051,1569.11 657.5,1566.5 Z"/></g>
<g><path style="opacity:1" fill="#92b685" d="M 444.5,1632.5 C 445.234,1633.88 445.901,1635.38 446.5,1637C 456.761,1640.86 467.261,1644.36 478,1647.5C 478.333,1647.17 478.667,1646.83 479,1646.5C 481.405,1647.27 483.905,1647.77 486.5,1648C 485.421,1648.96 484.255,1649.79 483,1650.5C 479.681,1656.08 481.348,1659.74 488,1661.5C 494.027,1658.5 494.861,1654.5 490.5,1649.5C 490.709,1648.91 491.043,1648.41 491.5,1648C 493.075,1648.38 494.575,1648.21 496,1647.5C 498.465,1649.43 501.132,1649.43 504,1647.5C 505.943,1649.72 507.609,1649.72 509,1647.5C 509.75,1648.13 510.584,1648.63 511.5,1649C 508.976,1652.52 508.143,1656.35 509,1660.5C 507.372,1659.9 505.705,1660.24 504,1661.5C 499.066,1661.77 494.4,1661.77 490,1661.5C 488.667,1662.17 487.333,1662.83 486,1663.5C 481.429,1663 476.762,1662.66 472,1662.5C 469.441,1664.85 467.274,1664.69 465.5,1662C 469.497,1659.7 470.997,1656.2 470,1651.5C 468.323,1649.32 466.489,1647.32 464.5,1645.5C 460.112,1646.91 458.445,1649.91 459.5,1654.5C 458.366,1659.11 460.033,1661.61 464.5,1662C 461.805,1662.25 459.305,1662.42 457,1662.5C 454.815,1660.46 452.315,1659.13 449.5,1658.5C 449.863,1656.09 448.863,1654.59 446.5,1654C 446.833,1653.67 447.167,1653.33 447.5,1653C 445.229,1650.06 443.895,1646.72 443.5,1643C 444.456,1639.61 444.789,1636.11 444.5,1632.5 Z"/></g>
<g><path style="opacity:1" fill="#92b685" d="M 731.5,1632.5 C 733.131,1638.13 733.297,1643.8 732,1649.5C 731.535,1650.93 730.701,1652.1 729.5,1653C 729.833,1653.33 730.167,1653.67 730.5,1654C 728.137,1654.59 727.137,1656.09 727.5,1658.5C 724.434,1658.72 721.934,1660.06 720,1662.5C 717.695,1662.42 715.195,1662.25 712.5,1662C 716.967,1661.61 718.634,1659.11 717.5,1654.5C 718.555,1649.91 716.888,1646.91 712.5,1645.5C 706.358,1649.21 705.025,1654.21 708.5,1660.5C 709.376,1661.25 710.376,1661.75 711.5,1662C 709.726,1664.69 707.559,1664.85 705,1662.5C 700.238,1662.66 695.571,1663 691,1663.5C 689.667,1662.83 688.333,1662.17 687,1661.5C 682.6,1661.77 677.934,1661.77 673,1661.5C 671.295,1660.24 669.628,1659.9 668,1660.5C 668.857,1656.35 668.024,1652.52 665.5,1649C 666.416,1648.63 667.25,1648.13 668,1647.5C 669.391,1649.72 671.057,1649.72 673,1647.5C 675.868,1649.43 678.535,1649.43 681,1647.5C 682.425,1648.21 683.925,1648.38 685.5,1648C 685.957,1648.41 686.291,1648.91 686.5,1649.5C 682.139,1654.5 682.973,1658.5 689,1661.5C 695.652,1659.74 697.319,1656.08 694,1650.5C 692.745,1649.79 691.579,1648.96 690.5,1648C 697.022,1647.72 703.522,1646.22 710,1643.5C 710.333,1643.83 710.667,1644.17 711,1644.5C 714.501,1643.01 717.834,1641.34 721,1639.5C 721.333,1639.83 721.667,1640.17 722,1640.5C 724.631,1638.88 727.464,1637.71 730.5,1637C 731.38,1635.64 731.714,1634.14 731.5,1632.5 Z"/></g>
<g><path style="opacity:1" fill="#92b585" d="M 565.5,1638.5 C 565.673,1643.14 565.673,1647.81 565.5,1652.5C 558.278,1656.24 550.611,1657.74 542.5,1657C 543.5,1655.33 544.5,1653.67 545.5,1652C 543.164,1648.82 543.497,1646.32 546.5,1644.5C 547.086,1644.71 547.586,1645.04 548,1645.5C 553.475,1642.14 554.641,1643.14 551.5,1648.5C 552.046,1650.13 552.38,1651.8 552.5,1653.5C 558.42,1653.98 560.92,1651.31 560,1645.5C 556.067,1644.3 555.734,1642.63 559,1640.5C 559.333,1640.83 559.667,1641.17 560,1641.5C 561.876,1640.39 563.709,1639.39 565.5,1638.5 Z"/></g>
<g><path style="opacity:1" fill="#92b585" d="M 610.5,1638.5 C 612.781,1639.21 614.948,1640.21 617,1641.5C 618.364,1640.74 619.531,1641.24 620.5,1643C 616.067,1645.33 615.4,1648.5 618.5,1652.5C 620.396,1653.47 622.396,1653.8 624.5,1653.5C 626.146,1650.11 625.813,1646.94 623.5,1644C 625.432,1643.86 627.266,1644.36 629,1645.5C 630.871,1644.33 632.371,1644.83 633.5,1647C 632.833,1648.67 632.167,1650.33 631.5,1652C 632.5,1653.67 633.5,1655.33 634.5,1657C 626.4,1657.75 618.734,1656.25 611.5,1652.5C 611.709,1651.91 612.043,1651.41 612.5,1651C 611.551,1646.91 610.884,1642.75 610.5,1638.5 Z"/></g>
<g><path style="opacity:1" fill="#92b584" d="M 520.5,1647.5 C 522.991,1647.68 525.491,1647.68 528,1647.5C 528.333,1648.17 528.667,1648.83 529,1649.5C 529.388,1648.57 530.055,1647.91 531,1647.5C 532.15,1648.42 533.15,1648.42 534,1647.5C 534.5,1648 535,1648.5 535.5,1649C 534.398,1651.4 534.231,1653.9 535,1656.5C 536.067,1657.19 537.234,1657.69 538.5,1658C 531.579,1658.91 525.079,1659.41 519,1659.5C 517.734,1657.8 517.9,1655.97 519.5,1654C 519.167,1652.33 518.833,1650.67 518.5,1649C 519.416,1648.72 520.082,1648.22 520.5,1647.5 Z"/></g>
<g><path style="opacity:1" fill="#92b585" d="M 642.5,1647.5 C 643.573,1648.66 644.739,1648.66 646,1647.5C 646.945,1647.91 647.612,1648.57 648,1649.5C 648.333,1648.83 648.667,1648.17 649,1647.5C 651.211,1647.62 653.378,1647.62 655.5,1647.5C 656.5,1648 657.5,1648.5 658.5,1649C 657.456,1652.1 657.789,1655.1 659.5,1658C 659,1658.5 658.5,1659 658,1659.5C 651.921,1659.41 645.421,1658.91 638.5,1658C 639.766,1657.69 640.933,1657.19 642,1656.5C 642.242,1653.3 642.408,1650.3 642.5,1647.5 Z"/></g>
</svg>
