<?xml version="1.0" encoding="UTF-8"?>
<!DOCTYPE svg PUBLIC "-//W3C//DTD SVG 1.1//EN" "http://www.w3.org/Graphics/SVG/1.1/DTD/svg11.dtd">
<svg xmlns="http://www.w3.org/2000/svg" version="1.1" width="1216px" height="1749px" style="shape-rendering:geometricPrecision; text-rendering:geometricPrecision; image-rendering:optimizeQuality; fill-rule:evenodd; clip-rule:evenodd" xmlns:xlink="http://www.w3.org/1999/xlink">
<g><path style="opacity:0.952" fill="#492324" d="M 666.5,463.5 C 666.421,464.93 666.754,466.264 667.5,467.5C 670.486,469.163 673.153,471.163 675.5,473.5C 674.25,473.577 673.417,474.244 673,475.5C 665.45,472.978 658.616,469.811 652.5,466C 647.135,464.528 641.801,464.361 636.5,465.5C 636.5,463.833 636.5,462.167 636.5,460.5C 635.178,460.33 634.011,460.663 633,461.5C 632.728,464.254 632.228,466.921 631.5,469.5C 626.397,475.866 620.73,481.699 614.5,487C 610.369,487.817 606.369,489.65 602.5,492.5C 601.284,491.998 600.117,491.665 599,491.5C 598.25,492.126 597.416,492.626 596.5,493C 591.167,493.667 585.833,493.667 580.5,493C 578.946,491.252 577.28,491.085 575.5,492.5C 571.083,490.089 566.749,488.255 562.5,487C 556.27,481.699 550.603,475.866 545.5,469.5C 544.772,466.921 544.272,464.254 544,461.5C 542.989,460.663 541.822,460.33 540.5,460.5C 540.768,462.099 540.434,463.432 539.5,464.5C 530.258,463.829 522.258,465.995 515.5,471C 511.619,472.453 507.786,473.953 504,475.5C 503.583,474.244 502.75,473.577 501.5,473.5C 503.847,471.163 506.514,469.163 509.5,467.5C 510.246,466.264 510.579,464.93 510.5,463.5C 516.916,460.219 523.416,457.886 530,456.5C 533.333,457.167 536.667,457.833 540,458.5C 540.414,458.043 540.914,457.709 541.5,457.5C 549.656,465.489 557.99,473.322 566.5,481C 573.295,483.35 580.628,484.85 588.5,485.5C 596.372,484.85 603.705,483.35 610.5,481C 619.01,473.322 627.344,465.489 635.5,457.5C 636.086,457.709 636.586,458.043 637,458.5C 640.333,457.833 643.667,457.167 647,456.5C 653.584,457.886 660.084,460.219 666.5,463.5 Z"/></g>
<g><path style="opacity:1" fill="#678055" d="M 539.5,464.5 C 540.479,477.266 542.146,490.266 544.5,503.5C 538.373,502.749 532.373,502.749 526.5,503.5C 522.034,503.006 517.7,502.006 513.5,500.5C 510.677,500.942 507.843,501.275 505,501.5C 502,500.833 499,500.167 496,499.5C 493.047,499.422 490.047,499.755 487,500.5C 485.687,499.427 484.187,498.76 482.5,498.5C 478.173,498.425 473.84,498.758 469.5,499.5C 468.758,497.574 467.758,495.741 466.5,494C 472.723,490.463 478.723,486.463 484.5,482C 489.91,478.628 495.577,475.795 501.5,473.5C 502.75,473.577 503.583,474.244 504,475.5C 507.786,473.953 511.619,472.453 515.5,471C 522.258,465.995 530.258,463.829 539.5,464.5 Z"/></g>
<g><path style="opacity:1" fill="#668055" d="M 675.5,473.5 C 685.776,477.637 695.11,483.304 703.5,490.5C 706.217,490.999 708.551,492.165 710.5,494C 709.242,495.741 708.242,497.574 707.5,499.5C 703.16,498.758 698.827,498.425 694.5,498.5C 692.813,498.76 691.313,499.427 690,500.5C 686.953,499.755 683.953,499.422 681,499.5C 678,500.167 675,500.833 672,501.5C 669.157,501.275 666.323,500.942 663.5,500.5C 659.3,502.006 654.966,503.006 650.5,503.5C 644.627,502.749 638.627,502.749 632.5,503.5C 635.109,490.697 636.443,478.03 636.5,465.5C 641.801,464.361 647.135,464.528 652.5,466C 658.616,469.811 665.45,472.978 673,475.5C 673.417,474.244 674.25,473.577 675.5,473.5 Z"/></g>
<g><path style="opacity:0.991" fill="#381315" d="M 510.5,463.5 C 510.579,464.93 510.246,466.264 509.5,467.5C 506.514,469.163 503.847,471.163 501.5,473.5C 495.577,475.795 489.91,478.628 484.5,482C 478.723,486.463 472.723,490.463 466.5,494C 467.758,495.741 468.758,497.574 469.5,499.5C 470.209,510.438 470.876,521.438 471.5,532.5C 471.783,533.289 472.283,533.956 473,534.5C 474.266,544.531 474.766,554.198 474.5,563.5C 474.607,568.585 475.274,573.585 476.5,578.5C 476.607,584.062 476.273,589.395 475.5,594.5C 475.833,595.833 476.167,597.167 476.5,598.5C 477.739,598.942 478.739,599.609 479.5,600.5C 478.053,601.134 477.387,602.301 477.5,604C 481.292,620.624 483.125,637.457 483,654.5C 484.366,656.362 485.866,658.028 487.5,659.5C 486.01,665.108 484.344,670.774 482.5,676.5C 481.733,677.172 481.066,678.005 480.5,679C 481.816,679.528 482.483,679.028 482.5,677.5C 484.047,680.56 486.214,683.226 489,685.5C 489.333,685.167 489.667,684.833 490,684.5C 493.68,687.615 497.847,689.781 502.5,691C 504.155,692.444 504.822,694.278 504.5,696.5C 504.631,697.239 504.464,697.906 504,698.5C 503.346,697.304 502.846,697.304 502.5,698.5C 504.798,700.485 504.632,702.485 502,704.5C 500.853,703.542 499.853,703.875 499,705.5C 496.372,704.723 493.872,703.723 491.5,702.5C 490.833,702.5 490.5,702.833 490.5,703.5C 484.519,698.523 478.519,693.523 472.5,688.5C 471.634,686.568 470.967,684.568 470.5,682.5C 473.331,675.841 475.664,669.008 477.5,662C 474.653,659.429 473.987,656.429 475.5,653C 474.833,650.333 474.167,647.667 473.5,645C 474.238,643.176 474.572,641.176 474.5,639C 473.389,632.241 472.389,625.241 471.5,618C 471.002,581.792 468.002,544.959 462.5,507.5C 462.709,506.914 463.043,506.414 463.5,506C 462.957,501.236 461.957,496.569 460.5,492C 462.422,490.54 463.089,488.873 462.5,487C 465.232,486.587 467.899,485.92 470.5,485C 482.82,475.349 496.153,468.182 510.5,463.5 Z"/></g>
<g><path style="opacity:0.988" fill="#381315" d="M 686.5,703.5 C 686.5,702.833 686.167,702.5 685.5,702.5C 683.128,703.723 680.628,704.723 678,705.5C 677.147,703.875 676.147,703.542 675,704.5C 672.368,702.485 672.202,700.485 674.5,698.5C 674.154,697.304 673.654,697.304 673,698.5C 672.536,697.906 672.369,697.239 672.5,696.5C 672.178,694.278 672.845,692.444 674.5,691C 679.462,689.511 684.129,687.344 688.5,684.5C 691.196,682.636 693.196,680.303 694.5,677.5C 694.517,679.028 695.184,679.528 696.5,679C 695.934,678.005 695.267,677.172 694.5,676.5C 692.656,670.774 690.99,665.108 689.5,659.5C 691.134,658.028 692.634,656.362 694,654.5C 693.875,637.457 695.708,620.624 699.5,604C 699.613,602.301 698.947,601.134 697.5,600.5C 698.261,599.609 699.261,598.942 700.5,598.5C 700.833,597.167 701.167,595.833 701.5,594.5C 700.727,589.395 700.393,584.062 700.5,578.5C 701.726,573.585 702.393,568.585 702.5,563.5C 702.137,553.783 702.804,543.783 704.5,533.5C 705.972,531.883 706.639,529.883 706.5,527.5C 706.449,525.9 706.116,524.4 705.5,523C 706.582,514.972 707.249,507.139 707.5,499.5C 708.242,497.574 709.242,495.741 710.5,494C 708.551,492.165 706.217,490.999 703.5,490.5C 695.11,483.304 685.776,477.637 675.5,473.5C 673.153,471.163 670.486,469.163 667.5,467.5C 666.754,466.264 666.421,464.93 666.5,463.5C 680.847,468.182 694.18,475.349 706.5,485C 708.927,486.591 711.593,487.425 714.5,487.5C 714.297,489.39 714.963,490.89 716.5,492C 715.043,496.569 714.043,501.236 713.5,506C 711.717,529.939 709.384,553.939 706.5,578C 706.957,578.414 707.291,578.914 707.5,579.5C 706.855,585.032 706.188,590.532 705.5,596C 705.678,603.085 705.678,610.418 705.5,618C 704.611,625.241 703.611,632.241 702.5,639C 702.428,641.176 702.762,643.176 703.5,645C 702.133,649.536 701.633,654.036 702,658.5C 701.535,659.931 700.701,661.097 699.5,662C 701.336,669.008 703.669,675.841 706.5,682.5C 706.033,684.568 705.366,686.568 704.5,688.5C 698.481,693.523 692.481,698.523 686.5,703.5 Z"/></g>
<g><path style="opacity:1" fill="#91b17f" d="M 544.5,503.5 C 547.244,515.706 550.91,528.039 555.5,540.5C 553.276,539.942 551.109,540.608 549,542.5C 548.676,540.431 547.842,540.098 546.5,541.5C 545.522,541.023 544.689,540.357 544,539.5C 543.667,540.167 543.333,540.833 543,541.5C 537.801,540.86 532.634,539.86 527.5,538.5C 524.593,539.01 521.759,539.677 519,540.5C 515.677,540.177 512.677,540.177 510,540.5C 509.683,538.699 509.016,538.366 508,539.5C 502.265,538.306 496.432,537.472 490.5,537C 484.049,534.698 477.716,533.198 471.5,532.5C 470.876,521.438 470.209,510.438 469.5,499.5C 473.84,498.758 478.173,498.425 482.5,498.5C 484.187,498.76 485.687,499.427 487,500.5C 490.047,499.755 493.047,499.422 496,499.5C 499,500.167 502,500.833 505,501.5C 507.843,501.275 510.677,500.942 513.5,500.5C 517.7,502.006 522.034,503.006 526.5,503.5C 532.373,502.749 538.373,502.749 544.5,503.5 Z"/></g>
<g><path style="opacity:1" fill="#90b07e" d="M 707.5,499.5 C 707.249,507.139 706.582,514.972 705.5,523C 706.116,524.4 706.449,525.9 706.5,527.5C 706.639,529.883 705.972,531.883 704.5,533.5C 702.371,534.495 699.871,534.495 697,533.5C 693.709,535.2 690.209,536.367 686.5,537C 680.568,537.472 674.735,538.306 669,539.5C 667.984,538.366 667.317,538.699 667,540.5C 664.323,540.177 661.323,540.177 658,540.5C 655.241,539.677 652.407,539.01 649.5,538.5C 644.214,539.811 639.048,540.811 634,541.5C 633.667,540.833 633.333,540.167 633,539.5C 631.921,541.394 630.587,541.727 629,540.5C 628.667,541.167 628.333,541.833 628,542.5C 625.891,540.608 623.724,539.942 621.5,540.5C 626.09,528.039 629.756,515.706 632.5,503.5C 638.627,502.749 644.627,502.749 650.5,503.5C 654.966,503.006 659.3,502.006 663.5,500.5C 666.323,500.942 669.157,501.275 672,501.5C 675,500.833 678,500.167 681,499.5C 683.953,499.422 686.953,499.755 690,500.5C 691.313,499.427 692.813,498.76 694.5,498.5C 698.827,498.425 703.16,498.758 707.5,499.5 Z"/></g>
<g><path style="opacity:1" fill="#668055" d="M 471.5,532.5 C 477.716,533.198 484.049,534.698 490.5,537C 496.432,537.472 502.265,538.306 508,539.5C 509.016,538.366 509.683,538.699 510,540.5C 512.677,540.177 515.677,540.177 519,540.5C 521.759,539.677 524.593,539.01 527.5,538.5C 532.634,539.86 537.801,540.86 543,541.5C 543.333,540.833 543.667,540.167 544,539.5C 544.689,540.357 545.522,541.023 546.5,541.5C 547.842,540.098 548.676,540.431 549,542.5C 551.109,540.608 553.276,539.942 555.5,540.5C 558.705,546.9 562.205,553.233 566,559.5C 567.062,561.208 568.229,561.874 569.5,561.5C 564.725,566.657 562.058,572.657 561.5,579.5C 557.666,579.714 553.832,579.047 550,577.5C 549.275,578.059 548.442,578.392 547.5,578.5C 535.717,576.284 524.217,573.951 513,571.5C 512.275,572.059 511.442,572.392 510.5,572.5C 500.492,570.219 490.825,567.053 481.5,563C 479.071,562.297 476.738,562.463 474.5,563.5C 474.766,554.198 474.266,544.531 473,534.5C 472.283,533.956 471.783,533.289 471.5,532.5 Z"/></g>
<g><path style="opacity:1" fill="#668055" d="M 704.5,533.5 C 702.804,543.783 702.137,553.783 702.5,563.5C 700.262,562.463 697.929,562.297 695.5,563C 686.175,567.053 676.508,570.219 666.5,572.5C 665.558,572.392 664.725,572.059 664,571.5C 652.783,573.951 641.283,576.284 629.5,578.5C 628.558,578.392 627.725,578.059 627,577.5C 623.168,579.047 619.334,579.714 615.5,579.5C 614.942,572.657 612.275,566.657 607.5,561.5C 608.771,561.874 609.938,561.208 611,559.5C 614.795,553.233 618.295,546.9 621.5,540.5C 623.724,539.942 625.891,540.608 628,542.5C 628.333,541.833 628.667,541.167 629,540.5C 630.587,541.727 631.921,541.394 633,539.5C 633.333,540.167 633.667,540.833 634,541.5C 639.048,540.811 644.214,539.811 649.5,538.5C 652.407,539.01 655.241,539.677 658,540.5C 661.323,540.177 664.323,540.177 667,540.5C 667.317,538.699 667.984,538.366 669,539.5C 674.735,538.306 680.568,537.472 686.5,537C 690.209,536.367 693.709,535.2 697,533.5C 699.871,534.495 702.371,534.495 704.5,533.5 Z"/></g>
<g><path style="opacity:1" fill="#3a1617" d="M 545.5,469.5 C 545.156,472.309 545.156,475.475 545.5,479C 547.196,487.008 549.196,494.841 551.5,502.5C 551.389,503.117 551.056,503.617 550.5,504C 554.522,517.048 559.188,529.215 564.5,540.5C 567.821,546.473 571.155,552.473 574.5,558.5C 576.957,558.78 579.624,559.447 582.5,560.5C 582.794,557.241 584.294,554.241 587,551.5C 590.242,551.185 592.408,552.852 593.5,556.5C 592.529,557.962 592.862,559.295 594.5,560.5C 596.903,559.296 599.236,558.962 601.5,559.5C 605.431,553.303 609.098,546.969 612.5,540.5C 617.812,529.215 622.478,517.048 626.5,504C 625.944,503.617 625.611,503.117 625.5,502.5C 627.804,494.841 629.804,487.008 631.5,479C 632.058,475.551 632.058,472.384 631.5,469.5C 632.228,466.921 632.728,464.254 633,461.5C 634.011,460.663 635.178,460.33 636.5,460.5C 636.5,462.167 636.5,463.833 636.5,465.5C 636.443,478.03 635.109,490.697 632.5,503.5C 629.756,515.706 626.09,528.039 621.5,540.5C 618.295,546.9 614.795,553.233 611,559.5C 609.938,561.208 608.771,561.874 607.5,561.5C 612.275,566.657 614.942,572.657 615.5,579.5C 614.353,593.325 607.02,599.992 593.5,599.5C 592.5,598.833 591.5,598.167 590.5,597.5C 586.271,599.101 582.104,599.767 578,599.5C 571.879,598.772 567.212,595.772 564,590.5C 562.968,586.587 562.135,582.921 561.5,579.5C 562.058,572.657 564.725,566.657 569.5,561.5C 568.229,561.874 567.062,561.208 566,559.5C 562.205,553.233 558.705,546.9 555.5,540.5C 550.91,528.039 547.244,515.706 544.5,503.5C 542.146,490.266 540.479,477.266 539.5,464.5C 540.434,463.432 540.768,462.099 540.5,460.5C 541.822,460.33 542.989,460.663 544,461.5C 544.272,464.254 544.772,466.921 545.5,469.5 Z"/></g>
<g><path style="opacity:1" fill="#678156" d="M 612.5,540.5 C 609.098,546.969 605.431,553.303 601.5,559.5C 599.236,558.962 596.903,559.296 594.5,560.5C 592.862,559.295 592.529,557.962 593.5,556.5C 592.408,552.852 590.242,551.185 587,551.5C 584.294,554.241 582.794,557.241 582.5,560.5C 579.624,559.447 576.957,558.78 574.5,558.5C 571.155,552.473 567.821,546.473 564.5,540.5C 566.017,540.511 567.184,541.177 568,542.5C 570,541.167 572,541.167 574,542.5C 574.333,541.833 574.667,541.167 575,540.5C 576.398,541.051 577.732,541.384 579,541.5C 580.333,538.833 581.667,538.833 583,541.5C 586.667,540.167 590.333,540.167 594,541.5C 595.333,538.833 596.667,538.833 598,541.5C 599.268,541.384 600.602,541.051 602,540.5C 602.333,541.167 602.667,541.833 603,542.5C 605,541.167 607,541.167 609,542.5C 609.816,541.177 610.983,540.511 612.5,540.5 Z"/></g>
<g><path style="opacity:1" fill="#90af7e" d="M 625.5,502.5 C 625.611,503.117 625.944,503.617 626.5,504C 622.478,517.048 617.812,529.215 612.5,540.5C 610.983,540.511 609.816,541.177 609,542.5C 607,541.167 605,541.167 603,542.5C 602.667,541.833 602.333,541.167 602,540.5C 600.602,541.051 599.268,541.384 598,541.5C 596.667,538.833 595.333,538.833 594,541.5C 590.333,540.167 586.667,540.167 583,541.5C 581.667,538.833 580.333,538.833 579,541.5C 577.732,541.384 576.398,541.051 575,540.5C 574.667,541.167 574.333,541.833 574,542.5C 572,541.167 570,541.167 568,542.5C 567.184,541.177 566.017,540.511 564.5,540.5C 559.188,529.215 554.522,517.048 550.5,504C 551.056,503.617 551.389,503.117 551.5,502.5C 576.167,502.5 600.833,502.5 625.5,502.5 Z"/></g>
<g><path style="opacity:1" fill="#668055" d="M 545.5,469.5 C 550.603,475.866 556.27,481.699 562.5,487C 566.749,488.255 571.083,490.089 575.5,492.5C 577.28,491.085 578.946,491.252 580.5,493C 585.833,493.667 591.167,493.667 596.5,493C 597.416,492.626 598.25,492.126 599,491.5C 600.117,491.665 601.284,491.998 602.5,492.5C 606.369,489.65 610.369,487.817 614.5,487C 620.73,481.699 626.397,475.866 631.5,469.5C 632.058,472.384 632.058,475.551 631.5,479C 629.804,487.008 627.804,494.841 625.5,502.5C 600.833,502.5 576.167,502.5 551.5,502.5C 549.196,494.841 547.196,487.008 545.5,479C 545.156,475.475 545.156,472.309 545.5,469.5 Z"/></g>
<g><path style="opacity:1" fill="#90b07f" d="M 561.5,579.5 C 562.135,582.921 562.968,586.587 564,590.5C 567.212,595.772 571.879,598.772 578,599.5C 582.104,599.767 586.271,599.101 590.5,597.5C 591.5,598.167 592.5,598.833 593.5,599.5C 607.02,599.992 614.353,593.325 615.5,579.5C 619.334,579.714 623.168,579.047 627,577.5C 627.725,578.059 628.558,578.392 629.5,578.5C 641.283,576.284 652.783,573.951 664,571.5C 664.725,572.059 665.558,572.392 666.5,572.5C 676.508,570.219 686.175,567.053 695.5,563C 697.929,562.297 700.262,562.463 702.5,563.5C 702.393,568.585 701.726,573.585 700.5,578.5C 700.393,584.062 700.727,589.395 701.5,594.5C 701.167,595.833 700.833,597.167 700.5,598.5C 699.261,598.942 698.261,599.609 697.5,600.5C 696.542,600.047 695.708,599.381 695,598.5C 689.03,601.607 682.864,603.441 676.5,604C 675.069,604.465 673.903,605.299 673,606.5C 670.91,605.209 669.576,605.876 669,608.5C 665.898,608.217 662.898,608.217 660,608.5C 657.591,611.041 654.924,612.374 652,612.5C 651.333,611.833 650.667,611.167 650,610.5C 646.35,613.031 642.35,613.698 638,612.5C 636.47,613.636 635.137,614.636 634,615.5C 632.984,614.366 632.317,614.699 632,616.5C 631.692,615.692 631.192,615.025 630.5,614.5C 627.898,615.411 625.065,615.411 622,614.5C 621.692,615.308 621.192,615.975 620.5,616.5C 618.5,615.167 616.5,615.167 614.5,616.5C 613.522,616.023 612.689,615.357 612,614.5C 611.667,615.167 611.333,615.833 611,616.5C 608.393,615.519 605.559,615.186 602.5,615.5C 600.902,617.973 599.402,617.973 598,615.5C 597.311,616.357 596.478,617.023 595.5,617.5C 590.833,617.5 586.167,617.5 581.5,617.5C 579.902,615.027 578.402,615.027 577,617.5C 576.311,616.643 575.478,615.977 574.5,615.5C 571.441,615.186 568.607,615.519 566,616.5C 565.667,615.833 565.333,615.167 565,614.5C 564.311,615.357 563.478,616.023 562.5,616.5C 560.5,615.167 558.5,615.167 556.5,616.5C 555.808,615.975 555.308,615.308 555,614.5C 551.935,615.411 549.102,615.411 546.5,614.5C 545.459,616.991 544.626,616.991 544,614.5C 543.667,614.833 543.333,615.167 543,615.5C 541.863,614.636 540.53,613.636 539,612.5C 534.65,613.698 530.65,613.031 527,610.5C 526.333,611.167 525.667,611.833 525,612.5C 522.076,612.374 519.409,611.041 517,608.5C 514.102,608.217 511.102,608.217 508,608.5C 507.424,605.876 506.09,605.209 504,606.5C 501.037,603.765 497.704,602.765 494,603.5C 489.874,602.017 485.874,600.35 482,598.5C 481.292,599.381 480.458,600.047 479.5,600.5C 478.739,599.609 477.739,598.942 476.5,598.5C 476.167,597.167 475.833,595.833 475.5,594.5C 476.273,589.395 476.607,584.062 476.5,578.5C 475.274,573.585 474.607,568.585 474.5,563.5C 476.738,562.463 479.071,562.297 481.5,563C 490.825,567.053 500.492,570.219 510.5,572.5C 511.442,572.392 512.275,572.059 513,571.5C 524.217,573.951 535.717,576.284 547.5,578.5C 548.442,578.392 549.275,578.059 550,577.5C 553.832,579.047 557.666,579.714 561.5,579.5 Z"/></g>
<g><path style="opacity:1" fill="#8b272d" d="M 574.5,565.5 C 576.527,565.338 578.527,565.505 580.5,566C 583.101,567.471 585.767,568.637 588.5,569.5C 591.233,568.637 593.899,567.471 596.5,566C 598.899,565.289 601.232,565.456 603.5,566.5C 604.491,568.323 605.824,569.823 607.5,571C 607.843,577.432 607.343,583.932 606,590.5C 603.171,592.13 600.171,593.464 597,594.5C 594.154,593.285 591.321,592.285 588.5,591.5C 585.679,592.285 582.846,593.285 580,594.5C 577.649,593.286 575.149,592.452 572.5,592C 570.879,589.834 570.045,587.334 570,584.5C 569.761,579.885 569.594,575.385 569.5,571C 571.345,569.322 573.012,567.489 574.5,565.5 Z"/></g>
<g><path style="opacity:1" fill="#668055" d="M 697.5,600.5 C 698.947,601.134 699.613,602.301 699.5,604C 695.708,620.624 693.875,637.457 694,654.5C 692.634,656.362 691.134,658.028 689.5,659.5C 684.685,662.876 679.685,666.042 674.5,669C 664.179,672.25 654.345,676.417 645,681.5C 644,681.167 643,680.833 642,680.5C 637.423,681.712 632.923,683.045 628.5,684.5C 627.833,684.167 627.167,683.833 626.5,683.5C 618.66,684.004 611.16,685.67 604,688.5C 593.667,688.5 583.333,688.5 573,688.5C 565.84,685.67 558.34,684.004 550.5,683.5C 549.833,683.833 549.167,684.167 548.5,684.5C 544.003,683.121 539.503,681.788 535,680.5C 534,680.833 533,681.167 532,681.5C 522.655,676.417 512.821,672.25 502.5,669C 497.315,666.042 492.315,662.876 487.5,659.5C 485.866,658.028 484.366,656.362 483,654.5C 483.125,637.457 481.292,620.624 477.5,604C 477.387,602.301 478.053,601.134 479.5,600.5C 480.458,600.047 481.292,599.381 482,598.5C 485.874,600.35 489.874,602.017 494,603.5C 497.704,602.765 501.037,603.765 504,606.5C 506.09,605.209 507.424,605.876 508,608.5C 511.102,608.217 514.102,608.217 517,608.5C 519.409,611.041 522.076,612.374 525,612.5C 525.667,611.833 526.333,611.167 527,610.5C 530.65,613.031 534.65,613.698 539,612.5C 540.53,613.636 541.863,614.636 543,615.5C 543.333,615.167 543.667,614.833 544,614.5C 544.626,616.991 545.459,616.991 546.5,614.5C 549.102,615.411 551.935,615.411 555,614.5C 555.308,615.308 555.808,615.975 556.5,616.5C 558.5,615.167 560.5,615.167 562.5,616.5C 563.478,616.023 564.311,615.357 565,614.5C 565.333,615.167 565.667,615.833 566,616.5C 568.607,615.519 571.441,615.186 574.5,615.5C 575.478,615.977 576.311,616.643 577,617.5C 578.402,615.027 579.902,615.027 581.5,617.5C 586.167,617.5 590.833,617.5 595.5,617.5C 596.478,617.023 597.311,616.357 598,615.5C 599.402,617.973 600.902,617.973 602.5,615.5C 605.559,615.186 608.393,615.519 611,616.5C 611.333,615.833 611.667,615.167 612,614.5C 612.689,615.357 613.522,616.023 614.5,616.5C 616.5,615.167 618.5,615.167 620.5,616.5C 621.192,615.975 621.692,615.308 622,614.5C 625.065,615.411 627.898,615.411 630.5,614.5C 631.192,615.025 631.692,615.692 632,616.5C 632.317,614.699 632.984,614.366 634,615.5C 635.137,614.636 636.47,613.636 638,612.5C 642.35,613.698 646.35,613.031 650,610.5C 650.667,611.167 651.333,611.833 652,612.5C 654.924,612.374 657.591,611.041 660,608.5C 662.898,608.217 665.898,608.217 669,608.5C 669.576,605.876 670.91,605.209 673,606.5C 673.903,605.299 675.069,604.465 676.5,604C 682.864,603.441 689.03,601.607 695,598.5C 695.708,599.381 696.542,600.047 697.5,600.5 Z"/></g>
<g><path style="opacity:0.999" fill="#90af7e" d="M 487.5,659.5 C 492.315,662.876 497.315,666.042 502.5,669C 512.821,672.25 522.655,676.417 532,681.5C 533,681.167 534,680.833 535,680.5C 539.503,681.788 544.003,683.121 548.5,684.5C 549.167,684.167 549.833,683.833 550.5,683.5C 558.34,684.004 565.84,685.67 573,688.5C 583.333,688.5 593.667,688.5 604,688.5C 611.16,685.67 618.66,684.004 626.5,683.5C 627.167,683.833 627.833,684.167 628.5,684.5C 632.923,683.045 637.423,681.712 642,680.5C 643,680.833 644,681.167 645,681.5C 654.345,676.417 664.179,672.25 674.5,669C 679.685,666.042 684.685,662.876 689.5,659.5C 690.99,665.108 692.656,670.774 694.5,676.5C 694.5,676.833 694.5,677.167 694.5,677.5C 693.196,680.303 691.196,682.636 688.5,684.5C 684.129,687.344 679.462,689.511 674.5,691C 672.845,692.444 672.178,694.278 672.5,696.5C 668.284,698.968 663.784,700.968 659,702.5C 657.984,701.366 657.317,701.699 657,703.5C 656.667,703.167 656.333,702.833 656,702.5C 646.642,705.075 637.642,707.742 629,710.5C 624.872,710.069 620.706,710.735 616.5,712.5C 614.844,710.978 613.677,711.311 613,713.5C 610.816,714.108 608.816,713.441 607,711.5C 606.333,712.167 605.667,712.833 605,713.5C 590.942,713.16 577.275,713.16 564,713.5C 563.323,711.311 562.156,710.978 560.5,712.5C 556.294,710.735 552.128,710.069 548,710.5C 539.358,707.742 530.358,705.075 521,702.5C 519.984,703.634 519.317,703.301 519,701.5C 518.667,701.833 518.333,702.167 518,702.5C 513.216,700.968 508.716,698.968 504.5,696.5C 504.822,694.278 504.155,692.444 502.5,691C 497.847,689.781 493.68,687.615 490,684.5C 489.667,684.833 489.333,685.167 489,685.5C 486.214,683.226 484.047,680.56 482.5,677.5C 482.5,677.167 482.5,676.833 482.5,676.5C 484.344,670.774 486.01,665.108 487.5,659.5 Z"/></g>
<g><path style="opacity:0.969" fill="#482223" d="M 504.5,696.5 C 508.716,698.968 513.216,700.968 518,702.5C 518.333,702.167 518.667,701.833 519,701.5C 519.317,703.301 519.984,703.634 521,702.5C 530.358,705.075 539.358,707.742 548,710.5C 552.128,710.069 556.294,710.735 560.5,712.5C 562.156,710.978 563.323,711.311 564,713.5C 577.275,713.16 590.942,713.16 605,713.5C 605.667,712.833 606.333,712.167 607,711.5C 608.816,713.441 610.816,714.108 613,713.5C 613.677,711.311 614.844,710.978 616.5,712.5C 620.706,710.735 624.872,710.069 629,710.5C 637.642,707.742 646.642,705.075 656,702.5C 656.333,702.833 656.667,703.167 657,703.5C 657.317,701.699 657.984,701.366 659,702.5C 663.784,700.968 668.284,698.968 672.5,696.5C 672.369,697.239 672.536,697.906 673,698.5C 673.654,697.304 674.154,697.304 674.5,698.5C 672.202,700.485 672.368,702.485 675,704.5C 676.147,703.542 677.147,703.875 678,705.5C 680.628,704.723 683.128,703.723 685.5,702.5C 686.167,702.5 686.5,702.833 686.5,703.5C 683.676,706.464 680.176,708.797 676,710.5C 675.667,710.167 675.333,709.833 675,709.5C 672.076,710.734 669.409,712.401 667,714.5C 665.605,713.185 664.605,713.519 664,715.5C 663.667,715.167 663.333,714.833 663,714.5C 657.98,716.012 653.647,718.012 650,720.5C 649.667,720.167 649.333,719.833 649,719.5C 644.838,721.415 640.505,722.749 636,723.5C 634.703,722.216 633.536,722.383 632.5,724C 620.746,724.972 609.08,726.306 597.5,728C 596.584,728.374 595.75,728.874 595,729.5C 590.667,728.167 586.333,728.167 582,729.5C 581.25,728.874 580.416,728.374 579.5,728C 567.92,726.306 556.254,724.972 544.5,724C 543.464,722.383 542.297,722.216 541,723.5C 536.495,722.749 532.162,721.415 528,719.5C 527.667,719.833 527.333,720.167 527,720.5C 523.353,718.012 519.02,716.012 514,714.5C 513.667,714.833 513.333,715.167 513,715.5C 512.395,713.519 511.395,713.185 510,714.5C 507.591,712.401 504.924,710.734 502,709.5C 501.667,709.833 501.333,710.167 501,710.5C 496.824,708.797 493.324,706.464 490.5,703.5C 491.167,703.5 491.5,703.167 491.5,702.5C 493.872,703.723 496.372,704.723 499,705.5C 499.853,703.875 500.853,703.542 502,704.5C 504.632,702.485 504.798,700.485 502.5,698.5C 502.846,697.304 503.346,697.304 504,698.5C 504.464,697.906 504.631,697.239 504.5,696.5 Z"/></g>
<g><path style="opacity:0.027" fill="#230000" d="M 524.5,733.5 C 525.833,734.167 525.833,734.167 524.5,733.5 Z"/></g>
<g><path style="opacity:0.027" fill="#230000" d="M 651.5,733.5 C 652.833,734.167 652.833,734.167 651.5,733.5 Z"/></g>
<g><path style="opacity:0.992" fill="#381215" d="M 469.5,749.5 C 468.5,751.5 467.5,753.5 466.5,755.5C 463.27,763.721 459.603,771.721 455.5,779.5C 454.183,782.428 452.85,785.428 451.5,788.5C 445.697,806.468 440.364,823.968 435.5,841C 436.121,843.498 435.455,845.832 433.5,848C 433.957,848.414 434.291,848.914 434.5,849.5C 433.5,853.5 432.5,857.5 431.5,861.5C 431.833,862.833 432.167,864.167 432.5,865.5C 431.237,867.029 430.237,868.695 429.5,870.5C 428.577,869.697 427.577,869.53 426.5,870C 427.197,872.344 426.531,874.511 424.5,876.5C 422.533,877.684 420.866,877.351 419.5,875.5C 418.833,875.5 418.5,875.833 418.5,876.5C 418.004,872.825 418.004,869.158 418.5,865.5C 419.074,863.941 419.74,862.441 420.5,861C 420.5,858.333 420.5,855.667 420.5,853C 422.547,846.081 424.047,839.248 425,832.5C 426.016,833.634 426.683,833.301 427,831.5C 434.445,807.937 444.112,785.27 456,763.5C 457.741,758.946 459.074,754.279 460,749.5C 462.343,748.873 464.51,747.873 466.5,746.5C 468.213,746.879 469.213,747.879 469.5,749.5 Z"/></g>
<g><path style="opacity:0.969" fill="#3d181c" d="M 418.5,876.5 C 419.167,876.5 419.5,876.167 419.5,875.5C 420.866,877.351 422.533,877.684 424.5,876.5C 426.531,874.511 427.197,872.344 426.5,870C 427.577,869.53 428.577,869.697 429.5,870.5C 428.215,879.785 428.215,889.118 429.5,898.5C 428.682,904.46 428.015,910.46 427.5,916.5C 428.855,919.453 428.522,922.119 426.5,924.5C 427.335,934.682 427.335,945.182 426.5,956C 427.167,957.333 427.833,958.667 428.5,960C 427.167,963 427.167,966 428.5,969C 427.833,970.333 427.167,971.667 426.5,973C 427.833,974 427.833,975 426.5,976C 427.428,976.388 428.095,977.055 428.5,978C 427.983,980.077 427.316,982.077 426.5,984C 427.167,985 427.833,986 428.5,987C 428.374,999.133 428.04,1011.13 427.5,1023C 428.167,1024.33 428.833,1025.67 429.5,1027C 428.991,1039.41 428.991,1051.75 429.5,1064C 428.833,1065.33 428.167,1066.67 427.5,1068C 427.62,1070.79 427.953,1073.62 428.5,1076.5C 427.975,1077.19 427.308,1077.69 426.5,1078C 427.257,1082.11 427.591,1086.44 427.5,1091C 425.109,1091.69 425.109,1092.69 427.5,1094C 426.833,1095.33 426.167,1096.67 425.5,1098C 425.732,1101.04 426.066,1103.7 426.5,1106C 425.833,1107.33 425.167,1108.67 424.5,1110C 424.199,1119.66 424.199,1129.16 424.5,1138.5C 423.77,1141.11 423.27,1143.78 423,1146.5C 421.556,1148.16 419.722,1148.82 417.5,1148.5C 416.921,1157.89 415.921,1167.39 414.5,1177C 414.833,1177.33 415.167,1177.67 415.5,1178C 414.921,1181.14 413.921,1184.14 412.5,1187C 413.816,1190.45 413.483,1193.79 411.5,1197C 411.539,1199.3 411.872,1201.63 412.5,1204C 411.5,1209.67 410.5,1215.33 409.5,1221C 409.833,1221.33 410.167,1221.67 410.5,1222C 408.32,1227.57 407.154,1233.41 407,1239.5C 406.5,1240 406,1240.5 405.5,1241C 405.647,1242.97 405.981,1244.97 406.5,1247C 404.597,1248.67 404.263,1250.5 405.5,1252.5C 405.077,1255.11 404.077,1257.44 402.5,1259.5C 402.946,1261.37 403.279,1263.2 403.5,1265C 402.237,1270.79 400.57,1276.46 398.5,1282C 399.174,1283.75 399.507,1285.42 399.5,1287C 397.802,1291.52 396.468,1295.85 395.5,1300C 396.742,1302.92 396.408,1306.09 394.5,1309.5C 395.347,1311.06 395.014,1312.56 393.5,1314C 393.5,1317.67 393.5,1321.33 393.5,1325C 392.12,1326.32 391.786,1327.66 392.5,1329C 391.833,1331 391.167,1333 390.5,1335C 390.729,1338.43 390.729,1341.76 390.5,1345C 389.767,1348.55 388.767,1352.05 387.5,1355.5C 387.484,1359.21 387.484,1362.87 387.5,1366.5C 386.091,1374.37 384.758,1382.2 383.5,1390C 383.585,1391.11 383.919,1392.11 384.5,1393C 382.606,1394.08 382.273,1395.41 383.5,1397C 382.833,1400 382.167,1403 381.5,1406C 382.674,1408.52 382.341,1411.02 380.5,1413.5C 380.709,1414.09 381.043,1414.59 381.5,1415C 379.96,1419.6 379.627,1423.94 380.5,1428C 378.616,1429.99 378.283,1431.99 379.5,1434C 378.57,1435.19 377.903,1436.53 377.5,1438C 378.073,1442.47 378.073,1446.81 377.5,1451C 376.854,1454.81 376.354,1458.65 376,1462.5C 375.5,1463 375,1463.5 374.5,1464C 375.245,1467.05 375.578,1470.05 375.5,1473C 374.833,1475 374.167,1477 373.5,1479C 373.732,1482.04 374.066,1484.7 374.5,1487C 373.493,1493.57 372.159,1500.07 370.5,1506.5C 372.375,1507.97 372.375,1509.8 370.5,1512C 370.271,1515.24 370.271,1518.57 370.5,1522C 367.732,1524.6 366.732,1527.6 367.5,1531C 365.069,1534.86 364.069,1538.86 364.5,1543C 363.667,1543.83 362.833,1544.67 362,1545.5C 359.252,1553.75 357.418,1561.92 356.5,1570C 356.833,1570.33 357.167,1570.67 357.5,1571C 355.299,1575.89 355.299,1580.89 357.5,1586C 356.833,1586.67 356.167,1587.33 355.5,1588C 356.167,1590.33 356.833,1592.67 357.5,1595C 356.966,1598.73 356.966,1602.73 357.5,1607C 356.728,1608.22 355.728,1609.22 354.5,1610C 355.5,1613.67 356.5,1617.33 357.5,1621C 356.447,1626.95 356.447,1632.62 357.5,1638C 356.773,1640.12 356.106,1642.29 355.5,1644.5C 356.145,1645.65 356.978,1646.65 358,1647.5C 367.353,1647.26 376.186,1647.26 384.5,1647.5C 392.177,1646.89 398.677,1643.89 404,1638.5C 407.544,1629.23 412.711,1621.06 419.5,1614C 425.587,1611.54 431.421,1608.7 437,1605.5C 441.026,1606.29 445.192,1606.29 449.5,1605.5C 451.424,1601.98 453.091,1598.32 454.5,1594.5C 460.613,1587.05 468.113,1582.39 477,1580.5C 480.388,1578.94 483.888,1577.61 487.5,1576.5C 497.026,1576.33 506.526,1576.33 516,1576.5C 529.746,1580.41 540.913,1588.08 549.5,1599.5C 552.298,1600.97 555.298,1601.8 558.5,1602C 559.579,1604.04 561.246,1605.38 563.5,1606C 562.833,1607 562.167,1608 561.5,1609C 566.74,1613.84 570.906,1619.01 574,1624.5C 574.667,1622.5 576,1621.17 578,1620.5C 578.775,1617.5 580.441,1615.17 583,1613.5C 583.466,1609.74 584.632,1605.91 586.5,1602C 586.167,1601.67 585.833,1601.33 585.5,1601C 588.048,1594.58 589.381,1588.08 589.5,1581.5C 589.458,1576.99 589.124,1572.49 588.5,1568C 589.167,1567.33 589.833,1566.67 590.5,1566C 590.255,1564.09 590.255,1562.09 590.5,1560C 589.719,1553.54 588.885,1547.04 588,1540.5C 584.187,1524.45 580.687,1508.61 577.5,1493C 577.957,1492.59 578.291,1492.09 578.5,1491.5C 576.728,1482.53 575.061,1473.53 573.5,1464.5C 573.608,1463.56 573.941,1462.72 574.5,1462C 572.705,1453.15 571.039,1444.31 569.5,1435.5C 570.31,1433.17 569.977,1430.84 568.5,1428.5C 568.709,1427.91 569.043,1427.41 569.5,1427C 567.772,1417.98 566.106,1408.65 564.5,1399C 564.365,1395.59 564.365,1392.09 564.5,1388.5C 563.96,1387.25 563.293,1386.09 562.5,1385C 562.152,1362.83 562.152,1341.16 562.5,1320C 561.775,1315.71 561.108,1311.38 560.5,1307C 560.469,1303.54 560.803,1300.04 561.5,1296.5C 560.833,1294.17 560.167,1291.83 559.5,1289.5C 559.183,1286.4 559.516,1283.57 560.5,1281C 559.833,1278 559.167,1275 558.5,1272C 558.833,1271 559.167,1270 559.5,1269C 558.833,1266.33 558.167,1263.67 557.5,1261C 557.374,1258.77 557.707,1256.43 558.5,1254C 557.833,1252.33 557.167,1250.67 556.5,1249C 557.397,1245.88 557.397,1242.88 556.5,1240C 557.294,1228.76 558.294,1217.76 559.5,1207C 559.167,1204.67 558.833,1202.33 558.5,1200C 560.317,1196.3 560.651,1192.8 559.5,1189.5C 560.167,1185.83 560.833,1182.17 561.5,1178.5C 560.539,1172.85 560.205,1167.69 560.5,1163C 564.569,1141.79 567.235,1120.45 568.5,1099C 570.601,1090.94 572.267,1082.94 573.5,1075C 572.803,1072.84 573.137,1070.67 574.5,1068.5C 574.434,1065.97 574.434,1063.47 574.5,1061C 575.128,1058.2 576.128,1055.53 577.5,1053C 577.175,1049.98 577.175,1046.65 577.5,1043C 578.147,1039.5 579.147,1035.84 580.5,1032C 580.167,1031.67 579.833,1031.33 579.5,1031C 580.645,1025.36 581.645,1019.69 582.5,1014C 582.523,1008.86 582.523,1003.7 582.5,998.5C 584.179,989.873 584.512,981.706 583.5,974C 583.972,959.958 584.972,945.958 586.5,932C 586.167,931.667 585.833,931.333 585.5,931C 586.227,929.601 586.727,928.101 587,926.5C 587.717,927.044 588.217,927.711 588.5,928.5C 587.443,929.206 587.776,929.539 589.5,929.5C 591.672,944.075 593.005,958.908 593.5,974C 592.488,981.706 592.821,989.873 594.5,998.5C 594.477,1003.7 594.477,1008.86 594.5,1014C 595.355,1019.69 596.355,1025.36 597.5,1031C 597.167,1031.33 596.833,1031.67 596.5,1032C 600.706,1053.93 604.706,1076.26 608.5,1099C 609.765,1120.45 612.431,1141.79 616.5,1163C 616.795,1167.69 616.461,1172.85 615.5,1178.5C 616.167,1182.17 616.833,1185.83 617.5,1189.5C 616.349,1192.8 616.683,1196.3 618.5,1200C 618.167,1202.33 617.833,1204.67 617.5,1207C 618.706,1217.76 619.706,1228.76 620.5,1240C 619.603,1242.88 619.603,1245.88 620.5,1249C 619.833,1250.67 619.167,1252.33 618.5,1254C 619.293,1256.43 619.626,1258.77 619.5,1261C 618.833,1263.67 618.167,1266.33 617.5,1269C 617.833,1270 618.167,1271 618.5,1272C 617.833,1275 617.167,1278 616.5,1281C 617.484,1283.57 617.817,1286.4 617.5,1289.5C 616.833,1291.83 616.167,1294.17 615.5,1296.5C 616.197,1300.04 616.531,1303.54 616.5,1307C 615.892,1311.38 615.225,1315.71 614.5,1320C 614.848,1341.16 614.848,1362.83 614.5,1385C 613.707,1386.09 613.04,1387.25 612.5,1388.5C 612.635,1392.09 612.635,1395.59 612.5,1399C 610.894,1408.65 609.228,1417.98 607.5,1427C 608.285,1429.04 607.952,1431.04 606.5,1433C 607.155,1438.09 606.489,1443.09 604.5,1448C 604.957,1448.41 605.291,1448.91 605.5,1449.5C 603.633,1463.37 601.3,1477.37 598.5,1491.5C 598.833,1492.17 599.167,1492.83 599.5,1493.5C 598.42,1496.33 597.42,1499.17 596.5,1502C 596.675,1505.56 596.675,1509.06 596.5,1512.5C 598.359,1515.57 598.359,1518.4 596.5,1521C 597.743,1522.15 598.743,1523.49 599.5,1525C 599.579,1526.91 599.246,1528.91 598.5,1531C 598.977,1533.9 599.977,1536.57 601.5,1539C 602.557,1543.72 602.557,1548.39 601.5,1553C 603.973,1554.4 603.973,1555.9 601.5,1557.5C 601.91,1562.79 602.577,1567.96 603.5,1573C 602.789,1575.8 602.122,1578.63 601.5,1581.5C 602.471,1582.96 602.138,1584.3 600.5,1585.5C 600.977,1586.48 601.643,1587.31 602.5,1588C 601.167,1588.67 600.167,1589.67 599.5,1591C 600.394,1593.44 600.728,1596.11 600.5,1599C 597.773,1603.35 597.107,1607.68 598.5,1612C 597.692,1612.31 597.025,1612.81 596.5,1613.5C 597.154,1615.12 597.654,1616.78 598,1618.5C 599.667,1620.5 601.333,1622.5 603,1624.5C 606.094,1619.01 610.26,1613.84 615.5,1609C 614.833,1608 614.167,1607 613.5,1606C 615.754,1605.38 617.421,1604.04 618.5,1602C 621.702,1601.8 624.702,1600.97 627.5,1599.5C 642.16,1580.87 660.66,1573.54 683,1577.5C 688.913,1576.37 694.747,1577.37 700.5,1580.5C 709.147,1582.52 716.481,1587.19 722.5,1594.5C 723.909,1598.32 725.576,1601.98 727.5,1605.5C 731.808,1606.29 735.974,1606.29 740,1605.5C 745.628,1608.71 751.461,1611.55 757.5,1614C 764.289,1621.06 769.456,1629.23 773,1638.5C 778.323,1643.89 784.823,1646.89 792.5,1647.5C 800.874,1647.25 809.707,1647.25 819,1647.5C 819.667,1646.83 820.333,1646.17 821,1645.5C 821.023,1642.95 820.523,1640.45 819.5,1638C 820.553,1632.62 820.553,1626.95 819.5,1621C 820.56,1617.21 821.56,1613.37 822.5,1609.5C 821.675,1608.61 820.675,1608.28 819.5,1608.5C 820.62,1602.72 820.62,1597.22 819.5,1592C 821.434,1589.73 821.434,1587.73 819.5,1586C 821.701,1580.89 821.701,1575.89 819.5,1571C 818.635,1557.54 815.302,1544.2 809.5,1531C 810.268,1527.6 809.268,1524.6 806.5,1522C 806.729,1518.57 806.729,1515.24 806.5,1512C 804.625,1509.8 804.625,1507.97 806.5,1506.5C 804.841,1500.07 803.507,1493.57 802.5,1487C 802.934,1484.7 803.268,1482.04 803.5,1479C 802.833,1477 802.167,1475 801.5,1473C 801.422,1470.05 801.755,1467.05 802.5,1464C 802,1463.5 801.5,1463 801,1462.5C 800.646,1458.65 800.146,1454.81 799.5,1451C 798.927,1446.81 798.927,1442.47 799.5,1438C 799.097,1436.53 798.43,1435.19 797.5,1434C 798.717,1431.99 798.384,1429.99 796.5,1428C 797.373,1423.94 797.04,1419.6 795.5,1415C 796.479,1413.22 796.146,1411.55 794.5,1410C 794.527,1405.14 794.527,1400.3 794.5,1395.5C 794.023,1394.52 793.357,1393.69 792.5,1393C 793.081,1392.11 793.415,1391.11 793.5,1390C 792.242,1382.2 790.909,1374.37 789.5,1366.5C 789.516,1362.87 789.516,1359.21 789.5,1355.5C 787.772,1351.63 787.105,1347.8 787.5,1344C 786.711,1341.73 786.044,1339.4 785.5,1337C 785.614,1333.95 785.614,1330.95 785.5,1328C 784.833,1327 784.167,1326 783.5,1325C 783.5,1321.33 783.5,1317.67 783.5,1314C 782.833,1313 782.167,1312 781.5,1311C 781.833,1309.33 782.167,1307.67 782.5,1306C 781.833,1305.33 781.167,1304.67 780.5,1304C 780.461,1302.76 780.795,1301.42 781.5,1300C 780.532,1295.85 779.198,1291.52 777.5,1287C 777.833,1285.33 778.167,1283.67 778.5,1282C 776.43,1276.46 774.763,1270.79 773.5,1265C 773.721,1263.2 774.054,1261.37 774.5,1259.5C 772.031,1256.62 771.364,1253.46 772.5,1250C 771.833,1249 771.167,1248 770.5,1247C 771.019,1244.97 771.353,1242.97 771.5,1241C 771,1240.5 770.5,1240 770,1239.5C 769.846,1233.41 768.68,1227.57 766.5,1222C 766.833,1221.67 767.167,1221.33 767.5,1221C 766.5,1215.33 765.5,1209.67 764.5,1204C 765.128,1201.63 765.461,1199.3 765.5,1197C 763.517,1193.79 763.184,1190.45 764.5,1187C 763.079,1184.14 762.079,1181.14 761.5,1178C 761.833,1177.67 762.167,1177.33 762.5,1177C 761.62,1169.99 760.62,1162.99 759.5,1156C 760.59,1153.72 760.256,1151.55 758.5,1149.5C 756.742,1148.87 755.242,1147.87 754,1146.5C 753.73,1143.78 753.23,1141.11 752.5,1138.5C 752.801,1129.16 752.801,1119.66 752.5,1110C 751.833,1108.67 751.167,1107.33 750.5,1106C 750.934,1103.7 751.268,1101.04 751.5,1098C 749.566,1095.73 749.566,1093.73 751.5,1092C 750.833,1091.67 750.167,1091.33 749.5,1091C 749.289,1086.51 749.622,1082.18 750.5,1078C 749.692,1077.69 749.025,1077.19 748.5,1076.5C 749.047,1073.62 749.38,1070.79 749.5,1068C 748.833,1066.67 748.167,1065.33 747.5,1064C 748.43,1051.54 748.43,1039.2 747.5,1027C 748.167,1025.67 748.833,1024.33 749.5,1023C 748.96,1011.13 748.626,999.133 748.5,987C 749.167,986 749.833,985 750.5,984C 749.684,982.077 749.017,980.077 748.5,978C 748.905,977.055 749.572,976.388 750.5,976C 750.669,973.677 750.003,971.344 748.5,969C 749.167,964.667 749.833,960.333 750.5,956C 749.665,945.182 749.665,934.682 750.5,924.5C 748.478,922.119 748.145,919.453 749.5,916.5C 747.694,900.829 747.361,885.995 748.5,872C 747.648,869.583 746.981,867.083 746.5,864.5C 746.924,859.893 746.924,855.393 746.5,851C 745.57,849.806 744.903,848.473 744.5,847C 745.3,845.212 745.634,843.545 745.5,842C 744.833,840.333 744.167,838.667 743.5,837C 743.367,834.401 743.367,831.734 743.5,829C 741.832,827.433 741.498,825.766 742.5,824C 741.183,809.944 737.35,796.111 731,782.5C 724.689,790.204 716.689,794.204 707,794.5C 700.848,796.526 695.181,798.86 690,801.5C 686.571,801.271 683.238,801.271 680,801.5C 673.239,804.156 666.572,806.489 660,808.5C 657.438,807.913 654.772,807.579 652,807.5C 650.561,809.014 649.061,809.347 647.5,808.5C 642.102,809.689 636.935,811.356 632,813.5C 631.329,812.748 630.496,812.414 629.5,812.5C 628.71,811.206 627.71,810.039 626.5,809C 616.346,804.17 605.679,803.504 594.5,807C 593.687,808.314 592.687,809.481 591.5,810.5C 592.747,812.323 593.414,814.323 593.5,816.5C 590.527,816.305 587.527,816.139 584.5,816C 583.62,817.356 583.286,818.856 583.5,820.5C 581.598,819.632 579.765,818.632 578,817.5C 574.612,819.366 574.779,820.699 578.5,821.5C 577.386,824.285 575.386,825.952 572.5,826.5C 573.028,825.279 573.695,824.113 574.5,823C 570.53,824.133 566.53,825.633 562.5,827.5C 557.562,827.019 552.729,825.352 548,822.5C 547.626,823.416 547.126,824.25 546.5,825C 546.429,832.327 548.429,839.327 552.5,846C 554.365,847.301 556.365,847.635 558.5,847C 562.347,844.083 565.347,840.583 567.5,836.5C 568.476,837.815 569.476,839.148 570.5,840.5C 569.039,842.811 568.706,845.144 569.5,847.5C 570.687,846.347 571.687,846.347 572.5,847.5C 570.721,853.589 569.054,859.422 567.5,865C 567.833,865.333 568.167,865.667 568.5,866C 567.26,869.506 566.26,873.006 565.5,876.5C 566.776,879.303 566.776,881.97 565.5,884.5C 563.477,883.479 561.477,883.812 559.5,885.5C 559.985,874.08 562.319,862.747 566.5,851.5C 566.333,851.167 566.167,850.833 566,850.5C 556.963,856.845 549.629,854.845 544,844.5C 542.477,836.898 542.144,829.232 543,821.5C 544.318,818.523 545.818,815.69 547.5,813C 541.72,811.863 535.72,810.363 529.5,808.5C 527.939,809.347 526.439,809.014 525,807.5C 522.228,807.579 519.562,807.913 517,808.5C 515.829,807.107 514.329,806.273 512.5,806C 504.032,803.68 495.866,801.513 488,799.5C 487.667,800.167 487.333,800.833 487,801.5C 481.819,798.86 476.152,796.526 470,794.5C 469.586,794.957 469.086,795.291 468.5,795.5C 462.423,793.912 456.756,791.578 451.5,788.5C 452.85,785.428 454.183,782.428 455.5,779.5C 455.953,780.458 456.619,781.292 457.5,782C 462.053,783.428 466.553,784.928 471,786.5C 472,785.833 473,785.167 474,784.5C 475.222,780.29 476.888,776.29 479,772.5C 479.899,770.673 481.233,769.34 483,768.5C 483.5,768.833 484,769.167 484.5,769.5C 482.294,775.45 480.294,781.45 478.5,787.5C 493.164,789.476 507.33,792.476 521,796.5C 521.414,796.043 521.914,795.709 522.5,795.5C 529.203,796.34 535.87,797.507 542.5,799C 545.922,799.674 549.089,800.84 552,802.5C 553.925,800.027 555.758,800.027 557.5,802.5C 558.086,802.291 558.586,801.957 559,801.5C 565.813,803.462 572.48,803.462 579,801.5C 585.333,802.833 591.667,802.833 598,801.5C 604.52,803.462 611.187,803.462 618,801.5C 619.587,802.727 620.921,802.394 622,800.5C 623.593,802.285 625.093,802.452 626.5,801C 638.497,797.536 650.33,795.703 662,795.5C 674.834,791.311 687.834,788.644 701,787.5C 701.739,786.426 702.739,785.759 704,785.5C 706.39,785.684 708.724,785.684 711,785.5C 715.184,783.663 719.35,781.829 723.5,780C 725.6,776.356 724.933,773.023 721.5,770C 721.833,769.667 722.167,769.333 722.5,769C 719.803,763.629 716.303,758.796 712,754.5C 701.507,758.941 690.34,762.607 678.5,765.5C 675.59,764.991 672.756,765.658 670,767.5C 669.692,766.692 669.192,766.025 668.5,765.5C 665.746,767.167 663.246,768.501 661,769.5C 658.766,769.626 656.432,769.293 654,768.5C 652.667,769.167 651.667,770.167 651,771.5C 646.428,771.195 641.928,771.195 637.5,771.5C 635.971,771.529 634.804,772.196 634,773.5C 628.099,772.709 622.766,772.376 618,772.5C 614.527,773.043 611.194,774.043 608,775.5C 606.566,773.864 604.733,772.864 602.5,772.5C 593.167,772.5 583.833,772.5 574.5,772.5C 572.267,772.864 570.434,773.864 569,775.5C 565.806,774.043 562.473,773.043 559,772.5C 554.234,772.376 548.901,772.709 543,773.5C 542.196,772.196 541.029,771.529 539.5,771.5C 535.072,771.195 530.572,771.195 526,771.5C 525.333,770.167 524.333,769.167 523,768.5C 520.568,769.293 518.234,769.626 516,769.5C 513.754,768.501 511.254,767.167 508.5,765.5C 507.808,766.025 507.308,766.692 507,767.5C 505.09,766.794 503.09,765.794 501,764.5C 493.403,764.604 486.069,762.937 479,759.5C 478.667,759.833 478.333,760.167 478,760.5C 474.132,757.959 470.299,756.292 466.5,755.5C 467.5,753.5 468.5,751.5 469.5,749.5C 473.375,750.404 477.208,751.404 481,752.5C 483.728,752.014 486.395,752.68 489,754.5C 495.245,754.749 501.245,754.749 507,754.5C 517.852,756.571 528.685,758.571 539.5,760.5C 546.513,759.567 553.679,759.901 561,761.5C 562.147,760.542 563.147,760.875 564,762.5C 564.667,761.833 565.333,761.167 566,760.5C 569.197,761.309 572.363,762.309 575.5,763.5C 584.167,763.5 592.833,763.5 601.5,763.5C 604.637,762.309 607.803,761.309 611,760.5C 612.333,763.167 613.667,763.167 615,760.5C 622.541,759.977 630.041,759.977 637.5,760.5C 648.315,758.571 659.148,756.571 670,754.5C 675.755,754.749 681.755,754.749 688,754.5C 693.051,752.913 698.051,751.247 703,749.5C 703.333,749.833 703.667,750.167 704,750.5C 708.016,748.879 712.183,748.379 716.5,749C 732.553,768.439 743.553,790.439 749.5,815C 749.167,815.333 748.833,815.667 748.5,816C 751.376,827.463 753.709,838.796 755.5,850C 755.797,853.891 755.797,857.891 755.5,862C 756.167,863.333 756.833,864.667 757.5,866C 757.434,868.109 757.101,870.275 756.5,872.5C 757.074,874.059 757.74,875.559 758.5,877C 758.167,881.333 757.833,885.667 757.5,890C 758.528,902.311 759.861,914.311 761.5,926C 760.56,969.964 760.227,1014.8 760.5,1060.5C 761.723,1068.03 762.723,1075.53 763.5,1083C 763.355,1083.77 763.022,1084.44 762.5,1085C 763.238,1088.62 763.904,1092.28 764.5,1096C 764.167,1097 763.833,1098 763.5,1099C 764.411,1106.85 765.411,1114.69 766.5,1122.5C 766.337,1128.35 767.337,1134.18 769.5,1140C 768.885,1143.31 769.218,1146.65 770.5,1150C 770.355,1150.77 770.022,1151.44 769.5,1152C 772.946,1177.01 776.612,1202.01 780.5,1227C 780.054,1231.34 780.721,1235.67 782.5,1240C 782.355,1240.77 782.022,1241.44 781.5,1242C 786.007,1261.87 790.007,1281.87 793.5,1302C 793.167,1302.33 792.833,1302.67 792.5,1303C 793.952,1304.96 794.285,1306.96 793.5,1309C 794.444,1313.15 795.444,1317.32 796.5,1321.5C 801.177,1357.55 805.844,1393.55 810.5,1429.5C 811.022,1436.18 811.022,1442.68 810.5,1449C 813.404,1453.32 814.071,1457.66 812.5,1462C 813.167,1463.33 813.833,1464.67 814.5,1466C 814.411,1471.22 814.411,1476.39 814.5,1481.5C 816.309,1493.49 817.809,1505.49 819,1517.5C 821.628,1527.18 824.794,1536.68 828.5,1546C 828.043,1546.41 827.709,1546.91 827.5,1547.5C 830.417,1556.84 832.417,1566.34 833.5,1576C 833.693,1588.49 833.36,1601.32 832.5,1614.5C 831.5,1614.5 830.5,1614.5 829.5,1614.5C 829.606,1620.68 829.606,1626.68 829.5,1632.5C 830.859,1636.67 831.859,1640.67 832.5,1644.5C 832.065,1647.97 831.398,1651.64 830.5,1655.5C 828.61,1655.3 827.11,1655.96 826,1657.5C 821.733,1657.77 817.733,1657.77 814,1657.5C 812.333,1658.17 810.667,1658.83 809,1659.5C 802.039,1658.6 795.206,1658.6 788.5,1659.5C 787.5,1658.83 786.5,1658.17 785.5,1657.5C 781.994,1657.16 778.828,1657.16 776,1657.5C 773.198,1654.09 769.698,1653.09 765.5,1654.5C 760.845,1653.5 756.178,1653 751.5,1653C 751.957,1653.41 752.291,1653.91 752.5,1654.5C 750.573,1656.79 749.239,1658.96 748.5,1661C 744.108,1663.03 739.608,1663.53 735,1662.5C 733.307,1664.45 731.307,1664.45 729,1662.5C 726.74,1662.67 724.407,1662.67 722,1662.5C 721.667,1663.17 721.333,1663.83 721,1664.5C 714.486,1662.65 707.82,1662.65 701,1664.5C 698.599,1663.53 695.933,1663.53 693,1664.5C 691.518,1662.22 689.851,1662.22 688,1664.5C 685.693,1663.86 683.193,1663.86 680.5,1664.5C 679.522,1664.02 678.689,1663.36 678,1662.5C 677.667,1663.17 677.333,1663.83 677,1664.5C 667.871,1663.7 658.038,1663.7 647.5,1664.5C 646.833,1663.83 646.167,1663.17 645.5,1662.5C 642.56,1664.29 639.893,1664.29 637.5,1662.5C 635.618,1663.09 633.785,1663.76 632,1664.5C 630.691,1662.11 629.691,1662.11 629,1664.5C 628.333,1661.83 627.667,1661.83 627,1664.5C 623.667,1663.17 620.333,1661.83 617,1660.5C 615.135,1655.62 613.635,1650.96 612.5,1646.5C 608.013,1643.84 604.013,1640.67 600.5,1637C 596.304,1637.03 592.638,1635.7 589.5,1633C 590.604,1631.87 590.271,1631.04 588.5,1630.5C 586.729,1631.04 586.396,1631.87 587.5,1633C 584.362,1635.7 580.696,1637.03 576.5,1637C 572.987,1640.67 568.987,1643.84 564.5,1646.5C 563.365,1650.96 561.865,1655.62 560,1660.5C 556.667,1661.83 553.333,1663.17 550,1664.5C 549.333,1661.83 548.667,1661.83 548,1664.5C 547.309,1662.11 546.309,1662.11 545,1664.5C 542.132,1662.57 539.465,1662.57 537,1664.5C 535.215,1663.76 533.382,1663.09 531.5,1662.5C 530.833,1663.17 530.167,1663.83 529.5,1664.5C 518.962,1663.7 509.129,1663.7 500,1664.5C 499.667,1663.83 499.333,1663.17 499,1662.5C 498.311,1663.36 497.478,1664.02 496.5,1664.5C 493.807,1663.86 491.307,1663.86 489,1664.5C 487.149,1662.22 485.482,1662.22 484,1664.5C 477.745,1664.35 471.078,1663.69 464,1662.5C 461.333,1663.17 458.667,1663.83 456,1664.5C 455.667,1663.83 455.333,1663.17 455,1662.5C 452.593,1662.67 450.26,1662.67 448,1662.5C 445.693,1664.45 443.693,1664.45 442,1662.5C 437.392,1663.53 432.892,1663.03 428.5,1661C 427.761,1658.96 426.427,1656.79 424.5,1654.5C 425.999,1653.1 425.666,1652.43 423.5,1652.5C 419.745,1652.9 415.745,1653.57 411.5,1654.5C 407.302,1653.09 403.802,1654.09 401,1657.5C 398.172,1657.16 395.006,1657.16 391.5,1657.5C 390.5,1658.17 389.5,1658.83 388.5,1659.5C 381.794,1658.6 374.961,1658.6 368,1659.5C 366.333,1658.83 364.667,1658.17 363,1657.5C 359.267,1657.77 355.267,1657.77 351,1657.5C 349.89,1655.96 348.39,1655.3 346.5,1655.5C 345.602,1651.64 344.935,1647.97 344.5,1644.5C 345.141,1640.67 346.141,1636.67 347.5,1632.5C 347.394,1626.68 347.394,1620.68 347.5,1614.5C 346.5,1614.5 345.5,1614.5 344.5,1614.5C 343.64,1601.32 343.307,1588.49 343.5,1576C 344.583,1566.34 346.583,1556.84 349.5,1547.5C 349.291,1546.91 348.957,1546.41 348.5,1546C 352.254,1536.39 355.421,1526.89 358,1517.5C 359.191,1505.49 360.691,1493.49 362.5,1481.5C 362.589,1476.39 362.589,1471.22 362.5,1466C 363.167,1464.67 363.833,1463.33 364.5,1462C 362.929,1457.66 363.596,1453.32 366.5,1449C 365.675,1446.23 365.341,1443.56 365.5,1441C 366.489,1431.18 367.823,1421.18 369.5,1411C 375.783,1349.74 385.116,1288.91 397.5,1228.5C 397.291,1227.91 396.957,1227.41 396.5,1227C 400.388,1202.01 404.054,1177.01 407.5,1152C 406.819,1148.85 407.152,1145.68 408.5,1142.5C 408.069,1141.71 407.735,1140.87 407.5,1140C 409.663,1134.18 410.663,1128.35 410.5,1122.5C 411.589,1114.69 412.589,1106.85 413.5,1099C 413.167,1098 412.833,1097 412.5,1096C 413.096,1092.28 413.762,1088.62 414.5,1085C 413.978,1084.44 413.645,1083.77 413.5,1083C 414.121,1079.81 414.788,1076.65 415.5,1073.5C 415.167,1072.17 414.833,1070.83 414.5,1069.5C 415.167,1066.5 415.833,1063.5 416.5,1060.5C 416.773,1014.8 416.44,969.964 415.5,926C 417.139,914.311 418.472,902.311 419.5,890C 419.398,885.54 419.065,881.04 418.5,876.5 Z M 587.5,1016.5 C 589.465,1016.95 589.798,1017.95 588.5,1019.5C 587.614,1018.68 587.281,1017.68 587.5,1016.5 Z M 608.5,1240.5 C 607.308,1241.57 607.641,1242.4 609.5,1243C 608.833,1243.67 608.167,1244.33 607.5,1245C 607.647,1246.97 607.981,1248.97 608.5,1251C 607.833,1252 607.167,1253 606.5,1254C 606.893,1258.63 606.893,1263.46 606.5,1268.5C 605.907,1270.38 605.24,1272.22 604.5,1274C 604.518,1280.62 604.518,1287.29 604.5,1294C 603.76,1295.78 603.093,1297.62 602.5,1299.5C 603.239,1302.42 603.572,1305.26 603.5,1308C 602.937,1310.73 602.27,1313.39 601.5,1316C 602.14,1337.01 602.14,1358.01 601.5,1379C 600.196,1379.8 599.529,1380.97 599.5,1382.5C 598.424,1386.97 598.424,1391.13 599.5,1395C 598.833,1395.67 598.167,1396.33 597.5,1397C 597.13,1400.59 597.13,1403.93 597.5,1407C 596.833,1407.67 596.167,1408.33 595.5,1409C 595.566,1411.87 595.566,1414.7 595.5,1417.5C 594.926,1419.06 594.26,1420.56 593.5,1422C 593.461,1423.24 593.795,1424.58 594.5,1426C 594.095,1426.95 593.428,1427.61 592.5,1428C 592.603,1432.69 592.603,1437.69 592.5,1443C 590.168,1448.45 588.835,1453.95 588.5,1459.5C 588.165,1453.95 586.832,1448.45 584.5,1443C 584.397,1437.69 584.397,1432.69 584.5,1428C 583.572,1427.61 582.905,1426.95 582.5,1426C 583.205,1424.58 583.539,1423.24 583.5,1422C 582.74,1420.56 582.074,1419.06 581.5,1417.5C 581.434,1414.7 581.434,1411.87 581.5,1409C 580.833,1408.33 580.167,1407.67 579.5,1407C 579.87,1403.93 579.87,1400.59 579.5,1397C 578.833,1396.33 578.167,1395.67 577.5,1395C 578.576,1391.13 578.576,1386.97 577.5,1382.5C 577.471,1380.97 576.804,1379.8 575.5,1379C 575.804,1358.49 575.804,1337.49 575.5,1316C 574.73,1313.39 574.063,1310.73 573.5,1308C 573.428,1305.26 573.761,1302.42 574.5,1299.5C 573.907,1297.62 573.24,1295.78 572.5,1294C 572.482,1287.29 572.482,1280.62 572.5,1274C 571.76,1272.22 571.093,1270.38 570.5,1268.5C 570.107,1263.46 570.107,1258.63 570.5,1254C 569.833,1253 569.167,1252 568.5,1251C 569.019,1248.97 569.353,1246.97 569.5,1245C 566.972,1243.68 566.972,1242.52 569.5,1241.5C 569.376,1240.89 569.043,1240.56 568.5,1240.5C 568.467,1237.71 568.133,1234.88 567.5,1232C 568.167,1231 568.833,1230 569.5,1229C 569.145,1222.67 568.812,1216.01 568.5,1209C 569.167,1205 569.833,1201 570.5,1197C 570.496,1182.31 570.496,1167.64 570.5,1153C 570.856,1145.39 572.189,1138.06 574.5,1131C 573.593,1128.52 573.926,1125.69 575.5,1122.5C 574.98,1116.13 574.98,1109.3 575.5,1102C 580.061,1074.61 584.394,1047.45 588.5,1020.5C 593.584,1051.68 598.251,1083.02 602.5,1114.5C 601.787,1117.03 601.454,1119.69 601.5,1122.5C 602.093,1124.38 602.76,1126.22 603.5,1128C 603.13,1131.07 603.13,1134.41 603.5,1138C 604.858,1139.83 605.192,1141.66 604.5,1143.5C 605.499,1151.47 606.499,1159.64 607.5,1168C 607.28,1177.61 606.947,1187.28 606.5,1197C 607.167,1201 607.833,1205 608.5,1209C 608.188,1216.01 607.855,1222.67 607.5,1229C 608.167,1230 608.833,1231 609.5,1232C 608.867,1234.88 608.533,1237.71 608.5,1240.5 Z"/></g>
<g><path style="opacity:0.096" fill="#260c0d" d="M 294.5,748.5 C 295.222,748.918 295.722,749.584 296,750.5C 296.667,753.167 296.667,755.833 296,758.5C 295.39,755.173 294.89,751.839 294.5,748.5 Z"/></g>
<g><path style="opacity:1" fill="#5f987c" d="M 455.5,779.5 C 459.603,771.721 463.27,763.721 466.5,755.5C 470.299,756.292 474.132,757.959 478,760.5C 478.333,760.167 478.667,759.833 479,759.5C 486.069,762.937 493.403,764.604 501,764.5C 503.09,765.794 505.09,766.794 507,767.5C 507.308,766.692 507.808,766.025 508.5,765.5C 511.254,767.167 513.754,768.501 516,769.5C 518.234,769.626 520.568,769.293 523,768.5C 524.333,769.167 525.333,770.167 526,771.5C 530.572,771.195 535.072,771.195 539.5,771.5C 541.029,771.529 542.196,772.196 543,773.5C 548.901,772.709 554.234,772.376 559,772.5C 562.473,773.043 565.806,774.043 569,775.5C 570.434,773.864 572.267,772.864 574.5,772.5C 583.833,772.5 593.167,772.5 602.5,772.5C 604.733,772.864 606.566,773.864 608,775.5C 611.194,774.043 614.527,773.043 618,772.5C 622.766,772.376 628.099,772.709 634,773.5C 634.804,772.196 635.971,771.529 637.5,771.5C 641.928,771.195 646.428,771.195 651,771.5C 651.667,770.167 652.667,769.167 654,768.5C 656.432,769.293 658.766,769.626 661,769.5C 663.246,768.501 665.746,767.167 668.5,765.5C 669.192,766.025 669.692,766.692 670,767.5C 672.756,765.658 675.59,764.991 678.5,765.5C 690.34,762.607 701.507,758.941 712,754.5C 716.303,758.796 719.803,763.629 722.5,769C 722.167,769.333 721.833,769.667 721.5,770C 724.933,773.023 725.6,776.356 723.5,780C 719.35,781.829 715.184,783.663 711,785.5C 708.724,785.684 706.39,785.684 704,785.5C 702.739,785.759 701.739,786.426 701,787.5C 687.834,788.644 674.834,791.311 662,795.5C 650.33,795.703 638.497,797.536 626.5,801C 625.093,802.452 623.593,802.285 622,800.5C 620.921,802.394 619.587,802.727 618,801.5C 611.187,803.462 604.52,803.462 598,801.5C 591.667,802.833 585.333,802.833 579,801.5C 572.48,803.462 565.813,803.462 559,801.5C 558.586,801.957 558.086,802.291 557.5,802.5C 555.758,800.027 553.925,800.027 552,802.5C 549.089,800.84 545.922,799.674 542.5,799C 535.87,797.507 529.203,796.34 522.5,795.5C 521.914,795.709 521.414,796.043 521,796.5C 507.33,792.476 493.164,789.476 478.5,787.5C 480.294,781.45 482.294,775.45 484.5,769.5C 484,769.167 483.5,768.833 483,768.5C 481.233,769.34 479.899,770.673 479,772.5C 476.888,776.29 475.222,780.29 474,784.5C 473,785.167 472,785.833 471,786.5C 466.553,784.928 462.053,783.428 457.5,782C 456.619,781.292 455.953,780.458 455.5,779.5 Z"/></g>
<g><path style="opacity:0.133" fill="#290c10" d="M 881.5,748.5 C 882.124,748.917 882.457,749.584 882.5,750.5C 881.892,753.145 881.392,755.812 881,758.5C 880.341,755.112 880.508,751.779 881.5,748.5 Z"/></g>
<g><path style="opacity:0.016" fill="#3f403f" d="M 296.5,762.5 C 297.833,763.167 297.833,763.167 296.5,762.5 Z"/></g>
<g><path style="opacity:0.016" fill="#40bf3f" d="M 879.5,762.5 C 880.833,763.167 880.833,763.167 879.5,762.5 Z"/></g>
<g><path style="opacity:0.585" fill="#361519" d="M 376.5,766.5 C 377.077,765.227 377.743,765.227 378.5,766.5C 379.645,767.891 379.645,769.224 378.5,770.5C 377.828,769.051 377.161,767.718 376.5,766.5 Z"/></g>
<g><path style="opacity:0.576" fill="#361519" d="M 798.5,765.5 C 799.239,765.369 799.906,765.536 800.5,766C 798.316,771.891 797.65,771.724 798.5,765.5 Z"/></g>
<g><path style="opacity:0.981" fill="#431d1b" d="M 308.5,858.5 C 306.493,857.321 306.16,857.821 307.5,860C 306.032,862.14 303.865,864.306 301,866.5C 300.667,868.167 300.333,869.833 300,871.5C 299.336,867.907 298.169,867.907 296.5,871.5C 294.533,873.304 292.699,875.304 291,877.5C 290.667,877.167 290.333,876.833 290,876.5C 288.445,878.146 286.779,878.479 285,877.5C 283.806,878.43 282.473,879.097 281,879.5C 278.945,878.308 276.945,878.308 275,879.5C 266.568,874.724 260.568,867.724 257,858.5C 253.709,853.873 250.042,849.54 246,845.5C 239.383,833.943 241.383,823.943 252,815.5C 260.558,798.272 272.725,784.106 288.5,773C 289.88,771.075 291.38,769.241 293,767.5C 293.971,768.198 295.137,768.198 296.5,767.5C 299.464,768.982 302.464,770.482 305.5,772C 313.646,779.805 320.646,788.472 326.5,798C 327.415,803.246 329.915,808.079 334,812.5C 336.147,815.731 337.314,819.064 337.5,822.5C 335.806,824.554 334.639,826.888 334,829.5C 332.757,828.664 331.59,828.997 330.5,830.5C 327.474,836.571 323.974,842.237 320,847.5C 318.334,846.66 318.167,847.16 319.5,849C 317.667,849.5 316.5,850.667 316,852.5C 315.667,852.167 315.333,851.833 315,851.5C 313.27,854.391 311.104,856.724 308.5,858.5 Z"/></g>
<g><path style="opacity:0.983" fill="#431d1b" d="M 880.5,871.5 C 878.831,867.907 877.664,867.907 877,871.5C 876.667,869.833 876.333,868.167 876,866.5C 874.075,865.12 872.241,863.62 870.5,862C 870.5,861 870.5,860 870.5,859C 869.906,858.536 869.239,858.369 868.5,858.5C 865.896,856.724 863.73,854.391 862,851.5C 861.667,851.833 861.333,852.167 861,852.5C 860.5,850.667 859.333,849.5 857.5,849C 858.833,847.16 858.666,846.66 857,847.5C 853.026,842.237 849.526,836.571 846.5,830.5C 845.41,828.997 844.243,828.664 843,829.5C 842.487,826.973 841.32,824.807 839.5,823C 840.615,821.765 840.615,820.598 839.5,819.5C 843.643,812.709 847.643,805.876 851.5,799C 851.167,798.667 850.833,798.333 850.5,798C 856.354,788.472 863.354,779.805 871.5,772C 874.536,770.482 877.536,768.982 880.5,767.5C 881.863,768.198 883.029,768.198 884,767.5C 885.62,769.241 887.12,771.075 888.5,773C 904.275,784.106 916.442,798.272 925,815.5C 935.617,823.943 937.617,833.943 931,845.5C 924.428,852.313 919.094,859.98 915,868.5C 912.147,871.052 909.647,873.885 907.5,877C 905.481,877.45 903.648,878.283 902,879.5C 900.055,878.308 898.055,878.308 896,879.5C 894.527,879.097 893.194,878.43 892,877.5C 890.221,878.479 888.555,878.146 887,876.5C 886.667,876.833 886.333,877.167 886,877.5C 884.301,875.304 882.467,873.304 880.5,871.5 Z"/></g>
<g><path style="opacity:0.027" fill="#230000" d="M 376.5,771.5 C 377.833,772.167 377.833,772.167 376.5,771.5 Z"/></g>
<g><path style="opacity:0.027" fill="#230000" d="M 799.5,771.5 C 800.833,772.167 800.833,772.167 799.5,771.5 Z"/></g>
<g><path style="opacity:1" fill="#391717" d="M 690.5,766.5 C 696.061,769.564 700.061,774.064 702.5,780C 701.833,781.333 701.167,782.667 700.5,784C 699.365,784.749 698.365,784.583 697.5,783.5C 695.925,780.943 694.258,778.443 692.5,776C 692.833,775.667 693.167,775.333 693.5,775C 691.833,772.833 690.167,770.667 688.5,768.5C 689.243,767.818 689.909,767.151 690.5,766.5 Z"/></g>
<g><path style="opacity:1" fill="#678056" d="M 315.5,828.5 C 310.286,815.426 303.119,803.426 294,792.5C 291.721,789.619 288.888,787.619 285.5,786.5C 288.225,783.07 291.391,780.07 295,777.5C 296.789,779.865 298.956,781.532 301.5,782.5C 301.351,783.552 301.517,784.552 302,785.5C 309.267,793.948 314.267,803.615 317,814.5C 318.257,816.679 319.757,818.679 321.5,820.5C 319.004,822.839 317.004,825.505 315.5,828.5 Z"/></g>
<g><path style="opacity:1" fill="#3b1c1c" d="M 498.5,772.5 C 501.548,774.23 501.881,776.73 499.5,780C 499.833,780.333 500.167,780.667 500.5,781C 500.529,785.109 498.529,786.943 494.5,786.5C 494.092,781.321 495.425,776.655 498.5,772.5 Z"/></g>
<g><path style="opacity:1" fill="#678056" d="M 891.5,786.5 C 888.112,787.619 885.279,789.619 883,792.5C 873.881,803.426 866.714,815.426 861.5,828.5C 859.996,825.505 857.996,822.839 855.5,820.5C 859.759,815.247 862.593,809.247 864,802.5C 867.047,796.43 870.713,790.763 875,785.5C 875.483,784.552 875.649,783.552 875.5,782.5C 878.044,781.532 880.211,779.865 882,777.5C 885.609,780.07 888.775,783.07 891.5,786.5 Z"/></g>
<g><path style="opacity:1" fill="#3a1a1b" d="M 658.5,776.5 C 663.096,776.428 665.429,778.762 665.5,783.5C 665.444,784.737 664.944,785.737 664,786.5C 662.989,785.663 661.822,785.33 660.5,785.5C 659.539,782.574 658.873,779.574 658.5,776.5 Z"/></g>
<g><path style="opacity:1" fill="#83a996" d="M 589.5,929.5 C 589.5,928.833 589.167,928.5 588.5,928.5C 588.217,927.711 587.717,927.044 587,926.5C 586.727,928.101 586.227,929.601 585.5,931C 585.833,931.333 586.167,931.667 586.5,932C 584.972,945.958 583.972,959.958 583.5,974C 584.512,981.706 584.179,989.873 582.5,998.5C 582.523,1003.7 582.523,1008.86 582.5,1014C 581.645,1019.69 580.645,1025.36 579.5,1031C 579.833,1031.33 580.167,1031.67 580.5,1032C 579.147,1035.84 578.147,1039.5 577.5,1043C 577.175,1046.65 577.175,1049.98 577.5,1053C 576.128,1055.53 575.128,1058.2 574.5,1061C 574.434,1063.47 574.434,1065.97 574.5,1068.5C 573.137,1070.67 572.803,1072.84 573.5,1075C 572.267,1082.94 570.601,1090.94 568.5,1099C 567.235,1120.45 564.569,1141.79 560.5,1163C 560.205,1167.69 560.539,1172.85 561.5,1178.5C 560.833,1182.17 560.167,1185.83 559.5,1189.5C 560.651,1192.8 560.317,1196.3 558.5,1200C 558.833,1202.33 559.167,1204.67 559.5,1207C 558.294,1217.76 557.294,1228.76 556.5,1240C 557.397,1242.88 557.397,1245.88 556.5,1249C 557.167,1250.67 557.833,1252.33 558.5,1254C 557.707,1256.43 557.374,1258.77 557.5,1261C 558.167,1263.67 558.833,1266.33 559.5,1269C 559.167,1270 558.833,1271 558.5,1272C 559.167,1275 559.833,1278 560.5,1281C 559.516,1283.57 559.183,1286.4 559.5,1289.5C 560.167,1291.83 560.833,1294.17 561.5,1296.5C 560.803,1300.04 560.469,1303.54 560.5,1307C 561.108,1311.38 561.775,1315.71 562.5,1320C 562.152,1341.16 562.152,1362.83 562.5,1385C 563.293,1386.09 563.96,1387.25 564.5,1388.5C 564.365,1392.09 564.365,1395.59 564.5,1399C 566.106,1408.65 567.772,1417.98 569.5,1427C 569.043,1427.41 568.709,1427.91 568.5,1428.5C 569.977,1430.84 570.31,1433.17 569.5,1435.5C 571.039,1444.31 572.705,1453.15 574.5,1462C 573.941,1462.72 573.608,1463.56 573.5,1464.5C 575.061,1473.53 576.728,1482.53 578.5,1491.5C 578.291,1492.09 577.957,1492.59 577.5,1493C 580.687,1508.61 584.187,1524.45 588,1540.5C 588.885,1547.04 589.719,1553.54 590.5,1560C 590.255,1562.09 590.255,1564.09 590.5,1566C 589.833,1566.67 589.167,1567.33 588.5,1568C 589.124,1572.49 589.458,1576.99 589.5,1581.5C 589.381,1588.08 588.048,1594.58 585.5,1601C 585.833,1601.33 586.167,1601.67 586.5,1602C 584.632,1605.91 583.466,1609.74 583,1613.5C 580.441,1615.17 578.775,1617.5 578,1620.5C 576,1621.17 574.667,1622.5 574,1624.5C 570.906,1619.01 566.74,1613.84 561.5,1609C 562.167,1608 562.833,1607 563.5,1606C 561.246,1605.38 559.579,1604.04 558.5,1602C 555.298,1601.8 552.298,1600.97 549.5,1599.5C 540.913,1588.08 529.746,1580.41 516,1576.5C 506.526,1576.33 497.026,1576.33 487.5,1576.5C 483.888,1577.61 480.388,1578.94 477,1580.5C 468.113,1582.39 460.613,1587.05 454.5,1594.5C 453.091,1598.32 451.424,1601.98 449.5,1605.5C 445.192,1606.29 441.026,1606.29 437,1605.5C 431.421,1608.7 425.587,1611.54 419.5,1614C 412.711,1621.06 407.544,1629.23 404,1638.5C 398.677,1643.89 392.177,1646.89 384.5,1647.5C 376.186,1647.26 367.353,1647.26 358,1647.5C 356.978,1646.65 356.145,1645.65 355.5,1644.5C 356.106,1642.29 356.773,1640.12 357.5,1638C 356.447,1632.62 356.447,1626.95 357.5,1621C 356.5,1617.33 355.5,1613.67 354.5,1610C 355.728,1609.22 356.728,1608.22 357.5,1607C 356.966,1602.73 356.966,1598.73 357.5,1595C 356.833,1592.67 356.167,1590.33 355.5,1588C 356.167,1587.33 356.833,1586.67 357.5,1586C 355.299,1580.89 355.299,1575.89 357.5,1571C 357.167,1570.67 356.833,1570.33 356.5,1570C 357.418,1561.92 359.252,1553.75 362,1545.5C 362.833,1544.67 363.667,1543.83 364.5,1543C 364.069,1538.86 365.069,1534.86 367.5,1531C 366.732,1527.6 367.732,1524.6 370.5,1522C 370.271,1518.57 370.271,1515.24 370.5,1512C 372.375,1509.8 372.375,1507.97 370.5,1506.5C 372.159,1500.07 373.493,1493.57 374.5,1487C 374.066,1484.7 373.732,1482.04 373.5,1479C 374.167,1477 374.833,1475 375.5,1473C 375.578,1470.05 375.245,1467.05 374.5,1464C 375,1463.5 375.5,1463 376,1462.5C 376.354,1458.65 376.854,1454.81 377.5,1451C 378.073,1446.81 378.073,1442.47 377.5,1438C 377.903,1436.53 378.57,1435.19 379.5,1434C 378.283,1431.99 378.616,1429.99 380.5,1428C 379.627,1423.94 379.96,1419.6 381.5,1415C 381.043,1414.59 380.709,1414.09 380.5,1413.5C 382.341,1411.02 382.674,1408.52 381.5,1406C 382.167,1403 382.833,1400 383.5,1397C 382.273,1395.41 382.606,1394.08 384.5,1393C 383.919,1392.11 383.585,1391.11 383.5,1390C 384.758,1382.2 386.091,1374.37 387.5,1366.5C 387.484,1362.87 387.484,1359.21 387.5,1355.5C 388.767,1352.05 389.767,1348.55 390.5,1345C 390.729,1341.76 390.729,1338.43 390.5,1335C 391.167,1333 391.833,1331 392.5,1329C 391.786,1327.66 392.12,1326.32 393.5,1325C 393.5,1321.33 393.5,1317.67 393.5,1314C 395.014,1312.56 395.347,1311.06 394.5,1309.5C 396.408,1306.09 396.742,1302.92 395.5,1300C 396.468,1295.85 397.802,1291.52 399.5,1287C 399.507,1285.42 399.174,1283.75 398.5,1282C 400.57,1276.46 402.237,1270.79 403.5,1265C 403.279,1263.2 402.946,1261.37 402.5,1259.5C 404.077,1257.44 405.077,1255.11 405.5,1252.5C 404.263,1250.5 404.597,1248.67 406.5,1247C 405.981,1244.97 405.647,1242.97 405.5,1241C 406,1240.5 406.5,1240 407,1239.5C 407.154,1233.41 408.32,1227.57 410.5,1222C 410.167,1221.67 409.833,1221.33 409.5,1221C 410.5,1215.33 411.5,1209.67 412.5,1204C 411.872,1201.63 411.539,1199.3 411.5,1197C 413.483,1193.79 413.816,1190.45 412.5,1187C 413.921,1184.14 414.921,1181.14 415.5,1178C 415.167,1177.67 414.833,1177.33 414.5,1177C 415.921,1167.39 416.921,1157.89 417.5,1148.5C 419.722,1148.82 421.556,1148.16 423,1146.5C 423.27,1143.78 423.77,1141.11 424.5,1138.5C 424.199,1129.16 424.199,1119.66 424.5,1110C 425.167,1108.67 425.833,1107.33 426.5,1106C 426.066,1103.7 425.732,1101.04 425.5,1098C 426.167,1096.67 426.833,1095.33 427.5,1094C 425.109,1092.69 425.109,1091.69 427.5,1091C 427.591,1086.44 427.257,1082.11 426.5,1078C 427.308,1077.69 427.975,1077.19 428.5,1076.5C 427.953,1073.62 427.62,1070.79 427.5,1068C 428.167,1066.67 428.833,1065.33 429.5,1064C 428.991,1051.75 428.991,1039.41 429.5,1027C 428.833,1025.67 428.167,1024.33 427.5,1023C 428.04,1011.13 428.374,999.133 428.5,987C 427.833,986 427.167,985 426.5,984C 427.316,982.077 427.983,980.077 428.5,978C 428.095,977.055 427.428,976.388 426.5,976C 427.833,975 427.833,974 426.5,973C 427.167,971.667 427.833,970.333 428.5,969C 427.167,966 427.167,963 428.5,960C 427.833,958.667 427.167,957.333 426.5,956C 427.335,945.182 427.335,934.682 426.5,924.5C 428.522,922.119 428.855,919.453 427.5,916.5C 428.015,910.46 428.682,904.46 429.5,898.5C 428.215,889.118 428.215,879.785 429.5,870.5C 430.237,868.695 431.237,867.029 432.5,865.5C 432.167,864.167 431.833,862.833 431.5,861.5C 432.5,857.5 433.5,853.5 434.5,849.5C 434.291,848.914 433.957,848.414 433.5,848C 435.455,845.832 436.121,843.498 435.5,841C 440.364,823.968 445.697,806.468 451.5,788.5C 456.756,791.578 462.423,793.912 468.5,795.5C 469.086,795.291 469.586,794.957 470,794.5C 476.152,796.526 481.819,798.86 487,801.5C 487.333,800.833 487.667,800.167 488,799.5C 495.866,801.513 504.032,803.68 512.5,806C 514.329,806.273 515.829,807.107 517,808.5C 519.562,807.913 522.228,807.579 525,807.5C 526.439,809.014 527.939,809.347 529.5,808.5C 535.72,810.363 541.72,811.863 547.5,813C 545.818,815.69 544.318,818.523 543,821.5C 542.144,829.232 542.477,836.898 544,844.5C 549.629,854.845 556.963,856.845 566,850.5C 566.167,850.833 566.333,851.167 566.5,851.5C 562.319,862.747 559.985,874.08 559.5,885.5C 559.461,886.583 559.127,887.583 558.5,888.5C 562.793,896.904 569.293,899.904 578,897.5C 578.816,888.921 578.649,880.421 577.5,872C 578.167,869.667 578.833,867.333 579.5,865C 579.5,859.667 579.5,854.333 579.5,849C 580.167,845 580.833,841 581.5,837C 581.167,836 580.833,835 580.5,834C 581.47,831.544 582.137,829.377 582.5,827.5C 584.674,829.781 586.674,829.781 588.5,827.5C 589.478,827.977 590.311,828.643 591,829.5C 592.337,828.235 593.837,827.735 595.5,828C 595.167,828.333 594.833,828.667 594.5,829C 596.179,831.972 596.512,834.639 595.5,837C 596.15,845.72 597.15,854.553 598.5,863.5C 598.291,864.086 597.957,864.586 597.5,865C 598.167,867.333 598.833,869.667 599.5,872C 598.351,880.421 598.184,888.921 599,897.5C 607.707,899.904 614.207,896.904 618.5,888.5C 617.691,886.929 617.357,885.262 617.5,883.5C 616.751,872.782 614.418,862.115 610.5,851.5C 610.624,850.893 610.957,850.56 611.5,850.5C 612.058,851.79 613.058,852.623 614.5,853C 622.772,855.875 628.938,853.042 633,844.5C 634.523,836.898 634.856,829.232 634,821.5C 632.584,818.391 631.084,815.391 629.5,812.5C 630.496,812.414 631.329,812.748 632,813.5C 636.935,811.356 642.102,809.689 647.5,808.5C 649.061,809.347 650.561,809.014 652,807.5C 654.772,807.579 657.438,807.913 660,808.5C 666.572,806.489 673.239,804.156 680,801.5C 683.238,801.271 686.571,801.271 690,801.5C 695.181,798.86 700.848,796.526 707,794.5C 716.689,794.204 724.689,790.204 731,782.5C 737.35,796.111 741.183,809.944 742.5,824C 741.498,825.766 741.832,827.433 743.5,829C 743.367,831.734 743.367,834.401 743.5,837C 744.167,838.667 744.833,840.333 745.5,842C 745.634,843.545 745.3,845.212 744.5,847C 744.903,848.473 745.57,849.806 746.5,851C 746.924,855.393 746.924,859.893 746.5,864.5C 746.981,867.083 747.648,869.583 748.5,872C 747.361,885.995 747.694,900.829 749.5,916.5C 748.145,919.453 748.478,922.119 750.5,924.5C 749.665,934.682 749.665,945.182 750.5,956C 749.833,960.333 749.167,964.667 748.5,969C 750.003,971.344 750.669,973.677 750.5,976C 749.572,976.388 748.905,977.055 748.5,978C 749.017,980.077 749.684,982.077 750.5,984C 749.833,985 749.167,986 748.5,987C 748.626,999.133 748.96,1011.13 749.5,1023C 748.833,1024.33 748.167,1025.67 747.5,1027C 748.43,1039.2 748.43,1051.54 747.5,1064C 748.167,1065.33 748.833,1066.67 749.5,1068C 749.38,1070.79 749.047,1073.62 748.5,1076.5C 749.025,1077.19 749.692,1077.69 750.5,1078C 749.622,1082.18 749.289,1086.51 749.5,1091C 750.167,1091.33 750.833,1091.67 751.5,1092C 749.566,1093.73 749.566,1095.73 751.5,1098C 751.268,1101.04 750.934,1103.7 750.5,1106C 751.167,1107.33 751.833,1108.67 752.5,1110C 752.801,1119.66 752.801,1129.16 752.5,1138.5C 753.23,1141.11 753.73,1143.78 754,1146.5C 755.242,1147.87 756.742,1148.87 758.5,1149.5C 760.256,1151.55 760.59,1153.72 759.5,1156C 760.62,1162.99 761.62,1169.99 762.5,1177C 762.167,1177.33 761.833,1177.67 761.5,1178C 762.079,1181.14 763.079,1184.14 764.5,1187C 763.184,1190.45 763.517,1193.79 765.5,1197C 765.461,1199.3 765.128,1201.63 764.5,1204C 765.5,1209.67 766.5,1215.33 767.5,1221C 767.167,1221.33 766.833,1221.67 766.5,1222C 768.68,1227.57 769.846,1233.41 770,1239.5C 770.5,1240 771,1240.5 771.5,1241C 771.353,1242.97 771.019,1244.97 770.5,1247C 771.167,1248 771.833,1249 772.5,1250C 771.364,1253.46 772.031,1256.62 774.5,1259.5C 774.054,1261.37 773.721,1263.2 773.5,1265C 774.763,1270.79 776.43,1276.46 778.5,1282C 778.167,1283.67 777.833,1285.33 777.5,1287C 779.198,1291.52 780.532,1295.85 781.5,1300C 780.795,1301.42 780.461,1302.76 780.5,1304C 781.167,1304.67 781.833,1305.33 782.5,1306C 782.167,1307.67 781.833,1309.33 781.5,1311C 782.167,1312 782.833,1313 783.5,1314C 783.5,1317.67 783.5,1321.33 783.5,1325C 784.167,1326 784.833,1327 785.5,1328C 785.614,1330.95 785.614,1333.95 785.5,1337C 786.044,1339.4 786.711,1341.73 787.5,1344C 787.105,1347.8 787.772,1351.63 789.5,1355.5C 789.516,1359.21 789.516,1362.87 789.5,1366.5C 790.909,1374.37 792.242,1382.2 793.5,1390C 793.415,1391.11 793.081,1392.11 792.5,1393C 793.357,1393.69 794.023,1394.52 794.5,1395.5C 794.527,1400.3 794.527,1405.14 794.5,1410C 796.146,1411.55 796.479,1413.22 795.5,1415C 797.04,1419.6 797.373,1423.94 796.5,1428C 798.384,1429.99 798.717,1431.99 797.5,1434C 798.43,1435.19 799.097,1436.53 799.5,1438C 798.927,1442.47 798.927,1446.81 799.5,1451C 800.146,1454.81 800.646,1458.65 801,1462.5C 801.5,1463 802,1463.5 802.5,1464C 801.755,1467.05 801.422,1470.05 801.5,1473C 802.167,1475 802.833,1477 803.5,1479C 803.268,1482.04 802.934,1484.7 802.5,1487C 803.507,1493.57 804.841,1500.07 806.5,1506.5C 804.625,1507.97 804.625,1509.8 806.5,1512C 806.729,1515.24 806.729,1518.57 806.5,1522C 809.268,1524.6 810.268,1527.6 809.5,1531C 815.302,1544.2 818.635,1557.54 819.5,1571C 821.701,1575.89 821.701,1580.89 819.5,1586C 821.434,1587.73 821.434,1589.73 819.5,1592C 820.62,1597.22 820.62,1602.72 819.5,1608.5C 820.675,1608.28 821.675,1608.61 822.5,1609.5C 821.56,1613.37 820.56,1617.21 819.5,1621C 820.553,1626.95 820.553,1632.62 819.5,1638C 820.523,1640.45 821.023,1642.95 821,1645.5C 820.333,1646.17 819.667,1646.83 819,1647.5C 809.707,1647.25 800.874,1647.25 792.5,1647.5C 784.823,1646.89 778.323,1643.89 773,1638.5C 769.456,1629.23 764.289,1621.06 757.5,1614C 751.461,1611.55 745.628,1608.71 740,1605.5C 735.974,1606.29 731.808,1606.29 727.5,1605.5C 725.576,1601.98 723.909,1598.32 722.5,1594.5C 716.481,1587.19 709.147,1582.52 700.5,1580.5C 694.747,1577.37 688.913,1576.37 683,1577.5C 660.66,1573.54 642.16,1580.87 627.5,1599.5C 624.702,1600.97 621.702,1601.8 618.5,1602C 617.421,1604.04 615.754,1605.38 613.5,1606C 614.167,1607 614.833,1608 615.5,1609C 610.26,1613.84 606.094,1619.01 603,1624.5C 601.333,1622.5 599.667,1620.5 598,1618.5C 597.654,1616.78 597.154,1615.12 596.5,1613.5C 597.025,1612.81 597.692,1612.31 598.5,1612C 597.107,1607.68 597.773,1603.35 600.5,1599C 600.728,1596.11 600.394,1593.44 599.5,1591C 600.167,1589.67 601.167,1588.67 602.5,1588C 601.643,1587.31 600.977,1586.48 600.5,1585.5C 602.138,1584.3 602.471,1582.96 601.5,1581.5C 602.122,1578.63 602.789,1575.8 603.5,1573C 602.577,1567.96 601.91,1562.79 601.5,1557.5C 603.973,1555.9 603.973,1554.4 601.5,1553C 602.557,1548.39 602.557,1543.72 601.5,1539C 599.977,1536.57 598.977,1533.9 598.5,1531C 599.246,1528.91 599.579,1526.91 599.5,1525C 598.743,1523.49 597.743,1522.15 596.5,1521C 598.359,1518.4 598.359,1515.57 596.5,1512.5C 596.675,1509.06 596.675,1505.56 596.5,1502C 597.42,1499.17 598.42,1496.33 599.5,1493.5C 599.167,1492.83 598.833,1492.17 598.5,1491.5C 601.3,1477.37 603.633,1463.37 605.5,1449.5C 605.291,1448.91 604.957,1448.41 604.5,1448C 606.489,1443.09 607.155,1438.09 606.5,1433C 607.952,1431.04 608.285,1429.04 607.5,1427C 609.228,1417.98 610.894,1408.65 612.5,1399C 612.635,1395.59 612.635,1392.09 612.5,1388.5C 613.04,1387.25 613.707,1386.09 614.5,1385C 614.848,1362.83 614.848,1341.16 614.5,1320C 615.225,1315.71 615.892,1311.38 616.5,1307C 616.531,1303.54 616.197,1300.04 615.5,1296.5C 616.167,1294.17 616.833,1291.83 617.5,1289.5C 617.817,1286.4 617.484,1283.57 616.5,1281C 617.167,1278 617.833,1275 618.5,1272C 618.167,1271 617.833,1270 617.5,1269C 618.167,1266.33 618.833,1263.67 619.5,1261C 619.626,1258.77 619.293,1256.43 618.5,1254C 619.167,1252.33 619.833,1250.67 620.5,1249C 619.603,1245.88 619.603,1242.88 620.5,1240C 619.706,1228.76 618.706,1217.76 617.5,1207C 617.833,1204.67 618.167,1202.33 618.5,1200C 616.683,1196.3 616.349,1192.8 617.5,1189.5C 616.833,1185.83 616.167,1182.17 615.5,1178.5C 616.461,1172.85 616.795,1167.69 616.5,1163C 612.431,1141.79 609.765,1120.45 608.5,1099C 604.706,1076.26 600.706,1053.93 596.5,1032C 596.833,1031.67 597.167,1031.33 597.5,1031C 596.355,1025.36 595.355,1019.69 594.5,1014C 594.477,1008.86 594.477,1003.7 594.5,998.5C 592.821,989.873 592.488,981.706 593.5,974C 593.005,958.908 591.672,944.075 589.5,929.5 Z M 587.5,1016.5 C 587.281,1017.68 587.614,1018.68 588.5,1019.5C 589.798,1017.95 589.465,1016.95 587.5,1016.5 Z M 608.5,1240.5 C 607.308,1241.57 607.641,1242.4 609.5,1243C 608.833,1243.67 608.167,1244.33 607.5,1245C 607.647,1246.97 607.981,1248.97 608.5,1251C 607.833,1252 607.167,1253 606.5,1254C 606.893,1258.63 606.893,1263.46 606.5,1268.5C 605.907,1270.38 605.24,1272.22 604.5,1274C 604.518,1280.62 604.518,1287.29 604.5,1294C 603.76,1295.78 603.093,1297.62 602.5,1299.5C 603.239,1302.42 603.572,1305.26 603.5,1308C 602.937,1310.73 602.27,1313.39 601.5,1316C 602.14,1337.01 602.14,1358.01 601.5,1379C 600.196,1379.8 599.529,1380.97 599.5,1382.5C 598.424,1386.97 598.424,1391.13 599.5,1395C 598.833,1395.67 598.167,1396.33 597.5,1397C 597.13,1400.59 597.13,1403.93 597.5,1407C 596.833,1407.67 596.167,1408.33 595.5,1409C 595.566,1411.87 595.566,1414.7 595.5,1417.5C 594.926,1419.06 594.26,1420.56 593.5,1422C 593.461,1423.24 593.795,1424.58 594.5,1426C 594.095,1426.95 593.428,1427.61 592.5,1428C 592.603,1432.69 592.603,1437.69 592.5,1443C 590.168,1448.45 588.835,1453.95 588.5,1459.5C 588.165,1453.95 586.832,1448.45 584.5,1443C 584.397,1437.69 584.397,1432.69 584.5,1428C 583.572,1427.61 582.905,1426.95 582.5,1426C 583.205,1424.58 583.539,1423.24 583.5,1422C 582.74,1420.56 582.074,1419.06 581.5,1417.5C 581.434,1414.7 581.434,1411.87 581.5,1409C 580.833,1408.33 580.167,1407.67 579.5,1407C 579.87,1403.93 579.87,1400.59 579.5,1397C 578.833,1396.33 578.167,1395.67 577.5,1395C 578.576,1391.13 578.576,1386.97 577.5,1382.5C 577.471,1380.97 576.804,1379.8 575.5,1379C 575.804,1358.49 575.804,1337.49 575.5,1316C 574.73,1313.39 574.063,1310.73 573.5,1308C 573.428,1305.26 573.761,1302.42 574.5,1299.5C 573.907,1297.62 573.24,1295.78 572.5,1294C 572.482,1287.29 572.482,1280.62 572.5,1274C 571.76,1272.22 571.093,1270.38 570.5,1268.5C 570.107,1263.46 570.107,1258.63 570.5,1254C 569.833,1253 569.167,1252 568.5,1251C 569.019,1248.97 569.353,1246.97 569.5,1245C 566.972,1243.68 566.972,1242.52 569.5,1241.5C 569.376,1240.89 569.043,1240.56 568.5,1240.5C 568.467,1237.71 568.133,1234.88 567.5,1232C 568.167,1231 568.833,1230 569.5,1229C 569.145,1222.67 568.812,1216.01 568.5,1209C 569.167,1205 569.833,1201 570.5,1197C 570.496,1182.31 570.496,1167.64 570.5,1153C 570.856,1145.39 572.189,1138.06 574.5,1131C 573.593,1128.52 573.926,1125.69 575.5,1122.5C 574.98,1116.13 574.98,1109.3 575.5,1102C 580.061,1074.61 584.394,1047.45 588.5,1020.5C 593.584,1051.68 598.251,1083.02 602.5,1114.5C 601.787,1117.03 601.454,1119.69 601.5,1122.5C 602.093,1124.38 602.76,1126.22 603.5,1128C 603.13,1131.07 603.13,1134.41 603.5,1138C 604.858,1139.83 605.192,1141.66 604.5,1143.5C 605.499,1151.47 606.499,1159.64 607.5,1168C 607.28,1177.61 606.947,1187.28 606.5,1197C 607.167,1201 607.833,1205 608.5,1209C 608.188,1216.01 607.855,1222.67 607.5,1229C 608.167,1230 608.833,1231 609.5,1232C 608.867,1234.88 608.533,1237.71 608.5,1240.5 Z"/></g>
<g><path style="opacity:1" fill="#91b17f" d="M 285.5,786.5 C 288.888,787.619 291.721,789.619 294,792.5C 303.119,803.426 310.286,815.426 315.5,828.5C 315.716,833.089 313.716,836.089 309.5,837.5C 307.5,837.5 305.5,837.5 303.5,837.5C 303.943,833.471 302.109,831.471 298,831.5C 294.433,818.201 288.6,806.034 280.5,795C 282.488,792.888 283.821,790.388 284.5,787.5C 284.5,786.833 284.833,786.5 285.5,786.5 Z"/></g>
<g><path style="opacity:1" fill="#3a191a" d="M 544.5,777.5 C 545.87,777.856 546.87,778.69 547.5,780C 547.026,784.267 546.526,788.767 546,793.5C 545.333,794.167 544.667,794.833 544,795.5C 542.209,794.088 541.042,792.255 540.5,790C 541.897,785.846 543.23,781.68 544.5,777.5 Z"/></g>
<g><path style="opacity:1" fill="#91b07f" d="M 891.5,786.5 C 892.167,786.5 892.5,786.833 892.5,787.5C 893.179,790.388 894.512,792.888 896.5,795C 888.4,806.034 882.567,818.201 879,831.5C 874.891,831.471 873.057,833.471 873.5,837.5C 871.5,837.5 869.5,837.5 867.5,837.5C 863.284,836.089 861.284,833.089 861.5,828.5C 866.714,815.426 873.881,803.426 883,792.5C 885.279,789.619 888.112,787.619 891.5,786.5 Z"/></g>
<g><path style="opacity:1" fill="#678156" d="M 284.5,787.5 C 283.821,790.388 282.488,792.888 280.5,795C 288.6,806.034 294.433,818.201 298,831.5C 302.109,831.471 303.943,833.471 303.5,837.5C 305.5,837.5 307.5,837.5 309.5,837.5C 306.536,842.131 302.869,846.131 298.5,849.5C 291.2,836.918 283.367,824.584 275,812.5C 272.806,810.822 270.306,809.822 267.5,809.5C 271.754,800.951 277.42,793.618 284.5,787.5 Z"/></g>
<g><path style="opacity:1" fill="#678156" d="M 892.5,787.5 C 899.58,793.618 905.246,800.951 909.5,809.5C 906.694,809.822 904.194,810.822 902,812.5C 893.633,824.584 885.8,836.918 878.5,849.5C 874.131,846.131 870.464,842.131 867.5,837.5C 869.5,837.5 871.5,837.5 873.5,837.5C 873.057,833.471 874.891,831.471 879,831.5C 882.567,818.201 888.4,806.034 896.5,795C 894.512,792.888 893.179,790.388 892.5,787.5 Z"/></g>
<g><path style="opacity:1" fill="#3c1f1f" d="M 640.5,776.5 C 644.349,776.502 647.015,778.335 648.5,782C 648.167,782.333 647.833,782.667 647.5,783C 649.793,786.294 650.46,789.794 649.5,793.5C 647.833,793.5 646.167,793.5 644.5,793.5C 643.167,787.833 641.833,782.167 640.5,776.5 Z"/></g>
<g><path style="opacity:1" fill="#391517" d="M 629.5,812.5 C 631.084,815.391 632.584,818.391 634,821.5C 634.856,829.232 634.523,836.898 633,844.5C 628.938,853.042 622.772,855.875 614.5,853C 613.058,852.623 612.058,851.79 611.5,850.5C 613.59,850.55 614.923,849.55 615.5,847.5C 614.975,846.808 614.308,846.308 613.5,846C 613.884,845.049 614.217,844.216 614.5,843.5C 617.31,847.744 620.81,848.411 625,845.5C 628.624,838.872 630.457,832.039 630.5,825C 629.874,824.25 629.374,823.416 629,822.5C 624.271,825.352 619.438,827.019 614.5,827.5C 610.448,825.803 606.448,824.136 602.5,822.5C 601.733,823.172 601.066,824.005 600.5,825C 601.523,828.212 603.19,831.046 605.5,833.5C 605.291,834.086 604.957,834.586 604.5,835C 606.31,837.644 608.31,840.144 610.5,842.5C 609.137,843.893 608.304,845.559 608,847.5C 607.086,846.346 606.253,846.513 605.5,848C 606.712,849.107 606.379,849.607 604.5,849.5C 603.337,845.518 602.171,841.518 601,837.5C 601.421,845.203 602.421,852.869 604,860.5C 605.295,871.175 605.962,881.508 606,891.5C 608.692,890.248 610.525,888.248 611.5,885.5C 613.421,884.637 615.421,883.971 617.5,883.5C 617.357,885.262 617.691,886.929 618.5,888.5C 614.207,896.904 607.707,899.904 599,897.5C 598.184,888.921 598.351,880.421 599.5,872C 598.833,869.667 598.167,867.333 597.5,865C 597.957,864.586 598.291,864.086 598.5,863.5C 597.15,854.553 596.15,845.72 595.5,837C 596.512,834.639 596.179,831.972 594.5,829C 594.833,828.667 595.167,828.333 595.5,828C 593.837,827.735 592.337,828.235 591,829.5C 590.311,828.643 589.478,827.977 588.5,827.5C 586.674,829.781 584.674,829.781 582.5,827.5C 582.137,829.377 581.47,831.544 580.5,834C 580.833,835 581.167,836 581.5,837C 580.833,841 580.167,845 579.5,849C 579.5,854.333 579.5,859.667 579.5,865C 578.833,867.333 578.167,869.667 577.5,872C 578.649,880.421 578.816,888.921 578,897.5C 569.293,899.904 562.793,896.904 558.5,888.5C 559.127,887.583 559.461,886.583 559.5,885.5C 561.477,883.812 563.477,883.479 565.5,884.5C 566.012,887.848 567.845,890.181 571,891.5C 571.038,881.508 571.705,871.175 573,860.5C 574.579,852.869 575.579,845.203 576,837.5C 575.122,841.052 573.956,844.386 572.5,847.5C 571.687,846.347 570.687,846.347 569.5,847.5C 568.706,845.144 569.039,842.811 570.5,840.5C 569.476,839.148 568.476,837.815 567.5,836.5C 569.153,833.241 570.819,829.907 572.5,826.5C 575.386,825.952 577.386,824.285 578.5,821.5C 574.779,820.699 574.612,819.366 578,817.5C 579.765,818.632 581.598,819.632 583.5,820.5C 586.337,822.402 589.671,823.069 593.5,822.5C 593.5,820.5 593.5,818.5 593.5,816.5C 593.414,814.323 592.747,812.323 591.5,810.5C 592.687,809.481 593.687,808.314 594.5,807C 605.679,803.504 616.346,804.17 626.5,809C 627.71,810.039 628.71,811.206 629.5,812.5 Z"/></g>
<g><path style="opacity:1" fill="#90af7e" d="M 267.5,809.5 C 270.306,809.822 272.806,810.822 275,812.5C 283.367,824.584 291.2,836.918 298.5,849.5C 297.946,852.391 296.279,854.391 293.5,855.5C 292.009,855.099 290.342,854.932 288.5,855C 286.664,853.581 284.664,852.414 282.5,851.5C 276.561,839.449 270.227,827.782 263.5,816.5C 262.62,814.611 262.62,812.611 263.5,810.5C 264.959,810.567 266.292,810.234 267.5,809.5 Z"/></g>
<g><path style="opacity:1" fill="#91b07f" d="M 607.5,809.5 C 612.565,809.9 617.565,810.733 622.5,812C 624.351,813.684 626.018,815.517 627.5,817.5C 625.117,817.951 622.45,818.784 619.5,820C 617.5,820.667 615.5,820.667 613.5,820C 610.828,818.443 607.995,817.276 605,816.5C 600.054,812.257 600.887,809.924 607.5,809.5 Z"/></g>
<g><path style="opacity:1" fill="#8fad7d" d="M 564.5,809.5 C 568.407,809.513 572.074,810.347 575.5,812C 574.687,813.803 573.52,815.303 572,816.5C 568.2,817.986 564.366,819.32 560.5,820.5C 557.278,819.637 554.111,818.637 551,817.5C 549.719,818.647 549.386,818.313 550,816.5C 551.167,814.667 552.667,813.167 554.5,812C 558.038,811.465 561.372,810.632 564.5,809.5 Z"/></g>
<g><path style="opacity:1" fill="#91b27f" d="M 593.5,816.5 C 593.5,818.5 593.5,820.5 593.5,822.5C 589.671,823.069 586.337,822.402 583.5,820.5C 583.286,818.856 583.62,817.356 584.5,816C 587.527,816.139 590.527,816.305 593.5,816.5 Z"/></g>
<g><path style="opacity:1" fill="#678055" d="M 263.5,816.5 C 270.227,827.782 276.561,839.449 282.5,851.5C 284.664,852.414 286.664,853.581 288.5,855C 290.342,854.932 292.009,855.099 293.5,855.5C 291.033,857.803 288.7,860.303 286.5,863C 284.473,864.879 282.14,866.046 279.5,866.5C 280.089,864.648 280.756,862.815 281.5,861C 274.283,850.908 265.95,841.908 256.5,834C 255.207,833.51 253.873,833.343 252.5,833.5C 253.709,830.731 255.376,828.231 257.5,826C 257.167,825.667 256.833,825.333 256.5,825C 259.451,822.561 261.784,819.728 263.5,816.5 Z"/></g>
<g><path style="opacity:1" fill="#678055" d="M 914.5,817.5 C 915.878,820.391 917.878,822.891 920.5,825C 920.167,825.333 919.833,825.667 919.5,826C 921.624,828.231 923.291,830.731 924.5,833.5C 923.127,833.343 921.793,833.51 920.5,834C 911.05,841.908 902.717,850.908 895.5,861C 896.244,862.815 896.911,864.648 897.5,866.5C 894.86,866.046 892.527,864.879 890.5,863C 888.3,860.303 885.967,857.803 883.5,855.5C 887.358,855.458 891.025,854.125 894.5,851.5C 899.198,843.437 903.365,835.103 907,826.5C 909.061,822.988 911.561,819.988 914.5,817.5 Z"/></g>
<g><path style="opacity:1" fill="#91b17f" d="M 572.5,826.5 C 570.819,829.907 569.153,833.241 567.5,836.5C 565.347,840.583 562.347,844.083 558.5,847C 556.365,847.635 554.365,847.301 552.5,846C 548.429,839.327 546.429,832.327 546.5,825C 547.126,824.25 547.626,823.416 548,822.5C 552.729,825.352 557.562,827.019 562.5,827.5C 566.53,825.633 570.53,824.133 574.5,823C 573.695,824.113 573.028,825.279 572.5,826.5 Z"/></g>
<g><path style="opacity:1" fill="#91b17f" d="M 602.5,822.5 C 606.448,824.136 610.448,825.803 614.5,827.5C 619.438,827.019 624.271,825.352 629,822.5C 629.374,823.416 629.874,824.25 630.5,825C 630.457,832.039 628.624,838.872 625,845.5C 620.81,848.411 617.31,847.744 614.5,843.5C 609.39,837.211 605.39,830.211 602.5,822.5 Z"/></g>
<g><path style="opacity:1" fill="#90b07e" d="M 909.5,809.5 C 910.708,810.234 912.041,810.567 913.5,810.5C 914.313,812.887 914.646,815.22 914.5,817.5C 911.561,819.988 909.061,822.988 907,826.5C 903.365,835.103 899.198,843.437 894.5,851.5C 891.025,854.125 887.358,855.458 883.5,855.5C 880.721,854.391 879.054,852.391 878.5,849.5C 885.8,836.918 893.633,824.584 902,812.5C 904.194,810.822 906.694,809.822 909.5,809.5 Z"/></g>
<g><path style="opacity:1" fill="#8fae7d" d="M 252.5,833.5 C 253.873,833.343 255.207,833.51 256.5,834C 265.95,841.908 274.283,850.908 281.5,861C 280.756,862.815 280.089,864.648 279.5,866.5C 275.08,868.372 271.414,867.372 268.5,863.5C 265.391,858.506 263.057,853.172 261.5,847.5C 257.334,843.756 253.667,839.589 250.5,835C 251.044,834.283 251.711,833.783 252.5,833.5 Z"/></g>
<g><path style="opacity:1" fill="#90af7e" d="M 924.5,833.5 C 926.673,834.166 927.007,835.333 925.5,837C 922.006,840.327 918.673,843.827 915.5,847.5C 913.407,854.964 909.741,861.464 904.5,867C 902.071,867.703 899.738,867.537 897.5,866.5C 896.911,864.648 896.244,862.815 895.5,861C 902.717,850.908 911.05,841.908 920.5,834C 921.793,833.51 923.127,833.343 924.5,833.5 Z"/></g>
<g><path style="opacity:1" fill="#91b17f" d="M 565.5,884.5 C 566.776,881.97 566.776,879.303 565.5,876.5C 566.26,873.006 567.26,869.506 568.5,866C 568.167,865.667 567.833,865.333 567.5,865C 569.054,859.422 570.721,853.589 572.5,847.5C 573.956,844.386 575.122,841.052 576,837.5C 575.579,845.203 574.579,852.869 573,860.5C 571.705,871.175 571.038,881.508 571,891.5C 567.845,890.181 566.012,887.848 565.5,884.5 Z"/></g>
<g><path style="opacity:1" fill="#91b17f" d="M 604.5,849.5 C 608.378,861.045 610.711,873.045 611.5,885.5C 610.525,888.248 608.692,890.248 606,891.5C 605.962,881.508 605.295,871.175 604,860.5C 602.421,852.869 601.421,845.203 601,837.5C 602.171,841.518 603.337,845.518 604.5,849.5 Z"/></g>
<g><path style="opacity:0.875" fill="#421b1a" d="M 308.5,858.5 C 309.833,859.167 309.833,859.167 308.5,858.5 Z"/></g>
<g><path style="opacity:0.941" fill="#431d1b" d="M 868.5,858.5 C 867.833,859.167 867.833,859.167 868.5,858.5 Z"/></g>
<g><path style="opacity:0.941" fill="#431d1b" d="M 296.5,871.5 C 297.833,872.167 297.833,872.167 296.5,871.5 Z"/></g>
<g><path style="opacity:0.769" fill="#431b19" d="M 880.5,871.5 C 879.833,872.167 879.833,872.167 880.5,871.5 Z"/></g>
<g><path style="opacity:0.096" fill="#29080e" d="M 301.5,879.5 C 300.387,878.054 300.22,876.387 301,874.5C 301.494,876.134 301.66,877.801 301.5,879.5 Z"/></g>
<g><path style="opacity:0.098" fill="#28090e" d="M 875.5,879.5 C 875.34,877.801 875.506,876.134 876,874.5C 876.78,876.387 876.613,878.054 875.5,879.5 Z"/></g>
<g><path style="opacity:1" fill="#3e1e1f" d="M 602.5,822.5 C 605.39,830.211 609.39,837.211 614.5,843.5C 614.217,844.216 613.884,845.049 613.5,846C 614.308,846.308 614.975,846.808 615.5,847.5C 614.923,849.55 613.59,850.55 611.5,850.5C 610.957,850.56 610.624,850.893 610.5,851.5C 614.418,862.115 616.751,872.782 617.5,883.5C 615.421,883.971 613.421,884.637 611.5,885.5C 610.711,873.045 608.378,861.045 604.5,849.5C 606.379,849.607 606.712,849.107 605.5,848C 606.253,846.513 607.086,846.346 608,847.5C 608.304,845.559 609.137,843.893 610.5,842.5C 608.31,840.144 606.31,837.644 604.5,835C 604.957,834.586 605.291,834.086 605.5,833.5C 603.19,831.046 601.523,828.212 600.5,825C 601.066,824.005 601.733,823.172 602.5,822.5 Z"/></g>
<g><path style="opacity:0.027" fill="#1c0000" d="M 301.5,879.5 C 302.525,879.897 302.692,880.563 302,881.5C 301.536,880.906 301.369,880.239 301.5,879.5 Z"/></g>
<g><path style="opacity:0.027" fill="#1c0000" d="M 875.5,879.5 C 875.631,880.239 875.464,880.906 875,881.5C 874.308,880.563 874.475,879.897 875.5,879.5 Z"/></g>
<g><path style="opacity:1" fill="#442928" d="M 745.5,1248.5 C 744.391,1248.56 743.391,1248.89 742.5,1249.5C 739.486,1238.88 736.82,1228.38 734.5,1218C 733.624,1216.41 732.624,1214.91 731.5,1213.5C 732.651,1212.27 733.817,1212.27 735,1213.5C 739.589,1224.86 743.089,1236.53 745.5,1248.5 Z"/></g>
<g><path style="opacity:0.016" fill="#000000" d="M 370.5,1362.5 C 371.833,1363.17 371.833,1363.17 370.5,1362.5 Z"/></g>
<g><path style="opacity:0.016" fill="#000000" d="M 805.5,1362.5 C 806.833,1363.17 806.833,1363.17 805.5,1362.5 Z"/></g>
<g><path style="opacity:0.008" fill="#190604" d="M 368.5,1367.5 C 369.525,1367.9 369.692,1368.56 369,1369.5C 368.536,1368.91 368.369,1368.24 368.5,1367.5 Z"/></g>
<g><path style="opacity:0.008" fill="#190106" d="M 807.5,1367.5 C 808.525,1367.9 808.692,1368.56 808,1369.5C 807.536,1368.91 807.369,1368.24 807.5,1367.5 Z"/></g>
<g><path style="opacity:1" fill="#391517" d="M 745.5,1248.5 C 756.284,1296.34 764.95,1343.68 771.5,1390.5C 772.167,1392.17 772.833,1393.83 773.5,1395.5C 773.24,1398.11 773.24,1400.61 773.5,1403C 776.305,1406.58 775.472,1409.08 771,1410.5C 770.085,1409.67 769.419,1408.67 769,1407.5C 761.759,1354.26 752.926,1301.59 742.5,1249.5C 743.391,1248.89 744.391,1248.56 745.5,1248.5 Z"/></g>
<g><path style="opacity:1" fill="#3c1a1b" d="M 414.5,1259.5 C 415.675,1259.28 416.675,1259.61 417.5,1260.5C 415.548,1264.62 414.048,1268.96 413,1273.5C 411.311,1284.29 409.477,1295.12 407.5,1306C 407.833,1307 408.167,1308 408.5,1309C 407.183,1316.71 405.85,1324.71 404.5,1333C 405.022,1333.56 405.355,1334.23 405.5,1335C 403.159,1354.5 401.159,1373.5 399.5,1392C 400.139,1404.42 400.139,1416.75 399.5,1429C 400.288,1432.08 400.788,1435.24 401,1438.5C 401.45,1440.52 402.283,1442.35 403.5,1444C 404.549,1444.49 405.549,1444.33 406.5,1443.5C 419.373,1425.91 428.373,1406.41 433.5,1385C 433.13,1383.1 432.963,1381.27 433,1379.5C 434.458,1378.25 435.958,1378.25 437.5,1379.5C 439.177,1381.98 439.844,1384.48 439.5,1387C 433.95,1404.25 426.783,1421.09 418,1437.5C 415.5,1440.5 413,1443.5 410.5,1446.5C 407.356,1449.8 404.023,1450.13 400.5,1447.5C 399.041,1445.42 397.708,1443.25 396.5,1441C 396.833,1440.67 397.167,1440.33 397.5,1440C 396.736,1437.93 396.236,1435.76 396,1433.5C 395.843,1381.86 400.176,1330.2 409,1278.5C 410.133,1271.94 411.967,1265.6 414.5,1259.5 Z"/></g>
<g><path style="opacity:1" fill="#3b1719" d="M 681.5,1499.5 C 686.245,1499.48 690.745,1500.48 695,1502.5C 695.414,1502.04 695.914,1501.71 696.5,1501.5C 705.212,1504.18 714.046,1507.51 723,1511.5C 733.191,1514.65 743.357,1518.65 753.5,1523.5C 756.104,1525.21 756.77,1527.37 755.5,1530C 752.794,1531.55 749.96,1532.71 747,1533.5C 745.165,1531.27 745.665,1529.44 748.5,1528C 741.811,1523.08 734.645,1519.92 727,1518.5C 712.645,1510.95 697.479,1505.62 681.5,1502.5C 681.5,1501.5 681.5,1500.5 681.5,1499.5 Z"/></g>
<g><path style="opacity:1" fill="#3c191b" d="M 437.5,1558.5 C 439.849,1559.12 442.182,1559.46 444.5,1559.5C 445.83,1561.35 445.497,1562.85 443.5,1564C 439.911,1564.21 436.411,1564.71 433,1565.5C 429.238,1564.44 425.572,1564.77 422,1566.5C 420.249,1565.83 418.583,1565.49 417,1565.5C 416.333,1566.17 415.667,1566.83 415,1567.5C 406.622,1567.24 397.955,1569.24 389,1573.5C 388.667,1573.17 388.333,1572.83 388,1572.5C 386.414,1573.38 384.914,1574.38 383.5,1575.5C 382.278,1573.09 382.945,1571.26 385.5,1570C 389.09,1568.47 392.757,1567.14 396.5,1566C 410.651,1562.54 424.318,1560.04 437.5,1558.5 Z"/></g>
<g><path style="opacity:1" fill="#3b1719" d="M 711.5,1560.5 C 722.862,1560.77 734.362,1560.77 746,1560.5C 763.419,1561.82 780.919,1564.65 798.5,1569C 801.318,1571.9 800.984,1574.4 797.5,1576.5C 788.718,1572.62 779.552,1569.95 770,1568.5C 769.228,1568.64 768.561,1568.98 768,1569.5C 765.5,1567.46 762.833,1567.13 760,1568.5C 753.382,1567.15 746.715,1566.15 740,1565.5C 728.791,1565.77 717.791,1565.77 707,1565.5C 687.103,1567.32 666.603,1570.32 645.5,1574.5C 642.254,1573.88 641.921,1572.71 644.5,1571C 667.147,1565.8 689.48,1562.3 711.5,1560.5 Z"/></g>
<g><path style="opacity:1" fill="#3a1617" d="M 468.5,1564.5 C 474.529,1563.16 477.196,1565.5 476.5,1571.5C 439.564,1579.14 405.564,1596.3 374.5,1623C 372.647,1623.55 371.313,1622.88 370.5,1621C 399.195,1595.16 431.861,1576.32 468.5,1564.5 Z"/></g>
<g><path style="opacity:1" fill="#8faf7d" d="M 491.5,1586.5 C 498.389,1587.02 505.222,1587.02 512,1586.5C 512.928,1588.33 514.094,1588.67 515.5,1587.5C 521.415,1590.74 527.082,1594.41 532.5,1598.5C 536.525,1603.36 540.358,1608.36 544,1613.5C 545.106,1620.48 546.94,1627.48 549.5,1634.5C 544.022,1635.45 538.855,1635.45 534,1634.5C 530.79,1635.75 527.623,1636.75 524.5,1637.5C 520.572,1637.43 516.405,1637.43 512,1637.5C 508.217,1637.26 504.55,1636.59 501,1635.5C 488.682,1636.38 476.015,1637.05 463,1637.5C 462.683,1635.7 462.016,1635.37 461,1636.5C 457.803,1635.69 454.637,1634.69 451.5,1633.5C 451.166,1621.31 454.666,1609.98 462,1599.5C 470.352,1592.44 480.185,1588.11 491.5,1586.5 Z"/></g>
<g><path style="opacity:1" fill="#8faf7d" d="M 664.5,1586.5 C 671.295,1586.81 678.128,1586.81 685,1586.5C 690.178,1587.42 695.345,1588.59 700.5,1590C 701.469,1591.76 702.636,1592.26 704,1591.5C 707.167,1593.67 710.333,1595.83 713.5,1598C 721.313,1608.28 725.646,1619.78 726.5,1632.5C 723.26,1634.51 719.76,1635.85 716,1636.5C 714.984,1635.37 714.317,1635.7 714,1637.5C 703.136,1637.24 692.136,1636.57 681,1635.5C 671.275,1637.17 661.775,1637.84 652.5,1637.5C 649.377,1636.75 646.21,1635.75 643,1634.5C 638.145,1635.45 632.978,1635.45 627.5,1634.5C 627.767,1630.43 629.1,1626.76 631.5,1623.5C 631.023,1622.52 630.357,1621.69 629.5,1621C 635.941,1605.73 646.607,1594.56 661.5,1587.5C 662.922,1588.78 663.922,1588.44 664.5,1586.5 Z"/></g>
<g><path style="opacity:1" fill="#b5c7ab" d="M 511.5,1597.5 C 513.591,1597.32 515.591,1597.65 517.5,1598.5C 522.949,1604.01 525.449,1610.34 525,1617.5C 520.579,1623.09 516.579,1622.75 513,1616.5C 511.32,1612.29 510.153,1607.96 509.5,1603.5C 509.363,1601.16 510.03,1599.16 511.5,1597.5 Z"/></g>
<g><path style="opacity:1" fill="#b5c7ab" d="M 660.5,1597.5 C 665.331,1596.67 667.664,1598.67 667.5,1603.5C 666.819,1610.05 664.486,1615.89 660.5,1621C 657.743,1621.78 655.243,1621.28 653,1619.5C 651.58,1616.82 651.08,1614.15 651.5,1611.5C 653.527,1606.09 656.527,1601.42 660.5,1597.5 Z"/></g>
<g><path style="opacity:1" fill="#b5c7aa" d="M 486.5,1605.5 C 489.024,1605.43 491.024,1606.43 492.5,1608.5C 493.892,1611.01 494.892,1613.67 495.5,1616.5C 494.61,1617.96 494.61,1619.29 495.5,1620.5C 493.125,1623.35 490.292,1624.02 487,1622.5C 484.785,1617.34 483.618,1612.51 483.5,1608C 484.571,1607.15 485.571,1606.31 486.5,1605.5 Z"/></g>
<g><path style="opacity:1" fill="#b5c7aa" d="M 687.5,1605.5 C 689.842,1605.5 691.842,1606.34 693.5,1608C 693.382,1612.51 692.215,1617.34 690,1622.5C 686.708,1624.02 683.875,1623.35 681.5,1620.5C 681.118,1614.67 683.118,1609.67 687.5,1605.5 Z"/></g>
<g><path style="opacity:1" fill="#657e54" d="M 439.5,1630.5 C 440.302,1631.95 440.802,1633.62 441,1635.5C 443.041,1637.73 445.541,1639.23 448.5,1640C 448.167,1640.33 447.833,1640.67 447.5,1641C 457.344,1643.35 467.177,1645.52 477,1647.5C 488.411,1647.22 500.078,1647.22 512,1647.5C 518,1646.83 524,1646.17 530,1645.5C 535.252,1645.59 540.586,1645.93 546,1646.5C 548.237,1645.94 550.237,1644.94 552,1643.5C 553.167,1644.67 554.333,1645.83 555.5,1647C 553.5,1648.33 551.5,1649.67 549.5,1651C 545.579,1651.2 541.745,1651.7 538,1652.5C 522.422,1651.59 507.088,1651.25 492,1651.5C 490.527,1651.9 489.194,1652.57 488,1653.5C 470.371,1650.86 453.205,1650.19 436.5,1651.5C 436.817,1646.85 436.15,1642.35 434.5,1638C 435.649,1635.04 437.315,1632.54 439.5,1630.5 Z"/></g>
<g><path style="opacity:1" fill="#657e54" d="M 736.5,1630.5 C 739.378,1632.22 741.378,1634.72 742.5,1638C 740.779,1642.39 740.112,1646.73 740.5,1651C 730.639,1651.69 721.306,1651.53 712.5,1650.5C 705.943,1651.68 699.443,1652.68 693,1653.5C 690.2,1654.1 687.534,1653.44 685,1651.5C 669.912,1651.25 654.578,1651.59 639,1652.5C 635.255,1651.7 631.421,1651.2 627.5,1651C 625.5,1649.67 623.5,1648.33 621.5,1647C 622.667,1645.83 623.833,1644.67 625,1643.5C 626.763,1644.94 628.763,1645.94 631,1646.5C 636.414,1645.93 641.748,1645.59 647,1645.5C 653,1646.17 659,1646.83 665,1647.5C 676.922,1647.22 688.589,1647.22 700,1647.5C 709.823,1645.52 719.656,1643.35 729.5,1641C 729.167,1640.67 728.833,1640.33 728.5,1640C 731.459,1639.23 733.959,1637.73 736,1635.5C 736.494,1633.87 736.66,1632.2 736.5,1630.5 Z"/></g>
</svg>
