<?xml version="1.0" encoding="UTF-8"?>
<!DOCTYPE svg PUBLIC "-//W3C//DTD SVG 1.1//EN" "http://www.w3.org/Graphics/SVG/1.1/DTD/svg11.dtd">
<svg xmlns="http://www.w3.org/2000/svg" version="1.1" width="1216px" height="1749px" style="shape-rendering:geometricPrecision; text-rendering:geometricPrecision; image-rendering:optimizeQuality; fill-rule:evenodd; clip-rule:evenodd" xmlns:xlink="http://www.w3.org/1999/xlink">
<g><path style="opacity:0.93" fill="#3a1517" d="M 545.5,442.5 C 548.645,443.685 550.479,446.018 551,449.5C 551.925,450.047 552.758,450.713 553.5,451.5C 556.381,460.255 560.048,468.588 564.5,476.5C 568.689,479.842 573.355,481.508 578.5,481.5C 585.167,481.5 591.833,481.5 598.5,481.5C 600.839,481.331 603.006,480.664 605,479.5C 605.333,479.833 605.667,480.167 606,480.5C 611.605,478.255 615.272,474.255 617,468.5C 619.069,462.794 621.235,457.128 623.5,451.5C 625.995,449.851 627.495,447.517 628,444.5C 629,443.833 630,443.167 631,442.5C 644.342,448.252 658.175,452.418 672.5,455C 679.418,457.421 685.418,461.255 690.5,466.5C 692.171,468.51 692.838,470.843 692.5,473.5C 703.658,473.673 714.491,473.339 725,472.5C 754.326,478.163 775.992,494.163 790,520.5C 797.001,528.405 802.668,537.738 807,548.5C 809.333,551.833 811.667,555.167 814,558.5C 827.002,571.835 840.335,584.835 854,597.5C 856.357,601.704 858.357,605.704 860,609.5C 860.388,616.477 860.554,623.31 860.5,630C 856.005,637.807 849.839,643.974 842,648.5C 841.667,648.167 841.333,647.833 841,647.5C 840.077,649.034 839.577,650.701 839.5,652.5C 840.121,656.945 840.288,661.611 840,666.5C 837.572,671.427 833.739,674.76 828.5,676.5C 829.831,682.488 832.498,687.822 836.5,692.5C 836,693.5 835.5,694.5 835,695.5C 823.711,704.793 811.878,713.293 799.5,721C 793.167,726 787.5,731.667 782.5,738C 778.695,737.974 776.695,739.808 776.5,743.5C 773.874,744.422 771.207,745.422 768.5,746.5C 761.951,743.132 756.451,738.465 752,732.5C 748.468,728.308 745.802,723.641 744,718.5C 741.728,719.791 739.561,720.457 737.5,720.5C 725.709,714.934 717.376,706.601 712.5,695.5C 712.28,689.033 712.613,682.533 713.5,676C 712.235,671.445 710.735,666.945 709,662.5C 707.594,671.862 707.094,681.195 707.5,690.5C 709.059,707.71 711.559,725.044 715,742.5C 716.461,746.811 717.794,751.145 719,755.5C 731.716,773.377 744.216,791.377 756.5,809.5C 759.818,813.318 763.318,816.985 767,820.5C 768.973,824.457 771.306,828.124 774,831.5C 783.956,842.292 794.123,852.958 804.5,863.5C 805.325,864.386 806.325,864.719 807.5,864.5C 807.5,865.5 807.5,866.5 807.5,867.5C 823.275,880.107 838.275,893.607 852.5,908C 855.5,910.167 858.5,912.333 861.5,914.5C 881.276,934.031 900.609,954.031 919.5,974.5C 921.316,975.815 922.983,977.315 924.5,979C 933.151,979.653 933.818,982.32 926.5,987C 911.218,997.018 896.551,1007.68 882.5,1019C 875.547,1021.48 869.547,1025.48 864.5,1031C 861.33,1032.42 858.33,1034.08 855.5,1036C 857.061,1036.32 858.228,1037.15 859,1038.5C 859.333,1038.17 859.667,1037.83 860,1037.5C 868.776,1044.3 876.61,1051.47 883.5,1059C 885.717,1060.28 888.051,1061.28 890.5,1062C 890.343,1064.48 890.177,1066.98 890,1069.5C 878.149,1073.89 866.649,1079.06 855.5,1085C 850.531,1085.65 846.198,1087.65 842.5,1091C 841.207,1091.49 839.873,1091.66 838.5,1091.5C 838.5,1092.5 838.5,1093.5 838.5,1094.5C 828.308,1096.91 819.141,1101.24 811,1107.5C 805.574,1109.14 800.407,1111.31 795.5,1114C 789.741,1115.54 784.074,1117.37 778.5,1119.5C 776.436,1120.24 774.103,1120.24 771.5,1119.5C 769.184,1120.93 766.684,1121.93 764,1122.5C 762.684,1119.97 761.517,1119.97 760.5,1122.5C 755.13,1121.49 749.796,1121.83 744.5,1123.5C 739.955,1123.25 735.455,1122.92 731,1122.5C 723.579,1123.32 716.079,1123.82 708.5,1124C 712.15,1126.81 712.483,1129.97 709.5,1133.5C 707.884,1134.12 706.551,1135.12 705.5,1136.5C 703.678,1135.57 702.345,1136.24 701.5,1138.5C 700.914,1138.29 700.414,1137.96 700,1137.5C 696.804,1138.99 693.637,1140.66 690.5,1142.5C 689.914,1142.29 689.414,1141.96 689,1141.5C 683.415,1143.47 677.915,1145.64 672.5,1148C 660.193,1149.16 648.193,1151.66 636.5,1155.5C 631.968,1155.32 627.468,1154.99 623,1154.5C 620.776,1156.2 618.276,1157.2 615.5,1157.5C 597.623,1156.59 579.623,1156.59 561.5,1157.5C 554.569,1155.51 547.569,1154.84 540.5,1155.5C 534.842,1154.27 529.342,1152.6 524,1150.5C 523.439,1151.02 522.772,1151.36 522,1151.5C 515.917,1149.97 509.75,1148.8 503.5,1148C 498.196,1144.4 492.529,1142.56 486.5,1142.5C 483.363,1140.66 480.196,1138.99 477,1137.5C 476.586,1137.96 476.086,1138.29 475.5,1138.5C 474.655,1136.24 473.322,1135.57 471.5,1136.5C 470.449,1135.12 469.116,1134.12 467.5,1133.5C 464.517,1129.97 464.85,1126.81 468.5,1124C 460.921,1123.82 453.421,1123.32 446,1122.5C 441.409,1122.47 436.909,1122.8 432.5,1123.5C 430.026,1122.73 427.526,1122.06 425,1121.5C 422.243,1121.64 419.41,1121.97 416.5,1122.5C 415.234,1120.81 413.401,1120.48 411,1121.5C 389.374,1117.99 368.874,1110.16 349.5,1098C 345.71,1096.97 342.043,1095.81 338.5,1094.5C 338.5,1093.5 338.5,1092.5 338.5,1091.5C 336.801,1091.66 335.134,1091.49 333.5,1091C 331.46,1088.98 329.127,1087.31 326.5,1086C 313.006,1080.42 299.673,1074.58 286.5,1068.5C 286.488,1066.59 286.821,1064.59 287.5,1062.5C 292.525,1060.64 296.525,1057.48 299.5,1053C 307.027,1047.83 314.36,1042.17 321.5,1036C 314.876,1032.58 308.876,1028.25 303.5,1023C 300.933,1020.9 297.933,1019.57 294.5,1019C 284.725,1010.94 274.725,1003.1 264.5,995.5C 260.613,993.785 257.113,991.452 254,988.5C 253.667,988.833 253.333,989.167 253,989.5C 250.317,986.984 247.817,984.317 245.5,981.5C 247.547,979.985 249.881,979.151 252.5,979C 269.315,962.19 285.648,945.19 301.5,928C 337.2,897.733 371.033,865.567 403,831.5C 407.616,823.681 413.282,816.681 420,810.5C 422.926,804.915 426.593,799.915 431,795.5C 438.919,782.577 447.252,769.911 456,757.5C 462.263,744.289 465.429,730.456 465.5,716C 468.629,702.875 469.962,689.375 469.5,675.5C 469.455,671.111 468.955,666.777 468,662.5C 466.037,667.351 464.537,672.351 463.5,677.5C 464.721,684.386 464.721,691.219 463.5,698C 460.928,700.409 458.928,703.242 457.5,706.5C 451.862,711.65 445.862,716.317 439.5,720.5C 437.291,719.894 435.124,719.227 433,718.5C 428.6,725.911 423.767,733.077 418.5,740C 414.799,741.446 411.633,743.613 409,746.5C 407.933,745.809 406.766,745.309 405.5,745C 396.008,738.196 387.008,730.529 378.5,722C 370.811,716.159 362.811,710.825 354.5,706C 350.651,702.154 346.484,698.654 342,695.5C 340.678,692.016 341.678,689.016 345,686.5C 346.725,683.397 347.892,680.064 348.5,676.5C 343.261,674.76 339.428,671.427 337,666.5C 336.712,661.611 336.879,656.945 337.5,652.5C 337.423,650.701 336.923,649.034 336,647.5C 335.667,647.833 335.333,648.167 335,648.5C 327.161,643.974 320.995,637.807 316.5,630C 316.942,626.313 316.942,622.48 316.5,618.5C 316.554,615.061 317.22,611.894 318.5,609C 318.167,608.667 317.833,608.333 317.5,608C 319.387,604.955 321.22,601.455 323,597.5C 336.665,584.835 349.998,571.835 363,558.5C 369.487,548.863 375.32,538.863 380.5,528.5C 386.738,519.974 393.238,510.974 400,501.5C 413.858,485.654 431.191,475.987 452,472.5C 462.235,473.496 473.068,473.83 484.5,473.5C 484.162,470.843 484.829,468.51 486.5,466.5C 489.062,463.435 492.062,460.935 495.5,459C 512.437,454.104 529.104,448.604 545.5,442.5 Z M 587.5,505.5 C 589.337,505.639 589.67,506.306 588.5,507.5C 587.702,507.043 587.369,506.376 587.5,505.5 Z"/></g>
<g><path style="opacity:1" fill="#fef4e3" d="M 543.5,448.5 C 547.337,455.407 549.67,462.574 550.5,470C 553.043,475.594 556.21,480.76 560,485.5C 567.117,490.96 574.783,493.294 583,492.5C 584.158,492.998 584.991,493.831 585.5,495C 580.71,511.034 574.543,526.534 567,541.5C 563.376,546.486 558.543,548.319 552.5,547C 532.368,541.892 515.201,531.392 501,515.5C 497.284,511.452 493.95,507.118 491,502.5C 489.458,496.88 490.791,492.213 495,488.5C 498.343,483.089 498.01,478.422 494,474.5C 493.333,473.167 493.333,471.833 494,470.5C 497.661,466.909 501.494,464.243 505.5,462.5C 506.086,462.709 506.586,463.043 507,463.5C 510.184,461.526 513.517,459.859 517,458.5C 518.343,459.214 519.676,458.88 521,457.5C 522,457.833 523,458.167 524,458.5C 525.816,456.559 527.816,455.892 530,456.5C 534.811,454.185 539.311,451.518 543.5,448.5 Z"/></g>
<g><path style="opacity:1" fill="#fef4e3" d="M 632.5,448.5 C 637.226,451.281 642.059,453.948 647,456.5C 649.184,455.892 651.184,456.559 653,458.5C 655.188,457.553 657.522,457.553 660,458.5C 663.483,459.859 666.816,461.526 670,463.5C 670.414,463.043 670.914,462.709 671.5,462.5C 675.338,464.07 679.004,466.57 682.5,470C 684.032,473.509 683.032,476.176 679.5,478C 680.114,479.13 680.114,480.463 679.5,482C 682.499,487.165 685.166,492.499 687.5,498C 684.814,504.525 680.981,510.359 676,515.5C 664.502,528.408 651.002,537.908 635.5,544C 630.76,545.56 625.927,546.727 621,547.5C 616.209,547.569 612.542,545.569 610,541.5C 602.457,526.534 596.29,511.034 591.5,495C 592.009,493.831 592.842,492.998 594,492.5C 602.247,493.272 609.914,490.938 617,485.5C 620.79,480.76 623.957,475.594 626.5,470C 626.167,469.667 625.833,469.333 625.5,469C 627.748,462.191 630.082,455.358 632.5,448.5 Z"/></g>
<g><path style="opacity:1" fill="#97bad6" d="M 699.5,686.5 C 698.957,687.742 698.623,689.075 698.5,690.5C 698.63,694.97 699.63,698.97 701.5,702.5C 701.196,703.15 700.863,703.817 700.5,704.5C 701.08,707.311 701.746,709.977 702.5,712.5C 697.473,713.751 692.306,714.751 687,715.5C 679.932,715.432 673.099,715.432 666.5,715.5C 645.79,719.003 625.624,722.003 606,724.5C 603,723.833 600,723.167 597,722.5C 591.333,722.5 585.667,722.5 580,722.5C 577,723.167 574,723.833 571,724.5C 551.671,722.043 531.504,719.043 510.5,715.5C 503.633,714.267 496.8,714.267 490,715.5C 484.694,714.751 479.527,713.751 474.5,712.5C 478.967,687.318 478.3,662.485 472.5,638C 472.241,627.463 470.241,617.13 466.5,607C 466.833,606.667 467.167,606.333 467.5,606C 465.686,601.547 463.686,597.214 461.5,593C 459.763,592.388 458.763,593.054 458.5,595C 459.871,602.865 461.871,610.531 464.5,618C 463.202,620.499 463.536,622.833 465.5,625C 464.488,627.361 464.821,630.028 466.5,633C 466.167,633.333 465.833,633.667 465.5,634C 466.274,637.772 466.94,641.605 467.5,645.5C 460.802,657.081 456.802,669.581 455.5,683C 457.201,687.865 456.534,692.365 453.5,696.5C 450.632,699.866 447.299,702.7 443.5,705C 436.929,706.059 430.596,707.892 424.5,710.5C 410.2,698.342 394.534,688.176 377.5,680C 370.032,676.733 362.365,674.066 354.5,672C 351.14,669.306 348.14,666.306 345.5,663C 346.335,658.004 346.335,652.504 345.5,646.5C 339.654,641.639 333.821,636.639 328,631.5C 323.562,620.217 325.062,609.883 332.5,600.5C 336.186,596.98 340.019,593.647 344,590.5C 344.483,589.552 344.649,588.552 344.5,587.5C 346.433,587.271 348.1,586.438 349.5,585C 366.302,570.935 378.802,554.102 387,534.5C 392.528,527.556 397.528,520.223 402,512.5C 414.202,495.126 430.035,484.293 449.5,480C 452.76,479.216 455.927,479.383 459,480.5C 462.7,478.683 466.2,478.349 469.5,479.5C 474.773,478.925 479.94,477.925 485,476.5C 486.167,478.167 487.333,479.833 488.5,481.5C 484.444,486.565 482.11,492.065 481.5,498C 481.67,500.858 482.67,503.358 484.5,505.5C 484.291,506.086 483.957,506.586 483.5,507C 495.905,525.183 511.905,539.183 531.5,549C 538.048,550.715 544.382,552.882 550.5,555.5C 553.5,555.5 556.5,555.5 559.5,555.5C 560.748,554.96 561.915,554.293 563,553.5C 564.749,554.299 566.082,553.632 567,551.5C 567.333,551.833 567.667,552.167 568,552.5C 569.667,550.5 571.333,548.5 573,546.5C 577.925,535.23 582.758,523.897 587.5,512.5C 586.185,511.105 586.519,510.105 588.5,509.5C 590.481,510.105 590.815,511.105 589.5,512.5C 594.242,523.897 599.075,535.23 604,546.5C 606.68,550.258 609.68,552.925 613,554.5C 613.333,554.167 613.667,553.833 614,553.5C 615.085,554.293 616.252,554.96 617.5,555.5C 620.5,555.5 623.5,555.5 626.5,555.5C 657.16,546.947 680.16,529.114 695.5,502C 695.5,499.333 695.5,496.667 695.5,494C 693.39,489.72 691.057,485.553 688.5,481.5C 689.667,479.833 690.833,478.167 692,476.5C 697.06,477.925 702.227,478.925 707.5,479.5C 710.8,478.349 714.3,478.683 718,480.5C 721.073,479.383 724.24,479.216 727.5,480C 742.332,483.203 755.499,490.703 767,502.5C 774.349,513.497 782.015,524.163 790,534.5C 796.926,551.575 807.426,566.575 821.5,579.5C 824.788,582.824 828.455,585.491 832.5,587.5C 832.351,588.552 832.517,589.552 833,590.5C 841.622,595.779 847.622,603.113 851,612.5C 852.081,619.054 851.414,625.388 849,631.5C 843.22,636.628 837.386,641.628 831.5,646.5C 830.665,652.504 830.665,658.004 831.5,663C 826.361,670.799 819.028,675.133 809.5,676C 788.806,684.088 769.806,695.588 752.5,710.5C 746.361,708.16 739.694,706.326 732.5,705C 727.26,702.094 723.426,697.928 721,692.5C 722.016,679.759 720.016,667.426 715,655.5C 712.896,652.29 711.063,648.957 709.5,645.5C 710.06,641.605 710.726,637.772 711.5,634C 711.167,633.667 710.833,633.333 710.5,633C 712.179,630.028 712.512,627.361 711.5,625C 713.464,622.833 713.798,620.499 712.5,618C 713.5,615.667 714.5,613.333 715.5,611C 715.043,610.586 714.709,610.086 714.5,609.5C 716.878,604.12 717.878,598.62 717.5,593C 716.365,592.251 715.365,592.417 714.5,593.5C 708.725,607.943 705.392,622.776 704.5,638C 700.772,653.698 699.106,669.865 699.5,686.5 Z M 587.5,505.5 C 587.369,506.376 587.702,507.043 588.5,507.5C 589.67,506.306 589.337,505.639 587.5,505.5 Z"/></g>
<g><path style="opacity:0.9" fill="#d9d06c" d="M 630.5,509.5 C 631.496,509.414 632.329,509.748 633,510.5C 634.039,512.746 635.206,514.913 636.5,517C 639.873,516.513 643.04,516.013 646,515.5C 647.52,516.697 648.687,518.197 649.5,520C 646.567,522.72 643.4,524.22 640,524.5C 639.86,526.256 640.36,527.922 641.5,529.5C 640.166,531.995 638.166,533.162 635.5,533C 635.092,530.652 633.759,528.485 631.5,526.5C 629.059,527.327 626.893,527.327 625,526.5C 623.172,528.807 621.506,528.474 620,525.5C 619.667,525.833 619.333,526.167 619,526.5C 618.505,524.527 618.338,522.527 618.5,520.5C 620.39,520.703 621.89,520.037 623,518.5C 625.027,518.986 627.193,518.986 629.5,518.5C 629.62,516.266 629.287,514.099 628.5,512C 629.056,510.989 629.722,510.156 630.5,509.5 Z"/></g>
<g><path style="opacity:0.936" fill="#d9cf6b" d="M 544.5,509.5 C 546.311,509.572 547.644,510.405 548.5,512C 547.713,514.099 547.38,516.266 547.5,518.5C 549.807,518.986 551.973,518.986 554,518.5C 555.11,520.037 556.61,520.703 558.5,520.5C 558.662,522.527 558.495,524.527 558,526.5C 556.434,525.939 555.101,526.606 554,528.5C 553.333,527.833 552.667,527.167 552,526.5C 550.107,527.327 547.941,527.327 545.5,526.5C 543.96,528.471 542.626,530.638 541.5,533C 538.834,533.162 536.834,531.995 535.5,529.5C 536.64,527.922 537.14,526.256 537,524.5C 533.6,524.22 530.433,522.72 527.5,520C 528.313,518.197 529.48,516.697 531,515.5C 533.96,516.013 537.127,516.513 540.5,517C 541.973,514.552 543.307,512.052 544.5,509.5 Z"/></g>
<g><path style="opacity:0.955" fill="#3e1c1f" d="M 736.5,613.5 C 737.15,613.804 737.817,614.137 738.5,614.5C 739.744,620.992 741.577,627.326 744,633.5C 751.374,647.24 759.041,660.907 767,674.5C 767.346,676.218 767.846,677.885 768.5,679.5C 768.291,680.086 767.957,680.586 767.5,681C 764.854,681.497 762.187,681.664 759.5,681.5C 753.416,666.168 746.416,651.335 738.5,637C 738.833,636.667 739.167,636.333 739.5,636C 736.845,631.701 735.178,627.035 734.5,622C 734.09,619.124 734.757,616.291 736.5,613.5 Z"/></g>
<g><path style="opacity:0.983" fill="#3d191c" d="M 417.5,678.5 C 416.287,679.575 414.787,680.241 413,680.5C 411.319,680.392 410.152,679.725 409.5,678.5C 410.323,675.129 411.489,671.796 413,668.5C 422.776,654.067 430.776,638.734 437,622.5C 437.497,619.854 437.664,617.187 437.5,614.5C 440.524,614.175 442.191,615.508 442.5,618.5C 442.046,622.614 441.213,626.947 440,631.5C 439.727,633.329 438.893,634.829 437.5,636C 437.833,636.333 438.167,636.667 438.5,637C 431.378,650.744 424.378,664.577 417.5,678.5 Z"/></g>
<g><path style="opacity:0.899" fill="#401f23" d="M 384.5,639.5 C 385.978,639.238 387.311,639.571 388.5,640.5C 385.406,644.101 382.906,648.101 381,652.5C 380.333,655.833 380.333,659.167 381,662.5C 384.015,665.683 387.182,668.683 390.5,671.5C 389.232,673.047 387.565,674.047 385.5,674.5C 381.904,672.085 378.404,669.418 375,666.5C 372.604,659.855 373.271,653.521 377,647.5C 379.294,644.527 381.794,641.86 384.5,639.5 Z"/></g>
<g><path style="opacity:0.923" fill="#402024" d="M 789.5,639.5 C 791.783,639.608 793.783,640.441 795.5,642C 800.36,647.054 803.36,653.054 804.5,660C 803.806,665.037 801.14,668.704 796.5,671C 793.607,672.149 790.607,672.649 787.5,672.5C 787.351,671.448 787.517,670.448 788,669.5C 798.63,661.8 799.296,653.133 790,643.5C 789.51,642.207 789.343,640.873 789.5,639.5 Z"/></g>
<g><path style="opacity:1" fill="#f9efdd" d="M 354.5,676.5 C 379.972,686.677 402.805,701.343 423,720.5C 422.713,722.899 421.88,725.232 420.5,727.5C 417.614,730.246 414.947,733.246 412.5,736.5C 399.099,725.488 385.433,714.988 371.5,705C 364.57,701.193 357.903,696.86 351.5,692C 353.986,687.15 354.986,681.984 354.5,676.5 Z"/></g>
<g><path style="opacity:1" fill="#f9eedc" d="M 820.5,676.5 C 822.433,679.753 823.933,683.419 825,687.5C 825.667,689.167 825.667,690.833 825,692.5C 803.751,705.555 783.584,720.221 764.5,736.5C 761.159,731.997 757.659,727.664 754,723.5C 753.333,722.5 753.333,721.5 754,720.5C 764.633,710.195 776.133,701.029 788.5,693C 799.416,687.71 810.083,682.21 820.5,676.5 Z"/></g>
<g><path style="opacity:1" fill="#584852" d="M 409.5,678.5 C 410.152,679.725 411.319,680.392 413,680.5C 414.787,680.241 416.287,679.575 417.5,678.5C 417.5,679.5 417.5,680.5 417.5,681.5C 414.786,681.75 412.119,681.917 409.5,682C 408.209,680.708 408.209,679.542 409.5,678.5 Z"/></g>
<g><path style="opacity:0.987" fill="#d9d06d" d="M 364.5,688.5 C 382.153,696.296 397.486,707.463 410.5,722C 408.735,723.298 406.901,724.464 405,725.5C 402.929,724.213 400.762,723.047 398.5,722C 398.833,721.667 399.167,721.333 399.5,721C 397.741,719.992 396.574,718.492 396,716.5C 385.155,707.652 373.988,699.152 362.5,691C 363.381,690.292 364.047,689.458 364.5,688.5 Z"/></g>
<g><path style="opacity:1" fill="#72788a" d="M 699.5,686.5 C 699.779,691.65 700.446,696.983 701.5,702.5C 699.63,698.97 698.63,694.97 698.5,690.5C 698.623,689.075 698.957,687.742 699.5,686.5 Z"/></g>
<g><path style="opacity:0.977" fill="#dad06d" d="M 810.5,688.5 C 813.166,688.066 814.333,689.066 814,691.5C 807.407,695.752 801.074,700.419 795,705.5C 794.667,705.167 794.333,704.833 794,704.5C 787.801,710.364 781.968,716.531 776.5,723C 771.451,726.877 768.618,725.71 768,719.5C 780.377,707.373 794.544,697.04 810.5,688.5 Z"/></g>
<g><path style="opacity:0.887" fill="#3f1e21" d="M 474.5,712.5 C 479.527,713.751 484.694,714.751 490,715.5C 496.8,714.267 503.633,714.267 510.5,715.5C 531.504,719.043 551.671,722.043 571,724.5C 574,723.833 577,723.167 580,722.5C 585.667,722.5 591.333,722.5 597,722.5C 600,723.167 603,723.833 606,724.5C 625.624,722.003 645.79,719.003 666.5,715.5C 673.099,715.432 679.932,715.432 687,715.5C 692.306,714.751 697.473,713.751 702.5,712.5C 703.285,714.374 703.952,716.374 704.5,718.5C 699.26,719.449 693.927,719.782 688.5,719.5C 684.418,718.74 680.252,718.407 676,718.5C 672.044,718.735 668.544,719.735 665.5,721.5C 646.405,724.855 627.738,727.855 609.5,730.5C 595.5,729.167 581.5,729.167 567.5,730.5C 565.107,729.79 562.607,729.123 560,728.5C 558.602,729.051 557.268,729.384 556,729.5C 551.859,727.189 547.859,726.522 544,727.5C 541.391,726.872 538.725,725.872 536,724.5C 534.333,724.833 532.667,725.167 531,725.5C 520.819,722.924 510.819,720.924 501,719.5C 492.61,720.279 484.777,720.279 477.5,719.5C 478.609,718.71 479.942,718.21 481.5,718C 480.833,717.667 480.167,717.333 479.5,717C 480.833,716.667 482.167,716.333 483.5,716C 480.136,715.273 476.803,714.44 473.5,713.5C 473.624,712.893 473.957,712.56 474.5,712.5 Z"/></g>
<g><path style="opacity:1" fill="#d6cd65" d="M 477.5,719.5 C 484.777,720.279 492.61,720.279 501,719.5C 510.819,720.924 520.819,722.924 531,725.5C 532.667,725.167 534.333,724.833 536,724.5C 538.725,725.872 541.391,726.872 544,727.5C 547.859,726.522 551.859,727.189 556,729.5C 557.268,729.384 558.602,729.051 560,728.5C 562.607,729.123 565.107,729.79 567.5,730.5C 581.5,729.167 595.5,729.167 609.5,730.5C 627.738,727.855 646.405,724.855 665.5,721.5C 668.754,721.093 672.254,720.427 676,719.5C 679.974,720.478 684.141,720.478 688.5,719.5C 693.927,719.782 699.26,719.449 704.5,718.5C 705.451,721.104 705.785,723.604 705.5,726C 705.164,727.03 704.497,727.53 703.5,727.5C 698.198,729.328 692.864,731.162 687.5,733C 678.588,734.936 669.754,736.102 661,736.5C 659.09,737.206 657.09,738.206 655,739.5C 654.667,739.167 654.333,738.833 654,738.5C 645.756,741.482 637.422,743.149 629,743.5C 617.482,746.718 605.482,747.051 593,744.5C 582.727,745.27 572.727,745.937 563,746.5C 557.953,744.961 552.953,743.961 548,743.5C 547.228,743.645 546.561,743.978 546,744.5C 527.748,739.652 508.915,735.819 489.5,733C 483.861,731.009 478.195,729.175 472.5,727.5C 471.928,725.881 471.595,724.215 471.5,722.5C 472.098,721.205 472.598,719.872 473,718.5C 474.356,719.38 475.856,719.714 477.5,719.5 Z"/></g>
<g><path style="opacity:1" fill="#56444e" d="M 688.5,719.5 C 684.141,720.478 679.974,720.478 676,719.5C 672.254,720.427 668.754,721.093 665.5,721.5C 668.544,719.735 672.044,718.735 676,718.5C 680.252,718.407 684.418,718.74 688.5,719.5 Z"/></g>
<g><path style="opacity:1" fill="#fdfdf6" d="M 501.5,721.5 C 509.067,721.547 511.067,724.88 507.5,731.5C 504.549,734.195 501.882,733.862 499.5,730.5C 499.167,729.5 498.833,728.5 498.5,727.5C 498.697,725.004 499.697,723.004 501.5,721.5 Z"/></g>
<g><path style="opacity:1" fill="#fdfcf4" d="M 670.5,721.5 C 676.958,721.516 679.291,724.516 677.5,730.5C 672.149,734.835 668.816,733.501 667.5,726.5C 667.771,724.307 668.771,722.641 670.5,721.5 Z"/></g>
<g><path style="opacity:1" fill="#fdfdf7" d="M 643.5,726.5 C 650.808,726.764 653.141,730.097 650.5,736.5C 648.436,738.261 646.269,738.595 644,737.5C 643.667,738.167 643.333,738.833 643,739.5C 641.374,737.083 639.874,734.583 638.5,732C 639.889,729.761 641.556,727.928 643.5,726.5 Z"/></g>
<g><path style="opacity:1" fill="#fdfcf4" d="M 529.5,726.5 C 539.014,728.181 540.514,732.514 534,739.5C 533.646,737.193 532.646,736.859 531,738.5C 523.205,735.28 522.705,731.28 529.5,726.5 Z"/></g>
<g><path style="opacity:0.871" fill="#401e22" d="M 472.5,727.5 C 478.195,729.175 483.861,731.009 489.5,733C 508.915,735.819 527.748,739.652 546,744.5C 546.561,743.978 547.228,743.645 548,743.5C 552.953,743.961 557.953,744.961 563,746.5C 572.727,745.937 582.727,745.27 593,744.5C 605.482,747.051 617.482,746.718 629,743.5C 637.422,743.149 645.756,741.482 654,738.5C 654.333,738.833 654.667,739.167 655,739.5C 657.09,738.206 659.09,737.206 661,736.5C 669.754,736.102 678.588,734.936 687.5,733C 692.864,731.162 698.198,729.328 703.5,727.5C 701.493,728.519 700.16,730.185 699.5,732.5C 700.776,733.645 702.109,733.645 703.5,732.5C 704.429,733.689 704.762,735.022 704.5,736.5C 703.739,735.609 702.739,734.942 701.5,734.5C 696.833,735.833 692.167,737.167 687.5,738.5C 682.902,737.915 678.402,738.582 674,740.5C 671.065,739.925 668.232,740.592 665.5,742.5C 663.297,742.413 661.13,742.413 659,742.5C 652.709,744.806 646.375,747.14 640,749.5C 636.667,749.5 633.333,749.5 630,749.5C 626.384,750.713 622.718,751.713 619,752.5C 598.667,752.5 578.333,752.5 558,752.5C 554.282,751.713 550.616,750.713 547,749.5C 543.667,749.5 540.333,749.5 537,749.5C 530.72,747.169 524.386,744.836 518,742.5C 517.667,742.833 517.333,743.167 517,743.5C 508.836,740.948 500.836,738.948 493,737.5C 486.626,738.242 480.626,736.909 475,733.5C 473.826,734.544 472.659,735.544 471.5,736.5C 471.567,734.599 471.233,732.766 470.5,731C 471.429,729.923 472.096,728.756 472.5,727.5 Z"/></g>
<g><path style="opacity:1" fill="#fefdf9" d="M 567.5,730.5 C 569.764,732.314 572.097,734.147 574.5,736C 573.167,737 573.167,738 574.5,739C 572.981,740.351 571.648,741.851 570.5,743.5C 566.782,745.667 563.948,744.667 562,740.5C 561.667,740.833 561.333,741.167 561,741.5C 561.676,739.037 561.509,736.87 560.5,735C 562.211,732.481 564.545,730.981 567.5,730.5 Z"/></g>
<g><path style="opacity:1" fill="#97bad6" d="M 704.5,736.5 C 706.691,742.555 709.191,748.555 712,754.5C 719.237,763.79 725.571,773.79 731,784.5C 739.661,795.822 747.827,807.488 755.5,819.5C 761.239,825.982 766.739,832.649 772,839.5C 773.011,840.337 774.178,840.67 775.5,840.5C 775.421,841.93 775.754,843.264 776.5,844.5C 780.185,847.852 783.519,851.518 786.5,855.5C 795.349,863.516 803.683,872.016 811.5,881C 812.448,881.483 813.448,881.649 814.5,881.5C 819.205,886.709 824.205,891.875 829.5,897C 831.887,899.095 834.553,900.595 837.5,901.5C 837.5,902.5 837.5,903.5 837.5,904.5C 840.109,904.83 841.776,906.33 842.5,909C 857.721,922.559 872.554,936.392 887,950.5C 891.177,957.008 896.344,962.508 902.5,967C 907.493,973.159 912.826,978.992 918.5,984.5C 898.007,998.254 878.007,1012.75 858.5,1028C 856.132,1028.79 853.966,1029.96 852,1031.5C 850.5,1031 849,1030.5 847.5,1030C 832.745,1016.63 820.245,1001.47 810,984.5C 801.881,970.627 794.048,956.627 786.5,942.5C 785.226,940.682 783.726,939.015 782,937.5C 781.51,938.793 781.343,940.127 781.5,941.5C 781.603,944.636 782.603,947.302 784.5,949.5C 787.615,956.235 790.615,963.068 793.5,970C 803.346,988.185 814.346,1005.68 826.5,1022.5C 837.738,1033.57 849.738,1043.74 862.5,1053C 866.991,1056.66 870.991,1060.83 874.5,1065.5C 864.688,1071.05 854.355,1075.55 843.5,1079C 840.887,1080.04 838.554,1081.54 836.5,1083.5C 835.914,1083.29 835.414,1082.96 835,1082.5C 828.691,1086.53 822.191,1090.2 815.5,1093.5C 813.541,1093.87 811.707,1094.54 810,1095.5C 809.667,1095.17 809.333,1094.83 809,1094.5C 804.99,1097.92 800.49,1100.42 795.5,1102C 779.33,1107.23 762.497,1110.4 745,1111.5C 730.616,1111.34 715.783,1111.18 700.5,1111C 696.658,1104.01 692.658,1097.18 688.5,1090.5C 687.253,1088.68 686.586,1086.68 686.5,1084.5C 685.5,1084.5 684.5,1084.5 683.5,1084.5C 683.657,1083.13 683.49,1081.79 683,1080.5C 672.553,1063.44 663.886,1045.44 657,1026.5C 652.513,1010.85 648.68,995.183 645.5,979.5C 645.884,977.335 645.217,975.668 643.5,974.5C 642.957,984.557 643.79,994.557 646,1004.5C 646.24,1006.85 647.073,1008.85 648.5,1010.5C 648.337,1012.86 648.503,1015.19 649,1017.5C 651.845,1025.75 654.178,1034.08 656,1042.5C 657.985,1045.02 659.485,1047.85 660.5,1051C 660.167,1051.33 659.833,1051.67 659.5,1052C 666.464,1064.14 672.797,1076.64 678.5,1089.5C 682.928,1094.7 685.928,1100.37 687.5,1106.5C 690.167,1108.5 692.5,1110.83 694.5,1113.5C 694.976,1117.72 695.976,1121.72 697.5,1125.5C 693.409,1127.64 689.075,1129.47 684.5,1131C 680.394,1131.52 676.394,1132.35 672.5,1133.5C 667.352,1134.65 662.352,1135.99 657.5,1137.5C 653.017,1139 648.351,1140 643.5,1140.5C 639.818,1140.33 636.152,1140.5 632.5,1141C 631.263,1141.23 630.263,1141.73 629.5,1142.5C 605.271,1144.56 580.938,1145.06 556.5,1144C 551.357,1143.16 546.357,1142.33 541.5,1141.5C 537.433,1139.95 533.1,1139.28 528.5,1139.5C 514.979,1136.9 501.646,1133.73 488.5,1130C 485.171,1128.96 482.171,1127.46 479.5,1125.5C 479.462,1117.34 482.795,1111.01 489.5,1106.5C 490.074,1104.94 490.74,1103.44 491.5,1102C 491.167,1101.67 490.833,1101.33 490.5,1101C 493.991,1097.02 496.991,1092.69 499.5,1088C 504.617,1076.92 510.117,1066.08 516,1055.5C 519.849,1045.67 523.016,1035.67 525.5,1025.5C 526.871,1023.06 527.871,1020.4 528.5,1017.5C 528.368,1014.43 528.701,1011.43 529.5,1008.5C 531.505,1002.79 532.505,996.791 532.5,990.5C 534.288,985.362 534.622,980.029 533.5,974.5C 532.081,975.005 531.415,976.005 531.5,977.5C 526.697,1008.97 517.031,1038.63 502.5,1066.5C 500.746,1070.94 498.079,1075.27 494.5,1079.5C 493.691,1081.07 493.357,1082.74 493.5,1084.5C 492.5,1084.5 491.5,1084.5 490.5,1084.5C 490.076,1087.35 489.076,1090.02 487.5,1092.5C 484.064,1098.78 480.398,1104.94 476.5,1111C 461.872,1110.91 446.872,1111.07 431.5,1111.5C 421.042,1110.44 410.709,1108.77 400.5,1106.5C 399.833,1106.83 399.167,1107.17 398.5,1107.5C 375.148,1099.86 352.815,1090.03 331.5,1078C 321.562,1074.36 311.895,1070.19 302.5,1065.5C 305.714,1061.35 309.547,1058.01 314,1055.5C 314.483,1054.55 314.649,1053.55 314.5,1052.5C 319.339,1049.18 324.339,1046.01 329.5,1043C 333.5,1039 337.5,1035 341.5,1031C 342.448,1030.52 343.448,1030.35 344.5,1030.5C 345.139,1028.24 346.306,1026.24 348,1024.5C 350.354,1023.26 352.354,1021.6 354,1019.5C 358.653,1010.77 364.153,1002.6 370.5,995C 369.978,994.439 369.645,993.772 369.5,993C 372.66,988.998 375.66,984.831 378.5,980.5C 381.502,972.984 385.169,965.817 389.5,959C 391.537,954.618 393.204,950.118 394.5,945.5C 395.117,945.389 395.617,945.056 396,944.5C 396.497,941.854 396.664,939.187 396.5,936.5C 394.821,936.285 393.821,936.952 393.5,938.5C 390.29,941.575 388.29,945.409 387.5,950C 379.228,962.782 371.561,975.949 364.5,989.5C 356.587,1000.42 348.254,1011.09 339.5,1021.5C 334.957,1024.92 330.624,1028.59 326.5,1032.5C 322.891,1030.24 319.224,1028.07 315.5,1026C 297.193,1011.5 278.527,997.671 259.5,984.5C 263.434,979.941 267.267,975.274 271,970.5C 276.585,965.92 281.918,960.92 287,955.5C 288.167,953.667 289.333,951.833 290.5,950C 294.833,946.333 299.167,942.667 303.5,939C 312.296,929.037 321.63,919.537 331.5,910.5C 334.248,908.079 337.248,906.079 340.5,904.5C 340.5,903.5 340.5,902.5 340.5,901.5C 341.675,901.719 342.675,901.386 343.5,900.5C 349.46,894.528 355.793,889.028 362.5,884C 375.826,870.882 388.826,857.382 401.5,843.5C 402.803,841.858 404.136,840.191 405.5,838.5C 420.947,819.637 435.447,799.971 449,779.5C 455.305,768.292 461.805,757.126 468.5,746C 469.607,742.846 470.607,739.68 471.5,736.5C 472.659,735.544 473.826,734.544 475,733.5C 480.626,736.909 486.626,738.242 493,737.5C 500.836,738.948 508.836,740.948 517,743.5C 517.333,743.167 517.667,742.833 518,742.5C 524.386,744.836 530.72,747.169 537,749.5C 540.333,749.5 543.667,749.5 547,749.5C 550.616,750.713 554.282,751.713 558,752.5C 578.333,752.5 598.667,752.5 619,752.5C 622.718,751.713 626.384,750.713 630,749.5C 633.333,749.5 636.667,749.5 640,749.5C 646.375,747.14 652.709,744.806 659,742.5C 661.13,742.413 663.297,742.413 665.5,742.5C 668.232,740.592 671.065,739.925 674,740.5C 678.402,738.582 682.902,737.915 687.5,738.5C 692.167,737.167 696.833,735.833 701.5,734.5C 702.739,734.942 703.739,735.609 704.5,736.5 Z"/></g>
<g><path style="opacity:1" fill="#fcfcf3" d="M 609.5,730.5 C 612.455,730.981 614.789,732.481 616.5,735C 615.491,736.87 615.324,739.037 616,741.5C 615.667,741.167 615.333,740.833 615,740.5C 613.052,744.667 610.218,745.667 606.5,743.5C 605.352,741.851 604.019,740.351 602.5,739C 603.833,738 603.833,737 602.5,736C 604.903,734.147 607.236,732.314 609.5,730.5 Z"/></g>
<g><path style="opacity:1" fill="#635c6a" d="M 405.5,838.5 C 404.136,840.191 402.803,841.858 401.5,843.5C 401.369,840.633 402.703,838.967 405.5,838.5 Z"/></g>
<g><path style="opacity:1" fill="#686575" d="M 394.5,945.5 C 395.435,942.887 395.602,940.221 395,937.5C 394.617,938.056 394.117,938.389 393.5,938.5C 393.821,936.952 394.821,936.285 396.5,936.5C 396.664,939.187 396.497,941.854 396,944.5C 395.617,945.056 395.117,945.389 394.5,945.5 Z"/></g>
<g><path style="opacity:1" fill="#d6ce64" d="M 334.5,947.5 C 336.95,948.777 339.283,950.277 341.5,952C 329.945,962.015 331.612,969.015 346.5,973C 347.833,973.667 347.833,974.333 346.5,975C 345.271,975.781 343.938,976.281 342.5,976.5C 339.205,975.184 336.205,973.351 333.5,971C 330.833,970.333 328.167,970.333 325.5,971C 321.639,976.195 317.305,980.529 312.5,984C 310.939,983.059 309.605,981.892 308.5,980.5C 312.338,974.836 316.338,969.336 320.5,964C 320.53,962.571 320.197,961.071 319.5,959.5C 316.856,957.031 314.023,954.698 311,952.5C 311.063,951.038 311.729,949.705 313,948.5C 317.76,949.526 322.426,951.526 327,954.5C 329.998,952.667 332.498,950.334 334.5,947.5 Z"/></g>
<g><path style="opacity:1" fill="#686473" d="M 781.5,941.5 C 783.097,943.848 784.097,946.514 784.5,949.5C 782.603,947.302 781.603,944.636 781.5,941.5 Z"/></g>
<g><path style="opacity:1" fill="#43252a" d="M 332.5,944.5 C 333.401,945.29 334.068,946.29 334.5,947.5C 332.498,950.334 329.998,952.667 327,954.5C 322.426,951.526 317.76,949.526 313,948.5C 311.729,949.705 311.063,951.038 311,952.5C 314.023,954.698 316.856,957.031 319.5,959.5C 317.857,959.52 316.524,958.853 315.5,957.5C 313.712,958.283 312.712,959.616 312.5,961.5C 307.421,960.043 303.754,956.377 301.5,950.5C 304.8,946.098 308.967,942.765 314,940.5C 318.633,942.547 323.133,944.88 327.5,947.5C 329.36,946.74 331.027,945.74 332.5,944.5 Z"/></g>
<g><path style="opacity:1" fill="#f9fbfd" d="M 295.5,956.5 C 298.017,957.726 300.351,959.226 302.5,961C 301.873,963.135 301.373,965.302 301,967.5C 291.957,966.76 290.124,963.093 295.5,956.5 Z"/></g>
<g><path style="opacity:1" fill="#fbfcfd" d="M 880.5,956.5 C 882.947,958.515 884.28,960.849 884.5,963.5C 883.965,965.271 883.131,965.604 882,964.5C 880.312,966.045 878.312,967.045 876,967.5C 875.907,964.993 875.074,962.826 873.5,961C 875.993,959.581 878.326,958.081 880.5,956.5 Z"/></g>
<g><path style="opacity:1" fill="#3e1c20" d="M 843.5,941.5 C 843.675,943.621 843.341,945.621 842.5,947.5C 840.05,948.777 837.717,950.277 835.5,952C 838.982,955.477 841.648,959.477 843.5,964C 842.624,966.146 841.291,967.979 839.5,969.5C 835.923,970.523 832.589,972.023 829.5,974C 830.893,975.363 832.559,976.196 834.5,976.5C 837.795,975.184 840.795,973.351 843.5,971C 846.167,970.333 848.833,970.333 851.5,971C 855.343,975.674 859.343,980.174 863.5,984.5C 865.389,983.396 867.055,982.063 868.5,980.5C 864.662,974.836 860.662,969.336 856.5,964C 856.094,962.197 856.594,960.364 858,958.5C 861.004,956.326 863.837,953.992 866.5,951.5C 865.452,950.452 864.452,949.452 863.5,948.5C 863.294,946.451 862.461,946.117 861,947.5C 859.519,946.529 858.685,945.196 858.5,943.5C 859.918,941.292 861.918,940.458 864.5,941C 868.945,943.279 872.612,946.446 875.5,950.5C 873.162,956.339 869.495,960.172 864.5,962C 869.721,968.533 874.054,975.2 877.5,982C 873.536,987.124 868.536,990.957 862.5,993.5C 861.069,993.023 859.736,992.357 858.5,991.5C 854.874,986.539 850.874,981.872 846.5,977.5C 840.319,985.503 832.985,987.003 824.5,982C 824.833,981.667 825.167,981.333 825.5,981C 822.564,978.886 820.564,976.053 819.5,972.5C 820.128,970.742 821.128,969.242 822.5,968C 826.371,965.703 830.371,963.703 834.5,962C 825.308,954.437 825.974,947.437 836.5,941C 839.284,940.569 841.618,940.736 843.5,941.5 Z"/></g>
<g><path style="opacity:1" fill="#4a3036" d="M 843.5,941.5 C 844.423,944.423 846.423,946.423 849.5,947.5C 852.148,945.342 855.148,944.008 858.5,943.5C 858.685,945.196 859.519,946.529 861,947.5C 862.461,946.117 863.294,946.451 863.5,948.5C 859.126,949.506 854.793,951.506 850.5,954.5C 847.196,952.86 844.529,950.527 842.5,947.5C 843.341,945.621 843.675,943.621 843.5,941.5 Z"/></g>
<g><path style="opacity:1" fill="#d6ce64" d="M 842.5,947.5 C 844.529,950.527 847.196,952.86 850.5,954.5C 854.793,951.506 859.126,949.506 863.5,948.5C 864.452,949.452 865.452,950.452 866.5,951.5C 863.837,953.992 861.004,956.326 858,958.5C 856.594,960.364 856.094,962.197 856.5,964C 860.662,969.336 864.662,974.836 868.5,980.5C 867.055,982.063 865.389,983.396 863.5,984.5C 859.343,980.174 855.343,975.674 851.5,971C 848.833,970.333 846.167,970.333 843.5,971C 840.795,973.351 837.795,975.184 834.5,976.5C 832.559,976.196 830.893,975.363 829.5,974C 832.589,972.023 835.923,970.523 839.5,969.5C 841.291,967.979 842.624,966.146 843.5,964C 841.648,959.477 838.982,955.477 835.5,952C 837.717,950.277 840.05,948.777 842.5,947.5 Z"/></g>
<g><path style="opacity:1" fill="#3c191c" d="M 312.5,961.5 C 312.712,959.616 313.712,958.283 315.5,957.5C 316.524,958.853 317.857,959.52 319.5,959.5C 320.197,961.071 320.53,962.571 320.5,964C 316.338,969.336 312.338,974.836 308.5,980.5C 309.605,981.892 310.939,983.059 312.5,984C 317.305,980.529 321.639,976.195 325.5,971C 328.167,970.333 330.833,970.333 333.5,971C 336.205,973.351 339.205,975.184 342.5,976.5C 343.938,976.281 345.271,975.781 346.5,975C 347.833,974.333 347.833,973.667 346.5,973C 331.612,969.015 329.945,962.015 341.5,952C 339.283,950.277 336.95,948.777 334.5,947.5C 334.068,946.29 333.401,945.29 332.5,944.5C 332.579,943.042 333.079,941.708 334,940.5C 343.029,940.52 348.029,945.187 349,954.5C 347.168,957.361 345.001,959.861 342.5,962C 347.463,963.621 351.963,966.121 356,969.5C 357.683,974.435 356.183,978.269 351.5,981C 351.833,981.333 352.167,981.667 352.5,982C 347.513,984.877 342.513,985.377 337.5,983.5C 335.167,981.5 332.833,979.5 330.5,977.5C 325.992,982.533 321.492,987.533 317,992.5C 314.337,993.451 311.837,992.951 309.5,991C 304.633,988.199 301.3,984.532 299.5,980C 303.72,973.717 308.053,967.55 312.5,961.5 Z"/></g>
<g><path style="opacity:1" fill="#f9fbfd" d="M 326.5,982.5 C 335.224,982.003 337.224,985.169 332.5,992C 329.938,991.651 327.438,990.817 325,989.5C 325.157,987.169 325.657,984.836 326.5,982.5 Z"/></g>
<g><path style="opacity:1" fill="#f9fbfd" d="M 846.5,982.5 C 850.241,982.587 852.241,984.587 852.5,988.5C 850.465,990.195 848.132,991.528 845.5,992.5C 843.805,990.465 842.472,988.132 841.5,985.5C 843.145,984.304 844.811,983.304 846.5,982.5 Z"/></g>
<g><path style="opacity:1" fill="#645d6c" d="M 532.5,990.5 C 532.838,985.814 533.005,981.147 533,976.5C 532.617,977.056 532.117,977.389 531.5,977.5C 531.415,976.005 532.081,975.005 533.5,974.5C 534.622,980.029 534.288,985.362 532.5,990.5 Z"/></g>
<g><path style="opacity:1" fill="#fafcfd" d="M 905.5,978.5 C 906.833,978.5 908.167,978.5 909.5,978.5C 909.785,980.288 909.452,981.955 908.5,983.5C 893.939,999.877 876.106,1011.21 855,1017.5C 852.816,1018.11 850.816,1017.44 849,1015.5C 848.667,1015.83 848.333,1016.17 848,1016.5C 845.778,1013.49 846.278,1010.99 849.5,1009C 854.041,1007.57 858.541,1006.07 863,1004.5C 863.414,1004.96 863.914,1005.29 864.5,1005.5C 879.744,998.724 893.411,989.724 905.5,978.5 Z"/></g>
<g><path style="opacity:1" fill="#645c6a" d="M 645.5,979.5 C 644.732,978.737 644.232,977.737 644,976.5C 644.422,987.956 645.922,999.289 648.5,1010.5C 647.073,1008.85 646.24,1006.85 646,1004.5C 643.79,994.557 642.957,984.557 643.5,974.5C 645.217,975.668 645.884,977.335 645.5,979.5 Z"/></g>
<g><path style="opacity:1" fill="#fafcfd" d="M 268.5,978.5 C 269.93,978.421 271.264,978.754 272.5,979.5C 284.499,990.17 297.832,998.836 312.5,1005.5C 313.086,1005.29 313.586,1004.96 314,1004.5C 318.428,1006.12 322.928,1007.62 327.5,1009C 330.309,1010.59 330.975,1012.75 329.5,1015.5C 326.891,1016.8 324.391,1017.46 322,1017.5C 300.894,1011.21 283.061,999.877 268.5,983.5C 267.334,981.833 267.334,980.166 268.5,978.5 Z"/></g>
<g><path style="opacity:1" fill="#5f5562" d="M 532.5,990.5 C 532.505,996.791 531.505,1002.79 529.5,1008.5C 530.013,1002.29 531.013,996.291 532.5,990.5 Z"/></g>
<g><path style="opacity:1" fill="#462a30" d="M 772.5,1024.5 C 770.726,1025.02 769.059,1025.35 767.5,1025.5C 766.685,1024.57 765.852,1023.57 765,1022.5C 762.059,1023.78 759.393,1025.45 757,1027.5C 756.667,1027.17 756.333,1026.83 756,1026.5C 754.184,1028.44 752.184,1029.11 750,1028.5C 747.934,1022.72 744.934,1017.05 741,1011.5C 737.017,1014.97 732.184,1018.14 726.5,1021C 729.167,1024.67 731.833,1028.33 734.5,1032C 733.833,1033.67 733.167,1035.33 732.5,1037C 728.633,1039.7 724.633,1042.2 720.5,1044.5C 719.417,1045.36 719.251,1046.36 720,1047.5C 720.995,1048.07 721.828,1048.73 722.5,1049.5C 721.114,1051.59 719.447,1051.43 717.5,1049C 718.862,1043.18 717.528,1042.34 713.5,1046.5C 713.247,1044.17 713.914,1042.17 715.5,1040.5C 719.943,1038.64 723.943,1036.14 727.5,1033C 726.47,1030.44 725.303,1027.94 724,1025.5C 723.28,1023.89 723.446,1022.39 724.5,1021C 723.833,1020.33 723.167,1019.67 722.5,1019C 727.375,1012.89 733.375,1008.23 740.5,1005C 742.112,1004.28 743.612,1004.45 745,1005.5C 747.143,1011.47 750.643,1016.47 755.5,1020.5C 759.301,1018.51 763.301,1017.67 767.5,1018C 769.436,1020.04 771.103,1022.21 772.5,1024.5 Z"/></g>
<g><path style="opacity:1" fill="#d6cd65" d="M 445.5,1017.5 C 446.903,1018.93 448.569,1020.1 450.5,1021C 447.833,1024.67 445.167,1028.33 442.5,1032C 443.218,1033.99 444.218,1035.82 445.5,1037.5C 448.997,1040.08 452.664,1042.42 456.5,1044.5C 457.583,1045.36 457.749,1046.36 457,1047.5C 454.651,1050.02 452.151,1052.35 449.5,1054.5C 444.593,1052.38 439.26,1050.88 433.5,1050C 429.825,1052.83 427.158,1056.33 425.5,1060.5C 422.372,1063.4 419.706,1066.73 417.5,1070.5C 414.759,1068.05 411.925,1065.71 409,1063.5C 408.333,1062.17 408.333,1060.83 409,1059.5C 411.781,1053.58 415.281,1048.25 419.5,1043.5C 418.376,1042.09 417.376,1040.59 416.5,1039C 412.522,1037.29 408.855,1035.13 405.5,1032.5C 407.418,1029 409.584,1025.66 412,1022.5C 414.941,1023.78 417.607,1025.45 420,1027.5C 420.333,1027.17 420.667,1026.83 421,1026.5C 422.816,1028.44 424.816,1029.11 427,1028.5C 429.066,1022.72 432.066,1017.05 436,1011.5C 439.896,1013.48 443.062,1015.48 445.5,1017.5 Z"/></g>
<g><path style="opacity:1" fill="#d6cd65" d="M 767.5,1025.5 C 769.008,1028.17 770.174,1030.83 771,1033.5C 767.482,1035.34 763.982,1037.17 760.5,1039C 756.215,1042.61 756.715,1045.45 762,1047.5C 764.265,1052.13 766.431,1056.8 768.5,1061.5C 768.333,1062.17 768.167,1062.83 768,1063.5C 765.407,1065.55 762.907,1067.72 760.5,1070C 759.668,1070.69 759.002,1070.52 758.5,1069.5C 754.105,1062.55 749.105,1056.05 743.5,1050C 737.74,1050.88 732.407,1052.38 727.5,1054.5C 725.159,1053.47 723.493,1051.8 722.5,1049.5C 721.828,1048.73 720.995,1048.07 720,1047.5C 719.251,1046.36 719.417,1045.36 720.5,1044.5C 724.633,1042.2 728.633,1039.7 732.5,1037C 733.167,1035.33 733.833,1033.67 734.5,1032C 731.833,1028.33 729.167,1024.67 726.5,1021C 732.184,1018.14 737.017,1014.97 741,1011.5C 744.934,1017.05 747.934,1022.72 750,1028.5C 752.184,1029.11 754.184,1028.44 756,1026.5C 756.333,1026.83 756.667,1027.17 757,1027.5C 759.393,1025.45 762.059,1023.78 765,1022.5C 765.852,1023.57 766.685,1024.57 767.5,1025.5 Z"/></g>
<g><path style="opacity:1" fill="#3e1d21" d="M 452.5,1017.5 C 450.477,1017.72 448.144,1017.72 445.5,1017.5C 443.062,1015.48 439.896,1013.48 436,1011.5C 432.066,1017.05 429.066,1022.72 427,1028.5C 424.816,1029.11 422.816,1028.44 421,1026.5C 420.667,1026.83 420.333,1027.17 420,1027.5C 417.607,1025.45 414.941,1023.78 412,1022.5C 409.584,1025.66 407.418,1029 405.5,1032.5C 408.855,1035.13 412.522,1037.29 416.5,1039C 417.376,1040.59 418.376,1042.09 419.5,1043.5C 415.281,1048.25 411.781,1053.58 409,1059.5C 408.333,1060.83 408.333,1062.17 409,1063.5C 411.925,1065.71 414.759,1068.05 417.5,1070.5C 419.706,1066.73 422.372,1063.4 425.5,1060.5C 427.735,1061.23 429.069,1062.23 429.5,1063.5C 427.938,1066.43 426.438,1069.43 425,1072.5C 423.89,1074.04 422.39,1074.7 420.5,1074.5C 420.5,1075.5 420.5,1076.5 420.5,1077.5C 418.801,1077.66 417.134,1077.49 415.5,1077C 410.97,1073.46 406.47,1069.96 402,1066.5C 401.333,1064.17 401.333,1061.83 402,1059.5C 404.773,1054.4 407.94,1049.56 411.5,1045C 407.71,1042.62 403.71,1040.62 399.5,1039C 397.362,1037.58 396.195,1035.75 396,1033.5C 401.102,1028.75 405.602,1023.58 409.5,1018C 411.5,1017.33 413.5,1017.33 415.5,1018C 417.974,1020.1 420.641,1020.6 423.5,1019.5C 427.553,1015.29 430.553,1010.46 432.5,1005C 433.833,1004.33 435.167,1004.33 436.5,1005C 442.838,1007.99 448.171,1012.15 452.5,1017.5 Z"/></g>
<g><path style="opacity:1" fill="#645d6b" d="M 528.5,1017.5 C 527.871,1020.4 526.871,1023.06 525.5,1025.5C 525.345,1022.28 526.345,1019.62 528.5,1017.5 Z"/></g>
<g><path style="opacity:1" fill="#3c191c" d="M 772.5,1024.5 C 775.474,1027.72 778.474,1031.05 781.5,1034.5C 780.352,1036.15 779.019,1037.65 777.5,1039C 773.29,1040.62 769.29,1042.62 765.5,1045C 769.06,1049.56 772.227,1054.4 775,1059.5C 775.667,1061.83 775.667,1064.17 775,1066.5C 770.53,1069.96 766.03,1073.46 761.5,1077C 759.866,1077.49 758.199,1077.66 756.5,1077.5C 756.5,1076.5 756.5,1075.5 756.5,1074.5C 754.61,1074.7 753.11,1074.04 752,1072.5C 749.317,1067.13 746.484,1061.47 743.5,1055.5C 737.97,1058.46 732.303,1060.46 726.5,1061.5C 720.431,1058.09 716.098,1053.09 713.5,1046.5C 717.528,1042.34 718.862,1043.18 717.5,1049C 719.447,1051.43 721.114,1051.59 722.5,1049.5C 723.493,1051.8 725.159,1053.47 727.5,1054.5C 732.407,1052.38 737.74,1050.88 743.5,1050C 749.105,1056.05 754.105,1062.55 758.5,1069.5C 759.002,1070.52 759.668,1070.69 760.5,1070C 762.907,1067.72 765.407,1065.55 768,1063.5C 768.167,1062.83 768.333,1062.17 768.5,1061.5C 766.431,1056.8 764.265,1052.13 762,1047.5C 756.715,1045.45 756.215,1042.61 760.5,1039C 763.982,1037.17 767.482,1035.34 771,1033.5C 770.174,1030.83 769.008,1028.17 767.5,1025.5C 769.059,1025.35 770.726,1025.02 772.5,1024.5 Z"/></g>
<g><path style="opacity:1" fill="#f5f8fb" d="M 394.5,1043.5 C 397.09,1043.92 399.423,1044.92 401.5,1046.5C 399.615,1047.2 399.282,1048.2 400.5,1049.5C 400,1050.5 399.5,1051.5 399,1052.5C 393.396,1051.15 391.896,1048.15 394.5,1043.5 Z"/></g>
<g><path style="opacity:1" fill="#f8fafc" d="M 780.5,1043.5 C 785.172,1045.36 785.505,1047.86 781.5,1051C 777.52,1053.35 776.187,1052.35 777.5,1048C 776.692,1047.69 776.025,1047.19 775.5,1046.5C 777.145,1045.3 778.811,1044.3 780.5,1043.5 Z"/></g>
<g><path style="opacity:1" fill="#d6cd65" d="M 608.5,1089.5 C 605.707,1088.46 603.207,1088.46 601,1089.5C 600.211,1100.08 600.377,1110.24 601.5,1120C 592.833,1123.33 584.167,1123.33 575.5,1120C 576.763,1110.07 576.763,1099.9 575.5,1089.5C 567.53,1088.77 559.696,1088.77 552,1089.5C 549.539,1088.78 547.039,1088.12 544.5,1087.5C 543.585,1086.67 542.919,1085.67 542.5,1084.5C 543.5,1081.17 544.5,1077.83 545.5,1074.5C 546.086,1074.29 546.586,1073.96 547,1073.5C 555.314,1073.64 563.814,1073.64 572.5,1073.5C 574.688,1073.69 576.355,1072.86 577.5,1071C 576.185,1069.61 576.519,1068.61 578.5,1068C 578.377,1063.79 578.377,1059.62 578.5,1055.5C 577.894,1053.29 577.227,1051.12 576.5,1049C 577.126,1048.25 577.626,1047.42 578,1046.5C 579.333,1047.83 580.667,1047.83 582,1046.5C 582.667,1047.17 583.333,1047.83 584,1048.5C 587,1047.17 590,1047.17 593,1048.5C 593.667,1047.83 594.333,1047.17 595,1046.5C 596.333,1047.83 597.667,1047.83 599,1046.5C 599.374,1047.42 599.874,1048.25 600.5,1049C 599.773,1051.12 599.106,1053.29 598.5,1055.5C 598.623,1059.62 598.623,1063.79 598.5,1068C 598.834,1070.44 600.334,1072.61 603,1074.5C 604.667,1073.83 606.333,1073.17 608,1072.5C 616.193,1073.52 624.026,1074.18 631.5,1074.5C 632.5,1077.83 633.5,1081.17 634.5,1084.5C 634.081,1085.67 633.415,1086.67 632.5,1087.5C 629.961,1088.12 627.461,1088.78 625,1089.5C 619.032,1089.44 613.532,1089.44 608.5,1089.5 Z"/></g>
<g><path style="opacity:1" fill="#43252a" d="M 445.5,1017.5 C 448.144,1017.72 450.477,1017.72 452.5,1017.5C 455.07,1018.48 455.07,1019.65 452.5,1021C 453.059,1021.72 453.392,1022.56 453.5,1023.5C 452.307,1026.72 450.974,1029.89 449.5,1033C 453.719,1036.2 458.219,1039.03 463,1041.5C 463.132,1049.57 459.799,1055.9 453,1060.5C 451.079,1061.19 449.245,1061.52 447.5,1061.5C 443.116,1059.89 438.949,1057.89 435,1055.5C 432.533,1057.74 430.7,1060.41 429.5,1063.5C 429.069,1062.23 427.735,1061.23 425.5,1060.5C 427.158,1056.33 429.825,1052.83 433.5,1050C 439.26,1050.88 444.593,1052.38 449.5,1054.5C 452.151,1052.35 454.651,1050.02 457,1047.5C 457.749,1046.36 457.583,1045.36 456.5,1044.5C 452.664,1042.42 448.997,1040.08 445.5,1037.5C 444.218,1035.82 443.218,1033.99 442.5,1032C 445.167,1028.33 447.833,1024.67 450.5,1021C 448.569,1020.1 446.903,1018.93 445.5,1017.5 Z"/></g>
<g><path style="opacity:1" fill="#f9fbfd" d="M 438.5,1060.5 C 446.993,1060.78 449.16,1064.45 445,1071.5C 444.309,1069.11 443.309,1069.11 442,1071.5C 440.933,1070.81 439.766,1070.31 438.5,1070C 437.167,1069 437.167,1068 438.5,1067C 437.5,1066.67 436.5,1066.33 435.5,1066C 436.639,1064.22 437.639,1062.39 438.5,1060.5 Z"/></g>
<g><path style="opacity:1" fill="#fcfdfe" d="M 736.5,1060.5 C 737.496,1060.41 738.329,1060.75 739,1061.5C 739.707,1063.08 740.54,1064.58 741.5,1066C 740.5,1066.33 739.5,1066.67 738.5,1067C 739.337,1068.01 739.67,1069.18 739.5,1070.5C 737.856,1070.29 736.356,1070.62 735,1071.5C 733.691,1069.11 732.691,1069.11 732,1071.5C 731.014,1069.22 730.18,1066.89 729.5,1064.5C 731.525,1062.44 733.858,1061.1 736.5,1060.5 Z"/></g>
<g><path style="opacity:1" fill="#fcfdfe" d="M 849.5,1057.5 C 850.756,1057.46 851.756,1057.96 852.5,1059C 837.713,1069.58 822.046,1076.91 805.5,1081C 798.181,1081.95 791.014,1083.45 784,1085.5C 783.667,1085.17 783.333,1084.83 783,1084.5C 781.806,1086.53 780.306,1086.86 778.5,1085.5C 774.493,1086.57 770.66,1087.9 767,1089.5C 766.309,1087.11 765.309,1087.11 764,1089.5C 762.372,1088.9 760.705,1089.24 759,1090.5C 753.841,1090.96 748.841,1090.96 744,1090.5C 740.221,1092.71 736.555,1092.71 733,1090.5C 732.667,1091.17 732.333,1091.83 732,1092.5C 730,1091.17 728,1091.17 726,1092.5C 723.681,1091.18 721.514,1089.68 719.5,1088C 720.101,1086.39 721.101,1085.06 722.5,1084C 724.888,1083.7 727.055,1082.86 729,1081.5C 735.667,1081.5 742.333,1081.5 749,1081.5C 754.151,1080.19 759.151,1079.19 764,1078.5C 765.652,1078.86 767.318,1079.19 769,1079.5C 774.254,1077.85 779.587,1076.51 785,1075.5C 806.942,1074.35 828.442,1068.35 849.5,1057.5 Z"/></g>
<g><path style="opacity:1" fill="#44272d" d="M 624.5,1095.5 C 624.918,1094.78 625.584,1094.28 626.5,1094C 624.972,1092.64 623.305,1091.47 621.5,1090.5C 620.481,1091.69 619.314,1092.69 618,1093.5C 618.333,1092.17 618.667,1090.83 619,1089.5C 616.341,1090.93 613.508,1091.93 610.5,1092.5C 610.984,1091.22 610.317,1090.22 608.5,1089.5C 613.532,1089.44 619.032,1089.44 625,1089.5C 627.461,1088.78 629.961,1088.12 632.5,1087.5C 633.415,1086.67 634.081,1085.67 634.5,1084.5C 633.5,1081.17 632.5,1077.83 631.5,1074.5C 624.026,1074.18 616.193,1073.52 608,1072.5C 606.333,1073.17 604.667,1073.83 603,1074.5C 600.334,1072.61 598.834,1070.44 598.5,1068C 598.623,1063.79 598.623,1059.62 598.5,1055.5C 599.106,1053.29 599.773,1051.12 600.5,1049C 599.874,1048.25 599.374,1047.42 599,1046.5C 597.667,1047.83 596.333,1047.83 595,1046.5C 594.333,1047.17 593.667,1047.83 593,1048.5C 590,1047.17 587,1047.17 584,1048.5C 583.333,1047.83 582.667,1047.17 582,1046.5C 580.667,1047.83 579.333,1047.83 578,1046.5C 577.626,1047.42 577.126,1048.25 576.5,1049C 577.227,1051.12 577.894,1053.29 578.5,1055.5C 578.377,1059.62 578.377,1063.79 578.5,1068C 576.519,1068.61 576.185,1069.61 577.5,1071C 576.355,1072.86 574.688,1073.69 572.5,1073.5C 563.814,1073.64 555.314,1073.64 547,1073.5C 546.586,1073.96 546.086,1074.29 545.5,1074.5C 544.5,1077.83 543.5,1081.17 542.5,1084.5C 542.919,1085.67 543.585,1086.67 544.5,1087.5C 547.039,1088.12 549.539,1088.78 552,1089.5C 559.696,1088.77 567.53,1088.77 575.5,1089.5C 574.644,1092.51 572.811,1093.18 570,1091.5C 568.978,1092.35 568.145,1093.35 567.5,1094.5C 567.957,1095.3 568.624,1095.63 569.5,1095.5C 566.433,1097.39 563.433,1097.39 560.5,1095.5C 559.033,1095.72 557.533,1096.06 556,1096.5C 550.549,1095.01 545.049,1094.17 539.5,1094C 537.671,1093.73 536.171,1092.89 535,1091.5C 534.61,1087.09 535.443,1082.59 537.5,1078C 535.167,1070.36 538.333,1066.53 547,1066.5C 554.384,1066.68 562.05,1066.68 570,1066.5C 569.708,1059.11 569.208,1051.95 568.5,1045C 568.608,1041.61 570.275,1039.44 573.5,1038.5C 583.5,1041.17 593.5,1041.17 603.5,1038.5C 606.725,1039.44 608.392,1041.61 608.5,1045C 607.997,1051.59 607.331,1058.42 606.5,1065.5C 606.709,1066.09 607.043,1066.59 607.5,1067C 615.314,1066.74 622.814,1066.57 630,1066.5C 638.667,1066.53 641.833,1070.36 639.5,1078C 641.557,1082.59 642.39,1087.09 642,1091.5C 639.273,1093.41 636.273,1094.74 633,1095.5C 630.413,1094.3 627.58,1094.3 624.5,1095.5 Z"/></g>
<g><path style="opacity:1" fill="#f9fbfd" d="M 324.5,1058.5 C 327.271,1058.42 329.937,1058.92 332.5,1060C 352.313,1069.11 372.146,1074.28 392,1075.5C 404.36,1078.25 416.36,1080.25 428,1081.5C 434.924,1081.4 441.591,1081.4 448,1081.5C 449.945,1082.86 452.112,1083.7 454.5,1084C 455.899,1085.06 456.899,1086.39 457.5,1088C 455.486,1089.68 453.319,1091.18 451,1092.5C 447,1092.5 443,1092.5 439,1092.5C 437,1091.83 435,1091.17 433,1090.5C 428.159,1090.96 423.159,1090.96 418,1090.5C 416.295,1089.24 414.628,1088.9 413,1089.5C 411.691,1087.11 410.691,1087.11 410,1089.5C 406.34,1087.9 402.507,1086.57 398.5,1085.5C 396.694,1086.86 395.194,1086.53 394,1084.5C 386.68,1083.76 379.18,1082.59 371.5,1081C 356.395,1076.62 341.729,1070.29 327.5,1062C 325.937,1061.24 324.937,1060.07 324.5,1058.5 Z"/></g>
<g><path style="opacity:1" fill="#401f23" d="M 608.5,1089.5 C 610.317,1090.22 610.984,1091.22 610.5,1092.5C 613.508,1091.93 616.341,1090.93 619,1089.5C 618.667,1090.83 618.333,1092.17 618,1093.5C 619.314,1092.69 620.481,1091.69 621.5,1090.5C 623.305,1091.47 624.972,1092.64 626.5,1094C 625.584,1094.28 624.918,1094.78 624.5,1095.5C 621.751,1096.09 619.084,1096.09 616.5,1095.5C 613.507,1097.37 610.34,1097.37 607,1095.5C 606.667,1095.83 606.333,1096.17 606,1096.5C 605.176,1100.74 605.676,1104.91 607.5,1109C 607.507,1110.58 607.174,1112.25 606.5,1114C 608.457,1117.2 609.124,1120.53 608.5,1124C 608.167,1124.83 607.833,1125.67 607.5,1126.5C 604.806,1127.75 602.139,1128.75 599.5,1129.5C 597.585,1129.22 595.919,1129.55 594.5,1130.5C 590.5,1129.17 586.5,1129.17 582.5,1130.5C 581.081,1129.55 579.415,1129.22 577.5,1129.5C 574.861,1128.75 572.194,1127.75 569.5,1126.5C 569.167,1125.67 568.833,1124.83 568.5,1124C 569,1115.75 570,1107.41 571.5,1099C 571.613,1097.3 570.947,1096.13 569.5,1095.5C 568.624,1095.63 567.957,1095.3 567.5,1094.5C 568.145,1093.35 568.978,1092.35 570,1091.5C 572.811,1093.18 574.644,1092.51 575.5,1089.5C 576.763,1099.9 576.763,1110.07 575.5,1120C 584.167,1123.33 592.833,1123.33 601.5,1120C 600.377,1110.24 600.211,1100.08 601,1089.5C 603.207,1088.46 605.707,1088.46 608.5,1089.5 Z"/></g>
<g><path style="opacity:1" fill="#f7fafc" d="M 549.5,1099.5 C 552.765,1099.3 555.431,1100.47 557.5,1103C 555.963,1104.11 555.297,1105.61 555.5,1107.5C 548.528,1108.18 546.528,1105.51 549.5,1099.5 Z"/></g>
<g><path style="opacity:1" fill="#fafcfd" d="M 623.5,1099.5 C 626.745,1099.29 628.745,1100.79 629.5,1104C 627.836,1107.14 625.169,1108.3 621.5,1107.5C 621.703,1105.61 621.037,1104.11 619.5,1103C 620.731,1101.6 622.064,1100.43 623.5,1099.5 Z"/></g>
<g><path style="opacity:1" fill="#f3f7fb" d="M 594.5,1130.5 C 595.919,1129.55 597.585,1129.22 599.5,1129.5C 620.537,1128.76 641.704,1126.76 663,1123.5C 664.404,1123.51 665.57,1124.01 666.5,1125C 662.317,1126.8 657.984,1128.13 653.5,1129C 639.365,1131.42 625.532,1133.92 612,1136.5C 606.603,1136.14 601.269,1136.14 596,1136.5C 593.815,1135.33 591.649,1134.16 589.5,1133C 591.175,1132.01 592.842,1131.18 594.5,1130.5 Z"/></g>
<g><path style="opacity:1" fill="#f3f7fb" d="M 577.5,1129.5 C 579.415,1129.22 581.081,1129.55 582.5,1130.5C 584.386,1131.07 586.053,1132.07 587.5,1133.5C 585.219,1134.28 583.052,1135.28 581,1136.5C 578.658,1135.82 576.324,1136.16 574,1137.5C 571.163,1135.41 568.163,1135.08 565,1136.5C 556.685,1134.6 548.519,1132.94 540.5,1131.5C 531.2,1130.67 521.867,1128.83 512.5,1126C 510.214,1124.53 510.714,1123.7 514,1123.5C 535.047,1126.67 556.214,1128.67 577.5,1129.5 Z"/></g>
<g><path style="opacity:1" fill="#5b4c57" d="M 672.5,1133.5 C 671.4,1134.56 670.066,1135.39 668.5,1136C 664.83,1136.55 661.163,1137.05 657.5,1137.5C 662.352,1135.99 667.352,1134.65 672.5,1133.5 Z"/></g>
<g><path style="opacity:1" fill="#74798b" d="M 528.5,1139.5 C 533.1,1139.28 537.433,1139.95 541.5,1141.5C 536.9,1141.72 532.567,1141.05 528.5,1139.5 Z"/></g>
<g><path style="opacity:1" fill="#676372" d="M 643.5,1140.5 C 639.036,1141.64 634.37,1142.31 629.5,1142.5C 630.263,1141.73 631.263,1141.23 632.5,1141C 636.152,1140.5 639.818,1140.33 643.5,1140.5 Z"/></g>
<g><path style="opacity:0.949" fill="#3a1416" d="M 560.5,1672.5 C 559.504,1672.41 558.671,1672.75 558,1673.5C 558.148,1674.82 557.982,1675.99 557.5,1677C 554.506,1677.41 552.339,1678.91 551,1681.5C 548.683,1682.76 546.349,1684.76 544,1687.5C 543.586,1687.04 543.086,1686.71 542.5,1686.5C 540.856,1689.31 538.69,1691.64 536,1693.5C 535.586,1693.04 535.086,1692.71 534.5,1692.5C 532.975,1695.35 530.809,1696.35 528,1695.5C 524.52,1698.86 520.52,1700.19 516,1699.5C 515.055,1699.91 514.388,1700.57 514,1701.5C 511.675,1701.13 509.509,1699.79 507.5,1697.5C 504.198,1696.67 500.865,1696 497.5,1695.5C 494.872,1696.2 492.205,1695.86 489.5,1694.5C 488.914,1694.71 488.414,1695.04 488,1695.5C 480.338,1693.35 472.505,1690.85 464.5,1688C 459.675,1684.89 454.675,1682.06 449.5,1679.5C 446.156,1675.46 442.823,1671.46 439.5,1667.5C 435.312,1656.58 431.979,1645.41 429.5,1634C 430.022,1633.44 430.355,1632.77 430.5,1632C 427.63,1621.64 427.297,1611.48 429.5,1601.5C 428.923,1596.55 428.59,1591.72 428.5,1587C 429.534,1580.03 430.534,1573.03 431.5,1566C 430.898,1559.47 430.898,1553.14 431.5,1547C 434.502,1532.24 437.835,1516.91 441.5,1501C 440.833,1498.33 440.167,1495.67 439.5,1493C 439.9,1489.2 439.9,1485.2 439.5,1481C 439.059,1477.03 437.559,1473.53 435,1470.5C 432.885,1463.25 431.718,1456.09 431.5,1449C 431.029,1439.53 431.029,1430.2 431.5,1421C 429.004,1414.6 428.337,1408.26 429.5,1402C 428.782,1399.54 428.115,1397.04 427.5,1394.5C 427.593,1377 427.593,1359.5 427.5,1342C 428.167,1338 428.833,1334 429.5,1330C 429.079,1326.16 428.746,1322.33 428.5,1318.5C 429.167,1312.5 429.833,1306.5 430.5,1300.5C 431.263,1285.99 434.596,1271.32 440.5,1256.5C 433.077,1249.36 432.744,1242.03 439.5,1234.5C 446.954,1231.07 453.454,1232.4 459,1238.5C 464.817,1229.48 472.65,1226.98 482.5,1231C 486.314,1233.15 489.481,1235.98 492,1239.5C 501.555,1231.52 511.055,1231.86 520.5,1240.5C 528.903,1234.79 536.07,1236.13 542,1244.5C 555.133,1237.91 562.966,1241.58 565.5,1255.5C 564.384,1257.84 563.05,1260 561.5,1262C 561.791,1264.13 562.457,1266.46 563.5,1269C 563.5,1282.33 563.5,1295.67 563.5,1309C 562.39,1316.65 561.39,1324.32 560.5,1332C 560.713,1339.96 560.713,1348.46 560.5,1357.5C 554.193,1403.82 547.193,1449.98 539.5,1496C 539.666,1502.87 541.333,1509.54 544.5,1516C 544.167,1516.33 543.833,1516.67 543.5,1517C 546.237,1521.53 548.404,1526.36 550,1531.5C 555.62,1549.5 560.12,1567.5 563.5,1585.5C 563.291,1586.09 562.957,1586.59 562.5,1587C 565.396,1597.51 567.396,1608.17 568.5,1619C 569.656,1628.56 569.656,1637.89 568.5,1647C 567.447,1652.22 565.78,1657.22 563.5,1662C 564.481,1664.39 563.815,1666.39 561.5,1668C 561.957,1668.41 562.291,1668.91 562.5,1669.5C 561.388,1670.27 560.721,1671.27 560.5,1672.5 Z M 550.5,1250.5 C 553.373,1249.11 555.039,1250.11 555.5,1253.5C 554.078,1252.08 552.411,1251.08 550.5,1250.5 Z"/></g>
<g><path style="opacity:0.947" fill="#3a1416" d="M 616.5,1672.5 C 616.273,1669.59 614.94,1666.75 612.5,1664C 613.022,1663.44 613.355,1662.77 613.5,1662C 611.22,1657.22 609.553,1652.22 608.5,1647C 607.405,1637.95 607.405,1628.62 608.5,1619C 609.982,1605.94 612.316,1593.27 615.5,1581C 615.167,1580 614.833,1579 614.5,1578C 618.03,1562.02 622.197,1546.52 627,1531.5C 628.596,1526.36 630.763,1521.53 633.5,1517C 633.167,1516.67 632.833,1516.33 632.5,1516C 635.667,1509.54 637.334,1502.87 637.5,1496C 629.807,1449.98 622.807,1403.82 616.5,1357.5C 616.089,1348.6 616.089,1340.1 616.5,1332C 615.6,1324.04 614.6,1316.37 613.5,1309C 613.5,1295.67 613.5,1282.33 613.5,1269C 614.543,1266.46 615.209,1264.13 615.5,1262C 609.453,1254.43 610.786,1247.76 619.5,1242C 625.016,1240.9 630.183,1241.73 635,1244.5C 640.93,1236.13 648.097,1234.79 656.5,1240.5C 665.905,1231.84 675.405,1231.51 685,1239.5C 692.752,1229.35 702.252,1227.02 713.5,1232.5C 715.192,1234.36 716.692,1236.36 718,1238.5C 725.83,1230.56 733.496,1230.56 741,1238.5C 743.516,1245.46 742.016,1251.46 736.5,1256.5C 742.404,1271.32 745.737,1285.99 746.5,1300.5C 747.167,1306.5 747.833,1312.5 748.5,1318.5C 748.254,1322.33 747.921,1326.16 747.5,1330C 748.167,1334 748.833,1338 749.5,1342C 749.407,1359.5 749.407,1377 749.5,1394.5C 748.885,1397.04 748.218,1399.54 747.5,1402C 748.663,1408.26 747.996,1414.6 745.5,1421C 745.971,1430.2 745.971,1439.53 745.5,1449C 745.282,1456.09 744.115,1463.25 742,1470.5C 739.441,1473.53 737.941,1477.03 737.5,1481C 737.1,1485.2 737.1,1489.2 737.5,1493C 736.833,1495.67 736.167,1498.33 735.5,1501C 739.15,1516.86 742.483,1532.19 745.5,1547C 746.102,1553.14 746.102,1559.47 745.5,1566C 746.466,1573.03 747.466,1580.03 748.5,1587C 748.41,1591.72 748.077,1596.55 747.5,1601.5C 749.703,1611.48 749.37,1621.64 746.5,1632C 746.645,1632.77 746.978,1633.44 747.5,1634C 745.021,1645.41 741.688,1656.58 737.5,1667.5C 734.453,1669.92 732.12,1672.92 730.5,1676.5C 725.009,1681.08 719.009,1684.92 712.5,1688C 704.495,1690.85 696.662,1693.35 689,1695.5C 686.658,1694.82 684.324,1695.16 682,1696.5C 681.275,1695.94 680.442,1695.61 679.5,1695.5C 676.135,1696 672.802,1696.67 669.5,1697.5C 667.491,1699.79 665.325,1701.13 663,1701.5C 662.047,1699.41 660.714,1699.07 659,1700.5C 655.17,1699.78 651.836,1698.12 649,1695.5C 646.191,1696.35 644.025,1695.35 642.5,1692.5C 641.914,1692.71 641.414,1693.04 641,1693.5C 638.31,1691.64 636.144,1689.31 634.5,1686.5C 633.914,1686.71 633.414,1687.04 633,1687.5C 629.779,1684.28 626.946,1681.45 624.5,1679C 622.913,1678.14 621.246,1677.47 619.5,1677C 619.018,1675.99 618.852,1674.82 619,1673.5C 618.329,1672.75 617.496,1672.41 616.5,1672.5 Z M 626.5,1250.5 C 624.589,1251.08 622.922,1252.08 621.5,1253.5C 621.961,1250.11 623.627,1249.11 626.5,1250.5 Z"/></g>
<g><path style="opacity:1" fill="#fefefd" d="M 521.5,1251.5 C 520.635,1256.05 522.635,1259.05 527.5,1260.5C 525.444,1261.22 523.277,1261.88 521,1262.5C 506.568,1262.4 492.235,1262.4 478,1262.5C 475.07,1260.84 472.07,1260.51 469,1261.5C 463.652,1259.72 458.485,1257.72 453.5,1255.5C 454.3,1253.39 454.967,1251.23 455.5,1249C 454.629,1246.45 453.295,1244.11 451.5,1242C 448.975,1241.1 446.808,1241.6 445,1243.5C 444.667,1243.17 444.333,1242.83 444,1242.5C 442.383,1245.81 442.55,1249.14 444.5,1252.5C 441.854,1250.6 440.52,1247.94 440.5,1244.5C 442.231,1238.37 445.898,1236.71 451.5,1239.5C 454.142,1243.31 456.975,1246.98 460,1250.5C 460.667,1249.17 461.333,1249.17 462,1250.5C 464.663,1247.26 466.497,1243.59 467.5,1239.5C 471.546,1236.38 475.88,1235.88 480.5,1238C 483.787,1241.51 486.287,1245.01 488,1248.5C 489.062,1249.9 490.395,1250.9 492,1251.5C 494.281,1249.38 496.448,1247.05 498.5,1244.5C 501.578,1242.91 504.744,1241.58 508,1240.5C 510.149,1241.65 511.982,1243.15 513.5,1245C 513.167,1245.33 512.833,1245.67 512.5,1246C 513.167,1247.67 513.833,1249.33 514.5,1251C 517.009,1253.36 519.343,1253.53 521.5,1251.5 Z"/></g>
<g><path style="opacity:1" fill="#fefefd" d="M 722.5,1242.5 C 726.821,1236.97 731.321,1236.64 736,1241.5C 736.495,1243.47 736.662,1245.47 736.5,1247.5C 735.872,1249.66 734.539,1251.33 732.5,1252.5C 734.45,1249.14 734.617,1245.81 733,1242.5C 732.086,1243.65 731.253,1243.49 730.5,1242C 728.833,1241.33 727.167,1241.33 725.5,1242C 723.705,1244.11 722.371,1246.45 721.5,1249C 722.033,1251.23 722.7,1253.39 723.5,1255.5C 718.515,1257.72 713.348,1259.72 708,1261.5C 705.339,1260.65 702.339,1260.99 699,1262.5C 684.765,1262.4 670.432,1262.4 656,1262.5C 653.723,1261.88 651.556,1261.22 649.5,1260.5C 654.365,1259.05 656.365,1256.05 655.5,1251.5C 657.657,1253.53 659.991,1253.36 662.5,1251C 663.167,1249.33 663.833,1247.67 664.5,1246C 664.167,1245.67 663.833,1245.33 663.5,1245C 665.018,1243.15 666.851,1241.65 669,1240.5C 672.256,1241.58 675.422,1242.91 678.5,1244.5C 680.552,1247.05 682.719,1249.38 685,1251.5C 688.341,1250.23 689.841,1248.06 689.5,1245C 692.151,1242.02 695.151,1239.35 698.5,1237C 706.343,1235.52 710.843,1238.69 712,1246.5C 714.135,1251.33 716.801,1251.66 720,1247.5C 721.094,1245.92 721.928,1244.26 722.5,1242.5 Z"/></g>
<g><path style="opacity:1" fill="#654749" d="M 736.5,1247.5 C 736.662,1245.47 736.495,1243.47 736,1241.5C 731.321,1236.64 726.821,1236.97 722.5,1242.5C 721.957,1242.44 721.624,1242.11 721.5,1241.5C 726.432,1235.56 731.599,1235.22 737,1240.5C 737.796,1243.04 737.629,1245.37 736.5,1247.5 Z"/></g>
<g><path style="opacity:0.998" fill="#d7ce66" d="M 453.5,1255.5 C 453.167,1255.5 452.833,1255.5 452.5,1255.5C 452.5,1254.83 452.167,1254.5 451.5,1254.5C 450.298,1255.41 448.964,1255.41 447.5,1254.5C 447.027,1253.09 446.027,1252.43 444.5,1252.5C 442.55,1249.14 442.383,1245.81 444,1242.5C 444.333,1242.83 444.667,1243.17 445,1243.5C 446.808,1241.6 448.975,1241.1 451.5,1242C 453.295,1244.11 454.629,1246.45 455.5,1249C 454.967,1251.23 454.3,1253.39 453.5,1255.5 Z"/></g>
<g><path style="opacity:0.951" fill="#d8cf69" d="M 697.5,1241.5 C 700.545,1241.51 703.545,1241.84 706.5,1242.5C 706.321,1244.95 706.987,1247.12 708.5,1249C 708.026,1250.7 707.859,1252.54 708,1254.5C 706,1255.83 704.333,1257.5 703,1259.5C 701,1259.5 699,1259.5 697,1259.5C 694.663,1257.15 693.163,1254.32 692.5,1251C 694.292,1247.92 695.959,1244.75 697.5,1241.5 Z"/></g>
<g><path style="opacity:0.99" fill="#d8ce68" d="M 732.5,1252.5 C 730.938,1252.73 729.605,1253.4 728.5,1254.5C 727.833,1254.83 727.167,1255.17 726.5,1255.5C 725.833,1254.17 725.167,1254.17 724.5,1255.5C 724.167,1255.5 723.833,1255.5 723.5,1255.5C 722.7,1253.39 722.033,1251.23 721.5,1249C 722.371,1246.45 723.705,1244.11 725.5,1242C 727.167,1241.33 728.833,1241.33 730.5,1242C 731.253,1243.49 732.086,1243.65 733,1242.5C 734.617,1245.81 734.45,1249.14 732.5,1252.5 Z"/></g>
<g><path style="opacity:0.976" fill="#d7ce67" d="M 473.5,1241.5 C 475.527,1241.34 477.527,1241.5 479.5,1242C 481.2,1245.02 482.866,1248.02 484.5,1251C 483.837,1254.32 482.337,1257.15 480,1259.5C 478,1259.5 476,1259.5 474,1259.5C 472.667,1257.5 471,1255.83 469,1254.5C 469.141,1252.54 468.974,1250.7 468.5,1249C 470.013,1247.12 470.679,1244.95 470.5,1242.5C 471.791,1242.74 472.791,1242.4 473.5,1241.5 Z"/></g>
<g><path style="opacity:1" fill="#fefffe" d="M 534.5,1252.5 C 532.661,1251.49 531.328,1249.99 530.5,1248C 528.866,1247.51 527.199,1247.34 525.5,1247.5C 531.078,1243.46 534.078,1245.13 534.5,1252.5 Z"/></g>
<g><path style="opacity:1" fill="#fefffe" d="M 651.5,1247.5 C 649.801,1247.34 648.134,1247.51 646.5,1248C 645.672,1249.99 644.339,1251.49 642.5,1252.5C 642.922,1245.13 645.922,1243.46 651.5,1247.5 Z"/></g>
<g><path style="opacity:0.972" fill="#d8ce68" d="M 502.5,1245.5 C 504.924,1245.19 507.257,1245.53 509.5,1246.5C 510.248,1248.33 511.248,1250 512.5,1251.5C 511.96,1252.75 511.293,1253.91 510.5,1255C 511.517,1256.05 511.684,1257.22 511,1258.5C 504.379,1263.84 499.879,1262.34 497.5,1254C 498.05,1250.39 499.716,1247.55 502.5,1245.5 Z"/></g>
<g><path style="opacity:0.96" fill="#d8cf69" d="M 667.5,1245.5 C 674.539,1244.18 678.539,1247.01 679.5,1254C 677.121,1262.34 672.621,1263.84 666,1258.5C 665.316,1257.22 665.483,1256.05 666.5,1255C 665.707,1253.91 665.04,1252.75 664.5,1251.5C 666.038,1249.76 667.038,1247.76 667.5,1245.5 Z"/></g>
<g><path style="opacity:0.971" fill="#d8ce69" d="M 651.5,1247.5 C 652.833,1248.83 654.167,1250.17 655.5,1251.5C 656.365,1256.05 654.365,1259.05 649.5,1260.5C 649.167,1260.5 648.833,1260.5 648.5,1260.5C 645.802,1258.77 643.802,1256.44 642.5,1253.5C 642.5,1253.17 642.5,1252.83 642.5,1252.5C 644.339,1251.49 645.672,1249.99 646.5,1248C 648.134,1247.51 649.801,1247.34 651.5,1247.5 Z"/></g>
<g><path style="opacity:0.956" fill="#d9cf6c" d="M 525.5,1247.5 C 527.199,1247.34 528.866,1247.51 530.5,1248C 531.328,1249.99 532.661,1251.49 534.5,1252.5C 534.5,1252.83 534.5,1253.17 534.5,1253.5C 533.413,1255.82 531.747,1257.66 529.5,1259C 530.056,1259.38 530.389,1259.88 530.5,1260.5C 529.798,1261.12 528.798,1261.12 527.5,1260.5C 522.635,1259.05 520.635,1256.05 521.5,1251.5C 522.833,1250.17 524.167,1248.83 525.5,1247.5 Z"/></g>
<g><path style="opacity:0.983" fill="#d7ce68" d="M 550.5,1250.5 C 552.411,1251.08 554.078,1252.08 555.5,1253.5C 555.784,1255.41 555.451,1257.08 554.5,1258.5C 553.167,1259.5 551.833,1260.5 550.5,1261.5C 549.128,1260.49 547.795,1259.49 546.5,1258.5C 546.423,1257.25 545.756,1256.42 544.5,1256C 546.373,1255.05 546.706,1253.88 545.5,1252.5C 546.492,1252.67 547.158,1252.34 547.5,1251.5C 548.391,1250.89 549.391,1250.56 550.5,1250.5 Z"/></g>
<g><path style="opacity:0.973" fill="#d8ce69" d="M 626.5,1250.5 C 627.609,1250.56 628.609,1250.89 629.5,1251.5C 629.842,1252.34 630.508,1252.67 631.5,1252.5C 630.294,1253.88 630.627,1255.05 632.5,1256C 631.244,1256.42 630.577,1257.25 630.5,1258.5C 629.205,1259.49 627.872,1260.49 626.5,1261.5C 625.167,1260.5 623.833,1259.5 622.5,1258.5C 621.549,1257.08 621.216,1255.41 621.5,1253.5C 622.922,1252.08 624.589,1251.08 626.5,1250.5 Z"/></g>
<g><path style="opacity:1" fill="#fcfbfb" d="M 545.5,1252.5 C 546.706,1253.88 546.373,1255.05 544.5,1256C 545.756,1256.42 546.423,1257.25 546.5,1258.5C 541.207,1259.45 535.874,1260.11 530.5,1260.5C 530.389,1259.88 530.056,1259.38 529.5,1259C 531.747,1257.66 533.413,1255.82 534.5,1253.5C 536.068,1254.87 537.901,1255.87 540,1256.5C 541.886,1255.07 543.553,1253.4 545,1251.5C 545.399,1251.73 545.565,1252.06 545.5,1252.5 Z"/></g>
<g><path style="opacity:1" fill="#fbfaf9" d="M 642.5,1253.5 C 643.802,1256.44 645.802,1258.77 648.5,1260.5C 647.883,1260.61 647.383,1260.94 647,1261.5C 641.587,1260.18 636.087,1259.18 630.5,1258.5C 630.577,1257.25 631.244,1256.42 632.5,1256C 630.627,1255.05 630.294,1253.88 631.5,1252.5C 631.435,1252.06 631.601,1251.73 632,1251.5C 633.447,1253.4 635.114,1255.07 637,1256.5C 639.099,1255.87 640.932,1254.87 642.5,1253.5 Z"/></g>
<g><path style="opacity:1" fill="#fef4e3" d="M 444.5,1252.5 C 446.027,1252.43 447.027,1253.09 447.5,1254.5C 447.389,1255.12 447.056,1255.62 446.5,1256C 459.956,1264.73 474.123,1268.56 489,1267.5C 490,1268.17 491,1268.83 492,1269.5C 504.028,1268.53 516.362,1268.53 529,1269.5C 531.333,1268.83 533.667,1268.17 536,1267.5C 539.25,1267.37 542.25,1267.7 545,1268.5C 546.242,1267.13 547.742,1266.13 549.5,1265.5C 550.429,1264.31 550.762,1262.98 550.5,1261.5C 551.833,1260.5 553.167,1259.5 554.5,1258.5C 556.075,1262 557.408,1265.67 558.5,1269.5C 558.449,1277.04 558.449,1284.87 558.5,1293C 555.541,1310.71 553.207,1328.04 551.5,1345C 551.665,1346.12 551.998,1347.28 552.5,1348.5C 551.048,1356.24 550.048,1363.9 549.5,1371.5C 548.681,1390.74 546.014,1409.91 541.5,1429C 542.502,1430.77 542.168,1432.43 540.5,1434C 540.5,1437.67 540.5,1441.33 540.5,1445C 539.685,1449.37 538.685,1453.7 537.5,1458C 537.815,1463.77 536.815,1469.44 534.5,1475C 534.555,1478.78 534.889,1482.95 535.5,1487.5C 533.202,1495.67 532.035,1504 532,1512.5C 526.888,1522.24 526.388,1532.41 530.5,1543C 530.167,1543.33 529.833,1543.67 529.5,1544C 531.028,1548.37 531.528,1552.87 531,1557.5C 525.795,1555.55 520.795,1553.21 516,1550.5C 515.586,1550.96 515.086,1551.29 514.5,1551.5C 511.947,1550.2 509.28,1549.2 506.5,1548.5C 489.679,1547.64 473.179,1551.31 457,1559.5C 454.454,1549.75 453.954,1539.91 455.5,1530C 455.076,1525.71 453.742,1521.71 451.5,1518C 452.061,1516.43 451.394,1515.1 449.5,1514C 449.833,1513.67 450.167,1513.33 450.5,1513C 445.487,1510.73 444.321,1507.23 447,1502.5C 447.729,1492.71 446.563,1482.87 443.5,1473C 446.675,1471.42 447.009,1469.59 444.5,1467.5C 445.35,1464.39 444.683,1461.56 442.5,1459C 443.54,1452.82 443.206,1446.66 441.5,1440.5C 441.646,1434.97 441.646,1429.14 441.5,1423C 440.824,1418.6 439.824,1414.27 438.5,1410C 438.784,1404.14 438.784,1398.3 438.5,1392.5C 437.885,1389.96 437.218,1387.46 436.5,1385C 436.025,1355.99 436.025,1325.65 436.5,1294C 437.858,1292.17 438.192,1290.34 437.5,1288.5C 439.452,1277.15 442.119,1265.98 445.5,1255C 444.748,1254.33 444.414,1253.5 444.5,1252.5 Z"/></g>
<g><path style="opacity:1" fill="#fef4e3" d="M 732.5,1252.5 C 732.461,1253.58 732.127,1254.58 731.5,1255.5C 735.098,1266.56 737.765,1277.56 739.5,1288.5C 739.291,1289.09 738.957,1289.59 738.5,1290C 740.015,1302.96 741.015,1315.96 741.5,1329C 740.696,1337.71 740.696,1346.04 741.5,1354C 740.833,1359 740.167,1364 739.5,1369C 740.04,1374.75 740.374,1380.08 740.5,1385C 739.782,1387.46 739.115,1389.96 738.5,1392.5C 738.216,1398.3 738.216,1404.14 738.5,1410C 737.176,1414.27 736.176,1418.6 735.5,1423C 735.354,1429.14 735.354,1434.97 735.5,1440.5C 733.794,1446.66 733.46,1452.82 734.5,1459C 732.317,1461.56 731.65,1464.39 732.5,1467.5C 729.991,1469.59 730.325,1471.42 733.5,1473C 729.605,1484.62 728.939,1496.12 731.5,1507.5C 730.419,1509.75 728.752,1511.59 726.5,1513C 727.061,1514.57 726.394,1515.9 724.5,1517C 725.15,1518.61 724.65,1520.11 723,1521.5C 722.73,1524.22 722.23,1526.89 721.5,1529.5C 722.63,1536.45 722.797,1543.45 722,1550.5C 721.943,1553.85 721.109,1556.85 719.5,1559.5C 711.653,1555.44 703.319,1552.44 694.5,1550.5C 691.193,1550.25 687.693,1549.58 684,1548.5C 679.469,1548.53 674.969,1548.53 670.5,1548.5C 667.72,1549.2 665.053,1550.2 662.5,1551.5C 661.914,1551.29 661.414,1550.96 661,1550.5C 656.205,1553.21 651.205,1555.55 646,1557.5C 645.472,1552.87 645.972,1548.37 647.5,1544C 647.167,1543.67 646.833,1543.33 646.5,1543C 650.612,1532.41 650.112,1522.24 645,1512.5C 644.965,1504 643.798,1495.67 641.5,1487.5C 642.111,1482.95 642.445,1478.78 642.5,1475C 640.185,1469.44 639.185,1463.77 639.5,1458C 638.315,1453.7 637.315,1449.37 636.5,1445C 636.5,1441.33 636.5,1437.67 636.5,1434C 634.832,1432.43 634.498,1430.77 635.5,1429C 630.986,1409.91 628.319,1390.74 627.5,1371.5C 626.952,1363.9 625.952,1356.24 624.5,1348.5C 625.002,1347.28 625.335,1346.12 625.5,1345C 623.793,1328.04 621.459,1310.71 618.5,1293C 618.685,1284.54 618.685,1276.37 618.5,1268.5C 619.363,1266.58 620.029,1264.58 620.5,1262.5C 622.104,1261.71 622.771,1260.38 622.5,1258.5C 623.833,1259.5 625.167,1260.5 626.5,1261.5C 626.238,1262.98 626.571,1264.31 627.5,1265.5C 629.258,1266.13 630.758,1267.13 632,1268.5C 634.75,1267.7 637.75,1267.37 641,1267.5C 642.667,1268.17 644.333,1268.83 646,1269.5C 659.082,1269.13 672.082,1269.13 685,1269.5C 686,1268.83 687,1268.17 688,1267.5C 694.263,1267.2 700.263,1267.2 706,1267.5C 711.359,1265.15 716.859,1262.99 722.5,1261C 725.009,1259.58 727.343,1257.91 729.5,1256C 728.944,1255.62 728.611,1255.12 728.5,1254.5C 729.605,1253.4 730.938,1252.73 732.5,1252.5 Z"/></g>
<g><path style="opacity:0.915" fill="#421d1f" d="M 447.5,1254.5 C 448.964,1255.41 450.298,1255.41 451.5,1254.5C 452.167,1254.5 452.5,1254.83 452.5,1255.5C 452.833,1255.5 453.167,1255.5 453.5,1255.5C 458.485,1257.72 463.652,1259.72 469,1261.5C 472.07,1260.51 475.07,1260.84 478,1262.5C 492.235,1262.4 506.568,1262.4 521,1262.5C 523.277,1261.88 525.444,1261.22 527.5,1260.5C 528.798,1261.12 529.798,1261.12 530.5,1260.5C 535.874,1260.11 541.207,1259.45 546.5,1258.5C 547.795,1259.49 549.128,1260.49 550.5,1261.5C 550.762,1262.98 550.429,1264.31 549.5,1265.5C 547.742,1266.13 546.242,1267.13 545,1268.5C 542.25,1267.7 539.25,1267.37 536,1267.5C 533.667,1268.17 531.333,1268.83 529,1269.5C 516.362,1268.53 504.028,1268.53 492,1269.5C 491,1268.83 490,1268.17 489,1267.5C 474.123,1268.56 459.956,1264.73 446.5,1256C 447.056,1255.62 447.389,1255.12 447.5,1254.5 Z"/></g>
<g><path style="opacity:0.917" fill="#411c1e" d="M 728.5,1254.5 C 728.611,1255.12 728.944,1255.62 729.5,1256C 727.343,1257.91 725.009,1259.58 722.5,1261C 716.859,1262.99 711.359,1265.15 706,1267.5C 700.263,1267.2 694.263,1267.2 688,1267.5C 687,1268.17 686,1268.83 685,1269.5C 672.082,1269.13 659.082,1269.13 646,1269.5C 644.333,1268.83 642.667,1268.17 641,1267.5C 637.75,1267.37 634.75,1267.7 632,1268.5C 630.758,1267.13 629.258,1266.13 627.5,1265.5C 626.571,1264.31 626.238,1262.98 626.5,1261.5C 627.872,1260.49 629.205,1259.49 630.5,1258.5C 636.087,1259.18 641.587,1260.18 647,1261.5C 647.383,1260.94 647.883,1260.61 648.5,1260.5C 648.833,1260.5 649.167,1260.5 649.5,1260.5C 651.556,1261.22 653.723,1261.88 656,1262.5C 670.432,1262.4 684.765,1262.4 699,1262.5C 702.339,1260.99 705.339,1260.65 708,1261.5C 713.348,1259.72 718.515,1257.72 723.5,1255.5C 723.833,1255.5 724.167,1255.5 724.5,1255.5C 725.167,1255.5 725.833,1255.5 726.5,1255.5C 727.167,1255.17 727.833,1254.83 728.5,1254.5 Z"/></g>
<g><path style="opacity:1" fill="#9c847c" d="M 620.5,1262.5 C 620.029,1264.58 619.363,1266.58 618.5,1268.5C 617.957,1268.44 617.624,1268.11 617.5,1267.5C 617.957,1265.4 618.957,1263.74 620.5,1262.5 Z"/></g>
<g><path style="opacity:1" fill="#d6cd64" d="M 444.5,1520.5 C 445.473,1522.25 446.807,1523.75 448.5,1525C 448.167,1525.33 447.833,1525.67 447.5,1526C 448.624,1526.84 449.291,1528.01 449.5,1529.5C 447.256,1539.67 446.922,1550.01 448.5,1560.5C 448.159,1565.23 447.492,1569.9 446.5,1574.5C 448.61,1578.75 449.943,1583.25 450.5,1588C 449.833,1592.67 449.167,1597.33 448.5,1602C 448.734,1608.43 449.234,1615.6 450,1623.5C 450.21,1626.23 451.044,1628.73 452.5,1631C 452.167,1631.33 451.833,1631.67 451.5,1632C 452.624,1634.62 454.29,1636.79 456.5,1638.5C 455.187,1641.25 454.187,1644.08 453.5,1647C 455.146,1648.4 456.813,1648.57 458.5,1647.5C 460.642,1642.72 463.642,1638.55 467.5,1635C 471.9,1631.97 476.4,1629.47 481,1627.5C 483.898,1627.22 486.898,1627.22 490,1627.5C 491.667,1626.83 493.333,1626.17 495,1625.5C 499.908,1625.69 504.908,1625.69 510,1625.5C 510.333,1626.17 510.667,1626.83 511,1627.5C 512.388,1626.45 513.888,1626.28 515.5,1627C 527.381,1632.55 536.381,1641.21 542.5,1653C 544.901,1653.79 547.068,1654.96 549,1656.5C 551.133,1654.91 552.799,1652.91 554,1650.5C 553.655,1655.54 551.988,1660.54 549,1665.5C 540.837,1672.09 532.67,1677.92 524.5,1683C 521.043,1684.74 517.377,1685.74 513.5,1686C 503.801,1686.7 494.134,1686.37 484.5,1685C 475.077,1682.31 465.744,1679.31 456.5,1676C 454.333,1673.83 452.167,1671.67 450,1669.5C 449.504,1667.97 449.67,1666.47 450.5,1665C 446.4,1657.66 444.067,1650.32 443.5,1643C 442.217,1637.07 440.55,1631.07 438.5,1625C 439.284,1611.82 439.284,1598.32 438.5,1584.5C 440.22,1576.48 440.554,1569.31 439.5,1563C 440.295,1548.47 441.961,1534.31 444.5,1520.5 Z"/></g>
<g><path style="opacity:1" fill="#d6cd64" d="M 537.5,1520.5 C 541.516,1532 544.849,1543.16 547.5,1554C 547.095,1558.01 547.762,1562.01 549.5,1566C 548.884,1568.45 549.217,1570.95 550.5,1573.5C 550.291,1574.09 549.957,1574.59 549.5,1575C 550.407,1579.68 551.407,1584.35 552.5,1589C 552.167,1589.33 551.833,1589.67 551.5,1590C 552.5,1594.33 553.5,1598.67 554.5,1603C 554.167,1603.33 553.833,1603.67 553.5,1604C 554.273,1609.93 555.273,1615.93 556.5,1622C 555.48,1628.51 555.48,1634.51 556.5,1640C 555.545,1643.1 554.711,1646.27 554,1649.5C 552.513,1648.75 552.346,1647.91 553.5,1647C 551.5,1646.33 550.167,1645 549.5,1643C 550.716,1641.41 552.049,1639.91 553.5,1638.5C 553.47,1634.3 553.47,1630.14 553.5,1626C 551.875,1625.15 551.542,1624.15 552.5,1623C 550.061,1615.69 547.728,1608.36 545.5,1601C 545.833,1600.67 546.167,1600.33 546.5,1600C 542.187,1591 540.354,1581.17 541,1570.5C 541.638,1569.39 542.138,1568.22 542.5,1567C 541.546,1565.09 540.879,1563.09 540.5,1561C 542.803,1554.57 542.47,1547.9 539.5,1541C 540.214,1539.66 539.88,1538.32 538.5,1537C 538.5,1534.67 538.5,1532.33 538.5,1530C 537.833,1529.67 537.167,1529.33 536.5,1529C 536.544,1526.2 536.877,1523.37 537.5,1520.5 Z"/></g>
<g><path style="opacity:1" fill="#d6cd64" d="M 638.5,1520.5 C 639.525,1521.37 640.192,1522.54 640.5,1524C 639.351,1525.73 639.351,1527.4 640.5,1529C 639.833,1529.33 639.167,1529.67 638.5,1530C 638.5,1532.33 638.5,1534.67 638.5,1537C 637.12,1538.32 636.786,1539.66 637.5,1541C 634.53,1547.9 634.197,1554.57 636.5,1561C 636.121,1563.09 635.454,1565.09 634.5,1567C 637.092,1574.76 636.759,1582.43 633.5,1590C 633.833,1590.33 634.167,1590.67 634.5,1591C 633.044,1593.9 631.711,1596.9 630.5,1600C 630.833,1600.33 631.167,1600.67 631.5,1601C 629.272,1608.36 626.939,1615.69 624.5,1623C 625.458,1624.15 625.125,1625.15 623.5,1626C 623.53,1630.14 623.53,1634.3 623.5,1638.5C 624.951,1639.91 626.284,1641.41 627.5,1643C 626.833,1645 625.5,1646.33 623.5,1647C 624.654,1647.91 624.487,1648.75 623,1649.5C 622.289,1646.27 621.455,1643.1 620.5,1640C 621.52,1634.51 621.52,1628.51 620.5,1622C 621.727,1615.93 622.727,1609.93 623.5,1604C 625.5,1576 630.5,1548.17 638.5,1520.5 Z"/></g>
<g><path style="opacity:1" fill="#d6cd64" d="M 731.5,1520.5 C 733.316,1528.21 734.983,1536.04 736.5,1544C 736.167,1544.33 735.833,1544.67 735.5,1545C 736.167,1551 736.833,1557 737.5,1563C 736.446,1569.31 736.78,1576.48 738.5,1584.5C 737.43,1598.36 737.43,1611.86 738.5,1625C 736.45,1631.07 734.783,1637.07 733.5,1643C 732.933,1650.32 730.6,1657.66 726.5,1665C 727.33,1666.47 727.496,1667.97 727,1669.5C 724.833,1671.67 722.667,1673.83 720.5,1676C 711.256,1679.31 701.923,1682.31 692.5,1685C 682.866,1686.37 673.199,1686.7 663.5,1686C 657.595,1685.37 652.429,1683.2 648,1679.5C 647.667,1679.83 647.333,1680.17 647,1680.5C 641.03,1675.02 634.697,1670.02 628,1665.5C 625.012,1660.54 623.345,1655.54 623,1650.5C 624.201,1652.91 625.867,1654.91 628,1656.5C 630.087,1655.21 632.254,1654.04 634.5,1653C 640.601,1641.23 649.601,1632.56 661.5,1627C 663.112,1626.28 664.612,1626.45 666,1627.5C 666.333,1626.83 666.667,1626.17 667,1625.5C 672.092,1625.69 677.092,1625.69 682,1625.5C 686.788,1625.59 691.455,1626.92 696,1629.5C 706.271,1630.86 713.771,1636.86 718.5,1647.5C 720.187,1648.57 721.854,1648.4 723.5,1647C 723.374,1644.17 722.374,1641.33 720.5,1638.5C 722.71,1636.79 724.376,1634.62 725.5,1632C 725.167,1631.67 724.833,1631.33 724.5,1631C 725.956,1628.73 726.79,1626.23 727,1623.5C 727.226,1619.11 727.726,1614.78 728.5,1610.5C 727.805,1601.79 727.472,1592.46 727.5,1582.5C 728.368,1579.93 729.368,1577.43 730.5,1575C 729.509,1570.26 728.842,1565.43 728.5,1560.5C 730.078,1550.01 729.744,1539.67 727.5,1529.5C 727.641,1526.25 728.975,1523.25 731.5,1520.5 Z"/></g>
<g><path style="opacity:1" fill="#d6cd64" d="M 491.5,1555.5 C 494.478,1556.79 497.478,1556.79 500.5,1555.5C 502.169,1556.89 503.836,1557.22 505.5,1556.5C 512.984,1558.83 520.317,1561.66 527.5,1565C 530.167,1566.33 532.167,1568.33 533.5,1571C 532.953,1571.92 532.287,1572.76 531.5,1573.5C 526.476,1569.74 520.976,1568.08 515,1568.5C 513.559,1567.74 512.059,1567.07 510.5,1566.5C 504.697,1566.65 499.197,1566.65 494,1566.5C 492.333,1567.17 490.667,1567.83 489,1568.5C 478.339,1567.34 468.172,1570.17 458.5,1577C 457.5,1577.67 456.5,1577.67 455.5,1577C 455.499,1573.7 455.666,1570.2 456,1566.5C 456.308,1565.69 456.808,1565.03 457.5,1564.5C 463.547,1562.71 469.547,1560.71 475.5,1558.5C 476.086,1558.71 476.586,1559.04 477,1559.5C 481.814,1557.79 486.648,1556.46 491.5,1555.5 Z"/></g>
<g><path style="opacity:1" fill="#d6cd64" d="M 675.5,1555.5 C 678.836,1556.17 682.003,1556.17 685,1555.5C 695.466,1557.61 705.966,1560.11 716.5,1563C 718.492,1563.57 719.992,1564.74 721,1566.5C 721.334,1570.2 721.501,1573.7 721.5,1577C 720.5,1577.67 719.5,1577.67 718.5,1577C 709.582,1570.84 699.915,1567.67 689.5,1567.5C 687.36,1568.11 685.193,1567.77 683,1566.5C 677.803,1566.65 672.303,1566.65 666.5,1566.5C 661.513,1567.8 656.179,1568.97 650.5,1570C 648.693,1570.93 647.026,1572.09 645.5,1573.5C 644.713,1572.76 644.047,1571.92 643.5,1571C 644.833,1568.33 646.833,1566.33 649.5,1565C 656.535,1561.77 663.702,1558.93 671,1556.5C 672.755,1557.61 674.255,1557.28 675.5,1555.5 Z"/></g>
<g><path style="opacity:1" fill="#5f3d3c" d="M 694.5,1550.5 C 703.319,1552.44 711.653,1555.44 719.5,1559.5C 719.565,1559.94 719.399,1560.27 719,1560.5C 710.843,1556.93 702.677,1553.6 694.5,1550.5 Z"/></g>
<g><path style="opacity:1" fill="#fef4e3" d="M 485.5,1574.5 C 493.573,1575.02 501.906,1575.02 510.5,1574.5C 513.167,1575.12 515.667,1576.12 518,1577.5C 518.333,1577.17 518.667,1576.83 519,1576.5C 522.312,1578.32 525.646,1579.98 529,1581.5C 530.011,1580.66 531.178,1580.33 532.5,1580.5C 532.351,1579.45 532.517,1578.45 533,1577.5C 533.654,1576.3 534.154,1576.3 534.5,1577.5C 534.368,1578.96 534.035,1580.46 533.5,1582C 534.297,1587.54 535.297,1593.04 536.5,1598.5C 536.291,1599.09 535.957,1599.59 535.5,1600C 536.833,1606 538.167,1612 539.5,1618C 539.014,1620.73 539.68,1623.4 541.5,1626C 540.897,1627.83 540.23,1629.66 539.5,1631.5C 536.549,1627.71 532.882,1624.88 528.5,1623C 511.86,1615.47 494.526,1615.14 476.5,1622C 470.894,1624.05 466.06,1627.22 462,1631.5C 459.321,1625.46 457.488,1619.12 456.5,1612.5C 457.165,1610.9 457.499,1609.4 457.5,1608C 455.109,1606.69 455.109,1605.69 457.5,1605C 456.813,1599.2 456.146,1593.36 455.5,1587.5C 456.313,1586.19 457.313,1585.02 458.5,1584C 462.609,1582.2 466.442,1580.03 470,1577.5C 470.333,1577.83 470.667,1578.17 471,1578.5C 473.333,1577.5 475.667,1576.5 478,1575.5C 479.716,1575.41 481.549,1575.74 483.5,1576.5C 484.522,1576.14 485.189,1575.48 485.5,1574.5 Z"/></g>
<g><path style="opacity:1" fill="#fef4e3" d="M 665.5,1574.5 C 674.193,1575.12 682.359,1575.12 690,1574.5C 691.085,1575.29 692.252,1575.96 693.5,1576.5C 695.451,1575.74 697.284,1575.41 699,1575.5C 700,1576.17 701,1576.83 702,1577.5C 703.667,1577.5 705.333,1577.5 707,1577.5C 711.803,1580.24 716.47,1583.24 721,1586.5C 720.895,1592.67 720.395,1598.84 719.5,1605C 721.891,1605.69 721.891,1606.69 719.5,1608C 719.501,1609.4 719.835,1610.9 720.5,1612.5C 719.512,1619.12 717.679,1625.46 715,1631.5C 710.94,1627.22 706.106,1624.05 700.5,1622C 680.099,1614.04 660.766,1615.54 642.5,1626.5C 640.349,1627.91 638.682,1629.74 637.5,1632C 636.833,1632.67 636.167,1632.67 635.5,1632C 638.498,1615.72 641.165,1599.05 643.5,1582C 642.965,1580.46 642.632,1578.96 642.5,1577.5C 642.846,1576.3 643.346,1576.3 644,1577.5C 644.483,1578.45 644.649,1579.45 644.5,1580.5C 645.822,1580.33 646.989,1580.66 648,1581.5C 653.877,1578.28 659.711,1575.94 665.5,1574.5 Z"/></g>
<g><path style="opacity:0.941" fill="#371213" d="M 560.5,1672.5 C 561.833,1673.17 561.833,1673.17 560.5,1672.5 Z"/></g>
<g><path style="opacity:0.929" fill="#371213" d="M 616.5,1672.5 C 615.833,1673.17 615.833,1673.17 616.5,1672.5 Z"/></g>
</svg>
