<?xml version="1.0" encoding="UTF-8"?>
<!DOCTYPE svg PUBLIC "-//W3C//DTD SVG 1.1//EN" "http://www.w3.org/Graphics/SVG/1.1/DTD/svg11.dtd">
<svg xmlns="http://www.w3.org/2000/svg" version="1.1" width="1216px" height="1749px" style="shape-rendering:geometricPrecision; text-rendering:geometricPrecision; image-rendering:optimizeQuality; fill-rule:evenodd; clip-rule:evenodd" xmlns:xlink="http://www.w3.org/1999/xlink">
<g><path style="opacity:0.94" fill="#431e20" d="M 470.5,282.5 C 466.015,285.244 461.348,287.744 456.5,290C 458.634,290.127 460.801,289.961 463,289.5C 467.677,290.292 468.177,291.792 464.5,294C 472.167,295.973 472.167,297.64 464.5,299C 465.574,299.739 466.241,300.739 466.5,302C 465.342,303.261 465.342,304.427 466.5,305.5C 466.412,308.619 465.079,309.619 462.5,308.5C 458.004,297.337 450.004,290.004 438.5,286.5C 430.213,275.947 424.213,264.28 420.5,251.5C 420.74,246.592 421.406,241.592 422.5,236.5C 435.582,232.59 447.082,225.923 457,216.5C 459.852,212.796 462.185,208.796 464,204.5C 467.88,193.308 472.213,182.308 477,171.5C 487.472,158.047 499.972,146.88 514.5,138C 517.706,137.704 520.872,137.204 524,136.5C 526.894,137.697 529.727,139.03 532.5,140.5C 536.479,136.852 540.145,132.852 543.5,128.5C 546.863,125.272 550.53,122.439 554.5,120C 562.501,116.333 570.501,112.666 578.5,109C 583.64,108.595 588.806,107.428 594,105.5C 601.949,105.555 609.782,107.055 617.5,110C 634.651,121.603 652.984,130.936 672.5,138C 684.403,143.953 693.236,152.453 699,163.5C 707.219,173.708 715.719,183.542 724.5,193C 733.154,200.639 742.654,207.139 753,212.5C 752.508,216.483 751.674,220.483 750.5,224.5C 751.297,228.223 752.297,231.89 753.5,235.5C 753.232,242.739 752.732,250.073 752,257.5C 749.945,262.61 747.612,267.61 745,272.5C 740.79,279.068 735.623,283.902 729.5,287C 726.308,288.4 723.142,288.9 720,288.5C 718.414,293.776 716.581,298.943 714.5,304C 714.833,304.333 715.167,304.667 715.5,305C 710.085,307.337 704.752,307.504 699.5,305.5C 699.524,300.773 699.69,296.107 700,291.5C 694.162,288.335 688.995,284.335 684.5,279.5C 681.201,273.639 677.701,267.973 674,262.5C 666.978,258.51 661.312,253.176 657,246.5C 654.841,267.593 645.007,283.76 627.5,295C 625.466,296.205 623.466,296.372 621.5,295.5C 623.569,289.886 626.402,284.553 630,279.5C 631.801,275.309 632.467,270.975 632,266.5C 624.709,274.799 616.542,281.966 607.5,288C 603.548,290.095 599.382,291.595 595,292.5C 592.979,292.327 591.146,291.66 589.5,290.5C 592.42,289.111 594.92,287.111 597,284.5C 603.521,274.125 609.521,263.458 615,252.5C 618.068,242.815 618.235,233.648 615.5,225C 615.833,224.667 616.167,224.333 616.5,224C 613.422,224.128 610.255,223.628 607,222.5C 601.667,222.5 596.333,222.5 591,222.5C 587.71,224.032 584.376,224.365 581,223.5C 576.52,226.415 571.686,227.081 566.5,225.5C 563.835,226.848 561.169,227.181 558.5,226.5C 556.008,228.181 553.508,228.848 551,228.5C 550.044,229.579 549.211,230.745 548.5,232C 549.006,234.044 549.339,236.044 549.5,238C 548.833,239 548.167,240 547.5,241C 548.658,250.831 552.325,259.498 558.5,267C 561.907,268.127 561.574,269.46 557.5,271C 537.554,270.805 524.721,261.638 519,243.5C 512.052,253.784 503.219,261.951 492.5,268C 492.833,268.333 493.167,268.667 493.5,269C 488.963,270.757 484.296,272.09 479.5,273C 476.661,276.338 473.661,279.505 470.5,282.5 Z"/></g>
<g><path style="opacity:1" fill="#bab9b9" d="M 633.5,126.5 C 632.167,126.5 630.833,126.5 629.5,126.5C 625.519,125.979 621.519,125.646 617.5,125.5C 613.354,124.353 609.02,124.186 604.5,125C 599.709,126.235 595.042,127.735 590.5,129.5C 590.312,131.103 590.812,132.437 592,133.5C 600.269,128.546 609.103,126.879 618.5,128.5C 629.331,129.422 639.498,131.756 649,135.5C 662.458,138.48 674.624,144.647 685.5,154C 685.167,154.333 684.833,154.667 684.5,155C 689.981,161.981 695.647,168.815 701.5,175.5C 703.009,177.656 704.009,179.99 704.5,182.5C 709.387,185.386 713.387,189.386 716.5,194.5C 721.833,199.167 727.167,203.833 732.5,208.5C 736.948,212.042 741.948,214.542 747.5,216C 746.611,219.954 745.278,223.787 743.5,227.5C 741.172,230.66 738.339,233.327 735,235.5C 734.506,237.134 734.34,238.801 734.5,240.5C 735.552,240.649 736.552,240.483 737.5,240C 740.016,237.317 742.683,234.817 745.5,232.5C 746.457,239.164 746.29,245.831 745,252.5C 742.874,259.396 739.707,265.729 735.5,271.5C 732.978,273.856 730.312,276.023 727.5,278C 720.167,280.5 712.833,283 705.5,285.5C 695.238,282.353 687.738,276.353 683,267.5C 682.333,266.5 682.333,265.5 683,264.5C 685.565,266.179 688.398,266.846 691.5,266.5C 691.439,264.408 690.439,262.908 688.5,262C 673.496,258.646 662.83,249.98 656.5,236C 658.84,217.843 653.174,201.509 639.5,187C 627.688,177.035 614.688,173.368 600.5,176C 597.424,176.911 595.091,178.744 593.5,181.5C 612.79,175.2 628.957,180.2 642,196.5C 646.978,206.435 650.145,216.935 651.5,228C 650.657,233.489 650.657,239.156 651.5,245C 649.31,259.252 643.477,271.752 634,282.5C 635.226,277.76 636.393,272.927 637.5,268C 636.726,265.595 636.226,263.095 636,260.5C 635.275,259.941 634.442,259.608 633.5,259.5C 627.022,264.922 620.688,270.589 614.5,276.5C 611.528,278.306 608.695,280.306 606,282.5C 605.833,282.167 605.667,281.833 605.5,281.5C 614.082,270.502 620.416,258.335 624.5,245C 624.447,236.085 624.447,227.085 624.5,218C 618.572,203.036 607.905,197.703 592.5,202C 587.704,207.084 584.038,212.917 581.5,219.5C 574.393,208.485 564.726,204.985 552.5,209C 546.64,210.859 542.807,214.693 541,220.5C 540.788,228.061 540.621,235.228 540.5,242C 541.636,247.758 543.47,253.591 546,259.5C 546.972,261.305 548.139,262.972 549.5,264.5C 534.632,261.455 525.799,252.121 523,236.5C 522.832,228.479 522.332,220.479 521.5,212.5C 520.201,213.09 519.368,214.09 519,215.5C 517.695,220.711 517.529,225.878 518.5,231C 516.673,236.488 514.173,241.654 511,246.5C 504.221,253.45 496.721,259.45 488.5,264.5C 488.167,264.333 487.833,264.167 487.5,264C 488.974,261.01 489.974,257.843 490.5,254.5C 488.827,252.914 486.827,252.247 484.5,252.5C 484.66,254.199 484.494,255.866 484,257.5C 482.26,258.716 481.26,260.382 481,262.5C 473.624,269.859 465.124,275.693 455.5,280C 451.563,281.375 447.73,281.875 444,281.5C 440.167,279 437,275.833 434.5,272C 440.514,274.155 446.847,274.822 453.5,274C 455.844,273.163 457.844,271.829 459.5,270C 456.681,268.374 453.681,268.207 450.5,269.5C 433.198,267.064 425.031,257.397 426,240.5C 430.47,248.645 437.304,253.145 446.5,254C 447.88,252.676 448.214,251.343 447.5,250C 441.224,248.194 435.89,244.861 431.5,240C 447.11,233.044 459.61,222.544 469,208.5C 475.186,178.649 491.686,156.482 518.5,142C 523.345,140.759 527.012,142.259 529.5,146.5C 527.683,149.949 526.683,153.616 526.5,157.5C 529.512,156.745 532.178,155.412 534.5,153.5C 534.687,151.436 535.187,149.436 536,147.5C 541.697,140.805 547.697,134.471 554,128.5C 553.148,133.042 551.482,137.375 549,141.5C 547.583,148.493 546.75,155.327 546.5,162C 548.017,166.925 551.017,170.425 555.5,172.5C 551.913,156.91 553.746,141.91 561,127.5C 571.406,116.476 584.406,110.81 600,110.5C 603.175,110.946 606.342,111.446 609.5,112C 617.366,117.027 625.366,121.861 633.5,126.5 Z"/></g>
<g><path style="opacity:0.928" fill="#59393b" d="M 617.5,125.5 C 615.801,125.34 614.134,125.506 612.5,126C 614.502,127.019 616.502,127.852 618.5,128.5C 609.103,126.879 600.269,128.546 592,133.5C 590.812,132.437 590.312,131.103 590.5,129.5C 595.042,127.735 599.709,126.235 604.5,125C 609.02,124.186 613.354,124.353 617.5,125.5 Z"/></g>
<g><path style="opacity:1" fill="#806e6f" d="M 629.5,126.5 C 630.833,126.5 632.167,126.5 633.5,126.5C 634.675,126.281 635.675,126.614 636.5,127.5C 634.019,128.298 631.686,127.965 629.5,126.5 Z"/></g>
<g><path style="opacity:1" fill="#867677" d="M 539.5,189.5 C 542.337,191.402 545.671,192.069 549.5,191.5C 546.038,192.482 542.371,192.815 538.5,192.5C 538.263,191.209 538.596,190.209 539.5,189.5 Z"/></g>
<g><path style="opacity:1" fill="#4e2c2e" d="M 549.5,191.5 C 545.671,192.069 542.337,191.402 539.5,189.5C 554.35,185.284 566.516,189.284 576,201.5C 577.558,203.769 577.724,206.102 576.5,208.5C 570.541,198.02 561.541,192.353 549.5,191.5 Z"/></g>
<g><path style="opacity:1" fill="#8a8a8a" d="M 599.5,205.5 C 606.49,205.98 610.99,209.646 613,216.5C 613.749,217.635 613.583,218.635 612.5,219.5C 606.708,218.671 600.875,218.338 595,218.5C 591.857,219.531 588.691,220.031 585.5,220C 588.38,213.289 593.047,208.455 599.5,205.5 Z"/></g>
<g><path style="opacity:1" fill="#8a8a8a" d="M 562.5,211.5 C 568.397,213.226 573.397,216.393 577.5,221C 567.622,221.398 558.289,222.731 549.5,225C 550.78,217.88 555.114,213.38 562.5,211.5 Z"/></g>
<g><path style="opacity:0.027" fill="#230000" d="M 555.5,260.5 C 554.833,259.167 554.833,259.167 555.5,260.5 Z"/></g>
<g><path style="opacity:0.059" fill="#210000" d="M 555.5,260.5 C 556.833,261.167 556.833,261.167 555.5,260.5 Z"/></g>
<g><path style="opacity:0.946" fill="#858484" d="M 470.5,282.5 C 472.713,290.091 473.713,297.758 473.5,305.5C 471.177,306.672 468.844,306.672 466.5,305.5C 465.342,304.427 465.342,303.261 466.5,302C 466.241,300.739 465.574,299.739 464.5,299C 472.167,297.64 472.167,295.973 464.5,294C 468.177,291.792 467.677,290.292 463,289.5C 460.801,289.961 458.634,290.127 456.5,290C 461.348,287.744 466.015,285.244 470.5,282.5 Z"/></g>
<g><path style="opacity:0.996" fill="#7b7373" d="M 708.5,288.5 C 711.488,288.155 712.821,289.488 712.5,292.5C 711.828,295.512 711.161,298.512 710.5,301.5C 708.401,302.231 706.401,302.231 704.5,301.5C 706.045,300.548 707.712,300.215 709.5,300.5C 709.5,299.167 709.5,297.833 709.5,296.5C 708.127,296.657 706.793,296.49 705.5,296C 707.101,295.727 708.601,295.227 710,294.5C 710.322,292.311 709.822,290.311 708.5,288.5 Z"/></g>
<g><path style="opacity:0.98" fill="#381315" d="M 492.5,370.5 C 494.229,371.117 495.729,372.117 497,373.5C 505.472,386.818 515.305,399.151 526.5,410.5C 532.569,414.62 538.735,418.62 545,422.5C 545.638,423.609 546.138,424.775 546.5,426C 541.62,433.513 535.12,437.013 527,436.5C 523.437,434.395 520.104,432.061 517,429.5C 512.899,432.256 508.399,434.089 503.5,435C 499.664,435.306 495.997,435.472 492.5,435.5C 489.698,434.531 487.698,432.698 486.5,430C 490.497,427.347 492.831,423.68 493.5,419C 487.857,417.503 482.19,415.836 476.5,414C 470.46,410.627 465.793,405.96 462.5,400C 463.792,396.357 466.125,395.523 469.5,397.5C 479.384,396.67 486.717,392.004 491.5,383.5C 491.255,381.203 490.589,378.703 489.5,376C 490.741,374.269 491.741,372.436 492.5,370.5 Z"/></g>
<g><path style="opacity:0.938" fill="#3a1517" d="M 683.5,370.5 C 684.985,372.162 686.318,373.995 687.5,376C 685.919,379.059 685.253,382.059 685.5,385C 685.826,387.484 686.826,389.651 688.5,391.5C 694.606,394.924 701.106,397.258 708,398.5C 709.365,398.156 710.532,397.489 711.5,396.5C 712.5,396.833 713.167,397.5 713.5,398.5C 711.018,404.656 707.018,409.656 701.5,413.5C 695.529,415.656 689.529,417.489 683.5,419C 684.567,423.6 685.734,428.1 687,432.5C 683.067,434.478 678.9,434.978 674.5,434C 669.935,433.052 665.602,430.886 661.5,427.5C 656.424,431.955 650.59,434.955 644,436.5C 638.617,434.978 634.284,431.978 631,427.5C 630.517,426.552 630.351,425.552 630.5,424.5C 633.598,424.587 633.932,424.087 631.5,423C 642.457,416.724 652.291,408.89 661,399.5C 668.233,389.511 675.733,379.844 683.5,370.5 Z"/></g>
<g><path style="opacity:1" fill="#bababa" d="M 681.5,378.5 C 681.612,382.288 681.779,386.288 682,390.5C 686.726,396.65 692.726,399.983 700,400.5C 702.057,401.958 704.223,402.792 706.5,403C 698.968,410.999 689.802,414.499 679,413.5C 678.788,416.332 678.621,418.998 678.5,421.5C 679.482,424.096 680.149,426.762 680.5,429.5C 673.812,428.246 667.312,426.246 661,423.5C 656.439,426.717 651.439,429.05 646,430.5C 642.5,429.666 639.333,428.166 636.5,426C 645.714,421.981 653.547,416.148 660,408.5C 662.848,413.899 667.182,417.566 673,419.5C 673.667,418.5 673.667,417.5 673,416.5C 670.024,412.356 666.857,408.356 663.5,404.5C 665.149,402.35 666.982,400.35 669,398.5C 671.906,402.464 675.572,404.13 680,403.5C 678.373,399.524 675.54,396.357 671.5,394C 675.477,389.201 678.81,384.035 681.5,378.5 Z"/></g>
<g><path style="opacity:1" fill="#bababa" d="M 496.5,382.5 C 499.842,385.992 502.842,389.825 505.5,394C 501.46,396.357 498.627,399.524 497,403.5C 501.428,404.13 505.094,402.464 508,398.5C 510.209,400.373 512.042,402.54 513.5,405C 509.806,408.893 506.473,413.06 503.5,417.5C 504.723,418.614 506.056,418.781 507.5,418C 508.716,416.26 510.382,415.26 512.5,415C 514,412.833 515.5,410.667 517,408.5C 522.773,415.805 529.94,421.305 538.5,425C 534.216,429.547 529.216,430.547 523.5,428C 521.398,425.865 518.898,424.365 516,423.5C 509.445,426.42 502.945,428.42 496.5,429.5C 496.998,426.171 497.998,423.005 499.5,420C 498.726,417.595 498.226,415.095 498,412.5C 497.5,412 497,411.5 496.5,411C 491.47,410.552 486.47,409.886 481.5,409C 477.833,407.896 474.5,406.229 471.5,404C 481.076,403.079 488.91,398.579 495,390.5C 495.822,387.883 496.322,385.216 496.5,382.5 Z"/></g>
</svg>
