<?xml version="1.0" encoding="UTF-8"?>
<!DOCTYPE svg PUBLIC "-//W3C//DTD SVG 1.1//EN" "http://www.w3.org/Graphics/SVG/1.1/DTD/svg11.dtd">
<svg xmlns="http://www.w3.org/2000/svg" version="1.1" width="1216px" height="1749px" style="shape-rendering:geometricPrecision; text-rendering:geometricPrecision; image-rendering:optimizeQuality; fill-rule:evenodd; clip-rule:evenodd" xmlns:xlink="http://www.w3.org/1999/xlink">
<g><path style="opacity:0.894" fill="#3b1316" d="M 500.5,518.5 C 495.385,526.594 488.051,531.594 478.5,533.5C 476.423,533.308 474.423,532.808 472.5,532C 471.978,531.439 471.645,530.772 471.5,530C 472.479,526.099 473.312,522.266 474,518.5C 468.968,521.894 463.468,523.394 457.5,523C 462.832,511.492 467.498,499.658 471.5,487.5C 467.572,474.335 461.739,461.668 454,449.5C 450.642,438.828 450.808,428.328 454.5,418C 454.167,417.667 453.833,417.333 453.5,417C 456.912,408.007 460.745,399.174 465,390.5C 465.314,387.135 465.481,383.969 465.5,381C 464.446,378.618 463.779,376.118 463.5,373.5C 451.308,371.143 443.808,363.81 441,351.5C 438.556,338.288 441.056,325.955 448.5,314.5C 450.167,313.5 451.5,312.167 452.5,310.5C 447.058,295.489 446.058,280.323 449.5,265C 451.191,240.469 458.024,216.969 470,194.5C 492.708,159.344 524.374,137.677 565,129.5C 570.677,129.281 576.51,129.781 582.5,131C 584.615,131.557 586.615,132.391 588.5,133.5C 600.963,128.39 613.13,128.39 625,133.5C 639.943,136.712 653.777,142.879 666.5,152C 696.795,173.669 715.962,202.836 724,239.5C 726.602,251.283 728.435,262.616 729.5,273.5C 729.356,279.404 729.189,285.737 729,292.5C 728.27,299.074 726.77,305.074 724.5,310.5C 738.517,327.029 740.683,344.363 731,362.5C 726.309,368.846 720.309,373.513 713,376.5C 712.5,380 712,383.5 711.5,387C 715.214,397.098 719.214,407.098 723.5,417C 723.167,417.333 722.833,417.667 722.5,418C 726.192,428.328 726.358,438.828 723,449.5C 715.347,461.276 709.514,473.943 705.5,487.5C 709.181,499.19 713.681,510.524 719,521.5C 719.667,522.5 719.667,523.5 719,524.5C 713.425,523.368 708.092,521.368 703,518.5C 703.688,522.266 704.521,526.099 705.5,530C 705.355,530.772 705.022,531.439 704.5,532C 698.955,534.022 693.621,533.522 688.5,530.5C 685.496,528.326 682.663,525.992 680,523.5C 678.487,520.476 676.487,517.809 674,515.5C 674.305,517.443 674.305,519.443 674,521.5C 669.147,524.26 664.147,523.927 659,520.5C 658.667,520.833 658.333,521.167 658,521.5C 656.004,521.004 654.337,520.004 653,518.5C 645.188,511.662 640.021,502.662 637.5,491.5C 634.788,491.263 632.288,491.263 630,491.5C 624.72,484.021 622.22,476.188 622.5,468C 625.988,456.712 628.321,445.212 629.5,433.5C 628.712,429.704 628.046,425.871 627.5,422C 628.196,418.478 630.196,417.645 633.5,419.5C 642.671,416.085 650.671,410.919 657.5,404C 655.888,403.28 654.388,403.446 653,404.5C 652.492,402.096 651.325,401.429 649.5,402.5C 648.417,401.635 648.251,400.635 649,399.5C 666.092,383.647 675.925,364.314 678.5,341.5C 678.389,329.162 678.389,316.662 678.5,304C 677.641,297.555 676.808,291.055 676,284.5C 667.009,277.838 658.009,271.172 649,264.5C 648.439,271.517 650.939,277.017 656.5,281C 655.109,282.65 653.609,283.15 652,282.5C 651.5,283 651,283.5 650.5,284C 637.508,284.995 626.674,280.495 618,270.5C 617.5,271 617,271.5 616.5,272C 617.287,276.061 619.621,278.728 623.5,280C 620.685,282.03 617.852,283.196 615,283.5C 603.861,279.361 595.528,272.028 590,261.5C 590.058,267.701 590.558,273.868 591.5,280C 585.855,280.061 580.855,278.228 576.5,274.5C 567.02,265.23 561.854,254.563 561,242.5C 551.614,258.553 538.947,271.219 523,280.5C 510.595,298.412 502.095,316.912 497.5,336C 497.957,336.414 498.291,336.914 498.5,337.5C 497.199,343.395 496.532,349.228 496.5,355C 497.167,357.667 497.833,360.333 498.5,363C 497.959,368.586 498.959,374.42 501.5,380.5C 501.291,381.086 500.957,381.586 500.5,382C 510.76,395.584 522.76,407.25 536.5,417C 538.871,417.735 541.205,418.568 543.5,419.5C 545.371,418.233 547.204,418.233 549,419.5C 549.161,424.218 548.661,428.885 547.5,433.5C 549.598,446.55 551.931,459.384 554.5,472C 553.861,478.876 551.361,485.376 547,491.5C 544.712,491.263 542.212,491.263 539.5,491.5C 536.979,502.662 531.812,511.662 524,518.5C 518.42,521.033 512.753,522.699 507,523.5C 505.667,522.833 504.333,522.167 503,521.5C 502.695,519.443 502.695,517.443 503,515.5C 501.955,516.373 501.122,517.373 500.5,518.5 Z M 482.5,367.5 C 472.942,367.704 463.942,365.537 455.5,361C 451.816,356.287 449.482,350.954 448.5,345C 447.414,335.506 449.581,326.673 455,318.5C 459.815,318.458 462.815,316.124 464,311.5C 467.175,311.54 470.675,311.873 474.5,312.5C 474.844,319.066 474.844,325.233 474.5,331C 475.167,333.667 475.833,336.333 476.5,339C 476.167,339.333 475.833,339.667 475.5,340C 477.527,349.247 479.86,358.414 482.5,367.5 Z M 713.5,312.5 C 714.153,313.807 714.82,315.14 715.5,316.5C 718.304,317.105 720.971,317.938 723.5,319C 723.167,319.333 722.833,319.667 722.5,320C 729.102,330.4 730.602,341.233 727,352.5C 724.55,356.617 721.716,360.45 718.5,364C 709.961,368.493 701.294,370.66 692.5,370.5C 696.215,363.591 698.215,356.758 698.5,350C 699.626,346.7 700.626,343.366 701.5,340C 701.167,339.667 700.833,339.333 700.5,339C 701.167,336.333 701.833,333.667 702.5,331C 701.826,329.249 701.493,327.583 701.5,326C 702.297,322.255 702.797,318.421 703,314.5C 706.449,312.567 709.949,311.901 713.5,312.5 Z"/></g>
<g><path style="opacity:1" fill="#bc5c62" d="M 665.5,159.5 C 673.133,165.797 680.466,172.464 687.5,179.5C 690.738,184.416 694.404,189.083 698.5,193.5C 707.008,208.128 713.008,224.295 716.5,242C 718.274,249.979 719.941,257.979 721.5,266C 720.953,274.932 720.953,283.932 721.5,293C 719.951,296.689 718.785,300.523 718,304.5C 713.006,305.146 708.172,306.479 703.5,308.5C 702.588,279.531 696.088,252.197 684,226.5C 681.581,222.342 679.081,218.342 676.5,214.5C 674.891,213.102 674.058,211.435 674,209.5C 678.225,211.701 682.725,213.035 687.5,213.5C 691.33,213.491 695.33,213.325 699.5,213C 701.044,212.71 702.377,212.044 703.5,211C 701.608,210.027 699.608,209.36 697.5,209C 689.958,208.257 682.625,207.757 675.5,207.5C 674.198,206.193 672.865,206.193 671.5,207.5C 664,198.835 655.667,191.002 646.5,184C 642.192,181.012 637.525,178.845 632.5,177.5C 620.762,171.99 608.429,170.157 595.5,172C 593.998,172.583 592.665,173.416 591.5,174.5C 594.533,175.338 597.533,175.004 600.5,173.5C 609.539,174.824 618.206,176.491 626.5,178.5C 651.646,189.841 669.813,208.175 681,233.5C 690.534,256.335 695.701,280.168 696.5,305C 696.4,310.98 695.734,317.313 694.5,324C 694.422,326.953 694.755,329.953 695.5,333C 693.947,340.499 691.947,348.165 689.5,356C 686.627,368.966 680.127,380.133 670,389.5C 673.655,382.265 677.155,374.765 680.5,367C 680.167,366.667 679.833,366.333 679.5,366C 681.944,362.853 682.944,359.52 682.5,356C 684.125,355.147 684.458,354.147 683.5,353C 684.167,350.333 684.833,347.667 685.5,345C 685.223,335.505 685.223,326.171 685.5,317C 684.535,305.077 682.868,293.243 680.5,281.5C 680.435,278.572 679.768,275.905 678.5,273.5C 677.418,268.005 675.251,263.005 672,258.5C 671.517,262.532 672.35,266.199 674.5,269.5C 674.657,270.873 674.49,272.207 674,273.5C 667.51,269.173 660.677,265.506 653.5,262.5C 651.12,259.119 648.12,256.453 644.5,254.5C 642.718,251.245 640.718,248.245 638.5,245.5C 638.414,244.504 638.748,243.671 639.5,243C 637.838,235.654 637.005,228.154 637,220.5C 636.586,220.043 636.086,219.709 635.5,219.5C 634.465,226.375 633.465,233.208 632.5,240C 633.862,241.651 634.529,243.151 634.5,244.5C 635.925,251.187 639.258,256.687 644.5,261C 643.346,266.386 644.013,271.886 646.5,277.5C 643.841,278.185 641.175,277.851 638.5,276.5C 637.914,276.709 637.414,277.043 637,277.5C 628.671,273.259 621.171,267.926 614.5,261.5C 613.201,262.09 612.368,263.09 612,264.5C 611.825,267.95 611.658,271.283 611.5,274.5C 607.901,272.405 604.734,269.738 602,266.5C 597.946,261.291 593.779,256.291 589.5,251.5C 588.292,250.218 586.958,250.218 585.5,251.5C 584.894,253.709 584.227,255.876 583.5,258C 584.656,260.44 584.656,262.94 583.5,265.5C 583.929,268.029 584.596,270.362 585.5,272.5C 585.5,273.167 585.5,273.833 585.5,274.5C 571.482,263.389 564.815,249.056 565.5,231.5C 566.274,227.065 566.607,222.732 566.5,218.5C 567.301,216.958 567.634,215.292 567.5,213.5C 569.206,204.757 568.206,204.424 564.5,212.5C 563.85,214.435 563.517,216.435 563.5,218.5C 561.585,223.529 560.585,228.863 560.5,234.5C 556.084,243.661 550.417,251.994 543.5,259.5C 539.542,262.285 535.709,265.285 532,268.5C 532.418,265.479 533.585,262.645 535.5,260C 535.167,259.667 534.833,259.333 534.5,259C 536.022,254.802 537.022,250.469 537.5,246C 536.95,244.155 535.95,242.655 534.5,241.5C 533.334,247.163 532.167,252.83 531,258.5C 528.807,262.886 526.64,267.22 524.5,271.5C 524.167,271.5 523.833,271.5 523.5,271.5C 520.779,274.894 518.446,278.561 516.5,282.5C 497.017,306.414 488.684,333.247 491.5,363C 491,363.5 490.5,364 490,364.5C 489.235,361.804 488.068,359.304 486.5,357C 486.833,356.667 487.167,356.333 487.5,356C 485.053,348.165 483.053,340.499 481.5,333C 482.467,326.532 482.133,319.865 480.5,313C 480.328,283.476 486.495,254.976 499,227.5C 504.33,218.365 510.164,209.699 516.5,201.5C 519.216,200.117 521.216,198.117 522.5,195.5C 528.326,191.189 534.326,187.022 540.5,183C 543.446,182.194 546.112,180.861 548.5,179C 550.134,178.506 551.801,178.34 553.5,178.5C 554.833,178.167 556.167,177.833 557.5,177.5C 564.123,176.62 570.789,176.287 577.5,176.5C 578.568,177.434 579.901,177.768 581.5,177.5C 581.512,174.858 580.179,173.525 577.5,173.5C 576.833,173.5 576.167,173.5 575.5,173.5C 567.383,171.909 559.383,172.576 551.5,175.5C 543.939,176.856 536.939,179.689 530.5,184C 504.867,203.501 488.533,228.501 481.5,259C 479.936,263.086 478.603,267.252 477.5,271.5C 475.687,283.356 474.52,295.356 474,307.5C 473.617,306.944 473.117,306.611 472.5,306.5C 470.843,305.425 469.009,304.758 467,304.5C 464.521,304.849 462.021,305.016 459.5,305C 458.321,300.952 456.988,296.952 455.5,293C 456.047,283.932 456.047,274.932 455.5,266C 457.7,250.253 461.366,235.253 466.5,221C 466.167,220.667 465.833,220.333 465.5,220C 479.051,186.421 502.718,161.421 536.5,145C 545.304,141.901 554.471,138.735 564,135.5C 564.333,135.833 564.667,136.167 565,136.5C 572.83,133.798 580.497,134.464 588,138.5C 593.105,136.478 598.105,135.145 603,134.5C 625.706,138.016 646.539,146.349 665.5,159.5 Z"/></g>
<g><path style="opacity:1" fill="#562226" d="M 594.5,156.5 C 595.376,156.369 596.043,156.702 596.5,157.5C 593.053,161.871 588.887,164.538 584,165.5C 583.837,163.613 584.671,162.113 586.5,161C 589.099,159.205 591.766,157.705 594.5,156.5 Z"/></g>
<g><path style="opacity:1" fill="#562226" d="M 575.5,173.5 C 569.102,173.243 562.769,173.743 556.5,175C 556.167,175.333 555.833,175.667 555.5,176C 556.416,176.278 557.082,176.778 557.5,177.5C 556.167,177.833 554.833,178.167 553.5,178.5C 553.611,177.883 553.944,177.383 554.5,177C 553.263,176.768 552.263,176.268 551.5,175.5C 559.383,172.576 567.383,171.909 575.5,173.5 Z"/></g>
<g><path style="opacity:0.834" fill="#4d1d21" d="M 632.5,177.5 C 630.181,176.833 627.847,176.666 625.5,177C 626.056,177.383 626.389,177.883 626.5,178.5C 618.206,176.491 609.539,174.824 600.5,173.5C 597.533,175.004 594.533,175.338 591.5,174.5C 592.665,173.416 593.998,172.583 595.5,172C 608.429,170.157 620.762,171.99 632.5,177.5 Z"/></g>
<g><path style="opacity:0.827" fill="#3f1618" d="M 575.5,173.5 C 576.167,173.5 576.833,173.5 577.5,173.5C 578.058,174.79 579.058,175.623 580.5,176C 579.552,176.483 578.552,176.649 577.5,176.5C 570.789,176.287 564.123,176.62 557.5,177.5C 557.082,176.778 556.416,176.278 555.5,176C 555.833,175.667 556.167,175.333 556.5,175C 562.769,173.743 569.102,173.243 575.5,173.5 Z"/></g>
<g><path style="opacity:1" fill="#6e3034" d="M 577.5,173.5 C 580.179,173.525 581.512,174.858 581.5,177.5C 579.901,177.768 578.568,177.434 577.5,176.5C 578.552,176.649 579.552,176.483 580.5,176C 579.058,175.623 578.058,174.79 577.5,173.5 Z"/></g>
<g><path style="opacity:1" fill="#532024" d="M 665.5,159.5 C 666.552,159.351 667.552,159.517 668.5,160C 675.756,165.754 682.089,172.254 687.5,179.5C 680.466,172.464 673.133,165.797 665.5,159.5 Z"/></g>
<g><path style="opacity:1" fill="#642a2e" d="M 522.5,195.5 C 521.216,198.117 519.216,200.117 516.5,201.5C 518.126,199.037 519.959,196.703 522,194.5C 522.399,194.728 522.565,195.062 522.5,195.5 Z"/></g>
<g><path style="opacity:0.826" fill="#471a1d" d="M 501.5,205.5 C 492.86,215.633 483.027,224.633 472,232.5C 471.626,231.584 471.126,230.75 470.5,230C 478.773,220.888 487.773,212.721 497.5,205.5C 499.371,205.141 500.871,204.141 502,202.5C 502.47,203.577 502.303,204.577 501.5,205.5 Z"/></g>
<g><path style="opacity:1" fill="#60282b" d="M 501.5,205.5 C 502.303,204.577 502.47,203.577 502,202.5C 500.871,204.141 499.371,205.141 497.5,205.5C 500.498,202.333 503.331,199 506,195.5C 506.833,196.333 507.667,197.167 508.5,198C 506.617,201.046 504.284,203.546 501.5,205.5 Z"/></g>
<g><path style="opacity:0.843" fill="#46191c" d="M 675.5,207.5 C 682.625,207.757 689.958,208.257 697.5,209C 699.608,209.36 701.608,210.027 703.5,211C 702.377,212.044 701.044,212.71 699.5,213C 695.33,213.325 691.33,213.491 687.5,213.5C 682.725,213.035 678.225,211.701 674,209.5C 674.058,211.435 674.891,213.102 676.5,214.5C 673.224,213.878 671.891,211.878 672.5,208.5C 673.791,208.737 674.791,208.404 675.5,207.5 Z"/></g>
<g><path style="opacity:1" fill="#773539" d="M 567.5,213.5 C 567.649,212.448 567.483,211.448 567,210.5C 566.292,211.381 565.458,212.047 564.5,212.5C 568.206,204.424 569.206,204.757 567.5,213.5 Z"/></g>
<g><path style="opacity:1" fill="#6c2f33" d="M 563.5,218.5 C 563.044,224.061 562.044,229.394 560.5,234.5C 560.585,228.863 561.585,223.529 563.5,218.5 Z"/></g>
<g><path style="opacity:1" fill="#672c30" d="M 566.5,218.5 C 566.607,222.732 566.274,227.065 565.5,231.5C 564.839,229.866 564.506,228.033 564.5,226C 564.3,223.134 564.967,220.634 566.5,218.5 Z"/></g>
<g><path style="opacity:1" fill="#692d31" d="M 638.5,245.5 C 636.894,237.732 636.061,229.732 636,221.5C 634.84,229.356 634.34,237.022 634.5,244.5C 634.529,243.151 633.862,241.651 632.5,240C 633.465,233.208 634.465,226.375 635.5,219.5C 636.086,219.709 636.586,220.043 637,220.5C 637.005,228.154 637.838,235.654 639.5,243C 638.748,243.671 638.414,244.504 638.5,245.5 Z"/></g>
<g><path style="opacity:1" fill="#60272b" d="M 589.5,251.5 C 587.876,251.36 586.71,252.027 586,253.5C 585.003,259.904 584.836,266.237 585.5,272.5C 584.596,270.362 583.929,268.029 583.5,265.5C 584.656,262.94 584.656,260.44 583.5,258C 584.227,255.876 584.894,253.709 585.5,251.5C 586.958,250.218 588.292,250.218 589.5,251.5 Z"/></g>
<g><path style="opacity:1" fill="#60272b" d="M 644.5,254.5 C 648.12,256.453 651.12,259.119 653.5,262.5C 649.854,260.518 646.854,257.851 644.5,254.5 Z"/></g>
<g><path style="opacity:0.801" fill="#45191c" d="M 472.5,265.5 C 473.376,265.369 474.043,265.702 474.5,266.5C 471.904,270.101 470.237,274.101 469.5,278.5C 469.107,280.284 468.441,281.95 467.5,283.5C 466.167,284.167 464.833,284.833 463.5,285.5C 465.367,278.196 468.367,271.529 472.5,265.5 Z"/></g>
<g><path style="opacity:1" fill="#62292d" d="M 543.5,259.5 C 540.326,264.341 535.992,267.674 530.5,269.5C 531.694,264.767 533.194,260.101 535,255.5C 535.667,251.5 535.667,247.5 535,243.5C 534.578,254.199 531.244,263.866 525,272.5C 524.601,272.272 524.435,271.938 524.5,271.5C 526.64,267.22 528.807,262.886 531,258.5C 532.167,252.83 533.334,247.163 534.5,241.5C 535.95,242.655 536.95,244.155 537.5,246C 537.022,250.469 536.022,254.802 534.5,259C 534.833,259.333 535.167,259.667 535.5,260C 533.585,262.645 532.418,265.479 532,268.5C 535.709,265.285 539.542,262.285 543.5,259.5 Z"/></g>
<g><path style="opacity:1" fill="#6a2d31" d="M 678.5,273.5 C 677.065,271.402 675.898,269.069 675,266.5C 674.517,267.448 674.351,268.448 674.5,269.5C 672.35,266.199 671.517,262.532 672,258.5C 675.251,263.005 677.418,268.005 678.5,273.5 Z"/></g>
<g><path style="opacity:1" fill="#642a2e" d="M 469.5,278.5 C 470.237,274.101 471.904,270.101 474.5,266.5C 474.043,265.702 473.376,265.369 472.5,265.5C 473.048,263.468 474.381,262.468 476.5,262.5C 474.929,268.23 472.596,273.563 469.5,278.5 Z"/></g>
<g><path style="opacity:0.833" fill="#5b2529" d="M 701.5,273.5 C 705.178,273.087 708.844,273.921 712.5,276C 710.728,277.487 708.728,277.82 706.5,277C 704.804,275.824 703.138,274.657 701.5,273.5 Z"/></g>
<g><path style="opacity:1" fill="#672c30" d="M 678.5,273.5 C 679.768,275.905 680.435,278.572 680.5,281.5C 678.96,279.162 678.294,276.495 678.5,273.5 Z"/></g>
<g><path style="opacity:1" fill="#5b2529" d="M 523.5,271.5 C 522.385,275.947 520.052,279.613 516.5,282.5C 518.446,278.561 520.779,274.894 523.5,271.5 Z"/></g>
<g><path style="opacity:1" fill="#7c383c" d="M 467.5,283.5 C 466.597,285.636 465.431,287.636 464,289.5C 463.51,288.207 463.343,286.873 463.5,285.5C 464.833,284.833 466.167,284.167 467.5,283.5 Z"/></g>
<g><path style="opacity:1" fill="#512023" d="M 477.5,271.5 C 478.147,272.274 478.48,273.274 478.5,274.5C 476.728,285.767 475.728,297.1 475.5,308.5C 473.821,308.715 472.821,308.048 472.5,306.5C 473.117,306.611 473.617,306.944 474,307.5C 474.52,295.356 475.687,283.356 477.5,271.5 Z"/></g>
<g><path style="opacity:1" fill="#bc5c62" d="M 483.5,432.5 C 483.393,434.379 483.893,434.712 485,433.5C 485.5,432 486,430.5 486.5,429C 486.43,428.235 486.097,427.735 485.5,427.5C 485.851,422.728 486.351,418.061 487,413.5C 487.711,423.767 489.711,433.767 493,443.5C 501.723,456.334 506.89,470.501 508.5,486C 504.543,500.17 496.876,512.504 485.5,523C 482.611,524.753 479.944,526.42 477.5,528C 479.248,523.706 479.915,519.206 479.5,514.5C 479.5,513.5 479.5,512.5 479.5,511.5C 478.127,511.343 476.793,511.51 475.5,512C 472.947,514.425 470.28,516.592 467.5,518.5C 466.153,519.028 464.819,519.195 463.5,519C 474.859,501.635 479.192,483.135 476.5,463.5C 476.58,458.393 474.913,454.06 471.5,450.5C 471.167,451 470.833,451.5 470.5,452C 472.025,455.673 473.025,459.506 473.5,463.5C 473.657,464.873 473.49,466.207 473,467.5C 469.522,461.421 465.855,455.421 462,449.5C 459.785,443.473 458.285,437.307 457.5,431C 459.071,427.527 459.404,424.361 458.5,421.5C 461.435,410.966 464.935,400.633 469,390.5C 469.968,385.64 469.468,380.974 467.5,376.5C 470.913,376.101 474.413,376.768 478,378.5C 481.761,377.984 485.094,377.651 488,377.5C 487.943,383.615 487.276,389.948 486,396.5C 483.004,405.315 480.838,414.315 479.5,423.5C 480.074,426.177 480.741,428.843 481.5,431.5C 482.183,431.863 482.85,432.196 483.5,432.5 Z"/></g>
<g><path style="opacity:1" fill="#bc5c62" d="M 703.5,465.5 C 704.08,461.858 704.58,458.191 705,454.5C 705.465,453.069 706.299,451.903 707.5,451C 705.633,450.289 704.133,450.789 703,452.5C 700.908,459.67 699.741,467.003 699.5,474.5C 699.947,489.853 704.28,504.186 712.5,517.5C 713.463,518.363 713.463,519.03 712.5,519.5C 708.636,517.406 704.969,515.072 701.5,512.5C 700.432,511.566 699.099,511.232 697.5,511.5C 697.561,516.878 697.728,522.212 698,527.5C 683.176,516.759 673.343,502.926 668.5,486C 669.502,478.007 671.335,470.173 674,462.5C 677.79,455.255 681.29,447.922 684.5,440.5C 687.653,431.905 689.486,422.905 690,413.5C 690.186,416.036 690.686,418.369 691.5,420.5C 690.995,424.4 690.995,428.4 691.5,432.5C 692.93,432.579 694.264,432.246 695.5,431.5C 696.663,425.863 696.83,420.196 696,414.5C 692.855,404.085 690.355,393.585 688.5,383C 688.983,379.538 690.15,379.038 692,381.5C 693.832,380.142 695.665,379.808 697.5,380.5C 699.962,378.934 702.462,378.601 705,379.5C 705.965,377.74 707.132,377.406 708.5,378.5C 707.394,382.777 707.228,387.11 708,391.5C 710.137,397.579 712.471,403.579 715,409.5C 717.229,417.145 718.729,424.312 719.5,431C 718.715,437.307 717.215,443.473 715,449.5C 711.142,455.448 707.475,461.448 704,467.5C 703.536,466.906 703.369,466.239 703.5,465.5 Z"/></g>
<g><path style="opacity:1" fill="#bc5c62" d="M 490.5,382.5 C 493.116,385.455 495.782,388.455 498.5,391.5C 504.77,394.798 509.103,399.298 511.5,405C 515.5,409 519.5,413 523.5,417C 530.602,420.203 536.935,424.37 542.5,429.5C 541.374,435.782 541.207,442.115 542,448.5C 545.542,458.332 546.209,468.332 544,478.5C 543.728,475.568 542.562,473.068 540.5,471C 538.559,470.257 536.726,470.424 535,471.5C 535.227,488.497 529.393,502.997 517.5,515C 515.26,515.977 512.927,516.477 510.5,516.5C 511.228,512.69 511.895,508.857 512.5,505C 511.262,501.736 511.929,498.736 514.5,496C 514.167,495.667 513.833,495.333 513.5,495C 514.128,492.2 515.128,489.533 516.5,487C 515.558,479.081 514.058,471.248 512,463.5C 505.794,453.087 500.128,442.421 495,431.5C 493.082,422.567 490.915,413.734 488.5,405C 489.619,401.239 490.286,397.406 490.5,393.5C 491.414,389.697 491.414,386.031 490.5,382.5 Z"/></g>
<g><path style="opacity:1" fill="#bc5c62" d="M 686.5,382.5 C 685.502,386.328 685.502,389.994 686.5,393.5C 686.782,397.574 687.448,401.574 688.5,405.5C 686.777,407.78 686.111,410.447 686.5,413.5C 684.994,418.029 683.661,422.696 682.5,427.5C 682.5,427.833 682.5,428.167 682.5,428.5C 679.767,437.966 675.434,446.632 669.5,454.5C 662.33,467.913 659.997,481.747 662.5,496C 665.071,498.736 665.738,501.736 664.5,505C 665.618,509.05 666.285,512.883 666.5,516.5C 664.073,516.477 661.74,515.977 659.5,515C 647.678,503.382 642.012,489.215 642.5,472.5C 641.241,469.077 639.241,468.577 636.5,471C 635.748,471.671 635.414,472.504 635.5,473.5C 633.933,474.681 633.099,476.347 633,478.5C 630.791,468.332 631.458,458.332 635,448.5C 635.793,442.115 635.626,435.782 634.5,429.5C 639.105,425.093 644.438,421.593 650.5,419C 652.659,417.941 654.326,416.441 655.5,414.5C 660.278,411.115 663.611,407.115 665.5,402.5C 668.156,400.402 670.489,397.902 672.5,395C 677.957,391.71 682.623,387.543 686.5,382.5 Z"/></g>
<g><path style="opacity:1" fill="#723236" d="M 490.5,382.5 C 491.414,386.031 491.414,389.697 490.5,393.5C 489.881,389.644 489.881,385.977 490.5,382.5 Z"/></g>
<g><path style="opacity:1" fill="#733237" d="M 686.5,393.5 C 685.502,389.994 685.502,386.328 686.5,382.5C 687.312,385.413 687.312,389.08 686.5,393.5 Z"/></g>
<g><path style="opacity:1" fill="#723236" d="M 688.5,405.5 C 688.198,408.373 687.531,411.039 686.5,413.5C 686.111,410.447 686.777,407.78 688.5,405.5 Z"/></g>
<g><path style="opacity:1" fill="#5b2528" d="M 665.5,402.5 C 663.611,407.115 660.278,411.115 655.5,414.5C 658.505,410.168 661.838,406.168 665.5,402.5 Z"/></g>
<g><path style="opacity:1" fill="#5f272b" d="M 686.5,413.5 C 686.513,418.768 685.18,423.435 682.5,427.5C 683.661,422.696 684.994,418.029 686.5,413.5 Z"/></g>
<g><path style="opacity:1" fill="#662b2f" d="M 485.5,427.5 C 486.097,427.735 486.43,428.235 486.5,429C 486,430.5 485.5,432 485,433.5C 483.893,434.712 483.393,434.379 483.5,432.5C 484.537,431.07 485.204,429.403 485.5,427.5 Z"/></g>
<g><path style="opacity:1" fill="#5f272b" d="M 691.5,420.5 C 690.686,418.369 690.186,416.036 690,413.5C 689.486,422.905 687.653,431.905 684.5,440.5C 686.739,431.304 688.072,421.971 688.5,412.5C 689.5,412.5 690.5,412.5 691.5,412.5C 691.5,415.167 691.5,417.833 691.5,420.5 Z"/></g>
<g><path style="opacity:1" fill="#592428" d="M 682.5,428.5 C 683.598,429.601 683.765,430.934 683,432.5C 680.128,439.91 676.461,446.91 672,453.5C 671.329,454.252 670.496,454.586 669.5,454.5C 675.434,446.632 679.767,437.966 682.5,428.5 Z"/></g>
<g><path style="opacity:1" fill="#6d2f33" d="M 476.5,463.5 C 475.531,461.337 474.698,459.004 474,456.5C 473.874,459.063 473.707,461.396 473.5,463.5C 473.025,459.506 472.025,455.673 470.5,452C 470.833,451.5 471.167,451 471.5,450.5C 474.913,454.06 476.58,458.393 476.5,463.5 Z"/></g>
<g><path style="opacity:1" fill="#753338" d="M 703.5,465.5 C 703.053,462.686 702.886,459.686 703,456.5C 702.102,462.68 700.936,468.68 699.5,474.5C 699.741,467.003 700.908,459.67 703,452.5C 704.133,450.789 705.633,450.289 707.5,451C 706.299,451.903 705.465,453.069 705,454.5C 704.58,458.191 704.08,461.858 703.5,465.5 Z"/></g>
<g><path style="opacity:1" fill="#692d31" d="M 642.5,472.5 C 639.868,470.937 637.535,471.27 635.5,473.5C 635.414,472.504 635.748,471.671 636.5,471C 639.241,468.577 641.241,469.077 642.5,472.5 Z"/></g>
<g><path style="opacity:1" fill="#63292d" d="M 479.5,514.5 C 478.849,513.909 478.182,513.243 477.5,512.5C 474.774,515.529 471.441,517.529 467.5,518.5C 470.28,516.592 472.947,514.425 475.5,512C 476.793,511.51 478.127,511.343 479.5,511.5C 479.5,512.5 479.5,513.5 479.5,514.5 Z"/></g>
<g><path style="opacity:1" fill="#62292d" d="M 701.5,512.5 C 704.969,515.072 708.636,517.406 712.5,519.5C 713.463,519.03 713.463,518.363 712.5,517.5C 714.048,517.821 714.715,518.821 714.5,520.5C 710.396,520.116 706.729,518.616 703.5,516C 702.177,515.184 701.511,514.017 701.5,512.5 Z"/></g>
<g><path style="opacity:0.11" fill="#2d0911" d="M 500.5,518.5 C 501.833,519.167 501.833,519.167 500.5,518.5 Z"/></g>
</svg>
