<?xml version="1.0" encoding="UTF-8"?>
<!DOCTYPE svg PUBLIC "-//W3C//DTD SVG 1.1//EN" "http://www.w3.org/Graphics/SVG/1.1/DTD/svg11.dtd">
<svg xmlns="http://www.w3.org/2000/svg" version="1.1" width="1216px" height="1749px" style="shape-rendering:geometricPrecision; text-rendering:geometricPrecision; image-rendering:optimizeQuality; fill-rule:evenodd; clip-rule:evenodd" xmlns:xlink="http://www.w3.org/1999/xlink">
<g><path style="opacity:0.905" fill="#391418" d="M 575.5,124.5 C 577.892,124.874 580.392,125.874 583,127.5C 583.333,127.167 583.667,126.833 584,126.5C 585.586,127.376 587.086,128.376 588.5,129.5C 591.994,128.036 595.494,126.37 599,124.5C 619.096,128.77 638.262,136.27 656.5,147C 680.243,163.742 701.076,183.575 719,206.5C 729.688,225.285 735.688,245.285 737,266.5C 736.346,277.415 736.513,288.082 737.5,298.5C 736.812,301.783 735.812,304.949 734.5,308C 734.833,308.333 735.167,308.667 735.5,309C 734.793,311.543 733.46,313.709 731.5,315.5C 733.563,318.388 735.397,321.388 737,324.5C 738.226,330.363 739.393,336.197 740.5,342C 740.5,344.667 740.5,347.333 740.5,350C 732.242,361.594 722.575,371.927 711.5,381C 709.888,381.72 708.388,381.554 707,380.5C 706.543,383.796 705.709,386.963 704.5,390C 705.354,391.881 705.021,393.714 703.5,395.5C 703.833,396.167 704.167,396.833 704.5,397.5C 702.958,402.175 702.124,406.842 702,411.5C 695.998,421.51 688.498,430.343 679.5,438C 675.6,439.784 671.6,441.284 667.5,442.5C 667.015,439.926 666.015,438.426 664.5,438C 672.154,414.007 674.821,389.84 672.5,365.5C 669.777,351.1 666.777,336.767 663.5,322.5C 663.846,321.304 664.346,321.304 665,322.5C 665.333,323.833 665.667,325.167 666,326.5C 666.167,325.667 666.333,324.833 666.5,324C 663.821,310.805 660.987,297.639 658,284.5C 656.044,284.784 653.877,284.784 651.5,284.5C 651.719,285.675 651.386,286.675 650.5,287.5C 646.822,289.337 642.989,290.67 639,291.5C 635.772,289.596 632.272,289.596 628.5,291.5C 626.255,291.255 623.922,291.255 621.5,291.5C 618.966,290.224 616.466,289.89 614,290.5C 612.333,289.833 610.667,289.167 609,288.5C 587.01,289.522 575.343,278.855 574,256.5C 570.36,264.339 569.86,272.672 572.5,281.5C 571.318,283.645 569.818,283.645 568,281.5C 566.382,277.717 564.715,274.384 563,271.5C 561.963,266.521 560.963,261.854 560,257.5C 554.489,268.844 546.822,278.511 537,286.5C 520.666,314.379 510.499,343.379 506.5,373.5C 506.125,375.459 505.459,377.293 504.5,379C 505.325,383.41 505.325,388.077 504.5,393C 505.833,395.667 507.833,397.667 510.5,399C 510.167,399.333 509.833,399.667 509.5,400C 510.944,401.126 511.61,402.626 511.5,404.5C 509.388,409.405 508.055,414.572 507.5,420C 509.069,426.206 510.736,432.373 512.5,438.5C 512.272,440.397 511.272,441.73 509.5,442.5C 505.478,441.152 501.478,439.819 497.5,438.5C 497.728,440.355 497.061,441.188 495.5,441C 494.044,438.734 493.21,436.234 493,433.5C 491.316,431.76 489.482,430.594 487.5,430C 475.544,444.526 462.878,458.526 449.5,472C 449.833,472.333 450.167,472.667 450.5,473C 449.012,476.952 447.679,480.952 446.5,485C 447.214,486.343 446.88,487.676 445.5,489C 443.961,508.331 446.294,527.998 452.5,548C 452.167,548.333 451.833,548.667 451.5,549C 455.881,558.294 457.714,567.794 457,577.5C 453.695,587.476 447.195,594.643 437.5,599C 430.781,600.036 429.281,597.87 433,592.5C 433.315,589.628 433.815,586.795 434.5,584C 434.69,581.688 434.023,579.355 432.5,577C 432.833,576.667 433.167,576.333 433.5,576C 431.894,568.888 427.894,562.888 421.5,558C 416.207,555.687 411.207,552.854 406.5,549.5C 400.485,543.451 397.818,536.118 398.5,527.5C 403.033,509.26 402.033,491.426 395.5,474C 395.995,469.862 396.995,465.862 398.5,462C 396.833,460 395.167,458 393.5,456C 393.833,455.667 394.167,455.333 394.5,455C 392.701,449.633 392.034,444.299 392.5,439C 393.127,436.657 394.127,434.49 395.5,432.5C 395.291,431.914 394.957,431.414 394.5,431C 398.575,423.518 402.908,416.185 407.5,409C 396.895,395.469 384.729,383.636 371,373.5C 366.414,367.999 362.581,361.999 359.5,355.5C 356.387,360.506 354.387,365.673 353.5,371C 353.952,373.294 353.952,375.794 353.5,378.5C 353.561,381.903 354.061,385.236 355,388.5C 357.754,393.033 360.088,397.366 362,401.5C 362.667,402.5 362.667,403.5 362,404.5C 347.049,394.917 343.216,381.417 350.5,364C 351.461,359.153 353.294,354.32 356,349.5C 356.167,348.167 356.333,346.833 356.5,345.5C 355.167,336.167 355.167,326.833 356.5,317.5C 355.402,312.468 354.069,307.134 352.5,301.5C 353.666,297.007 353.666,292.173 352.5,287C 354.031,265.795 359.864,244.962 370,224.5C 381.217,206.282 396.717,193.116 416.5,185C 425.268,181.066 433.435,181.899 441,187.5C 444.076,186.712 447.242,186.212 450.5,186C 453.214,183.285 456.214,180.951 459.5,179C 452.132,163.321 439.799,153.987 422.5,151C 418.299,150.078 414.299,150.578 410.5,152.5C 409.692,152.192 409.025,151.692 408.5,151C 409.167,149.667 409.833,148.333 410.5,147C 422.3,139.676 434.966,138.009 448.5,142C 461.623,150.75 466.956,162.75 464.5,178C 464.833,178.833 465.167,179.667 465.5,180.5C 469.017,182.008 471.851,184.341 474,187.5C 488.537,172.968 504.037,159.468 520.5,147C 537.849,136.835 556.182,129.335 575.5,124.5 Z M 462.5,307.5 C 466.362,308.428 470.029,309.928 473.5,312C 474.059,312.725 474.392,313.558 474.5,314.5C 472.93,323.628 471.596,332.461 470.5,341C 469.976,350.476 469.976,359.643 470.5,368.5C 470.081,369.672 469.415,370.672 468.5,371.5C 460.607,366.72 453.773,360.72 448,353.5C 447.007,350.692 446.173,347.859 445.5,345C 446.833,342.333 446.833,339.667 445.5,337C 446.167,335.667 446.833,334.333 447.5,333C 447.015,328.37 448.349,323.704 451.5,319C 451.167,318.667 450.833,318.333 450.5,318C 451.364,316.863 452.364,315.53 453.5,314C 456.402,311.583 459.402,309.416 462.5,307.5 Z M 702.5,313.5 C 702.833,313.5 703.167,313.5 703.5,313.5C 707.263,312.748 710.596,311.081 713.5,308.5C 722.579,314.502 728.579,322.669 731.5,333C 731.313,338.406 731.147,343.906 731,349.5C 724.269,357.9 716.602,365.233 708,371.5C 707.362,370.391 706.862,369.225 706.5,368C 707.004,359.357 707.004,350.357 706.5,341C 705.322,332.13 703.989,322.964 702.5,313.5 Z"/></g>
<g><path style="opacity:1" fill="#6f7bb9" d="M 582.5,132.5 C 582.5,133.167 582.5,133.833 582.5,134.5C 582.062,134.435 581.728,134.601 581.5,135C 583.323,135.997 584.99,137.164 586.5,138.5C 588.566,140.091 590.899,141.425 593.5,142.5C 593.833,141.833 594.167,141.167 594.5,140.5C 593.602,137.471 592.435,134.805 591,132.5C 592.667,132.833 594.333,133.167 596,133.5C 597.849,132.439 599.849,131.773 602,131.5C 624.97,137.573 645.47,147.573 663.5,161.5C 669.456,166.447 675.456,171.447 681.5,176.5C 686.494,182.161 691.827,187.494 697.5,192.5C 700.782,197.285 704.616,201.618 709,205.5C 716.01,216.497 721.01,228.164 724,240.5C 725.644,248.728 727.144,256.728 728.5,264.5C 728.406,275.088 728.406,285.921 728.5,297C 727.51,300.759 726.677,304.593 726,308.5C 725.667,308.833 725.333,309.167 725,309.5C 718.068,301.611 711.068,301.611 704,309.5C 703.51,310.793 703.343,312.127 703.5,313.5C 703.167,313.5 702.833,313.5 702.5,313.5C 701.694,312.003 701.028,310.336 700.5,308.5C 701.347,306.939 701.014,305.439 699.5,304C 700.167,302 700.833,300 701.5,298C 700.467,274.414 694.967,250.58 685,226.5C 677.073,212.565 667.24,200.065 655.5,189C 653.138,186.644 650.305,185.144 647,184.5C 645.72,184.613 644.887,185.28 644.5,186.5C 662.563,200.582 675.23,217.748 682.5,238C 686.652,249.4 689.985,260.4 692.5,271C 692.336,273.699 692.17,276.532 692,279.5C 689.521,273.875 686.521,268.542 683,263.5C 681.559,262.13 679.892,261.13 678,260.5C 677.833,261 677.667,261.5 677.5,262C 688.339,279.851 694.673,298.851 696.5,319C 697.167,321.333 697.833,323.667 698.5,326C 697.978,326.561 697.645,327.228 697.5,328C 698.784,335.674 699.784,343.34 700.5,351C 699.864,362.45 699.364,374.284 699,386.5C 697.138,399.083 693.472,411.083 688,422.5C 683.645,426.356 679.145,430.023 674.5,433.5C 673.692,433.192 673.025,432.692 672.5,432C 674.737,429.97 676.237,427.47 677,424.5C 677.356,420.854 678.189,417.354 679.5,414C 680.567,402.267 680.567,390.601 679.5,379C 682.165,363.91 680.831,348.91 675.5,334C 672.608,317.854 668.775,301.021 664,283.5C 661.769,277.374 659.269,271.374 656.5,265.5C 653.985,259.652 650.318,254.652 645.5,250.5C 645.167,250.833 644.833,251.167 644.5,251.5C 646.86,256.957 649.527,261.623 652.5,265.5C 653.229,269.687 654.562,273.687 656.5,277.5C 643.375,276.658 635.042,270.158 631.5,258C 630.167,255.72 628.834,253.386 627.5,251C 626.261,245.566 624.594,240.4 622.5,235.5C 623.227,232.777 622.727,230.111 621,227.5C 620.333,226.167 619.667,226.167 619,227.5C 618.235,229.066 618.402,230.399 619.5,231.5C 620.016,246.88 624.516,260.546 633,272.5C 635.487,274.809 637.487,277.476 639,280.5C 640.761,282.68 642.927,284.346 645.5,285.5C 645.333,285.833 645.167,286.167 645,286.5C 641.255,285.703 637.421,285.203 633.5,285C 633,284.5 632.5,284 632,283.5C 625.188,283.717 618.188,283.717 611,283.5C 604.904,282.217 598.738,281.05 592.5,280C 589.656,277.655 586.99,275.155 584.5,272.5C 582.08,266.904 580.08,261.237 578.5,255.5C 578.912,252.144 578.579,248.644 577.5,245C 575.342,243.566 574.009,244.4 573.5,247.5C 573.598,249.553 572.931,251.22 571.5,252.5C 569.747,255.146 568.747,258.146 568.5,261.5C 567.732,262.263 567.232,263.263 567,264.5C 566.648,262.753 566.148,261.086 565.5,259.5C 565.618,252.013 565.618,244.347 565.5,236.5C 565.763,228.275 566.096,219.941 566.5,211.5C 566.33,210.178 566.663,209.011 567.5,208C 566.365,207.251 565.365,207.417 564.5,208.5C 563.652,210.409 563.318,212.409 563.5,214.5C 562.435,220.698 561.435,227.031 560.5,233.5C 560.624,234.107 560.957,234.44 561.5,234.5C 560.564,238.735 560.231,243.069 560.5,247.5C 557.029,256.44 552.029,264.44 545.5,271.5C 544.613,273.735 543.613,274.235 542.5,273C 543.382,269.559 543.716,266.059 543.5,262.5C 543.617,260.516 542.95,258.85 541.5,257.5C 540.727,266.503 538.06,275.17 533.5,283.5C 515.191,311.212 503.191,341.712 497.5,375C 496.865,388.016 496.865,401.016 497.5,414C 498.734,419.225 500.234,424.391 502,429.5C 503.667,430.5 505.333,431.5 507,432.5C 507.49,433.793 507.657,435.127 507.5,436.5C 505.692,436.509 504.025,436.009 502.5,435C 498.327,430.494 493.827,426.327 489,422.5C 483.314,410.428 479.48,397.761 477.5,384.5C 478.065,382.595 479.065,380.929 480.5,379.5C 478.932,377.106 477.599,374.606 476.5,372C 477.356,364.806 477.356,357.806 476.5,351C 477.216,343.34 478.216,335.674 479.5,328C 479.355,327.228 479.022,326.561 478.5,326C 479.167,323.667 479.833,321.333 480.5,319C 479.946,316.388 480.613,313.888 482.5,311.5C 482.167,310.167 481.833,308.833 481.5,307.5C 484.265,296.544 487.599,285.877 491.5,275.5C 494.209,270.43 497.209,265.43 500.5,260.5C 499.21,259.592 497.877,259.759 496.5,261C 493.853,263.801 491.853,266.968 490.5,270.5C 487.771,273.032 485.771,276.032 484.5,279.5C 484.057,273.976 485.057,268.81 487.5,264C 487.167,263.667 486.833,263.333 486.5,263C 487.359,259.432 488.359,255.598 489.5,251.5C 492.048,244.154 494.382,237.488 496.5,231.5C 504.53,215.396 515.53,201.063 529.5,188.5C 533.127,187.53 533.461,185.863 530.5,183.5C 529.261,183.942 528.261,184.609 527.5,185.5C 508.71,199.059 495.21,216.726 487,238.5C 483.927,247.709 481.427,257.042 479.5,266.5C 478.744,271.248 477.744,276.248 476.5,281.5C 476.568,284.63 476.568,287.63 476.5,290.5C 475.892,292.875 475.559,295.375 475.5,298C 476.167,300 476.833,302 477.5,304C 476.953,304.925 476.287,305.758 475.5,306.5C 466.672,300.313 458.839,301.313 452,309.5C 450.463,305.462 449.297,301.295 448.5,297C 448.594,285.921 448.594,275.088 448.5,264.5C 450.38,248.909 454.213,233.909 460,219.5C 462.294,214.612 464.961,209.945 468,205.5C 476.928,195.735 486.095,186.068 495.5,176.5C 505.425,168.62 515.258,160.62 525,152.5C 536.319,146.426 548.152,140.593 560.5,135C 565.223,133.455 570.056,132.288 575,131.5C 577.151,131.773 579.151,132.439 581,133.5C 581.383,132.944 581.883,132.611 582.5,132.5 Z"/></g>
<g><path style="opacity:1" fill="#4e3a53" d="M 582.5,134.5 C 584.833,134.833 586.167,136.167 586.5,138.5C 584.99,137.164 583.323,135.997 581.5,135C 581.728,134.601 582.062,134.435 582.5,134.5 Z"/></g>
<g><path style="opacity:1" fill="#6e79b5" d="M 434.5,143.5 C 450.094,144.573 459.427,153.073 462.5,169C 463.461,171.536 463.461,174.369 462.5,177.5C 458.836,165.667 451.17,157.5 439.5,153C 433.981,150.704 428.315,148.87 422.5,147.5C 426.322,145.351 430.322,144.017 434.5,143.5 Z"/></g>
<g><path style="opacity:1" fill="#4a3348" d="M 589.5,169.5 C 589.804,168.85 590.137,168.183 590.5,167.5C 589.167,166.167 587.833,166.167 586.5,167.5C 587.246,168.736 587.579,170.07 587.5,171.5C 586.177,169.238 584.843,166.904 583.5,164.5C 586.833,165.833 590.167,165.833 593.5,164.5C 592.511,166.586 591.178,168.253 589.5,169.5 Z"/></g>
<g><path style="opacity:0.84" fill="#3c191f" d="M 589.5,169.5 C 589.719,170.675 589.386,171.675 588.5,172.5C 587.893,172.376 587.56,172.043 587.5,171.5C 587.579,170.07 587.246,168.736 586.5,167.5C 587.833,166.167 589.167,166.167 590.5,167.5C 590.137,168.183 589.804,168.85 589.5,169.5 Z"/></g>
<g><path style="opacity:1" fill="#40222d" d="M 663.5,161.5 C 676.933,169.547 688.267,179.88 697.5,192.5C 691.827,187.494 686.494,182.161 681.5,176.5C 675.456,171.447 669.456,166.447 663.5,161.5 Z"/></g>
<g><path style="opacity:0.887" fill="#3e1c23" d="M 565.5,179.5 C 564.192,178.768 562.858,177.934 561.5,177C 568.505,176.667 575.505,176.833 582.5,177.5C 584.484,178.156 586.484,178.822 588.5,179.5C 597.501,176.207 606.834,174.874 616.5,175.5C 616.67,176.822 616.337,177.989 615.5,179C 606.445,179.731 597.445,180.898 588.5,182.5C 580.699,180.742 573.032,179.742 565.5,179.5 Z"/></g>
<g><path style="opacity:1" fill="#483044" d="M 582.5,177.5 C 575.505,176.833 568.505,176.667 561.5,177C 562.858,177.934 564.192,178.768 565.5,179.5C 562.05,180.244 560.384,178.91 560.5,175.5C 565.878,175.602 571.045,175.602 576,175.5C 578.277,176.117 580.444,176.784 582.5,177.5 Z"/></g>
<g><path style="opacity:1" fill="#9f50b9" d="M 434.5,214.5 C 433.203,216.693 433.203,219.027 434.5,221.5C 435.298,221.043 435.631,220.376 435.5,219.5C 441.832,208.659 449.165,198.493 457.5,189C 462.64,185.489 467.306,186.156 471.5,191C 455.55,206.384 446.217,225.384 443.5,248C 442.953,248.925 442.287,249.758 441.5,250.5C 438.648,249.71 436.481,248.044 435,245.5C 433.747,240.546 432.247,235.712 430.5,231C 431.224,224.753 431.224,218.086 430.5,211C 431.497,205.722 432.83,200.222 434.5,194.5C 437.424,192.63 440.424,191.963 443.5,192.5C 443.509,194.308 443.009,195.975 442,197.5C 437.731,202.391 435.231,208.058 434.5,214.5 Z"/></g>
<g><path style="opacity:1" fill="#4e3b54" d="M 529.5,188.5 C 529.414,187.504 529.748,186.671 530.5,186C 529.552,185.517 528.552,185.351 527.5,185.5C 528.261,184.609 529.261,183.942 530.5,183.5C 533.461,185.863 533.127,187.53 529.5,188.5 Z"/></g>
<g><path style="opacity:1" fill="#6f7bb9" d="M 417.5,225.5 C 408.469,228.518 401.469,234.185 396.5,242.5C 396.833,242.833 397.167,243.167 397.5,243.5C 405.142,236.177 413.809,230.51 423.5,226.5C 423.926,235.198 425.759,243.531 429,251.5C 432.517,254.502 436.35,256.835 440.5,258.5C 439.61,272.19 439.277,285.523 439.5,298.5C 440.188,301.783 441.188,304.949 442.5,308C 442.167,308.333 441.833,308.667 441.5,309C 442.417,311.581 443.751,313.914 445.5,316C 440.688,325.194 438.355,334.694 438.5,344.5C 438.463,348.256 438.963,351.922 440,355.5C 441.773,357.419 443.273,359.419 444.5,361.5C 442.32,364.526 440.653,367.86 439.5,371.5C 438.5,371.833 437.833,372.5 437.5,373.5C 435.561,377.434 433.228,381.101 430.5,384.5C 430.103,385.525 429.437,385.692 428.5,385C 430.013,380.284 431.68,375.617 433.5,371C 433.167,370.667 432.833,370.333 432.5,370C 433.981,364.954 434.981,359.787 435.5,354.5C 435.485,348.393 435.485,342.226 435.5,336C 434.552,332.39 433.552,328.89 432.5,325.5C 429.418,313.913 424.418,303.247 417.5,293.5C 416.675,292.614 415.675,292.281 414.5,292.5C 418.301,300.103 422.135,307.769 426,315.5C 426.739,319.75 427.906,323.75 429.5,327.5C 433.009,355.624 427.009,381.457 411.5,405C 410.423,405.47 409.423,405.303 408.5,404.5C 406.234,400.564 403.234,397.231 399.5,394.5C 396.667,390.835 393.334,387.668 389.5,385C 390.451,384.282 390.617,383.449 390,382.5C 384.031,377.533 378.365,372.199 373,366.5C 368.638,361.113 365.305,355.113 363,348.5C 365.152,340.871 368.819,332.871 374,324.5C 373.765,330.411 372.932,336.244 371.5,342C 372.337,343.011 372.67,344.178 372.5,345.5C 371.686,348.002 371.353,350.502 371.5,353C 372.22,355.491 372.887,357.991 373.5,360.5C 373.987,361.473 374.487,362.473 375,363.5C 375.399,363.272 375.565,362.938 375.5,362.5C 376.349,357.259 376.349,351.593 375.5,345.5C 375.5,345.167 375.5,344.833 375.5,344.5C 376.023,339.731 376.357,334.398 376.5,328.5C 376.833,327.833 377.167,327.167 377.5,326.5C 377.782,323.09 378.449,319.757 379.5,316.5C 379.376,315.893 379.043,315.56 378.5,315.5C 380.52,309.771 382.52,304.104 384.5,298.5C 385.751,296.618 386.918,294.618 388,292.5C 388.49,291.207 388.657,289.873 388.5,288.5C 389.811,286.44 389.811,284.274 388.5,282C 387.833,281.333 387.167,281.333 386.5,282C 386.854,283.626 386.854,285.459 386.5,287.5C 384.509,291.79 382.509,296.124 380.5,300.5C 375.039,312.813 368.873,324.813 362,336.5C 361.304,311.764 367.804,289.264 381.5,269C 381.387,267.72 380.72,266.887 379.5,266.5C 377.247,267.253 375.413,268.586 374,270.5C 368.306,279.555 363.973,289.221 361,299.5C 360.785,292.915 360.619,286.748 360.5,281C 361.5,276.667 362.5,272.333 363.5,268C 365.637,249.34 372.47,232.174 384,216.5C 396.525,202.125 411.525,192.458 429,187.5C 429.92,187.93 430.753,188.264 431.5,188.5C 428.677,190.297 426.677,192.797 425.5,196C 425.833,196.333 426.167,196.667 426.5,197C 425.015,201.186 424.015,205.52 423.5,210C 423.932,214.06 423.932,218.56 423.5,223.5C 420.99,223.054 418.99,223.72 417.5,225.5 Z"/></g>
<g><path style="opacity:1" fill="#4e3b55" d="M 566.5,211.5 C 565.883,211.389 565.383,211.056 565,210.5C 564.79,212.058 564.29,213.391 563.5,214.5C 563.318,212.409 563.652,210.409 564.5,208.5C 565.365,207.417 566.365,207.251 567.5,208C 566.663,209.011 566.33,210.178 566.5,211.5 Z"/></g>
<g><path style="opacity:1" fill="#6e3268" d="M 434.5,214.5 C 434.216,216.415 434.549,218.081 435.5,219.5C 435.631,220.376 435.298,221.043 434.5,221.5C 433.203,219.027 433.203,216.693 434.5,214.5 Z"/></g>
<g><path style="opacity:0.91" fill="#40202a" d="M 417.5,225.5 C 419.5,225.833 421.5,226.167 423.5,226.5C 413.809,230.51 405.142,236.177 397.5,243.5C 397.167,243.167 396.833,242.833 396.5,242.5C 401.469,234.185 408.469,228.518 417.5,225.5 Z"/></g>
<g><path style="opacity:1" fill="#4e3a54" d="M 563.5,214.5 C 563.487,221.278 562.82,227.945 561.5,234.5C 560.957,234.44 560.624,234.107 560.5,233.5C 561.435,227.031 562.435,220.698 563.5,214.5 Z"/></g>
<g><path style="opacity:1" fill="#534565" d="M 622.5,235.5 C 621.736,233.26 620.902,230.927 620,228.5C 619.517,229.448 619.351,230.448 619.5,231.5C 618.402,230.399 618.235,229.066 619,227.5C 619.667,226.167 620.333,226.167 621,227.5C 622.727,230.111 623.227,232.777 622.5,235.5 Z"/></g>
<g><path style="opacity:1" fill="#452b3c" d="M 496.5,231.5 C 494.382,237.488 492.048,244.154 489.5,251.5C 489.062,251.565 488.728,251.399 488.5,251C 490.397,245.974 491.897,240.807 493,235.5C 493.498,233.456 494.665,232.122 496.5,231.5 Z"/></g>
<g><path style="opacity:1" fill="#483043" d="M 565.5,236.5 C 565.618,244.347 565.618,252.013 565.5,259.5C 564.167,251.833 564.167,244.167 565.5,236.5 Z"/></g>
<g><path style="opacity:1" fill="#4e3b56" d="M 723.5,255.5 C 722.5,254.167 721.5,254.167 720.5,255.5C 720.181,244.88 721.181,244.88 723.5,255.5 Z"/></g>
<g><path style="opacity:1" fill="#4f3d58" d="M 578.5,255.5 C 577.829,252.242 576.996,248.909 576,245.5C 575.292,246.381 574.458,247.047 573.5,247.5C 574.009,244.4 575.342,243.566 577.5,245C 578.579,248.644 578.912,252.144 578.5,255.5 Z"/></g>
<g><path style="opacity:0.853" fill="#3e1c23" d="M 723.5,255.5 C 723.821,260.695 723.487,265.695 722.5,270.5C 721.2,276.537 719.367,282.537 717,288.5C 716.517,287.552 716.351,286.552 716.5,285.5C 717.834,275.497 719.167,265.497 720.5,255.5C 721.5,254.167 722.5,254.167 723.5,255.5 Z"/></g>
<g><path style="opacity:1" fill="#4c374f" d="M 656.5,265.5 C 654.112,264.781 652.612,263.115 652,260.5C 651.616,262.197 651.782,263.863 652.5,265.5C 649.527,261.623 646.86,256.957 644.5,251.5C 644.833,251.167 645.167,250.833 645.5,250.5C 650.318,254.652 653.985,259.652 656.5,265.5 Z"/></g>
<g><path style="opacity:1" fill="#4d3a52" d="M 571.5,252.5 C 571.253,255.854 570.253,258.854 568.5,261.5C 568.747,258.146 569.747,255.146 571.5,252.5 Z"/></g>
<g><path style="opacity:1" fill="#4a3348" d="M 491.5,275.5 C 491.062,275.565 490.728,275.399 490.5,275C 492.468,272.414 493.634,269.581 494,266.5C 493.051,268.093 491.885,269.426 490.5,270.5C 491.853,266.968 493.853,263.801 496.5,261C 497.877,259.759 499.21,259.592 500.5,260.5C 497.209,265.43 494.209,270.43 491.5,275.5 Z"/></g>
<g><path style="opacity:1" fill="#4a3348" d="M 560.5,247.5 C 558.496,257.536 553.496,265.536 545.5,271.5C 552.029,264.44 557.029,256.44 560.5,247.5 Z"/></g>
<g><path style="opacity:1" fill="#483044" d="M 490.5,270.5 C 489.192,273.486 487.859,276.486 486.5,279.5C 484.794,280.688 484.127,280.688 484.5,279.5C 485.771,276.032 487.771,273.032 490.5,270.5 Z"/></g>
<g><path style="opacity:1" fill="#472f41" d="M 543.5,262.5 C 542.778,262.082 542.278,261.416 542,260.5C 541.6,269.212 538.767,276.879 533.5,283.5C 538.06,275.17 540.727,266.503 541.5,257.5C 542.95,258.85 543.617,260.516 543.5,262.5 Z"/></g>
<g><path style="opacity:1" fill="#472e40" d="M 722.5,270.5 C 722.578,277.821 720.578,284.821 716.5,291.5C 715.207,289.364 715.207,287.364 716.5,285.5C 716.351,286.552 716.517,287.552 717,288.5C 719.367,282.537 721.2,276.537 722.5,270.5 Z"/></g>
<g><path style="opacity:1" fill="#442938" d="M 479.5,266.5 C 480.139,267.097 480.472,267.93 480.5,269C 479.198,276.309 477.864,283.475 476.5,290.5C 476.568,287.63 476.568,284.63 476.5,281.5C 477.744,276.248 478.744,271.248 479.5,266.5 Z"/></g>
<g><path style="opacity:1" fill="#554869" d="M 388.5,288.5 C 388.657,287.127 388.49,285.793 388,284.5C 387.768,285.737 387.268,286.737 386.5,287.5C 386.854,285.459 386.854,283.626 386.5,282C 387.167,281.333 387.833,281.333 388.5,282C 389.811,284.274 389.811,286.44 388.5,288.5 Z"/></g>
<g><path style="opacity:0.012" fill="#000000" d="M 643.5,293.5 C 644.833,294.167 644.833,294.167 643.5,293.5 Z"/></g>
<g><path style="opacity:0.008" fill="#000000" d="M 644.5,295.5 C 645.833,296.167 645.833,296.167 644.5,295.5 Z"/></g>
<g><path style="opacity:1" fill="#493145" d="M 388.5,288.5 C 388.657,289.873 388.49,291.207 388,292.5C 386.918,294.618 385.751,296.618 384.5,298.5C 384.631,297.761 384.464,297.094 384,296.5C 383.051,298.093 381.885,299.426 380.5,300.5C 382.509,296.124 384.509,291.79 386.5,287.5C 387.268,286.737 387.768,285.737 388,284.5C 388.49,285.793 388.657,287.127 388.5,288.5 Z"/></g>
<g><path style="opacity:1" fill="#472c3d" d="M 432.5,325.5 C 431.065,323.402 429.898,321.069 429,318.5C 428.699,321.507 428.865,324.507 429.5,327.5C 427.906,323.75 426.739,319.75 426,315.5C 422.135,307.769 418.301,300.103 414.5,292.5C 415.675,292.281 416.675,292.614 417.5,293.5C 424.418,303.247 429.418,313.913 432.5,325.5 Z"/></g>
<g><path style="opacity:1" fill="#503f5a" d="M 378.5,315.5 C 379.043,315.56 379.376,315.893 379.5,316.5C 378.449,319.757 377.782,323.09 377.5,326.5C 376.861,325.903 376.528,325.07 376.5,324C 376.912,320.973 377.579,318.14 378.5,315.5 Z"/></g>
<g><path style="opacity:0.016" fill="#000000" d="M 662.5,318.5 C 663.833,319.167 663.833,319.167 662.5,318.5 Z"/></g>
<g><path style="opacity:1" fill="#4b364e" d="M 432.5,325.5 C 433.552,328.89 434.552,332.39 435.5,336C 435.485,342.226 435.485,348.393 435.5,354.5C 434.503,354.53 433.836,354.03 433.5,353C 434.08,350.542 434.414,348.042 434.5,345.5C 433.832,338.827 433.166,332.16 432.5,325.5 Z"/></g>
<g><path style="opacity:1" fill="#482e41" d="M 376.5,328.5 C 376.357,334.398 376.023,339.731 375.5,344.5C 374.848,343.551 374.514,342.385 374.5,341C 374.921,336.651 375.587,332.484 376.5,328.5 Z"/></g>
<g><path style="opacity:1" fill="#4c374e" d="M 372.5,345.5 C 372.84,350.223 373.507,354.89 374.5,359.5C 374.376,360.107 374.043,360.44 373.5,360.5C 372.887,357.991 372.22,355.491 371.5,353C 371.353,350.502 371.686,348.002 372.5,345.5 Z"/></g>
<g><path style="opacity:1" fill="#472e40" d="M 375.5,345.5 C 376.349,351.593 376.349,357.259 375.5,362.5C 374.418,356.677 374.418,351.01 375.5,345.5 Z"/></g>
<g><path style="opacity:1" fill="#6f7bb9" d="M 419.5,479.5 C 421.932,475.476 424.266,471.31 426.5,467C 425.056,466.219 423.723,466.386 422.5,467.5C 419.123,472.644 416.123,477.978 413.5,483.5C 411.012,489.145 408.512,494.812 406,500.5C 405.625,490.663 404.125,480.997 401.5,471.5C 403.626,456.263 409.292,442.596 418.5,430.5C 421.619,428.39 423.952,425.723 425.5,422.5C 421.778,422.861 418.778,424.528 416.5,427.5C 409.571,435.01 404.404,443.677 401,453.5C 398.702,445.511 399.369,437.511 403,429.5C 405.412,424.341 408.079,419.341 411,414.5C 417.333,406.005 423.833,397.671 430.5,389.5C 433.2,387.766 435.2,385.432 436.5,382.5C 440.616,376.291 444.449,369.957 448,363.5C 451.79,368.623 456.29,373.123 461.5,377C 464.279,378.722 467.279,379.889 470.5,380.5C 470.467,383.836 471.134,387.003 472.5,390C 471.646,391.881 471.979,393.714 473.5,395.5C 473.167,396.167 472.833,396.833 472.5,397.5C 473.74,408.976 478.407,418.643 486.5,426.5C 469.711,442.457 453.211,459.124 437,476.5C 427.664,488.005 420.831,500.838 416.5,515C 416.833,515.333 417.167,515.667 417.5,516C 416.804,520.134 416.137,524.3 415.5,528.5C 415.953,530.565 416.953,532.232 418.5,533.5C 421.268,522.999 424.435,512.333 428,501.5C 431.46,493.705 436.126,486.705 442,480.5C 439.917,493.023 439.084,505.523 439.5,518C 440.962,530.915 443.128,543.415 446,555.5C 449.541,562.948 450.208,570.948 448,579.5C 446.039,582.463 443.706,585.129 441,587.5C 440.457,567.546 430.957,554.046 412.5,547C 410.3,544.766 408.467,542.266 407,539.5C 404.657,528.327 405.324,517.327 409,506.5C 412.409,497.437 415.909,488.437 419.5,479.5 Z"/></g>
<g><path style="opacity:1" fill="#4c374e" d="M 444.5,361.5 C 444.046,365.058 442.379,368.392 439.5,371.5C 440.653,367.86 442.32,364.526 444.5,361.5 Z"/></g>
<g><path style="opacity:1" fill="#493043" d="M 437.5,373.5 C 437.796,376.315 436.796,378.982 434.5,381.5C 434.957,382.298 435.624,382.631 436.5,382.5C 435.2,385.432 433.2,387.766 430.5,389.5C 431.048,387.606 432.048,385.94 433.5,384.5C 432.767,383.913 431.767,383.913 430.5,384.5C 433.228,381.101 435.561,377.434 437.5,373.5 Z"/></g>
<g><path style="opacity:1" fill="#472e40" d="M 399.5,394.5 C 403.234,397.231 406.234,400.564 408.5,404.5C 404.766,401.769 401.766,398.436 399.5,394.5 Z"/></g>
<g><path style="opacity:1" fill="#696ea4" d="M 505.5,404.5 C 507.561,405.751 507.894,407.418 506.5,409.5C 505.548,407.955 505.215,406.288 505.5,404.5 Z"/></g>
<g><path style="opacity:1" fill="#462b3c" d="M 418.5,430.5 C 418.062,430.565 417.728,430.399 417.5,430C 423.117,425.501 422.784,424.667 416.5,427.5C 418.778,424.528 421.778,422.861 425.5,422.5C 423.952,425.723 421.619,428.39 418.5,430.5 Z"/></g>
<g><path style="opacity:0.004" fill="#000000" d="M 479.5,463.5 C 480.833,464.167 480.833,464.167 479.5,463.5 Z"/></g>
<g><path style="opacity:0.839" fill="#41222d" d="M 419.5,479.5 C 418.883,479.389 418.383,479.056 418,478.5C 416.933,480.692 415.433,482.358 413.5,483.5C 416.123,477.978 419.123,472.644 422.5,467.5C 423.723,466.386 425.056,466.219 426.5,467C 424.266,471.31 421.932,475.476 419.5,479.5 Z"/></g>
<g><path style="opacity:0.049" fill="#2b0303" d="M 449.5,527.5 C 450.573,528.251 450.74,529.251 450,530.5C 449.517,529.552 449.351,528.552 449.5,527.5 Z"/></g>
<g><path style="opacity:0.09" fill="#29070b" d="M 461.5,540.5 C 462.525,540.897 462.692,541.563 462,542.5C 461.536,541.906 461.369,541.239 461.5,540.5 Z"/></g>
<g><path style="opacity:0.059" fill="#210000" d="M 471.5,578.5 C 472.833,579.167 472.833,579.167 471.5,578.5 Z"/></g>
<g><path style="opacity:0.039" fill="#190000" d="M 469.5,581.5 C 470.833,582.167 470.833,582.167 469.5,581.5 Z"/></g>
</svg>
