<?xml version="1.0" encoding="UTF-8"?>
<!DOCTYPE svg PUBLIC "-//W3C//DTD SVG 1.1//EN" "http://www.w3.org/Graphics/SVG/1.1/DTD/svg11.dtd">
<svg xmlns="http://www.w3.org/2000/svg" version="1.1" width="1216px" height="1749px" style="shape-rendering:geometricPrecision; text-rendering:geometricPrecision; image-rendering:optimizeQuality; fill-rule:evenodd; clip-rule:evenodd" xmlns:xlink="http://www.w3.org/1999/xlink">
<g><path style="opacity:0.906" fill="#3b1517" d="M 566.5,259.5 C 565.504,259.414 564.671,259.748 564,260.5C 563.462,266.362 561.128,271.362 557,275.5C 547.542,285.356 536.542,292.023 524,295.5C 513.827,299.67 503.993,304.503 494.5,310C 495.898,311.649 495.564,312.982 493.5,314C 493.833,314.333 494.167,314.667 494.5,315C 487.099,349.2 491.766,383.033 508.5,416.5C 511.476,420.644 514.643,424.644 518,428.5C 519.309,430.747 519.975,433.08 520,435.5C 519.667,435.833 519.333,436.167 519,436.5C 516.689,434.89 514.189,433.557 511.5,432.5C 510.196,429.908 508.196,428.075 505.5,427C 502.103,427.994 498.77,427.66 495.5,426C 481.305,412.839 474.638,397.005 475.5,378.5C 473.897,378.312 472.563,378.812 471.5,380C 472.313,391.462 475.147,403.296 480,415.5C 480.037,418.307 480.204,420.974 480.5,423.5C 479.468,427.127 477.301,429.794 474,431.5C 473.667,431.167 473.333,430.833 473,430.5C 471.705,426.35 470.538,422.184 469.5,418C 468.943,414.531 467.609,411.031 465.5,407.5C 466.979,408.759 468.646,409.759 470.5,410.5C 470.833,411.833 471.167,411.833 471.5,410.5C 471.737,409.209 471.404,408.209 470.5,407.5C 467.044,397.576 466.044,387.743 467.5,378C 464.295,377.351 461.295,376.185 458.5,374.5C 453.676,369.542 448.842,364.542 444,359.5C 441.602,353.072 439.435,346.572 437.5,340C 437.673,334.506 438.339,329.173 439.5,324C 437.71,322.266 435.71,320.766 433.5,319.5C 432.391,317.615 431.557,315.615 431,313.5C 428.357,317.92 426.191,322.586 424.5,327.5C 424.709,328.086 425.043,328.586 425.5,329C 423.562,338.469 422.229,347.802 421.5,357C 422.167,361 422.833,365 423.5,369C 423.167,369.333 422.833,369.667 422.5,370C 425.228,375.76 428.228,380.926 431.5,385.5C 432.76,388.717 434.093,391.884 435.5,395C 435.167,395.333 434.833,395.667 434.5,396C 435.167,399 435.833,402 436.5,405C 435.918,407.955 435.918,411.122 436.5,414.5C 435.727,417.431 434.727,420.264 433.5,423C 433.582,426.356 432.249,429.356 429.5,432C 434.471,432.945 439.471,433.445 444.5,433.5C 447.718,435.184 450.385,434.517 452.5,431.5C 455.198,427.274 457.531,422.774 459.5,418C 460.382,414.559 460.716,411.059 460.5,407.5C 460.966,405.799 460.966,404.299 460.5,403C 461.094,402.536 461.761,402.369 462.5,402.5C 463.234,403.708 463.567,405.041 463.5,406.5C 463.5,407.167 463.833,407.5 464.5,407.5C 465.63,422.918 459.297,433.918 445.5,440.5C 436.446,437.239 427.446,436.239 418.5,437.5C 421.465,432.333 424.299,427 427,421.5C 429.369,410.056 428.703,399.056 425,388.5C 417.834,379.999 414.501,370.333 415,359.5C 411.377,364.628 406.544,367.962 400.5,369.5C 399.263,369.444 398.263,368.944 397.5,368C 407.139,360.391 413.805,350.725 417.5,339C 418.133,330.039 420.3,321.206 424,312.5C 425.745,310.251 427.912,308.584 430.5,307.5C 425.336,303.5 420.336,299.333 415.5,295C 415.833,294.667 416.167,294.333 416.5,294C 409.346,287.236 407.18,278.736 410,268.5C 413.51,260.99 418.51,254.657 425,249.5C 429.517,251.67 434.017,253.837 438.5,256C 442.187,259.21 445.021,263.044 447,267.5C 450.191,230.611 464.691,198.777 490.5,172C 517.146,146.7 548.312,134.534 584,135.5C 586.234,136.863 587.734,138.197 588.5,139.5C 593.011,138.359 597.511,137.359 602,136.5C 608.382,135.595 614.715,135.595 621,136.5C 681.221,154.015 716.888,193.015 728,253.5C 729.038,258.345 729.705,263.011 730,267.5C 731.979,263.044 734.813,259.21 738.5,256C 742.983,253.837 747.483,251.67 752,249.5C 764.642,258.822 769.809,270.989 767.5,286C 766.672,286.915 765.672,287.581 764.5,288C 764.833,288.333 765.167,288.667 765.5,289C 760.174,296.102 753.841,302.268 746.5,307.5C 750.522,309.356 753.356,312.356 755,316.5C 757.056,323.658 758.89,330.825 760.5,338C 760.167,338.333 759.833,338.667 759.5,339C 763.195,350.725 769.861,360.391 779.5,368C 778.737,368.944 777.737,369.444 776.5,369.5C 770.456,367.962 765.623,364.628 762,359.5C 762.499,370.333 759.166,379.999 752,388.5C 748.297,399.056 747.631,410.056 750,421.5C 752.481,426.806 755.148,431.806 758,436.5C 754.542,436.938 751.209,436.938 748,436.5C 742.355,437.146 736.855,438.479 731.5,440.5C 717.848,433.88 711.348,422.88 712,407.5C 709.449,410.896 707.949,414.396 707.5,418C 706.462,422.184 705.295,426.35 704,430.5C 702.127,431.089 700.46,430.422 699,428.5C 698.255,426.797 697.421,425.13 696.5,423.5C 697.603,421.723 697.603,419.889 696.5,418C 701.443,404.943 704.443,392.277 705.5,380C 704.437,378.812 703.103,378.312 701.5,378.5C 702.362,397.005 695.695,412.839 681.5,426C 678.23,427.66 674.897,427.994 671.5,427C 668.804,428.075 666.804,429.908 665.5,432.5C 662.963,434.07 660.296,434.903 657.5,435C 657.167,434.667 656.833,434.333 656.5,434C 683.76,396.266 692.093,355.599 681.5,312C 682.022,311.439 682.355,310.772 682.5,310C 672.757,303.864 662.59,299.364 652,296.5C 644.798,292.814 637.631,288.981 630.5,285C 621.495,278.463 615.328,269.963 612,259.5C 610.879,268.803 613.379,276.97 619.5,284C 614.479,284.495 610.146,282.995 606.5,279.5C 601.744,274.381 598.41,268.881 596.5,263C 594.403,258.775 592.236,254.608 590,250.5C 589.761,248.239 589.594,246.239 589.5,244.5C 587.302,247.533 585.302,250.7 583.5,254C 583.782,257.159 582.782,260.159 580.5,263C 577.8,270.927 572.8,277.593 565.5,283C 562.874,283.995 560.207,284.328 557.5,284C 563.212,276.538 566.212,268.371 566.5,259.5 Z M 711.5,308.5 C 720.694,311.326 727.027,316.826 730.5,325C 733.952,343.604 727.786,358.438 712,369.5C 711.667,369.167 711.333,368.833 711,368.5C 707.848,369.593 704.848,370.259 702,370.5C 701.13,369.892 700.63,369.059 700.5,368C 701.205,366.578 701.539,365.245 701.5,364C 700.508,354.693 698.842,345.359 696.5,336C 696.833,335.667 697.167,335.333 697.5,335C 695.638,331.081 693.971,327.081 692.5,323C 693.332,322.312 693.998,322.479 694.5,323.5C 700.966,333.595 703.633,344.262 702.5,355.5C 703.604,357.389 704.937,359.055 706.5,360.5C 709.39,357.587 710.39,354.254 709.5,350.5C 711.521,345.134 712.855,339.634 713.5,334C 713.473,329.53 713.473,325.03 713.5,320.5C 712.189,316.611 711.522,312.611 711.5,308.5 Z M 464.5,310.5 C 465.273,313.737 464.94,317.07 463.5,320.5C 463.527,325.03 463.527,329.53 463.5,334C 464.145,339.634 465.479,345.134 467.5,350.5C 467.392,351.442 467.059,352.275 466.5,353C 467.601,356.034 469.101,358.867 471,361.5C 471.789,359.42 472.956,357.586 474.5,356C 473.224,344.556 475.89,333.722 482.5,323.5C 483.002,322.479 483.668,322.312 484.5,323C 481.962,328.248 480.128,333.748 479,339.5C 477.655,347.838 476.488,356.005 475.5,364C 475.461,365.245 475.795,366.578 476.5,368C 476.37,369.059 475.87,369.892 475,370.5C 460.048,368.04 450.381,359.04 446,343.5C 445.077,337.5 445.577,331.666 447.5,326C 446.979,321.626 449.145,318.126 454,315.5C 454.333,315.833 454.667,316.167 455,316.5C 457,315.167 459,313.833 461,312.5C 461.333,312.833 461.667,313.167 462,313.5C 462.698,312.309 463.531,311.309 464.5,310.5 Z"/></g>
<g><path style="opacity:1" fill="#d7c480" d="M 656.5,158.5 C 663.874,163.122 671.207,168.456 678.5,174.5C 680.167,176.833 682.167,178.833 684.5,180.5C 689.549,186.214 694.215,192.214 698.5,198.5C 702.626,205.462 706.959,213.296 711.5,222C 711.167,222.333 710.833,222.667 710.5,223C 713.235,227.553 714.902,232.219 715.5,237C 716.682,240.398 718.016,243.731 719.5,247C 719.043,247.414 718.709,247.914 718.5,248.5C 720.064,253.604 721.397,258.437 722.5,263C 721.237,270.373 720.237,278.707 719.5,288C 719.645,288.772 719.978,289.439 720.5,290C 718.682,294.066 718.349,298.233 719.5,302.5C 719.192,303.308 718.692,303.975 718,304.5C 716.175,303.897 714.341,303.23 712.5,302.5C 720.008,279.648 718.175,256.648 707,233.5C 705.429,231.077 703.263,229.744 700.5,229.5C 701.708,232.919 703.208,236.253 705,239.5C 705.223,243.764 705.89,248.097 707,252.5C 711.227,262.412 712.56,272.745 711,283.5C 710.517,289.914 709.517,296.248 708,302.5C 702.423,289.667 695.59,277.667 687.5,266.5C 686.499,263.828 685.499,261.162 684.5,258.5C 683.947,256.061 683.947,253.727 684.5,251.5C 683.726,250.289 682.893,250.289 682,251.5C 681.192,255.027 681.359,258.36 682.5,261.5C 682.182,264.481 683.182,266.815 685.5,268.5C 689.068,275.969 692.901,283.302 697,290.5C 700.22,296.941 702.887,303.608 705,310.5C 706.442,318.452 706.775,326.452 706,334.5C 701.725,320.411 693.892,308.911 682.5,300C 672.703,296.457 663.036,292.624 653.5,288.5C 652.614,287.675 652.281,286.675 652.5,285.5C 647.794,285.529 643.46,284.362 639.5,282C 632.64,275.806 626.14,269.306 620,262.5C 616.946,259.058 614.946,255.058 614,250.5C 613.23,249.402 612.397,249.402 611.5,250.5C 608.782,257.086 607.782,264.086 608.5,271.5C 604.139,266.116 600.806,260.116 598.5,253.5C 598.379,250.895 597.379,248.895 595.5,247.5C 594.751,246.469 594.085,245.302 593.5,244C 594.536,242.224 594.536,240.391 593.5,238.5C 593.371,236.784 593.038,235.117 592.5,233.5C 594.101,229.42 594.768,225.42 594.5,221.5C 594.785,219.712 594.452,218.045 593.5,216.5C 592.614,217.325 592.281,218.325 592.5,219.5C 589.932,225.205 587.932,231.205 586.5,237.5C 581.595,245.648 577.429,254.315 574,263.5C 572.301,266.921 570.135,269.921 567.5,272.5C 568.992,265.064 568.492,257.73 566,250.5C 564.989,249.663 563.822,249.33 562.5,249.5C 562.5,251.167 562.5,252.833 562.5,254.5C 554.834,265.851 545.501,275.684 534.5,284C 530.886,284.936 527.22,285.436 523.5,285.5C 523.67,286.822 523.337,287.989 522.5,289C 510.151,292.998 498.484,298.331 487.5,305C 480.082,313.66 474.582,323.494 471,334.5C 470.333,327.833 470.333,321.167 471,314.5C 472.814,307.222 475.314,300.222 478.5,293.5C 481.202,289.088 483.536,284.421 485.5,279.5C 488.258,276.322 490.258,272.655 491.5,268.5C 495.174,263.448 496.174,257.782 494.5,251.5C 492.898,257.305 490.898,262.972 488.5,268.5C 485.34,272.148 482.673,276.148 480.5,280.5C 480.5,280.833 480.5,281.167 480.5,281.5C 477.377,284.976 475.043,288.976 473.5,293.5C 471.924,296.352 470.424,299.352 469,302.5C 463.186,280.252 464.519,258.586 473,237.5C 476.12,231.57 479.953,226.237 484.5,221.5C 485.828,220.493 486.828,219.16 487.5,217.5C 486.73,214.1 485.397,213.767 483.5,216.5C 472.716,226.054 466.05,238.054 463.5,252.5C 462.076,254.515 461.41,256.848 461.5,259.5C 460.103,267.002 459.437,273.835 459.5,280C 460,280.5 460.5,281 461,281.5C 461.677,288.797 462.843,295.964 464.5,303C 458.791,306.114 456.791,304.614 458.5,298.5C 458.146,295.558 457.48,292.725 456.5,290C 457.022,289.439 457.355,288.772 457.5,288C 456.763,278.707 455.763,270.373 454.5,263C 455.603,258.437 456.936,253.604 458.5,248.5C 468.267,198.8 498.267,164.466 548.5,145.5C 549.167,146.5 549.833,147.5 550.5,148.5C 553.456,146.904 556.456,145.404 559.5,144C 559.167,143.667 558.833,143.333 558.5,143C 561.062,141.859 563.728,141.026 566.5,140.5C 571.057,141.078 575.557,141.745 580,142.5C 580.333,142.167 580.667,141.833 581,141.5C 582.764,146.465 585.098,151.131 588,155.5C 591.157,152.209 591.323,148.709 588.5,145C 597.095,143.464 605.595,142.631 614,142.5C 618.227,143.691 622.394,145.691 626.5,148.5C 627.167,147.5 627.833,146.5 628.5,145.5C 638.319,148.942 647.652,153.275 656.5,158.5 Z"/></g>
<g><path style="opacity:0.814" fill="#48231e" d="M 606.5,153.5 C 603.748,153.578 601.082,153.745 598.5,154C 599.571,153.148 600.571,152.315 601.5,151.5C 606.667,149.651 612,149.151 617.5,150C 619.959,150.724 620.959,152.057 620.5,154C 615.645,154.295 610.978,154.128 606.5,153.5 Z"/></g>
<g><path style="opacity:0.9" fill="#49241f" d="M 568.5,152.5 C 572.574,152.767 576.241,154.1 579.5,156.5C 568.188,156.851 557.354,159.184 547,163.5C 546.5,163 546,162.5 545.5,162C 552.109,156.022 559.775,152.855 568.5,152.5 Z"/></g>
<g><path style="opacity:1" fill="#7d5e42" d="M 601.5,151.5 C 600.571,152.315 599.571,153.148 598.5,154C 601.082,153.745 603.748,153.578 606.5,153.5C 603.35,155.125 600.017,155.458 596.5,154.5C 597.421,152.244 599.088,151.244 601.5,151.5 Z"/></g>
<g><path style="opacity:0.924" fill="#48231e" d="M 586.5,159.5 C 589.439,161.703 591.105,164.703 591.5,168.5C 590.974,170.23 589.974,171.564 588.5,172.5C 585.769,168.448 585.102,164.115 586.5,159.5 Z"/></g>
<g><path style="opacity:1" fill="#59362b" d="M 656.5,158.5 C 656.56,157.957 656.893,157.624 657.5,157.5C 665.581,162.013 672.581,167.68 678.5,174.5C 671.207,168.456 663.874,163.122 656.5,158.5 Z"/></g>
<g><path style="opacity:0.942" fill="#3e1818" d="M 554.5,170.5 C 561.823,170.664 569.157,171.164 576.5,172C 579.726,172.885 582.726,174.219 585.5,176C 586.337,177.011 586.67,178.178 586.5,179.5C 583.687,179.452 581.021,178.785 578.5,177.5C 576.665,178.192 574.832,177.858 573,176.5C 568.641,176.623 563.974,176.623 559,176.5C 553.93,178.156 548.764,179.656 543.5,181C 542.069,181.465 540.903,182.299 540,183.5C 539.667,183.167 539.333,182.833 539,182.5C 533.291,185.639 527.624,188.972 522,192.5C 521.667,192.167 521.333,191.833 521,191.5C 518.324,193.5 515.991,195.833 514,198.5C 513.667,198.167 513.333,197.833 513,197.5C 510.62,200.275 507.787,200.942 504.5,199.5C 507.921,192.911 512.921,187.744 519.5,184C 530.822,178.428 542.488,173.928 554.5,170.5 Z"/></g>
<g><path style="opacity:0.95" fill="#401b1a" d="M 605.5,170.5 C 611.211,170.595 616.711,170.595 622,170.5C 633.413,173.973 644.58,177.973 655.5,182.5C 657.05,185.889 659.55,188.556 663,190.5C 665.328,192.816 664.995,194.482 662,195.5C 652.504,190.674 643.004,185.841 633.5,181C 628.253,179.657 623.087,178.157 618,176.5C 613.776,176.677 609.609,176.677 605.5,176.5C 603.541,176.875 601.707,177.541 600,178.5C 598.605,177.185 597.605,177.519 597,179.5C 594.973,179.014 592.807,179.014 590.5,179.5C 590.452,176.708 591.785,174.875 594.5,174C 598.254,172.691 601.921,171.525 605.5,170.5 Z"/></g>
<g><path style="opacity:1" fill="#583529" d="M 684.5,180.5 C 684.56,179.957 684.893,179.624 685.5,179.5C 691.097,185.075 695.431,191.408 698.5,198.5C 694.215,192.214 689.549,186.214 684.5,180.5 Z"/></g>
<g><path style="opacity:1" fill="#856748" d="M 590.5,193.5 C 592.776,193.756 593.943,195.09 594,197.5C 594.667,200.167 594.667,202.833 594,205.5C 591.845,201.51 590.679,197.51 590.5,193.5 Z"/></g>
<g><path style="opacity:1" fill="#77583f" d="M 484.5,221.5 C 484.48,219.857 485.147,218.524 486.5,217.5C 485.675,216.614 484.675,216.281 483.5,216.5C 485.397,213.767 486.73,214.1 487.5,217.5C 486.828,219.16 485.828,220.493 484.5,221.5 Z"/></g>
<g><path style="opacity:1" fill="#836647" d="M 594.5,221.5 C 593.833,220.833 593.167,220.167 592.5,219.5C 592.281,218.325 592.614,217.325 593.5,216.5C 594.452,218.045 594.785,219.712 594.5,221.5 Z"/></g>
<g><path style="opacity:1" fill="#644332" d="M 592.5,219.5 C 591.471,225.921 589.471,231.921 586.5,237.5C 587.932,231.205 589.932,225.205 592.5,219.5 Z"/></g>
<g><path style="opacity:1" fill="#846647" d="M 592.5,233.5 C 593.038,235.117 593.371,236.784 593.5,238.5C 591.655,237.005 591.322,235.338 592.5,233.5 Z"/></g>
<g><path style="opacity:1" fill="#6e4d38" d="M 595.5,247.5 C 597.379,248.895 598.379,250.895 598.5,253.5C 596.912,251.887 595.912,249.887 595.5,247.5 Z"/></g>
<g><path style="opacity:1" fill="#7c5d42" d="M 684.5,258.5 C 683.732,257.737 683.232,256.737 683,255.5C 682.505,257.473 682.338,259.473 682.5,261.5C 681.359,258.36 681.192,255.027 682,251.5C 682.893,250.289 683.726,250.289 684.5,251.5C 683.947,253.727 683.947,256.061 684.5,258.5 Z"/></g>
<g><path style="opacity:0.644" fill="#613f30" d="M 491.5,268.5 C 491.649,267.448 491.483,266.448 491,265.5C 490.623,266.942 489.79,267.942 488.5,268.5C 490.898,262.972 492.898,257.305 494.5,251.5C 496.174,257.782 495.174,263.448 491.5,268.5 Z"/></g>
<g><path style="opacity:0.711" fill="#553127" d="M 684.5,258.5 C 685.499,261.162 686.499,263.828 687.5,266.5C 685.797,265.34 685.131,266.007 685.5,268.5C 683.182,266.815 682.182,264.481 682.5,261.5C 682.338,259.473 682.505,257.473 683,255.5C 683.232,256.737 683.732,257.737 684.5,258.5 Z"/></g>
<g><path style="opacity:1" fill="#8097d7" d="M 430.5,268.5 C 432.035,275.241 433.869,281.907 436,288.5C 437.727,291.391 439.227,294.391 440.5,297.5C 438.372,299.403 436.039,301.069 433.5,302.5C 425.781,297.057 419.948,290.057 416,281.5C 414.852,272.555 417.686,264.721 424.5,258C 425.5,257.333 426.5,257.333 427.5,258C 427.167,258.333 426.833,258.667 426.5,259C 428.515,261.908 429.848,265.074 430.5,268.5 Z"/></g>
<g><path style="opacity:1" fill="#8d704e" d="M 567.5,272.5 C 567.467,268.759 567.134,264.426 566.5,259.5C 566.23,256.298 565.396,253.298 564,250.5C 563.79,252.058 563.29,253.391 562.5,254.5C 562.5,252.833 562.5,251.167 562.5,249.5C 563.822,249.33 564.989,249.663 566,250.5C 568.492,257.73 568.992,265.064 567.5,272.5 Z"/></g>
<g><path style="opacity:1" fill="#8097d7" d="M 749.5,257.5 C 751.39,257.297 752.89,257.963 754,259.5C 757.096,264.126 759.429,268.793 761,273.5C 761.667,276.167 761.667,278.833 761,281.5C 757.052,290.057 751.219,297.057 743.5,302.5C 740.568,301.2 738.234,299.2 736.5,296.5C 738.943,291.948 741.11,287.281 743,282.5C 745.479,274.279 747.646,265.945 749.5,257.5 Z"/></g>
<g><path style="opacity:1" fill="#7a5b41" d="M 463.5,252.5 C 463.59,255.152 462.924,257.485 461.5,259.5C 461.41,256.848 462.076,254.515 463.5,252.5 Z"/></g>
<g><path style="opacity:1" fill="#495579" d="M 433.5,260.5 C 434.5,260.5 435.5,260.5 436.5,260.5C 438.892,266.162 441.392,271.829 444,277.5C 445.95,283.321 446.783,289.321 446.5,295.5C 445.325,295.719 444.325,295.386 443.5,294.5C 439.284,283.811 435.951,272.478 433.5,260.5 Z"/></g>
<g><path style="opacity:1" fill="#495578" d="M 740.5,260.5 C 741.675,260.281 742.675,260.614 743.5,261.5C 741.849,269.619 739.516,277.452 736.5,285C 736.833,285.333 737.167,285.667 737.5,286C 736.001,289.156 734.668,292.323 733.5,295.5C 732.5,295.5 731.5,295.5 730.5,295.5C 730.379,289.365 731.212,283.365 733,277.5C 735.954,271.984 738.454,266.317 740.5,260.5 Z"/></g>
<g><path style="opacity:1" fill="#927651" d="M 611.5,250.5 C 610.263,258.161 609.263,265.161 608.5,271.5C 607.782,264.086 608.782,257.086 611.5,250.5 Z"/></g>
<g><path style="opacity:1" fill="#634131" d="M 488.5,268.5 C 486.822,273.197 484.156,277.197 480.5,280.5C 482.673,276.148 485.34,272.148 488.5,268.5 Z"/></g>
<g><path style="opacity:1" fill="#644131" d="M 480.5,281.5 C 480.938,281.435 481.272,281.601 481.5,282C 478.97,286.013 476.304,289.846 473.5,293.5C 475.043,288.976 477.377,284.976 480.5,281.5 Z"/></g>
<g><path style="opacity:1" fill="#4c364a" d="M 430.5,268.5 C 433.855,277.029 437.355,285.696 441,294.5C 441.74,295.749 441.573,296.749 440.5,297.5C 439.227,294.391 437.727,291.391 436,288.5C 433.869,281.907 432.035,275.241 430.5,268.5 Z"/></g>
<g><path style="opacity:1" fill="#654433" d="M 485.5,279.5 C 483.536,284.421 481.202,289.088 478.5,293.5C 479.673,289.467 481.173,285.467 483,281.5C 483.708,280.619 484.542,279.953 485.5,279.5 Z"/></g>
<g><path style="opacity:1" fill="#8198d8" d="M 447.5,302.5 C 449.269,303.421 450.935,304.588 452.5,306C 448.768,308.945 445.601,312.445 443,316.5C 441.229,315.696 439.729,314.529 438.5,313C 439.833,312 439.833,311 438.5,310C 441.654,306.951 444.654,304.451 447.5,302.5 Z"/></g>
<g><path style="opacity:1" fill="#8198d8" d="M 727.5,302.5 C 729.017,302.511 730.184,303.177 731,304.5C 731.333,304.167 731.667,303.833 732,303.5C 733.359,305.692 735.192,307.359 737.5,308.5C 739.721,312.409 738.387,315.075 733.5,316.5C 730.844,313.678 728.011,311.012 725,308.5C 724.333,307.5 724.333,306.5 725,305.5C 726.417,304.922 727.25,303.922 727.5,302.5 Z"/></g>
<g><path style="opacity:1" fill="#d7c480" d="M 470.5,407.5 C 470.631,408.239 470.464,408.906 470,409.5C 468.594,406.373 466.427,405.373 463.5,406.5C 463.567,405.041 463.234,403.708 462.5,402.5C 461.791,401.596 460.791,401.263 459.5,401.5C 459.205,403.735 459.539,405.735 460.5,407.5C 460.716,411.059 460.382,414.559 459.5,418C 457.531,422.774 455.198,427.274 452.5,431.5C 450.118,433.046 447.451,433.713 444.5,433.5C 439.471,433.445 434.471,432.945 429.5,432C 432.249,429.356 433.582,426.356 433.5,423C 434.727,420.264 435.727,417.431 436.5,414.5C 435.918,411.122 435.918,407.955 436.5,405C 435.833,402 435.167,399 434.5,396C 434.833,395.667 435.167,395.333 435.5,395C 434.093,391.884 432.76,388.717 431.5,385.5C 428.228,380.926 425.228,375.76 422.5,370C 422.833,369.667 423.167,369.333 423.5,369C 422.833,365 422.167,361 421.5,357C 422.229,347.802 423.562,338.469 425.5,329C 425.043,328.586 424.709,328.086 424.5,327.5C 426.191,322.586 428.357,317.92 431,313.5C 431.557,315.615 432.391,317.615 433.5,319.5C 435.71,320.766 437.71,322.266 439.5,324C 438.339,329.173 437.673,334.506 437.5,340C 439.435,346.572 441.602,353.072 444,359.5C 448.842,364.542 453.676,369.542 458.5,374.5C 461.295,376.185 464.295,377.351 467.5,378C 466.044,387.743 467.044,397.576 470.5,407.5 Z"/></g>
<g><path style="opacity:1" fill="#d7c480" d="M 716.5,404.5 C 717.404,403.791 717.737,402.791 717.5,401.5C 714.53,401.746 713.197,403.412 713.5,406.5C 711.799,406.966 710.299,406.966 709,406.5C 710.012,409.341 708.845,410.674 705.5,410.5C 709.466,399.809 710.799,388.809 709.5,377.5C 725.597,369.388 735.264,356.388 738.5,338.5C 738.592,333.322 737.592,328.155 735.5,323C 741.541,322.625 745.041,319.459 746,313.5C 749.3,318.412 751.133,323.579 751.5,329C 753.438,338.469 754.771,347.802 755.5,357C 754.833,361 754.167,365 753.5,369C 753.833,369.333 754.167,369.667 754.5,370C 749.795,378.094 745.462,386.428 741.5,395C 741.833,395.333 742.167,395.667 742.5,396C 741.833,399 741.167,402 740.5,405C 741.082,407.955 741.082,411.122 740.5,414.5C 741.273,417.431 742.273,420.264 743.5,423C 743.418,426.356 744.751,429.356 747.5,432C 742.367,433.194 736.867,433.694 731,433.5C 728.855,433.604 727.021,432.937 725.5,431.5C 718.39,423.713 715.39,414.713 716.5,404.5 Z"/></g>
<g><path style="opacity:1" fill="#d7c380" d="M 486.5,365.5 C 486.501,370.312 487.168,374.646 488.5,378.5C 490.785,391.885 495.118,404.885 501.5,417.5C 501.333,417.833 501.167,418.167 501,418.5C 499.601,417.773 498.101,417.273 496.5,417C 489.442,410.22 485.442,402.22 484.5,393C 483.833,392.667 483.167,392.333 482.5,392C 482.257,377.243 482.257,362.41 482.5,347.5C 483.535,343.094 484.702,338.428 486,333.5C 485.199,344.316 485.366,354.983 486.5,365.5 Z"/></g>
<g><path style="opacity:1" fill="#d6c27f" d="M 690.5,333.5 C 691.972,336.077 692.972,338.911 693.5,342C 694.332,345.493 694.332,349.16 693.5,353C 694.167,355 694.833,357 695.5,359C 694.642,366.477 694.642,373.644 695.5,380.5C 694.101,384.343 693.768,388.176 694.5,392C 692.699,392.317 692.366,392.984 693.5,394C 691.248,402.836 686.915,410.503 680.5,417C 679.128,417.402 677.795,417.902 676.5,418.5C 676.167,418.167 675.833,417.833 675.5,417.5C 677.615,414 679.448,410.333 681,406.5C 690.13,382.811 693.296,358.477 690.5,333.5 Z"/></g>
<g><path style="opacity:1" fill="#603e2f" d="M 486.5,365.5 C 487.385,369.064 488.385,372.731 489.5,376.5C 489.457,377.416 489.124,378.083 488.5,378.5C 487.168,374.646 486.501,370.312 486.5,365.5 Z"/></g>
<g><path style="opacity:1" fill="#8b6e4c" d="M 462.5,402.5 C 461.761,402.369 461.094,402.536 460.5,403C 460.966,404.299 460.966,405.799 460.5,407.5C 459.539,405.735 459.205,403.735 459.5,401.5C 460.791,401.263 461.791,401.596 462.5,402.5 Z"/></g>
<g><path style="opacity:1" fill="#70503a" d="M 716.5,404.5 C 716.631,403.761 716.464,403.094 716,402.5C 715.392,404.066 714.558,405.4 713.5,406.5C 713.197,403.412 714.53,401.746 717.5,401.5C 717.737,402.791 717.404,403.791 716.5,404.5 Z"/></g>
<g><path style="opacity:1" fill="#90734f" d="M 470.5,407.5 C 471.404,408.209 471.737,409.209 471.5,410.5C 471.167,410.5 470.833,410.5 470.5,410.5C 468.646,409.759 466.979,408.759 465.5,407.5C 465.167,407.5 464.833,407.5 464.5,407.5C 463.833,407.5 463.5,407.167 463.5,406.5C 466.427,405.373 468.594,406.373 470,409.5C 470.464,408.906 470.631,408.239 470.5,407.5 Z"/></g>
<g><path style="opacity:0.821" fill="#47231e" d="M 734.5,425.5 C 733.298,426.405 731.964,426.405 730.5,425.5C 727.475,421.767 725.808,417.434 725.5,412.5C 726.242,411.713 727.075,411.047 728,410.5C 730.384,415.391 732.551,420.391 734.5,425.5 Z"/></g>
<g><path style="opacity:0.761" fill="#4f2b23" d="M 445.5,426.5 C 444.624,426.631 443.957,426.298 443.5,425.5C 444.9,422.965 445.9,420.298 446.5,417.5C 446.61,414.038 447.776,411.038 450,408.5C 451.617,415.243 450.117,421.243 445.5,426.5 Z"/></g>
<g><path style="opacity:1" fill="#75553d" d="M 446.5,417.5 C 445.9,420.298 444.9,422.965 443.5,425.5C 443.957,426.298 444.624,426.631 445.5,426.5C 444.535,429.085 443.201,429.585 441.5,428C 442.549,424.074 444.215,420.574 446.5,417.5 Z"/></g>
<g><path style="opacity:1" fill="#836547" d="M 730.5,425.5 C 731.964,426.405 733.298,426.405 734.5,425.5C 736.136,427.28 736.303,428.947 735,430.5C 733.293,428.963 731.793,427.296 730.5,425.5 Z"/></g>
<g><path style="opacity:1" fill="#6f4e39" d="M 452.5,431.5 C 450.385,434.517 447.718,435.184 444.5,433.5C 447.451,433.713 450.118,433.046 452.5,431.5 Z"/></g>
</svg>
