<?xml version="1.0" encoding="UTF-8"?>
<!DOCTYPE svg PUBLIC "-//W3C//DTD SVG 1.1//EN" "http://www.w3.org/Graphics/SVG/1.1/DTD/svg11.dtd">
<svg xmlns="http://www.w3.org/2000/svg" version="1.1" width="1216px" height="1749px" style="shape-rendering:geometricPrecision; text-rendering:geometricPrecision; image-rendering:optimizeQuality; fill-rule:evenodd; clip-rule:evenodd" xmlns:xlink="http://www.w3.org/1999/xlink">
<g><path style="opacity:0.946" fill="#3b1417" d="M 602.5,123.5 C 613.807,123.637 624.807,125.47 635.5,129C 646.719,134.442 657.719,140.108 668.5,146C 700.326,170.746 722.826,202.246 736,240.5C 737.405,246.286 738.572,252.12 739.5,258C 739.225,260.931 738.559,263.765 737.5,266.5C 749.185,294.016 750.351,322.016 741,350.5C 735.16,360.828 730.494,371.494 727,382.5C 725.639,394.804 724.639,407.138 724,419.5C 721.069,425.592 717.403,431.259 713,436.5C 711.213,446.659 708.046,456.326 703.5,465.5C 702.198,467.201 700.531,468.368 698.5,469C 697.707,470.085 697.04,471.252 696.5,472.5C 701.723,474.332 704.056,477.832 703.5,483C 705.314,487.326 705.814,491.826 705,496.5C 702.712,501.02 699.878,505.187 696.5,509C 693.854,509.497 691.187,509.664 688.5,509.5C 689.508,516.472 689.675,523.472 689,530.5C 687.413,532.632 685.913,534.798 684.5,537C 681.331,537.997 678.664,537.33 676.5,535C 677.842,532.985 678.342,530.818 678,528.5C 673.126,534.994 666.793,537.994 659,537.5C 658.683,535.699 658.016,535.366 657,536.5C 652.107,534.268 647.774,531.268 644,527.5C 643.333,526.5 643.333,525.5 644,524.5C 649.342,519.854 652.842,514.02 654.5,507C 653.892,506.13 653.059,505.63 652,505.5C 646.301,507.501 642.634,505.501 641,499.5C 639.374,490.504 639.208,481.504 640.5,472.5C 642.861,472.326 645.194,471.993 647.5,471.5C 646.543,462.867 646.21,454.367 646.5,446C 649.14,439.749 651.973,433.582 655,427.5C 655.546,424.145 655.379,420.812 654.5,417.5C 655.373,412.26 656.207,407.26 657,402.5C 658.945,401.137 661.112,400.303 663.5,400C 666.721,395.112 670.554,390.612 675,386.5C 680.712,378.486 682.879,369.652 681.5,360C 682.85,356.996 683.183,353.996 682.5,351C 683.167,350 683.833,349 684.5,348C 683.904,344.282 683.238,340.616 682.5,337C 683.705,333.53 684.372,329.863 684.5,326C 683.773,323.876 683.106,321.709 682.5,319.5C 682.324,314.55 682.324,309.55 682.5,304.5C 681.667,301.167 680.833,297.833 680,294.5C 679.5,293.333 678.667,292.5 677.5,292C 674.776,291.73 672.109,291.23 669.5,290.5C 666.5,291.833 663.5,291.833 660.5,290.5C 657.833,291.167 655.167,291.833 652.5,292.5C 630.023,291.893 607.357,291.893 584.5,292.5C 575.141,291.297 568.974,286.297 566,277.5C 565.077,279.034 564.577,280.701 564.5,282.5C 566.059,285.63 567.059,288.964 567.5,292.5C 557.134,290.3 550.967,283.967 549,273.5C 548.726,266.265 547.892,259.099 546.5,252C 547.485,245.84 547.985,239.673 548,233.5C 544.795,243.977 541.129,254.311 537,264.5C 526.937,285.666 512.437,301.999 493.5,313.5C 494.173,328.173 494.173,343.173 493.5,358.5C 493.282,365.99 494.115,373.323 496,380.5C 500.029,385.35 504.196,390.183 508.5,395C 510.863,397.555 513.696,399.388 517,400.5C 519.88,410.278 521.38,420.278 521.5,430.5C 522.5,430.5 523.5,430.5 524.5,430.5C 525.949,436.061 527.949,441.394 530.5,446.5C 530.773,454.688 530.44,463.021 529.5,471.5C 531.806,471.993 534.139,472.326 536.5,472.5C 537.792,481.504 537.626,490.504 536,499.5C 534.366,505.501 530.699,507.501 525,505.5C 523.941,505.63 523.108,506.13 522.5,507C 524.158,514.02 527.658,519.854 533,524.5C 533.667,525.5 533.667,526.5 533,527.5C 524.908,536.426 515.741,538.926 505.5,535C 503.194,532.939 501.027,530.772 499,528.5C 498.658,530.818 499.158,532.985 500.5,535C 498.336,537.33 495.669,537.997 492.5,537C 491.087,534.798 489.587,532.632 488,530.5C 487.325,523.472 487.492,516.472 488.5,509.5C 485.813,509.664 483.146,509.497 480.5,509C 469.921,498.196 468.588,486.529 476.5,474C 478.392,473.027 480.392,472.36 482.5,472C 475.889,468.719 471.389,463.553 469,456.5C 467.449,449.728 465.783,443.061 464,436.5C 459.597,431.259 455.931,425.592 453,419.5C 452.361,407.138 451.361,394.804 450,382.5C 446.514,371.508 441.847,360.841 436,350.5C 426.654,322.087 427.82,294.087 439.5,266.5C 438.441,263.765 437.775,260.931 437.5,258C 438.587,251.818 439.754,245.651 441,239.5C 454.305,201.734 476.805,170.567 508.5,146C 522.099,138.574 536.099,131.907 550.5,126C 562.75,123.51 574.584,124.677 586,129.5C 591.521,127.256 597.021,125.256 602.5,123.5 Z M 456.5,309.5 C 457.66,323.675 459.16,338.008 461,352.5C 462.452,359.183 464.452,365.516 467,371.5C 460.88,370.004 454.88,368.004 449,365.5C 445.864,361.399 443.364,356.899 441.5,352C 442.966,350.448 443.966,348.614 444.5,346.5C 443.542,339.366 444.542,332.199 447.5,325C 447.596,322.23 446.596,321.396 444.5,322.5C 446.024,318.798 448.19,315.464 451,312.5C 452.264,310.393 454.097,309.393 456.5,309.5 Z M 720.5,309.5 C 722.903,309.393 724.736,310.393 726,312.5C 728.81,315.464 730.976,318.798 732.5,322.5C 730.404,321.396 729.404,322.23 729.5,325C 732.458,332.199 733.458,339.366 732.5,346.5C 733.034,348.614 734.034,350.448 735.5,352C 732.822,361.846 726.489,367.679 716.5,369.5C 715.069,369.023 713.736,368.357 712.5,367.5C 714.529,358.822 716.862,350.322 719.5,342C 718.366,340.984 718.699,340.317 720.5,340C 719.262,336.644 718.596,333.144 718.5,329.5C 719.264,322.647 719.93,315.98 720.5,309.5 Z"/></g>
<g><path style="opacity:1" fill="#cb7da8" d="M 732.5,322.5 C 730.976,318.798 728.81,315.464 726,312.5C 724.736,310.393 722.903,309.393 720.5,309.5C 719.836,292.681 716.669,276.348 711,260.5C 706.26,249.603 699.76,239.937 691.5,231.5C 690.264,230.754 688.93,230.421 687.5,230.5C 689.126,236.653 692.292,241.986 697,246.5C 705.394,263.522 710.894,281.522 713.5,300.5C 713.44,301.043 713.107,301.376 712.5,301.5C 711.725,299.525 710.391,298.691 708.5,299C 710.072,305.586 711.405,312.252 712.5,319C 711.789,321.796 711.122,324.63 710.5,327.5C 710.624,328.107 710.957,328.44 711.5,328.5C 711.246,342.563 708.079,355.896 702,368.5C 698.361,373.471 694.861,378.471 691.5,383.5C 690.514,379.03 690.181,374.363 690.5,369.5C 691.559,359.102 692.559,348.602 693.5,338C 691.44,326.155 689.94,313.988 689,301.5C 687.592,293.986 684.759,287.153 680.5,281C 679.207,280.51 677.873,280.343 676.5,280.5C 676.421,281.93 676.754,283.264 677.5,284.5C 670.17,285.446 662.836,285.28 655.5,284C 648.358,274.762 644.025,264.262 642.5,252.5C 640.571,252.231 638.905,252.731 637.5,254C 639.469,264.346 642.136,274.513 645.5,284.5C 627.298,284.344 608.964,284.511 590.5,285C 583.192,282.516 576.692,278.683 571,273.5C 569.103,270.873 567.603,268.039 566.5,265C 565.207,264.51 563.873,264.343 562.5,264.5C 562.108,269.732 560.941,274.732 559,279.5C 555.992,273.297 554.159,266.797 553.5,260C 553.957,259.586 554.291,259.086 554.5,258.5C 551.953,244.553 552.953,230.886 557.5,217.5C 554.68,217.248 552.014,217.748 549.5,219C 548,221.167 546.5,223.333 545,225.5C 537.826,242.471 530.492,259.471 523,276.5C 519.414,282.091 515.08,287.091 510,291.5C 509.517,292.448 509.351,293.448 509.5,294.5C 508.448,294.351 507.448,294.517 506.5,295C 502.696,298.542 499.029,302.209 495.5,306C 494.833,306.667 494.167,306.667 493.5,306C 495.465,297.345 497.798,288.845 500.5,280.5C 498.473,280.338 496.473,280.505 494.5,281C 493.874,281.75 493.374,282.584 493,283.5C 485.783,319.962 483.783,356.629 487,393.5C 484.78,388.215 481.947,383.381 478.5,379C 478.833,378.667 479.167,378.333 479.5,378C 475.452,372.286 472.285,366.119 470,359.5C 468.31,348.271 466.477,337.104 464.5,326C 465.252,325.329 465.586,324.496 465.5,323.5C 465.125,315.612 466.125,307.779 468.5,300C 467.352,298.274 466.185,298.441 465,300.5C 464.506,298.866 464.34,297.199 464.5,295.5C 466.934,277.676 472.434,261.009 481,245.5C 485.131,240.732 488.631,235.565 491.5,230C 490.5,229.333 489.5,229.333 488.5,230C 475.84,243.669 467.007,259.503 462,277.5C 460.35,288.244 458.517,298.911 456.5,309.5C 454.097,309.393 452.264,310.393 451,312.5C 448.19,315.464 446.024,318.798 444.5,322.5C 440.976,326.881 438.476,331.881 437,337.5C 436.164,333.627 435.331,329.793 434.5,326C 436.204,307.357 439.371,288.857 444,270.5C 445.445,265.494 447.279,260.661 449.5,256C 447.956,256.487 446.29,256.987 444.5,257.5C 450.9,226.743 464.066,199.41 484,175.5C 490.875,167.957 498.375,161.124 506.5,155C 519.504,146.215 533.17,138.548 547.5,132C 557.059,129.056 566.726,128.723 576.5,131C 579.289,133.652 582.623,134.819 586.5,134.5C 594.606,131.542 602.94,129.208 611.5,127.5C 617.494,128.999 623.494,130.499 629.5,132C 645.675,139.581 661.008,148.414 675.5,158.5C 681.539,164.04 687.372,169.707 693,175.5C 694.564,177.263 695.731,179.263 696.5,181.5C 697.325,182.386 698.325,182.719 699.5,182.5C 705.521,192.028 711.354,201.695 717,211.5C 721.988,224.815 726.988,238.148 732,251.5C 732.667,253.5 732.667,255.5 732,257.5C 731.586,257.957 731.086,258.291 730.5,258.5C 729.833,257.5 729.167,256.5 728.5,255.5C 728.167,255.667 727.833,255.833 727.5,256C 733.028,269.528 736.694,283.361 738.5,297.5C 740.295,307.241 741.628,316.741 742.5,326C 741.669,329.793 740.836,333.627 740,337.5C 738.524,331.881 736.024,326.881 732.5,322.5 Z"/></g>
<g><path style="opacity:1" fill="#733d4f" d="M 567.5,185.5 C 567.198,188.059 567.532,190.393 568.5,192.5C 568.391,195.534 567.057,196.534 564.5,195.5C 565.717,192.103 566.717,188.77 567.5,185.5 Z"/></g>
<g><path style="opacity:1" fill="#673443" d="M 512.5,186.5 C 510.825,188.456 511.158,189.789 513.5,190.5C 510.871,193.631 508.038,196.631 505,199.5C 504.915,196.639 505.749,193.972 507.5,191.5C 509.333,189.851 511,188.184 512.5,186.5 Z"/></g>
<g><path style="opacity:0.997" fill="#461c22" d="M 513.5,190.5 C 511.158,189.789 510.825,188.456 512.5,186.5C 514.922,182.572 517.922,179.072 521.5,176C 526.067,171.342 531.067,167.175 536.5,163.5C 544.933,158.989 553.933,157.323 563.5,158.5C 563.67,159.822 563.337,160.989 562.5,162C 554.125,161.684 546.125,163.684 538.5,168C 529.653,175.018 521.32,182.518 513.5,190.5 Z"/></g>
<g><path style="opacity:0.993" fill="#42191e" d="M 606.5,155.5 C 628.619,156.032 647.453,164.032 663,179.5C 665.912,182.987 667.412,186.987 667.5,191.5C 663.143,191.901 660.643,189.901 660,185.5C 656.401,182.053 652.901,178.553 649.5,175C 643.78,171.387 637.947,167.887 632,164.5C 631.667,164.833 631.333,165.167 631,165.5C 629.581,164.54 628.081,163.707 626.5,163C 619.565,162.185 612.898,160.685 606.5,158.5C 606.5,157.5 606.5,156.5 606.5,155.5 Z"/></g>
<g><path style="opacity:0.999" fill="#41181d" d="M 568.5,192.5 C 567.532,190.393 567.198,188.059 567.5,185.5C 572.051,175.436 578.718,166.936 587.5,160C 588.793,159.51 590.127,159.343 591.5,159.5C 591.649,160.552 591.483,161.552 591,162.5C 582.705,169.786 576.372,178.453 572,188.5C 571.051,190.093 569.885,191.426 568.5,192.5 Z"/></g>
<g><path style="opacity:0.993" fill="#4a1f26" d="M 627.5,137.5 C 631.936,137.21 636.27,137.71 640.5,139C 641.731,140.183 641.731,141.349 640.5,142.5C 623.385,141.396 607.385,145.063 592.5,153.5C 591.653,151.939 591.986,150.439 593.5,149C 604.198,143 615.531,139.166 627.5,137.5 Z"/></g>
<g><path style="opacity:0.994" fill="#441a20" d="M 549.5,135.5 C 559.302,134.612 568.635,136.612 577.5,141.5C 579.043,144.39 581.376,146.057 584.5,146.5C 584.826,149.607 583.659,151.94 581,153.5C 579.319,151.452 577.819,149.285 576.5,147C 566.377,141.951 555.71,139.951 544.5,141C 545.912,138.871 547.579,137.038 549.5,135.5 Z"/></g>
<g><path style="opacity:0.968" fill="#441b20" d="M 660.5,231.5 C 663.263,231.744 665.429,233.077 667,235.5C 671.588,241.75 675.755,248.25 679.5,255C 681.217,259.359 682.884,263.693 684.5,268C 683.281,272.346 681.447,272.513 679,268.5C 676.576,261.851 673.409,255.685 669.5,250C 669.957,249.586 670.291,249.086 670.5,248.5C 668.144,245.978 665.977,243.312 664,240.5C 662.557,237.575 661.391,234.575 660.5,231.5 Z"/></g>
<g><path style="opacity:1" fill="#63313e" d="M 464.5,295.5 C 464.34,297.199 464.506,298.866 465,300.5C 466.185,298.441 467.352,298.274 468.5,300C 466.125,307.779 465.125,315.612 465.5,323.5C 464.62,321.863 463.954,320.03 463.5,318C 464.493,315.547 464.66,313.047 464,310.5C 462.844,311.993 462.01,311.826 461.5,310C 461.905,309.055 462.572,308.388 463.5,308C 462.919,307.107 462.585,306.107 462.5,305C 462.946,301.65 463.612,298.483 464.5,295.5 Z"/></g>
<g><path style="opacity:0.902" fill="#5b2b37" d="M 713.5,300.5 C 714.043,300.56 714.376,300.893 714.5,301.5C 713.675,302.386 712.675,302.719 711.5,302.5C 711.622,306.589 712.289,310.756 713.5,315C 713.247,319.607 712.58,324.107 711.5,328.5C 710.957,328.44 710.624,328.107 710.5,327.5C 711.122,324.63 711.789,321.796 712.5,319C 711.405,312.252 710.072,305.586 708.5,299C 710.391,298.691 711.725,299.525 712.5,301.5C 713.107,301.376 713.44,301.043 713.5,300.5 Z"/></g>
<g><path style="opacity:1" fill="#c77ba4" d="M 453.5,372.5 C 459.52,375.095 465.686,377.429 472,379.5C 475.532,385.899 478.532,392.566 481,399.5C 484.759,406.522 489.592,412.689 495.5,418C 498.465,419.498 501.465,419.665 504.5,418.5C 502.183,416.758 500.683,414.424 500,411.5C 497.999,404.535 496.666,397.535 496,390.5C 498.326,391.813 499.659,393.813 500,396.5C 504.215,399.925 508.215,403.592 512,407.5C 513.471,413.431 513.804,419.431 513,425.5C 511.518,430.108 510.351,434.775 509.5,439.5C 512.81,439.539 515.476,438.206 517.5,435.5C 522.673,442.969 524.506,451.302 523,460.5C 521.48,467.398 518.98,473.898 515.5,480C 515.167,480.167 514.833,480.333 514.5,480.5C 511.437,474.939 506.937,470.939 501,468.5C 499.287,469.137 499.121,470.137 500.5,471.5C 504.212,474.211 507.212,477.544 509.5,481.5C 508.302,481.94 507.135,482.273 506,482.5C 495.656,475.47 485.99,467.47 477,458.5C 474.53,454.738 474.03,450.738 475.5,446.5C 479.942,450.449 484.775,453.782 490,456.5C 490.741,455.359 491.575,455.359 492.5,456.5C 493.769,454.82 495.436,453.653 497.5,453C 495.393,450.773 493.06,448.773 490.5,447C 467.403,436.639 456.07,418.806 456.5,393.5C 464.646,403.146 473.313,412.313 482.5,421C 488.265,423.66 489.765,422.16 487,416.5C 476.922,406.033 467.422,395.033 458.5,383.5C 456.804,379.817 455.137,376.15 453.5,372.5 Z"/></g>
<g><path style="opacity:1" fill="#c87ba5" d="M 696.5,416.5 C 699.803,414.198 702.803,411.532 705.5,408.5C 705.738,406.596 706.738,405.262 708.5,404.5C 711.857,402.197 715.024,399.53 718,396.5C 718.383,397.056 718.883,397.389 719.5,397.5C 718.198,420.456 707.198,436.622 686.5,446C 684.125,448.176 681.792,450.343 679.5,452.5C 681.162,453.327 682.495,454.493 683.5,456C 684.825,455.852 685.992,456.018 687,456.5C 692.272,453.559 697.272,450.226 702,446.5C 702.965,450.782 702.298,454.782 700,458.5C 690.854,467.33 681.187,475.33 671,482.5C 669.865,482.273 668.698,481.94 667.5,481.5C 670.1,477.032 673.433,473.199 677.5,470C 675.029,469.294 672.695,469.627 670.5,471C 667.115,473.581 664.448,476.748 662.5,480.5C 660.515,478.543 659.015,476.21 658,473.5C 655.157,466.962 653.657,460.129 653.5,453C 654.678,446.806 656.012,440.64 657.5,434.5C 659.149,435.714 660.815,437.047 662.5,438.5C 664.045,439.452 665.712,439.785 667.5,439.5C 664.7,431.964 662.7,424.297 661.5,416.5C 661.372,414.345 661.872,412.345 663,410.5C 667.956,404.707 673.123,399.04 678.5,393.5C 678.833,394.167 679.167,394.833 679.5,395.5C 676.269,401.749 674.269,408.416 673.5,415.5C 672.5,415.5 671.5,415.5 670.5,415.5C 670.5,416.5 670.5,417.5 670.5,418.5C 675.47,417.194 679.97,414.861 684,411.5C 685.86,407.129 688.693,403.462 692.5,400.5C 697.197,392.786 701.53,384.786 705.5,376.5C 711.134,375.008 716.801,373.675 722.5,372.5C 720.852,375.797 719.185,379.13 717.5,382.5C 707.89,393.398 698.057,404.065 688,414.5C 687.654,416.218 687.154,417.885 686.5,419.5C 687,419.833 687.5,420.167 688,420.5C 691.198,419.768 694.031,418.435 696.5,416.5 Z"/></g>
<g><path style="opacity:1" fill="#9f5d7b" d="M 690.5,369.5 C 690.181,374.363 690.514,379.03 691.5,383.5C 691.082,386.09 690.082,388.423 688.5,390.5C 687.692,390.192 687.025,389.692 686.5,389C 687.09,387.491 687.756,385.991 688.5,384.5C 689.167,379.349 689.834,374.349 690.5,369.5 Z"/></g>
<g><path style="opacity:1" fill="#9f5d7b" d="M 719.5,397.5 C 718.883,397.389 718.383,397.056 718,396.5C 715.024,399.53 711.857,402.197 708.5,404.5C 708.5,403.5 708.5,402.5 708.5,401.5C 712.957,399.572 716.79,396.572 720,392.5C 720.384,394.197 720.218,395.863 719.5,397.5 Z"/></g>
<g><path style="opacity:1" fill="#93546f" d="M 705.5,408.5 C 702.803,411.532 699.803,414.198 696.5,416.5C 698.636,412.688 701.636,410.021 705.5,408.5 Z"/></g>
<g><path style="opacity:0.998" fill="#5e2d3a" d="M 661.5,416.5 C 662.7,424.297 664.7,431.964 667.5,439.5C 665.712,439.785 664.045,439.452 662.5,438.5C 660.815,437.047 659.149,435.714 657.5,434.5C 657.735,433.903 658.235,433.57 659,433.5C 665.293,439.254 666.626,438.254 663,430.5C 661.878,425.898 661.378,421.232 661.5,416.5 Z"/></g>
<g><path style="opacity:1" fill="#c69b43" d="M 528.5,476.5 C 530.302,477.315 531.302,478.815 531.5,481C 531.537,485.779 531.037,490.945 530,496.5C 524.882,499.544 520.382,498.71 516.5,494C 516.24,484.964 520.24,479.13 528.5,476.5 Z"/></g>
<g><path style="opacity:1" fill="#c69b43" d="M 646.5,476.5 C 657.216,478.77 661.55,485.27 659.5,496C 655.775,498.466 651.775,498.966 647.5,497.5C 645.589,490.453 645.256,483.453 646.5,476.5 Z"/></g>
<g><path style="opacity:1" fill="#c89d44" d="M 481.5,477.5 C 484.421,477.146 486.754,478.146 488.5,480.5C 490.603,483.414 492.437,486.414 494,489.5C 494.667,491.833 494.667,494.167 494,496.5C 490.779,499.771 487.112,501.438 483,501.5C 481.615,500.449 480.615,499.116 480,497.5C 479.333,491.5 479.333,485.5 480,479.5C 480.717,478.956 481.217,478.289 481.5,477.5 Z"/></g>
<g><path style="opacity:1" fill="#c99e44" d="M 691.5,477.5 C 693.722,477.178 695.556,477.845 697,479.5C 697.667,485.5 697.667,491.5 697,497.5C 696.626,498.416 696.126,499.25 695.5,500C 691.563,501.708 687.897,501.042 684.5,498C 682.093,494.38 681.927,490.547 684,486.5C 686.711,483.627 689.211,480.627 691.5,477.5 Z"/></g>
<g><path style="opacity:1" fill="#c99e44" d="M 511.5,487.5 C 511.909,490.855 511.242,493.855 509.5,496.5C 506.762,496.851 504.096,497.518 501.5,498.5C 500.824,497.398 500.158,496.398 499.5,495.5C 496.384,492.247 496.884,489.581 501,487.5C 504.288,487.658 507.788,487.658 511.5,487.5 Z"/></g>
<g><path style="opacity:1" fill="#c69b43" d="M 665.5,487.5 C 669.212,487.658 672.712,487.658 676,487.5C 677.298,488.56 678.465,489.726 679.5,491C 678.313,493.724 677.647,496.557 677.5,499.5C 674.37,497.942 671.037,496.942 667.5,496.5C 665.758,493.855 665.091,490.855 665.5,487.5 Z"/></g>
<g><path style="opacity:1" fill="#875d2e" d="M 511.5,487.5 C 512.477,490.287 512.81,493.287 512.5,496.5C 511.5,496.5 510.5,496.5 509.5,496.5C 511.242,493.855 511.909,490.855 511.5,487.5 Z"/></g>
<g><path style="opacity:1" fill="#855d2e" d="M 665.5,487.5 C 665.091,490.855 665.758,493.855 667.5,496.5C 666.5,496.5 665.5,496.5 664.5,496.5C 664.19,493.287 664.523,490.287 665.5,487.5 Z"/></g>
<g><path style="opacity:1" fill="#5e3621" d="M 499.5,495.5 C 500.158,496.398 500.824,497.398 501.5,498.5C 504.096,497.518 506.762,496.851 509.5,496.5C 506.761,499.024 503.428,500.024 499.5,499.5C 499.5,498.167 499.5,496.833 499.5,495.5 Z"/></g>
<g><path style="opacity:1" fill="#ca7da7" d="M 511.5,499.5 C 512.978,499.238 514.311,499.571 515.5,500.5C 516.893,509.694 520.227,518.027 525.5,525.5C 524.413,526.105 523.246,525.772 522,524.5C 519.959,520.916 517.792,517.416 515.5,514C 514.552,513.517 513.552,513.351 512.5,513.5C 513.42,519.423 516.087,524.423 520.5,528.5C 520.291,529.086 519.957,529.586 519.5,530C 516.262,531.368 512.928,531.701 509.5,531C 505.618,527.611 501.618,524.444 497.5,521.5C 495.364,522.423 494.198,524.089 494,526.5C 493.333,520.167 493.333,513.833 494,507.5C 494.471,505.754 495.138,504.087 496,502.5C 498.699,502.336 501.532,502.17 504.5,502C 507.004,501.302 509.337,500.469 511.5,499.5 Z"/></g>
<g><path style="opacity:1" fill="#ca7da7" d="M 661.5,499.5 C 665.93,500.024 670.264,501.024 674.5,502.5C 679.635,500.165 682.468,501.832 683,507.5C 683.667,513.833 683.667,520.167 683,526.5C 682.802,524.089 681.636,522.423 679.5,521.5C 675.382,524.444 671.382,527.611 667.5,531C 655.782,532.671 653.949,529.504 662,521.5C 663.136,518.904 663.969,516.237 664.5,513.5C 662.61,513.297 661.11,513.963 660,515.5C 658.429,520.055 655.762,523.722 652,526.5C 651.833,526.167 651.667,525.833 651.5,525.5C 656.952,517.726 660.286,509.059 661.5,499.5 Z"/></g>
<g><path style="opacity:1" fill="#51242d" d="M 504.5,516.5 C 508.314,517.602 509.98,519.935 509.5,523.5C 506.255,522.26 504.588,519.927 504.5,516.5 Z"/></g>
<g><path style="opacity:1" fill="#602f3c" d="M 670.5,516.5 C 672.225,516.843 672.725,517.843 672,519.5C 670.823,521.176 669.323,522.509 667.5,523.5C 667.167,523.167 666.833,522.833 666.5,522.5C 667.467,520.21 668.8,518.21 670.5,516.5 Z"/></g>
</svg>
