<?xml version="1.0" encoding="UTF-8"?>
<!DOCTYPE svg PUBLIC "-//W3C//DTD SVG 1.1//EN" "http://www.w3.org/Graphics/SVG/1.1/DTD/svg11.dtd">
<svg xmlns="http://www.w3.org/2000/svg" version="1.1" width="1216px" height="1749px" style="shape-rendering:geometricPrecision; text-rendering:geometricPrecision; image-rendering:optimizeQuality; fill-rule:evenodd; clip-rule:evenodd" xmlns:xlink="http://www.w3.org/1999/xlink">
<g><path style="opacity:0.968" fill="#391314" d="M 675.5,429.5 C 670.029,422.411 666.695,414.578 665.5,406C 666.423,401.476 667.59,396.976 669,392.5C 673.597,385.635 677.93,378.635 682,371.5C 683.006,366.295 684.173,361.129 685.5,356C 685.5,344.667 685.5,333.333 685.5,322C 684.359,314.918 683.359,308.084 682.5,301.5C 683.192,299.665 682.858,297.832 681.5,296C 681.833,295.667 682.167,295.333 682.5,295C 680.437,289.439 679.437,283.939 679.5,278.5C 677.073,278.477 674.74,277.977 672.5,277C 664.979,271.112 658.479,264.279 653,256.5C 652.633,266.908 654.8,277.074 659.5,287C 659.167,287.5 658.833,288 658.5,288.5C 650.675,285.843 644.842,280.843 641,273.5C 641.638,279.811 642.805,285.811 644.5,291.5C 643.758,292.287 642.925,292.953 642,293.5C 639.842,292.174 638.008,290.507 636.5,288.5C 631.67,289.221 627.003,290.554 622.5,292.5C 616.736,292.306 610.903,292.306 605,292.5C 603.333,291.833 601.667,291.167 600,290.5C 592.701,290.883 585.534,289.05 578.5,285C 576.031,282.559 574.198,279.726 573,276.5C 572.626,277.416 572.126,278.25 571.5,279C 572.298,282.1 573.965,284.6 576.5,286.5C 574.936,288.603 572.936,289.436 570.5,289C 557.249,281.405 550.249,270.405 549.5,256C 548.773,254.601 548.273,253.101 548,251.5C 547.667,245.167 547.333,238.833 547,232.5C 533.182,254.483 516.349,273.816 496.5,290.5C 495.926,292.059 495.26,293.559 494.5,295C 495.097,296.628 494.763,298.295 493.5,300C 493.577,303.729 493.577,307.395 493.5,311C 492.833,312.667 492.167,314.333 491.5,316C 491.647,329.197 491.647,342.531 491.5,356C 492.827,361.129 493.994,366.295 495,371.5C 499.07,378.635 503.403,385.635 508,392.5C 510.994,399.988 511.66,407.321 510,414.5C 507.896,419.961 505.063,424.961 501.5,429.5C 500.002,432.336 499.669,435.336 500.5,438.5C 503.973,442.071 507.973,444.904 512.5,447C 513.982,448.983 515.649,450.816 517.5,452.5C 516.141,454.636 514.307,454.969 512,453.5C 502.63,458.206 493.464,457.372 484.5,451C 478.532,446.357 474.032,440.524 471,433.5C 470.257,427.302 470.424,421.469 471.5,416C 468.067,404.511 463.567,393.345 458,382.5C 452.755,367.751 451.589,352.918 454.5,338C 454.043,337.586 453.709,337.086 453.5,336.5C 454.782,329.062 456.115,321.396 457.5,313.5C 455.063,313.756 452.729,314.423 450.5,315.5C 447.571,311.951 445.571,308.284 444.5,304.5C 441.295,290.133 440.961,275.799 443.5,261.5C 442.07,261.421 440.736,261.754 439.5,262.5C 438.797,278.203 434.797,293.536 427.5,308.5C 433,315.17 436,322.837 436.5,331.5C 435.929,335.482 435.929,338.982 436.5,342C 431.476,353.296 427.476,364.629 424.5,376C 425.803,382.044 425.803,388.544 424.5,395.5C 424.912,399.089 426.245,402.256 428.5,405C 427.643,405.689 426.977,406.522 426.5,407.5C 426.211,409.218 426.544,411.052 427.5,413C 427.167,413.833 426.833,414.667 426.5,415.5C 426.167,415.333 425.833,415.167 425.5,415C 420.999,410.29 416.999,405.29 413.5,400C 409.784,394.28 407.117,387.613 405.5,380C 405.5,376.667 405.5,373.333 405.5,370C 409.287,356.412 413.954,343.078 419.5,330C 419.43,328.376 418.93,326.543 418,324.5C 412.635,336.779 406.968,349.446 401,362.5C 396.455,374.124 394.289,385.958 394.5,398C 396.801,405.622 399.134,413.288 401.5,421C 401.167,421.5 400.833,422 400.5,422.5C 397.994,420.494 395.827,418.16 394,415.5C 390.276,410.022 387.11,404.188 384.5,398C 384.833,397.667 385.167,397.333 385.5,397C 384.642,395.43 383.975,393.763 383.5,392C 383.531,387.154 383.531,382.32 383.5,377.5C 386.53,365.223 390.696,353.223 396,341.5C 400.547,334.242 404.714,326.742 408.5,319C 398.573,308.5 396.906,296.5 403.5,283C 403.167,282.667 402.833,282.333 402.5,282C 406.232,272.803 409.566,263.469 412.5,254C 408.367,250.869 404.534,247.369 401,243.5C 400.604,240.304 399.438,237.47 397.5,235C 396.662,229.273 394.995,223.439 392.5,217.5C 392.804,214.857 393.47,212.024 394.5,209C 393.5,206.909 394.167,205.243 396.5,204C 395.789,201.204 395.122,198.37 394.5,195.5C 396.685,185.797 400.518,176.797 406,168.5C 411.02,163.317 417.187,160.317 424.5,159.5C 434.71,148.484 446.71,145.317 460.5,150C 462.76,152.428 465.427,154.261 468.5,155.5C 470.873,158.37 473.373,161.037 476,163.5C 496.405,145.388 519.571,132.722 545.5,125.5C 546.086,125.709 546.586,126.043 547,126.5C 555.86,124.372 564.526,122.706 573,121.5C 579.103,123.12 583.936,126.453 587.5,131.5C 597.275,124.197 608.275,121.697 620.5,124C 650.562,128.614 676.729,141.447 699,162.5C 703.923,158.955 708.756,155.288 713.5,151.5C 728.675,144.802 742.009,147.468 753.5,159.5C 765.794,161.623 773.96,168.623 778,180.5C 779.583,185.339 781.083,190.172 782.5,195C 781.833,198 781.167,201 780.5,204C 783.014,206.178 783.681,208.844 782.5,212C 783.167,213.667 783.833,215.333 784.5,217C 781.703,223.008 780.036,229.008 779.5,235C 777.694,237.573 776.36,240.407 775.5,243.5C 772.442,247.525 768.775,250.858 764.5,253.5C 768.847,265.373 772.681,277.373 776,289.5C 779.614,300.546 777.114,310.379 768.5,319C 775.306,330.777 781.472,342.944 787,355.5C 789.27,362.809 791.437,370.142 793.5,377.5C 793.469,382.32 793.469,387.154 793.5,392C 792.745,397.251 790.911,402.418 788,407.5C 785.434,410.952 783.101,414.618 781,418.5C 779,419.167 777.667,420.5 777,422.5C 776.667,422.167 776.333,421.833 776,421.5C 777.742,413.6 779.909,405.766 782.5,398C 782.711,385.958 780.545,374.124 776,362.5C 770.113,349.802 764.446,337.136 759,324.5C 758.07,326.543 757.57,328.376 757.5,330C 763.046,343.078 767.713,356.412 771.5,370C 771.919,378.896 770.086,387.73 766,396.5C 765.097,397.701 763.931,398.535 762.5,399C 762.833,399.333 763.167,399.667 763.5,400C 760.149,401.865 758.149,404.698 757.5,408.5C 755.183,411.317 752.683,413.984 750,416.5C 749.582,413.183 749.749,410.183 750.5,407.5C 750.023,406.522 749.357,405.689 748.5,405C 750.755,402.256 752.088,399.089 752.5,395.5C 751.197,388.544 751.197,382.044 752.5,376C 749.524,364.629 745.524,353.296 740.5,342C 740.385,336.468 740.552,330.635 741,324.5C 742.803,318.565 745.637,313.232 749.5,308.5C 742.203,293.536 738.203,278.203 737.5,262.5C 736.264,261.754 734.93,261.421 733.5,261.5C 736.039,275.799 735.705,290.133 732.5,304.5C 731.429,308.284 729.429,311.951 726.5,315.5C 724.271,314.423 721.937,313.756 719.5,313.5C 720.885,321.396 722.218,329.062 723.5,336.5C 723.291,337.086 722.957,337.586 722.5,338C 725.411,352.918 724.245,367.751 719,382.5C 713.433,393.345 708.933,404.511 705.5,416C 708.79,434.683 701.123,448.016 682.5,456C 676.971,456.838 671.971,456.172 667.5,454C 665.559,453.257 663.726,453.424 662,454.5C 660.933,453.809 659.766,453.309 658.5,453C 664.042,447.628 670.042,442.794 676.5,438.5C 677.331,435.336 676.998,432.336 675.5,429.5 Z M 423.5,261.5 C 428.543,262.063 430.543,264.897 429.5,270C 428.152,279.226 425.485,288.059 421.5,296.5C 420.031,292.443 419.031,288.276 418.5,284C 420.326,276.545 421.993,269.045 423.5,261.5 Z M 751.5,261.5 C 754.276,261.089 754.943,261.922 753.5,264C 758.051,275.053 758.884,286.22 756,297.5C 750.654,287.134 747.988,276.134 748,264.5C 748.985,263.186 750.152,262.186 751.5,261.5 Z"/></g>
<g><path style="opacity:0.98" fill="#51322d" d="M 755.5,250.5 C 753.614,253.099 750.948,254.099 747.5,253.5C 750.201,252.751 752.868,251.751 755.5,250.5 Z"/></g>
<g><path style="opacity:0.906" fill="#452220" d="M 766.5,174.5 C 770.788,179.047 773.121,184.38 773.5,190.5C 772.092,191.243 770.759,192.077 769.5,193C 771.377,195.126 772.377,197.626 772.5,200.5C 771.249,198.618 770.082,196.618 769,194.5C 768.51,193.207 768.343,191.873 768.5,190.5C 769.5,190.5 770.5,190.5 771.5,190.5C 770.137,185.04 768.47,179.706 766.5,174.5 Z"/></g>
<g><path style="opacity:0.955" fill="#462321" d="M 737.5,158.5 C 738.376,158.369 739.043,158.702 739.5,159.5C 738.624,160.251 737.624,160.751 736.5,161C 741.048,161.839 745.381,163.005 749.5,164.5C 745.818,164.665 742.152,164.499 738.5,164C 733.61,162.675 733.276,160.842 737.5,158.5 Z"/></g>
<g><path style="opacity:1" fill="#776554" d="M 737.5,158.5 C 733.276,160.842 733.61,162.675 738.5,164C 742.152,164.499 745.818,164.665 749.5,164.5C 756.338,165.986 762.004,169.32 766.5,174.5C 768.47,179.706 770.137,185.04 771.5,190.5C 770.5,190.5 769.5,190.5 768.5,190.5C 768.343,191.873 768.51,193.207 769,194.5C 770.082,196.618 771.249,198.618 772.5,200.5C 776.129,207.825 776.962,215.492 775,223.5C 772.506,228.605 770.506,233.938 769,239.5C 764.626,243.379 760.126,247.046 755.5,250.5C 752.868,251.751 750.201,252.751 747.5,253.5C 742.37,254.696 737.203,254.362 732,252.5C 730.65,241.361 728.15,230.195 724.5,219C 723.185,215.85 720.852,214.017 717.5,213.5C 714.094,213.994 713.094,215.661 714.5,218.5C 714.557,219.609 714.89,220.609 715.5,221.5C 715.294,224.495 715.96,227.162 717.5,229.5C 718.126,232.672 718.793,235.839 719.5,239C 718.366,240.016 718.699,240.683 720.5,241C 720.167,241.333 719.833,241.667 719.5,242C 721.516,252.381 722.85,262.881 723.5,273.5C 722.564,277.904 722.564,282.237 723.5,286.5C 722.428,292.141 721.428,297.808 720.5,303.5C 718.854,302.221 717.687,300.555 717,298.5C 716.667,299.167 716.333,299.833 716,300.5C 714.53,297.327 713.53,294.327 713,291.5C 711.989,290.663 710.822,290.33 709.5,290.5C 711.605,303.411 713.939,316.245 716.5,329C 716.464,339.198 716.298,349.698 716,360.5C 715.139,366.278 713.806,371.944 712,377.5C 708.586,385.746 704.42,393.58 699.5,401C 699.833,401.333 700.167,401.667 700.5,402C 698.426,405.021 697.093,408.355 696.5,412C 696.588,417.361 696.921,422.694 697.5,428C 694.788,434.038 690.955,439.205 686,443.5C 685.493,442.004 685.993,440.837 687.5,440C 687.707,436.633 687.207,433.133 686,429.5C 681.154,422.304 677.654,414.471 675.5,406C 678.702,395.447 683.202,385.947 689,377.5C 689.747,373.515 690.913,369.682 692.5,366C 693.192,358.975 693.192,351.975 692.5,345C 693.708,340.628 695.041,336.295 696.5,332C 696.167,331.667 695.833,331.333 695.5,331C 697.426,322.276 698.759,313.442 699.5,304.5C 699.497,292.793 699.497,281.126 699.5,269.5C 699.085,267.091 698.418,264.758 697.5,262.5C 696.822,272.727 696.156,282.894 695.5,293C 695.616,294.268 695.949,295.602 696.5,297C 695.499,306.833 694.166,316.667 692.5,326.5C 690.078,301.369 684.578,276.035 676,250.5C 674.701,251.09 673.868,252.09 673.5,253.5C 675.003,259.844 676.17,266.178 677,272.5C 667.904,265.271 659.904,256.938 653,247.5C 651.736,245.84 651.236,244.173 651.5,242.5C 652.599,238.342 652.599,234.009 651.5,229.5C 650.209,229.263 649.209,229.596 648.5,230.5C 647.113,235.839 646.113,241.339 645.5,247C 646.055,252.866 646.389,259.033 646.5,265.5C 646.657,266.873 646.49,268.207 646,269.5C 642.784,265.624 640.451,261.291 639,256.5C 637.667,255.167 636.333,255.167 635,256.5C 632.879,264.351 633.046,272.351 635.5,280.5C 635.192,281.308 634.692,281.975 634,282.5C 630.791,282.938 627.458,282.938 624,282.5C 621.132,284.425 618.465,284.425 616,282.5C 606.611,283.197 597.611,283.531 589,283.5C 581.543,278.524 577.21,271.857 576,263.5C 572.69,259.164 570.023,259.497 568,264.5C 567.321,267.55 566.488,270.55 565.5,273.5C 566.855,274.675 566.688,275.675 565,276.5C 558.622,268.591 555.122,260.091 554.5,251C 553.833,249 553.167,247 552.5,245C 553.042,238.77 553.042,232.103 552.5,225C 553.864,219.924 554.53,214.757 554.5,209.5C 553.5,209.5 552.5,209.5 551.5,209.5C 546.351,224.128 538.851,237.462 529,249.5C 519.03,260.471 508.697,271.137 498,281.5C 497.536,280.906 497.369,280.239 497.5,279.5C 499.603,274.749 500.603,269.749 500.5,264.5C 501.863,260.368 502.863,256.035 503.5,251.5C 502.167,251.5 500.833,251.5 499.5,251.5C 497.706,258.471 496.039,265.471 494.5,272.5C 490.018,286.707 487.352,301.041 486.5,315.5C 485.883,315.389 485.383,315.056 485,314.5C 483.598,304.307 482.432,294.141 481.5,284C 481.527,277.347 481.527,270.18 481.5,262.5C 478.51,275.091 478.177,287.591 480.5,300C 480.167,300.333 479.833,300.667 479.5,301C 480.517,307.986 481.851,314.82 483.5,321.5C 483.658,333.025 483.658,344.025 483.5,354.5C 484.131,358.034 484.798,361.534 485.5,365C 485.167,365.333 484.833,365.667 484.5,366C 488.338,377.013 493.171,387.18 499,396.5C 502.455,403.66 502.122,410.66 498,417.5C 493.616,423.315 490.783,429.815 489.5,437C 489.685,439.402 490.185,441.569 491,443.5C 486.045,439.205 482.212,434.038 479.5,428C 480.079,422.694 480.412,417.361 480.5,412C 479.35,409.254 478.85,406.421 479,403.5C 482.552,406.719 486.385,409.552 490.5,412C 492.167,412.667 493.833,412.667 495.5,412C 492.516,409.174 489.183,406.841 485.5,405C 474.084,392.005 465.917,377.172 461,360.5C 460.702,349.698 460.536,339.198 460.5,329C 462.974,316.52 465.307,303.686 467.5,290.5C 466.178,290.33 465.011,290.663 464,291.5C 463.47,294.327 462.47,297.327 461,300.5C 460.667,299.833 460.333,299.167 460,298.5C 459.313,300.555 458.146,302.221 456.5,303.5C 453.361,289.604 453.028,276.104 455.5,263C 454.476,256.121 455.143,249.121 457.5,242C 457.167,241.667 456.833,241.333 456.5,241C 457.83,234.036 459.663,227.202 462,220.5C 463.913,214.906 462.08,212.739 456.5,214C 455.667,214.833 454.833,215.667 454,216.5C 451.664,222.181 449.831,228.014 448.5,234C 448.833,234.333 449.167,234.667 449.5,235C 447.955,236.688 446.955,238.688 446.5,241C 446.957,241.414 447.291,241.914 447.5,242.5C 446.288,245.767 445.288,249.101 444.5,252.5C 438.222,254.846 431.889,255.012 425.5,253C 420.3,248.965 414.967,245.131 409.5,241.5C 407.205,234.248 404.371,227.248 401,220.5C 400.423,216.112 400.756,211.779 402,207.5C 404.119,202.479 406.619,197.646 409.5,193C 408.43,191.291 407.097,189.791 405.5,188.5C 408.282,182.92 410.782,177.254 413,171.5C 421.85,165.623 431.683,162.956 442.5,163.5C 442.5,162.5 442.5,161.5 442.5,160.5C 441.325,160.719 440.325,160.386 439.5,159.5C 442.282,157.178 445.449,155.511 449,154.5C 456.26,155.606 462.76,158.439 468.5,163C 470.017,164.685 471.684,166.185 473.5,167.5C 471.398,170.705 469.565,174.038 468,177.5C 467.054,179.956 467.554,181.956 469.5,183.5C 473.874,176.946 478.874,170.779 484.5,165C 494.051,157.785 503.885,150.952 514,144.5C 514.333,144.833 514.667,145.167 515,145.5C 523.243,140.999 531.576,137.332 540,134.5C 540.333,134.833 540.667,135.167 541,135.5C 544.667,134.5 548.333,133.5 552,132.5C 553,132.833 554,133.167 555,133.5C 560.496,130.977 565.996,130.977 571.5,133.5C 573.671,133.273 575.838,132.94 578,132.5C 578.637,134.303 579.803,135.636 581.5,136.5C 577.336,139.828 575.002,144.161 574.5,149.5C 575.93,149.579 577.264,149.246 578.5,148.5C 584.315,142.015 590.815,136.348 598,131.5C 598.739,132.574 599.739,133.241 601,133.5C 605.467,132.992 609.8,132.325 614,131.5C 636.469,133.224 657.636,140.724 677.5,154C 681.631,158.139 686.298,161.472 691.5,164C 697.028,170.026 702.361,176.192 707.5,182.5C 709.256,180.809 709.756,178.809 709,176.5C 707.682,173.199 705.848,170.199 703.5,167.5C 709.54,160.313 717.207,155.979 726.5,154.5C 730.396,155.463 734.062,156.796 737.5,158.5 Z"/></g>
<g><path style="opacity:0.824" fill="#401c1b" d="M 500.5,264.5 C 500.459,262.255 499.625,261.588 498,262.5C 497.698,266.245 496.531,269.578 494.5,272.5C 496.039,265.471 497.706,258.471 499.5,251.5C 500.833,251.5 502.167,251.5 503.5,251.5C 502.863,256.035 501.863,260.368 500.5,264.5 Z"/></g>
<g><path style="opacity:1" fill="#452321" d="M 648.5,230.5 C 647.969,242.325 647.303,253.991 646.5,265.5C 646.389,259.033 646.055,252.866 645.5,247C 646.113,241.339 647.113,235.839 648.5,230.5 Z"/></g>
<g><path style="opacity:1" fill="#4f2f2b" d="M 741.5,234.5 C 741.125,237.397 741.625,240.063 743,242.5C 743.236,240.881 744.069,239.881 745.5,239.5C 745.627,242.245 744.46,244.245 742,245.5C 740.393,241.741 740.226,238.074 741.5,234.5 Z"/></g>
<g><path style="opacity:1" fill="#573932" d="M 750.5,239.5 C 751.568,240.434 752.901,240.768 754.5,240.5C 752.636,241.793 750.636,241.793 748.5,240.5C 748.957,239.702 749.624,239.369 750.5,239.5 Z"/></g>
<g><path style="opacity:1" fill="#482724" d="M 651.5,229.5 C 652.599,234.009 652.599,238.342 651.5,242.5C 651.157,238.374 651.157,234.041 651.5,229.5 Z"/></g>
<g><path style="opacity:0.941" fill="#401c1b" d="M 772.5,219.5 C 768.692,228.313 762.692,235.313 754.5,240.5C 752.901,240.768 751.568,240.434 750.5,239.5C 758.597,234.071 764.93,227.071 769.5,218.5C 771.196,216.871 772.196,217.204 772.5,219.5 Z"/></g>
<g><path style="opacity:0.954" fill="#3f1a1a" d="M 436.5,240.5 C 435.775,248.162 434.275,248.162 432,240.5C 431.374,234.805 431.541,229.138 432.5,223.5C 433.404,222.791 433.737,221.791 433.5,220.5C 435.067,219.319 435.901,217.653 436,215.5C 436.029,224.01 436.195,232.344 436.5,240.5 Z"/></g>
<g><path style="opacity:0.976" fill="#3e1919" d="M 736.5,209.5 C 738.308,209.491 739.975,209.991 741.5,211C 741.167,211.333 740.833,211.667 740.5,212C 742.267,215.475 743.934,218.975 745.5,222.5C 745.204,228.06 745.204,233.727 745.5,239.5C 744.069,239.881 743.236,240.881 743,242.5C 741.625,240.063 741.125,237.397 741.5,234.5C 741.5,233.833 741.5,233.167 741.5,232.5C 742.108,227.056 741.442,222.056 739.5,217.5C 738.892,214.673 737.892,212.007 736.5,209.5 Z"/></g>
<g><path style="opacity:0.966" fill="#401b1b" d="M 404.5,214.5 C 408.165,218.694 411.331,223.361 414,228.5C 418.567,232.861 423.4,236.861 428.5,240.5C 426.579,241.641 424.579,241.808 422.5,241C 413.764,235.098 407.43,227.265 403.5,217.5C 403.685,216.416 404.018,215.416 404.5,214.5 Z"/></g>
<g><path style="opacity:0.992" fill="#5a3d35" d="M 715.5,221.5 C 716.768,223.905 717.435,226.572 717.5,229.5C 715.96,227.162 715.294,224.495 715.5,221.5 Z"/></g>
<g><path style="opacity:0.994" fill="#50302b" d="M 739.5,217.5 C 741.442,222.056 742.108,227.056 741.5,232.5C 740.111,227.731 739.444,222.731 739.5,217.5 Z"/></g>
<g><path style="opacity:1" fill="#5b3e36" d="M 434.5,214.5 C 434.483,216.565 434.15,218.565 433.5,220.5C 433.737,221.791 433.404,222.791 432.5,223.5C 432.215,220.171 432.882,217.171 434.5,214.5 Z"/></g>
<g><path style="opacity:1" fill="#54352f" d="M 772.5,219.5 C 772.196,217.204 771.196,216.871 769.5,218.5C 769.694,216.088 771.027,215.088 773.5,215.5C 773.768,217.099 773.434,218.432 772.5,219.5 Z"/></g>
<g><path style="opacity:1" fill="#5f443b" d="M 717.5,213.5 C 715.721,214.67 714.721,216.336 714.5,218.5C 713.094,215.661 714.094,213.994 717.5,213.5 Z"/></g>
<g><path style="opacity:0.975" fill="#4a2825" d="M 436.5,240.5 C 436.195,232.344 436.029,224.01 436,215.5C 435.901,217.653 435.067,219.319 433.5,220.5C 434.15,218.565 434.483,216.565 434.5,214.5C 434.689,209.629 437.023,207.962 441.5,209.5C 439.424,213.23 438.257,217.23 438,221.5C 437.349,227.827 436.849,234.16 436.5,240.5 Z"/></g>
<g><path style="opacity:1" fill="#583a33" d="M 745.5,222.5 C 743.934,218.975 742.267,215.475 740.5,212C 740.833,211.667 741.167,211.333 741.5,211C 739.975,209.991 738.308,209.491 736.5,209.5C 736.866,208.305 737.699,207.639 739,207.5C 743.381,211.456 745.547,216.456 745.5,222.5 Z"/></g>
<g><path style="opacity:1" fill="#644a40" d="M 760.5,198.5 C 762.201,200.731 763.534,203.231 764.5,206C 762.179,206.008 760.179,205.175 758.5,203.5C 759.675,203.719 760.675,203.386 761.5,202.5C 760.754,201.264 760.421,199.93 760.5,198.5 Z"/></g>
<g><path style="opacity:1" fill="#553731" d="M 417.5,198.5 C 417.077,200.781 417.744,202.448 419.5,203.5C 418.235,204.479 416.901,205.479 415.5,206.5C 415.167,205.833 414.833,205.167 414.5,204.5C 415.512,202.437 416.512,200.437 417.5,198.5 Z"/></g>
<g><path style="opacity:1" fill="#53342e" d="M 432.5,193.5 C 433.167,193.5 433.833,193.5 434.5,193.5C 430.429,195.98 426.429,198.647 422.5,201.5C 424.896,197.679 428.229,195.013 432.5,193.5 Z"/></g>
<g><path style="opacity:1" fill="#5c3f37" d="M 744.5,193.5 C 746.042,194.301 747.708,194.634 749.5,194.5C 750.5,195.833 751.5,197.167 752.5,198.5C 749.405,197.298 746.738,195.632 744.5,193.5 Z"/></g>
<g><path style="opacity:0.852" fill="#4a2825" d="M 748.5,189.5 C 750.512,190.228 752.512,191.062 754.5,192C 756.293,194.388 758.293,196.554 760.5,198.5C 760.421,199.93 760.754,201.264 761.5,202.5C 760.675,203.386 759.675,203.719 758.5,203.5C 755.884,202.637 753.884,200.97 752.5,198.5C 751.5,197.167 750.5,195.833 749.5,194.5C 750.738,195.412 752.072,195.579 753.5,195C 752.111,192.761 750.444,190.928 748.5,189.5 Z"/></g>
<g><path style="opacity:0.963" fill="#3f1a1a" d="M 432.5,193.5 C 428.229,195.013 424.896,197.679 422.5,201.5C 421.29,201.932 420.29,202.599 419.5,203.5C 417.744,202.448 417.077,200.781 417.5,198.5C 420.297,196.205 422.964,193.705 425.5,191C 427.247,190.648 428.914,190.148 430.5,189.5C 433.64,188.529 436.807,187.529 440,186.5C 441.404,186.509 442.57,187.009 443.5,188C 439.01,188.355 435.343,190.188 432.5,193.5 Z"/></g>
<g><path style="opacity:0.886" fill="#3e1919" d="M 746.5,189.5 C 747.167,189.5 747.833,189.5 748.5,189.5C 750.444,190.928 752.111,192.761 753.5,195C 752.072,195.579 750.738,195.412 749.5,194.5C 747.708,194.634 746.042,194.301 744.5,193.5C 741.982,192.736 739.649,191.736 737.5,190.5C 736.942,189.21 735.942,188.377 734.5,188C 732.423,187.808 730.423,187.308 728.5,186.5C 729.167,186.167 729.833,185.833 730.5,185.5C 736.154,185.864 741.487,187.198 746.5,189.5 Z"/></g>
<g><path style="opacity:0.918" fill="#4b2a26" d="M 746.5,189.5 C 741.487,187.198 736.154,185.864 730.5,185.5C 729.833,185.833 729.167,186.167 728.5,186.5C 730.423,187.308 732.423,187.808 734.5,188C 735.942,188.377 736.942,189.21 737.5,190.5C 733.833,189.833 730.167,189.167 726.5,188.5C 726.5,186.833 726.5,185.167 726.5,183.5C 734.108,182.875 740.775,184.875 746.5,189.5 Z"/></g>
<g><path style="opacity:0.929" fill="#431f1e" d="M 451.5,184.5 C 452.684,185.688 452.684,186.855 451.5,188C 445.697,189.523 440.03,191.357 434.5,193.5C 433.833,193.5 433.167,193.5 432.5,193.5C 435.343,190.188 439.01,188.355 443.5,188C 442.57,187.009 441.404,186.509 440,186.5C 436.807,187.529 433.64,188.529 430.5,189.5C 432.785,187.541 435.451,186.208 438.5,185.5C 442.824,185.073 447.158,184.739 451.5,184.5 Z"/></g>
<g><path style="opacity:1" fill="#5d4138" d="M 451.5,184.5 C 447.158,184.739 442.824,185.073 438.5,185.5C 442.754,183.591 447.088,183.258 451.5,184.5 Z"/></g>
<g><path style="opacity:0.987" fill="#3b1517" d="M 608.5,165.5 C 613.413,165.921 618.246,165.921 623,165.5C 628.028,166.337 633.028,167.337 638,168.5C 641.857,168.141 645.691,168.974 649.5,171C 651.037,172.11 651.703,173.61 651.5,175.5C 649.063,175.244 646.729,174.577 644.5,173.5C 643.312,174.84 641.812,175.507 640,175.5C 634.762,173.985 629.762,172.652 625,171.5C 624,171.833 623,172.167 622,172.5C 615.074,171.495 608.24,170.829 601.5,170.5C 601.281,169.325 601.614,168.325 602.5,167.5C 604.657,166.95 606.657,166.283 608.5,165.5 Z"/></g>
<g><path style="opacity:0.992" fill="#3c1718" d="M 570.5,160.5 C 571.496,160.414 572.329,160.748 573,161.5C 572.852,162.825 573.018,163.992 573.5,165C 569.122,171.258 565.955,178.091 564,185.5C 563.333,186.833 562.667,186.833 562,185.5C 561.085,186.328 560.419,187.328 560,188.5C 559.5,187.5 559,186.5 558.5,185.5C 559.931,175.792 563.931,167.459 570.5,160.5 Z"/></g>
<g><path style="opacity:1" fill="#452221" d="M 538.5,153.5 C 540.386,154.361 542.22,155.361 544,156.5C 544.667,157.5 544.667,158.5 544,159.5C 541.205,158.06 538.205,157.393 535,157.5C 530.787,158.051 526.62,158.385 522.5,158.5C 528.238,156.866 534.238,156.033 540.5,156C 539.244,155.583 538.577,154.75 538.5,153.5 Z"/></g>
<g><path style="opacity:0.97" fill="#3b1617" d="M 538.5,153.5 C 538.577,154.75 539.244,155.583 540.5,156C 534.238,156.033 528.238,156.866 522.5,158.5C 514.871,161.523 506.871,164.856 498.5,168.5C 497.386,167.277 497.219,165.944 498,164.5C 505.021,157.823 513.354,153.823 523,152.5C 528.003,152.237 533.17,152.571 538.5,153.5 Z"/></g>
<g><path style="opacity:0.966" fill="#3b1617" d="M 613.5,144.5 C 619.297,144.448 625.297,144.615 631.5,145C 634.215,145.875 635.548,147.708 635.5,150.5C 630.046,150.826 625.046,150.826 620.5,150.5C 610.398,152.539 600.398,154.205 590.5,155.5C 591.614,152.225 593.947,150.058 597.5,149C 602.874,147.16 608.207,145.66 613.5,144.5 Z"/></g>
<g><path style="opacity:1" fill="#776554" d="M 417.5,256.5 C 418.267,257.172 418.934,258.005 419.5,259C 410.085,281.19 412.585,301.69 427,320.5C 429.885,327.502 430.051,334.336 427.5,341C 427.833,341.333 428.167,341.667 428.5,342C 420.706,356.308 416.54,371.142 416,386.5C 415.416,382.905 414.582,379.405 413.5,376C 413.667,372.653 414.333,369.153 415.5,365.5C 415.291,364.914 414.957,364.414 414.5,364C 419.718,351.85 423.718,339.683 426.5,327.5C 426.132,323.763 424.465,320.763 421.5,318.5C 414.198,315.884 409.198,311.051 406.5,304C 406.991,302.206 406.991,300.206 406.5,298C 406.719,294.405 407.386,290.905 408.5,287.5C 407.332,286.094 407.665,284.928 409.5,284C 409.043,283.586 408.709,283.086 408.5,282.5C 411.919,273.909 414.919,265.242 417.5,256.5 Z"/></g>
<g><path style="opacity:1" fill="#776554" d="M 758.5,256.5 C 764.777,270.11 768.777,283.944 770.5,298C 770.009,300.206 770.009,302.206 770.5,304C 767.802,311.051 762.802,315.884 755.5,318.5C 752.535,320.763 750.868,323.763 750.5,327.5C 753.282,339.683 757.282,351.85 762.5,364C 762.043,364.414 761.709,364.914 761.5,365.5C 763.637,372.151 763.47,378.818 761,385.5C 760.173,370.317 756.006,355.817 748.5,342C 748.833,341.667 749.167,341.333 749.5,341C 746.949,334.336 747.115,327.502 750,320.5C 764.328,301.641 766.828,281.141 757.5,259C 758.252,258.329 758.586,257.496 758.5,256.5 Z"/></g>
<g><path style="opacity:1" fill="#492724" d="M 500.5,264.5 C 500.603,269.749 499.603,274.749 497.5,279.5C 496.957,279.44 496.624,279.107 496.5,278.5C 498.171,273.799 499.504,269.132 500.5,264.5 Z"/></g>
<g><path style="opacity:1" fill="#442220" d="M 710.5,257.5 C 711.75,257.577 712.583,258.244 713,259.5C 713.236,261.764 713.736,263.931 714.5,266C 714.167,266.333 713.833,266.667 713.5,267C 714.482,273.817 715.148,280.483 715.5,287C 715,287.5 714.5,288 714,288.5C 712.549,278.296 711.382,267.963 710.5,257.5 Z"/></g>
<g><path style="opacity:1" fill="#452322" d="M 486.5,315.5 C 485.587,317.086 485.587,318.586 486.5,320C 485.263,320.232 484.263,320.732 483.5,321.5C 481.851,314.82 480.517,307.986 479.5,301C 479.833,300.667 480.167,300.333 480.5,300C 478.177,287.591 478.51,275.091 481.5,262.5C 481.527,270.18 481.527,277.347 481.5,284C 482.432,294.141 483.598,304.307 485,314.5C 485.383,315.056 485.883,315.389 486.5,315.5 Z"/></g>
<g><path style="opacity:0.989" fill="#746151" d="M 742.5,261.5 C 743.5,261.5 744.5,261.5 745.5,261.5C 745.814,268.478 746.814,275.311 748.5,282C 747.461,289.012 749.794,295.179 755.5,300.5C 754.802,301.863 754.802,303.029 755.5,304C 754.234,304.309 753.067,304.809 752,305.5C 744.438,291.797 741.271,277.13 742.5,261.5 Z"/></g>
<g><path style="opacity:0.976" fill="#715c4d" d="M 427.5,296.5 C 429.365,288.229 431.032,279.896 432.5,271.5C 431.351,268.478 431.351,265.478 432.5,262.5C 436.334,274.606 434.667,285.94 427.5,296.5 Z"/></g>
<g><path style="opacity:1" fill="#756252" d="M 427.5,296.5 C 426.62,299.262 425.454,301.929 424,304.5C 422.885,303 422.052,301.333 421.5,299.5C 423.743,299.718 425.743,298.718 427.5,296.5 Z"/></g>
<g><path style="opacity:1" fill="#776453" d="M 411.5,320.5 C 412.473,320.987 413.473,321.487 414.5,322C 409.714,334.077 404.214,345.911 398,357.5C 395.145,364.423 392.645,371.089 390.5,377.5C 390.681,375.139 390.681,372.639 390.5,370C 392.381,365.649 393.881,361.149 395,356.5C 400.216,344.4 405.716,332.4 411.5,320.5 Z"/></g>
<g><path style="opacity:1" fill="#776554" d="M 764.5,320.5 C 771.103,332.041 776.936,344.041 782,356.5C 783.119,361.149 784.619,365.649 786.5,370C 786.319,372.639 786.319,375.139 786.5,377.5C 784.355,371.089 781.855,364.423 779,357.5C 772.938,346.044 767.438,334.378 762.5,322.5C 763.243,321.818 763.909,321.151 764.5,320.5 Z"/></g>
<g><path style="opacity:1" fill="#776654" d="M 389.5,378.5 C 390.239,378.369 390.906,378.536 391.5,379C 390.123,386.342 389.456,386.176 389.5,378.5 Z"/></g>
<g><path style="opacity:1" fill="#776654" d="M 785.5,379.5 C 785.56,378.957 785.893,378.624 786.5,378.5C 787.641,380.421 787.808,382.421 787,384.5C 786.802,382.618 786.302,380.952 785.5,379.5 Z"/></g>
<g><path style="opacity:0.925" fill="#381212" d="M 501.5,429.5 C 502.833,430.167 502.833,430.167 501.5,429.5 Z"/></g>
<g><path style="opacity:1" fill="#381213" d="M 675.5,429.5 C 674.833,430.167 674.833,430.167 675.5,429.5 Z"/></g>
</svg>
